<?xml version="1.0" encoding="UTF-8"?>
<svg width="30px" height="20px" viewBox="0 0 30 20" version="1.1" xmlns="http://www.w3.org/2000/svg" xmlns:xlink="http://www.w3.org/1999/xlink">
    <!-- Generator: Sketch 52.2 (67145) - http://www.bohemiancoding.com/sketch -->
    <title>Australia</title>
    <g id="Artboard" stroke="none" stroke-width="1" fill="none" fill-rule="evenodd">
        <polygon id="Fill-2034" fill="#292963" points="0 20 30 20 30 0 0 0"></polygon>
        <polyline id="Fill-2035" fill="#FFFFFE" points="18.222 8.41963636 17.6912727 8.77472727 18.2841818 8.83145455 18.2465455 9.55690909 18.6818182 9.05563636 19.1170909 9.55690909 19.0489091 8.83909091 19.6603636 8.77472727 19.1296364 8.39072727 19.4749091 7.76509091 18.8765455 8.03618182 18.672 7.32545455 18.4685455 8.03618182 17.8701818 7.75909091 18.222 8.41963636"></polyline>
        <polyline id="Fill-2036" fill="#FFFFFE" points="6.56672727 13.6581818 5.38363636 14.4496364 6.70418182 14.5772727 6.62127273 16.1923636 7.59109091 15.0752727 8.56090909 16.1923636 8.40981818 14.5930909 9.77181818 14.4496364 8.58872727 13.5949091 9.35890909 12.2012727 8.02472727 12.8029091 7.57036364 11.2189091 7.11654545 12.8029091 5.78236364 12.186 6.56672727 13.6581818"></polyline>
        <polyline id="Fill-2037" fill="#FFFFFE" points="21.9632727 15.1843636 21.4314545 15.5394545 22.0243636 15.5961818 21.9872727 16.3205455 22.4225455 15.8198182 22.8578182 16.3205455 22.7890909 15.6032727 23.4005455 15.5394545 22.8698182 15.1554545 23.2161818 14.5303636 22.6172727 14.8003636 22.4127273 14.0896364 22.2092727 14.8003636 21.6109091 14.5232727 21.9632727 15.1843636"></polyline>
        <polyline id="Fill-2038" fill="#FFFFFE" points="25.2403636 7.26818182 24.7096364 7.62381818 25.302 7.68 25.2649091 8.40545455 25.7001818 7.90418182 26.1354545 8.40545455 26.0672727 7.68763636 26.6781818 7.62381818 26.148 7.23981818 26.4938182 6.61472727 25.8943636 6.88472727 25.6909091 6.174 25.4874545 6.88472727 24.8885455 6.60763636 25.2403636 7.26818182"></polyline>
        <polyline id="Fill-2039" fill="#FFFFFE" points="21.9256364 3.81490909 21.3949091 4.17054545 21.9872727 4.22672727 21.9501818 4.95163636 22.3854545 4.45090909 22.8207273 4.95163636 22.7530909 4.23436364 23.364 4.17054545 22.8321818 3.786 23.1785455 3.16145455 22.5801818 3.43145455 22.3761818 2.72018182 22.1727273 3.43145455 21.5738182 3.15381818 21.9256364 3.81490909"></polyline>
        <polyline id="Fill-2040" fill="#FFFFFE" points="23.2898182 9.89945455 23.7158182 9.89945455 23.8456364 9.42272727 24.0114545 9.876 24.4472727 9.876 24.1412727 10.2512727 24.216 10.7389091 23.8636364 10.4661818 23.5025455 10.7509091 23.5952727 10.2627273 23.2898182 9.89945455"></polyline>
        <polygon id="Fill-2041" fill="#292963" points="0.161454545 9.33436364 14.9296364 9.33436364 14.9296364 0.320181818 0.161454545 0.320181818"></polygon>
        <polyline id="Fill-2042" fill="#FFFFFE" points="13.1890909 0.320181818 8.75618182 3.05181818 0.161454545 8.32036364 0.161454545 9.33436364 1.812 9.33436364 14.9296364 1.28563636 14.9296364 0.320181818 13.1890909 0.320181818"></polyline>
        <polyline id="Fill-2043" fill="#FFFFFE" points="0.161454545 0.320181818 0.161454545 1.32818182 13.284 9.33436364 14.9296364 9.33436364 14.9296364 8.33127273 1.90854545 0.320181818 0.161454545 0.320181818"></polyline>
        <polyline id="Fill-2044" fill="#FFFFFE" points="0.161454545 3.29290909 0.161454545 6.32509091 14.9296364 6.32509091 14.9296364 3.30818182 0.161454545 3.29290909"></polyline>
        <polyline id="Fill-2045" fill="#FFFFFE" points="6.30927273 0.320181818 6.31036364 9.33436364 8.77472727 9.33436364 8.76163636 0.320181818 6.30927273 0.320181818"></polyline>
        <polyline id="Fill-2046" fill="#D9252A" points="0.161454545 3.912 0.161454545 5.70709091 14.9296364 5.72127273 14.9296364 3.912 0.161454545 3.912"></polyline>
        <polyline id="Fill-2047" fill="#D9252A" points="13.7547273 0.320181818 8.87345455 3.30327273 10.0063636 3.30327273 14.8696364 0.320181818 13.7547273 0.320181818"></polyline>
        <polyline id="Fill-2048" fill="#D9252A" points="6.80290909 0.320181818 6.79036364 9.33436364 8.25709091 9.33436364 8.26909091 0.320181818 6.80290909 0.320181818"></polyline>
        <polyline id="Fill-2049" fill="#D9252A" points="0.161454545 0.320181818 0.161454545 0.951272727 3.95727273 3.29727273 5.05363636 3.29781818 0.202363636 0.320181818 0.161454545 0.320181818"></polyline>
        <polyline id="Fill-2050" fill="#D9252A" points="5.05363636 6.32509091 0.161454545 9.324 0.161454545 9.33436364 1.25836364 9.33436364 6.12490909 6.32509091 5.05363636 6.32509091"></polyline>
        <polyline id="Fill-2051" fill="#D9252A" points="10.0434545 6.32509091 14.9296364 9.33436364 14.9296364 8.64818182 11.1158182 6.32509091 10.0434545 6.32509091"></polyline>
        <rect id="Rectangle-2-Copy-9" stroke="#AAAAAA" stroke-width="0.5" x="0.25" y="0.25" width="29.5" height="19.5"></rect>
    </g>
</svg>