<svg width="30" height="20" xmlns="http://www.w3.org/2000/svg">
	<g fill="none" fill-rule="evenodd">
		<path fill="#292963" d="M0 20h30V0H0z"/>
		<path fill="#FFFFFE" d="M18.222 8.42l-.53.355.592.056-.037.726.435-.501.435.5-.068-.717.611-.064-.53-.384.345-.626-.598.271-.205-.71-.203.71-.599-.277.352.66M6.567 13.658l-1.183.792 1.32.127-.083 1.615.97-1.117.97 1.117-.151-1.599 1.362-.143-1.183-.855.77-1.394-1.334.602-.455-1.584-.453 1.584-1.335-.617.785 1.472M21.963 15.184l-.532.355.593.057-.037.725.436-.501.435.5-.069-.717.612-.064-.531-.384.346-.625-.599.27-.204-.71-.204.71-.598-.277.352.661M25.24 7.268l-.53.356.592.056-.037.725.435-.5.435.5-.068-.717.611-.064-.53-.384.346-.625-.6.27-.203-.711-.204.71-.598-.276.351.66M21.926 3.815l-.531.356.592.056-.037.725.435-.501.436.5-.068-.717.611-.063-.532-.385.347-.625-.599.27-.204-.71-.203.71-.6-.277.353.66M23.29 9.9h.426l.13-.477.165.453h.436l-.306.375.075.488-.352-.273-.361.285.092-.488-.305-.364"/>
		<path fill="#292963" d="M.161 9.334H14.93V.32H.16z"/>
		<path fill="#FFFFFE" d="M13.19.32L8.755 3.052.161 8.32v1.014h1.651L14.93 1.286V.32h-1.74"/>
		<path fill="#FFFFFE" d="M.161.32v1.008l13.123 8.006h1.646V8.331L1.909.321H.16"/>
		<path fill="#FFFFFE" d="M.161 3.293v3.032H14.93V3.308L.16 3.293"/>
		<path fill="#FFFFFE" d="M6.31.32v9.014h2.465L8.762.32H6.309"/>
		<path fill="#D9252A" d="M.161 3.912v1.795l14.769.014V3.912H.16M13.755.32L8.873 3.303h1.133L14.87.32h-1.115"/>
		<path fill="#D9252A" d="M6.803.32L6.79 9.334h1.467L8.27.32H6.803M.161.32v.631l3.796 2.346h1.097L.202.32h-.04M5.054 6.325L.16 9.324v.01h1.097l4.867-3.009H5.054M10.043 6.325l4.887 3.01v-.687l-3.814-2.323h-1.073"/>
		<path stroke="#AAA" stroke-width=".5" d="M.25.25h29.5v19.5H.25z"/>
	</g>
</svg>