<?xml version="1.0" encoding="UTF-8"?>
<svg width="30px" height="20px" viewBox="0 0 30 20" version="1.1" xmlns="http://www.w3.org/2000/svg" xmlns:xlink="http://www.w3.org/1999/xlink">
    <!-- Generator: Sketch 52.1 (67048) - http://www.bohemiancoding.com/sketch -->
    <title>Brazil</title>
    <defs>
        <rect id="path-1" x="0" y="0" width="30" height="20"></rect>
    </defs>
    <g id="Brazil" stroke="none" stroke-width="1" fill="none" fill-rule="evenodd">
        <rect fill="#FFFFFF" x="0" y="0" width="30" height="20"></rect>
        <g>
            <g id="brazil-(1)">
                <mask id="mask-2" fill="white">
                    <use xlink:href="#path-1"></use>
                </mask>
                <g id="Mask"></g>
                <g mask="url(#mask-2)">
                    <g transform="translate(-1.000000, -1.000000)">
                        <path d="M31.3869474,20.9419103 L0.550674464,20.9419103 C0.246580897,20.9419103 0,20.6953294 0,20.3912359 L0,0.567890838 C0,0.263797271 0.246580897,0.0172163743 0.550674464,0.0172163743 L31.3870097,0.0172163743 C31.6911033,0.0172163743 31.9376842,0.263797271 31.9376842,0.567890838 L31.9376842,20.3912359 C31.9376218,20.6953918 31.6910409,20.9419103 31.3869474,20.9419103 Z" id="Shape" fill="#3D9244" fill-rule="nonzero"></path>
                        <path d="M15.6824951,2.94481092 L4.07666277,10.0092008 C3.72416374,10.2237193 3.72416374,10.735345 4.07666277,10.9499259 L15.6824951,18.0143782 C15.8583392,18.1214191 16.0792203,18.1214191 16.2551267,18.0143782 L27.8610214,10.9499883 C28.2135205,10.7354698 28.2135205,10.2238441 27.8610214,10.0092632 L16.2551267,2.94481092 C16.0792827,2.83776998 15.8583392,2.83776998 15.6824951,2.94481092 Z" id="Shape" fill="#EDC223" fill-rule="nonzero"></path>
                        <circle id="Oval" fill="#31276C" fill-rule="nonzero" cx="15.9688109" cy="10.4795945" r="4.4051462"></circle>
                        <g id="Group" stroke-width="1" fill="none" fill-rule="evenodd" transform="translate(11.664717, 8.171540)">
                            <path d="M0.524038986,0.0545185185 C0.316194932,0.402463938 0.155695906,0.78060039 0.0496530214,1.18212865 C2.49169591,0.998362573 6.10420273,1.68152827 8.40346199,3.91260819 C8.55354386,3.52954386 8.65260039,3.12146589 8.68977778,2.6948616 C6.31560234,0.696701754 3.03332554,-0.0138479532 0.524038986,0.0545185185 Z" id="Shape" fill="#F5F5F5" fill-rule="nonzero"></path>
                            <path d="M4.48654971,3.81130604 L4.60382066,4.16299415 L4.97453411,4.16586355 C5.02250292,4.16623782 5.04240156,4.22749318 5.00385185,4.256 L4.70562183,4.47625731 L4.81746589,4.82969201 C4.83193762,4.87547758 4.77978947,4.91334113 4.74080312,4.88539571 L4.43920468,4.66981676 L4.13760624,4.88539571 C4.0985575,4.91334113 4.04647173,4.87547758 4.06094347,4.82969201 L4.17278752,4.47625731 L3.8745575,4.256 C3.83594542,4.22749318 3.85584405,4.16623782 3.90381287,4.16586355 L4.27452632,4.16299415 L4.39179727,3.81130604 C4.40695517,3.76576998 4.47132943,3.76576998 4.48654971,3.81130604 Z" id="Shape" fill="#F5F5F5" fill-rule="nonzero"></path>
                            <path d="M5.927423,4.72167125 L5.97788694,4.87895284 L6.13745029,4.88024947 C6.15809747,4.88037913 6.16670565,4.90780292 6.15005068,4.92057476 L6.02167641,5.01905403 L6.06976998,5.17717843 C6.0760078,5.19766523 6.05361404,5.21458629 6.03677193,5.20207378 L5.90696296,5.10566912 L5.777154,5.20207378 C5.76037427,5.21458629 5.73791813,5.19766523 5.74415595,5.17717843 L5.79224951,5.01905403 L5.66387524,4.92057476 C5.64728265,4.90786775 5.65582846,4.88044397 5.67647563,4.88024947 L5.83603899,4.87895284 L5.88650292,4.72167125 C5.89311501,4.70124928 5.92087329,4.70124928 5.927423,4.72167125 Z" id="Shape" fill="#F5F5F5" fill-rule="nonzero"></path>
                            <path d="M3.86357895,3.14381515 L3.91404288,3.30111203 L4.07360624,3.30240879 C4.09425341,3.30253846 4.1028616,3.32996492 4.08620663,3.342738 L3.95783236,3.44122685 L4.00592593,3.59936663 C4.01216374,3.61985542 3.98976998,3.63677813 3.97292788,3.6242644 L3.84311891,3.52785036 L3.71330994,3.6242644 C3.69653021,3.63677813 3.67407407,3.61985542 3.68031189,3.59936663 L3.72840546,3.44122685 L3.60003119,3.342738 C3.5834386,3.33002976 3.59198441,3.3026033 3.61263158,3.30240879 L3.77219493,3.30111203 L3.82265887,3.14381515 C3.82927096,3.12345603 3.85702924,3.12345603 3.86357895,3.14381515 Z" id="Shape" fill="#F5F5F5" fill-rule="nonzero"></path>
                            <path d="M1.06853801,2.96029858 L1.11900195,3.11759546 L1.2785653,3.11889222 C1.29921248,3.11902189 1.30782066,3.14644835 1.29116569,3.15922143 L1.16279142,3.25771028 L1.21088499,3.41585006 C1.21712281,3.43633885 1.19472904,3.45326156 1.17788694,3.44074783 L1.04807797,3.34433379 L0.918269006,3.44074783 C0.901489279,3.45326156 0.879033138,3.43633885 0.885270955,3.41585006 L0.933364522,3.25771028 L0.804990253,3.15922143 C0.788397661,3.14651319 0.79694347,3.11908673 0.817590643,3.11889222 L0.977153996,3.11759546 L1.02761793,2.96029858 C1.0342924,2.93993946 1.0619883,2.93993946 1.06853801,2.96029858 Z" id="Shape" fill="#F5F5F5" fill-rule="nonzero"></path>
                            <path d="M3.40672125,4.66939763 L3.45718519,4.82670981 L3.61674854,4.8280067 C3.63739571,4.82813638 3.6460039,4.85556551 3.62934893,4.86833983 L3.50097466,4.96683826 L3.54906823,5.12499342 C3.55530604,5.1454842 3.53291228,5.16240856 3.51607018,5.14989361 L3.38626121,5.0534702 L3.25645224,5.14989361 C3.23967251,5.16240856 3.21721637,5.1454842 3.22345419,5.12499342 L3.27154776,4.96683826 L3.14317349,4.86833983 C3.1265809,4.85563035 3.13512671,4.82820123 3.15577388,4.8280067 L3.31533723,4.82670981 L3.36580117,4.66939763 C3.37247563,4.64910138 3.40023392,4.64910138 3.40672125,4.66939763 Z" id="Shape" fill="#F5F5F5" fill-rule="nonzero"></path>
                            <path d="M2.16786645,2.85737087 L2.21799685,3.01466216 L2.37641499,3.01600992 C2.39686093,3.01616848 2.40541793,3.04359932 2.38898546,3.05636339 L2.26153912,3.15482901 L2.30932203,3.3129131 C2.31553154,3.33336731 2.29326819,3.35033321 2.27653281,3.33780699 L2.14764769,3.24140264 L2.01876257,3.33780699 C2.00202719,3.35033321 1.97983956,3.33336731 1.98597334,3.3129131 L2.03375625,3.15482901 L1.90630992,3.05636339 C1.88987744,3.04359932 1.898283,3.01616848 1.91888038,3.01600992 L2.07729852,3.01466216 L2.12742893,2.85737087 C2.13386561,2.83699594 2.16135404,2.83699594 2.16786645,2.85737087 Z" id="Shape" fill="#F5F5F5" fill-rule="nonzero"></path>
                            <path d="M6.03939181,0.299282544 L6.09104094,0.456588264 L6.25422222,0.457855836 C6.27536842,0.457982594 6.28410136,0.485425533 6.26707212,0.498164635 L6.13582846,0.596655001 L6.18504483,0.754784644 C6.19146979,0.775255936 6.16845224,0.792178026 6.15129825,0.779692439 L6.01849513,0.683230188 L5.88569201,0.779692439 C5.86847563,0.792241405 5.84558285,0.775192558 5.85194542,0.754784644 L5.90116179,0.596655001 L5.76991813,0.498164635 C5.75288889,0.485425533 5.76168421,0.458045972 5.78276803,0.457855836 L5.94594932,0.456588264 L5.99759844,0.299282544 C6.00433528,0.27887463 6.03271735,0.27887463 6.03939181,0.299282544 Z" id="Shape" fill="#F5F5F5" fill-rule="nonzero"></path>
                            <path d="M1.29594442,2.10022467 L1.34607482,2.25751597 L1.50449296,2.25886372 C1.5249389,2.25902228 1.5334959,2.28645312 1.51706343,2.29921719 L1.3896171,2.39768281 L1.4374,2.5557669 C1.44360951,2.57622111 1.42134616,2.59318701 1.40461078,2.58066079 L1.27572566,2.48425644 L1.14684054,2.58066079 C1.13010516,2.59318701 1.10791754,2.57622111 1.11405132,2.5557669 L1.16183423,2.39768281 L1.03438789,2.29921719 C1.01795542,2.28645312 1.02636097,2.25910156 1.04695836,2.25886372 L1.2053765,2.25751597 L1.2555069,2.10022467 C1.26194359,2.07984974 1.28943201,2.07984974 1.29594442,2.10022467 Z" id="Shape" fill="#F5F5F5" fill-rule="nonzero"></path>
                            <path d="M1.87833138,3.84130994 L1.94083431,4.02881871 L2.13844834,4.03031579 C2.16402339,4.03050292 2.17462768,4.06312671 2.15404288,4.07834698 L1.99504094,4.19574269 L2.05467446,4.38412476 C2.06240936,4.40851462 2.03465107,4.42872515 2.01381676,4.41381676 L1.85300585,4.29891618 L1.69219493,4.41381676 C1.671423,4.42866277 1.64360234,4.40851462 1.65133723,4.38412476 L1.71097076,4.19574269 L1.55196881,4.07834698 C1.53138402,4.06312671 1.5419883,4.03050292 1.56756335,4.03031579 L1.76517739,4.02881871 L1.82768031,3.84130994 C1.83597661,3.81710721 1.8702846,3.81710721 1.87833138,3.84130994 Z" id="Shape" fill="#F5F5F5" fill-rule="nonzero"></path>
                            <path d="M6.78894359,4.76421987 L6.83901362,4.92159223 L6.99740978,4.92284056 C7.01791465,4.923007 7.02641861,4.95038696 7.00996703,4.96311989 L6.88256661,5.06165446 L6.93033183,5.21977581 C6.93653098,5.24024836 6.91427763,5.25714238 6.89750814,5.24465912 L6.76867715,5.14820509 L6.63976668,5.24465912 C6.62307667,5.25714238 6.60082332,5.24024836 6.60694299,5.21977581 L6.65470821,5.06165446 L6.52730779,4.96311989 C6.51085621,4.95038696 6.51936017,4.923007 6.53986504,4.92284056 L6.6982612,4.92159223 L6.74833123,4.76421987 C6.75492776,4.74383054 6.78250601,4.74383054 6.78894359,4.76421987 Z" id="Shape" fill="#F5F5F5" fill-rule="nonzero"></path>
                            <path d="M7.16581676,3.86085254 L7.2162807,4.01813412 L7.37584405,4.01943076 C7.39649123,4.01956042 7.40509942,4.04698421 7.38844444,4.05975604 L7.26007018,4.15823532 L7.30816374,4.31635972 C7.31440156,4.33684652 7.2920078,4.35376758 7.27516569,4.34125507 L7.14535673,4.24485041 L7.01554776,4.34125507 C6.99876803,4.35376758 6.97631189,4.33684652 6.98254971,4.31635972 L7.03064327,4.15823532 L6.90226901,4.05975604 C6.88567641,4.04704904 6.89422222,4.01962525 6.9148694,4.01943076 L7.07443275,4.01813412 L7.12489669,3.86085254 C7.13150877,3.84043057 7.15926706,3.84043057 7.16581676,3.86085254 Z" id="Shape" fill="#F5F5F5" fill-rule="nonzero"></path>
                        </g>
                    </g>
                </g>
            </g>
            <rect id="Rectangle-2-Copy-16" stroke="#AAAAAA" stroke-width="0.5" x="0.25" y="0.25" width="29.5" height="19.5"></rect>
        </g>
    </g>
</svg>