<svg width="30" height="20" xmlns="http://www.w3.org/2000/svg" xmlns:xlink="http://www.w3.org/1999/xlink">
	<defs>
		<path id="a" d="M0 0h30v20H0z"/>
	</defs>
	<g fill="none" fill-rule="evenodd">
		<path fill="#FFF" d="M0 0h30v20H0z"/>
		<mask id="b" fill="#fff">
			<use xlink:href="#a"/>
		</mask>
		<g mask="url(#b)">
			<g transform="translate(-1 -1)" fill-rule="nonzero">
				<path d="M31.387 20.942H.55a.55.55 0 0 1-.551-.55V.567a.55.55 0 0 1 .55-.55h30.837a.55.55 0 0 1 .55.55V20.39a.55.55 0 0 1-.55.55z" fill="#3D9244"/>
				<path d="M15.682 2.945L4.077 10.009a.55.55 0 0 0 0 .94l11.605 7.065a.55.55 0 0 0 .573 0l11.606-7.064a.55.55 0 0 0 0-.94L16.255 2.944a.55.55 0 0 0-.573 0z" fill="#EDC223"/>
				<circle fill="#31276C" cx="15.969" cy="10.48" r="4.405"/>
				<g fill="#F5F5F5">
					<path d="M12.189 8.226a4.374 4.374 0 0 0-.475 1.128c2.442-.184 6.055.5 8.354 2.73.15-.383.25-.791.286-1.218-2.374-1.998-5.656-2.708-8.165-2.64zM16.151 11.983l.118.352.37.002a.05.05 0 0 1 .03.09l-.299.22.112.354a.05.05 0 0 1-.076.056l-.302-.216-.302.216a.05.05 0 0 1-.076-.056l.112-.353-.299-.22a.05.05 0 0 1 .03-.09l.37-.003.118-.352a.05.05 0 0 1 .094 0zM17.592 12.893l.05.157.16.002c.02 0 .03.027.013.04l-.129.099.048.158c.007.02-.016.037-.033.025l-.13-.097-.13.097c-.016.012-.038-.005-.032-.025l.048-.158-.128-.099c-.017-.013-.008-.04.012-.04l.16-.002.05-.157a.021.021 0 0 1 .041 0zM15.528 11.315l.05.158h.16c.021.001.03.029.013.041l-.128.099.048.158c.006.02-.017.037-.033.025l-.13-.097-.13.097c-.017.012-.04-.005-.033-.025l.048-.158-.128-.099c-.017-.012-.008-.04.012-.04l.16-.001.05-.158a.021.021 0 0 1 .041 0zM12.733 11.132l.05.157.16.001c.02 0 .03.028.013.04l-.128.1.048.157c.006.02-.017.038-.033.025l-.13-.096-.13.096c-.017.013-.04-.004-.033-.025l.048-.158-.128-.098c-.017-.013-.008-.04.012-.04l.16-.002.05-.157a.021.021 0 0 1 .041 0zM15.071 12.84l.05.158.16.002c.021 0 .03.027.013.04l-.128.098.048.159c.006.02-.016.037-.033.024l-.13-.096-.13.096c-.017.013-.04-.004-.033-.024l.048-.159-.128-.098c-.017-.013-.008-.04.012-.04l.16-.002.05-.157a.021.021 0 0 1 .041 0zM13.833 11.029l.05.157.158.002c.02 0 .03.027.013.04l-.128.098.048.158c.006.02-.016.038-.033.025l-.129-.096-.129.096c-.016.013-.038-.004-.032-.025l.047-.158-.127-.098c-.016-.013-.008-.04.013-.04l.158-.002.05-.157a.021.021 0 0 1 .04 0zM17.704 8.47l.052.158.163.001c.021 0 .03.028.013.04l-.131.1.049.157c.006.02-.017.038-.034.025l-.133-.096-.133.096c-.017.013-.04-.004-.033-.025l.049-.158-.131-.098c-.017-.013-.009-.04.012-.04l.164-.002.051-.157a.022.022 0 0 1 .042 0zM12.96 10.272l.05.157.16.001c.02 0 .028.028.012.04l-.128.1.048.157c.006.02-.016.038-.033.025l-.129-.096-.128.096c-.017.013-.04-.004-.033-.025l.048-.158-.128-.098c-.016-.013-.008-.04.013-.04l.158-.002.05-.157a.021.021 0 0 1 .04 0zM13.543 12.013l.063.187.197.002c.026 0 .036.033.016.048l-.16.117.06.189a.027.027 0 0 1-.04.03l-.161-.116-.161.115a.027.027 0 0 1-.04-.03l.059-.188-.16-.117a.027.027 0 0 1 .016-.048l.198-.002.062-.187c.009-.024.043-.024.051 0zM18.454 12.936l.05.157.158.001c.02 0 .03.028.013.04l-.128.1.048.157c.006.02-.016.038-.033.025l-.129-.096-.129.096c-.016.013-.038-.004-.032-.025l.047-.158-.127-.098c-.016-.013-.008-.04.013-.04l.158-.002.05-.157a.021.021 0 0 1 .04 0zM18.83 12.032l.051.158.16.001c.02 0 .029.028.012.04l-.128.099.048.158c.006.02-.016.037-.033.025l-.13-.097-.13.097c-.017.012-.039-.005-.033-.025l.048-.158-.128-.099c-.017-.012-.008-.04.013-.04l.16-.001.05-.158a.021.021 0 0 1 .04 0z"/>
				</g>
			</g>
		</g>
		<path stroke="#AAA" stroke-width=".5" d="M.25.25h29.5v19.5H.25z"/>
	</g>
</svg>