<svg width="30" height="20" xmlns="http://www.w3.org/2000/svg" xmlns:xlink="http://www.w3.org/1999/xlink">
	<defs>
		<path id="a" d="M0 0h30v20H0z"/>
	</defs>
	<g fill="none" fill-rule="evenodd">
		<path fill="#FFF" d="M0 0h30v20H0z"/>
		<mask id="b" fill="#fff">
			<use xlink:href="#a"/>
		</mask>
		<g mask="url(#b)" fill-rule="nonzero">
			<path fill="#E91E26" d="M-2 .047h7.995V19.96H-2zM24.005.047H32V19.96h-7.995z"/>
			<path fill="#FFF" d="M5.995.047h18.003V19.96H5.995z"/>
			<path d="M15 2.627l-1.182 2.3c-.133.253-.372.226-.611.086l-.857-.46.638 3.534c.133.646-.299.646-.505.366l-1.487-1.746-.24.886a.285.285 0 0 1-.331.207l-1.886-.413.498 1.88c.106.42.186.593-.107.7l-.67.326 3.24 2.754a.46.46 0 0 1 .146.46l-.285.973 3.234-.387c.1 0 .266.087.266.207l-.147 3.567h.545l-.086-3.56c0-.12.146-.214.245-.214l3.234.387-.285-.973a.455.455 0 0 1 .146-.46l3.24-2.754-.67-.326c-.292-.114-.213-.287-.106-.7l.491-1.88-1.886.413c-.186.027-.305-.093-.332-.207l-.24-.886-1.487 1.746c-.212.28-.644.28-.504-.366l.637-3.534-.856.46c-.24.14-.479.16-.611-.086L15 2.627z" fill="#E91E26"/>
		</g>
		<path stroke="#AAA" stroke-width=".5" d="M.25.25h29.5v19.5H.25z"/>
	</g>
</svg>