<?xml version="1.0" encoding="UTF-8"?>
<svg width="30px" height="20px" viewBox="0 0 30 20" version="1.1" xmlns="http://www.w3.org/2000/svg" xmlns:xlink="http://www.w3.org/1999/xlink">
    <!-- Generator: Sketch 52.1 (67048) - http://www.bohemiancoding.com/sketch -->
    <title>Canada</title>
    <defs>
        <rect id="path-1" x="0" y="0" width="30" height="20"></rect>
    </defs>
    <g id="Canada" stroke="none" stroke-width="1" fill="none" fill-rule="evenodd">
        <rect fill="#FFFFFF" x="0" y="0" width="30" height="20"></rect>
        <g>
            <g id="if_49_Ensign_Flag_Nation_canada_2634480">
                <mask id="mask-2" fill="white">
                    <use xlink:href="#path-1"></use>
                </mask>
                <g id="Mask"></g>
                <g mask="url(#mask-2)" fill-rule="nonzero">
                    <g transform="translate(-2.000000, 0.000000)">
                        <polygon id="XMLID_6_" fill="#E91E26" points="0 0.0466666667 7.9953125 0.0466666667 7.9953125 19.96 0 19.96"></polygon>
                        <polygon id="XMLID_5_" fill="#E91E26" points="26.0046875 0.0466666667 34 0.0466666667 34 19.96 26.0046875 19.96"></polygon>
                        <polygon id="XMLID_4_" fill="#FFFFFF" points="7.9953125 0.0466666667 25.9980469 0.0466666667 25.9980469 19.96 7.9953125 19.96"></polygon>
                        <path d="M17,2.62666667 L15.8179688,4.92666667 C15.6851563,5.18 15.4460938,5.15333333 15.2070313,5.01333333 L14.3503906,4.55333333 L14.9878906,8.08666667 C15.1207031,8.73333333 14.6890625,8.73333333 14.4832031,8.45333333 L12.9957031,6.70666667 L12.7566406,7.59333333 C12.7300781,7.70666667 12.6039062,7.83333333 12.4246094,7.8 L10.5386719,7.38666667 L11.0367187,9.26666667 C11.1429687,9.68666667 11.2226562,9.86 10.9304687,9.96666667 L10.2597656,10.2933333 L13.5003906,13.0466667 C13.6265625,13.1533333 13.6929688,13.34 13.6464844,13.5066667 L13.3609375,14.48 C14.4765625,14.3466667 15.4792969,14.2266667 16.5949219,14.0933333 C16.6945313,14.0933333 16.8605469,14.18 16.8605469,14.3 L16.7144531,17.8666667 L17.2589844,17.8666667 L17.1726562,14.3066667 C17.1726562,14.1866667 17.31875,14.0933333 17.4183594,14.0933333 C18.5339844,14.2266667 19.5367187,14.3466667 20.6523438,14.48 L20.3667969,13.5066667 C20.3203125,13.34 20.3867188,13.1466667 20.5128906,13.0466667 L23.7535156,10.2933333 L23.0828125,9.96666667 C22.790625,9.85333333 22.8703125,9.68 22.9765625,9.26666667 L23.4679687,7.38666667 L21.5820313,7.8 C21.3960938,7.82666667 21.2765625,7.70666667 21.25,7.59333333 L21.0109375,6.70666667 L19.5234375,8.45333333 C19.3109375,8.73333333 18.8792969,8.73333333 19.01875,8.08666667 L19.65625,4.55333333 L18.7996094,5.01333333 C18.5605469,5.15333333 18.3214844,5.17333333 18.1886719,4.92666667 L17,2.62666667 Z" id="XMLID_3_" fill="#E91E26"></path>
                    </g>
                </g>
            </g>
            <rect id="Rectangle-2-Copy" stroke="#AAAAAA" stroke-width="0.5" x="0.25" y="0.25" width="29.5" height="19.5"></rect>
        </g>
    </g>
</svg>