<svg width="30" height="20" xmlns="http://www.w3.org/2000/svg">
	<g fill="none" fill-rule="evenodd">
		<path fill="#282E5E" d="M0 20h30V0H0z"/>
		<path fill="#B8252F" d="M18 7.667h.758l.257-.887.235.874h.81l-.636.6.226.876-.626-.55-.635.562.236-.887L18 7.667"/>
		<path d="M18.677 8.235L18.473 9l.551-.489.544.478-.195-.755.557-.527h-.713l-.204-.76-.223.773h-.66l.547.514zm-.104.04l-.6-.565.027-.043-.027.043-.103-.098h.857l.289-1 .266.988h.908l-.714.675.256.994-.708-.622-.72.637.269-1.01z" fill="#FFFFFE"/>
		<path fill="#B8252F" d="M21.393 14.203h.794l.268-.93.247.916h.847l-.664.629.236.916-.655-.577-.665.59.247-.93-.655-.614"/>
		<path d="M22.102 14.797l-.213.801.577-.51.568.5-.203-.79.583-.552h-.745l-.215-.796-.234.81h-.69l.572.537zm-.109.041l-.628-.59.028-.045-.028.045-.108-.102h.897l.303-1.049.28 1.036h.949l-.747.705.268 1.041-.74-.652-.754.668.28-1.057z" fill="#FFFFFE"/>
		<path fill="#B8252F" d="M21.478 3.483h.713l.24-.835.222.823h.76l-.597.563.213.822-.588-.517-.597.53.222-.835-.588-.55"/>
		<path d="M22.115 4.016l-.192.72.518-.46.51.45-.183-.71.523-.495h-.668l-.193-.714-.21.727h-.618l.513.482zm-.098.037l-.564-.53.025-.04-.025.04-.097-.091h.805l.272-.94.25.928h.852l-.67.633.241.935-.665-.586-.676.6.252-.95z" fill="#FFFFFE"/>
		<path fill="#B8252F" d="M24.453 6.601h.668l.226-.782.208.771h.713l-.56.528.199.77-.551-.483-.56.495.208-.782-.55-.517"/>
		<path d="M25.05 7.102l-.179.673.485-.43.478.421-.171-.665.49-.463h-.626l-.18-.67-.198.68h-.58l.48.454zm-.092.034l-.528-.497.023-.038-.023.038-.091-.085h.755l.254-.882.235.87h.799l-.628.594.225.876-.623-.548-.634.561.236-.89zM13.346.248L8.843 3.034.233 8.332V9.34H1.9l13.114-8.076V.256l-.268-.008h-1.4" fill="#FFFFFE"/>
		<path fill="#FFFFFE" d="M15.015 8.332L1.939.256H.232v1.037L13.371 9.34h1.644V8.332"/>
		<path fill="#FFFFFE" d="M15.015 6.32H.232V3.275l14.783.015V6.32"/>
		<path fill="#FFFFFE" d="M6.398.256v9.083h2.464L8.849.256H6.398"/>
		<path fill="#D1223B" d="M15.015 3.897H.232v1.801l14.783.016V3.897M13.913.248L8.96 3.286h1.134l4.92-3.03-.267-.008h-.834"/>
		<path fill="#D1223B" d="M8.356.256l-.012 9.083H6.878L6.891.256h1.465M.232.256L5.141 3.28H4.045L.232.915v-.66M.232 9.339l4.909-3.02h1.072L1.347 9.34H.232M10.13 6.32l4.885 3.019V8.65l-3.812-2.332H10.13"/>
		<path stroke="#AAA" stroke-width=".5" d="M.25.25h29.5v19.5H.25z"/>
	</g>
</svg>