<?xml version="1.0" encoding="UTF-8"?>
<svg width="30px" height="20px" viewBox="0 0 30 20" version="1.1" xmlns="http://www.w3.org/2000/svg" xmlns:xlink="http://www.w3.org/1999/xlink">
    <!-- Generator: Sketch 52.2 (67145) - http://www.bohemiancoding.com/sketch -->
    <title>New Zealand</title>
    <g id="Artboard" stroke="none" stroke-width="1" fill="none" fill-rule="evenodd">
        <polygon id="Fill-2057" fill="#282E5E" points="0 20 30 20 30 0 0 0"></polygon>
        <polyline id="Fill-2058" fill="#B8252F" points="18 7.66745455 18.7581818 7.66745455 19.0145455 6.78 19.2501818 7.65436364 20.0596364 7.65436364 19.4241818 8.25490909 19.65 9.12981818 19.0243636 8.57945455 18.3889091 9.14236364 18.6250909 8.25490909 18 7.66745455"></polyline>
        <path d="M18.6769091,8.23472727 L18.4734545,9.00054545 L19.0243636,8.51236364 L19.5676364,8.98963636 L19.3729091,8.23472727 L19.9298182,7.70836364 L19.2174545,7.70836364 L19.0129091,6.948 L18.7898182,7.72145455 L18.1298182,7.72145455 L18.6769091,8.23472727 Z M18.5727273,8.27454545 L17.9727273,7.71 L18,7.66745455 L17.9727273,7.71 L17.8696364,7.61236364 L18.7265455,7.61236364 L19.0156364,6.61145455 L19.2818182,7.60036364 L20.19,7.60036364 L19.476,8.27454545 L19.7318182,9.26890909 L19.0243636,8.64654545 L18.3049091,9.28418182 L18.5727273,8.27454545 Z" id="Fill-2059" fill="#FFFFFE"></path>
        <polyline id="Fill-2060" fill="#B8252F" points="21.3932727 14.2030909 22.1869091 14.2030909 22.4552727 13.2730909 22.7023636 14.1894545 23.5494545 14.1894545 22.8845455 14.8178182 23.1207273 15.7341818 22.4661818 15.1570909 21.8007273 15.7467273 22.0478182 14.8178182 21.3932727 14.2030909"></polyline>
        <path d="M22.1023636,14.7970909 L21.8890909,15.5983636 L22.4661818,15.0878182 L23.034,15.5874545 L22.8305455,14.7970909 L23.4136364,14.2461818 L22.6685455,14.2461818 L22.4536364,13.4498182 L22.2201818,14.2598182 L21.5296364,14.2598182 L22.1023636,14.7970909 Z M21.9932727,14.838 L21.3649091,14.2478182 L21.3932727,14.2030909 L21.3649091,14.2478182 L21.2569091,14.1463636 L22.1541818,14.1463636 L22.4569091,13.0974545 L22.7361818,14.1327273 L23.6858182,14.1327273 L22.9385455,14.838 L23.2069091,15.8792727 L22.4661818,15.2274545 L21.7129091,15.8950909 L21.9932727,14.838 Z" id="Fill-2061" fill="#FFFFFE"></path>
        <polyline id="Fill-2062" fill="#B8252F" points="21.4783636 3.48327273 22.1907273 3.48327273 22.4312727 2.64818182 22.6527273 3.47072727 23.4130909 3.47072727 22.8163636 4.03418182 23.0285455 4.85618182 22.4410909 4.33909091 21.8443636 4.86818182 22.0658182 4.03418182 21.4783636 3.48327273"></polyline>
        <path d="M22.1149091,4.01563636 L21.9234545,4.73509091 L22.4410909,4.27690909 L22.9510909,4.72527273 L22.7678182,4.01563636 L23.2909091,3.52145455 L22.6227273,3.52145455 L22.4301818,2.80690909 L22.2201818,3.534 L21.6016364,3.534 L22.1149091,4.01563636 Z M22.0172727,4.05272727 L21.4532727,3.52309091 L21.4783636,3.48218182 L21.4532727,3.52309091 L21.3561818,3.432 L22.1612727,3.432 L22.4329091,2.49163636 L22.6827273,3.42 L23.5352727,3.42 L22.8649091,4.05272727 L23.106,4.98763636 L22.4410909,4.40236364 L21.7647273,5.00127273 L22.0172727,4.05272727 Z" id="Fill-2063" fill="#FFFFFE"></path>
        <polyline id="Fill-2064" fill="#B8252F" points="24.4532727 6.60109091 25.1214545 6.60109091 25.3472727 5.81890909 25.5550909 6.59018182 26.268 6.59018182 25.7083636 7.11818182 25.9069091 7.88890909 25.356 7.40509091 24.7963636 7.90036364 25.0041818 7.11818182 24.4532727 6.60109091"></polyline>
        <path d="M25.0494545,7.10181818 L24.8710909,7.77490909 L25.356,7.34563636 L25.8343636,7.76618182 L25.6625455,7.10072727 L26.1534545,6.63763636 L25.5267273,6.63763636 L25.3461818,5.96727273 L25.1487273,6.648 L24.5683636,6.648 L25.0494545,7.10181818 Z M24.9583636,7.13563636 L24.4298182,6.63872727 L24.4532727,6.60109091 L24.4298182,6.63872727 L24.3387273,6.55363636 L25.0936364,6.55363636 L25.3483636,5.67163636 L25.5829091,6.54218182 L26.382,6.54218182 L25.7536364,7.13563636 L25.9794545,8.01163636 L25.356,7.464 L24.7221818,8.02527273 L24.9583636,7.13563636 Z" id="Fill-2065" fill="#FFFFFE"></path>
        <polyline id="Fill-2067" fill="#FFFFFE" points="13.3461818 0.248181818 8.84345455 3.03436364 0.232363636 8.33236364 0.232363636 9.33872727 1.90145455 9.33872727 15.0147273 1.26272727 15.0147273 0.255818182 14.7474545 0.248181818 13.3461818 0.248181818"></polyline>
        <polyline id="Fill-2068" fill="#FFFFFE" points="15.0147273 8.33236364 1.93854545 0.255818182 0.232363636 0.255818182 0.232363636 1.29327273 13.3707273 9.33872727 15.0147273 9.33872727 15.0147273 8.33236364"></polyline>
        <polyline id="Fill-2069" fill="#FFFFFE" points="15.0147273 6.31909091 0.232363636 6.31909091 0.232363636 3.276 15.0147273 3.29127273 15.0147273 6.31909091"></polyline>
        <polyline id="Fill-2070" fill="#FFFFFE" points="6.39763636 0.255818182 6.39818182 9.33872727 8.862 9.33872727 8.84945455 0.255818182 6.39763636 0.255818182"></polyline>
        <polyline id="Fill-2071" fill="#D1223B" points="15.0147273 3.89727273 0.232363636 3.89727273 0.232363636 5.69836364 15.0147273 5.71418182 15.0147273 3.89727273"></polyline>
        <polyline id="Fill-2072" fill="#D1223B" points="13.9134545 0.248181818 8.96018182 3.28636364 10.0936364 3.28636364 15.0147273 0.255818182 14.7474545 0.248181818 13.9134545 0.248181818"></polyline>
        <polyline id="Fill-2073" fill="#D1223B" points="8.35636364 0.255818182 8.34436364 9.33872727 6.87818182 9.33872727 6.89072727 0.255818182 8.35636364 0.255818182"></polyline>
        <polyline id="Fill-2074" fill="#D1223B" points="0.232363636 0.255818182 5.14090909 3.28145455 4.04509091 3.28090909 0.232363636 0.915272727 0.232363636 0.255818182"></polyline>
        <polyline id="Fill-2075" fill="#D1223B" points="0.232363636 9.33872727 5.14090909 6.31909091 6.21327273 6.31909091 1.34727273 9.33872727 0.232363636 9.33872727"></polyline>
        <polyline id="Fill-2076" fill="#D1223B" points="10.1307273 6.31909091 15.0147273 9.33872727 15.0147273 8.65090909 11.2025455 6.31909091 10.1307273 6.31909091"></polyline>
        <rect id="Rectangle-2-Copy-35" stroke="#AAAAAA" stroke-width="0.5" x="0.25" y="0.25" width="29.5" height="19.5"></rect>
    </g>
</svg>