<svg width="30" height="20" viewBox="0 0 30 20" fill="none" xmlns="http://www.w3.org/2000/svg">
<g clip-path="url(#clip0_6885_22625)">
<path d="M0 0H30V20H0V0Z" fill="#DB161B"/>
<path d="M10 0H30V6.66667H10V0Z" fill="white"/>
<path d="M10 13.3333H30V19.9999H10V13.3333Z" fill="#008000"/>
<path d="M3.99163 2.61585C4.35532 3.27208 4.35532 3.5261 4.24835 3.5896C4.14138 3.64605 3.97024 3.48376 3.59941 2.82754C3.23572 2.17132 2.81498 1.26813 2.91482 1.20463C3.02179 1.14818 3.62081 1.95963 3.99163 2.61585ZM6.21657 2.2066C5.84574 2.86988 5.63181 3.44848 5.73877 3.50493C5.84574 3.56138 6.23083 3.07451 6.60165 2.41829C6.96534 1.76206 7.17928 1.18346 7.07231 1.12701C6.96534 1.07056 6.58026 1.55038 6.21657 2.2066ZM5.55336 3.26502L5.20394 1.62094L5.16828 1.61388C5.28951 1.55744 5.38222 1.46571 5.38222 1.33869C5.38222 1.14818 5.21107 1 4.99713 1C4.78319 1 4.61205 1.15524 4.61205 1.33869C4.61205 1.46571 4.70475 1.56449 4.81885 1.62094L4.48368 3.28619L5.55336 3.26502Z" fill="white"/>
<path d="M7.64173 6.48236C7.32002 6.21695 6.04747 5.11942 5.43979 4.45947C5.49699 4.27297 5.52559 4.07211 5.51844 3.84974H5.53273V3.86408H6.59081V4.06494H7.87765V3.44085H6.59081V3.64171H5.53988V3.64888H5.50414V3.33325H4.539V3.64888H4.15295V3.6704H3.39514V3.41216H2.17978V4.09363H3.39514V3.83539H4.15295V3.85691H4.48181L4.43891 4.29448C4.43891 4.29448 3.20926 4.35187 2.8804 4.40209C2.07255 4.5312 2.32992 4.76793 2.99479 4.9903C3.3022 5.09073 3.60247 5.13377 3.88843 5.14812C3.42374 5.65025 2.46575 6.38911 2.23698 6.51823C1.97961 6.66887 1.97961 6.85538 2.48005 6.74061C2.95904 6.63301 4.07431 5.65025 4.46036 5.15529L4.79637 5.14094C4.9751 5.13377 5.11808 5.019 5.23247 4.87553C5.74006 5.47092 6.72664 6.35324 7.11985 6.59714C7.54879 6.85538 7.74182 6.84821 7.89195 6.81951C8.04208 6.79799 7.97059 6.76212 7.64173 6.48236Z" fill="white"/>
</g>
<rect x="0.25" y="0.25" width="29.5" height="19.5" stroke="#AAAAAA" stroke-width="0.5"/>
<defs>
<clipPath id="clip0_6885_22625">
<rect width="30" height="20" fill="white"/>
</clipPath>
</defs>
</svg>
