<svg width="30" height="20" xmlns="http://www.w3.org/2000/svg">
	<g fill="none" fill-rule="evenodd">
		<path fill="#233982" d="M0 10h30V0H0z"/>
		<path fill="#BA242B" d="M0 20h30V10H0z"/>
		<path fill="#FFFFFE" d="M0 0v20L12.816 9.95 0 0"/>
		<path fill="#F6CC34" d="M2.09 2.666l.442.43H1.97l-.282.523-.112-.627L1 2.913l.478-.326L1.392 2l.43.385.514-.3-.246.58M1 16.664l.557-.065.135-.599.251.56.57-.052-.406.434.21.544-.508-.293-.408.433.102-.643L1 16.664M10 9.307l.343.477-.337.56.582-.208.325.476v-.574l.57-.209-.564-.209V9l-.318.477-.601-.17M6.295 9.752c0 .857-.65 1.553-1.452 1.553-.803 0-1.454-.696-1.454-1.553S4.04 8.2 4.843 8.2c.801 0 1.452.696 1.452 1.553"/>
		<path fill="#F6CC34" d="M4.31 6.96l.275 1.343.086-.032-.203-1.481-.159.17M4.75 8.277l-.104-1.644.197-.208.183.196-.098 1.676-.178-.02M5.026 8.277l.178-1.48.15.159-.249 1.335-.08-.014M6.32 7.376l-.697 1.158.081.042.841-1.2H6.32M5.757 8.64L6.775 7.4h.277v.276L5.87 8.788l-.112-.148M5.952 8.848l1.108-.914v.226L6 8.917l-.048-.07M7.465 9.184l-1.262.294.03.091 1.391-.215-.159-.17M6.227 9.655l1.545-.112.197.21-.185.194-1.575-.104.018-.188M6.227 9.947l1.392.19-.15.16-1.254-.264.012-.086M7.074 11.325l-1.088-.743-.038.088 1.126.895v-.24M5.887 10.725l1.165 1.085v.295h-.26l-1.045-1.26.14-.12M5.691 10.933l.858 1.18h-.212l-.71-1.13.064-.05M5.375 12.544L5.1 11.201l-.085.032.202 1.481.16-.17M4.934 11.226l.104 1.644-.195.209-.185-.195.099-1.677.177.02M4.658 11.226l-.177 1.482-.151-.16.249-1.334.08.012M3.364 12.128l.698-1.158-.082-.041-.84 1.199h.224M3.928 10.863l-1.019 1.242h-.277v-.277l1.183-1.112.113.147M3.734 10.657l-1.11.913v-.226l1.061-.757.049.07M2.219 10.32l1.263-.294-.03-.091-1.393.215.16.17M3.457 9.85l-1.545.11-.195-.208.184-.196 1.575.104-.019.19M3.457 9.556l-1.391-.189.15-.16 1.253.264-.012.085M2.61 8.179l1.088.742.039-.087-1.126-.895v.24M3.797 8.778L2.632 7.694V7.4h.26l1.044 1.26-.139.12M3.993 8.571L3.135 7.39h.212l.711 1.13-.065.051"/>
		<path stroke="#AAA" stroke-width=".5" d="M.25.25h29.5v19.5H.25z"/>
	</g>
</svg>