<?xml version="1.0" encoding="UTF-8"?>
<svg width="30px" height="20px" viewBox="0 0 30 20" version="1.1" xmlns="http://www.w3.org/2000/svg" xmlns:xlink="http://www.w3.org/1999/xlink">
    <!-- Generator: Sketch 52.2 (67145) - http://www.bohemiancoding.com/sketch -->
    <title>Philippines</title>
    <g id="Artboard" stroke="none" stroke-width="1" fill="none" fill-rule="evenodd">
        <g id="Group-25">
            <g id="Group-23">
                <polygon id="Fill-1533" fill="#233982" points="0 10 30 10 30 0 0 0"></polygon>
                <polygon id="Fill-1534" fill="#BA242B" points="0 20 30 20 30 10 0 10"></polygon>
                <polyline id="Fill-1535" fill="#FFFFFE" points="-1.00364161e-13 0 -1.00364161e-13 20 12.816 9.95028773 -1.00364161e-13 0"></polyline>
            </g>
            <polyline id="Fill-1536" fill="#F6CC34" points="2.09036364 2.66550001 2.53218182 3.09579317 1.96872727 3.09579317 1.68672727 3.61886514 1.57545455 2.99248269 1 2.91324456 1.47781818 2.5872649 1.39218182 2 1.822 2.384656 2.33581818 2.08525622 2.09036364 2.66550001"></polyline>
            <polyline id="Fill-1538" fill="#F6CC34" points="1 16.664497 1.55745455 16.5993011 1.69218182 16 1.94309091 16.5601835 2.51309091 16.5080268 2.10672727 16.942332 2.31727273 17.4864673 1.80890909 17.1930856 1.40145455 17.6263878 1.50290909 16.9834556 1 16.664497"></polyline>
        </g>
        <g id="Group-24" transform="translate(1.000000, 2.000000)"></g>
        <polyline id="Fill-1537" fill="#F6CC34" points="10 9.30742389 10.3430909 9.78385571 10.006 10.3440392 10.588 10.1359137 10.9130909 10.611844 10.9130909 10.0381198 11.4830909 9.82949286 10.9190909 9.62036437 10.9190909 9 10.6005455 9.47693332 10 9.30742389"></polyline>
        <path d="M6.29454545,9.75232144 C6.29454545,10.6088957 5.64436364,11.3049876 4.84254545,11.3049876 C4.03963636,11.3049876 3.38945455,10.6088957 3.38945455,9.75232144 C3.38945455,8.89474418 4.03963636,8.19915373 4.84254545,8.19915373 C5.64436364,8.19915373 6.29454545,8.89474418 6.29454545,9.75232144" id="Fill-1539" fill="#F6CC34"></path>
        <polyline id="Fill-1540" fill="#F6CC34" points="4.30909091 6.95942801 4.58454545 8.30346722 4.67072727 8.27086926 4.46836364 6.78991858 4.30909091 6.95942801"></polyline>
        <polyline id="Fill-1541" fill="#F6CC34" points="4.75036364 8.27738885 4.64618182 6.63344835 4.84254545 6.42482137 5.02581818 6.62091067 4.92818182 8.29744914 4.75036364 8.27738885"></polyline>
        <polyline id="Fill-1542" fill="#F6CC34" points="5.02581818 8.27738885 5.20418182 6.79693969 5.35363636 6.95591746 5.10545455 8.29092954 5.02581818 8.27738885"></polyline>
        <polyline id="Fill-1543" fill="#F6CC34" points="6.31963636 7.37567896 5.62254545 8.53365901 5.70436364 8.57628712 6.54545455 7.37567896 6.31963636 7.37567896"></polyline>
        <polyline id="Fill-1544" fill="#F6CC34" points="5.75672727 8.63997853 6.77454545 7.3992498 7.05218182 7.3992498 7.05218182 7.67608175 5.86854545 8.78842466 5.75672727 8.63997853"></polyline>
        <polyline id="Fill-1545" fill="#F6CC34" points="5.952 8.8476025 7.06036364 7.93435795 7.06036364 8.16003617 6 8.917312 5.952 8.8476025"></polyline>
        <polyline id="Fill-1546" fill="#F6CC34" points="7.46509091 9.18411381 6.20290909 9.47849852 6.23345455 9.56927132 7.62436364 9.35362324 7.46509091 9.18411381"></polyline>
        <polyline id="Fill-1547" fill="#F6CC34" points="6.22690909 9.65452754 7.77218182 9.54269144 7.96854545 9.75232144 7.78418182 9.94740772 6.20890909 9.84259273 6.22690909 9.65452754"></polyline>
        <polyline id="Fill-1548" fill="#F6CC34" points="6.22690909 9.94740772 7.61890909 10.1369774 7.46890909 10.2964567 6.21545455 10.0326639 6.22690909 9.94740772"></polyline>
        <polyline id="Fill-1549" fill="#F6CC34" points="7.074 11.3250479 5.98636364 10.5823158 5.94763636 10.6700796 7.074 11.5652699 7.074 11.3250479"></polyline>
        <polyline id="Fill-1550" fill="#F6CC34" points="5.88654545 10.7252453 7.05218182 11.8095038 7.05218182 12.1048916 6.792 12.1048916 5.74745455 10.8456071 5.88654545 10.7252453"></polyline>
        <polyline id="Fill-1551" fill="#F6CC34" points="5.69127273 10.9328693 6.54927273 12.1139187 6.33709091 12.1139187 5.62636364 10.9835215 5.69127273 10.9328693"></polyline>
        <polyline id="Fill-1552" fill="#F6CC34" points="5.37545455 12.5442118 5.09945455 11.2006741 5.01381818 11.2327706 5.21618182 12.7142228 5.37545455 12.5442118"></polyline>
        <polyline id="Fill-1553" fill="#F6CC34" points="4.93418182 11.226251 5.03836364 12.8701915 4.84254545 13.0788185 4.65818182 12.8837322 4.75690909 11.2066922 4.93418182 11.226251"></polyline>
        <polyline id="Fill-1554" fill="#F6CC34" points="4.65818182 11.226251 4.48090909 12.7077032 4.32981818 12.5472209 4.57854545 11.2137133 4.65818182 11.226251"></polyline>
        <polyline id="Fill-1555" fill="#F6CC34" points="3.36436364 12.1279609 4.062 10.9699808 3.97963636 10.9288573 3.13909091 12.1279609 3.36436364 12.1279609"></polyline>
        <polyline id="Fill-1556" fill="#F6CC34" points="3.92781818 10.8631598 2.90945455 12.1048916 2.63181818 12.1048916 2.63181818 11.8280596 3.81545455 10.7157167 3.92781818 10.8631598"></polyline>
        <polyline id="Fill-1557" fill="#F6CC34" points="3.73363636 10.6565389 2.62363636 11.5697834 2.62363636 11.3436037 3.68509091 10.5868294 3.73363636 10.6565389"></polyline>
        <polyline id="Fill-1558" fill="#F6CC34" points="2.21890909 10.319526 3.48163636 10.0261444 3.45109091 9.93487005 2.05909091 10.1500166 2.21890909 10.319526"></polyline>
        <polyline id="Fill-1559" fill="#F6CC34" points="3.45709091 9.85011533 1.91236364 9.96044691 1.71654545 9.75232144 1.90090909 9.55623213 3.47563636 9.66004412 3.45709091 9.85011533"></polyline>
        <polyline id="Fill-1560" fill="#F6CC34" points="3.45709091 9.55623213 2.06563636 9.36716393 2.21618182 9.20718314 3.46909091 9.47147742 3.45709091 9.55623213"></polyline>
        <polyline id="Fill-1561" fill="#F6CC34" points="2.61054545 8.17859194 3.69818182 8.92132406 3.73690909 8.8335603 2.61054545 7.93887151 2.61054545 8.17859194"></polyline>
        <polyline id="Fill-1562" fill="#F6CC34" points="3.79745455 8.77839451 2.63181818 7.69413601 2.63181818 7.3992498 2.892 7.3992498 3.936 8.65903581 3.79745455 8.77839451"></polyline>
        <polyline id="Fill-1563" fill="#F6CC34" points="3.99327273 8.57127205 3.13472727 7.38972116 3.34745455 7.38972116 4.05818182 8.52011832 3.99327273 8.57127205"></polyline>
        <rect id="Rectangle-2-Copy-36" stroke="#AAAAAA" stroke-width="0.5" x="0.25" y="0.25" width="29.5" height="19.5"></rect>
    </g>
</svg>