<svg width="30" height="20" xmlns="http://www.w3.org/2000/svg" xmlns:xlink="http://www.w3.org/1999/xlink">
	<defs>
		<path id="a" d="M0 0h30v20H0z"/>
	</defs>
	<g fill="none" fill-rule="evenodd">
		<path fill="#FFF" d="M0 0h30v20H0z"/>
		<mask id="b" fill="#fff">
			<use xlink:href="#a"/>
		</mask>
		<g mask="url(#b)">
			<path fill="#E91D26" fill-rule="nonzero" d="M9.94.047h22.193V19.96H9.94z"/>
			<path fill="#2E6934" fill-rule="nonzero" d="M-2 .047H9.94V19.96H-2z"/>
			<path d="M13.827 13.087c-1.5-.047-8.394-4.347-8.44-5.034l.38-.633c.686.993 7.726 5.18 8.42 5.033l-.36.634z" fill="#F4EB32" fill-rule="nonzero"/>
			<path d="M5.687 7.333c-.134.36 1.8 1.56 4.126 2.974 2.327 1.413 4.334 2.286 4.48 2.166.007-.02.074-.126.067-.126-.027.04-.093.053-.2.026-.627-.18-2.267-.933-4.293-2.166C7.84 8.973 6.073 7.84 5.8 7.36a.31.31 0 0 1-.033-.14H5.76l-.06.1-.013.013zm8.18 5.774c-.027.046-.074.046-.16.04-.56-.06-2.267-.894-4.287-2.1C7.073 9.64 5.133 8.36 5.34 8.02l.06-.1h.013c-.186.567 3.827 2.867 4.067 3.013 2.327 1.44 4.287 2.28 4.46 2.067l-.073.107z" fill="#F4EB32" fill-rule="nonzero"/>
			<path d="M13.773 13.167c-.02 0-.046 0-.073-.007-.573-.067-2.3-.907-4.293-2.107-2.667-1.6-4.007-2.56-4.094-2.94-.006-.04-.006-.08.014-.106l.053-.1v.033l-.033.08a.096.096 0 0 0-.007.087c.087.373 1.427 1.326 4.08 2.92 1.993 1.193 3.713 2.033 4.28 2.1.087.006.127.006.147-.034l.04-.066a.24.24 0 0 1-.074.013c-.473 0-2.233-.787-4.353-2.1-.02-.013-.08-.047-.16-.093-2.593-1.534-3.913-2.5-3.92-2.887.053.253.66.933 3.933 2.86.08.047.14.08.16.093 2.114 1.314 3.867 2.094 4.334 2.094.053 0 .086-.014.1-.027v.007c0 .013 0 .02-.007.026l-.027.094c-.02.053-.06.06-.1.06zm.467-.667c-.347 0-2.253-.847-4.44-2.18-2.5-1.527-4.267-2.633-4.127-2.993l.067-.12s0 .006.007.006l-.04.107C5.56 7.7 7.82 9.08 9.82 10.293c2.18 1.327 4.073 2.174 4.42 2.174.027 0 .04-.007.04-.007.013-.027.027-.047.04-.073a.289.289 0 0 1-.167-.007c-.686-.2-2.386-1.007-4.3-2.167C8 9.087 6.073 7.873 5.78 7.36a.34.34 0 0 1-.033-.147c.026.047.04.107.06.134.286.513 2.326 1.786 4.066 2.846 1.914 1.16 3.607 1.967 4.294 2.167.093.027.16.02.186-.02.034.013.034.013-.026.113-.04.04-.054.047-.087.047z" fill="#010101" fill-rule="nonzero"/>
			<path d="M9.947 8.467c1.506-.014 3.36-.207 4.426-.634l-.233-.373c-.633.347-2.5.58-4.213.613-2.027-.02-3.454-.206-4.174-.686l-.22.4c1.327.56 2.674.673 4.414.68z" fill="#F4EB32" fill-rule="nonzero"/>
			<path d="M14.433 7.847c-.04.06-.733.3-1.76.473-.693.107-1.606.2-2.733.2-1.073 0-1.953-.073-2.62-.167-1.08-.166-1.633-.406-1.84-.486.02-.04.033-.067.053-.1a8.1 8.1 0 0 0 1.807.48c.66.086 1.533.166 2.6.166 1.127 0 2.027-.1 2.713-.2 1.054-.166 1.627-.386 1.707-.493l.073.127zm-.2-.38c-.113.093-.68.293-1.68.453-.666.093-1.513.18-2.6.18-1.026 0-1.873-.067-2.513-.16-1.013-.133-1.553-.373-1.753-.44l.06-.1c.153.073.673.287 1.7.433.633.087 1.473.154 2.5.154 1.08 0 1.92-.087 2.58-.187 1.006-.14 1.546-.393 1.626-.46l.08.127z" fill="#F4EB32" fill-rule="nonzero"/>
			<path d="M9.907 8.533c-.907 0-1.78-.053-2.587-.166-1.047-.167-1.613-.394-1.82-.48l-.007-.067.034-.067c.586.22 1.14.367 1.82.474.813.113 1.68.166 2.58.166.933 0 1.826-.066 2.733-.2 1.04-.166 1.62-.386 1.7-.486l.1.133c-.04.08-.767.327-1.767.5-.853.133-1.773.2-2.74.2h-.046v-.007zm-4.38-.753l-.034.093c.22.074.787.3 1.827.467.807.107 1.68.167 2.587.167v.013l.033-.013c.96 0 1.88-.067 2.733-.2 1.054-.18 1.72-.42 1.747-.467l-.073-.113c-.054.1-.587.32-1.694.5-.906.133-1.8.2-2.72.2-.92 0-1.786-.054-2.6-.167a8.42 8.42 0 0 1-1.806-.48zm4.406.333c-.906 0-1.773-.053-2.493-.16-.9-.12-1.42-.313-1.673-.413l-.08-.033.033-.094c.007-.006.027-.033.033-.033.087.047.587.273 1.7.433.5.074 1.334.154 2.48.154.914 0 1.734-.06 2.6-.187.96-.133 1.527-.38 1.62-.46l.094.127c-.114.106-.674.313-1.694.473-.866.127-1.693.18-2.6.18 0 .013-.02.013-.02.013zm-4.186-.7l-.04.094.073.013c.247.093.767.293 1.667.407.72.106 1.58.16 2.493.16V8.1l.02-.013c.907 0 1.733-.06 2.6-.18 1.013-.16 1.567-.36 1.673-.454l-.073-.106c-.053.06-.573.326-1.613.466-.867.127-1.687.18-2.58.187-1.167 0-2-.087-2.5-.153-1.127-.16-1.634-.394-1.72-.434z" fill="#010101" fill-rule="nonzero"/>
			<path d="M5.007 10.28c.926.5 2.98.747 4.926.767 1.774 0 4.08-.274 4.94-.734l-.026-.5c-.267.42-2.74.827-4.934.814-2.193-.014-4.233-.354-4.906-.794v.447z" fill="#F4EB32" fill-rule="nonzero"/>
			<path d="M14.92 10.213v.12c-.127.154-.94.387-1.96.554-.773.12-1.787.206-3.047.206-1.2 0-2.153-.086-2.893-.2-1.173-.173-1.92-.466-2.067-.56v-.14c.454.3 1.674.52 2.087.587.733.113 1.687.2 2.873.2 1.254 0 2.26-.087 3.034-.207.726-.106 1.766-.38 1.973-.56zm0-.426v.12c-.127.153-.94.386-1.96.553-.773.12-1.787.207-3.047.207-1.2 0-2.153-.087-2.893-.2-1.173-.174-1.92-.467-2.067-.56v-.14c.454.3 1.674.52 2.087.586.733.114 1.687.2 2.873.2 1.254 0 2.26-.086 3.034-.206.726-.1 1.766-.374 1.973-.56z" fill="#F4EB32" fill-rule="nonzero"/>
			<path d="M9.907 11.107a19.08 19.08 0 0 1-2.894-.2c-1.12-.16-1.893-.454-2.073-.56l-.007-.154c.474.287 1.727.514 2.1.574.854.133 1.82.2 2.874.2 1.113 0 2.133-.067 3.026-.207.727-.107 1.767-.38 1.974-.56l.026.133c-.14.174-.966.407-1.973.567a21.15 21.15 0 0 1-3.053.207zm-4.967-.9l.02.126c.107.054.833.367 2.06.547.86.133 1.833.2 2.893.2 1.12 0 2.14-.073 3.047-.207.987-.16 1.827-.393 1.953-.546l-.006-.114c-.18.194-1.234.474-1.96.58-.9.14-1.92.207-3.034.207-1.06 0-2.026-.067-2.88-.2-.48-.08-1.646-.293-2.093-.593zm4.967.48a19.08 19.08 0 0 1-2.894-.2c-1.126-.167-1.893-.454-2.073-.56l-.007-.154c.474.287 1.727.514 2.1.574.854.133 1.82.2 2.874.2 1.113 0 2.133-.067 3.026-.207.727-.107 1.767-.38 1.974-.56l.026.127c-.14.173-.966.406-1.973.566-.907.14-1.927.214-3.053.214zm-4.967-.9l.02.126c.107.054.827.367 2.06.547.86.133 1.833.2 2.893.2 1.12 0 2.147-.073 3.047-.207.987-.16 1.827-.393 1.953-.546l-.006-.107c-.187.193-1.234.473-1.96.58-.894.14-1.914.207-3.034.207a18.96 18.96 0 0 1-2.88-.2c-.48-.094-1.646-.307-2.093-.6z" fill="#010101" fill-rule="nonzero"/>
			<path d="M9.927 13.007c-2.127-.014-3.954-.58-4.334-.674l.28.44c.68.287 2.46.714 4.074.667 1.613-.047 3.026-.173 4.026-.66l.287-.453c-.68.313-2.987.673-4.333.68z" fill="#F4EB32" fill-rule="nonzero"/>
			<path d="M14.08 12.673c-.04.067-.087.127-.127.194-.466.166-1.213.34-1.52.393-.64.133-1.626.227-2.5.227-1.886-.027-3.426-.4-4.153-.714l-.06-.1.007-.013.1.04c1.293.46 2.74.647 4.113.68.873 0 1.747-.1 2.453-.227 1.08-.22 1.52-.38 1.654-.453l.033-.027zm.253-.413c0 .007 0 .007 0 0-.026.06-.06.113-.093.167-.253.086-.933.286-1.927.426-.653.087-1.06.174-2.36.2-2.44-.06-4.02-.54-4.393-.653l-.053-.107c1.413.367 2.853.627 4.446.654 1.194-.027 1.694-.114 2.347-.2 1.16-.18 1.74-.374 1.913-.427 0 0-.006-.007-.006-.013l.126-.047z" fill="#F4EB32" fill-rule="nonzero"/>
			<path d="M9.927 13.5c-1.92-.027-3.44-.4-4.16-.713L5.7 12.68c0-.007.02-.033.027-.033l.1.04c1.153.413 2.533.64 4.106.68.987 0 1.874-.12 2.447-.227 1.207-.24 1.567-.407 1.653-.453.007 0 .014-.007.027-.007 0 0 0-.007.007-.007l.013.007c.007 0 .013 0 .013.007-.04.066-.086.126-.126.193a11.33 11.33 0 0 1-1.534.393c-.673.134-1.653.227-2.506.227zm-4.207-.833l.067.093c.766.327 2.346.68 4.14.707.833 0 1.833-.094 2.5-.227a11.58 11.58 0 0 0 1.52-.387c.026-.046.06-.093.093-.14-.107.054-.493.22-1.647.447a13.8 13.8 0 0 1-2.413.227c-1.62-.04-3-.267-4.16-.68l-.1-.04zm4.233.406c-2.166-.053-3.686-.433-4.393-.66l-.067-.113c1.634.4 3.047.607 4.46.633a14.79 14.79 0 0 0 2.134-.173l.213-.027c1.107-.173 1.7-.36 1.893-.42l.14-.066-.006.013-.114.06c-.206.08-.8.267-1.913.433l-.213.027c-.554.08-1.074.147-2.134.173-1.42-.026-2.833-.233-4.453-.653l.073.087c.7.213 2.214.593 4.38.646 1.107-.02 1.56-.086 2.08-.16l.28-.04c.88-.126 1.587-.306 1.92-.426l.087-.154-.073.174c-.34.126-1.047.313-1.934.433l-.28.04c-.52.087-.973.147-2.08.173z" fill="#010101" fill-rule="nonzero"/>
			<path d="M9.927 5.573c2.44 0 4.413 1.987 4.413 4.434a4.411 4.411 0 0 1-4.413 4.42c-2.44 0-4.42-1.98-4.42-4.427a4.423 4.423 0 0 1 4.42-4.427zm0-.44c2.68 0 4.86 2.187 4.86 4.867s-2.18 4.867-4.86 4.867A4.871 4.871 0 0 1 5.067 10c0-2.68 2.186-4.867 4.86-4.867z" fill="#F4EB32" fill-rule="nonzero"/>
			<path d="M9.933 5.073A4.936 4.936 0 0 1 14.86 10c0 2.713-2.213 4.933-4.927 4.933A4.938 4.938 0 0 1 5.007 10c0-2.707 2.213-4.927 4.926-4.927zm0 .114c2.64 0 4.82 2.166 4.82 4.82 0 2.653-2.173 4.82-4.82 4.82-2.64 0-4.82-2.167-4.82-4.82 0-2.654 2.18-4.82 4.82-4.82z" fill="#F4EB32" fill-rule="nonzero"/>
			<path d="M9.933 14.947a4.948 4.948 0 0 1 0-9.894 4.948 4.948 0 0 1 0 9.894zm0-9.86A4.922 4.922 0 0 0 5.02 10c0 2.713 2.2 4.913 4.913 4.913A4.922 4.922 0 0 0 14.847 10a4.922 4.922 0 0 0-4.914-4.913zm0 9.753A4.837 4.837 0 0 1 5.1 10.007a4.837 4.837 0 0 1 4.833-4.834 4.837 4.837 0 0 1 4.834 4.834 4.841 4.841 0 0 1-4.834 4.833zm0-9.64a4.807 4.807 0 0 0 0 9.613 4.807 4.807 0 0 0 0-9.613z" fill="#010101" fill-rule="nonzero"/>
			<path d="M9.94 5.487c2.473 0 4.513 2.033 4.513 4.513s-2.04 4.513-4.513 4.513S5.427 12.48 5.427 10s2.04-4.513 4.513-4.513zm0 .106c2.413 0 4.4 1.98 4.4 4.407s-1.987 4.407-4.4 4.407c-2.413 0-4.4-1.98-4.4-4.407-.007-2.42 1.98-4.407 4.4-4.407z" fill="#F4EB32" fill-rule="nonzero"/>
			<path d="M9.94 14.533A4.537 4.537 0 0 1 5.413 10c0-2.5 2.034-4.533 4.527-4.533A4.537 4.537 0 0 1 14.467 10c0 2.5-2.034 4.533-4.527 4.533zm0-9.033c-2.48 0-4.5 2.02-4.5 4.5s2.02 4.5 4.5 4.5a4.501 4.501 0 0 0 0-9zm0 8.92A4.426 4.426 0 0 1 5.52 10c0-2.44 1.98-4.42 4.42-4.42 2.433 0 4.42 1.98 4.42 4.42a4.43 4.43 0 0 1-4.42 4.42zm0-8.813A4.396 4.396 0 0 0 5.553 10a4.396 4.396 0 0 0 4.387 4.393A4.396 4.396 0 0 0 14.327 10 4.396 4.396 0 0 0 9.94 5.607z" fill="#010101" fill-rule="nonzero"/>
			<path fill="#F4EB32" fill-rule="nonzero" d="M9.733 5.053h.5v9.92h-.5z"/>
			<path d="M9.787 5.053h.5-.5zM9.793 14.96h.5-.5z"/>
			<path d="M10.093 5h.107v10.02h-.107V5zm-.42 0h.107v10.02h-.107V5z" fill="#F4EB32" fill-rule="nonzero"/>
			<path d="M10.2 15.033h-.107L10.08 5l.12-.013.013 10.033c0 .007 0 .007-.006.013H10.2zM10.193 5l-.1.013.015 10.007.085-.013V5zM9.78 15.033h-.107L9.66 5l.12-.013.013 10.033c0 .007 0 .007-.006.013H9.78zM9.773 5l-.1.013.015 10.007.085-.013V5z" fill="#010101" fill-rule="nonzero"/>
			<path d="M4.993 9.793c.62-.566 2.894-.94 4.92-.926 2.02.006 4.414.426 4.934.92l.006.426c-.433-.413-2.293-.9-4.94-.906-2.64-.007-4.56.5-4.92.92v-.434z" fill="#F4EB32" fill-rule="nonzero"/>
			<path d="M5.18 10.303l-.2-.486c0-.018.2-.018.2 0v.486zM15.047 10.317l-.2-.487c0-.018.2-.018.2 0v.487z" fill="#010101" fill-rule="nonzero"/>
			<path d="M9.933 9.24c1.16 0 2.294.113 3.187.287.927.186 1.573.413 1.793.673v.127c-.266-.32-1.14-.56-1.82-.694a16.542 16.542 0 0 0-3.166-.28c-1.22 0-2.36.12-3.234.287-.7.14-1.64.42-1.753.693V10.2c.067-.187.76-.473 1.74-.667.887-.173 2.027-.286 3.253-.293zm0-.42c1.16 0 2.294.107 3.187.287.92.186 1.573.413 1.793.673v.127c-.266-.32-1.14-.56-1.813-.694a16.542 16.542 0 0 0-3.167-.28c-1.22 0-2.353.12-3.226.287-.68.127-1.654.42-1.76.687v-.134c.066-.186.773-.48 1.74-.666.88-.174 2.02-.287 3.246-.287z" fill="#F4EB32" fill-rule="nonzero"/>
			<path d="M4.947 10.347a.014.014 0 0 1-.014-.014V10.2c.067-.207.807-.493 1.754-.68.94-.187 2.093-.287 3.253-.287 1.12 0 2.247.1 3.187.287.966.193 1.586.427 1.806.68l.007.14c-.307-.333-1.28-.573-1.833-.68-.934-.18-2.04-.28-3.127-.28-1.18 0-2.327.107-3.267.287-.766.153-1.64.433-1.746.68-.007-.007-.014 0-.02 0zM9.933 9.34c1.12 0 2.234.1 3.167.28.56.113 1.533.353 1.827.7l-.027-.12c-.207-.24-.827-.467-1.787-.66a16.873 16.873 0 0 0-3.16-.287c-1.18 0-2.326.107-3.266.287-1.047.207-1.674.493-1.727.66v.08c.207-.28 1.173-.54 1.74-.653.947-.18 2.093-.287 3.233-.287zm-4.986.587a.014.014 0 0 1-.014-.014V9.78c.074-.207.827-.5 1.754-.68.94-.187 2.093-.287 3.253-.287 1.127 0 2.247.1 3.187.287.966.193 1.586.427 1.806.68v.14c-.306-.333-1.28-.567-1.833-.68-.933-.18-2.047-.28-3.14-.28-1.16 0-2.307.107-3.247.287-.773.146-1.653.433-1.753.68 0-.007-.007 0-.013 0zm4.986-1.014c1.114 0 2.234.1 3.167.28.56.114 1.533.354 1.827.7l-.027-.12c-.207-.24-.827-.466-1.787-.66-.94-.186-2.06-.286-3.146-.286-1.194 0-2.347.106-3.28.286-1.007.2-1.674.487-1.727.66v.08c.2-.273 1.133-.533 1.747-.653.946-.18 2.093-.28 3.226-.287z" fill="#010101" fill-rule="nonzero"/>
			<path d="M9.913 6.66c1.834-.007 3.434.253 4.16.633l.267.46c-.633-.34-2.36-.7-4.427-.646-1.686.013-3.48.186-4.386.666l.32-.533c.74-.38 2.486-.573 4.066-.58z" fill="#F4EB32" fill-rule="nonzero"/>
			<path d="M14.12 7.367l.5.5-.5-.5z"/>
			<path d="M9.933 7.047c1.047 0 2.054.053 2.86.2.747.14 1.46.346 1.567.46l.08.14c-.247-.16-.867-.34-1.66-.494-.793-.146-1.807-.2-2.847-.193-1.18-.007-2.093.06-2.88.193-.833.154-1.406.38-1.553.487l.08-.147c.273-.14.713-.313 1.453-.446.814-.154 1.74-.194 2.9-.2zm0-.427c1 0 1.987.053 2.76.193.607.12 1.207.3 1.427.467l.113.187c-.2-.22-.94-.427-1.593-.54-.767-.134-1.713-.187-2.713-.194-1.047 0-2.02.067-2.774.207-.72.14-1.18.3-1.38.427l.1-.154c.274-.14.707-.273 1.26-.38.767-.146 1.747-.206 2.8-.213z" fill="#F4EB32" fill-rule="nonzero"/>
			<path d="M14.44 7.86h-.007c-.24-.16-.846-.34-1.653-.493-.693-.134-1.62-.194-2.747-.194h-.2c-1.133 0-2.013.06-2.773.194-.827.153-1.4.373-1.547.48l.054-.167c.38-.193.86-.34 1.466-.453.74-.134 1.58-.194 2.907-.2H10c1.1 0 2.067.073 2.8.2.76.14 1.467.353 1.573.466l.08.14v.02c-.006.007-.013.007-.013.007zM10 7.06h-.067c-1.326.007-2.166.067-2.906.2-.607.107-1.08.253-1.447.44l-.073.14c.126-.127.7-.347 1.533-.507.76-.133 1.647-.193 2.78-.193h.2c1.133 0 2.06.067 2.753.2.76.147 1.347.313 1.614.467l-.054-.094c-.093-.106-.806-.313-1.553-.453-.72-.133-1.687-.2-2.78-.2zm4.24.42c-.007 0-.007 0-.013-.007-.2-.226-.98-.433-1.58-.54-.694-.12-1.58-.18-2.707-.193-1.093 0-2.053.073-2.773.207-.64.12-1.154.28-1.374.426l.08-.173c.274-.147.714-.28 1.267-.387.713-.133 1.68-.2 2.793-.206h.08c1.054 0 1.98.066 2.68.193.654.127 1.227.313 1.434.467l.12.186c.006.007 0 .014 0 .02 0 .007-.007.007-.007.007zm-4.307-.767c1.134.007 2.02.074 2.714.194.546.1 1.24.28 1.526.48l-.066-.1c-.2-.147-.774-.334-1.42-.46-.694-.127-1.62-.194-2.674-.194h-.08c-1.113 0-2.073.074-2.786.207-.554.107-.987.24-1.254.38l-.093.147c.207-.167.72-.327 1.36-.447.72-.133 1.68-.2 2.773-.207z" fill="#010101" fill-rule="nonzero"/>
			<path d="M12.38 12.053c-.907-.166-1.813-.193-2.447-.186-3.053.033-4.04.626-4.16.806l-.226-.373c.78-.567 2.44-.88 4.406-.847 1.02.02 1.9.087 2.64.227l-.213.373z" fill="#F4EB32" fill-rule="nonzero"/>
			<path d="M5.593 12.353l.5.5-.5-.5z"/>
			<path d="M9.92 11.813c.847.014 1.687.047 2.487.2l-.06.107c-.747-.14-1.547-.193-2.427-.187-1.127-.006-2.267.094-3.26.38-.313.087-.833.287-.887.454l-.06-.094c.02-.1.334-.3.914-.466 1.14-.327 2.206-.387 3.293-.394zm.033-.426c.88.02 1.787.06 2.674.233l-.06.107c-.8-.16-1.56-.214-2.607-.227-1.133 0-2.333.08-3.42.4-.353.1-.96.327-.98.5l-.06-.1c.013-.16.54-.367 1.013-.507 1.1-.32 2.3-.406 3.44-.406z" fill="#F4EB32" fill-rule="nonzero"/>
			<path d="M5.773 12.78c-.006 0-.006 0-.013-.007l-.06-.093c.02-.12.347-.327.927-.487 1.086-.313 2.1-.38 3.286-.386.807.013 1.667.046 2.494.2l-.047.126a13.55 13.55 0 0 0-2.333-.18H9.793c-1.193 0-2.246.127-3.126.38-.334.094-.827.294-.874.447-.006-.007-.013 0-.02 0zm4.14-.953c-1.186.006-2.193.08-3.28.386-.593.167-.893.374-.906.454l.04.066c.1-.186.666-.38.886-.44.88-.253 1.94-.38 3.134-.38H10.02c.88 0 1.64.06 2.32.187l.047-.1c-.807-.127-1.667-.16-2.474-.173zm-4.353.586c-.007 0-.007 0-.013-.006l-.06-.1c.013-.22.786-.46 1.02-.527.94-.273 2.033-.4 3.446-.407.867.014 1.787.054 2.674.234l-.054.126c-.86-.16-1.666-.206-2.62-.22-1.4 0-2.486.127-3.42.4-.453.134-.953.34-.973.487.013.007.007.013 0 .013zM9.953 11.4c-1.406 0-2.5.133-3.44.407-.6.173-.993.366-1 .493l.04.067c.1-.214.887-.454.98-.48.934-.274 2.02-.4 3.427-.4.953.013 1.76.06 2.607.226l.046-.1c-.873-.153-1.793-.193-2.66-.213z" fill="#010101" fill-rule="nonzero"/>
			<path d="M9.04 11.875a.57.57 0 0 1 .016-.115c.008-.02.024-.039.04-.039.008 0 .016 0 .024.02.008.019.016.019.016.038 0 .02.008.038 0 .077 0 .02 0 .058-.008.077l-.024.058c-.008.019-.016.019-.024.019s-.016 0-.024-.02c-.008-.019-.016-.019-.016-.038v-.077zm.013 0c0 .039 0 .058.01.077.01.02.02.02.03.02.01 0 .03-.02.03-.04.01-.018.02-.038.02-.076v-.058c0-.019-.01-.019-.01-.038h-.02c-.01 0-.02.019-.03.038-.02 0-.02.039-.03.077zm.124.039h.02c0 .019 0 .019.01.038h.02c.01 0 .01 0 .02-.02l.01-.018v-.02h-.02c-.01 0-.02 0-.03-.019l-.01-.02v-.018-.02s0-.019.01-.019h.04s.01 0 .01.02v.019h-.02v-.02h-.03s0 .02-.01.02v.019h.02c.01 0 .02 0 .02.02 0 0 .01 0 .01.018v.02c0 .019 0 .019-.01.038 0 0-.01.02-.02.02h-.02c-.01 0-.02 0-.03-.02.01 0 .01-.02.01-.038zm.133-.02h.02c0 .02-.01.039-.02.039-.01.02-.02.02-.03.02-.01 0-.03 0-.03-.02-.01-.02-.01-.039-.01-.077 0-.039.01-.058.02-.077.01-.02.02-.02.03-.038.01 0 .02 0 .03.019.01.019.01.038.01.077h-.07c0 .019 0 .038.01.038 0 .02.01.02.02.02h.02c-.01.019-.01 0 0 0zm-.057-.057h.05v-.039c0-.019-.01-.019-.02-.019s-.01 0-.02.02c-.01.018-.01.018-.01.038zm.057.115h.02v.02h.04l.01-.02v-.038c-.01.019-.02.019-.03.019-.01 0-.02 0-.03-.02-.01-.019-.01-.038-.01-.057 0-.02 0-.039.01-.058 0-.019.01-.019.02-.038.01 0 .01-.02.02-.02s.02 0 .03.02v-.02h.01l-.01.174c0 .038 0 .057-.01.057 0 .02-.01.02-.02.039-.01 0-.02.019-.03.019-.01 0-.02 0-.03-.02.01-.018 0-.038.01-.057zm.01-.115v.057c0 .02.01.02.02.02s.01 0 .02-.02c.01-.019.01-.038.01-.057v-.058c0-.02-.01-.02-.02-.02s-.01 0-.02.02-.01.038-.01.058zm.053.096l.007-.192h.015v.019c0-.02.007-.02.007-.02.007 0 .007-.019.014-.019h.014l.008.02c.007-.02.014-.039.021-.039.007 0 .014 0 .014.02v.057l-.007.135h-.014l.007-.116v-.019-.02h-.007c-.007 0-.014 0-.014.02 0 0-.008.02-.008.038l-.007.116H9.41l.007-.116v-.038s-.007-.02-.007 0h-.007l-.007.02v.038l-.007.096h-.015zm.177-.077h.02c0 .02-.01.038-.02.038-.01.02-.02.02-.03.02-.01 0-.03 0-.03-.02-.01-.019-.01-.038-.01-.077 0-.038.01-.057.02-.076.01-.02.02-.02.03-.039.01 0 .02 0 .03.02.01.019.01.038.01.076H9.5c0 .02 0 .039.01.058 0 .02.01.02.02.02h.02c-.01 0 0 0 0-.02zm-.057-.058h.05v-.038c0-.02-.01-.02-.02-.02s-.01 0-.02.02c0 .019-.01.019-.01.038zm.054.116l.01-.193h.02v.02c.01-.02.02-.039.03-.039h.02s.01 0 .01.02V11.778l-.01.115h-.02l.01-.115v-.038l-.01-.02h-.01c-.01 0-.01 0-.02.02-.01.019-.01.019-.01.057l-.01.096-.01.02zm.11-.039v.02h-.02l-.01-.02v-.038l.01-.116h-.01v-.019h.01v-.058l.02-.019v.058h.02v.02h-.02l-.01.114v.02c0 .038 0 .038.01.038zm-.004-.077c0-.038.01-.057.02-.077.01-.019.02-.019.03-.019.01 0 .02 0 .03.02.01.019.01.038.01.076 0 .02 0 .039-.01.058 0 .02-.01.02-.02.038-.01 0-.02.02-.02.02-.01 0-.02 0-.03-.02-.01-.038-.01-.057-.01-.096zm.014 0v.058c0 .02.01.02.02.02s.02 0 .02-.02c.01-.02.01-.039.01-.058v-.057c0-.02-.01-.02-.02-.02s-.02 0-.02.02c0 .019-.01.038-.01.057zm.163.039h.02c0 .019-.01.038-.02.038-.01.02-.02.02-.03.02-.01 0-.02 0-.03-.02-.01-.02-.01-.038-.01-.077 0-.038.01-.057.02-.077.01-.019.02-.019.03-.019.01 0 .02 0 .03.02.01.019.01.038.01.076h-.07v.058c0 .02.01.02.02.02h.02c0-.02 0-.02.01-.04zm-.057-.058h.05v-.038c0-.02-.01-.02-.02-.02s-.01 0-.02.02c-.01.019-.01.019-.01.038zm.054.115l.02-.269h.02l-.02.27h-.02zm.04-.23v-.039h.02v.039h-.02zm-.014.23l.02-.192h.02l-.02.192h-.02zm.027 0l.014-.192H9.9v.02l.007-.02h.027l.007.02c.007-.02.014-.04.021-.04.007 0 .014 0 .014.02s.007.02 0 .058l-.007.134h-.014l.007-.115v-.02-.018h-.007c-.007 0-.007 0-.014.019-.007 0-.007.019-.007.038l-.007.116h-.013l.007-.116v-.038l-.007-.02h-.007l-.007.02s0 .019-.007.038l-.007.096H9.88zm.12-.23v-.039h.02v.039H10zm-.013.23l.02-.192h.02l-.02.192h-.02zm.026 0l.02-.192h.01v.02c.01-.02.02-.04.03-.04h.02s.01 0 .01.02V11.76l-.01.115h-.02l.01-.115v-.039-.019h-.01c-.01 0-.02 0-.02.02-.01 0-.01.019-.01.057l-.01.096h-.02v.02zm.137-.019c-.01.02-.01.02-.02.02h-.02c-.01 0-.02 0-.02-.02s-.01-.02 0-.038v-.02l.01-.019h.05v-.019s-.01-.02-.02-.02h-.02l-.01.02h-.02c0-.02.01-.02.01-.038 0 0 .01-.02.02-.02h.04s.01 0 .01.02v.173h-.02c.01-.02.01-.039.01-.039zm-.007-.077c-.01 0-.02 0-.03.02h-.01s-.01 0-.01.019v.039h.03l.01-.02c.01-.02.01-.039.01-.058zm.07.096v-.019c-.01.02-.02.039-.03.02-.01 0-.01 0-.02-.02-.01 0-.01-.02-.01-.038v-.058c0-.02.01-.038.01-.058 0-.019.01-.019.02-.038.01 0 .01-.02.02-.02h.01l.01.02.01-.096h.02l-.03.269h-.01v.038zm-.053-.096v.058c0 .02.01.02.02.02s.01 0 .02-.02.01-.039.01-.058v-.057c0-.02-.01-.02-.02-.02s-.01 0-.02.02c0 .019 0 .038-.01.057zm.06 0c0-.038.01-.057.02-.077.01-.019.02-.019.03-.019.01 0 .02 0 .03.02.01.019.01.038.01.076 0 .02-.01.039-.01.058 0 .02-.01.02-.02.038-.01 0-.02.02-.02.02-.01 0-.02-.02-.03-.02-.01-.038-.01-.057-.01-.096zm.013 0v.058c0 .02.01.02.02.02s.02 0 .02-.02c.01-.02.01-.039.01-.058v-.057c0-.02-.01-.02-.02-.02s-.02 0-.02.02c-.01.019-.01.038-.01.057zm.087.116l.02-.193h.01v.039c0-.02.01-.02.01-.02h.01c.01 0 .01 0 .02.02l-.01.038h-.02s-.01 0-.01.02c0 .019 0 .019-.01.038l-.01.096h-.01v-.038zm.116-.058h.02c0 .02-.01.038-.02.038-.01.02-.02.02-.03.02-.01 0-.03-.02-.03-.039-.01-.02-.01-.038 0-.077 0-.038.01-.057.02-.077.01-.019.02-.019.03-.019.01 0 .02 0 .03.02.01.019.01.038 0 .076h-.07v.058c0 .02.01.02.02.02h.02s0-.02.01-.02zm-.056-.058h.05v-.038c0-.02-.01-.02-.02-.02s-.01 0-.02.02c0 0-.01.019-.01.038zm.053.058h.02v.038s.01 0 .02.02h.02l.01-.02v-.019s-.01 0-.02-.02c-.01 0-.02-.018-.02-.018l-.01-.02v-.019s0-.019.01-.019l.01-.02h.04c.01 0 .01.02.01.02v.038h-.02v-.019h-.03s-.01 0-.01.02v.019h.02c.01 0 .02.019.02.019l.01.02v.018c0 .02 0 .02-.01.039 0 0-.01.02-.02.02h-.02c-.01 0-.02 0-.03-.02v-.077zm.054.135l.03-.27h.01v.02l.01-.02h.02c.01 0 .01 0 .02.02 0 0 .01.019.01.038v.058c0 .019-.01.038-.01.057 0 .02-.01.02-.02.039-.01 0-.02.02-.02.02h-.01l-.01-.02-.01.096h-.02v-.038zm.02-.174v.058c0 .02.01.02.02.02s.01 0 .02-.02.01-.038.01-.058v-.057c0-.02-.01-.02-.02-.02s-.01 0-.02.02c0 .019 0 .038-.01.057zm.129.058h.02c0 .02-.01.039-.02.039s-.02.019-.03.019c-.01 0-.03-.02-.03-.02-.01-.019-.01-.038 0-.076 0-.039.01-.058.02-.077.01-.02.02-.02.03-.02.01 0 .02.02.03.039.01.02.01.038 0 .077h-.07v.058c0 .019.01.019.02.019h.02c0-.039 0-.058.01-.058zm-.056-.058h.05v-.038c0-.02-.01-.02-.02-.02s-.01 0-.02.02c-.01 0-.01.02-.01.038zm.067-.115v-.038h.02v.038h-.02zm-.014.23l.02-.191h.02l-.02.192h-.02zm.057-.018v.038h-.03v-.02-.038l.01-.115h-.01v-.02h.01v-.057l.02-.02-.01.059h.02v.019h-.02l-.01.115v.02c.01.019.02.019.02.019zm.065 0c-.01 0-.01.019-.02.019h-.02c-.01 0-.02 0-.02-.02 0-.019-.01-.019 0-.038 0 0 0-.02.01-.02l.01-.018s.01 0 .01-.02h.04v-.019s-.01-.019-.02-.019h-.02l-.01.02h-.02c0-.02.01-.02.01-.04 0 0 .01-.018.02-.018h.04s.01 0 .01.019v.173h-.02v-.02zm.002-.058h-.04-.01v.038h.03c.01 0 .01-.019.01-.019 0 .02 0 0 .01-.02zm.036 0c0-.039.01-.058.02-.077.01-.02.02-.02.03-.02.01 0 .02 0 .03.02.01.02.01.038 0 .077 0 .02-.01.038-.01.058 0 .019-.01.019-.02.038h-.02c-.01 0-.02 0-.03-.02v-.076zm.014 0v.058c0 .019.01.019.02.019s.02 0 .02-.02c.01-.019.01-.038.01-.057v-.058c0-.019-.01-.019-.02-.019s-.02 0-.02.02c0 .018-.01.038-.01.057zm.08.192l.03-.269h.01v.02l.01-.02h.02c.01 0 .02 0 .02.02 0 0 .01.018.01.038v.057c0 .02-.01.039-.01.058 0 .02-.01.02-.02.039-.01 0-.01.019-.02 0h-.01l-.01-.02-.01.096-.02-.019zm.026-.173v.058c0 .02.01.02.02.02s.01 0 .02-.02.01-.039.01-.058v-.058c0-.019-.01-.019-.02-.019s-.01 0-.02.02c0 .019-.01.038-.01.057zm.054.096l.02-.192h.01v.038c0-.019.01-.019.01-.019h.01c.01 0 .01 0 .02.02l-.01.038h-.02l-.01.02c0 .018 0 .018-.01.038l-.01.096h-.01v-.039zm.043-.077c0-.038.01-.057.02-.077.01-.019.02-.019.03-.019.01 0 .02 0 .03.02.01.019.01.038 0 .076 0 .02-.01.039-.01.058 0 .02-.01.02-.02.039h-.03c-.01 0-.02-.02-.03-.039.01 0 .01-.02.01-.058zm.01 0v.058c0 .02.01.02.02.02s.02 0 .02-.02c.01-.02.01-.02.01-.058v-.057c0-.02-.01-.02-.02-.02s-.02 0-.02.02c0 .019-.01.038-.01.057zm.067-.115v-.038h.02v.038h-.02zm-.034.288l.01-.019h.01s0-.019.01-.038l.02-.193h.02l-.02.193c0 .019-.01.038-.01.057 0 .02-.01.02-.02.02s-.02 0-.02-.02zm.113-.115h.019c0 .02-.01.039-.019.039-.01.019-.02.019-.029.019-.01 0-.019-.02-.028-.039-.01-.019-.01-.038 0-.077 0-.038.01-.057.019-.077.01-.019.019-.019.038-.019.01 0 .019 0 .029.02.009.019.009.038 0 .076h-.067v.058c0 .02.01.02.019.02h.019c-.01 0 0 0 0-.02zm-.046-.058h.05v-.038c0-.02-.01-.02-.02-.02s-.01 0-.02.02-.01.02-.01.038z" fill="#010101" fill-rule="nonzero"/>
			<path d="M11.236 11.814h.02c0 .018-.01.036-.02.054-.01.017-.02.017-.03.017-.01 0-.02-.017-.03-.035-.01-.018-.01-.036 0-.072 0-.018.01-.035.01-.053 0-.018.01-.018.02-.036h.02c.01 0 .02 0 .02.018s.01.018.01.036h-.02v-.036l-.01-.018c-.01 0-.02 0-.02.018-.01.018-.01.036-.01.053v.054c0 .018.01.018.02.018h.02c-.01.018 0 0 0-.018zm.03.054v.035h-.03l-.01-.018v-.035l.01-.107h-.01v-.018h.01v-.054l.02-.018-.01.054h.02v.018h-.02l-.01.107v.018c.02.018.02.018.03.018-.01 0 0 0 0 0zm0-.054c0-.036.01-.054.02-.071.01-.018.02-.018.03-.018.01 0 .02.018.03.035.01.018.01.036 0 .072 0 .018-.01.036-.01.053l-.02.036c-.01 0-.02.018-.02 0-.01 0-.02-.018-.03-.036v-.071zm.014 0v.054c0 .017.01.017.02.017s.02 0 .02-.017c.01-.018.01-.036.01-.054v-.054c0-.017-.01-.017-.02-.017s-.02 0-.02.017c-.01.018-.01.036-.01.054zm.147.125v-.018c-.01.018-.02.018-.03.018-.01 0-.01 0-.02-.018-.01 0-.01-.018-.01-.036v-.053c0-.018.01-.036.01-.054 0-.018.01-.018.02-.035h.03l.01.017.01-.089h.02l-.03.25-.01.018zm-.047-.107v.053c0 .018.01.018.02.018s.01 0 .02-.018c.01-.017.01-.017.01-.053v-.054c0-.018-.01-.018-.02-.018s-.01 0-.02.018c0 .018-.01.036-.01.054zm.122.071h.02c-.01.018-.01.036-.02.036s-.02.018-.03 0c-.01 0-.02-.018-.03-.036-.01-.018-.01-.035 0-.071 0-.036.01-.054.02-.072.01-.017.02-.017.03-.017.01 0 .02.017.03.035.01.018.01.036 0 .072l-.07-.018v.053c0 .018.01.018.02.018h.02c0 .018.01 0 .01 0zm-.049-.071h.05v-.036c0-.018-.01-.018-.02-.018s-.01 0-.02.018-.01.018-.01.036zm.169.071l.016.018c-.008.018-.016.054-.025.054-.008.018-.016.018-.033.018-.008 0-.017 0-.025-.018s-.008-.036-.008-.054v-.071c0-.018.008-.054.016-.072.009-.018.017-.035.025-.035.009 0 .017-.018.025-.018.009 0 .017.018.025.018a.12.12 0 0 1 .009.053h-.017c0-.018 0-.036-.008-.036 0-.017-.009-.017-.017-.017h-.025c-.008 0-.008.017-.017.035 0 .018-.008.036-.008.054v.053c0 .018 0 .036.008.036.009 0 .009.018.017.018.008 0 .017 0 .025-.018.008.018.008 0 .017-.018zm.006 0c0-.035.01-.053.03-.071.01-.018.02-.018.029-.018.01 0 .02.018.03.036.01.018.01.035 0 .071 0 .018-.01.036-.01.054 0 .018-.01.018-.02.018h-.02c-.01 0-.02-.018-.03-.036-.009 0-.019-.018-.009-.054zm.012 0v.054c0 .018.01.018.02.018s.02 0 .02-.018c.01 0 .01-.018.02-.054v-.053c0-.018-.01-.018-.02-.018s-.02 0-.02.018c-.02.018-.02.035-.02.053zm.047.107l.04-.25h.02l-.04.25h-.02zm.093.018v-.018c-.01.018-.02.018-.03.018h-.02l-.01-.018v-.017-.036l.02-.107h.02l-.02.107v.053h.02c.01 0 .01 0 .01-.017 0 0 .01-.018.01-.036l.01-.09h.02l-.03.18v-.019zm0 .018l.02-.178h.007v.017l.006-.017h.014c.006 0 .006 0 .013.017 0 0 0 .018.007.018.006-.018.013-.035.02-.018.006 0 .013 0 .013.018v.054l-.013.125h-.014l.014-.107v-.036-.018h-.014s-.006.018-.006.036l-.014.107h-.013l.013-.107v-.036l-.006-.018h-.007l-.007.018s-.006.018-.006.036l-.007.09h-.02zm.116.036h-.01l.037-.25h.018l-.009.09c.01-.019.018-.019.027-.019.01 0 .01 0 .019.018l.009.018V12.01c-.01.036-.01.054-.019.072-.009.018-.018.018-.027.018-.009 0-.018-.018-.018-.036l-.027.018zm.004-.09v.054c0 .018.01.018.02.036.01 0 .01 0 .02-.018s.01-.018.02-.054v-.053c0-.018-.01-.018-.01-.018-.01 0-.01 0-.02.018-.02 0-.02.018-.03.036zm.115.108c-.01 0-.01.018-.02.018h-.02c-.01 0-.02-.018-.02-.018 0-.018-.01-.018 0-.036 0 0 0-.018.01-.018l.01-.018h.05v-.035s-.01-.018-.02-.018h-.02l-.01.018h-.02c0-.018.01-.018.01-.036 0 0 .01-.018.02-.018h.02c.01 0 .01 0 .02.018l.01.018V12.028l-.01.036c0 .036-.01.054-.01.054v.017h-.02c.02-.017.02-.035.02-.035zm.002-.072h-.04-.01v.036l.01.018h.02c.01 0 .01 0 .01-.018 0 0 .01-.018.01-.036zm.003.107l.03-.178h.01v.018c.01-.018.02-.018.03-.018h.01l.01.018V12.028l-.02.107h-.02l.02-.107v-.035-.018h-.03c-.01 0-.01.018-.02.035l-.02.09v.035zm.067-.071c0-.036.01-.054.03-.071.01-.018.02-.018.03-.018.01 0 .02.018.03.035 0 .018.01.036 0 .072 0 .018-.01.036-.01.053-.01.018-.01.018-.02.018h-.02c-.01 0-.02-.018-.03-.035-.01 0-.01-.018-.01-.054zm.013.018v.053c0 .018.01.018.02.018s.01 0 .02-.018c.01-.017.01-.017.02-.053v-.054c0-.018-.01-.018-.02-.018s-.02 0-.02.018c-.01 0-.02.018-.02.054z" fill="#010101" fill-rule="nonzero"/>
			<path d="M12.368 12.133h-.022c-.02-.006-.02-.02-.01-.033l.423-.48c.01-.013.031-.013.052-.007.022.007.022.02.011.034l-.423.48s-.02.006-.031.006z" fill="#E91D26" fill-rule="nonzero"/>
			<path d="M5.807 7.24c1.513-.02 8.5 4.273 8.52 5.067l-.434.666c-.193-.92-7.286-5.093-8.453-5.02l.367-.713z" fill="#F4EB32" fill-rule="nonzero"/>
			<path d="M13.94 12.933l.464-.586c.009-.007.018-.007.027-.007.009.007.009.013.009.02l-.5.573zM5.467 7.913l.46-.646c.01-.007.02-.007.03-.007.01.007.01.013.01.02l-.5.633z" fill="#010101" fill-rule="nonzero"/>
			<path d="M5.393 7.927c.28-.194 2.347.726 4.507 2.033 2.153 1.307 4.213 2.787 4.027 3.06l-.06.093-.027.02c.007-.006.04-.04 0-.146-.093-.3-1.553-1.467-3.973-2.934C7.507 8.647 5.54 7.793 5.34 8.04l.053-.113zm8.974 4.426c.18-.353-1.74-1.793-4.107-3.2-2.427-1.38-4.18-2.186-4.5-1.946l-.073.126c0 .007 0-.006.02-.02.06-.053.153-.046.2-.046.553.006 2.12.733 4.326 2 .967.566 4.08 2.56 4.074 3.126 0 .047.006.06-.014.08l.074-.12z" fill="#F4EB32" fill-rule="nonzero"/>
			<path d="M13.847 13.147l-.014-.02c-.006 0-.006 0-.006-.007 0 0 .033-.033-.007-.127-.093-.313-1.64-1.513-3.967-2.926-1.993-1.194-3.84-2.054-4.386-2.054-.06 0-.107.014-.127.034V8.04c0-.007 0-.013.007-.02l.033-.107c.033-.026.073-.033.127-.033.553 0 2.48.907 4.393 2.06 1.94 1.18 3.953 2.587 4.04 3 .007.033.007.06-.013.08l-.06.093s-.014.007-.02.014c.006.013 0 .02 0 .02zm-8.38-5.16c.546 0 2.4.866 4.4 2.06 2.366 1.433 3.88 2.62 3.98 2.94.013.04.02.073.02.093l.046-.073c.014-.014.014-.034.007-.06-.087-.407-2.14-1.84-4.027-2.98-1.906-1.154-3.833-2.054-4.38-2.054a.216.216 0 0 0-.106.02l-.04.074c.02-.014.053-.02.1-.02zm8.833 4.486h-.007l-.006-.02-.007.014.007-.014c.006-.006.006-.02.006-.046.014-.58-3.166-2.607-4.066-3.134-2.2-1.26-3.774-1.986-4.32-1.993-.054 0-.14 0-.187.047.053-.074.133-.074.18-.074.567.007 2.147.734 4.347 2 .633.374 4.093 2.527 4.08 3.14v.014l.04-.06c.166-.32-1.64-1.72-4.107-3.18-2.607-1.48-4.193-2.16-4.48-1.947l-.06.107c-.013.006-.033.013-.033.006L5.76 7.2a.31.31 0 0 1 .187-.047c.68 0 2.733 1.08 4.333 1.994 2.14 1.266 4.313 2.826 4.113 3.22l-.073.106h-.02z" fill="#010101" fill-rule="nonzero"/>
			<path d="M6.98 10.547c0 .806.333 1.54.867 2.08a2.95 2.95 0 0 0 2.08.873c.813 0 1.553-.333 2.093-.867a2.948 2.948 0 0 0 .867-2.086v-3.94L6.98 6.6v3.947z" fill="#FFF" fill-rule="nonzero"/>
			<path d="M9.933 13.52c-.78 0-1.52-.313-2.093-.88a2.925 2.925 0 0 1-.873-2.093V6.6l5.926-.007.02 3.96a2.94 2.94 0 0 1-.873 2.094 2.983 2.983 0 0 1-2.107.873zm2.94-6.913l-5.886.006.02 3.934c0 .78.306 1.513.866 2.066a2.919 2.919 0 0 0 4.147.007 2.92 2.92 0 0 0 .86-2.073v-3.94h-.007z" fill="#010101" fill-rule="nonzero"/>
			<path d="M7.093 10.553c0 .78.32 1.48.834 1.994a2.834 2.834 0 0 0 2 .833c.78 0 1.486-.313 2-.827a2.806 2.806 0 0 0 .833-1.993V6.733H7.1l-.007 3.82zM11.62 7.88V10.573a1.622 1.622 0 0 1-.5 1.193 1.677 1.677 0 0 1-2.38-.006 1.703 1.703 0 0 1-.5-1.193V7.88h3.38z" fill="#E91D26" fill-rule="nonzero"/>
			<path d="M9.927 13.393c-.754 0-1.467-.3-2.007-.833a2.81 2.81 0 0 1-.84-2V6.74l5.673-.013.014 3.84c0 .753-.294 1.466-.834 2a2.818 2.818 0 0 1-2.006.826zm2.82-6.66l-5.654.014.007 3.806c0 .747.293 1.454.833 1.987a2.81 2.81 0 0 0 1.994.827c.753 0 1.46-.294 1.993-.827a2.783 2.783 0 0 0 .827-1.987v-3.82zm-2.82 5.534c-.44 0-.867-.18-1.194-.507-.32-.32-.5-.76-.5-1.2v-2.7l3.394.007.013 2.446v.26a1.676 1.676 0 0 1-.5 1.2c-.333.32-.76.494-1.213.494zm-1.674-4.38v2.673c0 .44.18.867.494 1.187.326.32.74.5 1.173.5.447 0 .867-.174 1.187-.494.273-.273.44-.606.48-.973a2.15 2.15 0 0 0 .013-.207V7.88l-3.347.007z" fill="#010101" fill-rule="nonzero"/>
			<path d="M9.573 10.12c0 .113.04.213.107.287.067.073.16.12.267.12a.38.38 0 0 0 .266-.12.422.422 0 0 0 .107-.287v-.533h-.747v.533z" fill="#2D2D86" fill-rule="nonzero"/>
			<path d="M10.329 9.713a.252.252 0 0 0-.249.25c0 .137.113.25.249.25a.252.252 0 0 0 .249-.25c.022-.136-.114-.25-.25-.25z" fill="#FFF" fill-rule="nonzero"/>
			<path d="M10.123 9.913a.252.252 0 0 0-.25.25c0 .137.114.25.25.25.137 0 .25-.113.25-.25a.252.252 0 0 0-.25-.25z" fill="#FFF" fill-rule="nonzero"/>
			<path d="M10.33 10.12a.252.252 0 0 0-.25.25c0 .136.114.25.25.25s.25-.114.25-.25a.252.252 0 0 0-.25-.25z" fill="#FFF" fill-rule="nonzero"/>
			<path d="M9.93 10.12a.252.252 0 0 0-.25.25c0 .136.114.25.25.25s.25-.114.25-.25a.252.252 0 0 0-.25-.25z" fill="#FFF" fill-rule="nonzero"/>
			<path d="M9.93 9.713a.252.252 0 0 0-.25.25c0 .137.114.25.25.25s.25-.113.25-.25a.252.252 0 0 0-.25-.25z" fill="#FFF" fill-rule="nonzero"/>
			<path d="M9.567 11.407c0 .113.04.213.113.286.067.074.16.12.267.12a.38.38 0 0 0 .266-.12.417.417 0 0 0 .107-.28v-.533h-.747l-.006.527z" fill="#2D2D86" fill-rule="nonzero"/>
			<path d="M10.33 11a.252.252 0 0 0-.25.25c0 .136.114.25.25.25s.25-.114.25-.25a.252.252 0 0 0-.25-.25z" fill="#FFF" fill-rule="nonzero"/>
			<path d="M10.123 11.2a.252.252 0 0 0-.25.25c0 .136.114.25.25.25.137 0 .25-.114.25-.25 0-.16-.113-.25-.25-.25z" fill="#FFF" fill-rule="nonzero"/>
			<path d="M10.33 11.407a.252.252 0 0 0-.25.25c0 .136.114.25.25.25s.25-.114.25-.25a.252.252 0 0 0-.25-.25z" fill="#FFF" fill-rule="nonzero"/>
			<path d="M9.923 11.407a.252.252 0 0 0-.25.25c0 .136.114.25.25.25.137 0 .25-.114.25-.25a.252.252 0 0 0-.25-.25z" fill="#FFF" fill-rule="nonzero"/>
			<path d="M9.923 11a.252.252 0 0 0-.25.25c0 .136.114.25.25.25.137 0 .25-.114.25-.25a.252.252 0 0 0-.25-.25z" fill="#FFF" fill-rule="nonzero"/>
			<path d="M8.54 10.12c0 .107.04.213.107.28.066.073.16.12.266.12a.369.369 0 0 0 .267-.12.417.417 0 0 0 .107-.28v-.533H8.54v.533z" fill="#2D2D86" fill-rule="nonzero"/>
			<path d="M9.297 9.72a.252.252 0 0 0-.25.25c0 .136.113.25.25.25.136 0 .25-.114.25-.25 0-.16-.114-.25-.25-.25z" fill="#FFF" fill-rule="nonzero"/>
			<path d="M9.09 9.913a.252.252 0 0 0-.25.25c0 .137.114.25.25.25s.25-.113.25-.25a.252.252 0 0 0-.25-.25z" fill="#FFF" fill-rule="nonzero"/>
			<path d="M9.297 10.127a.252.252 0 0 0-.25.25c0 .136.113.25.25.25.136 0 .25-.114.25-.25 0-.16-.114-.25-.25-.25z" fill="#FFF" fill-rule="nonzero"/>
			<path d="M8.897 10.127a.252.252 0 0 0-.25.25c0 .136.113.25.25.25.136 0 .25-.114.25-.25a.252.252 0 0 0-.25-.25z" fill="#FFF" fill-rule="nonzero"/>
			<path d="M8.889 9.713a.251.251 0 0 0-.249.25c0 .137.113.25.249.25a.251.251 0 0 0 .248-.25c.023-.136-.09-.25-.248-.25z" fill="#FFF" fill-rule="nonzero"/>
			<path d="M10.607 10.12c0 .113.04.213.106.287.067.073.16.12.267.12a.369.369 0 0 0 .267-.12.417.417 0 0 0 .106-.28v-.534h-.746v.527z" fill="#2D2D86" fill-rule="nonzero"/>
			<path d="M11.363 9.713a.252.252 0 0 0-.25.25c0 .137.114.25.25.25.137 0 .25-.113.25-.25a.252.252 0 0 0-.25-.25z" fill="#FFF" fill-rule="nonzero"/>
			<path d="M11.157 9.913a.252.252 0 0 0-.25.25c0 .137.113.25.25.25.136 0 .25-.113.25-.25a.252.252 0 0 0-.25-.25z" fill="#FFF" fill-rule="nonzero"/>
			<path d="M11.363 10.12a.252.252 0 0 0-.25.25c0 .136.114.25.25.25.137 0 .25-.114.25-.25a.252.252 0 0 0-.25-.25z" fill="#FFF" fill-rule="nonzero"/>
			<path d="M10.963 10.127a.252.252 0 0 0-.25.25c0 .136.114.25.25.25.137 0 .25-.114.25-.25 0-.16-.113-.25-.25-.25z" fill="#FFF" fill-rule="nonzero"/>
			<path d="M10.955 9.713a.251.251 0 0 0-.248.25c0 .137.113.25.248.25a.251.251 0 0 0 .249-.25c.022-.136-.09-.25-.249-.25z" fill="#FFF" fill-rule="nonzero"/>
			<path d="M9.573 8.827c0 .106.04.206.107.28.067.073.16.12.267.12a.369.369 0 0 0 .266-.12.422.422 0 0 0 .107-.287v-.533h-.747v.54z" fill="#2D2D86" fill-rule="nonzero"/>
			<path d="M10.33 8.42a.252.252 0 0 0-.25.25c0 .136.114.25.25.25s.25-.114.25-.25a.252.252 0 0 0-.25-.25z" fill="#FFF" fill-rule="nonzero"/>
			<path d="M10.123 8.62a.252.252 0 0 0-.25.25c0 .136.114.25.25.25.137 0 .25-.114.25-.25a.252.252 0 0 0-.25-.25z" fill="#FFF" fill-rule="nonzero"/>
			<path d="M10.33 8.827a.252.252 0 0 0-.25.25c0 .136.114.25.25.25s.25-.114.25-.25a.252.252 0 0 0-.25-.25z" fill="#FFF" fill-rule="nonzero"/>
			<path d="M9.93 8.827a.252.252 0 0 0-.25.25c0 .136.114.25.25.25s.25-.114.25-.25a.252.252 0 0 0-.25-.25z" fill="#FFF" fill-rule="nonzero"/>
			<path d="M9.93 8.42a.252.252 0 0 0-.25.25c0 .136.114.25.25.25s.25-.114.25-.25a.252.252 0 0 0-.25-.25z" fill="#FFF" fill-rule="nonzero"/>
			<path d="M7.46 7.893c.008-.402.246-.5.246-.5s.262.098.254.5h-.5z" fill="#F4EB32" fill-rule="nonzero"/>
			<path d="M7.293 7.397l-.033.49h.207c0-.407.2-.48.2-.48.006 0 .2.094.206.48h.207l-.04-.5-.747.01z" fill="#F4EB32" fill-rule="nonzero"/>
			<path d="M8.087 7.887h-.22c-.02-.363-.2-.451-.207-.451 0 0-.187.059-.187.431l-.22.02.02-.48.76-.02.054.5zm-.44-.48l-.354.01-.02.45.194-.02c-.014-.313.12-.411.18-.44zm.033 0c.053.029.193.137.2.46l.18-.02-.033-.45-.347.01z" fill="#010101" fill-rule="nonzero"/>
			<path d="M7.247 7.713h.84c.02 0 .033.125.033.25s-.013.25-.033.25h-.84c-.02 0-.034-.125-.034-.25s.014-.25.034-.25z" fill="#F4EB32" fill-rule="nonzero"/>
			<path d="M8.087 8.2h-.84c-.027 0-.047-.094-.047-.25 0-.125.02-.25.047-.25h.84c.026 0 .046.094.046.25 0 .125-.02.25-.046.25zm-.84-.375v.25h.84c.013 0 .02-.063.02-.125l-.86-.125z" fill="#010101" fill-rule="nonzero"/>
			<path d="M7.553 8c0-.39.243-.5.243-.5s.257.11.257.5h-.5z" fill="#F4EB32" fill-rule="nonzero"/>
			<path d="M8.052 7.993h-.497c-.028-.4.207-.5.22-.5.028 0 .277.115.277.472v.028zm-.276-.457c.014 0-.194.1-.194.429l.429-.029c-.028-.3-.235-.4-.235-.4z" fill="#010101" fill-rule="nonzero"/>
			<path d="M7.26 7.267h.807c.02 0 .033.1.033.25s-.013.25-.033.25H7.26c-.02 0-.033-.1-.033-.25.006-.15.02-.25.033-.25z" fill="#F4EB32" fill-rule="nonzero"/>
			<path d="M8.073 7.753h-.806c-.027 0-.04-.107-.04-.25 0-.143.02-.25.04-.25h.806c.027 0 .04.107.04.25 0 .143-.02.25-.04.25zm-.813-.357v.25h.807c.006 0 .02-.071.02-.107l-.827-.143z" fill="#010101" fill-rule="nonzero"/>
			<path d="M7.28 7.333h.773c.014 0 .027.1.027.25s-.013.25-.027.25H7.28c-.02 0-.027-.1-.027-.25-.006-.1.007-.25.027-.25z" fill="#F4EB32" fill-rule="nonzero"/>
			<path d="M8.053 7.827H7.28c-.027 0-.04-.107-.04-.25 0-.143.02-.25.04-.25h.773c.02 0 .04.107.04.25 0 .107-.02.25-.04.25zm-.773-.393v.25h.773c.007 0 .02-.072.02-.107l-.793-.143z" fill="#010101" fill-rule="nonzero"/>
			<path d="M7.527 6.826h.11v.158h.085V6.8h.11v.184h.085V6.8h.11v.395c0 .052-.025.105-.05.105h-.402c-.024 0-.048-.053-.048-.105v-.369z" fill="#F4EB32" fill-rule="nonzero"/>
			<path d="M7.953 7.28h-.389l-.044-.12v-.3l.122-.04.022.16.056-.04-.022-.1.122-.04.022.16.056-.04-.022-.1.122-.04.022.38-.067.12zm-.333-.42l-.078.04.022.26.39.08.022-.08v-.3l-.09.04.023.1-.1.04-.022-.16-.09.04.023.1-.089.04-.011-.2z" fill="#010101" fill-rule="nonzero"/>
			<path fill="#F4EB32" fill-rule="nonzero" d="M8.029 6.94l.031.5-.5-.01.031-.49z"/>
			<path d="M8.06 7.427h-.5v-.481l.441-.02.059.5zm-.088-.481l-.383.02v.441l.412-.019-.03-.442z" fill="#010101" fill-rule="nonzero"/>
			<path d="M7.8 6.986h.112v.158h.075V6.96h.112v.184h.075V6.96h.113v.395c0 .052-.025.105-.05.105h-.4c-.025 0-.05-.053-.05-.105v-.369h.012z" fill="#F4EB32" fill-rule="nonzero"/>
			<path d="M8.209 7.433H7.83l-.044-.12v-.3l.122-.04.022.16.056-.04-.023-.1.123-.04.022.16.055-.04-.022-.1.122-.04.023.38-.078.12zm-.333-.4l-.078.04.022.26.378.08.022-.08v-.3l-.078.04.022.1-.088.04-.023-.16-.077.04.022.1-.09.04-.032-.2z" fill="#010101" fill-rule="nonzero"/>
			<path fill="#F4EB32" fill-rule="nonzero" d="M8.31 7.093l.017.5h-.5l.016-.5z"/>
			<path d="M8.32 7.573h-.485l-.015-.466.456-.034.044.5zm-.074-.45l-.397.034.015.4.397-.034-.015-.4z" fill="#010101" fill-rule="nonzero"/>
			<path d="M7.267 6.967h.112v.184h.075v-.184h.113v.184h.087v-.184h.113v.394c0 .053-.025.106-.05.106h-.4c-.025 0-.05-.053-.05-.106v-.394z" fill="#F4EB32" fill-rule="nonzero"/>
			<path d="M7.676 7.44h-.378l-.045-.12v-.3l.123-.04.022.16.055-.04-.022-.1.122-.04.023.16.055-.04-.022-.1.122-.04.022.38-.077.12zm-.323-.42l-.077.04.022.26.389.08.022-.08v-.3l-.078.04.022.1-.089.04-.022-.16-.078.04.023.1-.09.04-.044-.2z" fill="#010101" fill-rule="nonzero"/>
			<path fill="#F4EB32" fill-rule="nonzero" d="M7.784 7.093l.016.5h-.5l.016-.5z"/>
			<path d="M7.787 7.58H7.3l-.014-.467.456-.033.044.5zm-.06-.467l-.396.034.014.4.398-.034-.015-.4z" fill="#010101" fill-rule="nonzero"/>
			<path d="M7.647 7.149c0-.17.3-.17.3 0v.373h-.3v-.373z" fill="#010101" fill-rule="nonzero"/>
			<path d="M7.907 7.275c0-.196.3-.196.3 0v.353h-.3v-.353zM7.38 7.267c0-.161.3-.201.3 0v.364h-.3v-.364z" fill="#010101" fill-rule="nonzero"/>
			<path d="M9.8 6.807h.11v.184h.085v-.184h.11v.184h.085v-.184h.11V7.2c0 .053-.024.106-.049.106H9.85c-.025 0-.049-.053-.049-.106v-.394z" fill="#F4EB32" fill-rule="nonzero"/>
			<path d="M10.227 7.287h-.39l-.044-.125v-.313l.123-.042.022.167.055-.042-.022-.104.122-.041.023.187.055-.042-.022-.104.122-.041.022.396-.066.104zm-.334-.438l-.077.042.022.27.389.084.022-.083v-.313l-.089.042.022.104-.1.042-.022-.188-.089.042.022.104-.077.042-.023-.188z" fill="#010101" fill-rule="nonzero"/>
			<path fill="#F4EB32" fill-rule="nonzero" d="M10.302 6.94l.031.5-.5-.01.032-.49z"/>
			<path d="M10.333 7.427h-.5v-.481l.442-.02.058.5zm-.088-.471l-.382.019v.442l.412-.02-.03-.441z" fill="#010101" fill-rule="nonzero"/>
			<path d="M10.067 6.986h.112v.158h.088V6.96h.112v.184h.075V6.96h.113v.395c0 .052-.025.105-.05.105h-.4c-.025 0-.05-.053-.05-.105v-.369z" fill="#F4EB32" fill-rule="nonzero"/>
			<path d="M10.482 7.44h-.378l-.044-.125v-.313l.122-.041.022.167.056-.042-.022-.104.122-.042.022.188.056-.042-.022-.104.122-.042.022.396-.078.104zm-.333-.417l-.078.042.022.27.378.084.022-.083v-.313l-.077.042.022.104-.09.042-.021-.188-.078.042.022.104-.089.042-.033-.188z" fill="#010101" fill-rule="nonzero"/>
			<path fill="#F4EB32" fill-rule="nonzero" d="M10.584 7.093l.016.5h-.5l.016-.5z"/>
			<path d="M10.087 7.58l.014-.467.443-.033.043.467-.5.033zm.428-.467l-.385.034.014.366h.414l-.043-.4z" fill="#010101" fill-rule="nonzero"/>
			<path d="M9.546 6.986h.112v.158h.075V6.96h.113v.184h.075V6.96h.112v.395c0 .052-.025.105-.05.105h-.4c-.025 0-.05-.053-.05-.105v-.369h.013z" fill="#F4EB32" fill-rule="nonzero"/>
			<path d="M9.949 7.44H9.57l-.044-.12v-.3l.122-.04.022.16.056-.04-.023-.1.123-.04.022.16.055-.04-.022-.1.122-.04.023.38-.078.12zm-.322-.42l-.078.04.022.26.389.08.022-.08v-.3l-.078.04.023.1-.09.04-.021-.16-.078.04.022.1-.089.04-.044-.2z" fill="#010101" fill-rule="nonzero"/>
			<path fill="#F4EB32" fill-rule="nonzero" d="M10.057 7.093l.016.5h-.5l.016-.5z"/>
			<path d="M10.067 7.58H9.58l-.014-.467.456-.033.044.5zm-.074-.467l-.397.034.015.4.397-.034-.015-.4z" fill="#010101" fill-rule="nonzero"/>
			<path d="M9.733 7.884c.009-.395.246-.49.246-.49s.262.105.254.5l-.5-.01z" fill="#F4EB32" fill-rule="nonzero"/>
			<path d="M9.567 7.397l-.034.49h.207c0-.407.2-.48.2-.48.007 0 .2.094.207.48h.206l-.04-.5-.746.01z" fill="#F4EB32" fill-rule="nonzero"/>
			<path d="M10.367 7.887h-.22c-.02-.373-.207-.451-.207-.451s-.187.059-.187.431l-.22.02.02-.48.76-.02.054.5zm-.454-.48l-.353.01-.02.45.193-.02c-.006-.313.127-.411.18-.44zm.047 0c.053.029.193.137.2.46l.18-.02-.033-.45-.347.01z" fill="#010101" fill-rule="nonzero"/>
			<path d="M9.52 7.713h.84c.02 0 .033.125.033.25s-.013.25-.033.25h-.84c-.02 0-.033-.125-.033-.25s.013-.25.033-.25z" fill="#F4EB32" fill-rule="nonzero"/>
			<path d="M10.36 8.2h-.84c-.027 0-.047-.094-.047-.25 0-.125.02-.25.047-.25h.84c.027 0 .047.094.047.25 0 .125-.02.25-.047.25zm-.84-.375v.25h.84c.013 0 .02-.063.02-.125l-.86-.125z" fill="#010101" fill-rule="nonzero"/>
			<path d="M9.827 8c0-.39.243-.5.243-.5s.257.11.257.5h-.5z" fill="#F4EB32" fill-rule="nonzero"/>
			<path d="M10.326 7.993h-.498c-.028-.4.207-.5.221-.5.028 0 .277.115.277.472v.028zm-.277-.457c.014 0-.194.1-.194.429l.43-.029c-.029-.3-.236-.4-.236-.4z" fill="#010101" fill-rule="nonzero"/>
			<path d="M9.533 7.267h.807c.02 0 .033.1.033.25s-.013.25-.033.25h-.807c-.02 0-.033-.1-.033-.25.007-.15.02-.25.033-.25z" fill="#F4EB32" fill-rule="nonzero"/>
			<path d="M10.347 7.753h-.814c-.026 0-.04-.107-.04-.25 0-.143.02-.25.04-.25h.807c.027 0 .04.107.04.25.007.143-.013.25-.033.25zm-.814-.357v.25h.807c.007 0 .02-.071.02-.107l-.827-.143z" fill="#010101" fill-rule="nonzero"/>
			<path d="M9.553 7.333h.774c.02 0 .026.1.026.25s-.013.25-.026.25h-.774c-.02 0-.026-.1-.026-.25 0-.1.006-.25.026-.25z" fill="#F4EB32" fill-rule="nonzero"/>
			<path d="M10.327 7.827h-.774c-.026 0-.04-.107-.04-.25 0-.143.02-.25.04-.25h.774c.02 0 .04.107.04.25 0 .143-.02.25-.04.25zm-.774-.393v.25h.774c.006 0 .02-.072.02-.107l-.794-.143z" fill="#010101" fill-rule="nonzero"/>
			<path d="M9.92 7.14c0-.158.3-.158.3 0v.382h-.3V7.14z" fill="#010101" fill-rule="nonzero"/>
			<path d="M10.18 7.267c0-.161.3-.201.3 0v.364h-.3v-.364zM9.653 7.275c0-.196.3-.196.3 0v.353h-.3v-.353z" fill="#010101" fill-rule="nonzero"/>
			<path d="M12.053 6.826h.11v.158h.085V6.8h.11v.184h.086V6.8h.11v.395c0 .052-.025.105-.05.105h-.402c-.024 0-.049-.053-.049-.105v-.369z" fill="#F4EB32" fill-rule="nonzero"/>
			<path d="M12.473 7.28h-.389l-.044-.12v-.3l.122-.04.022.16.056-.04-.022-.1.122-.04.022.16.056-.04-.022-.1.122-.04.022.38-.067.12zm-.333-.42l-.078.04.022.26.39.08.022-.08v-.3l-.09.04.023.1-.089.04-.022-.16-.09.04.023.1-.1.04-.011-.2z" fill="#010101" fill-rule="nonzero"/>
			<path fill="#F4EB32" fill-rule="nonzero" d="M12.549 6.947l.031.5h-.5l.031-.5z"/>
			<path d="M12.58 7.433h-.5v-.48l.441-.02.059.5zm-.088-.48l-.383.019v.442l.412-.02-.03-.441z" fill="#010101" fill-rule="nonzero"/>
			<path d="M12.313 6.986h.113v.158h.075V6.96h.112v.184h.088V6.96h.112v.395c0 .052-.025.105-.05.105h-.4c-.025 0-.05-.053-.05-.105v-.369z" fill="#F4EB32" fill-rule="nonzero"/>
			<path d="M12.729 7.44h-.378l-.044-.12v-.3l.122-.04.022.16.056-.04-.023-.1.123-.04.022.16.055-.04-.022-.1.122-.04.023.38-.078.12zm-.322-.42l-.078.04.022.26.389.08.022-.08v-.3l-.078.04.023.1-.09.04-.021-.16-.078.04.022.1-.089.04-.044-.2z" fill="#010101" fill-rule="nonzero"/>
			<path fill="#F4EB32" fill-rule="nonzero" d="M12.83 7.093l.017.5h-.5l.016-.5z"/>
			<path d="M12.84 7.58h-.485l-.015-.467.456-.033.044.5zm-.074-.467l-.397.034.015.4.397-.034-.015-.4z" fill="#010101" fill-rule="nonzero"/>
			<path d="M11.787 6.986h.11v.158h.085V6.96h.11v.184h.085V6.96h.11v.395c0 .052-.025.105-.05.105h-.39c-.024 0-.048-.053-.048-.105v-.369h-.012z" fill="#F4EB32" fill-rule="nonzero"/>
			<path d="M12.202 7.44h-.378l-.044-.12v-.3l.122-.04.022.16.056-.04-.022-.1.122-.04.022.16.056-.04-.022-.1.122-.04.022.38-.078.12zm-.333-.42l-.078.04.022.26.39.08.021-.08v-.3l-.077.04.022.1-.089.04-.022-.16-.078.04.022.1-.089.04-.044-.2z" fill="#010101" fill-rule="nonzero"/>
			<path fill="#F4EB32" fill-rule="nonzero" d="M12.304 7.093l.016.5h-.5l.016-.5z"/>
			<path d="M12.313 7.58h-.485l-.015-.467.456-.033.044.5zm-.073-.467l-.397.034.014.4.398-.034-.015-.4z" fill="#010101" fill-rule="nonzero"/>
			<path d="M11.98 7.884c.008-.395.242-.49.25-.49 0 0 .258.105.25.5l-.5-.01z" fill="#F4EB32" fill-rule="nonzero"/>
			<path d="M11.813 7.404l-.033.49h.207c0-.407.2-.48.2-.48.006 0 .2.094.206.48h.207l-.04-.5-.747.01z" fill="#F4EB32" fill-rule="nonzero"/>
			<path d="M12.613 7.887h-.22c-.02-.363-.206-.451-.206-.451S12 7.495 12 7.867l-.22.02.02-.48.76-.02.053.5zm-.446-.47l-.354.009-.02.45.194-.019c-.007-.323.126-.421.18-.44zm.04-.01c.053.029.193.137.2.46l.18-.02-.034-.45-.346.01z" fill="#010101" fill-rule="nonzero"/>
			<path d="M11.767 7.713h.84c.02 0 .033.125.033.25s-.013.25-.033.25h-.84c-.02 0-.034-.125-.034-.25s.014-.25.034-.25z" fill="#F4EB32" fill-rule="nonzero"/>
			<path d="M12.607 8.2h-.84c-.027 0-.047-.094-.047-.25s.02-.25.047-.25h.84c.026 0 .046.094.046.25s-.02.25-.046.25zm-.84-.375v.25h.84c.013 0 .02-.063.02-.125l-.86-.125z" fill="#010101" fill-rule="nonzero"/>
			<path d="M12.073 8c0-.39.243-.5.243-.5s.257.11.257.5h-.5z" fill="#F4EB32" fill-rule="nonzero"/>
			<path d="M12.572 7.993h-.498c-.027-.385.222-.5.222-.5.027 0 .276.115.276.472v.028zm-.276-.457c.014 0-.194.1-.194.429l.429-.029c-.014-.3-.221-.4-.235-.4z" fill="#010101" fill-rule="nonzero"/>
			<path d="M11.787 7.267h.806c.02 0 .034.1.034.25s-.014.25-.034.25h-.806c-.02 0-.034-.1-.034-.25s.014-.25.034-.25z" fill="#F4EB32" fill-rule="nonzero"/>
			<path d="M12.593 7.753h-.806c-.027 0-.047-.107-.047-.25 0-.143.02-.25.047-.25h.806c.027 0 .047.107.047.25-.007.143-.027.25-.047.25zm-.806-.357v.25h.806c.014 0 .02-.071.02-.107l-.826-.143z" fill="#010101" fill-rule="nonzero"/>
			<path d="M11.8 7.34h.773c.014 0 .027.1.027.25s-.013.25-.027.25H11.8c-.013 0-.027-.1-.027-.25s.014-.25.027-.25z" fill="#F4EB32" fill-rule="nonzero"/>
			<path d="M12.573 7.827H11.8c-.02 0-.04-.107-.04-.25 0-.143.02-.25.04-.25h.773c.02 0 .04.107.04.25 0 .143-.013.25-.04.25zm-.773-.393v.25h.773c.007 0 .02-.072.02-.107l-.793-.143z" fill="#010101" fill-rule="nonzero"/>
			<path d="M12.167 7.14c0-.158.35-.158.3 0v.382h-.3V7.14z" fill="#010101" fill-rule="nonzero"/>
			<path d="M12.433 7.275c0-.196.3-.196.3 0v.353h-.3v-.353zM11.9 7.282c0-.196.3-.196.3 0v.353h-.3v-.353z" fill="#010101" fill-rule="nonzero"/>
			<path d="M7.533 9.113h.11v.185h.085v-.185h.11v.185h.086v-.185h.11v.395c0 .053-.025.105-.05.105h-.402c-.024 0-.049-.052-.049-.105v-.395z" fill="#F4EB32" fill-rule="nonzero"/>
			<path d="M7.953 9.58h-.389l-.044-.12v-.3l.122-.04.022.16.056-.04-.022-.1.122-.04.022.16.056-.04-.022-.1.122-.04.022.36-.067.14zm-.333-.4l-.078.04.022.26.39.08.022-.08v-.3l-.09.04.023.1-.089.04-.022-.16-.09.04.023.1-.089.04-.022-.2z" fill="#010101" fill-rule="nonzero"/>
			<path fill="#F4EB32" fill-rule="nonzero" d="M8.029 9.247l.031.5h-.5l.031-.5z"/>
			<path d="M8.06 9.733h-.5v-.48l.441-.02.059.5zm-.088-.48l-.383.019v.442l.412-.02-.03-.441z" fill="#010101" fill-rule="nonzero"/>
			<path d="M7.793 9.293h.113v.158h.075v-.184h.112v.184h.088v-.184h.112v.394c0 .053-.025.106-.05.106h-.4c-.025 0-.05-.053-.05-.106v-.368z" fill="#F4EB32" fill-rule="nonzero"/>
			<path d="M8.209 9.74H7.83l-.044-.12v-.3l.122-.04.022.16.056-.04-.023-.1.123-.04.022.16.055-.04-.022-.1.122-.04.023.38-.078.12zm-.322-.4l-.078.04.022.26.389.08.022-.08v-.32l-.078.04.023.1-.09.04-.021-.16-.078.04.022.1-.089.04-.044-.18z" fill="#010101" fill-rule="nonzero"/>
			<path fill="#F4EB32" fill-rule="nonzero" d="M8.31 9.393l.017.5h-.5l.016-.5z"/>
			<path d="M8.32 9.88h-.485l-.015-.467.456-.033.044.5zm-.074-.467l-.397.034.015.4.397-.034-.015-.4z" fill="#010101" fill-rule="nonzero"/>
			<path d="M7.267 9.293h.112v.158h.088v-.184h.112v.184h.075v-.184h.113v.394c0 .053-.025.106-.05.106h-.4c-.025 0-.05-.053-.05-.106v-.368z" fill="#F4EB32" fill-rule="nonzero"/>
			<path d="M7.682 9.74h-.378l-.044-.12v-.3l.122-.04.022.16.056-.04-.022-.1.122-.04.022.16.056-.04-.022-.1.122-.04.022.38-.078.12zm-.333-.4l-.078.04.022.26.39.08.021-.08v-.3l-.077.04.022.1-.089.04-.022-.16-.078.04.022.1-.089.04-.044-.2z" fill="#010101" fill-rule="nonzero"/>
			<path fill="#F4EB32" fill-rule="nonzero" d="M7.784 9.393l.016.5h-.5l.016-.5z"/>
			<path d="M7.793 9.88h-.485l-.015-.467.456-.033.044.5zm-.073-.45l-.397.033.014.4.398-.033-.015-.4z" fill="#010101" fill-rule="nonzero"/>
			<path d="M7.46 10.19c.008-.394.246-.49.246-.49s.262.106.254.5l-.5-.01z" fill="#F4EB32" fill-rule="nonzero"/>
			<path d="M7.293 9.704l-.033.49h.207c0-.407.2-.48.2-.48.006 0 .2.094.206.48h.207l-.04-.5-.747.01z" fill="#F4EB32" fill-rule="nonzero"/>
			<path d="M8.093 10.187h-.22c-.02-.366-.206-.443-.206-.443s-.187.058-.187.423l-.22.02.02-.481.76-.02.053.5zm-.446-.471l-.354.01-.02.441.194-.019c-.007-.307.126-.404.18-.432zm.04 0c.046.028.193.134.2.451l.18-.019-.034-.442-.346.01z" fill="#010101" fill-rule="nonzero"/>
			<path d="M7.247 10.02h.84c.02 0 .033.125.033.25s-.013.25-.033.25h-.84c-.02 0-.034-.125-.034-.25s.014-.25.034-.25z" fill="#F4EB32" fill-rule="nonzero"/>
			<path d="M8.087 10.5h-.84c-.027 0-.047-.094-.047-.25 0-.125.02-.25.047-.25h.84c.026 0 .046.094.046.25s-.02.25-.046.25zm-.84-.344v.25h.84c.013 0 .02-.062.02-.125l-.86-.125z" fill="#010101" fill-rule="nonzero"/>
			<path d="M7.553 10.307c0-.391.243-.5.243-.5s.257.109.257.5h-.5z" fill="#F4EB32" fill-rule="nonzero"/>
			<path d="M8.052 10.293h-.497c-.028-.385.207-.5.235-.5.013 0 .262.115.262.486v.014zm-.276-.443s-.194.1-.194.429l.429-.029c-.014-.3-.221-.4-.235-.4z" fill="#010101" fill-rule="nonzero"/>
			<path d="M7.26 9.573h.807c.02 0 .033.1.033.25s-.013.25-.033.25H7.26c-.02 0-.033-.1-.033-.25.006-.15.02-.25.033-.25z" fill="#F4EB32" fill-rule="nonzero"/>
			<path d="M8.073 10.06h-.806c-.027 0-.047-.107-.047-.25 0-.143.02-.25.047-.25h.806c.027 0 .047.107.047.25-.007.143-.027.25-.047.25zm-.813-.393v.25h.807c.013 0 .02-.071.02-.107l-.827-.143z" fill="#010101" fill-rule="nonzero"/>
			<path d="M7.28 9.64h.773c.02 0 .034.1.034.25s-.014.25-.034.25H7.28c-.013 0-.027-.1-.027-.25s.014-.25.027-.25z" fill="#F4EB32" fill-rule="nonzero"/>
			<path d="M8.053 10.127H7.28c-.02 0-.04-.107-.04-.25 0-.143.02-.25.04-.25h.773c.027 0 .04.107.04.25 0 .143-.02.25-.04.25zM7.28 9.77v.25h.773c.007 0 .02-.072.02-.108L7.28 9.77z" fill="#010101" fill-rule="nonzero"/>
			<path d="M7.647 9.449c0-.17.3-.17.3 0v.373h-.3v-.373z" fill="#010101" fill-rule="nonzero"/>
			<path d="M7.913 9.582c0-.196.3-.196.3 0v.353h-.3v-.353zM7.38 9.582c0-.196.3-.196.3 0v.353h-.3v-.353z" fill="#010101" fill-rule="nonzero"/>
			<path d="M11.982 11.547l.072.07-.06.06.06.06.06-.06.085.083-.06.06.06.059.06-.06.084.083-.132.131c-.024.024-.048.012-.072 0l-.278-.273c-.024-.024-.024-.047 0-.071l.12-.142z" fill="#F4EB32" fill-rule="nonzero"/>
			<path d="M12.17 12.033l-.046-.022-.29-.278.011-.077.128-.123.105.067-.059.078.059.022.023-.056.104.078-.058.078.058.022.024-.055.104.077-.162.19zm-.197-.466l-.093.11.29.323.012-.022.128-.122-.081-.045-.024.056-.081-.056.058-.078-.081-.044-.023.055-.082-.055.058-.078-.081-.044z" fill="#010101" fill-rule="nonzero"/>
			<path fill="#F4EB32" fill-rule="nonzero" d="M12.12 11.855l-.3.318-.2-.209.318-.29z"/>
			<path d="M11.814 12.167l-.207-.204.31-.296.19.17-.293.33zm.103-.483l-.284.28.18.16.268-.288-.164-.152z" fill="#010101" fill-rule="nonzero"/>
			<path d="M12.066 11.847l.072.074-.06.063.06.062.06-.062.073.074-.06.063.06.062.06-.062.072.074-.132.137c-.024.025-.048.013-.072 0l-.278-.286c-.024-.025-.024-.05 0-.075l.145-.124z" fill="#F4EB32" fill-rule="nonzero"/>
			<path d="M12.239 12.333l-.047-.022-.279-.273.012-.08.128-.125.105.069-.059.08.059.022.023-.057.104.068-.058.08.058.022.024-.056.104.068-.174.204zm-.198-.466l-.093.114.29.318.013-.022.127-.125-.08-.035-.024.057-.082-.057.059-.08-.07-.045-.023.057-.082-.057.058-.08-.093-.045z" fill="#010101" fill-rule="nonzero"/>
			<path fill="#F4EB32" fill-rule="nonzero" d="M12.307 12.223l-.225.237-.275-.275.237-.225z"/>
			<path d="M12.074 12.453l-.274-.267.226-.233.274.245-.226.255zm-.048-.476l-.19.209.238.21.19-.21-.238-.21z" fill="#010101" fill-rule="nonzero"/>
			<path d="M11.693 11.473l.072.075-.06.062.06.063.06-.063.072.075-.06.062.06.063.06-.063.073.075-.133.137c-.024.025-.048.012-.072 0l-.277-.286c-.024-.013-.024-.05 0-.075l.145-.125z" fill="#F4EB32" fill-rule="nonzero"/>
			<path d="M11.876 11.953l-.049-.022-.28-.267v-.088l.122-.123.11.067-.062.078.061.022.025-.056.11.067-.061.078.06.022.025-.055.11.066-.171.211zm-.207-.455l-.098.122.305.311.012-.022.134-.122-.073-.045-.024.056-.086-.056.061-.078-.073-.044-.024.056-.086-.056.061-.078-.11-.044z" fill="#010101" fill-rule="nonzero"/>
			<path fill="#F4EB32" fill-rule="nonzero" d="M11.933 11.837l-.218.25-.282-.275.244-.225z"/>
			<path d="M11.7 12.08l-.273-.267.226-.233.274.233-.227.267zm-.047-.477l-.19.21.237.209.191-.21-.238-.209z" fill="#010101" fill-rule="nonzero"/>
			<path d="M11.22 12.178c.242-.225.46-.12.469-.12 0 0 .12.241-.113.475l-.356-.355z" fill="#F4EB32" fill-rule="nonzero"/>
			<path d="M11.333 11.793l-.246.2.146.147c.187-.187.354-.073.36-.073 0 0 .1.18-.073.36l.147.146.2-.253-.534-.527z" fill="#F4EB32" fill-rule="nonzero"/>
			<path d="M11.667 12.593l-.154-.153c.16-.187.074-.353.067-.36 0 0-.047-.033-.12-.033a.306.306 0 0 0-.22.1L11.08 12l.247-.22.546.527-.206.286zm-.054-.513c.007.02.02.053.02.093a.336.336 0 0 1-.1.267l.134.12.186-.24-.24-.24zm-.286-.28l-.234.2.147.127c.093-.12.273-.114.333-.087l-.246-.24z" fill="#010101" fill-rule="nonzero"/>
			<path d="M11.08 11.987l.593.593c.014.013.014.033-.006.053-.014.014-.04.02-.054.007l-.593-.593c-.013-.014-.013-.034.007-.054.013-.02.04-.02.053-.006z" fill="#F4EB32" fill-rule="nonzero"/>
			<path d="M11.64 12.66l-.027-.013-.593-.594c-.02-.02-.013-.046.007-.066l.04-.02.626.606c.02.02.014.047-.006.067l-.047.02zm-.607-.627l.607.614.02-.02-.593-.627-.047.047.013-.014z" fill="#010101" fill-rule="nonzero"/>
			<path d="M11.293 12.28c.247-.233.467-.137.48-.137 0 0 .097.234-.137.48l-.343-.342z" fill="#F4EB32" fill-rule="nonzero"/>
			<path d="M11.623 12.6l-.336-.31c.245-.286.465-.167.465-.155.026.024.104.239-.116.454l-.013.012zm.013-.44a.455.455 0 0 0-.31.13l.297.25c.18-.178.116-.345.103-.369 0 0-.039-.012-.09-.012z" fill="#010101" fill-rule="nonzero"/>
			<path d="M11.407 11.68l.573.573a.032.032 0 0 1 0 .047.032.032 0 0 1-.047 0l-.573-.573a.032.032 0 0 1 0-.047.032.032 0 0 1 .047 0z" fill="#F4EB32" fill-rule="nonzero"/>
			<path d="M11.953 12.32l-.033-.013-.573-.574c-.02-.02-.014-.046 0-.066h.066l.574.573c.013.013.013.047 0 .067l-.034.013zm-.553-.633l-.033.033.586.587.014-.02-.567-.6z" fill="#010101" fill-rule="nonzero"/>
			<path d="M11.367 11.74l.546.547c.014.013.007.033-.006.046a.032.032 0 0 1-.047 0l-.547-.546c-.013-.014-.006-.034.007-.047.02-.007.04-.007.047 0z" fill="#F4EB32" fill-rule="nonzero"/>
			<path d="M11.887 12.36l-.027-.013-.547-.547c-.013-.013-.013-.047.007-.06l.06-.007.547.547c.013.013.013.047-.007.06l-.033.02zm-.527-.607l-.033.034.56.566.02-.02-.547-.58zM12.067 11.817c.108-.107.288.036.18.178l-.287.285-.18-.178.287-.285zM12.161 12.094c.13-.135.348.045.174.181l-.26.271-.175-.18.261-.272z" fill="#010101" fill-rule="nonzero"/>
			<path d="M11.788 11.72c.13-.135.348.046.174.182l-.261.27-.174-.18.26-.271z" fill="#010101" fill-rule="nonzero"/>
			<path d="M12.047 9.133h.11v.158h.085v-.184h.11v.184h.085v-.184h.11V9.5c0 .053-.025.106-.05.106h-.402c-.024 0-.048-.053-.048-.106v-.368z" fill="#F4EB32" fill-rule="nonzero"/>
			<path d="M12.462 9.587h-.378l-.044-.12v-.3l.122-.04.022.16.056-.04-.022-.1.122-.04.022.16.056-.04-.022-.1.122-.04.022.38-.078.12zm-.333-.42l-.078.04.022.26.39.08.021-.08v-.3l-.088.04.022.1-.1.04-.022-.16-.09.04.023.1-.089.04-.011-.2z" fill="#010101" fill-rule="nonzero"/>
			<path fill="#F4EB32" fill-rule="nonzero" d="M12.549 9.247l.031.5h-.5l.031-.5z"/>
			<path d="M12.58 9.733h-.5v-.48l.441-.02.059.5zm-.088-.48l-.383.019v.442l.412-.02-.03-.441z" fill="#010101" fill-rule="nonzero"/>
			<path d="M12.313 9.293h.113v.158h.075v-.184h.112v.184h.088v-.184h.112v.394c0 .053-.025.106-.05.106h-.4c-.025 0-.05-.053-.05-.106v-.368z" fill="#F4EB32" fill-rule="nonzero"/>
			<path d="M12.722 9.74h-.378l-.044-.12v-.3l.122-.04.022.16.056-.04-.022-.1.122-.04.022.16.056-.04-.022-.1.122-.04.022.38-.078.12zm-.322-.4l-.078.04.022.26.39.08.022-.08v-.3l-.078.04.022.1-.089.04-.022-.16-.078.04.022.1-.089.04-.044-.2z" fill="#010101" fill-rule="nonzero"/>
			<path fill="#F4EB32" fill-rule="nonzero" d="M12.83 9.393l.017.5h-.5l.016-.5z"/>
			<path d="M12.833 9.88h-.485l-.015-.467.456-.033.044.5zm-.058-.45l-.398.033.015.4.397-.033-.014-.4z" fill="#010101" fill-rule="nonzero"/>
			<path d="M11.787 9.293h.11v.158h.085v-.184h.11v.184h.085v-.184h.11v.394c0 .053-.025.106-.05.106h-.39c-.024 0-.048-.053-.048-.106v-.368h-.012z" fill="#F4EB32" fill-rule="nonzero"/>
			<path d="M12.196 9.74h-.378l-.045-.12v-.3l.123-.04.022.16.055-.04-.022-.1.122-.04.023.16.055-.04-.022-.1.122-.04.022.38-.077.12zm-.323-.4l-.077.04.022.26.378.08.022-.08v-.3l-.078.04.022.1-.089.04-.022-.16-.078.04.023.1-.09.04-.033-.2z" fill="#010101" fill-rule="nonzero"/>
			<path fill="#F4EB32" fill-rule="nonzero" d="M12.32 9.412v.463l-.5.018.017-.5z"/>
			<path d="M11.807 9.88l.014-.467.443-.033.043.467-.5.033zm.428-.45l-.385.033.014.367h.414l-.043-.4z" fill="#010101" fill-rule="nonzero"/>
			<path d="M11.98 10.2c.008-.402.246-.5.246-.5s.262.098.254.5h-.5z" fill="#F4EB32" fill-rule="nonzero"/>
			<path d="M11.813 9.704l-.033.49h.207c0-.407.2-.48.2-.48.006 0 .2.094.206.48h.207l-.04-.5-.747.01z" fill="#F4EB32" fill-rule="nonzero"/>
			<path d="M12.607 10.193h-.22c-.02-.372-.2-.45-.207-.45 0 0-.187.058-.187.43l-.22.02.02-.48.76-.02.054.5zm-.447-.48l-.353.01-.02.45.193-.019c-.007-.314.127-.412.18-.441zm.047 0c.053.03.193.147.193.46l.18-.019-.033-.45-.34.009z" fill="#010101" fill-rule="nonzero"/>
			<path d="M11.767 10.02h.84c.02 0 .033.125.033.25s-.013.25-.033.25h-.84c-.02 0-.034-.125-.034-.25s.014-.25.034-.25z" fill="#F4EB32" fill-rule="nonzero"/>
			<path d="M12.607 10.5h-.84c-.027 0-.047-.094-.047-.25 0-.125.02-.25.047-.25h.84c.026 0 .046.094.046.25s-.02.25-.046.25zm-.84-.344v.25h.84c.013 0 .02-.062.02-.125l-.86-.125z" fill="#010101" fill-rule="nonzero"/>
			<path d="M12.067 10.307c0-.391.243-.5.243-.5s.257.109.257.5h-.5z" fill="#F4EB32" fill-rule="nonzero"/>
			<path d="M12.566 10.3h-.498c-.027-.4.215-.5.215-.5.027 0 .27.114.27.471v.029h.013zm-.27-.457c.014 0-.188.1-.188.428l.417-.028c-.027-.3-.229-.4-.229-.4z" fill="#010101" fill-rule="nonzero"/>
			<path d="M11.78 9.573h.807c.02 0 .033.1.033.25s-.013.25-.033.25h-.807c-.02 0-.033-.1-.033-.25s.02-.25.033-.25z" fill="#F4EB32" fill-rule="nonzero"/>
			<path d="M12.587 10.06h-.807c-.027 0-.047-.107-.047-.25 0-.143.02-.25.047-.25h.807c.026 0 .046.107.046.25 0 .143-.02.25-.046.25zm-.807-.357v.25h.807c.013 0 .02-.072.02-.107l-.827-.143z" fill="#010101" fill-rule="nonzero"/>
			<path d="M11.8 9.64h.773c.014 0 .027.1.027.25s-.013.25-.027.25H11.8c-.013 0-.027-.1-.027-.25-.006-.1.007-.25.027-.25z" fill="#F4EB32" fill-rule="nonzero"/>
			<path d="M12.573 10.133H11.8c-.02 0-.04-.107-.04-.25 0-.143.02-.25.04-.25h.773c.027 0 .04.107.04.25 0 .107-.02.25-.04.25zM11.8 9.74v.25h.773c.007 0 .02-.071.02-.107L11.8 9.74z" fill="#010101" fill-rule="nonzero"/>
			<path d="M12.167 9.44c0-.158.3-.158.3 0v.382h-.3V9.44z" fill="#010101" fill-rule="nonzero"/>
			<path d="M12.427 9.582c0-.196.3-.196.3 0v.353h-.3v-.353zM11.9 9.574c0-.161.3-.202.3 0v.363h-.3v-.363z" fill="#010101" fill-rule="nonzero"/>
			<path d="M7.753 11.901l.071-.072.06.06.06-.06-.06-.06.083-.084.06.06.058-.06-.059-.06.083-.085.13.133c.024.024.012.048 0 .072l-.272.277c-.024.024-.048.024-.071 0l-.143-.12z" fill="#F4EB32" fill-rule="nonzero"/>
			<path d="M7.91 12.04l-.047-.023-.116-.117.07-.104.08.058.024-.058-.058-.023.081-.105.082.058.023-.058-.058-.023.081-.105.175.14-.012.08-.326.28zm-.094-.22l-.046.069.14.116.023-.035.267-.267-.116-.163-.047.081.059.024-.059.081-.081-.058-.047.081.059.024-.059.081-.093-.035z" fill="#010101" fill-rule="nonzero"/>
			<path fill="#F4EB32" fill-rule="nonzero" d="M8.062 11.667l.318.294-.21.206-.29-.322z"/>
			<path d="M8.16 12.16l-.293-.314.172-.186.328.28-.207.22zm-.12-.475l-.147.17.267.263.18-.178-.3-.255z" fill="#010101" fill-rule="nonzero"/>
			<path d="M8.053 11.814l.073-.073.061.06.06-.06-.06-.061.073-.073.06.06.061-.06-.06-.06.085-.074.133.134c.025.024.012.049 0 .073l-.28.28c-.023.011-.048.024-.072 0l-.134-.146z" fill="#F4EB32" fill-rule="nonzero"/>
			<path d="M8.222 11.96l-.05-.023-.125-.117.075-.104.087.058.025-.058-.062-.023.075-.105.087.058.025-.058-.062-.023.087-.105.163.14v.08l-.325.28zm-.1-.21l-.05.07.15.117.025-.035.287-.268-.125-.162-.05.07.063.023-.063.081-.087-.058-.05.07.062.023-.062.081-.1-.011z" fill="#010101" fill-rule="nonzero"/>
			<path fill="#F4EB32" fill-rule="nonzero" d="M8.43 11.587l.237.218-.275.282-.225-.244z"/>
			<path d="M8.38 12.08l-.22-.233.244-.267.256.21-.28.29zm.013-.477l-.21.233.186.174.233-.232-.21-.175z" fill="#010101" fill-rule="nonzero"/>
			<path d="M7.68 12.184l.075-.072.062.06.062-.06-.062-.06.075-.073.062.06.062-.06-.062-.06.075-.072.137.132c.025.024.012.048 0 .072l-.287.278c-.012.024-.05.024-.074 0l-.125-.145z" fill="#F4EB32" fill-rule="nonzero"/>
			<path d="M7.854 12.333l-.05-.023-.137-.116.075-.105.087.058.025-.058-.062-.023.075-.105.087.058.025-.058-.062-.023.075-.105.162.128v.082l-.3.29zm-.1-.209l-.05.07.15.116.025-.035.288-.267-.138-.151-.05.07.063.023-.063.081-.087-.058-.05.07.062.023-.062.081-.088-.023z" fill="#010101" fill-rule="nonzero"/>
			<path fill="#F4EB32" fill-rule="nonzero" d="M8.056 11.96l.237.23-.275.27-.225-.244z"/>
			<path d="M8.013 12.453l-.226-.232.238-.268.262.21-.274.29zm.012-.476l-.215.232.191.175.238-.233-.214-.174z" fill="#010101" fill-rule="nonzero"/>
			<path d="M8.385 12.527c-.226-.242-.12-.46-.12-.468 0 0 .241-.121.475.113l-.355.355z" fill="#F4EB32" fill-rule="nonzero"/>
			<path d="M8 12.32l.2.247.147-.147c-.187-.187-.074-.353-.074-.36 0 0 .18-.1.36.073l.147-.146-.253-.2L8 12.32z" fill="#F4EB32" fill-rule="nonzero"/>
			<path d="M8.2 12.587l-.207-.26.527-.547.267.2-.147.167c-.087-.067-.16-.1-.24-.1a.26.26 0 0 0-.12.026s-.1.16.073.34l-.153.174zm.053-.507l-.24.253.194.22.133-.133a.272.272 0 0 1-.107-.253c0-.04.007-.074.02-.087zm.147-.06a.33.33 0 0 1 .24.107l.127-.147-.247-.18-.24.247a.266.266 0 0 1 .12-.027z" fill="#010101" fill-rule="nonzero"/>
			<path d="M8.193 12.58l.594-.593c.013-.014.033-.014.053.006.013.014.02.04.007.054l-.594.593c-.013.013-.033.013-.046-.007-.027-.02-.027-.04-.014-.053z" fill="#F4EB32" fill-rule="nonzero"/>
			<path d="M8.227 12.653l-.04-.02c-.014-.013-.02-.053-.007-.066l.593-.594c.047-.013.06-.006.067.007.013.013.02.053.007.067l-.62.606zm.58-.666l-.607.6-.007.04.027.013.013-.013.6-.6.007-.04h-.033z" fill="#010101" fill-rule="nonzero"/>
			<path d="M8.487 12.624c-.233-.254-.137-.48-.137-.48s.233-.099.48.141l-.343.339z" fill="#F4EB32" fill-rule="nonzero"/>
			<path d="M8.487 12.613l-.012-.012c-.23-.225-.14-.45-.14-.45.025-.025.241-.113.483.112l-.33.35zm-.127-.45c.013 0-.063.175.127.375l.293-.287c-.216-.15-.407-.088-.42-.088z" fill="#010101" fill-rule="nonzero"/>
			<path d="M7.887 12.247l.573-.574a.032.032 0 0 1 .047 0 .032.032 0 0 1 0 .047l-.574.573a.032.032 0 0 1-.046 0 .032.032 0 0 1 0-.046z" fill="#F4EB32" fill-rule="nonzero"/>
			<path d="M7.913 12.32l-.033-.02v-.06l.573-.573h.067c.02.02.02.046 0 .066l-.607.587zm0-.027v.014l.014-.02.573-.574.007-.04H8.48l-.587.574-.006.04.026.006z" fill="#010101" fill-rule="nonzero"/>
			<path d="M7.947 12.287l.546-.547a.032.032 0 0 1 .047 0 .041.041 0 0 1 .007.047L8 12.333c-.013.014-.033.007-.047-.006-.013-.007-.013-.027-.006-.04z" fill="#F4EB32" fill-rule="nonzero"/>
			<path d="M7.98 12.353l-.033-.013c-.02-.02-.02-.047-.007-.06l.547-.547.066.007c.02.02.02.047.007.067l-.58.546zm0-.02v.014l.013-.014.547-.546.007-.04H8.52l-.56.553-.007.04.027-.007z" fill="#010101" fill-rule="nonzero"/>
			<path d="M8.03 11.987c-.106-.108.036-.288.178-.18l.285.287-.178.18-.285-.287z" fill="#010101" fill-rule="nonzero"/>
			<path d="M8.308 11.909c-.136-.13.045-.348.18-.174l.272.261-.181.174-.271-.261zM7.934 12.282c-.135-.13.045-.348.181-.174l.271.261-.18.174-.272-.26z" fill="#010101" fill-rule="nonzero"/>
		</g>
		<path stroke="#AAA" stroke-width=".5" d="M.25.25h29.5v19.5H.25z"/>
	</g>
</svg>