<?xml version="1.0" encoding="UTF-8"?>
<svg width="30px" height="20px" viewBox="0 0 30 20" version="1.1" xmlns="http://www.w3.org/2000/svg" xmlns:xlink="http://www.w3.org/1999/xlink">
    <!-- Generator: Sketch 52.1 (67048) - http://www.bohemiancoding.com/sketch -->
    <title>Qatar</title>
    <defs>
        <rect id="path-1" x="0" y="0" width="30" height="20"></rect>
    </defs>
    <g id="Qatar" stroke="none" stroke-width="1" fill="none" fill-rule="evenodd">
        <rect fill="#FFFFFF" x="0" y="0" width="30" height="20"></rect>
        <g>
            <g id="if_207_Ensign_Flag_Nation_qatar_2634395">
                <mask id="mask-2" fill="white">
                    <use xlink:href="#path-1"></use>
                </mask>
                <g id="Mask"></g>
                <g mask="url(#mask-2)" fill-rule="nonzero" id="Shape">
                    <g transform="translate(-2.000000, 0.000000)">
                        <polygon fill="#691941" points="10.18 0.0466666667 13.8066667 1.15333333 10.18 2.25333333 13.8066667 3.36 10.18 4.46666667 13.8066667 5.57333333 10.18 6.68 13.8066667 7.78666667 10.18 8.89333333 13.8066667 10 10.18 11.1066667 13.8066667 12.2133333 10.18 13.32 13.8066667 14.4266667 10.18 15.5333333 13.8066667 16.64 10.18 17.7466667 13.8066667 18.8533333 10.18 19.96 34.1333333 19.96 34.1333333 0.0466666667"></polygon>
                        <polygon fill="#FFFFFF" points="0 0.0466666667 0 19.96 10.18 19.96 13.8066667 18.8533333 10.18 17.7466667 13.8066667 16.64 10.18 15.5333333 13.8066667 14.4266667 10.18 13.32 13.8066667 12.2133333 10.18 11.1066667 13.8066667 10 10.18 8.89333333 13.8066667 7.78666667 10.18 6.68 13.8066667 5.57333333 10.18 4.46666667 13.8066667 3.36 10.18 2.25333333 13.8066667 1.15333333 10.18 0.0466666667"></polygon>
                    </g>
                </g>
            </g>
            <rect id="Rectangle-2-Copy-12" stroke="#AAAAAA" stroke-width="0.5" x="0.25" y="0.25" width="29.5" height="19.5"></rect>
        </g>
    </g>
</svg>