<svg width="30" height="20" xmlns="http://www.w3.org/2000/svg" xmlns:xlink="http://www.w3.org/1999/xlink">
	<defs>
		<path id="a" d="M0 0h30v20H0z"/>
	</defs>
	<g fill="none" fill-rule="evenodd">
		<path fill="#FFF" d="M0 0h30v20H0z"/>
		<mask id="b" fill="#fff">
			<use xlink:href="#a"/>
		</mask>
		<g mask="url(#b)" fill-rule="nonzero">
			<path fill="#691941" d="M8.18.047l3.627 1.106-3.627 1.1 3.627 1.107L8.18 4.467l3.627 1.106L8.18 6.68l3.627 1.107L8.18 8.893 11.807 10 8.18 11.107l3.627 1.106L8.18 13.32l3.627 1.107-3.627 1.106 3.627 1.107-3.627 1.107 3.627 1.106L8.18 19.96h23.953V.047z"/>
			<path fill="#FFF" d="M-2 .047V19.96H8.18l3.627-1.107-3.627-1.106 3.627-1.107-3.627-1.107 3.627-1.106L8.18 13.32l3.627-1.107-3.627-1.106L11.807 10 8.18 8.893l3.627-1.106L8.18 6.68l3.627-1.107L8.18 4.467l3.627-1.107L8.18 2.253l3.627-1.1L8.18.047z"/>
		</g>
		<path stroke="#AAA" stroke-width=".5" d="M.25.25h29.5v19.5H.25z"/>
	</g>
</svg>