<svg width="30" height="20" xmlns="http://www.w3.org/2000/svg">
	<g fill="none" fill-rule="evenodd">
		<path fill="#FFF" d="M0 0h30v20H0z"/>
		<path fill="#006C35" fill-rule="nonzero" d="M0 0h30v20H0z"/>
		<path d="M12.81 4.615c-.015 0-.038.009-.07.028-.074.048-.22.198-.224.37-.005.097-.023.097.041.159.047.066.093.06.187.011a.196.196 0 0 0 .09-.13c.023-.11-.117.052-.135-.07-.031-.115.058-.162.143-.272.002-.052.003-.095-.031-.096zm1.37.008c-.027.003-.06.037-.104.116-.032.084-.17.21-.07.471.081.166.115.435.078.734-.057.085-.07.114-.143.2-.104.11-.217.082-.303.04-.08-.053-.144-.08-.18-.251.006-.272.022-.716-.028-.81-.074-.147-.197-.094-.249-.05-.25.226-.375.609-.45.913-.07.222-.144.158-.196.068-.127-.117-.136-1.034-.29-.883-.244.691.142 1.449.409 1.375.193.08.315-.283.394-.68.054-.111.095-.124.123-.067-.007.528.038.645.176.806.306.233.56.03.58.01l.238-.236c.053-.055.124-.058.199-.01.073.066.063.178.22.257.13.052.411.012.476-.1.088-.148.11-.199.15-.255.062-.082.17-.046.17-.02-.01.046-.073.091-.03.174.074.055.09.02.135.007.155-.073.272-.406.272-.406.007-.124-.065-.115-.11-.09-.06.037-.064.049-.123.085-.076.011-.224.06-.297-.05-.074-.135-.074-.322-.131-.457 0-.01-.1-.213-.008-.226.046.009.146.034.162-.048.049-.08-.105-.308-.21-.423-.09-.098-.216-.11-.337-.01-.085.078-.073.164-.09.246a.38.38 0 0 0 .08.335c.085.165.239.377.188.676 0 0-.09.143-.247.124-.066-.014-.173-.042-.23-.457-.043-.314.01-.755-.124-.96-.03-.078-.057-.154-.1-.148zm-.434.033c-.04.004-.086.05-.123.141-.032.07-.07.43-.064.43-.025.108.114.154.177.015.095-.253.095-.36.102-.468-.015-.082-.051-.121-.092-.118zm1.6.029c-.043.003-.076.028-.088.089a.93.93 0 0 0 .016.342c.019.08.137.214.194.291.278.368.544.737.801 1.12.04.283.07.56.09.837.041.606.054 1.361.016 2 .115.004.3-.184.364-.46.042-.38-.015-1.156-.019-1.381a12.552 12.552 0 0 0-.015-.321c.3.483.59.995.875 1.557.104-.05.081-.627.02-.708-.228-.485-.543-.964-.644-1.148a8.81 8.81 0 0 0-.306-.466 6.966 6.966 0 0 0-.075-.642c-.048-.323.134.037.109-.151-.06-.322-.24-.541-.452-.837-.069-.096-.067-.115-.173.024a.609.609 0 0 0-.044.37 1.968 1.968 0 0 0-.112-.146c-.184-.156-.195-.164-.348-.291-.048-.034-.14-.086-.21-.08zm4.74.048c-.02-.003-.043.007-.068.043a.28.28 0 0 0-.098.214c.012.17.042.344.054.514l.013.068a.666.666 0 0 0-.044-.05c-.336-.349.154-.058-.064-.327-.185-.2-.239-.264-.397-.384-.08-.05-.127-.147-.153.017a3.2 3.2 0 0 0-.011.434c-.001.068.07.195.131.27.224.272.453.561.683.863.049.615.062 1.18.11 1.796-.006.264-.088.614-.166.647 0 0-.12.067-.199-.008-.057-.022-.288-.38-.288-.38-.119-.107-.197-.076-.282 0-.232.221-.336.635-.494.92-.04.065-.155.119-.283-.004-.323-.436-.134-1.057-.174-.897-.288.32-.16.85-.095.965.094.188.171.308.356.4.168.123.3.046.372-.04.169-.173.171-.616.25-.703.056-.161.196-.134.264-.062a.646.646 0 0 0 .241.206c.158.137.347.162.533.037.127-.07.21-.162.283-.342.08-.211.04-1.315.023-1.929.12.166.237.336.354.507.051.54.075 1.07.058 1.579-.012.101.358-.302.355-.493-.002-.168 0-.319 0-.46.18.283.353.57.517.861.102-.053.067-.622.003-.7a13.4 13.4 0 0 0-.563-.83 15.5 15.5 0 0 0-.1-.764c-.033-.17-.065-.424-.114-.625-.014-.078-.054-.329-.042-.353.02-.056.096.002.133-.063.056-.06-.193-.698-.32-.88-.045-.082-.128-.053-.23.08-.094.087-.06.286-.023.475.093.483.177.975.243 1.465a55.07 55.07 0 0 0-.42-.607l-.018-.095c0-.01-.02-.395-.038-.488-.003-.037-.012-.048.028-.043.042.035.048.037.074.048.043.008.08-.063.054-.128l-.394-.72c-.016-.015-.034-.03-.054-.034zm-12.234.012c-.073-.002-.153.043-.122.13-.018.046.143.206.171.293.025.062-.025.263.028.281.048.021.115-.138.14-.286.014-.08.004-.357-.187-.414a.158.158 0 0 0-.03-.004zm13.936.002c-.016.002-.036.028-.067.093-.075.12-.1.336-.07.527.179 1.198.312 2.357.34 3.42-.016.1-.02.154-.068.28-.106.135-.223.303-.333.383-.11.081-.344.159-.42.219-.243.138-.245.298-.048.303.338-.039.738-.066 1.014-.477.074-.115.16-.427.165-.618.025-1.12-.015-2.216-.185-3.026-.01-.079-.046-.26-.033-.284.022-.055.133.006.172-.058.058-.058-.286-.493-.406-.679-.024-.047-.04-.085-.06-.083zm-3.547.019c-.014.002-.035.023-.073.073-.095.305-.128.554-.092.743.243 1.251.492 2.39.452 3.58.115.002.248-.259.305-.517.031-.356-.02-.572-.03-.78-.01-.21-.24-1.905-.286-2.063-.056-.3.224-.04.193-.213-.097-.22-.338-.539-.414-.73-.029-.05-.032-.097-.055-.093zm-8.639.023c-.03.005-.058.03-.069.07-.006.026.012.07-.012.083-.014.013-.067.004-.064-.069 0-.023-.018-.047-.028-.062-.01-.006-.017-.008-.036-.008-.023 0-.023.007-.036.026-.005.02-.012.038-.012.06-.003.026-.014.035-.033.039-.022 0-.016.002-.034-.009-.01-.011-.023-.015-.023-.034a.201.201 0 0 0-.01-.065c-.01-.012-.024-.018-.041-.022-.09 0-.097.102-.092.141-.006.007-.01.189.113.24.166.077.475.044.462-.219 0-.023-.005-.101-.007-.123-.017-.038-.048-.053-.078-.048zm2.217.003a.373.373 0 0 0-.15.04c-.11.104-.136.27-.05.374.085.039.168.122.112.168-.237.25-.855.669-.886.745l-.001.002v.004l.001.003h.003v.002h.002l.001.001c.032.021.418.02.461.002l.001-.002h.002c.133-.05.763-.76.763-.76-.033-.028-.063-.049-.095-.076-.035-.03-.032-.06 0-.09.156-.09.106-.287.025-.376a.411.411 0 0 0-.189-.037zm5.795.002c-.016.002-.037.027-.068.092-.074.12-.125.33-.119.527.162 1.103.211 2.068.317 3.171.008.107-.008.262-.08.324-.265.274-.648.611-1.065.767-.045.05.111.262.313.261.339-.038.636-.226.912-.72.074-.115.203-.361.207-.553.026-1.12-.057-1.99-.227-2.8a.456.456 0 0 1 .01-.196c.022-.026.096 0 .135-.064.058-.058-.154-.541-.274-.727-.025-.047-.04-.084-.06-.082zm-8.977.034c-.047.005-.09.043-.112.093-.008.177-.009.354.011.517.082.286.108.537.147.83.011.392-.23.17-.218-.025.055-.252.04-.65-.009-.75-.039-.102-.084-.127-.18-.11-.075-.005-.27.205-.325.553 0 0-.045.178-.065.337-.027.18-.147.306-.23-.025-.073-.24-.118-.834-.24-.695-.034.463-.075 1.278.323 1.362.483.046.216-.805.39-.96.034-.076.095-.077.1.02v.722c-.005.235.152.305.274.353.126-.01.21-.006.26.115l.06 1.25s.292.084.306-.702c.014-.461-.093-.848-.03-.938.002-.088.117-.093.196-.05.126.088.182.196.378.153.298-.081.477-.224.482-.45-.018-.215-.043-.43-.137-.645.013-.039-.057-.14-.044-.18.053.083.134.077.153 0-.05-.164-.13-.323-.257-.391-.106-.092-.26-.072-.317.119-.026.22.081.482.244.695a.674.674 0 0 1 .061.347c-.086.049-.172.029-.244-.047 0 0-.238-.175-.238-.214.063-.398.014-.444-.021-.554-.024-.153-.098-.201-.157-.305-.06-.062-.14-.062-.178 0-.105.18-.056.565.02.737.055.16.139.258.099.258-.033.09-.1.069-.15-.035-.07-.214-.083-.532-.083-.676-.021-.179-.045-.56-.164-.656-.031-.043-.069-.057-.105-.053zm1.693.002c-.024.003-.05.017-.081.024-.103.032-.199.12-.168.29.12.727.2 1.282.32 2.009.02.085-.053.197-.146.186-.158-.106-.198-.32-.468-.311-.196.002-.42.212-.447.415-.033.16-.044.335 0 .476.137.163.302.146.447.109.119-.048.216-.164.258-.136h.002c.026.046-.003.424-.56.716-.343.152-.616.188-.762-.088-.091-.173.006-.83-.217-.678-.662 1.684 1.55 1.92 1.797.07.016-.053.065-.105.1-.092.015.006.028.026.033.064-.051 1.675-1.711 1.79-1.993 1.263-.07-.124-.091-.4-.098-.566-.013-.1-.038-.158-.068-.181-.067-.05-.158.08-.177.306-.028.182-.02.232-.02.406.088 1.323 2.225.755 2.572-.338.172-.565-.003-.991.054-1.044h.003l.002-.002.003-.001a.036.036 0 0 1 .007-.001c.212.225.51.028.575-.05.028-.04.098-.064.147-.014.166.118.456.062.516-.145.035-.202.065-.41.072-.627-.108.033-.195.058-.23.094a.06.06 0 0 0-.016.03l-.028.18a.044.044 0 0 1-.005.013.058.058 0 0 1-.02.02c-.038.02-.105.008-.108-.047-.051-.23-.262-.26-.39.097-.087.069-.244.082-.26-.021.02-.24-.077-.272-.273-.159l-.188-1.4c.081-.003.156.056.23-.036-.08-.248-.25-.752-.347-.8h-.002a.127.127 0 0 0-.02-.02l-.007-.003a.07.07 0 0 0-.039-.008zm6.602.004c-.084-.002-.178.05-.141.155-.022.057.181.25.214.357.06.163-.045.318.016.34.057.026.135-.168.165-.346.034-.145-.07-.441-.218-.502a.178.178 0 0 0-.036-.004zm-5.143.178c.039-.003.085.032.108.081.024.053.012.103-.028.113-.04.01-.09-.026-.115-.078-.024-.053-.012-.105.028-.114a.055.055 0 0 1 .007-.002zm9.541.245c-.077-.003-.161.055-.128.168-.02.062.165.272.195.387.026.082-.041.345.015.37.051.026.123-.183.15-.376.015-.106-.064-.478-.2-.544a.143.143 0 0 0-.032-.005zm-5.275.129c.007.03.014.062.019.094.016.068.03.137.044.204a3.112 3.112 0 0 0-.133-.173c-.138-.162.003-.107.07-.125zm1.215.59c-.03.005-.058.03-.069.07-.006.026.013.069-.011.082-.014.014-.068.006-.065-.067 0-.023-.018-.049-.028-.063-.01-.007-.018-.009-.036-.009-.023.001-.023.007-.036.026-.005.02-.012.039-.012.06-.003.027-.012.035-.032.04-.021 0-.017.002-.035-.01-.01-.01-.022-.015-.022-.034a.201.201 0 0 0-.012-.065c-.009-.011-.023-.016-.04-.02-.09 0-.095.1-.09.14-.007.007-.012.19.112.24.165.078.476.044.463-.22 0-.023-.007-.1-.009-.122-.017-.039-.048-.054-.078-.049zm-5.548.054a.135.135 0 0 0-.078.024c-.146.078-.203.31-.112.444.085.12.22.076.237.076.143.018.229-.265.229-.265s.004-.08-.166.07c-.072.014-.081-.012-.1-.052a.348.348 0 0 1 .023-.221c.016-.045 0-.073-.033-.076zm7.843.036c-.08-.004-.167.048-.19.157.001.065.03.1.025.159-.009.033-.044.056-.127.016.013-.012-.054-.105-.054-.105-.065-.04-.152.002-.209.038a.31.31 0 0 0-.018.25c.093.17.413.46.566.463.003-.154.018-.358.026-.485.004-.048.015-.1.062-.113.046-.012.127.047.128-.003-.009-.098-.029-.242-.084-.31a.158.158 0 0 0-.125-.067zm-6.492.534c-.003 0-.005.003-.007.004a.074.074 0 0 0-.003.002c-.017.012-.036.04-.078.07-.072.08-.085.137-.08.298.003.018.136.38.248.636.076.266.145.57.094.857-.177.38-.533.72-.876.904-.175.056-.326.037-.367 0l-.001-.002a.223.223 0 0 1-.097-.206v-.001l.002-.001c.29-.2.62-.36.88-.899.076-.205.1-.329.023-.647a.612.612 0 0 0-.148-.3l.002-.001c.049-.023.177.07.197.011a.939.939 0 0 0-.253-.46c-.103-.092-.215-.103-.31-.018-.106.058-.129.268-.078.452.057.139.211.163.32.441v.002c.003.017.038.208-.017.285-.045.137-.62.585-.66.612l-.004.002-.001.002h-.002v.002h-.002-.001l-.002-.001v-.001-.003c-.003-.011 0-.04 0-.085-.005-.084.03-.274.028-.306v-.002h-.001v-.002h-.002c-.19.121-.252.492-.287.602-.481.328-1.027.572-1.342.905-.164.253 1.129-.29 1.28-.356l.003.004c.029.031.031.14.117.237.134.18.42.29.698.222.466-.167.734-.48 1.008-.828.039-.057.1-.1.157-.057.188.415.73.71 1.43.74.162-.194.084-.29.018-.33-.02-.013-.348-.14-.399-.265-.032-.117.046-.221.202-.3.45-.053.892-.112 1.32-.248.004-.142.089-.354.145-.446.04-.064.065-.07.075-.08l.002-.002.001-.001v-.003a.04.04 0 0 0-.001-.012l-.073-.042-1.435-.007a.154.154 0 0 1-.039-.02l-.002-.002-.001-.001-.002-.001V7.95l-.002-.001v-.001l-.001-.002v-.002-.001-.002-.002-.001-.001-.002l.002-.002a.108.108 0 0 1 .045-.026c.343-.046.952-.145.992-.723-.006-.3-.13-.498-.505-.553-.275.021-.47.284-.439.573-.013.078.027.23-.054.248-.527.047-1.103.374-1.122.607h-.002v.001l-.003.002h-.003-.007a.034.034 0 0 0-.004 0h-.005c-.034-.01-.079-.066-.072-.144a2.767 2.767 0 0 0-.361-1.212c-.075-.074-.107-.103-.128-.107h-.003-.006-.001zm1.373.213c-.03.005-.059.03-.07.07-.006.026.014.07-.01.083-.014.014-.068.006-.066-.067 0-.023-.017-.049-.027-.063-.01-.007-.017-.01-.035-.01-.023.002-.024.008-.037.027-.005.02-.012.039-.012.06-.003.027-.012.035-.032.04-.021 0-.016.001-.034-.01-.01-.01-.024-.015-.024-.034a.203.203 0 0 0-.01-.065c-.009-.012-.024-.017-.041-.02-.09 0-.096.1-.09.14-.007.007-.012.19.111.24.166.078.56.032.464-.22 0-.023-.007-.101-.01-.122-.016-.04-.047-.054-.077-.049zm5.543.225h-.014s-.766.539-.785.557c-.076.067-.038.301 0 .274.055.021.826-.495.811-.555.034.002.05-.265-.012-.276zm-4.82.08a.198.198 0 0 1 .112.03c.057.032.093.081.088.117v.004l-.002.003-.002.004v.002l-.002.003a.05.05 0 0 1-.008.009c-.027.025-.09.021-.15-.013-.057-.032-.092-.082-.088-.118l.001-.003.005-.013.003-.005a.057.057 0 0 1 .007-.007.072.072 0 0 1 .036-.014zm-6.705.136c-.396.007-.977.513-.993.794.419-.198.83-.39 1.256-.595-.069-.101-.005-.192-.263-.2zm1.286.176c.039 0 .08.02.101.073.02.05.001.1-.022.126v.001l-.001.003c-.017.021-.075.012-.117.012-.05-.002-.075-.01-.106-.05-.014-.045.03-.09.05-.123V7.47a.065.065 0 0 1 .01-.01.132.132 0 0 1 .085-.031zm10.09.156c-.071.008-.138.074-.107.18-.02.061.096.277.125.392.027.082-.034.313.022.337.051.027.187-.137.182-.343.015-.106-.038-.496-.173-.563a.129.129 0 0 0-.05-.003zm-8.57.381c-.062.005-.118.037-.093.124-.003.063.177.14.187.285.026.06-.038.253.016.27.049.02.117-.132.143-.275.014-.078-.062-.35-.191-.399a.224.224 0 0 0-.062-.005zm2.565.346h.016c.16.043.396.047.6.068.167.01.25.14.093.194-.154.052-.301.092-.302.312.02.109.016.166-.001.192a.063.063 0 0 1-.005.006l-.002.001v.002h-.002l-.001.002-.003.001a.044.044 0 0 1-.007.004l-.008.001c-.037.006-.09-.029-.13-.05-.094-.066-.36-.23-.398-.58-.006-.078.054-.146.15-.153zm-6.264.269c-.01 0-.03.03-.057.063-.236.371-.257.926-.127 1.09.07.079.184.113.268.089.148-.064.213-.36.178-.469-.05-.076-.089-.088-.138-.023-.104.209-.148.066-.157-.05a2.652 2.652 0 0 1 .03-.588c.013-.083.013-.112.003-.112zm8.04.487a.11.11 0 0 0-.055.012 1 1 0 0 0-.222.187c-.032.024-.029.045-.019.088.026.057.07.04.12.012.068-.009.1.035.095.114-.031.1.014.136.014.143 0 .006.064.06.14.017.16-.06.26-.12.485-.167.059-.001.055-.157-.038-.163-.121.006-.233.013-.355.107-.075.017-.088-.028-.104-.068-.02-.1.043-.17.03-.246.003.004-.038-.033-.09-.036zm5.15.19c-.03.001-.062.005-.108.009-.049.01-.066.031-.075.09.004.09.059.085.116.12.032.042.054.079-.003.147-.054.048-.092.075-.146.124-.025.042-.04.108.037.129.143.04.474-.173.474-.178.054-.04.036-.115.032-.115-.032-.035-.102-.014-.15-.02-.022 0-.096-.01-.061-.075.03-.04.04-.065.06-.114.022-.049.003-.082-.078-.108a.452.452 0 0 0-.099-.009zm-2.152 4.3h-.001c-.238.06-.23.305-.078.412-2.514 0-6.373-.042-7.2-.042-.464 0-1.929-.055-1.957-.055.314.454.77.546 1.365.556 1.117 0 6.292-.014 7.764-.014-.104.183.01.479.092.533a.057.057 0 0 0 .016.007h.004c.098.023.14-.047.173-.098.159.014 1.049.027 1.13 0l.002-.002c.055.08.11.156.214.142.184-.038.328-.058.333-.426 0 0-.019-.627-.436-.587-.098.014-.375.042-.375.042-.32-.038-.555-.042-.915-.055.033-.041.092-.21.02-.271-.019-.016-.047-.024-.086-.021h-.003l-.002-.001-.003-.002a.038.038 0 0 1-.007-.006l-.002-.002c-.018-.027-.028-.09-.04-.107l-.002-.001v-.001a.02.02 0 0 0-.003-.002h-.002zm.171.895h.001c.367.018.712.004 1.079.021.058.05.029.161-.01.181a.042.042 0 0 1-.005.003h-.01l-.308-.009c0-.006 0-.012-.003-.017-.028-.083-.233-.077-.28-.013a.1.1 0 0 0-.003.004l-.003.005a.07.07 0 0 0-.002.006l-.002.009v.01c-.162.019-.307-.005-.468-.011-.047-.058-.042-.163.014-.189z" fill="#FFF"/>
		<path stroke="#AAA" stroke-width=".5" d="M.25.25h29.5v19.5H.25z"/>
	</g>
</svg>