<?xml version="1.0" encoding="UTF-8"?>
<svg width="30px" height="20px" viewBox="0 0 30 20" version="1.1" xmlns="http://www.w3.org/2000/svg" xmlns:xlink="http://www.w3.org/1999/xlink">
    <!-- Generator: Sketch 52.1 (67048) - http://www.bohemiancoding.com/sketch -->
    <title>Saudi Arabia</title>
    <g id="Saudi-Arabia" stroke="none" stroke-width="1" fill="none" fill-rule="evenodd">
        <rect fill="#FFFFFF" x="0" y="0" width="30" height="20"></rect>
        <g id="Saudi_Arabia">
            <g id="Flag_of_Saudi_Arabia">
                <polygon id="Rectangle-path" fill="#006C35" fill-rule="nonzero" points="0 0 30 0 30 20 0 20"></polygon>
                <path d="M12.8107961,4.61540185 C12.7952171,4.61494575 12.77191,4.62353031 12.7392403,4.64266858 C12.6657885,4.69127673 12.5202346,4.84099585 12.5157794,5.01325018 C12.5113255,5.11043078 12.4927452,5.11005004 12.5572055,5.17189296 C12.6037698,5.23817392 12.6502778,5.23165767 12.7442579,5.18304753 C12.798234,5.14379178 12.8164644,5.11874962 12.8346466,5.05291286 C12.8570381,4.94250145 12.7169605,5.10515393 12.6990636,4.98226923 C12.667763,4.86818127 12.7571855,4.82125474 12.842179,4.71083936 C12.8441274,4.65884023 12.8450674,4.61640725 12.810794,4.6154078 L12.8107961,4.61540185 Z M14.1791604,4.62283823 C14.1529095,4.62632837 14.1207974,4.65953032 14.0762177,4.73934152 C14.0442699,4.8229304 13.9064677,4.94943216 14.0059154,5.21031228 C14.0872612,5.37572911 14.1206769,5.64455723 14.0837501,5.94403514 C14.0273877,6.02914303 14.0145325,6.05847212 13.9406347,6.14357604 C13.8368162,6.25378914 13.7243727,6.22561022 13.6380856,6.18447414 C13.5574669,6.13082909 13.4941145,6.10329267 13.4573082,5.93287463 C13.4639492,5.66124249 13.4799801,5.21664213 13.4296895,5.12228933 C13.3555507,4.97617933 13.2333532,5.02857904 13.1811206,5.07271346 C12.9301533,5.29925536 12.8061923,5.68178276 12.7304224,5.98613894 C12.6608191,6.20796121 12.5866522,6.14381003 12.5345803,6.05430774 C12.4078031,5.93701917 12.3988968,5.01983782 12.2458386,5.17062779 C12.0007004,5.86231032 12.3865155,6.6200279 12.6538331,6.54637799 C12.8466944,6.62520759 12.9690687,6.26278419 13.0480282,5.8659591 C13.1020445,5.7545879 13.143322,5.74178543 13.1710573,5.79903168 C13.1639302,6.32675689 13.2093845,6.44446983 13.3468131,6.60461972 C13.6533754,6.8381181 13.9069418,6.63420263 13.9268273,6.6145349 C13.9467092,6.59490682 14.165353,6.37904952 14.165353,6.37904952 C14.2184775,6.32388149 14.2886753,6.32052619 14.363706,6.36913434 C14.4366316,6.43457449 14.4272673,6.54729812 14.5834028,6.62569145 C14.7147998,6.67757954 14.9953743,6.63831109 15.0604542,6.52653971 C15.1480388,6.37835149 15.1692742,6.32743112 15.2098486,6.27122398 C15.2723655,6.18907479 15.3793295,6.22544761 15.3793295,6.25139364 C15.3693682,6.29720571 15.3065204,6.34239907 15.3491999,6.42490918 C15.4235436,6.47995426 15.4408098,6.44457811 15.4847829,6.43234556 C15.6403118,6.35894948 15.7572024,6.02582343 15.7572024,6.02582343 C15.7640856,5.90157837 15.6924841,5.91100175 15.6467273,5.93658687 C15.5870427,5.97260473 15.5833829,5.984846 15.5236983,6.02086584 C15.4476553,6.03201922 15.3003498,6.08154274 15.2274242,5.97005256 C15.15296,5.83601527 15.1525382,5.64914994 15.0956094,5.51395456 C15.0956094,5.50412069 14.9961216,5.3013772 15.088077,5.28838436 C15.1344805,5.29689911 15.2342737,5.32235731 15.2500214,5.2400459 C15.2986947,5.15981628 15.1450018,4.93221942 15.0403678,4.81742153 C14.9495453,4.71900352 14.824142,4.70700616 14.7026676,4.80750636 C14.6175938,4.88477729 14.6302161,4.971075 14.6135323,5.05290691 C14.5918692,5.14689086 14.5960098,5.26329897 14.6926244,5.38754403 C14.7775336,5.55284188 14.9317929,5.76491951 14.8809342,6.06423481 C14.8809342,6.06423481 14.7912968,6.20668413 14.6336227,6.18817449 C14.5679041,6.17402315 14.4608156,6.14594378 14.4038828,5.73084701 C14.3608015,5.41663912 14.414678,4.97642126 14.2795963,4.77030463 C14.2491008,4.69252604 14.2229166,4.61700017 14.1791644,4.62281443 L14.1791604,4.62283823 Z M13.7460981,4.65615321 C13.7052384,4.65967508 13.6599758,4.70666111 13.6230691,4.79744444 C13.5914045,4.86648181 13.5527266,5.22752502 13.5590417,5.22752502 C13.5337747,5.33497774 13.6727628,5.38051219 13.7360509,5.24239778 C13.8309229,4.989192 13.8313809,4.88131888 13.8377362,4.77392565 C13.8229566,4.69211753 13.7869538,4.65265911 13.7460941,4.65618098 L13.7460981,4.65615321 Z M15.3454558,4.68465934 C15.3034873,4.68841521 15.2700596,4.71267367 15.2575779,4.7738959 C15.2408544,4.91784836 15.2494007,4.99612271 15.2738981,5.1159694 C15.2926865,5.19588174 15.4105015,5.32967709 15.4684869,5.40722962 C15.7455182,5.77486047 16.0120644,6.14424432 16.2694512,6.52641478 C16.3099132,6.81018705 16.3395607,7.08777226 16.3585865,7.36424697 C16.4002939,7.97042104 16.4129684,8.72500543 16.3749067,9.36338398 C16.4899454,9.36786167 16.674266,9.17999689 16.7389723,8.90482702 C16.7810412,8.52417953 16.7239883,7.74752793 16.7201413,7.52288975 C16.7174297,7.42963159 16.7116151,7.31835955 16.7050765,7.20188401 C17.004472,7.68491162 17.2949331,8.19665358 17.5800793,8.75856631 C17.6840223,8.70979555 17.6609832,8.13200664 17.6001657,8.05086086 C17.3719563,7.56592954 17.0566685,7.08726461 16.9561562,6.90315966 C16.9198758,6.83667643 16.7962968,6.65112784 16.649839,6.43714649 C16.6228742,6.13181862 16.593573,5.87321106 16.5745151,5.79511915 C16.5274246,5.47235644 16.7088809,5.83151775 16.6837368,5.64391275 C16.6248596,5.32159028 16.4446567,5.10254426 16.2317933,4.80731004 C16.1631581,4.71128753 16.164516,4.69170308 16.0585483,4.83085858 C15.9952119,4.97271695 15.9960676,5.09073925 16.0146073,5.20144018 C15.9867351,5.1614503 15.9522833,5.11403198 15.9028789,5.05519137 C15.7190483,4.89948744 15.7077076,4.89097626 15.5551355,4.76393115 C15.5070246,4.7302267 15.4154307,4.67834734 15.3454819,4.68460976 L15.3454558,4.68465934 Z M20.0858407,4.73299779 C20.0654025,4.72986063 20.0431331,4.73977938 20.0180492,4.77637866 C19.9701071,4.81787168 19.9185493,4.89301284 19.9201281,4.9895549 C19.9317891,5.15965169 19.9624501,5.33380974 19.9741123,5.50391446 C19.9782216,5.52667653 19.9825566,5.54931802 19.9866663,5.57208326 C19.9681543,5.54876158 19.9519916,5.53056248 19.9427253,5.52126998 C19.6068891,5.17296182 20.0970289,5.46434498 19.878698,5.19530666 C19.694056,4.99515102 19.6400316,4.93145991 19.481992,4.81109367 C19.4027473,4.76052628 19.3548694,4.6639049 19.3288334,4.82844522 C19.318468,4.97299656 19.3076953,5.14038849 19.3175348,5.26225391 C19.3169684,5.32997058 19.3880059,5.45744799 19.4493497,5.5324424 C19.6733851,5.80418558 19.9022171,6.09332395 20.1322865,6.39506252 C20.1807027,7.01043787 20.1936142,7.57453194 20.2427615,8.19093847 C20.2357976,8.45457501 20.1536584,8.80472739 20.0757955,8.83788373 C20.0757955,8.83788373 19.9568882,8.90532278 19.8774426,8.83044735 C19.8196621,8.80754132 19.5887009,8.44995057 19.5887009,8.44995057 C19.4704645,8.34293809 19.3916335,8.37351648 19.3074916,8.44995057 C19.0754739,8.67113431 18.9705386,9.0854339 18.8128847,9.37083226 C18.7722299,9.43451147 18.6577255,9.48871971 18.530422,9.36587467 C18.2070956,8.92976567 18.3961687,8.30899646 18.3559196,8.46855144 C18.0679412,8.78895433 18.1954777,9.31986827 18.2605093,9.43405141 C18.3554616,9.62157511 18.43228,9.741632 18.6170425,9.83438647 C18.7853262,9.95667229 18.9163617,9.88035321 18.9886405,9.79472577 C19.1579767,9.62147199 19.1602344,9.17839857 19.2397202,9.09074843 C19.295476,8.92972601 19.4352089,8.95742107 19.5033539,9.02877859 C19.5693979,9.12252061 19.6473732,9.18351083 19.7443904,9.23451845 C19.9023457,9.37207364 20.0908643,9.39706384 20.2766794,9.27170035 C20.4036615,9.20138194 20.4860558,9.10999577 20.5603995,8.92962685 C20.6401665,8.71900477 20.6007249,7.61519209 20.5829967,7.00112554 C20.7022937,7.1670302 20.82004,7.33652811 20.937019,7.50802889 C20.9883679,8.0470574 21.0116681,8.57791581 20.9947674,9.08700049 C20.9826597,9.18821856 21.352554,8.78480186 21.3500472,8.59370076 C21.34838,8.42649921 21.3503686,8.27496362 21.3500472,8.13387466 C21.5294587,8.41667922 21.7031255,8.70419546 21.8672714,8.99526531 C21.9689888,8.94205652 21.9341229,8.37346492 21.8697822,8.29501607 C21.6979191,8.0103078 21.4778287,7.70264392 21.3073636,7.46460043 C21.2736732,7.16417463 21.2278015,6.80972302 21.2069317,6.70113204 C21.1744159,6.53179674 21.1418479,6.27743683 21.0926885,6.07647609 C21.0792037,5.99800344 21.0385035,5.74735181 21.0512623,5.72325 C21.0713057,5.66716581 21.1470422,5.72504267 21.1843346,5.66003879 C21.2401707,5.5999568 20.9907863,4.96208987 20.8642059,4.78004728 C20.8186942,4.69845729 20.7363843,4.72669174 20.634466,4.85936867 C20.5399556,4.94667376 20.5745363,5.14585373 20.6106134,5.33529701 C20.7043244,5.81812632 20.7879721,6.30983962 20.8541607,6.80028378 C20.7316298,6.62045029 20.5820908,6.40284395 20.4348375,6.19299921 C20.4308805,6.17276194 20.4160066,6.09859486 20.4160066,6.09756765 C20.4160057,6.08889266 20.3957157,5.70258678 20.3783446,5.61049465 C20.3753075,5.57311722 20.3662815,5.56235846 20.4059634,5.56711378 C20.4480363,5.60205247 20.4537529,5.60393715 20.4800339,5.61545223 C20.5225085,5.62312737 20.5596482,5.55223308 20.534018,5.48655497 C20.402621,5.24730183 20.2712159,5.00697784 20.1398229,4.76770487 C20.1240109,4.75233397 20.106279,4.73613971 20.0858387,4.73300176 L20.0858407,4.73299779 Z M7.85203201,4.74539176 C7.77922693,4.74333734 7.69890151,4.78789216 7.73026036,4.87428902 C7.71199863,4.92137816 7.87277321,5.08056033 7.90099457,5.16802406 C7.92630179,5.23030722 7.87589342,5.43085946 7.92861333,5.4493691 C7.97708176,5.47011641 8.04382879,5.31053684 8.06921797,5.16306648 C8.08326839,5.08227764 8.07263667,4.805795 7.8821656,4.74908814 C7.87240723,4.74691077 7.86243676,4.74566542 7.85203603,4.74537193 L7.85203201,4.74539176 Z M21.7883621,4.74697819 C21.7717659,4.74860428 21.7515542,4.77508255 21.7205705,4.83993493 C21.6460661,4.96042015 21.6204279,5.17615451 21.6502682,5.36666862 C21.8296476,6.56454061 21.9629488,7.7244573 21.9904832,8.78617412 C21.9750561,8.88695195 21.9705527,8.94055734 21.9226917,9.06751916 C21.8168044,9.20151679 21.7000262,9.36950363 21.5900131,9.45049077 C21.4800362,9.53144221 21.2459817,9.60862193 21.1694445,9.66862459 C20.9266565,9.80717923 20.9254352,9.96652004 21.1217394,9.97227481 C21.4600462,9.93349894 21.8603556,9.90609697 22.1361014,9.49511698 C22.2098787,9.37995025 22.2967523,9.06773333 22.3005606,8.8766481 C22.3263532,7.75635243 22.286041,6.66096369 22.1160151,5.85129059 C22.105123,5.77241737 22.0698485,5.59113229 22.0833747,5.56747072 C22.1052805,5.51202507 22.2159649,5.57302005 22.2553623,5.50921709 C22.3131869,5.45093174 21.9691153,5.01599669 21.8486132,4.83002768 C21.8245384,4.78332325 21.8096918,4.744896 21.788354,4.74698612 L21.7883621,4.74697819 Z M18.2406258,4.76556914 C18.2266561,4.76794878 18.2060315,4.7889392 18.1678127,4.83869553 C18.0733063,5.14374973 18.0400915,5.39287443 18.0761706,5.58233357 C18.3189185,6.83299394 18.5676441,7.97240606 18.5281141,9.16294081 C18.6432331,9.16369833 18.7763255,8.90295305 18.833178,8.64489281 C18.8643159,8.2893902 18.8124022,8.07302524 18.8030484,7.86405304 C18.7937359,7.65510066 18.5634621,5.95978441 18.5168175,5.80169688 C18.4605355,5.50275835 18.7407204,5.76237409 18.7101489,5.58852064 C18.6132924,5.3693358 18.3715448,5.05016636 18.2958875,4.85975536 C18.2674419,4.80875964 18.2639328,4.76159514 18.2406499,4.76556121 L18.2406258,4.76556914 Z M9.60227855,4.78911768 C9.57244627,4.79421963 9.54365847,4.8184888 9.53322962,4.85852389 C9.52666981,4.88474794 9.54472787,4.92837035 9.52067564,4.94156546 C9.50686826,4.95531701 9.45446291,4.94607409 9.4566483,4.87339666 C9.4566483,4.85025107 9.43943589,4.82609731 9.42902953,4.81142682 C9.41858261,4.80467102 9.41153269,4.80275104 9.39262298,4.80275104 C9.3695831,4.80367117 9.37010534,4.80966985 9.35747182,4.82877837 C9.35184763,4.84821211 9.34461654,4.86724925 9.34461654,4.88945924 C9.34174017,4.91532356 9.33124986,4.92408302 9.31197617,4.92788054 C9.29043434,4.92788054 9.29553266,4.93019672 9.27808041,4.91920476 C9.26771464,4.90801172 9.25548324,4.90361017 9.25548324,4.88450165 C9.25548324,4.86471414 9.2502178,4.83312519 9.24418465,4.82005302 C9.2350341,4.80814053 9.22057312,4.80194117 9.2040119,4.79774388 C9.11375577,4.79806116 9.10718351,4.90045715 9.11236981,4.93903511 C9.10560793,4.94631046 9.10226114,5.12778829 9.22535568,5.17823669 C9.39060229,5.25602718 9.70047884,5.22314053 9.68734235,4.96010287 C9.68734275,4.93683711 9.68215846,4.8587103 9.67980996,4.83740061 C9.66294504,4.79862435 9.63180754,4.78396179 9.60197525,4.78906215 L9.60227855,4.78911768 Z M11.8193325,4.79159647 C11.7622229,4.79447187 11.7118061,4.81063004 11.6686847,4.83249458 C11.5591537,4.93603279 11.5334752,5.10201677 11.6197221,5.20555101 C11.7036631,5.244687 11.7874112,5.3280986 11.7314506,5.37410897 C11.4940818,5.62441158 10.8762932,6.04266931 10.8451593,6.11897649 C10.8449182,6.11959916 10.8440385,6.12088417 10.8439059,6.12145528 C10.8438255,6.1220026 10.8439119,6.12343832 10.8439059,6.12393408 C10.8439248,6.12417204 10.8438657,6.12494939 10.8439059,6.12517149 C10.8441068,6.12580209 10.8447656,6.12713866 10.8451593,6.12765028 C10.84532,6.12780893 10.8462359,6.12874492 10.8464127,6.1288877 C10.8466135,6.12900668 10.8474451,6.12876871 10.8476661,6.1288877 C10.8479071,6.12900668 10.8486503,6.13003786 10.8489195,6.13012511 C10.8492007,6.13020443 10.8498555,6.13004579 10.8501728,6.13012511 C10.8502532,6.13020443 10.8513218,6.13127527 10.8514262,6.13136252 C10.88282,6.15215107 11.2693836,6.15165928 11.3121675,6.13259994 C11.3124889,6.1324413 11.3131638,6.13152513 11.3134209,6.13136252 C11.3135415,6.1312832 11.3145699,6.13144185 11.3146743,6.13136252 C11.3147547,6.1312832 11.314594,6.1302084 11.3146743,6.13012511 C11.4475256,6.08179459 12.0779566,5.37038483 12.0779566,5.37038483 C12.0452793,5.34276234 12.0151827,5.32240332 11.9825464,5.29478361 C11.9475615,5.26488222 11.9510843,5.23548691 11.9825464,5.20554705 C12.1386818,5.11584249 12.089205,4.918475 12.0076543,4.82877044 C11.9400516,4.79884843 11.8764541,4.78871314 11.8193445,4.79158854 L11.8193325,4.79159647 Z M17.6142522,4.79407526 C17.5976561,4.79570135 17.5774444,4.82094023 17.5464607,4.88579062 C17.4719563,5.00627585 17.4213266,5.21609283 17.4271958,5.41252432 C17.5885939,6.5156469 17.6380747,7.48098823 17.7435563,8.58415047 C17.7521408,8.69084567 17.7362983,8.84583174 17.6644642,8.90763103 C17.3987576,9.18154366 17.015634,9.5193576 16.5986408,9.67482753 C16.5537759,9.72455807 16.7101925,9.93654052 16.9124905,9.93634222 C17.2507973,9.89756596 17.548144,9.71010968 17.8239299,9.21626263 C17.897667,9.10109194 18.0272643,8.85457295 18.0310687,8.66347186 C18.0568616,7.5431762 17.9738667,6.672148 17.8038435,5.86243525 C17.7929511,5.78356599 17.8003606,5.6902761 17.8138867,5.66661056 C17.8357925,5.64078669 17.9100723,5.66720151 17.9494698,5.60339935 C18.0072904,5.54511399 17.7950417,5.06183255 17.6745355,4.87586355 C17.6504607,4.82915912 17.6356141,4.79197325 17.6142763,4.79406337 L17.6142522,4.79407526 Z M8.63684693,4.82778686 C8.59015414,4.83317674 8.54622925,4.87070766 8.52511847,4.92074359 C8.51730326,5.09767392 8.51625234,5.27451303 8.53641706,5.43756212 C8.61792757,5.72354746 8.64373857,5.97508352 8.68329668,6.26797776 C8.69426946,6.66025773 8.45384196,6.43767001 8.46485733,6.24318982 C8.52037206,5.99058292 8.50538762,5.59291306 8.45606954,5.49209557 C8.41695453,5.39131774 8.37166257,5.36643859 8.27654554,5.38302866 C8.20102879,5.37847165 8.00593785,5.58833225 7.9513953,5.93581943 C7.9513957,5.93581904 7.9059559,6.11415375 7.88611458,6.27293534 C7.85943063,6.45238413 7.73901802,6.57946493 7.65512124,6.24814741 C7.58260139,6.0073356 7.53802972,5.41400366 7.41659552,5.55285576 C7.38181314,6.01613234 7.34051234,6.83131827 7.73923094,6.91496268 C8.22150485,6.96073509 7.95509923,6.11008853 8.1296619,5.95564978 C8.16266261,5.87933467 8.2238188,5.87797827 8.22884039,5.97424073 L8.22884039,6.69681894 C8.22442701,6.93171337 8.38100273,7.0015162 8.50251728,7.05004503 C8.62897307,7.04041065 8.71282164,7.04382345 8.76238679,7.16530694 C8.78214696,7.58182356 8.80288494,7.99937136 8.82264592,8.41584833 C8.82264592,8.41584833 9.1149951,8.49878677 9.12896317,7.71310046 C9.14297382,7.25176725 9.03591102,6.86463921 9.0988336,6.77488705 C9.10105917,6.6867015 9.21555554,6.68233882 9.29467578,6.72531118 C9.42072583,6.81309617 9.47665032,6.9211319 9.67254873,6.87775896 C9.97064664,6.79668854 10.1502028,6.65383864 10.1546218,6.42784804 C10.1372101,6.21310123 10.1120467,5.9981244 10.0177853,5.78336174 C10.0309455,5.74430587 9.96072798,5.64270508 9.97384439,5.60365119 C10.0274148,5.68647859 10.1084593,5.67960539 10.127003,5.60365119 C10.0762648,5.43859131 9.99727716,5.28044032 9.86964832,5.21200183 C9.76416672,5.1202587 9.60981496,5.13966072 9.55328788,5.33098391 C9.52708962,5.55144979 9.63421991,5.81274238 9.7968352,6.02627556 C9.83137453,6.1097058 9.87968749,6.24846271 9.85834772,6.37330665 C9.77181561,6.42203774 9.68602268,6.4017632 9.61354299,6.32620957 C9.6135434,6.32620918 9.37627467,6.15084981 9.37627467,6.11179592 C9.43923743,5.71380084 9.38983659,5.6682307 9.3549329,5.55777567 C9.33055728,5.40530805 9.25736935,5.35702116 9.19801009,5.25288407 C9.13865083,5.19076352 9.05812856,5.19076352 9.01974349,5.25288407 C8.9148685,5.43237251 8.96407209,5.81773169 9.03982987,5.99033504 C9.09457328,6.14907697 9.1785263,6.24812956 9.13900836,6.24812956 C9.10645317,6.33783412 9.03856845,6.31696466 8.98961393,6.21342645 C8.91972539,5.99943717 8.90550022,5.68050569 8.90550022,5.53673567 C8.88452522,5.35848464 8.86114146,4.97771817 8.7422984,4.88110471 C8.71058844,4.8384655 8.67316109,4.8236205 8.63684492,4.82780867 L8.63684693,4.82778686 Z M10.3303695,4.83026565 C10.306437,4.8332521 10.2799809,4.84670302 10.2487706,4.85381419 C10.1462458,4.88603454 10.050261,4.97353793 10.0805472,5.14383302 C10.2017404,5.87089289 10.2807361,6.42578568 10.4019293,7.15288521 C10.4205566,7.23803276 10.3482585,7.35026856 10.2550496,7.33879472 C10.0965641,7.23294032 10.057231,7.01855047 9.78679603,7.02770416 C9.59101813,7.03002431 9.36775403,7.24034497 9.33987414,7.44291198 C9.3072382,7.60389474 9.29561582,7.77844543 9.33987414,7.91884032 C9.47746582,8.08217893 9.64228258,8.06476392 9.78679603,8.02790723 C9.90563909,7.97961637 10.0034196,7.86398958 10.0454081,7.89157359 C10.0455287,7.89169257 10.0465571,7.89141495 10.0466615,7.89157359 C10.046782,7.89173224 10.046541,7.89264443 10.0466615,7.89281101 C10.0725766,7.93753241 10.044219,8.315713 9.48673368,8.60793301 C9.14413642,8.75980174 8.87144778,8.79608731 8.72469671,8.51993385 C8.6337938,8.34735827 8.73130995,7.69007346 8.50751477,7.84197393 C7.84566865,9.52624468 10.0581027,9.76135328 10.3052455,7.91138014 C10.3212519,7.85919063 10.370008,7.80682662 10.404424,7.81966479 C10.4195249,7.82601367 10.4333476,7.84625808 10.4383198,7.88411342 C10.3870151,9.55918289 8.72671941,9.6740006 8.44474685,9.1470686 C8.37485831,9.0228632 8.35383189,8.74637659 8.34682576,8.58067421 C8.334044,8.4804318 8.30856644,8.42261047 8.27903424,8.39972229 C8.21176496,8.3498212 8.12136823,8.47995587 8.10202505,8.70585526 C8.07404593,8.8876242 8.08193867,8.93752528 8.08193867,9.11237739 C8.17049549,10.4354185 10.3070272,9.86696178 10.6542403,8.77402407 C10.8261274,8.2090178 10.6507412,7.78278431 10.7082244,7.73047185 C10.7087226,7.73005938 10.7102049,7.72959138 10.7107352,7.72923443 C10.7112816,7.72891715 10.7126635,7.72827465 10.713246,7.72799702 C10.7138446,7.72775906 10.7151221,7.72695791 10.7157568,7.72675961 C10.7177132,7.72624402 10.7209978,7.72554996 10.7232892,7.72552219 C10.9353853,7.95106464 11.2330011,7.75417824 11.2982417,7.67594632 C11.3262212,7.63681034 11.396211,7.61170393 11.4451213,7.66231296 C11.6105688,7.77972052 11.9005598,7.72437798 11.9611001,7.51730553 C11.9960846,7.31482974 12.0256537,7.10638106 12.0326558,6.89019061 C11.9248844,6.9232248 11.8379184,6.94796038 11.8029159,6.98438476 C11.7945805,6.99337148 11.7884147,7.00334019 11.7865957,7.01413028 C11.7772423,7.07397431 11.7683304,7.13400077 11.7589769,7.19384083 C11.7579766,7.1987877 11.7563657,7.20335781 11.7539554,7.20747419 C11.749362,7.21481975 11.7417685,7.22159379 11.733869,7.22606514 C11.6957683,7.24660264 11.6293314,7.23485831 11.6259047,7.18020944 C11.5746443,6.95010999 11.363673,6.92018203 11.2354737,7.27688239 C11.1492269,7.3458801 10.9919626,7.35934887 10.9756042,7.25581265 C10.9965796,7.01651984 10.8989185,6.98439864 10.7031848,7.09716986 C10.6402582,6.62318489 10.5778377,6.17065636 10.514875,5.69667139 C10.5964658,5.69435124 10.6712836,5.75275161 10.7458683,5.66072888 C10.6651532,5.41290109 10.4943587,4.90864312 10.3981249,4.86132791 C10.3973697,4.86097096 10.3963613,4.86037605 10.3956141,4.86009049 C10.3912449,4.85491477 10.3860751,4.85014716 10.3818047,4.84645713 C10.3800291,4.84496985 10.3772933,4.84275679 10.3755277,4.84149954 C10.3737642,4.84028989 10.3710079,4.83877485 10.3692507,4.83778333 C10.3653861,4.83568925 10.3605558,4.83398384 10.3566968,4.83282575 C10.347923,4.83037075 10.3393988,4.82921662 10.3303334,4.83034695 L10.3303695,4.83026565 Z M16.9323599,4.83398186 C16.8476918,4.83150306 16.7540049,4.8841804 16.7905019,4.98890446 C16.7692441,5.04602776 16.9724162,5.23979802 17.005177,5.34585072 C17.0641346,5.50879272 16.9601514,5.66421902 17.0214972,5.68668681 C17.077944,5.71183129 17.1564777,5.51846597 17.1859564,5.33965572 C17.2200097,5.19510439 17.1155537,4.89886675 16.9675171,4.83770996 C16.9561695,4.83507253 16.9444616,4.83434673 16.9323659,4.83399375 L16.9323599,4.83398186 Z M11.7890422,5.01245499 C11.8275996,5.00857617 11.8741884,5.04355175 11.8970065,5.09301379 C11.9213464,5.14577441 11.9091383,5.19618712 11.8693877,5.20580088 C11.8296376,5.21541304 11.7782317,5.18048069 11.7538911,5.1277169 C11.729552,5.07495628 11.7417593,5.02330615 11.7815098,5.0136924 C11.7839925,5.01308956 11.7864716,5.01271278 11.7890422,5.01245499 Z M21.3300713,5.25661416 C21.2528793,5.25394499 21.1687536,5.31180598 21.2020206,5.42517211 C21.1826654,5.48701504 21.3667651,5.69705411 21.3966094,5.81186389 C21.4234553,5.89357286 21.3557537,6.15690005 21.4116742,6.18120412 C21.4631395,6.20842722 21.5354786,5.99926861 21.562322,5.80566493 C21.5772229,5.69969155 21.497672,5.32779321 21.3627116,5.26155985 C21.352366,5.25870824 21.3410987,5.2569838 21.3300713,5.25660226 L21.3300713,5.25661416 Z M16.054987,5.38551142 C16.0620473,5.41658795 16.0691037,5.4478739 16.0738179,5.47970557 C16.0896388,5.548386 16.103277,5.61660636 16.1177589,5.68420405 C16.0568209,5.60136475 16.0063799,5.53443336 15.9846867,5.51068851 C15.8468017,5.34891253 15.987792,5.40445337 16.054989,5.38551142 L16.054987,5.38551142 Z M17.2702128,5.97546426 C17.2403805,5.98056621 17.2115927,6.00607439 17.2011638,6.04610789 C17.194604,6.07233155 17.2139171,6.11471693 17.1898653,6.12790808 C17.1760579,6.14165963 17.1223991,6.13365571 17.1245845,6.06098065 C17.1245841,6.03783467 17.1073721,6.0124439 17.0969658,5.99776944 C17.0865196,5.99101324 17.0794689,5.98909366 17.0605592,5.98909366 C17.0375189,5.99001379 17.0380412,5.99601287 17.025408,6.01512099 C17.0200635,6.03458924 17.0128541,6.05378501 17.0128541,6.07584945 C17.0099777,6.10171377 17.0007432,6.11047284 16.9814691,6.11427075 C16.9599277,6.11427075 16.9637698,6.11658693 16.9463179,6.10559497 C16.9359518,6.09440233 16.9237208,6.08999999 16.9237208,6.07089186 C16.9237212,6.05110395 16.9184553,6.0195154 16.9124222,6.00644323 C16.9032708,5.99453035 16.8888102,5.98957118 16.8722494,5.98537349 C16.7819933,5.98569077 16.7766784,6.08684934 16.7818607,6.12542334 C16.775098,6.13269869 16.7704967,6.3154179 16.8935892,6.3658663 C17.0588358,6.44365679 17.3699577,6.40953273 17.3568212,6.14649506 C17.3568216,6.12322931 17.3503819,6.04510249 17.3480334,6.0237928 C17.3311685,5.98501654 17.300031,5.97035398 17.2701987,5.97545435 L17.2702128,5.97546426 Z M11.721552,6.02999772 C11.7011764,6.02794726 11.6744655,6.03533248 11.6437173,6.05354626 C11.4975849,6.13157868 11.4410016,6.36305436 11.5319888,6.4984996 C11.6169823,6.61778707 11.7513602,6.57410082 11.7692572,6.57410082 C11.9124329,6.59176966 11.9977397,6.30886992 11.9977397,6.30886992 C11.9977393,6.30886992 12.002051,6.22932643 11.8320271,6.37951355 C11.7604794,6.39274554 11.7507496,6.3672346 11.7328486,6.32745888 C11.7179473,6.2538645 11.7211495,6.1792429 11.7554458,6.10560489 C11.7712883,6.06145857 11.7555261,6.03341845 11.72155,6.03000367 L11.721552,6.02999772 Z M19.5652822,6.06594022 C19.4841573,6.06204554 19.39781,6.11390984 19.375715,6.22334559 C19.3760364,6.28790527 19.4052372,6.32338573 19.3995676,6.38198837 C19.3911052,6.41548778 19.3561449,6.43751731 19.2727743,6.39810053 C19.2858124,6.38626776 19.2187902,6.29275379 19.2187902,6.29275379 C19.1537585,6.25365787 19.0669211,6.29487564 19.010394,6.33117509 C18.9792963,6.38698166 18.9562934,6.48263532 18.9915631,6.58029185 C19.0848964,6.75054728 19.4050612,7.04106981 19.5577578,7.04384606 C19.560594,6.89033934 19.575699,6.68620574 19.5841212,6.55923202 C19.5877247,6.51130207 19.5991117,6.45847799 19.6456337,6.44644494 C19.6921176,6.43445233 19.7727926,6.49261792 19.7736844,6.44272873 C19.7652216,6.34506823 19.7454514,6.20095713 19.6895707,6.13287955 C19.660948,6.09100975 19.6139615,6.06828814 19.5652842,6.06595212 L19.5652822,6.06594022 Z M13.0725617,6.60013013 C13.0704044,6.60091145 13.0682681,6.60273187 13.0662847,6.60384634 C13.0653125,6.60442935 13.0635008,6.6056271 13.0625205,6.60632513 C13.0463635,6.61829989 13.0272975,6.64593585 12.9846858,6.67573135 C12.9128128,6.75644086 12.8999294,6.81264403 12.9043403,6.97442398 C12.9084295,6.99153638 13.0407871,7.3548454 13.1529092,7.61022459 C13.2285063,7.87566172 13.2984471,8.17959353 13.2470661,8.46665764 C13.070077,8.84614704 12.7142549,9.18649926 12.370818,9.37139743 C12.1958376,9.4267241 12.0447197,9.40788289 12.0042417,9.37016001 C12.0039203,9.36984273 12.0032775,9.36922402 12.0029883,9.3689226 C11.9025001,9.30222124 11.9001942,9.18348505 11.9063246,9.16318274 C11.9063226,9.16306376 11.9063314,9.16208414 11.9063246,9.16194533 C11.9065656,9.16170736 11.907349,9.16092208 11.907578,9.16070791 C12.1973762,8.96142878 12.5284077,8.80013667 12.7876023,8.2621552 C12.8641314,8.05656209 12.8874959,7.93311421 12.8114549,7.61520994 C12.781811,7.49675137 12.745194,7.39927331 12.6633179,7.31527593 C12.6635187,7.31503796 12.6643583,7.31425665 12.6645713,7.31403851 C12.7139034,7.29073746 12.8418978,7.38382944 12.8616668,7.32519308 C12.8313794,7.17340764 12.7272448,6.96963495 12.6093337,6.86536698 C12.5060817,6.77278305 12.3937587,6.76206673 12.2992483,6.84677603 C12.1927945,6.90525969 12.1701531,7.1153067 12.2214136,7.29914592 C12.2783464,7.43754192 12.4320514,7.4618222 12.5415422,7.74037116 C12.5415402,7.74064878 12.5415326,7.74151735 12.5415422,7.74160857 C12.543824,7.75907356 12.5791182,7.9495258 12.5239666,8.02666982 C12.4792101,8.16445901 11.9043421,8.61202202 11.8636069,8.63895164 C11.863157,8.63939584 11.8602766,8.64101003 11.8598427,8.64143043 C11.8596017,8.64166839 11.8588022,8.64246161 11.8585893,8.64266784 C11.8584688,8.64274716 11.8576011,8.64363953 11.8573359,8.64390526 C11.8572154,8.64402424 11.856195,8.64501576 11.8560825,8.64514267 C11.855962,8.64514267 11.8549657,8.64514941 11.8548291,8.64514267 C11.8547488,8.64513989 11.853861,8.64513831 11.8535757,8.64514267 C11.8533347,8.64494437 11.8525433,8.64413529 11.8523224,8.64390526 C11.852332,8.64378627 11.8523195,8.64277889 11.8523224,8.64266784 C11.8520813,8.64223951 11.8512939,8.64063721 11.851069,8.64018905 C11.8493375,8.62901465 11.8523786,8.60056484 11.851069,8.55467266 C11.8472927,8.47081408 11.8824495,8.28109715 11.8799431,8.24853968 C11.8799443,8.2484207 11.8799395,8.24742522 11.8799431,8.24730227 C11.8797021,8.2470643 11.8789227,8.24628299 11.8786897,8.24606485 C11.8786914,8.24594587 11.8786833,8.24496229 11.8786897,8.24482744 C11.8784085,8.24483299 11.8774765,8.24483101 11.8774364,8.24482744 C11.6874112,8.36595517 11.6246533,8.73725463 11.5899521,8.84719408 C11.1088834,9.17535064 10.5625741,9.41949792 10.2479411,9.75193387 C10.0840724,10.0045804 11.3769562,9.46182778 11.5272023,9.39622502 C11.5284918,9.39718084 11.5297773,9.39872364 11.5309664,9.39994123 C11.5595248,9.43097057 11.5619641,9.53916217 11.6477165,9.63666799 C11.7821064,9.81639836 12.0677628,9.92707946 12.3457181,9.85852199 C12.8118426,9.69218503 13.0803974,9.37854825 13.3538132,9.03060497 C13.3928876,8.97448112 13.4541326,8.93025944 13.510736,8.97359272 C13.6986159,9.3888402 14.2403134,9.68431238 14.940645,9.71477179 C15.1026938,9.52021229 15.0251926,9.42454672 14.959476,9.38385088 C14.9392325,9.37056971 14.6111862,9.24430869 14.5602592,9.11861998 C14.5281897,9.00165266 14.6061606,8.89791615 14.7623764,8.81992735 C15.21203,8.76623867 15.6540508,8.70660485 16.0818103,8.57081059 C16.0861425,8.42893635 16.1707889,8.21677146 16.2274365,8.12462777 C16.2667693,8.06069473 16.2920584,8.05436488 16.3015071,8.04530638 C16.3018285,8.04498909 16.3024953,8.04439418 16.3027605,8.04406897 C16.302881,8.04391032 16.3039014,8.04300209 16.3040139,8.04283155 C16.3042549,8.04263325 16.3050423,8.04181227 16.3052672,8.04159414 C16.305268,8.04116977 16.3052841,8.03955558 16.3052672,8.03911535 C16.3055083,8.03630737 16.3052476,8.03147194 16.3040139,8.02672138 L16.2312007,7.98458189 L14.7962701,7.97838491 C14.7785443,7.97164774 14.7653648,7.9648856 14.7573528,7.95855456 C14.7567422,7.95805087 14.7553883,7.95657549 14.754842,7.95607576 C14.754601,7.9558378 14.7538256,7.95508425 14.7535886,7.95483835 C14.7533476,7.95460039 14.7525401,7.95384287 14.7523352,7.95360094 C14.7521343,7.95316864 14.7512787,7.95155445 14.7510818,7.95112214 C14.7509613,7.95100316 14.749969,7.95001561 14.7498284,7.94988473 C14.7498308,7.94976575 14.7498168,7.9487782 14.7498284,7.94864732 C14.7497079,7.94852833 14.7487197,7.94754078 14.748575,7.9474099 C14.7485758,7.94729092 14.7485678,7.94630337 14.748575,7.94617249 C14.7485754,7.94605351 14.7485698,7.94506596 14.748575,7.94493508 C14.748575,7.94481609 14.7485718,7.94382854 14.748575,7.94369766 C14.7485618,7.94349936 14.7485799,7.94264665 14.748575,7.94246025 C14.7485803,7.94238093 14.7485787,7.94148459 14.748575,7.94122283 C14.748573,7.94110385 14.7485791,7.9401163 14.748575,7.93998542 C14.7485726,7.93986644 14.7485807,7.93887889 14.748575,7.93874801 C14.7485722,7.93862902 14.7485827,7.93764147 14.748575,7.93751059 C14.7488161,7.93727263 14.7495954,7.93649528 14.7498284,7.93627318 C14.7501498,7.93561878 14.750648,7.93444086 14.7510818,7.93379439 C14.7580875,7.92447373 14.7750658,7.91568849 14.7962762,7.90776705 C15.1389176,7.86167736 15.7476473,7.76316416 15.7880611,7.18518885 C15.7817444,6.88413244 15.657572,6.68701085 15.283411,6.63239807 C15.0084727,6.65338572 14.8123854,6.91593635 14.8440014,7.20501919 C14.830842,7.28284934 14.8706785,7.43559061 14.7900173,7.45289854 C14.2626293,7.50046758 13.6869939,7.82670456 13.6676709,8.06018311 C13.6675503,8.06016248 13.6665259,8.06018866 13.6664175,8.06018311 C13.6662166,8.06042107 13.665381,8.06119842 13.6651641,8.06142052 C13.6647583,8.06161882 13.6633161,8.06233668 13.6626533,8.06265793 C13.6622154,8.06265199 13.6605844,8.0626738 13.6601425,8.06265793 C13.6592948,8.06293556 13.657242,8.06367721 13.6563783,8.06389535 C13.6561373,8.06391677 13.6554463,8.06389099 13.6551249,8.06389535 C13.6544098,8.06388424 13.6530881,8.06389535 13.6526141,8.06389535 C13.6523731,8.06388781 13.6516821,8.06388742 13.6513607,8.06389535 C13.6508304,8.06390844 13.6492878,8.06391637 13.6488499,8.06389535 C13.6474881,8.06361772 13.6450094,8.06295142 13.6438283,8.06265793 C13.6095272,8.0532528 13.5653388,7.9973685 13.5722726,7.91888791 C13.5521887,7.51526102 13.419126,7.05852845 13.2107178,6.70677774 C13.136346,6.63337373 13.1039427,6.6036282 13.0826672,6.60018962 C13.0819802,6.6001103 13.0808232,6.60022135 13.0801564,6.60018962 C13.0792806,6.60018605 13.077521,6.60019954 13.0763922,6.60018962 C13.0761913,6.60019517 13.0753316,6.60017376 13.0751388,6.60018962 C13.0750183,6.60018605 13.0740019,6.60019954 13.0738854,6.60018962 C13.0737247,6.60022928 13.0727847,6.60014996 13.072632,6.60018962 L13.0725617,6.60013013 Z M14.4459878,6.81330637 C14.4161555,6.81840832 14.3873677,6.8426771 14.3769389,6.88271259 C14.3703799,6.90893663 14.3896921,6.95255904 14.3656403,6.96575415 C14.3518325,6.9795057 14.2981742,6.97150217 14.3003596,6.89882673 C14.3003596,6.87568114 14.2831472,6.85028997 14.2727408,6.83561551 C14.2622943,6.82885971 14.2564994,6.82693973 14.2375897,6.82693973 C14.2145498,6.82785986 14.2138162,6.83385854 14.2011831,6.85296706 C14.1958377,6.87243452 14.1886291,6.89163109 14.1886291,6.91369552 C14.1857527,6.93955985 14.1765182,6.94831931 14.1572442,6.95211682 C14.1357023,6.95211682 14.1408002,6.954433 14.1233484,6.94344104 C14.1129826,6.932248 14.0994958,6.92784646 14.0994958,6.90873793 C14.0994954,6.88895002 14.0954866,6.85736147 14.0894526,6.8442893 C14.0803017,6.83237682 14.0645853,6.82741685 14.0480265,6.82321956 C13.9577704,6.82353684 13.9524555,6.92469541 13.9576378,6.96326941 C13.9508755,6.97054516 13.9462737,7.15326397 14.0693663,7.20371237 C14.2346129,7.28150286 14.6284103,7.23570467 14.5325983,6.98434113 C14.5325979,6.96107538 14.526159,6.88294857 14.5238105,6.86163887 C14.506946,6.82286261 14.4758081,6.80820005 14.4459758,6.81330042 L14.4459878,6.81330637 Z M19.9886227,7.03763519 C19.9844688,7.0368975 19.9796899,7.03718306 19.9748133,7.03887261 C19.9748133,7.03887261 19.2091608,7.57663198 19.1901992,7.59535182 C19.1142768,7.66198973 19.1522593,7.89632098 19.1901992,7.86925652 C19.2450672,7.89008354 20.01591,7.37437036 20.0012068,7.31400678 C20.0348021,7.31595412 20.0509608,7.04870846 19.9886528,7.03761933 L19.9886227,7.03763519 Z M15.1694991,7.11735319 C15.2007483,7.11408118 15.2417378,7.12454883 15.2812276,7.14709871 C15.3383854,7.17973669 15.3736169,7.22902581 15.3691055,7.26484339 C15.3689448,7.26581507 15.3693064,7.2676117 15.3691055,7.26855959 C15.3688645,7.26950352 15.3668799,7.27135567 15.3665947,7.2722758 C15.3662733,7.273188 15.3657069,7.27510361 15.3653413,7.27599201 C15.3651003,7.27657899 15.3643731,7.27789572 15.3640879,7.2784708 C15.3638067,7.27904191 15.3631599,7.28039038 15.3628345,7.28094959 C15.3609625,7.28397571 15.35787,7.28715173 15.3553021,7.28962537 C15.327826,7.31495943 15.2644073,7.31135309 15.2046543,7.2772314 C15.1480188,7.24489049 15.1130203,7.19521309 15.1167764,7.15948673 C15.1168969,7.15851108 15.117849,7.15672635 15.1180298,7.15577052 C15.1189779,7.15133725 15.1207575,7.14729345 15.1230514,7.14337656 C15.1238709,7.14197653 15.124594,7.13970398 15.1255622,7.13841897 C15.1257631,7.13818101 15.1266107,7.13742745 15.1268156,7.13718156 C15.1285028,7.13523818 15.1310526,7.13263684 15.1330926,7.13098457 C15.1422001,7.12391347 15.155108,7.11885832 15.1694991,7.11735121 L15.1694991,7.11735319 Z M8.46426478,7.25368683 C8.0675267,7.26084281 7.4865403,7.76709453 7.47123448,8.04813022 C7.88987475,7.84965224 8.30108306,7.6586146 8.72663304,7.45321979 C8.65795771,7.35200173 8.72246993,7.26079403 8.46425675,7.2536789 L8.46426478,7.25368683 Z M9.74979291,7.42968117 C9.78868375,7.43011347 9.82970053,7.44907247 9.85147818,7.50280756 C9.87107606,7.55209787 9.85240617,7.60364091 9.82888101,7.62922602 C9.82876049,7.62942433 9.82900152,7.6302691 9.82888101,7.63046344 C9.82851945,7.63103455 9.82801729,7.63240681 9.82762762,7.63294223 C9.81097601,7.65412263 9.75251662,7.6453362 9.71087756,7.6453362 C9.66050494,7.643139 9.63567015,7.63497603 9.60542408,7.59452292 C9.59096912,7.54955165 9.63498882,7.50536171 9.65438663,7.47182066 C9.6545875,7.47150337 9.65544318,7.4708926 9.65564002,7.47058324 C9.65774507,7.46745798 9.66118426,7.46371163 9.66442781,7.46066807 C9.67949259,7.44704581 9.70554463,7.43431235 9.73347674,7.43092255 C9.7389077,7.43026418 9.74424103,7.42962168 9.74979692,7.42968513 L9.74979291,7.42968117 Z M19.8395818,7.5855477 C19.7690384,7.59413583 19.701982,7.65999083 19.7328749,7.76525824 C19.7135197,7.82710117 19.8285744,8.04333921 19.8584148,8.15814502 C19.885261,8.23985399 19.8238377,8.47095686 19.8797565,8.49526094 C19.9312218,8.52248443 20.0665679,8.35806269 20.0617873,8.15195002 C20.0766882,8.04597665 20.0235011,7.6555171 19.8885423,7.58924408 C19.873024,7.58496429 19.8558606,7.58354404 19.8395798,7.58552787 L19.8395818,7.5855477 Z M11.2703316,7.96728189 C11.2079835,7.97158429 11.1523483,8.00448482 11.1774321,8.09122157 C11.173668,8.15414326 11.3535937,8.23065271 11.3644845,8.37628282 C11.3901967,8.43632514 11.3260191,8.62860416 11.3795493,8.6464713 C11.4287047,8.66645871 11.496914,8.51355641 11.5226647,8.37132523 C11.5369176,8.29341179 11.4609313,8.02089126 11.3318442,7.97225931 C11.3120338,7.96805171 11.291113,7.96586759 11.2703316,7.96730172 L11.2703316,7.96728189 Z M13.8351209,8.31307557 C13.8398521,8.31275828 13.8440236,8.31310412 13.8489303,8.31307557 C13.8497539,8.31307041 13.8506136,8.313072 13.8514411,8.31307557 C14.0113006,8.35596861 14.2469579,8.36041457 14.4515417,8.38124437 C14.6181662,8.39167791 14.7004963,8.52046531 14.5444412,8.57459026 C14.3904912,8.62664096 14.2425791,8.66729317 14.2418922,8.88691824 C14.2621296,8.99571149 14.2578428,9.05280306 14.2406388,9.07902671 C14.239293,9.08099388 14.2371116,9.08360831 14.2356172,9.0852237 C14.2354163,9.08546166 14.2345807,9.08624694 14.2343638,9.08646111 C14.2341228,9.08665941 14.2333354,9.08749625 14.2331104,9.08769852 C14.2328694,9.08789683 14.232086,9.08874953 14.231857,9.08893594 L14.2306036,9.09017335 C14.2301617,9.09037165 14.2285387,9.09120056 14.2280928,9.09141076 C14.2258552,9.09278302 14.2229985,9.0942465 14.2205604,9.09512697 C14.2184072,9.0958488 14.2153179,9.09598761 14.213028,9.09636438 C14.1764327,9.10166305 14.1232821,9.06720941 14.08372,9.04678852 C13.9888078,8.97950811 13.7224424,8.81653438 13.6845032,8.46675084 C13.6791048,8.38781813 13.7389534,8.31975244 13.8351511,8.31306565 L13.8351209,8.31307557 Z M7.5705817,8.58202267 C7.56059556,8.58233996 7.54061082,8.61179239 7.51409077,8.64523389 C7.27806379,9.0164461 7.25707353,9.57055757 7.38729753,9.73590301 C7.45649911,9.81401475 7.57059777,9.84836488 7.65469541,9.82390216 C7.80297706,9.76042125 7.86814932,9.46390203 7.83296201,9.35543003 C7.78348123,9.27895628 7.7442686,9.26683993 7.69486817,9.33188149 C7.59052345,9.54103217 7.54709671,9.39795621 7.53794535,9.28106821 C7.52195097,9.05940458 7.5436989,8.85527098 7.56807492,8.69361399 C7.58105233,8.6107628 7.58057186,8.58175893 7.57058572,8.58206828 L7.5705817,8.58202267 Z M15.6115601,9.06945262 C15.594009,9.06852456 15.575293,9.07123338 15.5563226,9.08060719 C15.5525986,9.08060719 15.387364,9.19092341 15.334119,9.26775808 C15.3016446,9.29214346 15.3053268,9.31334012 15.3152881,9.35575723 C15.3405953,9.41320178 15.3851927,9.39517441 15.4358063,9.3681512 C15.5029832,9.35911649 15.5354669,9.40254495 15.5299632,9.4821757 C15.4989466,9.58147418 15.5437722,9.61846968 15.5437726,9.6247083 C15.5437726,9.63094455 15.6084548,9.68575405 15.6843772,9.64205986 C15.8446424,9.58165662 15.9445159,9.5229112 16.168941,9.47473932 C16.2278584,9.47358122 16.2244517,9.31793679 16.131279,9.31237636 C16.0097243,9.31841272 15.897558,9.32454268 15.7759992,9.41896448 C15.7012096,9.43603405 15.6884026,9.39109293 15.6717992,9.35079568 C15.6528087,9.250819 15.7145631,9.18034987 15.7019287,9.10539512 C15.7052992,9.10869093 15.6641937,9.0722372 15.61154,9.06945262 L15.6115601,9.06945262 Z M20.7601002,9.25907834 C20.7302832,9.25999846 20.698885,9.26407638 20.6533934,9.26775411 C20.6041978,9.27806827 20.58702,9.29934624 20.5780695,9.35822809 C20.5815926,9.44753208 20.6369185,9.44310991 20.6935661,9.47844759 C20.7263652,9.51966299 20.7477029,9.55697577 20.6910553,9.62469641 C20.6373644,9.67326489 20.59912,9.70006759 20.5454291,9.74863608 C20.5200801,9.79133082 20.5042922,9.85690581 20.5818357,9.87753334 C20.7250114,9.91726939 21.0563562,9.70473566 21.0563562,9.70029762 C21.1100471,9.66056157 21.0922357,9.58503571 21.0877412,9.58503571 C21.0564418,9.54969724 20.9858068,9.57092206 20.9383468,9.56520536 C20.915752,9.56520536 20.8415626,9.55436253 20.8768342,9.48960415 C20.906272,9.44930888 20.9171315,9.4252269 20.9370934,9.37557965 C20.9594447,9.32701116 20.939797,9.29425539 20.8592587,9.26775015 C20.8182423,9.26039467 20.7899004,9.25815504 20.7600802,9.25907437 L20.7601002,9.25907834 Z M18.609251,13.5582977 C18.6089296,13.5584564 18.608311,13.559321 18.6079976,13.5595351 C18.3698656,13.619859 18.3772734,13.863927 18.5301629,13.9710148 C16.0155895,13.9710148 12.1567555,13.9288754 11.3291968,13.9288754 C10.8662058,13.9288754 9.40142684,13.8743419 9.37326574,13.8743419 C9.6874006,14.3279413 10.1424535,14.420311 10.737894,14.4295916 C11.8547769,14.4295916 17.0297507,14.4159583 18.5024839,14.4159583 C18.3977856,14.5994881 18.5119827,14.8948215 18.594126,14.9489187 C18.5958695,14.9500252 18.5986932,14.9517544 18.600403,14.9526349 C18.6034681,14.954142 18.6075107,14.9556055 18.6104461,14.9563511 C18.6114183,14.9565891 18.6132582,14.9562321 18.6142103,14.9563511 C18.7117136,14.9790569 18.7546181,14.9093691 18.7874553,14.8584368 C18.9456235,14.8722002 19.8358437,14.8849131 19.917314,14.8571994 C19.9175952,14.8570804 19.9182983,14.856073 19.9185674,14.855962 C19.9736764,14.9360329 20.0283676,15.0116857 20.1332426,14.9984946 C20.3167919,14.9596382 20.4613495,14.9399157 20.4659212,14.5721421 C20.4659212,14.5721421 20.4471589,13.9454238 20.0302879,13.9846879 C19.9316517,13.9993988 19.6549217,14.0268274 19.6549217,14.0268274 C19.3346725,13.9892104 19.0997744,13.9853661 18.7397462,13.9722939 C18.7729783,13.9306422 18.8316534,13.7619574 18.7598325,13.700864 C18.7411032,13.6854888 18.7131639,13.676928 18.6744654,13.6797943 C18.6741842,13.6798141 18.6734852,13.6797911 18.6732121,13.6797943 C18.6726657,13.6797673 18.6712356,13.6798736 18.6707013,13.6797943 C18.67042,13.679715 18.669705,13.6786322 18.6694479,13.6785569 C18.6684154,13.6781999 18.6666679,13.6779183 18.6656837,13.6773195 C18.6637313,13.6760107 18.6611952,13.6732368 18.6594067,13.6711225 C18.6589648,13.6705712 18.6573298,13.6692386 18.6568959,13.6686437 C18.6386888,13.6424728 18.6287476,13.5783085 18.6167231,13.5620556 C18.6165624,13.5618969 18.6156104,13.5609808 18.6154697,13.5608182 C18.6153091,13.5606992 18.614361,13.5596997 18.6142164,13.5595807 C18.6137785,13.5593031 18.6121515,13.5584821 18.6117056,13.5583433 C18.6115449,13.5583291 18.6106008,13.5583409 18.6104522,13.5583433 C18.6102915,13.5583794 18.6093514,13.5583037 18.6091988,13.5583433 L18.609251,13.5582977 Z M18.7799852,14.4543915 C18.7804231,14.4541932 18.7807967,14.4545898 18.7812386,14.4543915 C19.1480922,14.4720607 19.4927784,14.4577904 19.859636,14.4754612 C19.917778,14.5242558 19.888699,14.6360236 19.8508482,14.6564131 C19.8491529,14.65725 19.846293,14.6584358 19.8445712,14.6588919 C19.8431893,14.6592092 19.8409356,14.6588523 19.8395496,14.6588919 C19.8381637,14.6588642 19.835914,14.6592092 19.834528,14.6588919 C19.7152391,14.6559332 19.6462424,14.653174 19.5269574,14.6502162 C19.5267565,14.6443575 19.5260937,14.6380375 19.5244466,14.6328646 C19.4961766,14.5501483 19.2914125,14.5556809 19.2432373,14.6204706 C19.2425705,14.6214027 19.2413291,14.623231 19.2407265,14.6241868 C19.2399552,14.6254758 19.2388665,14.6278158 19.2382157,14.6291444 C19.2374404,14.6308181 19.2362794,14.6336015 19.2357049,14.6353414 C19.2349537,14.6377964 19.234785,14.6414381 19.2344515,14.6440172 C19.2341302,14.6469838 19.232929,14.6508043 19.2331981,14.6539324 C19.0721616,14.6730409 18.9272264,14.6486539 18.7661899,14.6427778 C18.7189427,14.5847106 18.7244584,14.4796375 18.7799993,14.4543895 L18.7799852,14.4543915 Z" id="Shape" fill="#FFFFFF"></path>
            </g>
            <rect id="Rectangle-2-Copy-26" stroke="#AAAAAA" stroke-width="0.5" x="0.25" y="0.25" width="29.5" height="19.5"></rect>
        </g>
    </g>
</svg>