<?xml version="1.0" encoding="UTF-8"?>
<svg width="30px" height="20px" viewBox="0 0 30 20" version="1.1" xmlns="http://www.w3.org/2000/svg" xmlns:xlink="http://www.w3.org/1999/xlink">
    <!-- Generator: Sketch 52.1 (67048) - http://www.bohemiancoding.com/sketch -->
    <title>Slovakia</title>
    <g id="Slovakia" stroke="none" stroke-width="1" fill="none" fill-rule="evenodd">
        <rect fill="#FFFFFF" x="0" y="0" width="30" height="20"></rect>
        <g id="slovakia">
            <g fill-rule="nonzero">
                <rect id="Rectangle-path" fill="#FFFFFF" x="0" y="0.0197076023" width="30" height="19.9605848"></rect>
                <rect id="Rectangle-path" fill="#0052B4" x="0" y="6.52871345" width="30" height="6.94251462"></rect>
                <polygon id="Rectangle-path" fill="#D80027" points="0 13.4712865 30 13.4712865 30 19.9802924 0 19.9802924"></polygon>
                <path d="M7.58601562,5.66076023 L7.58601562,10.6394737 C7.58601562,13.4715789 11.2930664,14.3392982 11.2930664,14.3392982 C11.2930664,14.3392982 15,13.471462 15,10.6394737 L15,5.66076023 L7.58601562,5.66076023 Z" id="Shape" fill="#F0F0F0"></path>
                <path d="M8.56207031,5.80666667 L8.56207031,10.598538 C8.56207031,10.918538 8.63326172,11.2207602 8.77435547,11.5040936 C10.1741602,11.5040936 12.2664844,11.5040936 13.8116602,11.5040936 C13.9527539,11.2208187 14.0239453,10.9185965 14.0239453,10.598538 L14.0239453,5.80666667 L8.56207031,5.80666667 Z" id="Shape" fill="#D80027"></path>
                <polygon id="Shape" fill="#F0F0F0" points="12.9668555 9.14777778 11.7114844 9.14777778 11.7114844 8.31251462 12.5484375 8.31251462 12.5484375 7.47725146 11.7114844 7.47725146 11.7114844 6.64192982 10.8745898 6.64192982 10.8745898 7.47725146 10.0377539 7.47725146 10.0377539 8.31251462 10.8745898 8.31251462 10.8745898 9.14777778 9.61916016 9.14777778 9.61916016 9.98309942 10.8745898 9.98309942 10.8745898 10.8183626 11.7114844 10.8183626 11.7114844 9.98309942 12.9668555 9.98309942"></polygon>
                <path d="M9.9159375,12.6700585 C10.4552344,13.0082456 11.0092969,13.2047368 11.2930078,13.2920468 C11.5767188,13.2046784 12.1307813,13.0083041 12.6700781,12.6700585 C13.2139453,12.3289474 13.5952734,11.9387135 13.8117188,11.5040351 C13.5729492,11.3354386 13.2816211,11.2360234 12.9669141,11.2360234 C12.8523047,11.2360234 12.7409766,11.2495906 12.6339844,11.2744444 C12.407168,10.7600585 11.8923047,10.4007602 11.293125,10.4007602 C10.6938867,10.4007602 10.179082,10.7600585 9.95226563,11.2744444 C9.84521484,11.2495906 9.73382813,11.2360234 9.61933594,11.2360234 C9.30457031,11.2360234 9.01324219,11.3354971 8.77453125,11.5040351 C8.99080078,11.9387135 9.37207031,12.3289474 9.9159375,12.6700585 Z" id="Shape" fill="#0052B4"></path>
            </g>
            <rect id="Rectangle-2-Copy-15" stroke="#AAAAAA" stroke-width="0.5" x="0.25" y="0.25" width="29.5" height="19.5"></rect>
        </g>
    </g>
</svg>