<svg width="30" height="20" xmlns="http://www.w3.org/2000/svg">
	<g fill="none" fill-rule="evenodd">
		<path fill="#FFF" d="M0 0h30v20H0z"/>
		<g fill-rule="nonzero">
			<path fill="#FFF" d="M0 .02h30v19.961H0z"/>
			<path fill="#0052B4" d="M0 6.529h30v6.943H0z"/>
			<path fill="#D80027" d="M0 13.471h30v6.51H0z"/>
			<path d="M7.586 5.66v4.98c0 2.832 3.707 3.7 3.707 3.7S15 13.47 15 10.64V5.66H7.586z" fill="#F0F0F0"/>
			<path d="M8.562 5.807v4.792c0 .32.071.622.212.905h5.038c.14-.283.212-.585.212-.905V5.807H8.562z" fill="#D80027"/>
			<path fill="#F0F0F0" d="M12.967 9.148H11.71v-.835h.837v-.836h-.837v-.835h-.836v.835h-.837v.836h.837v.835H9.619v.835h1.256v.835h.836v-.835h1.256z"/>
			<path d="M9.916 12.67c.54.338 1.093.535 1.377.622a6.019 6.019 0 0 0 1.377-.622c.544-.341.925-.731 1.142-1.166a1.46 1.46 0 0 0-1.178-.23 1.465 1.465 0 0 0-2.682 0 1.47 1.47 0 0 0-1.177.23c.216.435.597.825 1.14 1.166z" fill="#0052B4"/>
		</g>
		<path stroke="#AAA" stroke-width=".5" d="M.25.25h29.5v19.5H.25z"/>
	</g>
</svg>