<svg width="30" height="20" xmlns="http://www.w3.org/2000/svg" xmlns:xlink="http://www.w3.org/1999/xlink">
	<defs>
		<path id="a" d="M0 0h30v20H0z"/>
	</defs>
	<g fill="none" fill-rule="evenodd">
		<path fill="#FFF" d="M0 0h30v20H0z"/>
		<mask id="b" fill="#fff">
			<use xlink:href="#a"/>
		</mask>
		<g mask="url(#b)">
			<g transform="translate(-2 -1)" fill-rule="nonzero">
				<path d="M.578 21.982h32.368c.319 0 .578-.259.578-.578V.596a.578.578 0 0 0-.578-.578H.578A.578.578 0 0 0 0 .596v20.808c0 .32.259.578.578.578z" fill="#B5002A"/>
				<path fill="#F4C327" d="M0 4.642h33.524v12.716H0z"/>
				<path d="M14.16 11l.491-2.205a.325.325 0 0 0-.317-.396h-.346a.325.325 0 0 0-.317.396L14.16 11z" fill="#B5002A"/>
				<path fill="#F5F5F5" d="M13.583 9.844h1.156v4.912h-1.156z"/>
				<path fill="#FAB446" d="M13.294 9.266h1.734v.578h-1.734z"/>
				<g fill="#B5002A">
					<path d="M12.138 11h2.89v.578h-2.89zM15.028 13.312l-1.734-.578v-.578l1.734.578zM5.491 11l.49-2.205a.325.325 0 0 0-.317-.396h-.346a.325.325 0 0 0-.317.396L5.49 11z"/>
				</g>
				<path d="M7.514 9.266a.578.578 0 0 0-.578.578v3.757c0 .702.655 2.023 2.89 2.023 2.235 0 2.89-1.32 2.89-2.023V9.844a.578.578 0 0 0-.578-.578H7.514z" fill="#F5F5F5"/>
				<g fill="#B5002A">
					<path d="M9.826 12.156h-2.89V9.844c0-.32.259-.578.578-.578h2.312v2.89zM9.826 12.156h2.89v1.445a1.445 1.445 0 1 1-2.89 0v-1.445z"/>
				</g>
				<path d="M6.936 12.156h2.89v1.445a1.445 1.445 0 1 1-2.89 0v-1.445z" fill="#FAB446"/>
				<g fill="#B5002A">
					<path d="M9.248 14.75v-2.594H8.67v2.86a1.43 1.43 0 0 0 .578-.265zM8.092 15.017v-2.861h-.578v2.595c.169.127.363.222.578.266z"/>
				</g>
				<path fill="#FFB441" d="M7.514 11h1.734v.578H7.514z"/>
				<g fill="#FAB446">
					<path d="M7.514 9.844h1.734v.578H7.514z"/>
					<path d="M7.803 10.188h1.156v1.047H7.803z"/>
				</g>
				<path fill="#F5F5F5" d="M4.913 9.844h1.156v4.912H4.913z"/>
				<g fill="#FAB446">
					<path d="M4.624 14.468h1.734v.578H4.624zM4.624 9.266h1.734v.578H4.624z"/>
				</g>
				<path fill="#5064AA" d="M4.335 15.046h2.312v.578H4.335z"/>
				<path fill="#FAB446" d="M13.583 14.468h1.734v.578h-1.734z"/>
				<path fill="#5064AA" d="M13.005 15.046h2.312v.578h-2.312z"/>
				<path fill="#FAB446" d="M8.092 8.688h3.468v.578H8.092z"/>
				<path fill="#FFB441" d="M9.537 6.954h.578v1.734h-.578z"/>
				<g fill="#F5F5F5">
					<path d="M9.248 7.821a.868.868 0 0 1 0-1.734.868.868 0 0 1 0 1.734zm0-1.156a.29.29 0 1 0 0 .578.29.29 0 0 0 0-.578z"/>
					<path d="M10.404 7.821a.868.868 0 0 1 0-1.734.868.868 0 0 1 0 1.734zm0-1.156a.29.29 0 1 0 0 .578.29.29 0 0 0 0-.578z"/>
					<path d="M11.56 8.4a.868.868 0 0 1 0-1.735.868.868 0 0 1 0 1.734zm0-1.157a.29.29 0 1 0 0 .579.29.29 0 0 0 0-.579zM8.092 8.4a.868.868 0 0 1 0-1.735.868.868 0 0 1 0 1.734zm0-1.157a.29.29 0 1 0 0 .579.29.29 0 0 0 0-.579z"/>
				</g>
				<path d="M11.56 13.312v.289a.29.29 0 0 1-.578 0v-.289h.578zm.578-.578h-1.734v.867a.868.868 0 0 0 1.734 0v-.867z" fill="#FAB446"/>
				<path d="M11.27 11.578a.578.578 0 0 1-.577-.578v-.578a.578.578 0 0 1 1.156 0V11c0 .32-.259.578-.578.578z" fill="#FFA0D2"/>
				<circle fill="#5064AA" cx="9.826" cy="12.156" r="1"/>
				<path fill="#FAB446" d="M9.537 5.798h.578v1.734h-.578z"/>
				<path d="M8.092 8.688l-.578-.578.338-.338a2.79 2.79 0 0 1 3.947 0l.339.338-.578.578H8.092z" fill="#B5002A"/>
				<g transform="translate(8.315 7.792)" fill="#FFD250">
					<circle cx="1.511" cy=".318" r="1"/>
					<circle cx=".354" cy=".318" r="1"/>
					<circle cx="2.666" cy=".318" r="1"/>
				</g>
				<g fill="#B5002A">
					<path d="M4.624 11h2.89v.578h-2.89zM4.624 13.312l1.734-.578v-.578l-1.734.578z"/>
				</g>
			</g>
		</g>
		<path stroke="#AAA" stroke-width=".5" d="M.25.25h29.5v19.5H.25z"/>
	</g>
</svg>