<?xml version="1.0" encoding="UTF-8"?>
<svg width="30px" height="20px" viewBox="0 0 30 20" version="1.1" xmlns="http://www.w3.org/2000/svg" xmlns:xlink="http://www.w3.org/1999/xlink">
    <!-- Generator: Sketch 52.1 (67048) - http://www.bohemiancoding.com/sketch -->
    <title>Spain</title>
    <defs>
        <rect id="path-1" x="0" y="0" width="30" height="20"></rect>
    </defs>
    <g id="Spain" stroke="none" stroke-width="1" fill="none" fill-rule="evenodd">
        <rect fill="#FFFFFF" x="0" y="0" width="30" height="20"></rect>
        <g>
            <g id="spain">
                <mask id="mask-2" fill="white">
                    <use xlink:href="#path-1"></use>
                </mask>
                <g id="Mask"></g>
                <g mask="url(#mask-2)">
                    <g transform="translate(-2.000000, -1.000000)">
                        <path d="M0.57802381,21.981994 L32.9458512,21.981994 C33.2650476,21.981994 33.523875,21.7231667 33.523875,21.4039702 L33.523875,0.596095238 C33.523875,0.27689881 33.2650476,0.0180714286 32.9458512,0.0180714286 L0.57802381,0.0180714286 C0.258827381,0.0181369048 0,0.27689881 0,0.596095238 L0,21.4039702 C0,21.7232321 0.258827381,21.981994 0.57802381,21.981994 Z" id="Shape" fill="#B5002A" fill-rule="nonzero"></path>
                        <rect id="Rectangle-path" fill="#F4C327" fill-rule="nonzero" x="0" y="4.64232738" width="33.5238095" height="12.716131"></rect>
                        <path d="M14.1609286,11.0000655 L14.6510179,8.7947619 C14.6961964,8.59165476 14.5416071,8.39902381 14.3335238,8.39902381 L13.9883333,8.39902381 C13.7803155,8.39902381 13.6257917,8.59165476 13.6708393,8.7947619 L14.1609286,11.0000655 Z" id="Shape" fill="#B5002A" fill-rule="nonzero"></path>
                        <polygon id="Rectangle-path" fill="#F5F5F5" fill-rule="nonzero" points="13.5830357 9.84375595 14.7390179 9.84375595 14.7390179 14.7564345 13.5830357 14.7564345"></polygon>
                        <polygon id="Rectangle-path" fill="#FAB446" fill-rule="nonzero" points="13.293631 9.26625595 15.0276369 9.26625595 15.0276369 9.84427976 13.293631 9.84427976"></polygon>
                        <g id="Group" stroke-width="1" fill="none" fill-rule="evenodd" transform="translate(4.976190, 8.380952)">
                            <polygon id="Rectangle-path" fill="#B5002A" fill-rule="nonzero" points="7.16178571 2.6191131 10.0519048 2.6191131 10.0519048 3.1971369 7.16178571 3.1971369"></polygon>
                            <polygon id="Shape" fill="#B5002A" fill-rule="nonzero" points="10.0517083 4.93107738 8.31770238 4.35311905 8.31770238 3.77509524 10.0517083 4.35311905"></polygon>
                            <path d="M0.51477381,2.6191131 L1.0048631,0.413809524 C1.05004167,0.210702381 0.895452381,0.0180714286 0.687369048,0.0180714286 L0.342178571,0.0180714286 C0.134160714,0.0180714286 -0.0203630952,0.210702381 0.0246845238,0.413809524 L0.51477381,2.6191131 Z" id="Shape" fill="#B5002A" fill-rule="nonzero"></path>
                        </g>
                        <path d="M7.51398214,9.26605952 C7.19478571,9.26605952 6.93595833,9.5248869 6.93595833,9.84408333 L6.93595833,13.6010417 C6.93595833,14.3032738 7.591375,15.6240595 9.82594643,15.6240595 C12.0605179,15.6240595 12.7159345,14.3033393 12.7159345,13.6010417 L12.7159345,9.84408333 C12.7159345,9.5248869 12.4571071,9.26605952 12.1379107,9.26605952 L7.51398214,9.26605952 Z" id="Shape" fill="#F5F5F5" fill-rule="nonzero"></path>
                        <g id="Group" stroke-width="1" fill="none" fill-rule="evenodd" transform="translate(6.875000, 9.232143)">
                            <path d="M2.95094643,2.92390476 L0.0609583333,2.92390476 L0.0609583333,0.611940476 C0.0609583333,0.292744048 0.319785714,0.0339166667 0.638982143,0.0339166667 L2.95094643,0.0339166667 L2.95094643,2.92390476 Z" id="Shape" fill="#B5002A" fill-rule="nonzero"></path>
                            <path d="M2.95094643,2.92390476 L5.84093452,2.92390476 L5.84093452,4.36889881 C5.84093452,5.1669881 5.19402976,5.81389286 4.39594048,5.81389286 C3.59785119,5.81389286 2.95094643,5.1669881 2.95094643,4.36889881 L2.95094643,2.92390476 Z" id="Shape" fill="#B5002A" fill-rule="nonzero"></path>
                        </g>
                        <path d="M6.93595833,12.1560476 L9.82594643,12.1560476 L9.82594643,13.6010417 C9.82594643,14.399131 9.17904167,15.0460357 8.38095238,15.0460357 C7.5828631,15.0460357 6.93595833,14.399131 6.93595833,13.6010417 L6.93595833,12.1560476 Z" id="Shape" fill="#FAB446" fill-rule="nonzero"></path>
                        <g id="Group" stroke-width="1" fill="none" fill-rule="evenodd" transform="translate(7.464286, 12.113095)">
                            <path d="M1.7836369,2.63744643 L1.7836369,0.042952381 L1.2056131,0.042952381 L1.2056131,2.90380357 C1.4206369,2.86019643 1.61490476,2.76499405 1.7836369,2.63744643 Z" id="Shape" fill="#B5002A" fill-rule="nonzero"></path>
                            <path d="M0.627654762,2.90380357 L0.627654762,0.042952381 L0.0496309524,0.042952381 L0.0496309524,2.63744643 C0.218428571,2.76499405 0.412696429,2.86019643 0.627654762,2.90380357 Z" id="Shape" fill="#B5002A" fill-rule="nonzero"></path>
                        </g>
                        <polygon id="Rectangle-path" fill="#FFB441" fill-rule="nonzero" points="7.51404762 11.0000655 9.24805357 11.0000655 9.24805357 11.5780893 7.51404762 11.5780893"></polygon>
                        <g id="Group" stroke-width="1" fill="none" fill-rule="evenodd" transform="translate(7.464286, 9.821429)">
                            <polygon id="Rectangle-path" fill="#FAB446" fill-rule="nonzero" points="0.0497619048 0.022327381 1.78376786 0.022327381 1.78376786 0.60035119 0.0497619048 0.60035119"></polygon>
                            <polygon id="Rectangle-path" fill="#FAB446" fill-rule="nonzero" points="0.338511905 0.366077381 1.49449405 0.366077381 1.49449405 1.41317262 0.338511905 1.41317262"></polygon>
                        </g>
                        <polygon id="Rectangle-path" fill="#F5F5F5" fill-rule="nonzero" points="4.91267857 9.84375595 6.06866071 9.84375595 6.06866071 14.7564345 4.91267857 14.7564345"></polygon>
                        <g id="Group" stroke-width="1" fill="none" fill-rule="evenodd" transform="translate(4.583333, 9.232143)">
                            <polygon id="Rectangle-path" fill="#FAB446" fill-rule="nonzero" points="0.0405952381 5.23619643 1.77460119 5.23619643 1.77460119 5.81422024 0.0405952381 5.81422024"></polygon>
                            <polygon id="Rectangle-path" fill="#FAB446" fill-rule="nonzero" points="0.0405952381 0.0341130952 1.77460119 0.0341130952 1.77460119 0.612136905 0.0405952381 0.612136905"></polygon>
                        </g>
                        <polygon id="Rectangle-path" fill="#5064AA" fill-rule="nonzero" points="4.33517857 15.0458393 6.64714286 15.0458393 6.64714286 15.6238631 4.33517857 15.6238631"></polygon>
                        <polygon id="Rectangle-path" fill="#FAB446" fill-rule="nonzero" points="13.5830357 14.4683393 15.3170417 14.4683393 15.3170417 15.0463631 13.5830357 15.0463631"></polygon>
                        <polygon id="Rectangle-path" fill="#5064AA" fill-rule="nonzero" points="13.004881 15.0458393 15.3168452 15.0458393 15.3168452 15.6238631 13.004881 15.6238631"></polygon>
                        <polygon id="Rectangle-path" fill="#FAB446" fill-rule="nonzero" points="8.09220238 8.68810119 11.5602143 8.68810119 11.5602143 9.266125 8.09220238 9.266125"></polygon>
                        <polygon id="Rectangle-path" fill="#FFB441" fill-rule="nonzero" points="9.5372619 6.95429167 10.1152857 6.95429167 10.1152857 8.68829762 9.5372619 8.68829762"></polygon>
                        <g id="Group" stroke-width="1" fill="none" fill-rule="evenodd" transform="translate(7.202381, 6.023810)">
                            <path d="M2.04554167,1.79725595 C1.56743452,1.79725595 1.17857143,1.40832738 1.17857143,0.930285714 C1.17857143,0.452178571 1.5675,0.0633154762 2.04554167,0.0633154762 C2.52364881,0.0633154762 2.9125119,0.452244048 2.9125119,0.930285714 C2.91257738,1.40832738 2.52364881,1.79725595 2.04554167,1.79725595 Z M2.04554167,0.64127381 C1.88610714,0.64127381 1.75652976,0.770785714 1.75652976,0.930285714 C1.75652976,1.08972024 1.88604167,1.21929762 2.04554167,1.21929762 C2.20504167,1.21929762 2.33455357,1.08978571 2.33455357,0.930285714 C2.33455357,0.77085119 2.20504167,0.64127381 2.04554167,0.64127381 Z" id="Shape" fill="#F5F5F5" fill-rule="nonzero"></path>
                            <path d="M3.20158929,1.79725595 C2.72348214,1.79725595 2.33461905,1.40832738 2.33461905,0.930285714 C2.33461905,0.452178571 2.72354762,0.0633154762 3.20158929,0.0633154762 C3.67969643,0.0633154762 4.06855952,0.452244048 4.06855952,0.930285714 C4.06855952,1.40832738 3.67963095,1.79725595 3.20158929,1.79725595 Z M3.20158929,0.64127381 C3.04215476,0.64127381 2.91257738,0.770785714 2.91257738,0.930285714 C2.91257738,1.08972024 3.04208929,1.21929762 3.20158929,1.21929762 C3.36102381,1.21929762 3.49060119,1.08978571 3.49060119,0.930285714 C3.49053571,0.77085119 3.36102381,0.64127381 3.20158929,0.64127381 Z" id="Shape" fill="#F5F5F5" fill-rule="nonzero"></path>
                            <path d="M4.35757143,2.37527976 C3.87946429,2.37527976 3.49060119,1.98635119 3.49060119,1.50830952 C3.49060119,1.03020238 3.87952976,0.641339286 4.35757143,0.641339286 C4.83567857,0.641339286 5.22454167,1.03026786 5.22454167,1.50830952 C5.22454167,1.98635119 4.8356131,2.37527976 4.35757143,2.37527976 Z M4.35757143,1.21929762 C4.1981369,1.21929762 4.06855952,1.34880952 4.06855952,1.50830952 C4.06855952,1.66774405 4.19807143,1.79732143 4.35757143,1.79732143 C4.51700595,1.79732143 4.64658333,1.66780952 4.64658333,1.50830952 C4.64658333,1.34880952 4.51700595,1.21929762 4.35757143,1.21929762 Z" id="Shape" fill="#F5F5F5" fill-rule="nonzero"></path>
                            <path d="M0.889559524,2.37527976 C0.411452381,2.37527976 0.0225892857,1.98635119 0.0225892857,1.50830952 C0.0225892857,1.03020238 0.411517857,0.641339286 0.889559524,0.641339286 C1.36766667,0.641339286 1.75652976,1.03026786 1.75652976,1.50830952 C1.75659524,1.98635119 1.36766667,2.37527976 0.889559524,2.37527976 Z M0.889559524,1.21929762 C0.730125,1.21929762 0.600547619,1.34880952 0.600547619,1.50830952 C0.600547619,1.66774405 0.730059524,1.79732143 0.889559524,1.79732143 C1.04905952,1.79732143 1.17857143,1.66774405 1.17857143,1.50824405 C1.17857143,1.34880952 1.04905952,1.21929762 0.889559524,1.21929762 Z" id="Shape" fill="#F5F5F5" fill-rule="nonzero"></path>
                        </g>
                        <path d="M11.5599524,13.3120298 L11.5599524,13.6010417 C11.5599524,13.7604107 11.4303095,13.8900536 11.2709405,13.8900536 C11.1115714,13.8900536 10.9819286,13.7604107 10.9819286,13.6010417 L10.9819286,13.3120298 L11.5599524,13.3120298 Z M12.1379107,12.7340714 L10.4039048,12.7340714 L10.4039048,13.6010417 C10.4039048,14.0791488 10.7928333,14.4680119 11.270875,14.4680119 C11.7489821,14.4680119 12.1378452,14.0790833 12.1378452,13.6010417 L12.1378452,12.7340714 L12.1379107,12.7340714 Z" id="Shape" fill="#FAB446" fill-rule="nonzero"></path>
                        <path d="M11.2709405,11.5780893 C10.951744,11.5780893 10.6929167,11.3192619 10.6929167,11.0000655 L10.6929167,10.4220417 C10.6929167,10.1028452 10.951744,9.84401786 11.2709405,9.84401786 C11.5901369,9.84401786 11.8489643,10.1028452 11.8489643,10.4220417 L11.8489643,11.0000655 C11.8489643,11.3192619 11.5901369,11.5780893 11.2709405,11.5780893 Z" id="Shape" fill="#FFA0D2" fill-rule="nonzero"></path>
                        <circle id="Oval" fill="#5064AA" fill-rule="nonzero" cx="9.8260119" cy="12.1557202" r="1"></circle>
                        <polygon id="Rectangle-path" fill="#FAB446" fill-rule="nonzero" points="9.5372619 5.79798214 10.1152857 5.79798214 10.1152857 7.5319881 9.5372619 7.5319881"></polygon>
                        <path d="M8.09194048,8.68810119 L7.51391667,8.11007738 L7.85249405,7.7715 C8.37584524,7.24814881 9.0857381,6.95409524 9.82594643,6.95409524 C10.5661548,6.95409524 11.2759821,7.24814881 11.7993988,7.7715 L12.1379762,8.11007738 L11.5599524,8.68810119 L8.09194048,8.68810119 Z" id="Shape" fill="#B5002A" fill-rule="nonzero"></path>
                        <g id="Group" stroke-width="1" fill="none" fill-rule="evenodd" transform="translate(8.315476, 7.791667)">
                            <circle id="Oval" fill="#FFD250" fill-rule="nonzero" cx="1.51053571" cy="0.318279762" r="1"></circle>
                            <circle id="Oval" fill="#FFD250" fill-rule="nonzero" cx="0.35422619" cy="0.318279762" r="1"></circle>
                            <circle id="Oval" fill="#FFD250" fill-rule="nonzero" cx="2.66619048" cy="0.318279762" r="1"></circle>
                        </g>
                        <g id="Group" stroke-width="1" fill="none" fill-rule="evenodd" transform="translate(4.583333, 11.000000)">
                            <polygon id="Rectangle-path" fill="#B5002A" fill-rule="nonzero" points="0.0405952381 6.54761905e-05 2.93071429 6.54761905e-05 2.93071429 0.578089286 0.0405952381 0.578089286"></polygon>
                            <polygon id="Shape" fill="#B5002A" fill-rule="nonzero" points="0.0406607143 2.31202976 1.77460119 1.73407143 1.77460119 1.15604762 0.0406607143 1.73407143"></polygon>
                        </g>
                    </g>
                </g>
            </g>
            <rect id="Rectangle-2-Copy-31" stroke="#AAAAAA" stroke-width="0.5" x="0.25" y="0.25" width="29.5" height="19.5"></rect>
        </g>
    </g>
</svg>