<svg width="30" height="20" xmlns="http://www.w3.org/2000/svg" xmlns:xlink="http://www.w3.org/1999/xlink">
	<defs>
		<path id="a" d="M0 0h30v20H0z"/>
	</defs>
	<g fill="none" fill-rule="evenodd">
		<path fill="#FFF" d="M0 0h30v20H0z"/>
		<mask id="b" fill="#fff">
			<use xlink:href="#a"/>
		</mask>
		<g mask="url(#b)" fill-rule="nonzero">
			<path fill="#CB001C" d="M0 18.427h34v1.533H0z"/>
			<path fill="#FFF" d="M0 16.893h34v1.533H0z"/>
			<path fill="#CB001C" d="M0 15.36h34v1.533H0z"/>
			<path fill="#FFF" d="M0 13.827h34v1.533H0z"/>
			<path fill="#CB001C" d="M0 12.3h34v1.533H0z"/>
			<path fill="#FFF" d="M0 10.767h34V12.3H0z"/>
			<path fill="#CB001C" d="M0 9.233h34v1.533H0z"/>
			<path fill="#FFF" d="M0 7.7h34v1.533H0z"/>
			<path fill="#CB001C" d="M0 6.173h34v1.533H0z"/>
			<path fill="#FFF" d="M0 4.64h34v1.533H0z"/>
			<path fill="#CB001C" d="M0 3.107h34V4.64H0z"/>
			<path fill="#FFF" d="M0 1.573h34v1.533H0z"/>
			<path fill="#CB001C" d="M0 .047h34V1.58H0z"/>
			<path fill="#2A3560" d="M0 .047h15.526v10.72H0z"/>
			<path fill="#FFF" d="M1.401 1.227l.133.406h.418l-.338.247.126.407-.339-.254-.345.254.133-.407-.346-.247h.425zM1.401 3.013l.133.407h.418l-.338.253.126.4-.339-.246-.345.246.133-.4-.346-.253h.425zM1.401 4.807l.133.406h.418l-.338.247.126.407-.339-.254-.345.254.133-.407-.346-.247h.425zM1.401 6.593L1.534 7h.418l-.338.253.126.4-.339-.246-.345.246.133-.4L.843 7h.425zM1.401 8.387l.133.4h.418l-.338.253.126.407-.339-.254-.345.254.133-.407-.346-.253h.425zM2.643 2.167l.133.406h.418l-.339.254.127.4-.339-.247-.345.247.132-.4-.345-.254h.425zM2.643 3.96l.133.4h.418l-.339.253.127.407-.339-.253-.345.253.132-.407-.345-.253h.425zM2.643 5.747l.133.406h.418l-.339.254.127.4-.339-.247-.345.247.132-.4-.345-.254h.425zM2.643 7.54l.133.4h.418l-.339.253.127.407-.339-.253-.345.253.132-.407-.345-.253h.425zM3.898 1.227l.133.406h.425l-.345.247.132.407-.345-.254-.345.254.133-.407-.346-.247h.425zM3.898 3.013l.133.407h.425l-.345.253.132.4-.345-.246-.345.246.133-.4-.346-.253h.425zM3.898 4.807l.133.406h.425l-.345.247.132.407-.345-.254-.345.254.133-.407-.346-.247h.425zM3.898 6.593L4.031 7h.425l-.345.253.132.4-.345-.246-.345.246.133-.4L3.34 7h.425zM3.898 8.387l.133.4h.425l-.345.253.132.407-.345-.254-.345.254.133-.407-.346-.253h.425zM5.14 2.167l.133.406h.425l-.346.254.133.4-.345-.247-.345.247.132-.4-.345-.254h.425zM5.14 3.96l.133.4h.425l-.346.253.133.407-.345-.253-.345.253.132-.407-.345-.253h.425zM5.14 5.747l.133.406h.425l-.346.254.133.4-.345-.247-.345.247.132-.4-.345-.254h.425zM5.14 7.54l.133.4h.425l-.346.253.133.407-.345-.253-.345.253.132-.407-.345-.253h.425zM6.395 1.227l.133.406h.425l-.346.247.133.407-.345-.254-.339.254.133-.407-.345-.247h.425zM6.395 3.013l.133.407h.425l-.346.253.133.4-.345-.246-.339.246.133-.4-.345-.253h.425zM6.395 4.807l.133.406h.425l-.346.247.133.407-.345-.254-.339.254.133-.407-.345-.247h.425zM6.395 6.593L6.528 7h.425l-.346.253.133.4-.345-.246-.339.246.133-.4L5.844 7h.425zM6.395 8.387l.133.4h.425l-.346.253.133.407-.345-.254-.339.254.133-.407-.345-.253h.425zM7.637 2.167l.133.406h.425l-.346.254.133.4-.345-.247-.339.247.126-.4-.338-.254h.425zM7.637 3.96l.133.4h.425l-.346.253.133.407-.345-.253-.339.253.126-.407-.338-.253h.425zM7.637 5.747l.133.406h.425l-.346.254.133.4-.345-.247-.339.247.126-.4-.338-.254h.425zM7.637 7.54l.133.4h.425l-.346.253.133.407-.345-.253-.339.253.126-.407-.338-.253h.425zM8.898 1.227l.133.406h.419l-.34.247.127.407-.339-.254-.345.254.133-.407-.345-.247h.425zM8.898 3.013l.133.407h.419l-.34.253.127.4-.339-.246-.345.246.133-.4-.345-.253h.425zM8.898 4.807l.133.406h.419l-.34.247.127.407-.339-.254-.345.254.133-.407-.345-.247h.425zM8.898 6.593L9.031 7h.419l-.34.253.127.4-.339-.246-.345.246.133-.4L8.34 7h.425zM8.898 8.387l.133.4h.419l-.34.253.127.407-.339-.254-.345.254.133-.407-.345-.253h.425zM10.14 2.167l.126.406h.425l-.338.254.126.4-.339-.247-.345.247.133-.4-.346-.254h.425zM10.14 3.96l.126.4h.425l-.338.253.126.407-.339-.253-.345.253.133-.407-.346-.253h.425zM10.14 5.747l.126.406h.425l-.338.254.126.4-.339-.247-.345.247.133-.4-.346-.254h.425zM10.14 7.54l.126.4h.425l-.338.253.126.407-.339-.253-.345.253.133-.407-.346-.253h.425zM11.395 1.227l.133.406h.425l-.345.247.133.407-.346-.254-.345.254.133-.407-.345-.247h.425zM11.395 3.013l.133.407h.425l-.345.253.133.4-.346-.246-.345.246.133-.4-.345-.253h.425zM11.395 4.807l.133.406h.425l-.345.247.133.407-.346-.254-.345.254.133-.407-.345-.247h.425zM11.395 6.593l.133.407h.425l-.345.253.133.4-.346-.246-.345.246.133-.4L10.838 7h.425zM11.395 8.387l.133.4h.425l-.345.253.133.407-.346-.254-.345.254.133-.407-.345-.253h.425zM12.637 2.167l.133.406h.425l-.345.254.132.4-.345-.247-.345.247.133-.4-.346-.254h.425zM12.637 3.96l.133.4h.425l-.345.253.132.407-.345-.253-.345.253.133-.407-.346-.253h.425zM12.637 5.747l.133.406h.425l-.345.254.132.4-.345-.247-.345.247.133-.4-.346-.254h.425zM12.637 7.54l.133.4h.425l-.345.253.132.407-.345-.253-.345.253.133-.407-.346-.253h.425zM13.892 1.227l.133.406h.425l-.345.247.133.407-.346-.254-.338.254.126-.407-.339-.247h.425zM13.892 3.013l.133.407h.425l-.345.253.133.4-.346-.246-.338.246.126-.4-.339-.253h.425zM13.892 4.807l.133.406h.425l-.345.247.133.407-.346-.254-.338.254.126-.407-.339-.247h.425zM13.892 6.593l.133.407h.425l-.345.253.133.4-.346-.246-.338.246.126-.4L13.34 7h.425zM13.892 8.387l.133.4h.425l-.345.253.133.407-.346-.254-.338.254.126-.407-.339-.253h.425z"/>
		</g>
		<path stroke="#AAA" stroke-width=".5" d="M.25.25h29.5v19.5H.25z"/>
	</g>
</svg>