<?xml version="1.0" encoding="UTF-8"?>
<svg width="30px" height="20px" viewBox="0 0 30 20" version="1.1" xmlns="http://www.w3.org/2000/svg" xmlns:xlink="http://www.w3.org/1999/xlink">
    <!-- Generator: Sketch 52.1 (67048) - http://www.bohemiancoding.com/sketch -->
    <title>America</title>
    <defs>
        <rect id="path-1" x="0" y="0" width="30" height="20"></rect>
    </defs>
    <g id="America" stroke="none" stroke-width="1" fill="none" fill-rule="evenodd">
        <rect fill="#FFFFFF" x="0" y="0" width="30" height="20"></rect>
        <g id="Group-22">
            <g id="if_274_Ensign_Flag_Nation_states_2634451">
                <mask id="mask-2" fill="white">
                    <use xlink:href="#path-1"></use>
                </mask>
                <g id="Mask"></g>
                <g mask="url(#mask-2)" fill-rule="nonzero">
                    <rect id="Rectangle-path" fill="#CB001C" x="0" y="18.4266667" width="34" height="1.53333333"></rect>
                    <rect id="Rectangle-path" fill="#FFFFFF" x="0" y="16.8933333" width="34" height="1.53333333"></rect>
                    <rect id="Rectangle-path" fill="#CB001C" x="0" y="15.36" width="34" height="1.53333333"></rect>
                    <rect id="Rectangle-path" fill="#FFFFFF" x="0" y="13.8266667" width="34" height="1.53333333"></rect>
                    <rect id="Rectangle-path" fill="#CB001C" x="0" y="12.3" width="34" height="1.53333333"></rect>
                    <rect id="Rectangle-path" fill="#FFFFFF" x="0" y="10.7666667" width="34" height="1.53333333"></rect>
                    <rect id="Rectangle-path" fill="#CB001C" x="0" y="9.23333333" width="34" height="1.53333333"></rect>
                    <rect id="Rectangle-path" fill="#FFFFFF" x="0" y="7.7" width="34" height="1.53333333"></rect>
                    <rect id="Rectangle-path" fill="#CB001C" x="0" y="6.17333333" width="34" height="1.53333333"></rect>
                    <rect id="Rectangle-path" fill="#FFFFFF" x="0" y="4.64" width="34" height="1.53333333"></rect>
                    <rect id="Rectangle-path" fill="#CB001C" x="0" y="3.10666667" width="34" height="1.53333333"></rect>
                    <rect id="Rectangle-path" fill="#FFFFFF" x="0" y="1.57333333" width="34" height="1.53333333"></rect>
                    <polygon id="Rectangle-path" fill="#CB001C" points="0 0.0466666667 34 0.0466666667 34 1.58 0 1.58"></polygon>
                    <rect id="Rectangle-path" fill="#2A3560" x="0" y="0.0466666667" width="15.5257812" height="10.72"></rect>
                    <polygon id="Shape" fill="#FFFFFF" points="1.40117188 1.22666667 1.53398438 1.63333333 1.95234375 1.63333333 1.61367188 1.88 1.73984375 2.28666667 1.40117188 2.03333333 1.05585938 2.28666667 1.18867188 1.88 0.843359375 1.63333333 1.26835938 1.63333333"></polygon>
                    <polygon id="Shape" fill="#FFFFFF" points="1.40117188 3.01333333 1.53398438 3.42 1.95234375 3.42 1.61367188 3.67333333 1.73984375 4.07333333 1.40117188 3.82666667 1.05585938 4.07333333 1.18867188 3.67333333 0.843359375 3.42 1.26835938 3.42"></polygon>
                    <polygon id="Shape" fill="#FFFFFF" points="1.40117188 4.80666667 1.53398438 5.21333333 1.95234375 5.21333333 1.61367188 5.46 1.73984375 5.86666667 1.40117188 5.61333333 1.05585938 5.86666667 1.18867188 5.46 0.843359375 5.21333333 1.26835938 5.21333333"></polygon>
                    <polygon id="Shape" fill="#FFFFFF" points="1.40117188 6.59333333 1.53398438 7 1.95234375 7 1.61367188 7.25333333 1.73984375 7.65333333 1.40117188 7.40666667 1.05585938 7.65333333 1.18867188 7.25333333 0.843359375 7 1.26835938 7"></polygon>
                    <polygon id="Shape" fill="#FFFFFF" points="1.40117188 8.38666667 1.53398438 8.78666667 1.95234375 8.78666667 1.61367188 9.04 1.73984375 9.44666667 1.40117188 9.19333333 1.05585938 9.44666667 1.18867188 9.04 0.843359375 8.78666667 1.26835938 8.78666667"></polygon>
                    <polygon id="Shape" fill="#FFFFFF" points="2.64296875 2.16666667 2.77578125 2.57333333 3.19414062 2.57333333 2.85546875 2.82666667 2.98164062 3.22666667 2.64296875 2.98 2.29765625 3.22666667 2.43046875 2.82666667 2.08515625 2.57333333 2.51015625 2.57333333"></polygon>
                    <polygon id="Shape" fill="#FFFFFF" points="2.64296875 3.96 2.77578125 4.36 3.19414062 4.36 2.85546875 4.61333333 2.98164062 5.02 2.64296875 4.76666667 2.29765625 5.02 2.43046875 4.61333333 2.08515625 4.36 2.51015625 4.36"></polygon>
                    <polygon id="Shape" fill="#FFFFFF" points="2.64296875 5.74666667 2.77578125 6.15333333 3.19414062 6.15333333 2.85546875 6.40666667 2.98164062 6.80666667 2.64296875 6.56 2.29765625 6.80666667 2.43046875 6.40666667 2.08515625 6.15333333 2.51015625 6.15333333"></polygon>
                    <polygon id="Shape" fill="#FFFFFF" points="2.64296875 7.54 2.77578125 7.94 3.19414062 7.94 2.85546875 8.19333333 2.98164062 8.6 2.64296875 8.34666667 2.29765625 8.6 2.43046875 8.19333333 2.08515625 7.94 2.51015625 7.94"></polygon>
                    <polygon id="Shape" fill="#FFFFFF" points="3.89804688 1.22666667 4.03085938 1.63333333 4.45585938 1.63333333 4.11054688 1.88 4.24335938 2.28666667 3.89804688 2.03333333 3.55273438 2.28666667 3.68554688 1.88 3.34023438 1.63333333 3.76523438 1.63333333"></polygon>
                    <polygon id="Shape" fill="#FFFFFF" points="3.89804688 3.01333333 4.03085938 3.42 4.45585938 3.42 4.11054688 3.67333333 4.24335938 4.07333333 3.89804688 3.82666667 3.55273438 4.07333333 3.68554688 3.67333333 3.34023438 3.42 3.76523438 3.42"></polygon>
                    <polygon id="Shape" fill="#FFFFFF" points="3.89804688 4.80666667 4.03085938 5.21333333 4.45585938 5.21333333 4.11054688 5.46 4.24335938 5.86666667 3.89804688 5.61333333 3.55273438 5.86666667 3.68554688 5.46 3.34023438 5.21333333 3.76523438 5.21333333"></polygon>
                    <polygon id="Shape" fill="#FFFFFF" points="3.89804688 6.59333333 4.03085938 7 4.45585938 7 4.11054688 7.25333333 4.24335938 7.65333333 3.89804688 7.40666667 3.55273438 7.65333333 3.68554688 7.25333333 3.34023438 7 3.76523438 7"></polygon>
                    <polygon id="Shape" fill="#FFFFFF" points="3.89804688 8.38666667 4.03085938 8.78666667 4.45585938 8.78666667 4.11054688 9.04 4.24335938 9.44666667 3.89804688 9.19333333 3.55273438 9.44666667 3.68554688 9.04 3.34023438 8.78666667 3.76523438 8.78666667"></polygon>
                    <polygon id="Shape" fill="#FFFFFF" points="5.13984375 2.16666667 5.27265625 2.57333333 5.69765625 2.57333333 5.35234375 2.82666667 5.48515625 3.22666667 5.13984375 2.98 4.79453125 3.22666667 4.92734375 2.82666667 4.58203125 2.57333333 5.00703125 2.57333333"></polygon>
                    <polygon id="Shape" fill="#FFFFFF" points="5.13984375 3.96 5.27265625 4.36 5.69765625 4.36 5.35234375 4.61333333 5.48515625 5.02 5.13984375 4.76666667 4.79453125 5.02 4.92734375 4.61333333 4.58203125 4.36 5.00703125 4.36"></polygon>
                    <polygon id="Shape" fill="#FFFFFF" points="5.13984375 5.74666667 5.27265625 6.15333333 5.69765625 6.15333333 5.35234375 6.40666667 5.48515625 6.80666667 5.13984375 6.56 4.79453125 6.80666667 4.92734375 6.40666667 4.58203125 6.15333333 5.00703125 6.15333333"></polygon>
                    <polygon id="Shape" fill="#FFFFFF" points="5.13984375 7.54 5.27265625 7.94 5.69765625 7.94 5.35234375 8.19333333 5.48515625 8.6 5.13984375 8.34666667 4.79453125 8.6 4.92734375 8.19333333 4.58203125 7.94 5.00703125 7.94"></polygon>
                    <polygon id="Shape" fill="#FFFFFF" points="6.39492187 1.22666667 6.52773437 1.63333333 6.95273438 1.63333333 6.60742188 1.88 6.74023438 2.28666667 6.39492187 2.03333333 6.05625 2.28666667 6.1890625 1.88 5.84375 1.63333333 6.26875 1.63333333"></polygon>
                    <polygon id="Shape" fill="#FFFFFF" points="6.39492187 3.01333333 6.52773437 3.42 6.95273438 3.42 6.60742188 3.67333333 6.74023438 4.07333333 6.39492187 3.82666667 6.05625 4.07333333 6.1890625 3.67333333 5.84375 3.42 6.26875 3.42"></polygon>
                    <polygon id="Shape" fill="#FFFFFF" points="6.39492187 4.80666667 6.52773437 5.21333333 6.95273438 5.21333333 6.60742188 5.46 6.74023438 5.86666667 6.39492187 5.61333333 6.05625 5.86666667 6.1890625 5.46 5.84375 5.21333333 6.26875 5.21333333"></polygon>
                    <polygon id="Shape" fill="#FFFFFF" points="6.39492187 6.59333333 6.52773437 7 6.95273438 7 6.60742188 7.25333333 6.74023438 7.65333333 6.39492187 7.40666667 6.05625 7.65333333 6.1890625 7.25333333 5.84375 7 6.26875 7"></polygon>
                    <polygon id="Shape" fill="#FFFFFF" points="6.39492187 8.38666667 6.52773437 8.78666667 6.95273438 8.78666667 6.60742188 9.04 6.74023438 9.44666667 6.39492187 9.19333333 6.05625 9.44666667 6.1890625 9.04 5.84375 8.78666667 6.26875 8.78666667"></polygon>
                    <polygon id="Shape" fill="#FFFFFF" points="7.63671875 2.16666667 7.76953125 2.57333333 8.19453125 2.57333333 7.84921875 2.82666667 7.98203125 3.22666667 7.63671875 2.98 7.29804688 3.22666667 7.42421875 2.82666667 7.08554688 2.57333333 7.51054688 2.57333333"></polygon>
                    <polygon id="Shape" fill="#FFFFFF" points="7.63671875 3.96 7.76953125 4.36 8.19453125 4.36 7.84921875 4.61333333 7.98203125 5.02 7.63671875 4.76666667 7.29804688 5.02 7.42421875 4.61333333 7.08554688 4.36 7.51054688 4.36"></polygon>
                    <polygon id="Shape" fill="#FFFFFF" points="7.63671875 5.74666667 7.76953125 6.15333333 8.19453125 6.15333333 7.84921875 6.40666667 7.98203125 6.80666667 7.63671875 6.56 7.29804688 6.80666667 7.42421875 6.40666667 7.08554688 6.15333333 7.51054688 6.15333333"></polygon>
                    <polygon id="Shape" fill="#FFFFFF" points="7.63671875 7.54 7.76953125 7.94 8.19453125 7.94 7.84921875 8.19333333 7.98203125 8.6 7.63671875 8.34666667 7.29804688 8.6 7.42421875 8.19333333 7.08554688 7.94 7.51054688 7.94"></polygon>
                    <polygon id="Shape" fill="#FFFFFF" points="8.8984375 1.22666667 9.03125 1.63333333 9.44960938 1.63333333 9.1109375 1.88 9.23710937 2.28666667 8.8984375 2.03333333 8.553125 2.28666667 8.6859375 1.88 8.340625 1.63333333 8.765625 1.63333333"></polygon>
                    <polygon id="Shape" fill="#FFFFFF" points="8.8984375 3.01333333 9.03125 3.42 9.44960938 3.42 9.1109375 3.67333333 9.23710937 4.07333333 8.8984375 3.82666667 8.553125 4.07333333 8.6859375 3.67333333 8.340625 3.42 8.765625 3.42"></polygon>
                    <polygon id="Shape" fill="#FFFFFF" points="8.8984375 4.80666667 9.03125 5.21333333 9.44960938 5.21333333 9.1109375 5.46 9.23710937 5.86666667 8.8984375 5.61333333 8.553125 5.86666667 8.6859375 5.46 8.340625 5.21333333 8.765625 5.21333333"></polygon>
                    <polygon id="Shape" fill="#FFFFFF" points="8.8984375 6.59333333 9.03125 7 9.44960938 7 9.1109375 7.25333333 9.23710937 7.65333333 8.8984375 7.40666667 8.553125 7.65333333 8.6859375 7.25333333 8.340625 7 8.765625 7"></polygon>
                    <polygon id="Shape" fill="#FFFFFF" points="8.8984375 8.38666667 9.03125 8.78666667 9.44960938 8.78666667 9.1109375 9.04 9.23710937 9.44666667 8.8984375 9.19333333 8.553125 9.44666667 8.6859375 9.04 8.340625 8.78666667 8.765625 8.78666667"></polygon>
                    <polygon id="Shape" fill="#FFFFFF" points="10.1402344 2.16666667 10.2664062 2.57333333 10.6914062 2.57333333 10.3527344 2.82666667 10.4789063 3.22666667 10.1402344 2.98 9.79492188 3.22666667 9.92773438 2.82666667 9.58242188 2.57333333 10.0074219 2.57333333"></polygon>
                    <polygon id="Shape" fill="#FFFFFF" points="10.1402344 3.96 10.2664062 4.36 10.6914062 4.36 10.3527344 4.61333333 10.4789063 5.02 10.1402344 4.76666667 9.79492188 5.02 9.92773438 4.61333333 9.58242188 4.36 10.0074219 4.36"></polygon>
                    <polygon id="Shape" fill="#FFFFFF" points="10.1402344 5.74666667 10.2664062 6.15333333 10.6914062 6.15333333 10.3527344 6.40666667 10.4789063 6.80666667 10.1402344 6.56 9.79492188 6.80666667 9.92773438 6.40666667 9.58242188 6.15333333 10.0074219 6.15333333"></polygon>
                    <polygon id="Shape" fill="#FFFFFF" points="10.1402344 7.54 10.2664062 7.94 10.6914062 7.94 10.3527344 8.19333333 10.4789063 8.6 10.1402344 8.34666667 9.79492188 8.6 9.92773438 8.19333333 9.58242188 7.94 10.0074219 7.94"></polygon>
                    <polygon id="Shape" fill="#FFFFFF" points="11.3953125 1.22666667 11.528125 1.63333333 11.953125 1.63333333 11.6078125 1.88 11.740625 2.28666667 11.3953125 2.03333333 11.05 2.28666667 11.1828125 1.88 10.8375 1.63333333 11.2625 1.63333333"></polygon>
                    <polygon id="Shape" fill="#FFFFFF" points="11.3953125 3.01333333 11.528125 3.42 11.953125 3.42 11.6078125 3.67333333 11.740625 4.07333333 11.3953125 3.82666667 11.05 4.07333333 11.1828125 3.67333333 10.8375 3.42 11.2625 3.42"></polygon>
                    <polygon id="Shape" fill="#FFFFFF" points="11.3953125 4.80666667 11.528125 5.21333333 11.953125 5.21333333 11.6078125 5.46 11.740625 5.86666667 11.3953125 5.61333333 11.05 5.86666667 11.1828125 5.46 10.8375 5.21333333 11.2625 5.21333333"></polygon>
                    <polygon id="Shape" fill="#FFFFFF" points="11.3953125 6.59333333 11.528125 7 11.953125 7 11.6078125 7.25333333 11.740625 7.65333333 11.3953125 7.40666667 11.05 7.65333333 11.1828125 7.25333333 10.8375 7 11.2625 7"></polygon>
                    <polygon id="Shape" fill="#FFFFFF" points="11.3953125 8.38666667 11.528125 8.78666667 11.953125 8.78666667 11.6078125 9.04 11.740625 9.44666667 11.3953125 9.19333333 11.05 9.44666667 11.1828125 9.04 10.8375 8.78666667 11.2625 8.78666667"></polygon>
                    <polygon id="Shape" fill="#FFFFFF" points="12.6371094 2.16666667 12.7699219 2.57333333 13.1949219 2.57333333 12.8496094 2.82666667 12.9824219 3.22666667 12.6371094 2.98 12.2917969 3.22666667 12.4246094 2.82666667 12.0792969 2.57333333 12.5042969 2.57333333"></polygon>
                    <polygon id="Shape" fill="#FFFFFF" points="12.6371094 3.96 12.7699219 4.36 13.1949219 4.36 12.8496094 4.61333333 12.9824219 5.02 12.6371094 4.76666667 12.2917969 5.02 12.4246094 4.61333333 12.0792969 4.36 12.5042969 4.36"></polygon>
                    <polygon id="Shape" fill="#FFFFFF" points="12.6371094 5.74666667 12.7699219 6.15333333 13.1949219 6.15333333 12.8496094 6.40666667 12.9824219 6.80666667 12.6371094 6.56 12.2917969 6.80666667 12.4246094 6.40666667 12.0792969 6.15333333 12.5042969 6.15333333"></polygon>
                    <polygon id="Shape" fill="#FFFFFF" points="12.6371094 7.54 12.7699219 7.94 13.1949219 7.94 12.8496094 8.19333333 12.9824219 8.6 12.6371094 8.34666667 12.2917969 8.6 12.4246094 8.19333333 12.0792969 7.94 12.5042969 7.94"></polygon>
                    <polygon id="Shape" fill="#FFFFFF" points="13.8921875 1.22666667 14.025 1.63333333 14.45 1.63333333 14.1046875 1.88 14.2375 2.28666667 13.8921875 2.03333333 13.5535156 2.28666667 13.6796875 1.88 13.3410156 1.63333333 13.7660156 1.63333333"></polygon>
                    <polygon id="Shape" fill="#FFFFFF" points="13.8921875 3.01333333 14.025 3.42 14.45 3.42 14.1046875 3.67333333 14.2375 4.07333333 13.8921875 3.82666667 13.5535156 4.07333333 13.6796875 3.67333333 13.3410156 3.42 13.7660156 3.42"></polygon>
                    <polygon id="Shape" fill="#FFFFFF" points="13.8921875 4.80666667 14.025 5.21333333 14.45 5.21333333 14.1046875 5.46 14.2375 5.86666667 13.8921875 5.61333333 13.5535156 5.86666667 13.6796875 5.46 13.3410156 5.21333333 13.7660156 5.21333333"></polygon>
                    <polygon id="Shape" fill="#FFFFFF" points="13.8921875 6.59333333 14.025 7 14.45 7 14.1046875 7.25333333 14.2375 7.65333333 13.8921875 7.40666667 13.5535156 7.65333333 13.6796875 7.25333333 13.3410156 7 13.7660156 7"></polygon>
                    <polygon id="Shape" fill="#FFFFFF" points="13.8921875 8.38666667 14.025 8.78666667 14.45 8.78666667 14.1046875 9.04 14.2375 9.44666667 13.8921875 9.19333333 13.5535156 9.44666667 13.6796875 9.04 13.3410156 8.78666667 13.7660156 8.78666667"></polygon>
                </g>
            </g>
            <rect id="Rectangle-2-Copy-17" stroke="#AAAAAA" stroke-width="0.5" x="0.25" y="0.25" width="29.5" height="19.5"></rect>
        </g>
    </g>
</svg>