<svg width="24" height="24" xmlns="http://www.w3.org/2000/svg" xmlns:xlink="http://www.w3.org/1999/xlink">
  <defs>
    <path d="M7 0l.167.002C10.187.058 14 1.657 14 7.19c0 3.45-1.968 7.477-5.905 12.08l-.342.396-.088.09a.996.996 0 01-.546.245l.009-.001-.014.002h-.009l-.098.006h-.014l-.098-.005-.01-.001L6.873 20a.99.99 0 01-.537-.245l-.088-.09-.342-.395C1.968 14.668 0 10.641 0 7.191 0 1.657 3.813.058 6.833 0L7 0zm0 1C4.39 1 1 2.364 1 7.31 1 10.607 3 14.503 7 19c4-4.496 6-8.392 6-11.689C13 2.364 9.61 1 7 1zm0 4a3 3 0 110 6 3 3 0 010-6zm0 1a2 2 0 100 4 2 2 0 000-4z" id="a"/>
  </defs>
  <g transform="translate(5 2)" fill="none" fill-rule="evenodd">
    <mask id="b" fill="#fff">
      <use xlink:href="#a"/>
    </mask>
    <use fill="#000" xlink:href="#a"/>
    <g mask="url(#b)" fill="#FFF">
      <path d="M-5-2H95V98H-5z"/>
    </g>
  </g>
</svg>
