<?xml version="1.0" standalone="no"?>
<!DOCTYPE svg PUBLIC "-//W3C//DTD SVG 1.1//EN" "http://www.w3.org/Graphics/SVG/1.1/DTD/svg11.dtd" >
<svg xmlns="http://www.w3.org/2000/svg" xmlns:xlink="http://www.w3.org/1999/xlink" version="1.1">
<metadata>
Created by FontForge 20161013 at Wed Feb 13 19:32:03 2013
 By ,,,
(c) FontSite Inc., 1996-2013. All Rights Reserved. www.fontsite.com
</metadata>
<defs>
<font id="Avalon-Bold" horiz-adv-x="376" >
  <font-face 
    font-family="Avalon Medium"
    font-weight="700"
    font-stretch="normal"
    units-per-em="1000"
    panose-1="2 11 8 2 2 2 2 2 2 4"
    ascent="750"
    descent="-250"
    x-height="503"
    cap-height="670"
    bbox="-111 -257 1143 943"
    underline-thickness="97"
    underline-position="-295"
    unicode-range="U+0020-FB04"
  />
<missing-glyph horiz-adv-x="600" 
d="M45 0v670h510v-670h-510zM87 36h426v598h-426v-598zM252 232v89q51 28 78 55.5t27 66.5q0 31 -20.5 48t-53.5 17q-51 0 -94 -31h-6v60q60 20 106 20q59 0 93 -29.5t34 -80.5q0 -50 -29 -83t-82 -64v-68h-53zM248 116v62h61v-62h-61z" />
    <glyph glyph-name="f_t" unicode="ft" horiz-adv-x="577" 
d="M64 0v389h-56v114h56v26q0 77 47 116t145 39h22v-114h-17q-22 0 -34 -12.5t-12 -34.5v-20h131v167h151v-167h72v-114h-72v-389h-151v389h-131v-389h-151z" />
    <glyph glyph-name="f_f" unicode="ff" horiz-adv-x="578" 
d="M64 0v389h-56v114h56v26q0 77 47 116t145 39h22v-114h-17q-22 0 -34 -12.5t-12 -34.5v-20h131v26q0 77 47 116t145 39h22v-114h-17q-46 0 -46 -47v-20h63v-114h-63v-389h-151v389h-131v-389h-151z" />
    <glyph glyph-name="f_i" unicode="fi" horiz-adv-x="547" 
d="M64 0v389h-56v114h56v26q0 77 47 116t145 39h22v-114h-17q-22 0 -34 -12.5t-12 -34.5v-20h63v-114h-63v-389h-151zM346 556v114h151v-114h-151zM346 0v503h151v-503h-151z" />
    <glyph glyph-name="f_l" unicode="fl" horiz-adv-x="547" 
d="M64 0v389h-56v114h56v26q0 77 47 116t145 39h22v-114h-17q-22 0 -34 -12.5t-12 -34.5v-20h63v-114h-63v-389h-151zM346 0v670h151v-670h-151z" />
    <glyph glyph-name="f_f_i" unicode="ffi" horiz-adv-x="829" 
d="M64 0v389h-56v114h56v26q0 77 47 116t145 39h22v-114h-17q-22 0 -34 -12.5t-12 -34.5v-20h131v26q0 77 47 116t145 39h22v-114h-17q-46 0 -46 -47v-20h63v-114h-63v-389h-151v389h-131v-389h-151zM628 556v114h151v-114h-151zM628 0v503h151v-503h-151z" />
    <glyph glyph-name="f_f_l" unicode="ffl" horiz-adv-x="829" 
d="M64 0v389h-56v114h56v26q0 77 47 116t145 39h22v-114h-17q-22 0 -34 -12.5t-12 -34.5v-20h131v26q0 77 47 116t145 39h22v-114h-17q-46 0 -46 -47v-20h63v-114h-63v-389h-151v389h-131v-389h-151zM628 0v670h151v-670h-151z" />
    <glyph glyph-name=".notdef" horiz-adv-x="600" 
d="M45 0v670h510v-670h-510zM87 36h426v598h-426v-598zM252 232v89q51 28 78 55.5t27 66.5q0 31 -20.5 48t-53.5 17q-51 0 -94 -31h-6v60q60 20 106 20q59 0 93 -29.5t34 -80.5q0 -50 -29 -83t-82 -64v-68h-53zM248 116v62h61v-62h-61z" />
    <glyph glyph-name=".null" horiz-adv-x="0" 
 />
    <glyph glyph-name="nonmarkingreturn" horiz-adv-x="333" 
 />
    <glyph glyph-name="space" unicode=" " horiz-adv-x="251" 
 />
    <glyph glyph-name="exclam" unicode="!" horiz-adv-x="297" 
d="M70 221v449h156v-449h-156zM70 0v154h156v-154h-156z" />
    <glyph glyph-name="quotedbl" unicode="&#x22;" horiz-adv-x="263" 
d="M159 455l-9 215h86l-9 -215h-68zM35 455l-9 215h86l-9 -215h-68z" />
    <glyph glyph-name="numbersign" unicode="#" horiz-adv-x="553" 
d="M102 62l21 148h-90l13 94h90l11 80h-90l14 94h89l21 147h94l-21 -147h86l21 147h93l-21 -147h87l-13 -94h-87l-11 -80h87l-14 -94h-86l-21 -148h-93l20 148h-86l-20 -148h-94zM230 304h86l11 80h-86z" />
    <glyph glyph-name="dollar" unicode="$" horiz-adv-x="553" 
d="M216 -68v91q-74 16 -111 62q-40 50 -40 109q0 5 1 9h155q6 -64 53 -64q22 0 37 15.5t15 38.5q0 32 -30 53q-23 16 -83 38q-142 53 -142 176q0 69 37.5 116.5t107.5 66.5v92h122v-92q47 -11 76 -41q51 -51 51 -121q0 -6 -1 -10h-140q-4 58 -50 58q-21 0 -35 -14.5
t-14 -36.5q0 -38 47 -62q11 -6 76 -31q62 -23 97.5 -69.5t35.5 -105.5q0 -63 -38.5 -112t-104.5 -71v-95h-122z" />
    <glyph glyph-name="percent" unicode="%" horiz-adv-x="804" 
d="M193 359q-71 0 -117 46.5t-46 116.5q0 68 47 114.5t117 46.5q71 0 118 -46t47 -116t-47 -116t-119 -46zM208 0l282 670h106l-282 -670h-106zM195 459q25 0 42 18t17 44t-17 44t-42 18t-42.5 -18t-17.5 -43q0 -27 17 -45t43 -18zM445 150q0 68 47 114.5t117 46.5
q71 0 118 -46t47 -116t-47 -116t-119 -46q-70 0 -116.5 46.5t-46.5 116.5zM550 150q0 -27 17 -45t43 -18q25 0 42 18t17 44t-17 44t-42 18t-42.5 -18t-17.5 -43z" />
    <glyph glyph-name="ampersand" unicode="&#x26;" horiz-adv-x="663" 
d="M534 -13l-80 81q-91 -82 -200 -82q-94 0 -159 56.5t-65 138.5q0 55 28 96.5t96 88.5q-63 64 -63 144q0 73 53.5 123t132.5 50q75 0 125.5 -47.5t50.5 -117.5q0 -88 -93 -153l79 -80l49 110h158l-51 -125q-19 -48 -51 -89l92 -94zM275 446q26 26 34 40t8 33t-11 31t-28 12
t-29 -12.5t-12 -31.5q0 -33 38 -72zM354 167l-108 108q-51 -40 -51 -78q0 -29 21.5 -48t55.5 -19q48 0 82 37z" />
    <glyph glyph-name="quotesingle" unicode="'" horiz-adv-x="139" 
d="M35 455l-9 215h86l-9 -215h-68z" />
    <glyph glyph-name="parenleft" unicode="(" horiz-adv-x="374" 
d="M347 -51v-150q-75 29 -130 71q-88 67 -137.5 167.5t-49.5 213.5t49.5 214t137.5 168q53 42 130 71v-150q-71 -39 -115 -123.5t-44 -180.5q0 -94 44.5 -178.5t114.5 -122.5z" />
    <glyph glyph-name="parenright" unicode=")" horiz-adv-x="374" 
d="M27 -51q70 38 114.5 123t44.5 181q0 94 -44.5 178t-114.5 123v150q75 -29 130 -71q88 -67 137.5 -168t49.5 -214t-49.5 -213.5t-137.5 -167.5q-57 -43 -130 -71v150z" />
    <glyph glyph-name="asterisk" unicode="*" horiz-adv-x="486" 
d="M169 288l-84 63l78 100l-119 37l33 99l116 -44l-3 127h108l-6 -127l116 44l35 -99l-119 -37l75 -100l-84 -63l-74 104z" />
    <glyph glyph-name="plus" unicode="+" horiz-adv-x="553" 
d="M220 101v177h-178v114h178v178h114v-178h177v-114h-177v-177h-114z" />
    <glyph glyph-name="comma" unicode="," horiz-adv-x="263" 
d="M54 0v154h156v-190q0 -49 -25.5 -79.5t-66.5 -30.5h-64v81h31q17 0 28 9.5t11 24.5v31h-70z" />
    <glyph glyph-name="hyphen" unicode="-" horiz-adv-x="255" 
d="M0 194v127h255v-127h-255z" />
    <glyph glyph-name="period" unicode="." horiz-adv-x="263" 
d="M54 0v154h156v-154h-156z" />
    <glyph glyph-name="slash" unicode="/" horiz-adv-x="424" 
d="M-19 -168l262 838h148l-263 -838h-147z" />
    <glyph glyph-name="zero" unicode="0" horiz-adv-x="553" 
d="M526 432v-194q0 -92 -50 -156q-36 -44 -88.5 -69.5t-108.5 -25.5q-58 0 -113.5 28t-92.5 75q-47 60 -47 148v194q0 99 60 165q36 39 88 62.5t104 23.5q59 0 116.5 -30.5t92.5 -80.5q39 -57 39 -140zM197 433v-196q0 -54 27 -78q21 -21 52 -21q33 0 57 24q22 22 22 75v196
q0 53 -22 75q-24 24 -57 24q-31 0 -52 -21q-27 -24 -27 -78z" />
    <glyph glyph-name="one" unicode="1" horiz-adv-x="553" 
d="M215 0v526h-110v144h281v-670h-171z" />
    <glyph glyph-name="two" unicode="2" horiz-adv-x="553" 
d="M41 0v133q79 52 108.5 73.5t64.5 55.5q125 123 125 206q0 29 -18 47t-46 18q-37 0 -55.5 -26t-21.5 -81h-163q1 55 10 88t29 66q32 49 86.5 76.5t121.5 27.5q98 0 163 -56t65 -140q0 -115 -104 -229q-41 -46 -119 -115h227v-144h-473z" />
    <glyph glyph-name="three" unicode="3" horiz-adv-x="550" 
d="M209 475h-169q2 94 65 151t165 57q89 0 149.5 -52.5t60.5 -130.5q0 -94 -89 -141q127 -43 127 -161q0 -88 -73 -149.5t-176 -61.5q-69 0 -126.5 27t-86.5 73q-28 45 -33 112h173q15 -61 77 -61q33 0 53.5 18.5t20.5 47.5q0 40 -34 58q-20 9 -57 9h-60v126h29q84 0 84 77
q0 26 -13 42t-34 16q-50 0 -53 -57z" />
    <glyph glyph-name="four" unicode="4" horiz-adv-x="553" 
d="M10 118v125l300 427h159v-418h74v-134h-74v-118h-164v118h-295zM181 252h135v210z" />
    <glyph glyph-name="five" unicode="5" horiz-adv-x="553" 
d="M17 180h173q31 -43 78 -43q37 0 64 26.5t27 62.5q0 38 -26 63t-66 25q-62 0 -87 -57l-138 34l57 379h371v-144h-239l-15 -91q39 20 91 20q105 0 167 -74q56 -67 56 -151q0 -99 -74 -173q-71 -71 -183 -71q-100 0 -169.5 52.5t-86.5 141.5z" />
    <glyph glyph-name="six" unicode="6" horiz-adv-x="553" 
d="M441 670l-148 -204q27 4 42 4q87 0 145.5 -65.5t58.5 -162.5q0 -110 -74.5 -182.5t-187.5 -72.5q-132 0 -210 101q-54 73 -54 156q0 87 63 181l166 245h199zM182 231q0 -39 26.5 -66t66.5 -27q39 0 66 26t27 64t-27 64.5t-67 26.5q-39 0 -65.5 -25.5t-26.5 -62.5z" />
    <glyph glyph-name="seven" unicode="7" horiz-adv-x="553" 
d="M74 0l247 526h-260v144h437v-132l-236 -538h-188z" />
    <glyph glyph-name="eight" unicode="8" horiz-adv-x="553" 
d="M32 202q0 58 27.5 102t77.5 65q-66 53 -66 125q0 82 58 135.5t147 53.5q87 0 145.5 -53.5t58.5 -132.5q0 -76 -64 -128q50 -21 77.5 -65t27.5 -102q0 -89 -71.5 -152.5t-171.5 -63.5q-101 0 -173.5 63.5t-72.5 152.5zM275 421q26 0 44 18.5t18 44.5q0 25 -18 42.5
t-42 17.5q-26 0 -44.5 -18.5t-18.5 -44.5t17.5 -43t43.5 -17zM203 215q0 -34 21.5 -56t54.5 -22q29 0 50 22.5t21 53.5q0 32 -21.5 54.5t-52.5 22.5t-52 -21.5t-21 -53.5z" />
    <glyph glyph-name="nine" unicode="9" horiz-adv-x="553" 
d="M127 0l151 208q-23 -7 -45 -7q-67 0 -115 31q-46 28 -75 84t-29 118q0 107 74.5 178.5t186.5 71.5q116 0 190.5 -74t74.5 -189q0 -47 -10.5 -81.5t-36.5 -74.5l-171 -265h-195zM276 352q39 0 66 26.5t27 64.5q0 37 -27.5 63.5t-65.5 26.5q-37 0 -64 -26.5t-27 -62.5
q0 -38 27 -65t64 -27z" />
    <glyph glyph-name="colon" unicode=":" horiz-adv-x="263" 
d="M54 349v154h156v-154h-156zM54 0v154h156v-154h-156z" />
    <glyph glyph-name="semicolon" unicode=";" horiz-adv-x="263" 
d="M54 349v154h156v-154h-156zM54 0v154h156v-190q0 -49 -25.5 -79.5t-66.5 -30.5h-64v81h31q17 0 28 9.5t11 24.5v31h-70z" />
    <glyph glyph-name="less" unicode="&#x3c;" horiz-adv-x="503" 
d="M34 271v137l436 233v-163l-262 -139l261 -139l1 -163z" />
    <glyph glyph-name="equal" unicode="=" horiz-adv-x="553" 
d="M42 366v107h469v-107h-469zM42 198v107h469v-107h-469z" />
    <glyph glyph-name="greater" unicode="&#x3e;" horiz-adv-x="503" 
d="M34 37v164l262 139l-261 139l-1 162l436 -233v-138z" />
    <glyph glyph-name="question" unicode="?" horiz-adv-x="498" 
d="M140 213q-1 38 20 73.5t73 85.5q61 58 61 100q0 56 -52 56q-33 0 -47 -19.5t-15 -66.5h-167v17q0 97 67 160.5t171 63.5q92 0 154.5 -55.5t62.5 -136.5q0 -50 -26 -93q-18 -31 -76 -85q-40 -37 -54.5 -57.5t-15.5 -42.5h-156zM140 0v154h156v-154h-156z" />
    <glyph glyph-name="at" unicode="@" horiz-adv-x="754" 
d="M588 30l21 -83q-96 -34 -210 -34q-158 0 -253 92q-50 47 -78 113.5t-28 138.5q0 148 103 250.5t252 102.5q137 0 228 -84.5t91 -212.5q0 -93 -51 -164t-117 -71q-27 0 -49.5 14.5t-29.5 36.5q-19 -27 -52.5 -43t-69.5 -16q-62 0 -103.5 46t-41.5 115q0 82 53.5 143
t124.5 61q32 0 53 -9.5t45 -35.5l7 35l90 -1l-38 -197q-6 -31 -6 -43q0 -30 21 -30q31 0 57 50t26 109q0 95 -66 155t-169 60q-115 0 -192.5 -78.5t-77.5 -194.5q0 -112 74 -189q70 -71 196 -71q102 0 190 35zM302 235q0 -33 18 -53t47 -20q34 0 59.5 32t25.5 75
q0 32 -17 52t-45 20q-35 0 -61.5 -31.5t-26.5 -74.5z" />
    <glyph glyph-name="A" unicode="A" horiz-adv-x="664" 
d="M-3 0l269 670h135l266 -670h-185l-33 97h-232l-36 -97h-184zM263 233h141l-70 229z" />
    <glyph glyph-name="B" unicode="B" horiz-adv-x="580" 
d="M57 0v670h207q82 0 122.5 -8t67.5 -29q29 -23 46.5 -60.5t17.5 -78.5q0 -89 -78 -134q111 -36 111 -156q0 -89 -62 -146q-37 -34 -81.5 -46t-137.5 -12h-213zM221 416h61q72 0 72 53q0 29 -23 42q-14 8 -49 8h-61v-103zM221 151h81q85 0 85 64q0 30 -23 46q-19 12 -62 12
h-81v-122z" />
    <glyph glyph-name="C" unicode="C" horiz-adv-x="740" 
d="M542 251h179q-28 -118 -122 -191t-217 -73q-148 0 -250.5 102t-102.5 248t101.5 246t249.5 100q169 0 272 -125q57 -71 69 -142h-179q-20 54 -64 85.5t-99 31.5q-76 0 -127.5 -56t-51.5 -139q0 -85 52 -142.5t128 -57.5q106 0 162 113z" />
    <glyph glyph-name="D" unicode="D" horiz-adv-x="666" 
d="M57 0v670h226q97 0 156 -20t107 -70q91 -94 91 -242q0 -171 -108 -265q-84 -73 -208 -73h-264zM228 151h74q66 0 102 28q29 21 45.5 62t16.5 91q0 102 -54 151q-39 36 -109 36h-75v-368z" />
    <glyph glyph-name="E" unicode="E" horiz-adv-x="471" 
d="M57 0v670h373v-151h-209v-103h202v-151h-202v-114h209v-151h-373z" />
    <glyph glyph-name="F" unicode="F" horiz-adv-x="446" 
d="M57 0v670h366v-151h-202v-113h195v-151h-195v-255h-164z" />
    <glyph glyph-name="G" unicode="G" horiz-adv-x="771" 
d="M722 446h-192q-47 87 -147 87q-78 0 -132 -56q-51 -52 -51 -132q0 -96 53 -152q25 -26 63.5 -41t78.5 -15q57 0 96.5 28.5t51.5 78.5h-199v137h398l1 -35q4 -152 -100.5 -255.5t-257.5 -103.5q-149 0 -252.5 101.5t-103.5 248.5q0 72 29 139t80 114q46 43 114 68t136 25
q115 0 210 -67.5t124 -169.5z" />
    <glyph glyph-name="H" unicode="H" horiz-adv-x="675" 
d="M57 0v670h171v-251h219v251h171v-670h-171v268h-219v-268h-171z" />
    <glyph glyph-name="I" unicode="I" horiz-adv-x="285" 
d="M57 0v670h171v-670h-171z" />
    <glyph glyph-name="J" unicode="J" horiz-adv-x="507" 
d="M457 670v-406q0 -77 -9 -117.5t-32 -71.5q-31 -40 -82.5 -64t-107.5 -24q-61 0 -114 26.5t-81 71.5q-31 49 -31 130h182q2 -41 14.5 -59t38.5 -18q22 0 37 17q14 18 14 67v448h171z" />
    <glyph glyph-name="K" unicode="K" horiz-adv-x="606" 
d="M57 0v670h171v-302l191 302h180l-222 -334l236 -336h-200l-185 290v-290h-171z" />
    <glyph glyph-name="L" unicode="L" horiz-adv-x="440" 
d="M57 0v670h171v-519h198v-151h-369z" />
    <glyph glyph-name="M" unicode="M" horiz-adv-x="821" 
d="M57 0v670h220l134 -441l132 441h221v-670h-157l5 504l-145 -504h-113l-145 504l6 -504h-158z" />
    <glyph glyph-name="N" unicode="N" horiz-adv-x="680" 
d="M57 0v670h147l262 -421l-7 421h164v-670h-149l-259 408l6 -408h-164z" />
    <glyph glyph-name="O" unicode="O" horiz-adv-x="765" 
d="M29 340q0 144 102.5 244t250.5 100q149 0 252 -101t103 -248q0 -146 -102.5 -247t-251.5 -101q-152 0 -253 101t-101 252zM200 339q0 -86 53 -143.5t133 -57.5q76 0 128 57t52 139q0 84 -53 141.5t-130 57.5t-130 -56t-53 -138z" />
    <glyph glyph-name="P" unicode="P" horiz-adv-x="581" 
d="M57 0v670h219q80 0 126.5 -11.5t79.5 -38.5q79 -65 79 -178q0 -108 -71 -174q-62 -58 -195 -58h-74v-210h-164zM221 361h69q58 0 81 19q26 23 26 60q0 43 -31 63q-23 16 -82 16h-63v-158z" />
    <glyph glyph-name="Q" unicode="Q" horiz-adv-x="769" 
d="M772 124v-136q-21 -2 -44 -2q-106 0 -156 53q-85 -53 -182 -53q-164 0 -269 114q-92 100 -92 231q0 148 102.5 250.5t249.5 102.5q151 0 255.5 -102t104.5 -250q0 -98 -57 -185q26 -24 74 -24q8 0 14 1zM201 363q52 23 96 23q132 0 250 -144q23 55 23 99q0 83 -53 137.5
t-135 54.5q-71 0 -119.5 -45.5t-61.5 -124.5zM219 250q21 -50 65.5 -81.5t94.5 -31.5q37 0 72 26q-75 98 -172 98q-27 0 -60 -11z" />
    <glyph glyph-name="R" unicode="R" horiz-adv-x="590" 
d="M57 0v670h212q84 0 128 -10t78 -38q39 -31 61 -80t22 -103q0 -105 -73 -169q-38 -32 -94 -42l182 -228h-196l-156 217v-217h-164zM221 334h61q53 0 82.5 25t29.5 70q0 43 -33 70q-27 20 -78 20h-62v-185z" />
    <glyph glyph-name="S" unicode="S" horiz-adv-x="519" 
d="M486 475h-170q-5 34 -19 49.5t-42 15.5q-25 0 -42 -15.5t-17 -37.5q0 -24 17 -38q12 -12 27 -20t95 -44q84 -38 120.5 -83t36.5 -110q0 -96 -62.5 -151t-171.5 -55q-183 0 -231 138q-13 35 -13 97h172q0 -42 18.5 -66.5t50.5 -24.5q28 0 47 18.5t19 45.5t-20 44
q-15 13 -31 20.5t-98 40.5q-71 29 -109 77t-38 109q0 83 68 141t167 58q55 0 103 -20.5t78 -56.5q40 -48 45 -132z" />
    <glyph glyph-name="T" unicode="T" horiz-adv-x="450" 
d="M140 0v519h-133v151h436v-151h-132v-519h-171z" />
    <glyph glyph-name="U" unicode="U" horiz-adv-x="615" 
d="M565 670v-405q0 -74 -15.5 -120.5t-51.5 -84.5q-73 -73 -189 -73q-118 0 -192 72q-38 37 -52.5 82t-14.5 124v405h171v-405q0 -66 21 -96.5t67 -30.5q42 0 64 27q21 25 21 100v405h171z" />
    <glyph glyph-name="V" unicode="V" horiz-adv-x="606" 
d="M214 0l-224 670h177l135 -470l137 470h177l-226 -670h-176z" />
    <glyph glyph-name="W" unicode="W" horiz-adv-x="872" 
d="M180 0l-173 670h174l90 -436l100 436h131l98 -437l92 437h174l-178 -670h-151l-101 434l-101 -434h-155z" />
    <glyph glyph-name="X" unicode="X" horiz-adv-x="647" 
d="M-10 0l234 357l-207 313h194l115 -191l112 191h193l-205 -317l231 -353h-193l-145 237l-138 -237h-191z" />
    <glyph glyph-name="Y" unicode="Y" horiz-adv-x="550" 
d="M190 0v244l-200 426h186l100 -269l100 269h184l-199 -426v-244h-171z" />
    <glyph glyph-name="Z" unicode="Z" horiz-adv-x="460" 
d="M17 0v113l231 406h-231v151h423v-139l-214 -380h214v-151h-423z" />
    <glyph glyph-name="bracketleft" unicode="[" horiz-adv-x="374" 
d="M60 85v333q0 73 16.5 120.5t54.5 85.5q33 34 67 49.5t99 27.5l16 3v-148q-53 -2 -76 -30.5t-23 -90.5v-367q0 -63 23 -91t76 -31v-147q-62 10 -91 20t-62 34q-53 40 -76.5 93.5t-23.5 138.5z" />
    <glyph glyph-name="backslash" unicode="\" horiz-adv-x="424" 
d="M296 -168l-262 838h147l263 -838h-148z" />
    <glyph glyph-name="bracketright" unicode="]" horiz-adv-x="374" 
d="M61 -54q53 3 76 31t23 91v367q0 62 -23 90.5t-76 30.5v148q63 -10 91.5 -20t60.5 -34q54 -40 77.5 -94t23.5 -138v-333q0 -73 -16.5 -120.5t-54.5 -85.5q-33 -34 -67 -49.5t-99 -27.5q-2 -1 -16 -3v147z" />
    <glyph glyph-name="asciicircum" unicode="^" horiz-adv-x="503" 
d="M12 348l148 326h183l148 -326h-145l-95 215l-94 -215h-145z" />
    <glyph glyph-name="underscore" unicode="_" horiz-adv-x="503" 
d="M0 -54h503v-97h-503v97z" />
    <glyph glyph-name="grave" unicode="`" horiz-adv-x="503" 
d="M295 546l-205 132l60 92l196 -150z" />
    <glyph glyph-name="a" unicode="a" horiz-adv-x="631" 
d="M438 0v54q-36 -71 -156 -71q-113 0 -184 75t-71 194q0 118 72.5 193.5t186.5 75.5q111 0 152 -71v53h142v-503h-142zM178 253q0 -55 36 -92t90 -37q55 0 90.5 36t35.5 92q0 55 -36 91t-91 36q-53 0 -89 -36.5t-36 -89.5z" />
    <glyph glyph-name="b" unicode="b" horiz-adv-x="621" 
d="M50 0v670h151v-207q54 57 145 57q101 0 174 -71q74 -74 74 -194t-71 -196t-183 -76q-46 0 -76.5 14.5t-71.5 56.5v-54h-142zM194 253q0 -55 35.5 -92t88.5 -37t89 37t36 91q0 53 -35.5 90t-87.5 37q-53 0 -89.5 -36.5t-36.5 -89.5z" />
    <glyph glyph-name="c" unicode="c" horiz-adv-x="577" 
d="M408 191h152q-23 -92 -96 -150t-168 -58q-113 0 -191 78t-78 191t76.5 190.5t188.5 77.5q99 0 173 -58.5t94 -152.5h-153q-13 33 -42 51.5t-67 18.5q-52 0 -85.5 -36.5t-33.5 -92.5q0 -55 33.5 -90.5t85.5 -35.5q67 0 111 67z" />
    <glyph glyph-name="d" unicode="d" horiz-adv-x="626" 
d="M433 0v54q-32 -38 -67.5 -54.5t-87.5 -16.5q-110 0 -181 76t-71 193q0 116 71 192t179 76q89 0 148 -60v210h151v-670h-142zM177 253q0 -56 36 -92.5t91 -36.5t92 37t37 93q0 53 -36.5 89t-90.5 36q-56 0 -92.5 -35.5t-36.5 -90.5z" />
    <glyph glyph-name="e" unicode="e" horiz-adv-x="581" 
d="M382 157h154q-35 -82 -100 -128t-146 -46q-109 0 -186 78t-77 189q0 112 76 191t185 79q113 0 189 -78.5t76 -196.5q0 -20 -4 -41h-376q5 -42 35.5 -68t74.5 -26q52 0 92 40zM176 305h227q-7 39 -38.5 63t-75.5 24t-73.5 -23t-39.5 -64z" />
    <glyph glyph-name="f" unicode="f" horiz-adv-x="296" 
d="M64 0v389h-56v114h56v26q0 77 47 116t145 39h22v-114h-17q-22 0 -34 -12.5t-12 -34.5v-20h63v-114h-63v-389h-151z" />
    <glyph glyph-name="g" unicode="g" horiz-adv-x="623" 
d="M37 -47h173q21 -50 89 -50q63 0 98 46q24 31 24 90v16q-16 -31 -59 -51.5t-92 -20.5q-101 0 -172 77.5t-71 187.5q0 117 73 194.5t183 77.5q94 0 148 -64v47h142v-442q0 -77 -6 -108.5t-26 -61.5q-36 -53 -104 -84t-150 -31q-102 0 -170.5 48.5t-79.5 128.5zM178 254
q0 -56 34.5 -93t86.5 -37q54 0 88.5 35t34.5 90q0 57 -34.5 93.5t-87.5 36.5q-51 0 -86.5 -36.5t-35.5 -88.5z" />
    <glyph glyph-name="h" unicode="h" horiz-adv-x="563" 
d="M50 0v670h151v-213q37 63 131 63q85 0 137 -54q27 -29 37 -68t10 -117v-281h-151v274q0 105 -80 105q-40 0 -64 -26q-20 -21 -20 -74v-279h-151z" />
    <glyph glyph-name="i" unicode="i" horiz-adv-x="251" 
d="M50 556v114h151v-114h-151zM50 0v503h151v-503h-151z" />
    <glyph glyph-name="j" unicode="j" horiz-adv-x="251" 
d="M50 556v114h151v-114h-151zM50 6v497h151v-491q0 -111 -40.5 -153.5t-146.5 -42.5h-37v114h20q30 0 41.5 16.5t11.5 59.5z" />
    <glyph glyph-name="k" unicode="k" horiz-adv-x="514" 
d="M50 0v670h151v-349l141 182h178l-189 -221l184 -282h-171l-143 242v-242h-151z" />
    <glyph glyph-name="l" unicode="l" horiz-adv-x="251" 
d="M50 0v670h151v-670h-151z" />
    <glyph glyph-name="m" unicode="m" horiz-adv-x="869" 
d="M50 0v503h142v-53q49 70 138 70q98 0 146 -90q55 90 159 90q78 0 131 -50q34 -32 44.5 -70.5t10.5 -125.5v-274h-151v267q0 61 -17 85q-19 27 -58 27q-37 0 -60 -25q-22 -25 -22 -80v-274h-151v274q0 105 -77 105q-84 0 -84 -105v-274h-151z" />
    <glyph glyph-name="n" unicode="n" horiz-adv-x="563" 
d="M50 0v503h142v-53q28 38 59.5 54t78.5 16q83 0 136 -51q28 -27 39 -61t11 -94v-314h-151v274q0 52 -15 74q-20 31 -64 31q-47 0 -71 -35q-14 -20 -14 -63v-281h-151z" />
    <glyph glyph-name="o" unicode="o" horiz-adv-x="598" 
d="M27 253q0 113 79 192q73 75 192 75q133 0 211 -95q61 -77 61 -173q0 -113 -79 -194q-73 -75 -194 -75q-118 0 -194 76t-76 194zM178 253q0 -55 34.5 -92t86.5 -37q51 0 85.5 36.5t34.5 91.5q0 52 -35 89.5t-85 37.5t-85.5 -37t-35.5 -89z" />
    <glyph glyph-name="p" unicode="p" horiz-adv-x="627" 
d="M50 -168v671h142v-55q56 72 159 72q107 0 174 -73q34 -37 53 -90.5t19 -109.5q0 -112 -70.5 -188t-174.5 -76q-92 0 -151 63v-214h-151zM194 253q0 -53 37 -91t90 -38t89 37t36 91t-36.5 90.5t-89.5 36.5q-56 0 -91 -39q-35 -38 -35 -87z" />
    <glyph glyph-name="q" unicode="q" horiz-adv-x="626" 
d="M424 -168v219q-61 -68 -155 -68q-104 0 -173.5 74t-69.5 185q0 121 71.5 199.5t182.5 78.5q97 0 153 -72v55h142v-671h-151zM177 253q0 -55 36.5 -92t91.5 -37q52 0 89 37.5t37 89.5q0 54 -37 91t-91 37q-53 0 -89.5 -36.5t-36.5 -89.5z" />
    <glyph glyph-name="r" unicode="r" horiz-adv-x="325" 
d="M50 0v503h142v-53q22 39 54 55q32 15 68 15h4v-151q-65 -1 -92 -22t-27 -69v-278h-149z" />
    <glyph glyph-name="s" unicode="s" horiz-adv-x="448" 
d="M409 362h-147q-4 37 -43 37q-22 0 -35 -9t-13 -23q0 -34 78 -55q96 -26 128 -53q48 -41 48 -106q0 -73 -60 -122t-149 -49t-149 55q-25 23 -36.5 48t-15.5 64h150q6 -46 57 -46q22 0 37 11.5t15 27.5q0 17 -13 28q-14 11 -31 16.5t-103 28.5q-47 12 -77 51t-30 88
q0 70 59 118t144 48q100 0 153 -67q28 -36 33 -91z" />
    <glyph glyph-name="t" unicode="t" horiz-adv-x="295" 
d="M64 0v389h-74v114h74v167h151v-167h72v-114h-72v-389h-151z" />
    <glyph glyph-name="u" unicode="u" horiz-adv-x="565" 
d="M373 0v54q-38 -71 -134 -71q-91 0 -146 63q-26 31 -36 64t-10 92v301h151v-281q0 -55 21 -76q22 -22 60 -22q40 0 62.5 25.5t22.5 72.5v281h151v-503h-142z" />
    <glyph glyph-name="v" unicode="v" horiz-adv-x="486" 
d="M170 0l-180 503h156l97 -314l97 314h156l-181 -503h-145z" />
    <glyph glyph-name="w" unicode="w" horiz-adv-x="757" 
d="M153 0l-153 503h155l77 -312l83 312h127l84 -312l76 312h155l-154 -503h-140l-85 325l-85 -325h-140z" />
    <glyph glyph-name="x" unicode="x" horiz-adv-x="548" 
d="M-10 0l191 269l-169 234h180l81 -132l81 132h178l-169 -234l195 -269h-184l-101 156l-103 -156h-180z" />
    <glyph glyph-name="y" unicode="y" horiz-adv-x="499" 
d="M177 25l-187 478h160l102 -292l97 292h160l-252 -671h-160z" />
    <glyph glyph-name="z" unicode="z" horiz-adv-x="408" 
d="M17 0v103l212 286h-212v114h374v-115l-197 -274h197v-114h-374z" />
    <glyph glyph-name="braceleft" unicode="{" horiz-adv-x="311" 
d="M51 -28v148q0 39 -11 57t-40 27v94q28 9 39.5 26t11.5 49v159q0 77 34.5 108.5t120.5 31.5q2 0 5 -0.5t7 -0.5t13.5 -0.5t23.5 -0.5h33v-120h-13q-49 0 -62 -12q-10 -8 -12.5 -17.5t-2.5 -40.5v-107q0 -58 -22 -88q-11 -15 -43 -34l26 -28q23 -24 31 -45.5t8 -59.5v-95
q0 -32 3 -43t14 -18q15 -10 59 -10h14v-120h-34l-33 -2h-17q-84 0 -118.5 32t-34.5 110z" />
    <glyph glyph-name="bar" unicode="|" horiz-adv-x="503" 
d="M168 -168v838h166v-838h-166z" />
    <glyph glyph-name="braceright" unicode="}" horiz-adv-x="311" 
d="M23 -48h13q48 0 62 12q10 8 12.5 17.5t2.5 40.5v107q0 58 22 88q11 15 43 34q-36 38 -43.5 48t-12.5 22q-9 27 -9 63v95q0 32 -3 43t-14 18q-15 10 -59 10h-14v120h34l33 2h17q84 0 118.5 -32t34.5 -110v-148q0 -39 11 -57t40 -27v-94q-28 -9 -39.5 -26t-11.5 -49v-159
q0 -77 -34.5 -108.5t-120.5 -31.5q-2 0 -5 0.5t-7 0.5t-13.5 0.5t-23.5 0.5h-33v120z" />
    <glyph glyph-name="asciitilde" unicode="~" horiz-adv-x="670" 
d="M172 550l-79 66q56 142 152 142q32 0 113 -33q57 -24 74 -24q37 0 68 60l80 -67q-31 -76 -67 -108t-91 -32q-21 0 -40.5 6t-71.5 28q-50 21 -71 21q-34 0 -67 -59z" />
    <glyph glyph-name="uni00A0" unicode="&#xa0;" horiz-adv-x="251" 
 />
    <glyph glyph-name="exclamdown" unicode="&#xa1;" horiz-adv-x="297" 
d="M70 349v154h156v-154h-156zM70 -168v450h156v-450h-156z" />
    <glyph glyph-name="cent" unicode="&#xa2;" horiz-adv-x="553" 
d="M215 28v95q-76 25 -119 82.5t-43 132.5q0 76 44 135.5t118 83.5v95h119v-92q64 -16 112 -67.5t55 -112.5h-157q-20 36 -64 36q-32 0 -55 -22.5t-23 -54.5t22.5 -54t55.5 -22q36 0 61 31h160q-11 -62 -57.5 -111.5t-104.5 -59.5v-95h-124z" />
    <glyph glyph-name="sterling" unicode="&#xa3;" horiz-adv-x="553" 
d="M35 0v134h45q44 0 63.5 11.5t19.5 37.5q0 24 -17 46l-22 28h-116v121h44q-26 48 -26 85q0 91 71 156t170 65q65 0 118.5 -28.5t84.5 -78.5q26 -40 35 -117h-158q-7 73 -70 73q-34 0 -57 -23.5t-23 -58.5q0 -37 31 -73h142v-121h-70q30 -34 30 -61q0 -31 -36 -62h38
q74 0 74 62q0 15 -6 33h145q10 -29 10 -58q0 -39 -20 -75q-54 -96 -178 -96h-322z" />
    <glyph glyph-name="currency" unicode="&#xa4;" horiz-adv-x="596" 
d="M92 74l-55 54l76 77q-42 62 -42 132q0 71 42 129l-74 73l55 55l74 -74q59 42 130 42q72 0 131 -42l76 76l54 -54l-76 -77q41 -60 41 -128q0 -70 -41 -132l74 -74l-55 -55l-73 74q-60 -41 -132 -41t-129 41zM297 209q50 0 85.5 37t35.5 90q0 52 -35.5 89t-84.5 37
q-48 0 -83.5 -37t-35.5 -88q0 -53 34.5 -90.5t83.5 -37.5z" />
    <glyph glyph-name="yen" unicode="&#xa5;" horiz-adv-x="553" 
d="M70 168v105h113l-39 90h-101v105h56l-88 202h171l96 -269l96 269h169l-91 -212h59v-105h-104l-34 -80h111v-105h-124v-168h-164v168h-126z" />
    <glyph glyph-name="brokenbar" unicode="&#xa6;" horiz-adv-x="503" 
d="M168 313v357h166v-357h-166zM168 154h166v-322h-166v322z" />
    <glyph glyph-name="section" unicode="&#xa7;" horiz-adv-x="553" 
d="M49 18h138q12 -72 96 -72q32 0 53.5 15.5t21.5 38.5q0 20 -15.5 35t-58.5 34l-144 66q-60 28 -86 62t-26 85q0 83 80 141q-27 40 -27 94q0 74 56 120t146 46q87 0 144 -48.5t60 -124.5h-138q-14 49 -75 49q-27 0 -42.5 -12t-15.5 -32q0 -16 11 -27t39 -24l154 -69
q55 -25 80 -58t25 -82q0 -37 -15.5 -65.5t-56.5 -67.5q43 -59 43 -119q0 -81 -59 -132.5t-152 -51.5q-56 0 -107 21t-82 58q-41 47 -47 120zM200 257l170 -78q31 20 31 52q0 16 -13 29t-45 27l-155 70q-33 -17 -33 -46q0 -33 45 -54z" />
    <glyph glyph-name="dieresis" unicode="&#xa8;" horiz-adv-x="503" 
d="M280 577v137h144v-137h-144zM79 577v137h144v-137h-144z" />
    <glyph glyph-name="copyright" unicode="&#xa9;" horiz-adv-x="788" 
d="M46 339q0 140 103.5 242t245.5 102q143 0 245.5 -102.5t102.5 -245.5t-102.5 -245.5t-245.5 -102.5q-146 0 -247.5 102.5t-101.5 249.5zM92 338q0 -128 88.5 -218.5t214.5 -90.5q124 0 213 90t89 215q0 126 -89 216.5t-213 90.5q-123 0 -213 -90t-90 -213zM497 290h120
q-19 -73 -80 -117t-143 -44q-97 0 -164 61t-67 149q0 87 66.5 147.5t163.5 60.5q83 0 147.5 -47t76.5 -116h-120q-14 32 -41.5 50.5t-62.5 18.5q-49 0 -82 -32.5t-33 -81.5t33 -82.5t82 -33.5q69 0 104 67z" />
    <glyph glyph-name="ordfeminine" unicode="&#xaa;" horiz-adv-x="427" 
d="M291 268v27q-31 -37 -100 -37q-74 0 -121 45t-47 117q0 71 47.5 116.5t123.5 45.5q66 0 97 -38v27h96v-303h-96zM205 346q35 0 57.5 21t22.5 54q0 32 -23 52.5t-58 20.5q-33 0 -56 -21t-23 -52q0 -32 23 -53.5t57 -21.5z" />
    <glyph glyph-name="guillemotleft" unicode="&#xab;" horiz-adv-x="370" 
d="M198 202v116l117 119v-135l-47 -40l47 -43v-133zM151 86l-117 116v116l117 119v-135l-47 -40l47 -43v-133z" />
    <glyph glyph-name="logicalnot" unicode="&#xac;" horiz-adv-x="503" 
d="M34 150v144h436v-294h-160v150h-276z" />
    <glyph glyph-name="uni00AD" unicode="&#xad;" horiz-adv-x="255" 
d="M0 194v127h255v-127h-255z" />
    <glyph glyph-name="registered" unicode="&#xae;" horiz-adv-x="788" 
d="M46 339q0 140 103.5 242t245.5 102q143 0 245.5 -102.5t102.5 -245.5t-102.5 -245.5t-245.5 -102.5q-146 0 -247.5 102.5t-101.5 249.5zM92 338q0 -128 88.5 -218.5t214.5 -90.5q124 0 213 90t89 215q0 126 -89 216.5t-213 90.5q-123 0 -213 -90t-90 -213zM240 141v402
h140q96 0 136 -29q54 -41 54 -111q0 -49 -29.5 -84t-77.5 -42l119 -136h-132l-99 125v-125h-111zM351 343h37q34 0 52.5 14t18.5 40q0 52 -70 52h-38v-106z" />
    <glyph glyph-name="macron" unicode="&#xaf;" horiz-adv-x="503" 
d="M90 596v88h322v-88h-322z" />
    <glyph glyph-name="degree" unicode="&#xb0;" horiz-adv-x="385" 
d="M193 393q-63 0 -107 43.5t-44 106.5q0 59 44.5 102t105.5 43q63 0 107 -43t44 -104t-44 -104.5t-106 -43.5zM193 468q30 0 52 21.5t22 51.5t-22 51.5t-53 21.5q-30 0 -52 -21.5t-22 -50.5q0 -31 22 -52.5t53 -21.5z" />
    <glyph glyph-name="plusminus" unicode="&#xb1;" horiz-adv-x="553" 
d="M220 111v167h-178v114h178v178h114v-178h177v-114h-177v-167h-114zM42 -34v114h469v-114h-469z" />
    <glyph glyph-name="two.superior" unicode="&#xb2;" 
d="M33 268v82q78 46 112 77q81 71 81 120q0 16 -11 26.5t-28 10.5q-45 0 -48 -63h-110q3 61 26 95q45 62 136 62q64 0 107 -34t43 -85q0 -49 -31.5 -94t-109.5 -107h144v-90h-311z" />
    <glyph glyph-name="three.superior" unicode="&#xb3;" horiz-adv-x="374" 
d="M147 550h-114q1 58 42.5 93t108.5 35q59 0 99 -32t40 -79q0 -55 -55 -83q79 -26 79 -97q0 -53 -48 -90t-115 -37q-46 0 -84.5 16.5t-56.5 43.5q-16 24 -22 70h117q9 -36 48 -36q20 0 33 10.5t13 26.5q0 38 -57 38h-41v79h21q53 0 53 43q0 33 -29 33q-32 0 -32 -34z" />
    <glyph glyph-name="acute" unicode="&#xb4;" horiz-adv-x="503" 
d="M208 546l-51 74l196 150l60 -92z" />
    <glyph glyph-name="mu" unicode="&#xb5;" horiz-adv-x="503" 
d="M166 49v-221h-139v655h139v-249q0 -60 15 -85q25 -43 71 -43q41 0 62.5 33.5t21.5 97.5v246h139v-483h-139v63q-28 -73 -87 -73q-52 0 -83 59z" />
    <glyph glyph-name="paragraph" unicode="&#xb6;" horiz-adv-x="553" 
d="M202 -94v415h-12q-76 0 -123 47.5t-47 123.5q0 50 21 90t58 61q48 27 141 27h280v-87h-58v-677h-90v677h-80v-677h-90z" />
    <glyph glyph-name="periodcentered" unicode="&#xb7;" horiz-adv-x="263" 
d="M54 181v154h156v-154h-156z" />
    <glyph glyph-name="cedilla" unicode="&#xb8;" horiz-adv-x="503" 
d="M179 -79l38 79h61l-27 -52q15 3 25 3q30 0 51.5 -22t21.5 -53q0 -43 -28 -69.5t-72 -26.5q-41 0 -66.5 22t-29.5 61h63q6 -14 12.5 -19.5t18.5 -5.5q15 0 25 9.5t10 24.5q0 14 -9 22.5t-22 8.5q-14 0 -27 -13z" />
    <glyph glyph-name="one.superior" unicode="&#xb9;" 
d="M145 268v312h-71v90h186v-402h-115z" />
    <glyph glyph-name="ordmasculine" unicode="&#xba;" horiz-adv-x="405" 
d="M200 258q-76 0 -126 46t-50 117q0 68 51 114t127 46q77 0 128 -46t51 -115q0 -70 -51 -116t-130 -46zM202 346q33 0 55 21t22 53q0 30 -22.5 51.5t-54.5 21.5t-54 -21t-22 -51q0 -32 22 -53.5t54 -21.5z" />
    <glyph glyph-name="guillemotright" unicode="&#xbb;" horiz-adv-x="355" 
d="M204 86v135l47 40l-47 42v134l117 -120v-116zM40 86v135l47 40l-47 42v134l117 -120v-116z" />
    <glyph glyph-name="onequarter" unicode="&#xbc;" horiz-adv-x="905" 
d="M265 0l282 670h92l-281 -670h-93zM145 268v312h-71v90h186v-402h-115zM542 70v77l195 255h107v-248h48v-84h-48v-70h-111v70h-191zM655 149h90v128z" />
    <glyph glyph-name="onehalf" unicode="&#xbd;" horiz-adv-x="905" 
d="M265 0l282 670h92l-281 -670h-93zM145 268v312h-71v90h186v-402h-115zM562 0v82q81 49 112 77q81 71 81 120q0 16 -11 26.5t-28 10.5q-45 0 -48 -63h-110q3 61 26 95q45 62 136 62q64 0 107 -34t43 -85q0 -49 -31.5 -94t-109.5 -107h144v-90h-311z" />
    <glyph glyph-name="threequarters" unicode="&#xbe;" horiz-adv-x="904" 
d="M147 550h-114q1 58 42.5 93t108.5 35q59 0 99 -32t40 -79q0 -55 -55 -83q79 -26 79 -97q0 -53 -48 -90t-115 -37q-46 0 -84.5 16.5t-56.5 43.5q-16 24 -22 70h117q9 -36 48 -36q20 0 33 10.5t13 26.5q0 38 -57 38h-41v79h21q53 0 53 43q0 33 -29 33q-32 0 -32 -34zM264 0
l282 670h92l-282 -670h-92zM540 70v77l196 255h107v-248h48v-84h-48v-70h-111v70h-192zM654 149h90v128z" />
    <glyph glyph-name="questiondown" unicode="&#xbf;" horiz-adv-x="498" 
d="M202 349v154h156v-154h-156zM318 61h166q1 -7 1 -17q0 -98 -67 -161.5t-171 -63.5q-92 0 -154.5 55.5t-62.5 136.5q0 50 26 94q21 33 76 84q39 36 53.5 56.5t16.5 43.5h156q1 -38 -20 -73.5t-73 -85.5q-61 -58 -61 -100q0 -56 52 -56q33 0 47 20t15 67z" />
    <glyph glyph-name="Agrave" unicode="&#xc0;" horiz-adv-x="664" 
d="M374 714l-248 109l51 114l241 -131zM-3 0l269 670h135l266 -670h-185l-33 97h-232l-36 -97h-184zM263 233h141l-70 229z" />
    <glyph glyph-name="Aacute" unicode="&#xc1;" horiz-adv-x="664" 
d="M301 714l-45 92l241 131l51 -114zM-3 0l269 670h135l266 -670h-185l-33 97h-232l-36 -97h-184zM263 233h141l-70 229z" />
    <glyph glyph-name="Acircumflex" unicode="&#xc2;" horiz-adv-x="664" 
d="M134 737l133 151h148l128 -151h-158l-46 64l-45 -64h-160zM-3 0l269 670h135l266 -670h-185l-33 97h-232l-36 -97h-184zM263 233h141l-70 229z" />
    <glyph glyph-name="Atilde" unicode="&#xc3;" horiz-adv-x="664" 
d="M215 748l-49 89q52 43 101 43q32 0 113 -25q12 -4 25 -4q29 0 80 29l47 -89q-55 -41 -108 -41q-31 0 -117 26q-12 4 -26 4q-29 0 -66 -32zM-3 0l269 670h135l266 -670h-185l-33 97h-232l-36 -97h-184zM263 233h141l-70 229z" />
    <glyph glyph-name="Adieresis" unicode="&#xc4;" horiz-adv-x="664" 
d="M365 737v151h158v-151h-158zM148 737v151h158v-151h-158zM-3 0l269 670h135l266 -670h-185l-33 97h-232l-36 -97h-184zM263 233h141l-70 229z" />
    <glyph glyph-name="Aring" unicode="&#xc5;" horiz-adv-x="664" 
d="M339 713q-48 0 -82 34t-34 82q0 47 34.5 80.5t83.5 33.5q47 0 80.5 -34t33.5 -81t-34 -81t-82 -34zM339 785q17 0 29.5 13t12.5 30q0 18 -12 31t-29 13q-18 0 -30.5 -12.5t-12.5 -30.5q0 -19 12.5 -31.5t29.5 -12.5zM-3 0l269 670h135l266 -670h-185l-33 97h-232l-36 -97
h-184zM263 233h141l-70 229z" />
    <glyph glyph-name="AE" unicode="&#xc6;" horiz-adv-x="863" 
d="M-27 0l466 670h382v-151h-209v-103h202v-151h-202v-114h209v-151h-373v112h-195l-73 -112h-207zM323 245h125v182z" />
    <glyph glyph-name="Ccedilla" unicode="&#xc7;" horiz-adv-x="740" 
d="M271 -138h70q12 -26 34 -26q15 0 25 10t10 24q0 15 -10 24.5t-24 9.5q-15 0 -29 -15l-51 31l36 70q-131 19 -217 116.5t-86 229.5q0 146 101.5 246.5t249.5 100.5q169 0 272 -125q57 -71 69 -142h-179q-20 54 -64 85.5t-99 31.5q-76 0 -127.5 -56t-51.5 -139
q0 -85 52 -142.5t128 -57.5q106 0 162 113h179q-24 -110 -114.5 -184.5t-203.5 -78.5l-17 -35q12 3 18 3q34 0 56.5 -23t22.5 -57q0 -46 -31.5 -76t-79.5 -30q-45 0 -71 24t-30 68z" />
    <glyph glyph-name="Egrave" unicode="&#xc8;" horiz-adv-x="471" 
d="M288 714l-248 109l51 114l241 -131zM57 0v670h373v-151h-209v-103h202v-151h-202v-114h209v-151h-373z" />
    <glyph glyph-name="Eacute" unicode="&#xc9;" horiz-adv-x="471" 
d="M209 714l-45 92l241 131l51 -114zM57 0v670h373v-151h-209v-103h202v-151h-202v-114h209v-151h-373z" />
    <glyph glyph-name="Ecircumflex" unicode="&#xca;" horiz-adv-x="471" 
d="M42 737l133 151h148l128 -151h-158l-46 64l-45 -64h-160zM57 0v670h373v-151h-209v-103h202v-151h-202v-114h209v-151h-373z" />
    <glyph glyph-name="Edieresis" unicode="&#xcb;" horiz-adv-x="471" 
d="M276 737v151h158v-151h-158zM59 737v151h158v-151h-158zM57 0v670h373v-151h-209v-103h202v-151h-202v-114h209v-151h-373z" />
    <glyph glyph-name="Igrave" unicode="&#xcc;" horiz-adv-x="285" 
d="M170 714l-231 102l51 110l225 -120zM57 0v670h171v-670h-171z" />
    <glyph glyph-name="Iacute" unicode="&#xcd;" horiz-adv-x="285" 
d="M121 714l-44 92l224 120l51 -110zM57 0v670h171v-670h-171z" />
    <glyph glyph-name="Icircumflex" unicode="&#xce;" horiz-adv-x="285" 
d="M-49 737l123 151h148l118 -151h-152l-42 71l-42 -71h-153zM57 0v670h171v-670h-171z" />
    <glyph glyph-name="Idieresis" unicode="&#xcf;" horiz-adv-x="285" 
d="M170 737v151h137v-151h-137zM-15 737v151h137v-151h-137zM57 0v670h171v-670h-171z" />
    <glyph glyph-name="Eth" unicode="&#xd0;" horiz-adv-x="666" 
d="M57 0v288h-57v121h57v261h226q97 0 156 -20t107 -70q91 -94 91 -242q0 -152 -87 -245t-229 -93h-264zM228 151h74q65 0 102 28q29 21 45.5 62t16.5 91q0 90 -42.5 138.5t-120.5 48.5h-75v-110h124v-121h-124v-137z" />
    <glyph glyph-name="Ntilde" unicode="&#xd1;" horiz-adv-x="680" 
d="M212 748l-49 89q52 43 101 43q32 0 113 -25q12 -4 25 -4q29 0 80 29l47 -89q-55 -41 -108 -41q-31 0 -117 26q-12 4 -26 4q-29 0 -66 -32zM57 0v670h147l262 -421l-7 421h164v-670h-149l-259 408l6 -408h-164z" />
    <glyph glyph-name="Ograve" unicode="&#xd2;" horiz-adv-x="765" 
d="M414 714l-248 109l51 114l241 -131zM29 340q0 144 102.5 244t250.5 100q149 0 252 -101t103 -248q0 -146 -102.5 -247t-251.5 -101q-152 0 -253 101t-101 252zM200 339q0 -86 53 -143.5t133 -57.5q76 0 128 57t52 139q0 84 -53 141.5t-130 57.5t-130 -56t-53 -138z" />
    <glyph glyph-name="Oacute" unicode="&#xd3;" horiz-adv-x="765" 
d="M365 714l-45 92l241 131l51 -114zM29 340q0 144 102.5 244t250.5 100q149 0 252 -101t103 -248q0 -146 -102.5 -247t-251.5 -101q-152 0 -253 101t-101 252zM200 339q0 -86 53 -143.5t133 -57.5q76 0 128 57t52 139q0 84 -53 141.5t-130 57.5t-130 -56t-53 -138z" />
    <glyph glyph-name="Ocircumflex" unicode="&#xd4;" horiz-adv-x="765" 
d="M182 737l133 151h148l128 -151h-158l-46 64l-45 -64h-160zM29 340q0 144 102.5 244t250.5 100q149 0 252 -101t103 -248q0 -146 -102.5 -247t-251.5 -101q-152 0 -253 101t-101 252zM200 339q0 -86 53 -143.5t133 -57.5q76 0 128 57t52 139q0 84 -53 141.5t-130 57.5
t-130 -56t-53 -138z" />
    <glyph glyph-name="Otilde" unicode="&#xd5;" horiz-adv-x="765" 
d="M269 748l-49 89q52 43 101 43q32 0 113 -25q12 -4 25 -4q29 0 80 29l47 -89q-55 -41 -108 -41q-31 0 -117 26q-12 4 -26 4q-29 0 -66 -32zM29 340q0 144 102.5 244t250.5 100q149 0 252 -101t103 -248q0 -146 -102.5 -247t-251.5 -101q-152 0 -253 101t-101 252zM200 339
q0 -86 53 -143.5t133 -57.5q76 0 128 57t52 139q0 84 -53 141.5t-130 57.5t-130 -56t-53 -138z" />
    <glyph glyph-name="Odieresis" unicode="&#xd6;" horiz-adv-x="765" 
d="M416 737v151h158v-151h-158zM199 737v151h158v-151h-158zM29 340q0 144 102.5 244t250.5 100q149 0 252 -101t103 -248q0 -146 -102.5 -247t-251.5 -101q-152 0 -253 101t-101 252zM200 339q0 -86 53 -143.5t133 -57.5q76 0 128 57t52 139q0 84 -53 141.5t-130 57.5
t-130 -56t-53 -138z" />
    <glyph glyph-name="multiply" unicode="&#xd7;" horiz-adv-x="553" 
d="M138 118l-79 79l138 138l-138 138l79 79l138 -138l138 138l79 -79l-138 -138l138 -138l-79 -79l-138 139z" />
    <glyph glyph-name="Oslash" unicode="&#xd8;" horiz-adv-x="765" 
d="M72 14l58 79q-101 85 -101 243q0 149 103 248t257 99q75 0 153 -30l58 77l97 -75l-58 -76q98 -111 98 -244q0 -140 -97 -242q-104 -107 -275 -107q-87 0 -142 33l-57 -76zM231 224l217 296q-27 12 -61 12q-86 0 -136 -59q-53 -63 -53 -141q0 -56 33 -108zM321 149
q27 -12 59 -12q88 0 140 65q46 57 46 132q0 55 -28 107z" />
    <glyph glyph-name="Ugrave" unicode="&#xd9;" horiz-adv-x="615" 
d="M332 714l-248 109l51 114l241 -131zM565 670v-405q0 -74 -15.5 -120.5t-51.5 -84.5q-73 -73 -189 -73q-118 0 -192 72q-38 37 -52.5 82t-14.5 124v405h171v-405q0 -66 21 -96.5t67 -30.5q42 0 64 27q21 25 21 100v405h171z" />
    <glyph glyph-name="Uacute" unicode="&#xda;" horiz-adv-x="615" 
d="M293 714l-45 92l241 131l51 -114zM565 670v-405q0 -74 -15.5 -120.5t-51.5 -84.5q-73 -73 -189 -73q-118 0 -192 72q-38 37 -52.5 82t-14.5 124v405h171v-405q0 -66 21 -96.5t67 -30.5q42 0 64 27q21 25 21 100v405h171z" />
    <glyph glyph-name="Ucircumflex" unicode="&#xdb;" horiz-adv-x="615" 
d="M106 737l133 151h148l128 -151h-158l-46 64l-45 -64h-160zM565 670v-405q0 -74 -15.5 -120.5t-51.5 -84.5q-73 -73 -189 -73q-118 0 -192 72q-38 37 -52.5 82t-14.5 124v405h171v-405q0 -66 21 -96.5t67 -30.5q42 0 64 27q21 25 21 100v405h171z" />
    <glyph glyph-name="Udieresis" unicode="&#xdc;" horiz-adv-x="615" 
d="M343 737v151h158v-151h-158zM126 737v151h158v-151h-158zM565 670v-405q0 -74 -15.5 -120.5t-51.5 -84.5q-73 -73 -189 -73q-118 0 -192 72q-38 37 -52.5 82t-14.5 124v405h171v-405q0 -66 21 -96.5t67 -30.5q42 0 64 27q21 25 21 100v405h171z" />
    <glyph glyph-name="Yacute" unicode="&#xdd;" horiz-adv-x="550" 
d="M264 714l-45 92l241 131l51 -114zM190 0v244l-200 426h186l100 -269l100 269h184l-199 -426v-244h-171z" />
    <glyph glyph-name="Thorn" unicode="&#xde;" horiz-adv-x="581" 
d="M57 0v670h164v-87h55q79 0 126 -11.5t80 -38.5q79 -65 79 -178q0 -108 -71 -174q-62 -58 -195 -58h-74v-123h-164zM221 274h69q50 0 74 21q26 23 26 58q0 41 -29 63q-22 16 -77 16h-63v-158z" />
    <glyph glyph-name="germandbls" unicode="&#xdf;" horiz-adv-x="621" 
d="M47 0v387q0 85 12 129.5t46 82.5q36 41 89.5 64.5t108.5 23.5q89 0 151 -55t62 -134q0 -74 -64 -117q62 -15 101.5 -64t39.5 -111q0 -92 -68.5 -157.5t-165.5 -65.5q-50 0 -85.5 16.5t-75.5 58.5v-58h-151zM198 189h83q19 -65 79 -65q34 0 58 24t24 58q0 39 -27 61.5
t-74 22.5h-82v113h30q35 0 55.5 19t20.5 50q0 32 -22 53t-56 21q-45 0 -70 -35q-19 -26 -19 -82v-240z" />
    <glyph glyph-name="agrave" unicode="&#xe0;" horiz-adv-x="631" 
d="M350 546l-205 132l60 92l196 -150zM438 0v54q-36 -71 -156 -71q-113 0 -184 75t-71 194q0 118 72.5 193.5t186.5 75.5q111 0 152 -71v53h142v-503h-142zM178 253q0 -55 36 -92t90 -37q55 0 90.5 36t35.5 92q0 55 -36 91t-91 36q-53 0 -89 -36.5t-36 -89.5z" />
    <glyph glyph-name="aacute" unicode="&#xe1;" horiz-adv-x="631" 
d="M313 546l-51 74l196 150l60 -92zM438 0v54q-36 -71 -156 -71q-113 0 -184 75t-71 194q0 118 72.5 193.5t186.5 75.5q111 0 152 -71v53h142v-503h-142zM178 253q0 -55 36 -92t90 -37q55 0 90.5 36t35.5 92q0 55 -36 91t-91 36q-53 0 -89 -36.5t-36 -89.5z" />
    <glyph glyph-name="acircumflex" unicode="&#xe2;" horiz-adv-x="631" 
d="M148 576l134 151h104l130 -151h-142l-42 58l-41 -58h-143zM438 0v54q-36 -71 -156 -71q-113 0 -184 75t-71 194q0 118 72.5 193.5t186.5 75.5q111 0 152 -71v53h142v-503h-142zM178 253q0 -55 36 -92t90 -37q55 0 90.5 36t35.5 92q0 55 -36 91t-91 36q-53 0 -89 -36.5
t-36 -89.5z" />
    <glyph glyph-name="atilde" unicode="&#xe3;" horiz-adv-x="631" 
d="M215 575l-46 78q48 46 98 46q24 0 101 -23q18 -6 33 -6q18 0 65 31l39 -78q-47 -46 -106 -46q-19 0 -61 16q-37 13 -61 13q-32 0 -62 -31zM438 0v54q-36 -71 -156 -71q-113 0 -184 75t-71 194q0 118 72.5 193.5t186.5 75.5q111 0 152 -71v53h142v-503h-142zM178 253
q0 -55 36 -92t90 -37q55 0 90.5 36t35.5 92q0 55 -36 91t-91 36q-53 0 -89 -36.5t-36 -89.5z" />
    <glyph glyph-name="adieresis" unicode="&#xe4;" horiz-adv-x="631" 
d="M362 577v137h144v-137h-144zM161 577v137h144v-137h-144zM438 0v54q-36 -71 -156 -71q-113 0 -184 75t-71 194q0 118 72.5 193.5t186.5 75.5q111 0 152 -71v53h142v-503h-142zM178 253q0 -55 36 -92t90 -37q55 0 90.5 36t35.5 92q0 55 -36 91t-91 36q-53 0 -89 -36.5
t-36 -89.5z" />
    <glyph glyph-name="aring" unicode="&#xe5;" horiz-adv-x="631" 
d="M331 553q-47 0 -80.5 33t-33.5 80t33.5 79.5t81.5 32.5q46 0 79 -33t33 -79t-33 -79.5t-80 -33.5zM330 621q18 0 31 13t13 32q0 18 -13 31.5t-30 13.5q-18 0 -31 -13t-13 -32t13 -32t30 -13zM438 0v54q-36 -71 -156 -71q-113 0 -184 75t-71 194q0 118 72.5 193.5
t186.5 75.5q111 0 152 -71v53h142v-503h-142zM178 253q0 -55 36 -92t90 -37q55 0 90.5 36t35.5 92q0 55 -36 91t-91 36q-53 0 -89 -36.5t-36 -89.5z" />
    <glyph glyph-name="ae" unicode="&#xe6;" horiz-adv-x="985" 
d="M428 0v54q-30 -71 -148 -71q-106 0 -172 63q-82 77 -82 205q0 119 72 194t186 75q55 0 88.5 -16.5t55.5 -54.5v54h137v-53q45 70 136 70q109 0 182.5 -80.5t73.5 -199.5q0 -17 -4 -36h-378q7 -43 38 -68.5t77 -25.5q30 0 51.5 10.5t46.5 38.5h151q-36 -85 -98 -130.5
t-140 -45.5q-91 0 -136 71v-54h-137zM578 305h230q-26 87 -113 87q-44 0 -76.5 -24.5t-40.5 -62.5zM177 252q0 -55 36.5 -91.5t91.5 -36.5q52 0 87.5 36.5t35.5 90.5q0 57 -35.5 92.5t-92.5 35.5q-52 0 -87.5 -37t-35.5 -90z" />
    <glyph glyph-name="ccedilla" unicode="&#xe7;" horiz-adv-x="577" 
d="M218 -79l32 66q-70 16 -112 46q-53 38 -82 96t-29 124q0 113 76.5 190t188.5 77q99 0 173 -58.5t94 -152.5h-153q-13 33 -42 51.5t-67 18.5q-52 0 -85.5 -36.5t-33.5 -92.5q0 -55 33.5 -90.5t85.5 -35.5q67 0 111 67h152q-23 -90 -91.5 -147t-160.5 -61l-18 -35
q15 3 25 3q30 0 51.5 -22t21.5 -53q0 -43 -28 -69.5t-72 -26.5q-41 0 -66.5 22t-29.5 61h63q9 -25 31 -25q15 0 25 9.5t10 24.5q0 14 -8.5 22.5t-22.5 8.5q-15 0 -28 -14z" />
    <glyph glyph-name="egrave" unicode="&#xe8;" horiz-adv-x="581" 
d="M317 546l-205 132l60 92l196 -150zM382 157h154q-35 -82 -100 -128t-146 -46q-109 0 -186 78t-77 189q0 112 76 191t185 79q113 0 189 -78.5t76 -196.5q0 -20 -4 -41h-376q5 -42 35.5 -68t74.5 -26q52 0 92 40zM176 305h227q-7 39 -38.5 63t-75.5 24t-73.5 -23t-39.5 -64
z" />
    <glyph glyph-name="eacute" unicode="&#xe9;" horiz-adv-x="581" 
d="M277 546l-51 74l196 150l60 -92zM382 157h154q-35 -82 -100 -128t-146 -46q-109 0 -186 78t-77 189q0 112 76 191t185 79q113 0 189 -78.5t76 -196.5q0 -20 -4 -41h-376q5 -42 35.5 -68t74.5 -26q52 0 92 40zM176 305h227q-7 39 -38.5 63t-75.5 24t-73.5 -23t-39.5 -64z
" />
    <glyph glyph-name="ecircumflex" unicode="&#xea;" horiz-adv-x="581" 
d="M116 576l134 151h104l130 -151h-142l-42 58l-41 -58h-143zM382 157h154q-35 -82 -100 -128t-146 -46q-109 0 -186 78t-77 189q0 112 76 191t185 79q113 0 189 -78.5t76 -196.5q0 -20 -4 -41h-376q5 -42 35.5 -68t74.5 -26q52 0 92 40zM176 305h227q-7 39 -38.5 63
t-75.5 24t-73.5 -23t-39.5 -64z" />
    <glyph glyph-name="edieresis" unicode="&#xeb;" horiz-adv-x="581" 
d="M329 577v137h144v-137h-144zM128 577v137h144v-137h-144zM382 157h154q-35 -82 -100 -128t-146 -46q-109 0 -186 78t-77 189q0 112 76 191t185 79q113 0 189 -78.5t76 -196.5q0 -20 -4 -41h-376q5 -42 35.5 -68t74.5 -26q52 0 92 40zM176 305h227q-7 39 -38.5 63
t-75.5 24t-73.5 -23t-39.5 -64z" />
    <glyph glyph-name="igrave" unicode="&#xec;" horiz-adv-x="251" 
d="M145 546l-191 122l60 91l183 -139zM50 0v503h151v-503h-151z" />
    <glyph glyph-name="iacute" unicode="&#xed;" horiz-adv-x="251" 
d="M119 546l-51 74l183 139l59 -88zM50 0v503h151v-503h-151z" />
    <glyph glyph-name="icircumflex" unicode="&#xee;" horiz-adv-x="251" 
d="M-45 576l124 151h104l120 -151h-135l-39 65l-37 -65h-137zM50 0v503h151v-503h-151z" />
    <glyph glyph-name="idieresis" unicode="&#xef;" horiz-adv-x="251" 
d="M153 577v137h124v-137h-124zM-18 577v137h124v-137h-124zM51 0v503h151v-503h-151z" />
    <glyph glyph-name="eth" unicode="&#xf0;" horiz-adv-x="599" 
d="M501 619l-68 -22q138 -213 138 -350q0 -113 -77 -188t-194 -75q-119 0 -196 75t-77 191q0 111 70.5 183t179.5 72q42 0 88 -20q-12 26 -13 30q-14 29 -26 49l-63 -21l-30 59l63 21q-17 28 -40 58l96 26q21 -23 41 -51l72 22zM178 254q0 -58 33.5 -94t87.5 -36q53 0 87 35
t34 89q0 56 -34.5 92.5t-88.5 36.5q-53 0 -86 -34t-33 -89z" />
    <glyph glyph-name="ntilde" unicode="&#xf1;" horiz-adv-x="563" 
d="M167 575l-46 78q48 46 98 46q24 0 101 -23q18 -6 33 -6q18 0 65 31l39 -78q-47 -46 -106 -46q-19 0 -61 16q-37 13 -61 13q-32 0 -62 -31zM50 0v503h142v-53q28 38 59.5 54t78.5 16q83 0 136 -51q28 -27 39 -61t11 -94v-314h-151v274q0 52 -15 74q-20 31 -64 31
q-47 0 -71 -35q-14 -20 -14 -63v-281h-151z" />
    <glyph glyph-name="ograve" unicode="&#xf2;" horiz-adv-x="598" 
d="M315 546l-205 132l60 92l196 -150zM27 253q0 113 79 192q73 75 192 75q133 0 211 -95q61 -77 61 -173q0 -113 -79 -194q-73 -75 -194 -75q-118 0 -194 76t-76 194zM178 253q0 -55 34.5 -92t86.5 -37q51 0 85.5 36.5t34.5 91.5q0 52 -35 89.5t-85 37.5t-85.5 -37
t-35.5 -89z" />
    <glyph glyph-name="oacute" unicode="&#xf3;" horiz-adv-x="598" 
d="M285 546l-51 74l196 150l60 -92zM27 253q0 113 79 192q73 75 192 75q133 0 211 -95q61 -77 61 -173q0 -113 -79 -194q-73 -75 -194 -75q-118 0 -194 76t-76 194zM178 253q0 -55 34.5 -92t86.5 -37q51 0 85.5 36.5t34.5 91.5q0 52 -35 89.5t-85 37.5t-85.5 -37t-35.5 -89z
" />
    <glyph glyph-name="ocircumflex" unicode="&#xf4;" horiz-adv-x="598" 
d="M118 576l134 151h104l130 -151h-142l-42 58l-41 -58h-143zM27 253q0 113 79 192q73 75 192 75q133 0 211 -95q61 -77 61 -173q0 -113 -79 -194q-73 -75 -194 -75q-118 0 -194 76t-76 194zM178 253q0 -55 34.5 -92t86.5 -37q51 0 85.5 36.5t34.5 91.5q0 52 -35 89.5
t-85 37.5t-85.5 -37t-35.5 -89z" />
    <glyph glyph-name="otilde" unicode="&#xf5;" horiz-adv-x="598" 
d="M193 575l-46 78q48 46 98 46q24 0 101 -23q18 -6 33 -6q18 0 65 31l39 -78q-47 -46 -106 -46q-19 0 -61 16q-37 13 -61 13q-32 0 -62 -31zM27 253q0 113 79 192q73 75 192 75q133 0 211 -95q61 -77 61 -173q0 -113 -79 -194q-73 -75 -194 -75q-118 0 -194 76t-76 194z
M178 253q0 -55 34.5 -92t86.5 -37q51 0 85.5 36.5t34.5 91.5q0 52 -35 89.5t-85 37.5t-85.5 -37t-35.5 -89z" />
    <glyph glyph-name="odieresis" unicode="&#xf6;" horiz-adv-x="598" 
d="M330 577v137h144v-137h-144zM129 577v137h144v-137h-144zM27 253q0 113 79 192q73 75 192 75q133 0 211 -95q61 -77 61 -173q0 -113 -79 -194q-73 -75 -194 -75q-118 0 -194 76t-76 194zM178 253q0 -55 34.5 -92t86.5 -37q51 0 85.5 36.5t34.5 91.5q0 52 -35 89.5
t-85 37.5t-85.5 -37t-35.5 -89z" />
    <glyph glyph-name="divide" unicode="&#xf7;" horiz-adv-x="553" 
d="M214 445v120h126v-120h-126zM42 278v114h469v-114h-469zM214 105v120h126v-120h-126z" />
    <glyph glyph-name="oslash" unicode="&#xf8;" horiz-adv-x="598" 
d="M54 -2l47 63q-74 77 -74 190t76 191t187 78q57 0 131 -23l51 68l65 -51l-47 -65q26 -32 39 -52q41 -67 41 -146q0 -112 -76.5 -190t-185.5 -78q-56 0 -141 27l-48 -59zM202 176l139 193q-23 10 -41 10q-52 0 -87 -36.5t-35 -91.5q0 -36 24 -75zM253 135q24 -11 44 -11
q53 0 87.5 36.5t34.5 92.5q0 34 -24 72z" />
    <glyph glyph-name="ugrave" unicode="&#xf9;" horiz-adv-x="565" 
d="M303 546l-205 132l60 92l196 -150zM373 0v54q-38 -71 -134 -71q-91 0 -146 63q-26 31 -36 64t-10 92v301h151v-281q0 -55 21 -76q22 -22 60 -22q40 0 62.5 25.5t22.5 72.5v281h151v-503h-142z" />
    <glyph glyph-name="uacute" unicode="&#xfa;" horiz-adv-x="565" 
d="M269 546l-51 74l196 150l60 -92zM373 0v54q-38 -71 -134 -71q-91 0 -146 63q-26 31 -36 64t-10 92v301h151v-281q0 -55 21 -76q22 -22 60 -22q40 0 62.5 25.5t22.5 72.5v281h151v-503h-142z" />
    <glyph glyph-name="ucircumflex" unicode="&#xfb;" horiz-adv-x="565" 
d="M105 576l134 151h104l130 -151h-142l-42 58l-41 -58h-143zM373 0v54q-38 -71 -134 -71q-91 0 -146 63q-26 31 -36 64t-10 92v301h151v-281q0 -55 21 -76q22 -22 60 -22q40 0 62.5 25.5t22.5 72.5v281h151v-503h-142z" />
    <glyph glyph-name="udieresis" unicode="&#xfc;" horiz-adv-x="565" 
d="M316 577v137h144v-137h-144zM115 577v137h144v-137h-144zM373 0v54q-38 -71 -134 -71q-91 0 -146 63q-26 31 -36 64t-10 92v301h151v-281q0 -55 21 -76q22 -22 60 -22q40 0 62.5 25.5t22.5 72.5v281h151v-503h-142z" />
    <glyph glyph-name="yacute" unicode="&#xfd;" horiz-adv-x="499" 
d="M246 546l-51 74l196 150l60 -92zM177 25l-187 478h160l102 -292l97 292h160l-252 -671h-160z" />
    <glyph glyph-name="thorn" unicode="&#xfe;" horiz-adv-x="624" 
d="M50 -168v838h151v-211q35 34 69 47.5t81 13.5q107 0 174 -73q34 -37 53 -90.5t19 -109.5q0 -112 -70.5 -188t-174.5 -76q-92 0 -151 63v-214h-151zM193 254q0 -55 36.5 -92.5t90.5 -37.5q53 0 89.5 37t36.5 91t-36.5 90.5t-90.5 36.5q-53 0 -89.5 -36t-36.5 -89z" />
    <glyph glyph-name="ydieresis" unicode="&#xff;" horiz-adv-x="499" 
d="M281 577v137h144v-137h-144zM80 577v137h144v-137h-144zM177 25l-187 478h160l102 -292l97 292h160l-252 -671h-160z" />
    <glyph glyph-name="Amacron" unicode="&#x100;" horiz-adv-x="664" 
d="M171 764v101h345v-101h-345zM-3 0l269 670h135l266 -670h-185l-33 97h-232l-36 -97h-184zM263 233h141l-70 229z" />
    <glyph glyph-name="amacron" unicode="&#x101;" horiz-adv-x="631" 
d="M177 596v88h322v-88h-322zM438 0v54q-36 -71 -156 -71q-113 0 -184 75t-71 194q0 118 72.5 193.5t186.5 75.5q111 0 152 -71v53h142v-503h-142zM178 253q0 -55 36 -92t90 -37q55 0 90.5 36t35.5 92q0 55 -36 91t-91 36q-53 0 -89 -36.5t-36 -89.5z" />
    <glyph glyph-name="Abreve" unicode="&#x102;" horiz-adv-x="664" 
d="M408 885h116q-5 -70 -49 -108q-55 -47 -139 -47q-44 0 -84.5 15.5t-64.5 41.5q-35 36 -39 98h116q7 -50 70 -50q67 0 74 50zM-3 0l269 670h135l266 -670h-185l-33 97h-232l-36 -97h-184zM263 233h141l-70 229z" />
    <glyph glyph-name="abreve" unicode="&#x103;" horiz-adv-x="631" 
d="M404 709h95q-4 -65 -47.5 -100.5t-119.5 -35.5q-77 0 -120.5 35.5t-47.5 100.5h95q11 -25 28 -34.5t48 -9.5q51 0 69 44zM438 0v54q-36 -71 -156 -71q-113 0 -184 75t-71 194q0 118 72.5 193.5t186.5 75.5q111 0 152 -71v53h142v-503h-142zM178 253q0 -55 36 -92t90 -37
q55 0 90.5 36t35.5 92q0 55 -36 91t-91 36q-53 0 -89 -36.5t-36 -89.5z" />
    <glyph glyph-name="Aogonek" unicode="&#x104;" horiz-adv-x="664" 
d="M-3 0l269 670h135l266 -670h-50q-37 -19 -49 -31.5t-12 -31.5t13.5 -32t33.5 -13q16 0 47 13v-82q-48 -18 -81 -18q-47 0 -80.5 26.5t-33.5 64.5q0 59 84 104h-57l-33 97h-232l-36 -97h-184zM263 233h141l-70 229z" />
    <glyph glyph-name="aogonek" unicode="&#x105;" horiz-adv-x="631" 
d="M438 0v54q-36 -71 -156 -71q-113 0 -184 75t-71 194q0 118 72.5 193.5t186.5 75.5q111 0 152 -71v53h142v-503h-67l-12 -6q-43 -22 -43 -59q0 -18 13.5 -31t32.5 -13q17 0 44 11l-1 -75q-45 -14 -77 -14q-49 0 -78.5 24.5t-29.5 63.5q0 26 17.5 48.5t58.5 50.5zM178 253
q0 -55 36 -92t90 -37q55 0 90.5 36t35.5 92q0 55 -36 91t-91 36q-53 0 -89 -36.5t-36 -89.5z" />
    <glyph glyph-name="Cacute" unicode="&#x106;" horiz-adv-x="740" 
d="M380 714l-54 79l175 144l62 -89zM542 251h179q-28 -118 -122 -191t-217 -73q-148 0 -250.5 102t-102.5 248t101.5 246t249.5 100q169 0 272 -125q57 -71 69 -142h-179q-20 54 -64 85.5t-99 31.5q-76 0 -127.5 -56t-51.5 -139q0 -85 52 -142.5t128 -57.5q106 0 162 113z
" />
    <glyph glyph-name="cacute" unicode="&#x107;" horiz-adv-x="577" 
d="M304 546l-62 59l134 161l74 -75zM408 191h152q-23 -92 -96 -150t-168 -58q-113 0 -191 78t-78 191t76.5 190.5t188.5 77.5q99 0 173 -58.5t94 -152.5h-153q-13 33 -42 51.5t-67 18.5q-52 0 -85.5 -36.5t-33.5 -92.5q0 -55 33.5 -90.5t85.5 -35.5q67 0 111 67z" />
    <glyph glyph-name="Ccircumflex" unicode="&#x108;" horiz-adv-x="740" 
d="M179 737l132 151h149l128 -151h-159l-45 64l-45 -64h-160zM542 251h179q-28 -118 -122 -191t-217 -73q-148 0 -250.5 102t-102.5 248t101.5 246t249.5 100q169 0 272 -125q57 -71 69 -142h-179q-20 54 -64 85.5t-99 31.5q-76 0 -127.5 -56t-51.5 -139q0 -85 52 -142.5
t128 -57.5q106 0 162 113z" />
    <glyph glyph-name="ccircumflex" unicode="&#x109;" horiz-adv-x="577" 
d="M106 576l134 151h105l130 -151h-142l-42 58l-41 -58h-144zM408 191h152q-23 -92 -96 -150t-168 -58q-113 0 -191 78t-78 191t76.5 190.5t188.5 77.5q99 0 173 -58.5t94 -152.5h-153q-13 33 -42 51.5t-67 18.5q-52 0 -85.5 -36.5t-33.5 -92.5q0 -55 33.5 -90.5t85.5 -35.5
q67 0 111 67z" />
    <glyph glyph-name="Cdotaccent" unicode="&#x10a;" horiz-adv-x="740" 
d="M308 737v151h158v-151h-158zM542 251h179q-28 -118 -122 -191t-217 -73q-148 0 -250.5 102t-102.5 248t101.5 246t249.5 100q169 0 272 -125q57 -71 69 -142h-179q-20 54 -64 85.5t-99 31.5q-76 0 -127.5 -56t-51.5 -139q0 -85 52 -142.5t128 -57.5q106 0 162 113z" />
    <glyph glyph-name="cdotaccent" unicode="&#x10b;" horiz-adv-x="577" 
d="M233 577v137h144v-137h-144zM408 191h152q-23 -92 -96 -150t-168 -58q-113 0 -191 78t-78 191t76.5 190.5t188.5 77.5q99 0 173 -58.5t94 -152.5h-153q-13 33 -42 51.5t-67 18.5q-52 0 -85.5 -36.5t-33.5 -92.5q0 -55 33.5 -90.5t85.5 -35.5q67 0 111 67z" />
    <glyph glyph-name="Ccaron" unicode="&#x10c;" horiz-adv-x="740" 
d="M310 737l-128 151h159l45 -64l45 64h160l-132 -151h-149zM542 251h179q-28 -118 -122 -191t-217 -73q-148 0 -250.5 102t-102.5 248t101.5 246t249.5 100q169 0 272 -125q57 -71 69 -142h-179q-20 54 -64 85.5t-99 31.5q-76 0 -127.5 -56t-51.5 -139q0 -85 52 -142.5
t128 -57.5q106 0 162 113z" />
    <glyph glyph-name="ccaron" unicode="&#x10d;" horiz-adv-x="577" 
d="M250 576l-130 151h142l42 -58l41 58h143l-133 -151h-105zM408 191h152q-23 -92 -96 -150t-168 -58q-113 0 -191 78t-78 191t76.5 190.5t188.5 77.5q99 0 173 -58.5t94 -152.5h-153q-13 33 -42 51.5t-67 18.5q-52 0 -85.5 -36.5t-33.5 -92.5q0 -55 33.5 -90.5t85.5 -35.5
q67 0 111 67z" />
    <glyph glyph-name="Dcaron" unicode="&#x10e;" horiz-adv-x="666" 
d="M229 737l-128 151h159l45 -64l45 64h160l-132 -151h-149zM57 0v670h226q97 0 156 -20t107 -70q91 -94 91 -242q0 -171 -108 -265q-84 -73 -208 -73h-264zM228 151h74q66 0 102 28q29 21 45.5 62t16.5 91q0 102 -54 151q-39 36 -109 36h-75v-368z" />
    <glyph glyph-name="dcaron" unicode="&#x10f;" horiz-adv-x="770" 
d="M629 464v60h27q15 0 24 8t9 21v17h-60v100h133v-102q0 -51 -19 -75q-24 -29 -59 -29h-55zM433 0v54q-32 -38 -67.5 -54.5t-87.5 -16.5q-110 0 -181 76t-71 193q0 116 71 192t179 76q89 0 148 -60v210h151v-670h-142zM177 253q0 -56 36 -92.5t91 -36.5t92 37t37 93
q0 53 -36.5 89t-90.5 36q-56 0 -92.5 -35.5t-36.5 -90.5z" />
    <glyph glyph-name="Dcroat" unicode="&#x110;" horiz-adv-x="666" 
d="M57 0v288h-57v121h57v261h226q97 0 156 -20t107 -70q91 -94 91 -242q0 -152 -87 -245t-229 -93h-264zM228 151h74q65 0 102 28q29 21 45.5 62t16.5 91q0 90 -42.5 138.5t-120.5 48.5h-75v-110h124v-121h-124v-137z" />
    <glyph glyph-name="dcroat" unicode="&#x111;" horiz-adv-x="626" 
d="M433 0v54q-33 -39 -68 -55t-86 -16q-110 0 -181 76t-71 193q0 116 71 192t179 76q88 0 147 -60v86h-110v84h110v40h151v-40h57v-84h-57v-546h-142zM178 253q0 -56 36 -92.5t91 -36.5t91.5 37t36.5 93q0 53 -36.5 89t-90.5 36q-56 0 -92 -35.5t-36 -90.5z" />
    <glyph glyph-name="Emacron" unicode="&#x112;" horiz-adv-x="471" 
d="M73 764v101h345v-101h-345zM57 0v670h373v-151h-209v-103h202v-151h-202v-114h209v-151h-373z" />
    <glyph glyph-name="emacron" unicode="&#x113;" horiz-adv-x="581" 
d="M139 596v88h322v-88h-322zM382 157h154q-35 -82 -100 -128t-146 -46q-109 0 -186 78t-77 189q0 112 76 191t185 79q113 0 189 -78.5t76 -196.5q0 -20 -4 -41h-376q5 -42 35.5 -68t74.5 -26q52 0 92 40zM176 305h227q-7 39 -38.5 63t-75.5 24t-73.5 -23t-39.5 -64z" />
    <glyph glyph-name="Edotaccent" unicode="&#x116;" horiz-adv-x="471" 
d="M168 737v151h158v-151h-158zM57 0v670h373v-151h-209v-103h202v-151h-202v-114h209v-151h-373z" />
    <glyph glyph-name="edotaccent" unicode="&#x117;" horiz-adv-x="581" 
d="M228 577v137h144v-137h-144zM382 157h154q-35 -82 -100 -128t-146 -46q-109 0 -186 78t-77 189q0 112 76 191t185 79q113 0 189 -78.5t76 -196.5q0 -20 -4 -41h-376q5 -42 35.5 -68t74.5 -26q52 0 92 40zM176 305h227q-7 39 -38.5 63t-75.5 24t-73.5 -23t-39.5 -64z" />
    <glyph glyph-name="Eogonek" unicode="&#x118;" horiz-adv-x="471" 
d="M57 0v670h373v-151h-209v-103h202v-151h-202v-114h209v-151h-32q-36 -19 -48.5 -31.5t-12.5 -31.5t14 -32t34 -13q16 0 47 13v-82q-53 -18 -82 -18q-47 0 -80.5 27t-33.5 64q0 59 85 104h-264z" />
    <glyph glyph-name="eogonek" unicode="&#x119;" horiz-adv-x="581" 
d="M459 -98v-75q-46 -14 -78 -14q-50 0 -79 24.5t-29 66.5q0 37 34 80q-10 -1 -19 -1q-107 0 -184 78.5t-77 188.5q0 112 76 191t185 79q113 0 189 -78.5t76 -196.5q0 -20 -4 -41h-376q5 -42 35.5 -68t74.5 -26q52 0 92 40l7 7h154q-40 -96 -125 -143q-42 -34 -42 -77
q0 -19 13.5 -32.5t32.5 -13.5q17 0 44 11zM176 305h227q-7 39 -38.5 63t-75.5 24t-73.5 -23t-39.5 -64z" />
    <glyph glyph-name="Ecaron" unicode="&#x11a;" horiz-adv-x="471" 
d="M180 737l-128 151h159l45 -64l45 64h160l-132 -151h-149zM57 0v670h373v-151h-209v-103h202v-151h-202v-114h209v-151h-373z" />
    <glyph glyph-name="ecaron" unicode="&#x11b;" horiz-adv-x="581" 
d="M243 576l-130 151h142l42 -58l41 58h143l-133 -151h-105zM382 157h154q-35 -82 -100 -128t-146 -46q-109 0 -186 78t-77 189q0 112 76 191t185 79q113 0 189 -78.5t76 -196.5q0 -20 -4 -41h-376q5 -42 35.5 -68t74.5 -26q52 0 92 40zM176 305h227q-7 39 -38.5 63
t-75.5 24t-73.5 -23t-39.5 -64z" />
    <glyph glyph-name="Gcircumflex" unicode="&#x11c;" horiz-adv-x="771" 
d="M188 737l132 151h149l128 -151h-159l-45 64l-45 -64h-160zM722 446h-192q-47 87 -147 87q-78 0 -132 -56q-51 -52 -51 -132q0 -96 53 -152q25 -26 63.5 -41t78.5 -15q57 0 96.5 28.5t51.5 78.5h-199v137h398l1 -35q4 -152 -100.5 -255.5t-257.5 -103.5
q-149 0 -252.5 101.5t-103.5 248.5q0 72 29 139t80 114q46 43 114 68t136 25q115 0 210 -67.5t124 -169.5z" />
    <glyph glyph-name="gcircumflex" unicode="&#x11d;" horiz-adv-x="623" 
d="M144 576l134 151h104l130 -151h-142l-42 58l-41 -58h-143zM37 -47h173q21 -50 89 -50q63 0 98 46q24 31 24 90v16q-16 -31 -59 -51.5t-92 -20.5q-101 0 -172 77.5t-71 187.5q0 117 73 194.5t183 77.5q94 0 148 -64v47h142v-442q0 -77 -6 -108.5t-26 -61.5
q-36 -53 -104 -84t-150 -31q-102 0 -170.5 48.5t-79.5 128.5zM178 254q0 -56 34.5 -93t86.5 -37q54 0 88.5 35t34.5 90q0 57 -34.5 93.5t-87.5 36.5q-51 0 -86.5 -36.5t-35.5 -88.5z" />
    <glyph glyph-name="Gbreve" unicode="&#x11e;" horiz-adv-x="771" 
d="M464 885h116q-5 -70 -49 -108q-55 -47 -139 -47q-44 0 -84.5 15.5t-64.5 41.5q-35 36 -39 98h116q7 -50 70 -50q67 0 74 50zM722 446h-192q-47 87 -147 87q-78 0 -132 -56q-51 -52 -51 -132q0 -96 53 -152q25 -26 63.5 -41t78.5 -15q57 0 96.5 28.5t51.5 78.5h-199v137
h398l1 -35q4 -152 -100.5 -255.5t-257.5 -103.5q-149 0 -252.5 101.5t-103.5 248.5q0 72 29 139t80 114q46 43 114 68t136 25q115 0 210 -67.5t124 -169.5z" />
    <glyph glyph-name="gbreve" unicode="&#x11f;" horiz-adv-x="623" 
d="M397 709h95q-4 -65 -47.5 -100.5t-119.5 -35.5q-77 0 -120.5 35.5t-47.5 100.5h95q11 -25 27.5 -34.5t48.5 -9.5q51 0 69 44zM37 -47h173q21 -50 89 -50q63 0 98 46q24 31 24 90v16q-16 -31 -59 -51.5t-92 -20.5q-101 0 -172 77.5t-71 187.5q0 117 73 194.5t183 77.5
q94 0 148 -64v47h142v-442q0 -77 -6 -108.5t-26 -61.5q-36 -53 -104 -84t-150 -31q-102 0 -170.5 48.5t-79.5 128.5zM178 254q0 -56 34.5 -93t86.5 -37q54 0 88.5 35t34.5 90q0 57 -34.5 93.5t-87.5 36.5q-51 0 -86.5 -36.5t-35.5 -88.5z" />
    <glyph glyph-name="Gdotaccent" unicode="&#x120;" horiz-adv-x="771" 
d="M310 737v151h158v-151h-158zM722 446h-192q-47 87 -147 87q-78 0 -132 -56q-51 -52 -51 -132q0 -96 53 -152q25 -26 63.5 -41t78.5 -15q57 0 96.5 28.5t51.5 78.5h-199v137h398l1 -35q4 -152 -100.5 -255.5t-257.5 -103.5q-149 0 -252.5 101.5t-103.5 248.5q0 72 29 139
t80 114q46 43 114 68t136 25q115 0 210 -67.5t124 -169.5z" />
    <glyph glyph-name="gdotaccent" unicode="&#x121;" horiz-adv-x="623" 
d="M249 577v137h144v-137h-144zM37 -47h173q21 -50 89 -50q63 0 98 46q24 31 24 90v16q-16 -31 -59 -51.5t-92 -20.5q-101 0 -172 77.5t-71 187.5q0 117 73 194.5t183 77.5q94 0 148 -64v47h142v-442q0 -77 -6 -108.5t-26 -61.5q-36 -53 -104 -84t-150 -31
q-102 0 -170.5 48.5t-79.5 128.5zM178 254q0 -56 34.5 -93t86.5 -37q54 0 88.5 35t34.5 90q0 57 -34.5 93.5t-87.5 36.5q-51 0 -86.5 -36.5t-35.5 -88.5z" />
    <glyph glyph-name="Gcommaaccent" unicode="&#x122;" horiz-adv-x="771" 
d="M722 446h-192q-47 87 -147 87q-78 0 -132 -56q-51 -52 -51 -132q0 -96 53 -152q25 -26 63.5 -41t78.5 -15q57 0 96.5 28.5t51.5 78.5h-199v137h398l1 -35q4 -152 -100.5 -255.5t-257.5 -103.5q-149 0 -252.5 101.5t-103.5 248.5q0 72 29 139t80 114q46 43 114 68t136 25
q115 0 210 -67.5t124 -169.5zM316 -52h134v-102q0 -49 -20 -74q-23 -29 -59 -29h-55v60h27q15 0 24 8t9 21v16h-60v100z" />
    <glyph glyph-name="gcommaaccent" unicode="&#x123;" horiz-adv-x="623" 
d="M251 573v102q0 50 20 75q23 29 59 29h55v-60h-27q-15 0 -24 -8t-9 -21v-17h60v-100h-134zM37 -47h173q21 -50 89 -50q63 0 98 46q24 31 24 90v16q-16 -31 -59 -51.5t-92 -20.5q-101 0 -172 77.5t-71 187.5q0 117 73 194.5t183 77.5q94 0 148 -64v47h142v-442
q0 -77 -6 -108.5t-26 -61.5q-36 -53 -104 -84t-150 -31q-102 0 -170.5 48.5t-79.5 128.5zM178 254q0 -56 34.5 -93t86.5 -37q54 0 88.5 35t34.5 90q0 57 -34.5 93.5t-87.5 36.5q-51 0 -86.5 -36.5t-35.5 -88.5z" />
    <glyph glyph-name="Hcircumflex" unicode="&#x124;" horiz-adv-x="675" 
d="M136 737l133 151h148l128 -151h-158l-46 64l-45 -64h-160zM57 0v670h171v-251h219v251h171v-670h-171v268h-219v-268h-171z" />
    <glyph glyph-name="hcircumflex" unicode="&#x125;" horiz-adv-x="563" 
d="M-74 737l133 151h148l128 -151h-158l-46 64l-45 -64h-160zM51 0v670h151v-213q37 63 131 63q84 0 136 -54q27 -29 37 -68t10 -117v-281h-151v274q0 105 -80 105q-39 0 -63 -26q-20 -21 -20 -74v-279h-151z" />
    <glyph glyph-name="Hbar" unicode="&#x126;" horiz-adv-x="675" 
d="M57 0v486h-57v121h57v63h171v-63h219v63h171v-63h57v-121h-57v-486h-171v268h-219v-268h-171zM228 419h219v67h-219v-67z" />
    <glyph glyph-name="hbar" unicode="&#x127;" horiz-adv-x="563" 
d="M50 0v549h-57v84h57v37h151v-37h104v-84h-104v-92q37 63 131 63q86 0 137 -54q27 -29 37 -68t10 -117v-281h-151v274q0 105 -80 105q-40 0 -64 -26q-20 -21 -20 -74v-279h-151z" />
    <glyph glyph-name="Itilde" unicode="&#x128;" horiz-adv-x="285" 
d="M8 748l-49 89q52 43 101 43q32 0 113 -25q12 -4 25 -4q29 0 80 29l47 -89q-55 -41 -108 -41q-31 0 -117 26q-12 4 -26 4q-29 0 -66 -32zM57 0v670h171v-670h-171z" />
    <glyph glyph-name="itilde" unicode="&#x129;" horiz-adv-x="251" 
d="M4 575l-46 78q48 46 98 46q24 0 101 -23q18 -6 33 -6q18 0 65 31l39 -78q-47 -46 -106 -46q-19 0 -61 16q-37 13 -61 13q-32 0 -62 -31zM50 0v503h151v-503h-151z" />
    <glyph glyph-name="Imacron" unicode="&#x12a;" horiz-adv-x="285" 
d="M-13 764v101h318v-101h-318zM57 0v670h171v-670h-171z" />
    <glyph glyph-name="imacron" unicode="&#x12b;" horiz-adv-x="251" 
d="M-18 596v88h295v-88h-295zM51 0v503h151v-503h-151z" />
    <glyph glyph-name="Iogonek" unicode="&#x12e;" horiz-adv-x="285" 
d="M57 0v670h171v-670h-36q-37 -19 -49 -31.5t-12 -31.5t13.5 -32t33.5 -13q16 0 47 13v-82q-48 -18 -81 -18q-47 0 -80.5 27t-33.5 64q0 59 84 104h-57z" />
    <glyph glyph-name="iogonek" unicode="&#x12f;" horiz-adv-x="251" 
d="M50 556v114h151v-114h-151zM50 0v503h151v-503h-30l-12 -6q-43 -22 -43 -59q0 -18 13.5 -31t32.5 -13q17 0 44 11v-75q-46 -14 -78 -14q-49 0 -78.5 24t-29.5 64q0 26 17.5 49t58.5 50h-46z" />
    <glyph glyph-name="Idotaccent" unicode="&#x130;" horiz-adv-x="285" 
d="M67 737v151h158v-151h-158zM57 0v670h171v-670h-171z" />
    <glyph glyph-name="dotlessi" unicode="&#x131;" horiz-adv-x="251" 
d="M50 0v503h151v-503h-151z" />
    <glyph glyph-name="Jcircumflex" unicode="&#x134;" horiz-adv-x="507" 
d="M168 737l133 151h149l128 -151h-159l-46 64l-44 -64h-161zM457 670v-406q0 -77 -9 -117.5t-32 -71.5q-31 -40 -82.5 -64t-107.5 -24q-61 0 -114 26.5t-81 71.5q-31 49 -31 130h182q2 -41 14.5 -59t38.5 -18q22 0 37 17q14 18 14 67v448h171z" />
    <glyph glyph-name="jcircumflex" unicode="&#x135;" horiz-adv-x="251" 
d="M-55 576l134 151h104l130 -151h-142l-42 58l-41 -58h-143zM50 6v497h151v-491q0 -111 -40.5 -153.5t-146.5 -42.5h-37v114h20q30 0 41.5 16.5t11.5 59.5z" />
    <glyph glyph-name="Kcommaaccent" unicode="&#x136;" horiz-adv-x="606" 
d="M57 0v670h171v-302l191 302h180l-222 -334l236 -336h-200l-185 290v-290h-171zM238 -52h134v-102q0 -49 -20 -74q-23 -29 -59 -29h-55v60h27q15 0 24 8t9 21v16h-60v100z" />
    <glyph glyph-name="kcommaaccent" unicode="&#x137;" horiz-adv-x="514" 
d="M50 0v670h151v-349l141 182h178l-189 -221l184 -282h-171l-143 242v-242h-151zM193 -52h134v-102q0 -49 -20 -74q-23 -29 -59 -29h-55v60h27q15 0 24 8t9 21v16h-60v100z" />
    <glyph glyph-name="kgreenlandic" unicode="&#x138;" horiz-adv-x="514" 
d="M50 0v503h151v-182l141 182h178l-189 -221l184 -282h-171l-143 242v-242h-151z" />
    <glyph glyph-name="Lacute" unicode="&#x139;" horiz-adv-x="440" 
d="M130 714l-54 79l174 144l63 -89zM57 0v670h171v-519h198v-151h-369z" />
    <glyph glyph-name="lacute" unicode="&#x13a;" horiz-adv-x="251" 
d="M124 714l-54 79l175 144l62 -89zM50 0v670h151v-670h-151z" />
    <glyph glyph-name="Lcommaaccent" unicode="&#x13b;" horiz-adv-x="440" 
d="M57 0v670h171v-519h198v-151h-369zM182 -52h134v-102q0 -49 -20 -74q-23 -29 -59 -29h-55v60h27q15 0 24 8t9 21v16h-60v100z" />
    <glyph glyph-name="lcommaaccent" unicode="&#x13c;" horiz-adv-x="251" 
d="M50 0v670h151v-670h-151zM59 -52h134v-102q0 -49 -20 -74q-23 -29 -59 -29h-55v60h27q15 0 24 8t9 21v16h-60v100z" />
    <glyph glyph-name="Lcaron" unicode="&#x13d;" horiz-adv-x="440" 
d="M57 0v670h171v-519h198v-151h-369zM288 464v60h27q15 0 24 8t9 21v17h-60v100h134v-102q0 -50 -20 -75q-21 -29 -59 -29h-55z" />
    <glyph glyph-name="lcaron" unicode="&#x13e;" horiz-adv-x="395" 
d="M254 464v60h27q15 0 24 8t9 21v17h-60v100h134v-102q0 -50 -20 -75q-23 -29 -59 -29h-55zM50 0v670h151v-670h-151z" />
    <glyph glyph-name="Lslash" unicode="&#x141;" horiz-adv-x="440" 
d="M57 0v217l-57 -41v142l57 41v311h171v-225l125 86v-143l-125 -86v-151h198v-151h-369z" />
    <glyph glyph-name="lslash" unicode="&#x142;" horiz-adv-x="251" 
d="M50 0v255l-50 -38v105l50 37v311h151v-241l50 38v-105l-50 -37v-325h-151z" />
    <glyph glyph-name="Nacute" unicode="&#x143;" horiz-adv-x="680" 
d="M342 714l-54 79l174 144l63 -89zM57 0v670h147l262 -421l-7 421h164v-670h-149l-259 408l6 -408h-164z" />
    <glyph glyph-name="nacute" unicode="&#x144;" horiz-adv-x="563" 
d="M294 546l-62 59l134 161l73 -75zM50 0v503h142v-53q28 38 59.5 54t78.5 16q83 0 136 -51q28 -27 39 -61t11 -94v-314h-151v274q0 52 -15 74q-20 31 -64 31q-47 0 -71 -35q-14 -20 -14 -63v-281h-151z" />
    <glyph glyph-name="Ncommaaccent" unicode="&#x145;" horiz-adv-x="680" 
d="M57 0v670h147l262 -421l-7 421h164v-670h-149l-259 408l6 -408h-164zM270 -52h134v-102q0 -49 -20 -74q-23 -29 -59 -29h-55v60h27q15 0 24 8t9 21v16h-60v100z" />
    <glyph glyph-name="ncommaaccent" unicode="&#x146;" horiz-adv-x="563" 
d="M50 0v503h142v-53q28 38 59.5 54t78.5 16q83 0 136 -51q28 -27 39 -61t11 -94v-314h-151v274q0 52 -15 74q-20 31 -64 31q-47 0 -71 -35q-14 -20 -14 -63v-281h-151zM213 -52h134v-102q0 -49 -20 -74q-23 -29 -59 -29h-55v60h27q15 0 24 8t9 21v16h-60v100z" />
    <glyph glyph-name="Ncaron" unicode="&#x147;" horiz-adv-x="680" 
d="M273 737l-128 151h159l45 -64l45 64h160l-132 -151h-149zM57 0v670h147l262 -421l-7 421h164v-670h-149l-259 408l6 -408h-164z" />
    <glyph glyph-name="ncaron" unicode="&#x148;" horiz-adv-x="563" 
d="M235 576l-130 151h142l42 -58l41 58h143l-133 -151h-105zM50 0v503h142v-53q28 38 59.5 54t78.5 16q83 0 136 -51q28 -27 39 -61t11 -94v-314h-151v274q0 52 -15 74q-20 31 -64 31q-47 0 -71 -35q-14 -20 -14 -63v-281h-151z" />
    <glyph glyph-name="Eng" unicode="&#x14a;" horiz-adv-x="622" 
d="M57 0v670h162v-64q27 41 61.5 59t87.5 18q92 0 148 -56q32 -30 44 -67t12 -103v-446q0 -110 -40.5 -152.5t-146.5 -42.5h-57v127h20q30 0 41.5 16.5t11.5 59.5v393q0 58 -16 82q-24 34 -67 34q-46 0 -75 -39q-15 -21 -15 -69v-420h-171z" />
    <glyph glyph-name="eng" unicode="&#x14b;" horiz-adv-x="563" 
d="M50 0v503h142v-53q28 38 59.5 54t78.5 16q83 0 136 -51q28 -27 39 -61t11 -94v-303q0 -110 -40.5 -152.5t-146.5 -42.5h-37v114h20q30 0 41.5 16.5t11.5 59.5v268q0 52 -15 74q-20 31 -64 31q-47 0 -71 -35q-14 -20 -14 -63v-281h-151z" />
    <glyph glyph-name="Omacron" unicode="&#x14c;" horiz-adv-x="765" 
d="M214 764v101h345v-101h-345zM29 340q0 144 102.5 244t250.5 100q149 0 252 -101t103 -248q0 -146 -102.5 -247t-251.5 -101q-152 0 -253 101t-101 252zM200 339q0 -86 53 -143.5t133 -57.5q76 0 128 57t52 139q0 84 -53 141.5t-130 57.5t-130 -56t-53 -138z" />
    <glyph glyph-name="omacron" unicode="&#x14d;" horiz-adv-x="598" 
d="M141 596v88h322v-88h-322zM27 253q0 113 79 192q73 75 192 75q133 0 211 -95q61 -77 61 -173q0 -113 -79 -194q-73 -75 -194 -75q-118 0 -194 76t-76 194zM178 253q0 -55 34.5 -92t86.5 -37q51 0 85.5 36.5t34.5 91.5q0 52 -35 89.5t-85 37.5t-85.5 -37t-35.5 -89z" />
    <glyph glyph-name="Ohungarumlaut" unicode="&#x150;" horiz-adv-x="765" 
d="M493 714l-54 79l175 144l62 -89zM292 714l-54 79l175 144l62 -89zM29 340q0 144 102.5 244t250.5 100q149 0 252 -101t103 -248q0 -146 -102.5 -247t-251.5 -101q-152 0 -253 101t-101 252zM200 339q0 -86 53 -143.5t133 -57.5q76 0 128 57t52 139q0 84 -53 141.5
t-130 57.5t-130 -56t-53 -138z" />
    <glyph glyph-name="ohungarumlaut" unicode="&#x151;" horiz-adv-x="598" 
d="M398 546l-62 59l134 161l74 -75zM229 546l-62 59l134 161l74 -75zM27 253q0 113 79 192q73 75 192 75q133 0 211 -95q61 -77 61 -173q0 -113 -79 -194q-73 -75 -194 -75q-118 0 -194 76t-76 194zM178 253q0 -55 34.5 -92t86.5 -37q51 0 85.5 36.5t34.5 91.5
q0 52 -35 89.5t-85 37.5t-85.5 -37t-35.5 -89z" />
    <glyph glyph-name="OE" unicode="&#x152;" horiz-adv-x="977" 
d="M562 0v44q-78 -57 -185 -57q-145 0 -246.5 101t-101.5 246q0 148 101.5 248.5t250.5 100.5q56 0 97 -13t84 -44v44h373v-151h-208v-103h201v-151h-201v-114h208v-151h-373zM244 204q51 -66 136 -66q78 0 129.5 56.5t51.5 143.5q0 85 -51 139.5t-129 54.5t-129.5 -56
t-51.5 -139q0 -74 44 -133z" />
    <glyph glyph-name="oe" unicode="&#x153;" horiz-adv-x="971" 
d="M772 157h154q-33 -80 -100 -127t-148 -47q-120 0 -189 90q-71 -90 -195 -90q-116 0 -191.5 75.5t-75.5 191.5q0 119 75.5 194.5t194.5 75.5q129 0 192 -86q27 38 79.5 62t109.5 24q111 0 188 -79.5t77 -194.5q0 -18 -4 -42h-377q4 -42 35 -67.5t78 -25.5q54 0 97 46z
M566 305h227q-9 40 -39.5 63.5t-73.5 23.5q-44 0 -75.5 -24t-38.5 -63zM178 253q0 -54 35.5 -91.5t86.5 -37.5q50 0 85 37.5t35 90.5q0 52 -36 89.5t-85 37.5q-50 0 -85.5 -37t-35.5 -89z" />
    <glyph glyph-name="Racute" unicode="&#x154;" horiz-adv-x="590" 
d="M257 714l-55 79l175 144l62 -89zM57 0v670h212q84 0 128 -10t78 -38q39 -31 61 -80t22 -103q0 -105 -73 -169q-38 -32 -94 -42l182 -228h-196l-156 217v-217h-164zM221 334h61q53 0 82.5 25t29.5 70q0 43 -33 70q-27 20 -78 20h-62v-185z" />
    <glyph glyph-name="racute" unicode="&#x155;" horiz-adv-x="325" 
d="M156 546l-62 59l134 161l73 -75zM50 0v503h142v-53q22 39 54 55q32 15 68 15h4v-151q-65 -1 -92 -22t-27 -69v-278h-149z" />
    <glyph glyph-name="Rcommaaccent" unicode="&#x156;" horiz-adv-x="590" 
d="M57 0v670h212q84 0 128 -10t78 -38q39 -31 61 -80t22 -103q0 -105 -73 -169q-38 -32 -94 -42l182 -228h-196l-156 217v-217h-164zM221 334h61q53 0 82.5 25t29.5 70q0 43 -33 70q-27 20 -78 20h-62v-185zM228 -52h134v-102q0 -49 -20 -74q-23 -29 -59 -29h-55v60h27
q15 0 24 8t9 21v16h-60v100z" />
    <glyph glyph-name="rcommaaccent" unicode="&#x157;" horiz-adv-x="325" 
d="M50 0v503h142v-53q22 39 54 55q32 15 68 15h4v-151q-65 -1 -92 -22t-27 -69v-278h-149zM57 -52h134v-102q0 -49 -20 -74q-23 -29 -59 -29h-55v60h27q15 0 24 8t9 21v16h-60v100z" />
    <glyph glyph-name="Rcaron" unicode="&#x158;" horiz-adv-x="590" 
d="M211 737l-128 151h159l45 -64l45 64h160l-132 -151h-149zM57 0v670h212q84 0 128 -10t78 -38q39 -31 61 -80t22 -103q0 -105 -73 -169q-38 -32 -94 -42l182 -228h-196l-156 217v-217h-164zM221 334h61q53 0 82.5 25t29.5 70q0 43 -33 70q-27 20 -78 20h-62v-185z" />
    <glyph glyph-name="rcaron" unicode="&#x159;" horiz-adv-x="325" 
d="M135 576l-130 151h142l42 -58l41 58h143l-133 -151h-105zM50 0v503h142v-53q23 40 54 55q28 15 68 15h4v-151q-65 -1 -92 -22t-27 -69v-278h-149z" />
    <glyph glyph-name="Sacute" unicode="&#x15a;" horiz-adv-x="519" 
d="M245 714l-54 79l174 144l63 -89zM486 475h-170q-5 34 -19 49.5t-42 15.5q-25 0 -42 -15.5t-17 -37.5q0 -24 17 -38q12 -12 27 -20t95 -44q84 -38 120.5 -83t36.5 -110q0 -96 -62.5 -151t-171.5 -55q-183 0 -231 138q-13 35 -13 97h172q0 -42 18.5 -66.5t50.5 -24.5
q28 0 47 18.5t19 45.5t-20 44q-15 13 -31 20.5t-98 40.5q-71 29 -109 77t-38 109q0 83 68 141t167 58q55 0 103 -20.5t78 -56.5q40 -48 45 -132z" />
    <glyph glyph-name="sacute" unicode="&#x15b;" horiz-adv-x="448" 
d="M226 546l-62 59l134 161l73 -75zM409 362h-147q-4 37 -43 37q-22 0 -35 -9t-13 -23q0 -34 78 -55q96 -26 128 -53q48 -41 48 -106q0 -73 -60 -122t-149 -49t-149 55q-25 23 -36.5 48t-15.5 64h150q6 -46 57 -46q22 0 37 11.5t15 27.5q0 17 -13 28q-14 11 -31 16.5
t-103 28.5q-47 12 -77 51t-30 88q0 70 59 118t144 48q100 0 153 -67q28 -36 33 -91z" />
    <glyph glyph-name="Scircumflex" unicode="&#x15c;" horiz-adv-x="519" 
d="M61 737l133 151h148l129 -151h-159l-46 64l-45 -64h-160zM486 475h-170q-5 34 -19 49.5t-42 15.5q-25 0 -42 -15.5t-17 -37.5q0 -24 17 -38q12 -12 27 -20t95 -44q84 -38 120.5 -83t36.5 -110q0 -96 -62.5 -151t-171.5 -55q-183 0 -231 138q-13 35 -13 97h172
q0 -42 18.5 -66.5t50.5 -24.5q28 0 47 18.5t19 45.5t-20 44q-15 13 -31 20.5t-98 40.5q-71 29 -109 77t-38 109q0 83 68 141t167 58q55 0 103 -20.5t78 -56.5q40 -48 45 -132z" />
    <glyph glyph-name="scircumflex" unicode="&#x15d;" horiz-adv-x="448" 
d="M43 576l133 151h105l130 -151h-142l-42 58l-41 -58h-143zM409 362h-147q-4 37 -43 37q-22 0 -35 -9t-13 -23q0 -34 78 -55q96 -26 128 -53q48 -41 48 -106q0 -73 -60 -122t-149 -49t-149 55q-25 23 -36.5 48t-15.5 64h150q6 -46 57 -46q22 0 37 11.5t15 27.5q0 17 -13 28
q-14 11 -31 16.5t-103 28.5q-47 12 -77 51t-30 88q0 70 59 118t144 48q100 0 153 -67q28 -36 33 -91z" />
    <glyph glyph-name="Scedilla" unicode="&#x15e;" horiz-adv-x="519" 
d="M168 -80l37 70q-95 14 -145 74t-46 157h172q0 -41 18.5 -65.5t50.5 -24.5q28 0 47 18.5t19 45.5t-20 44q-16 13 -32 20.5t-97 40.5q-147 60 -147 186q0 83 68.5 140.5t166.5 57.5q55 0 103 -20.5t78 -56.5q40 -48 45 -132h-170q-5 34 -19 49.5t-42 15.5q-25 0 -42 -15.5
t-17 -37.5q0 -24 17 -38q12 -12 27 -20t95 -44q85 -38 121 -83t36 -110q0 -62 -28.5 -110t-80.5 -72q-35 -16 -108 -24l-17 -33q9 2 19 2q33 0 55.5 -22.5t22.5 -55.5q0 -46 -31.5 -76.5t-79.5 -30.5q-44 0 -70 24t-31 68h71q10 -26 33 -26q15 0 25 10t10 24q0 15 -10 24.5
t-24 9.5t-28 -15z" />
    <glyph glyph-name="scedilla" unicode="&#x15f;" horiz-adv-x="448" 
d="M15 149h150q6 -46 57 -46q22 0 37 11.5t15 27.5q0 17 -13 28q-14 11 -31 16.5t-103 28.5q-47 12 -77 51t-30 88q0 70 59 118t144 48q100 0 153 -67q28 -36 33 -91h-147q-4 37 -43 37q-22 0 -35 -9t-13 -23q0 -34 78 -55q96 -26 128 -53q48 -41 48 -105q0 -71 -53.5 -118
t-140.5 -53l-18 -35q15 3 25 3q30 0 51.5 -22t21.5 -53q0 -43 -28 -69.5t-72 -26.5q-41 0 -66.5 22t-29.5 61h63q6 -14 12.5 -19.5t18.5 -5.5q15 0 25 9.5t10 24.5q0 14 -9 22.5t-22 8.5q-14 0 -28 -14l-44 32l31 65q-67 11 -110.5 56.5t-46.5 106.5z" />
    <glyph glyph-name="Scaron" unicode="&#x160;" horiz-adv-x="519" 
d="M199 737l-128 151h159l45 -64l45 64h160l-132 -151h-149zM486 475h-170q-5 34 -19 49.5t-42 15.5q-25 0 -42 -15.5t-17 -37.5q0 -24 17 -38q12 -12 27 -20t95 -44q84 -38 120.5 -83t36.5 -110q0 -96 -62.5 -151t-171.5 -55q-183 0 -231 138q-13 35 -13 97h172
q0 -42 18.5 -66.5t50.5 -24.5q28 0 47 18.5t19 45.5t-20 44q-15 13 -31 20.5t-98 40.5q-71 29 -109 77t-38 109q0 83 68 141t167 58q55 0 103 -20.5t78 -56.5q40 -48 45 -132z" />
    <glyph glyph-name="scaron" unicode="&#x161;" horiz-adv-x="448" 
d="M176 576l-130 151h142l42 -58l41 58h143l-133 -151h-105zM409 362h-147q-4 37 -43 37q-22 0 -35 -9t-13 -23q0 -34 78 -55q96 -26 128 -53q48 -41 48 -106q0 -73 -60 -122t-149 -49t-149 55q-25 23 -36.5 48t-15.5 64h150q6 -46 57 -46q22 0 37 11.5t15 27.5q0 17 -13 28
q-14 11 -31 16.5t-103 28.5q-47 12 -77 51t-30 88q0 70 59 118t144 48q100 0 153 -67q28 -36 33 -91z" />
    <glyph glyph-name="Tcommaaccent" unicode="&#x162;" horiz-adv-x="450" 
d="M140 0v519h-133v151h436v-151h-132v-519h-171zM158 -52h134v-102q0 -49 -20 -74q-23 -29 -59 -29h-55v60h27q15 0 24 8t9 21v16h-60v100z" />
    <glyph glyph-name="tcommaaccent" unicode="&#x163;" horiz-adv-x="295" 
d="M64 0v389h-74v114h74v167h151v-167h72v-114h-72v-389h-151zM74 -52h134v-102q0 -49 -20 -74q-23 -29 -59 -29h-55v60h27q15 0 24 8t9 21v16h-60v100z" />
    <glyph glyph-name="Tcaron" unicode="&#x164;" horiz-adv-x="450" 
d="M155 737l-128 151h159l45 -64l45 64h160l-132 -151h-149zM140 0v519h-133v151h436v-151h-132v-519h-171z" />
    <glyph glyph-name="tcaron" unicode="&#x165;" horiz-adv-x="408" 
d="M268 556v60h27q15 0 24 8t9 21v17h-60v100h134v-102q0 -50 -20 -75q-23 -29 -59 -29h-55zM64 0v389h-74v114h74v167h151v-167h72v-114h-72v-389h-151z" />
    <glyph glyph-name="Tbar" unicode="&#x166;" horiz-adv-x="450" 
d="M403 258h-92v-258h-171v258h-93v151h93v110h-133v151h436v-151h-132v-110h92v-151z" />
    <glyph glyph-name="tbar" unicode="&#x167;" horiz-adv-x="295" 
d="M267 186h-52v-186h-151v186h-54v114h54v89h-74v114h74v167h151v-167h72v-114h-72v-89h52v-114z" />
    <glyph glyph-name="Utilde" unicode="&#x168;" horiz-adv-x="615" 
d="M170 748l-49 89q52 43 101 43q32 0 113 -25q12 -4 25 -4q29 0 80 29l47 -89q-55 -41 -108 -41q-31 0 -117 26q-12 4 -26 4q-29 0 -66 -32zM565 670v-405q0 -74 -15.5 -120.5t-51.5 -84.5q-73 -73 -189 -73q-118 0 -192 72q-38 37 -52.5 82t-14.5 124v405h171v-405
q0 -66 21 -96.5t67 -30.5q42 0 64 27q21 25 21 100v405h171z" />
    <glyph glyph-name="utilde" unicode="&#x169;" horiz-adv-x="565" 
d="M160 575l-46 78q48 46 98 46q24 0 101 -23q18 -6 33 -6q18 0 65 31l39 -78q-47 -46 -106 -46q-19 0 -61 16q-37 13 -61 13q-32 0 -62 -31zM373 0v54q-38 -71 -134 -71q-91 0 -146 63q-26 31 -36 64t-10 92v301h151v-281q0 -55 21 -76q22 -22 60 -22q40 0 62.5 25.5
t22.5 72.5v281h151v-503h-142z" />
    <glyph glyph-name="Umacron" unicode="&#x16a;" horiz-adv-x="615" 
d="M141 764v101h345v-101h-345zM565 670v-405q0 -74 -15.5 -120.5t-51.5 -84.5q-73 -73 -189 -73q-118 0 -192 72q-38 37 -52.5 82t-14.5 124v405h171v-405q0 -66 21 -96.5t67 -30.5q42 0 64 27q21 25 21 100v405h171z" />
    <glyph glyph-name="umacron" unicode="&#x16b;" horiz-adv-x="565" 
d="M128 596v88h322v-88h-322zM373 0v54q-38 -71 -134 -71q-91 0 -146 63q-26 31 -36 64t-10 92v301h151v-281q0 -55 21 -76q22 -22 60 -22q40 0 62.5 25.5t22.5 72.5v281h151v-503h-142z" />
    <glyph glyph-name="Ubreve" unicode="&#x16c;" horiz-adv-x="615" 
d="M385 885h116q-5 -70 -49 -108q-55 -47 -139 -47q-44 0 -84.5 15.5t-64.5 41.5q-35 36 -39 98h115q9 -50 71 -50q67 0 74 50zM565 670v-405q0 -74 -15.5 -120.5t-51.5 -84.5q-73 -73 -189 -73q-118 0 -192 72q-38 37 -52.5 82t-14.5 124v405h171v-405q0 -66 21 -96.5
t67 -30.5q42 0 64 27q21 25 21 100v405h171z" />
    <glyph glyph-name="ubreve" unicode="&#x16d;" horiz-adv-x="565" 
d="M363 709h96q-5 -65 -48.5 -100.5t-119.5 -35.5t-119.5 35.5t-48.5 100.5h96q10 -25 27 -34.5t49 -9.5q52 0 68 44zM373 0v54q-38 -71 -134 -71q-91 0 -146 63q-26 31 -36 64t-10 92v301h151v-281q0 -55 21 -76q22 -22 60 -22q40 0 62.5 25.5t22.5 72.5v281h151v-503h-142
z" />
    <glyph glyph-name="Uring" unicode="&#x16e;" horiz-adv-x="615" 
d="M314 713q-48 0 -82 34t-34 82q0 47 34.5 80.5t83.5 33.5q47 0 80.5 -34t33.5 -81t-34 -81t-82 -34zM314 785q17 0 29.5 13t12.5 30q0 18 -12 31t-29 13q-18 0 -30.5 -12.5t-12.5 -30.5q0 -19 12.5 -31.5t29.5 -12.5zM565 670v-405q0 -74 -15.5 -120.5t-51.5 -84.5
q-73 -73 -189 -73q-118 0 -192 72q-38 37 -52.5 82t-14.5 124v405h171v-405q0 -66 21 -96.5t67 -30.5q42 0 64 27q21 25 21 100v405h171z" />
    <glyph glyph-name="uring" unicode="&#x16f;" horiz-adv-x="565" 
d="M288 553q-47 0 -80.5 33t-33.5 80t33.5 79.5t81.5 32.5q46 0 79 -33t33 -79t-33.5 -79.5t-79.5 -33.5zM287 621q18 0 31 13t13 32q0 18 -13 31.5t-30 13.5q-18 0 -31 -13t-13 -32t13 -32t30 -13zM373 0v54q-38 -71 -134 -71q-91 0 -146 63q-26 31 -36 64t-10 92v301h151
v-281q0 -55 21 -76q22 -22 60 -22q40 0 62.5 25.5t22.5 72.5v281h151v-503h-142z" />
    <glyph glyph-name="Uhungarumlaut" unicode="&#x170;" horiz-adv-x="615" 
d="M407 714l-54 79l175 144l62 -89zM206 714l-54 79l175 144l62 -89zM565 670v-405q0 -74 -15.5 -120.5t-51.5 -84.5q-73 -73 -189 -73q-118 0 -192 72q-38 37 -52.5 82t-14.5 124v405h171v-405q0 -66 21 -96.5t67 -30.5q42 0 64 27q21 25 21 100v405h171z" />
    <glyph glyph-name="uhungarumlaut" unicode="&#x171;" horiz-adv-x="565" 
d="M376 546l-62 59l134 161l74 -75zM207 546l-62 59l134 161l74 -75zM373 0v54q-38 -71 -134 -71q-91 0 -146 63q-26 31 -36 64t-10 92v301h151v-281q0 -55 21 -76q22 -22 60 -22q40 0 62.5 25.5t22.5 72.5v281h151v-503h-142z" />
    <glyph glyph-name="Uogonek" unicode="&#x172;" horiz-adv-x="615" 
d="M477 -95v-82q-48 -18 -81 -18q-47 0 -80.5 27t-33.5 65q0 44 41 90q-7 -1 -17 -1q-115 0 -189 72q-38 38 -52.5 83t-14.5 124v405h171v-405q0 -67 21 -97.5t67 -30.5q42 0 64 27q21 25 21 101v405h171v-405q0 -75 -15 -121t-52 -85q-28 -30 -64 -46q-51 -34 -51 -74
q0 -20 13.5 -33.5t33.5 -13.5q17 0 47 13z" />
    <glyph glyph-name="uogonek" unicode="&#x173;" horiz-adv-x="565" 
d="M372 0v54q-34 -71 -133 -71q-91 0 -146 63q-26 31 -36 64t-10 92v301h151v-281q0 -55 21 -76q22 -22 60 -22q40 0 62.5 25.5t22.5 72.5v281h151v-503h-67q-31 -17 -43.5 -31.5t-12.5 -33.5q0 -18 14 -31t33 -13q17 0 44 11v-75q-46 -14 -79 -14q-48 0 -77.5 24.5
t-29.5 63.5q0 27 16 48t59 51z" />
    <glyph glyph-name="Ydieresis" unicode="&#x178;" horiz-adv-x="550" 
d="M311 737v151h158v-151h-158zM94 737v151h158v-151h-158zM190 0v244l-200 426h186l100 -269l100 269h184l-199 -426v-244h-171z" />
    <glyph glyph-name="Zacute" unicode="&#x179;" horiz-adv-x="460" 
d="M224 714l-55 79l175 144l62 -89zM17 0v113l231 406h-231v151h423v-139l-214 -380h214v-151h-423z" />
    <glyph glyph-name="zacute" unicode="&#x17a;" horiz-adv-x="408" 
d="M211 546l-62 59l134 161l73 -75zM17 0v103l212 286h-212v114h374v-115l-197 -274h197v-114h-374z" />
    <glyph glyph-name="Zdotaccent" unicode="&#x17b;" horiz-adv-x="460" 
d="M163 737v151h158v-151h-158zM17 0v113l231 406h-231v151h423v-139l-214 -380h214v-151h-423z" />
    <glyph glyph-name="zdotaccent" unicode="&#x17c;" horiz-adv-x="408" 
d="M145 577v137h144v-137h-144zM17 0v103l212 286h-212v114h374v-115l-197 -274h197v-114h-374z" />
    <glyph glyph-name="Zcaron" unicode="&#x17d;" horiz-adv-x="460" 
d="M160 737l-128 151h159l45 -64l45 64h160l-132 -151h-149zM17 0v113l231 406h-231v151h423v-139l-214 -380h214v-151h-423z" />
    <glyph glyph-name="zcaron" unicode="&#x17e;" horiz-adv-x="408" 
d="M161 576l-130 151h142l42 -58l41 58h143l-133 -151h-105zM17 0v103l212 286h-212v114h374v-115l-197 -274h197v-114h-374z" />
    <glyph glyph-name="florin" unicode="&#x192;" horiz-adv-x="553" 
d="M62 10q8 -1 16 -1q48 0 70 23t33 83l52 304h-66l19 113h67l5 29q14 81 72 127q61 50 141 50q25 0 38 -3l-20 -121q-70 3 -81 -69l-2 -13h66l-20 -113h-65l-50 -284q-14 -80 -28 -117.5t-41 -68.5q-68 -78 -181 -78q-35 0 -49 5z" />
    <glyph glyph-name="Scommaaccent" unicode="&#x218;" horiz-adv-x="519" 
d="M486 475h-170q-5 34 -19 49.5t-42 15.5q-25 0 -42 -15.5t-17 -37.5q0 -24 17 -38q12 -12 27 -20t95 -44q84 -38 120.5 -83t36.5 -110q0 -96 -62.5 -151t-171.5 -55q-183 0 -231 138q-13 35 -13 97h172q0 -42 18.5 -66.5t50.5 -24.5q28 0 47 18.5t19 45.5t-20 44
q-15 13 -31 20.5t-98 40.5q-71 29 -109 77t-38 109q0 83 68 141t167 58q55 0 103 -20.5t78 -56.5q40 -48 45 -132zM193 -52h134v-102q0 -49 -20 -74q-23 -29 -59 -29h-55v60h27q15 0 24 8t9 21v16h-60v100z" />
    <glyph glyph-name="scommaaccent" unicode="&#x219;" horiz-adv-x="448" 
d="M409 362h-147q-4 37 -43 37q-22 0 -35 -9t-13 -23q0 -34 78 -55q96 -26 128 -53q48 -41 48 -106q0 -73 -60 -122t-149 -49t-149 55q-25 23 -36.5 48t-15.5 64h150q6 -46 57 -46q22 0 37 11.5t15 27.5q0 17 -13 28q-14 11 -31 16.5t-103 28.5q-47 12 -77 51t-30 88
q0 70 59 118t144 48q100 0 153 -67q28 -36 33 -91zM150 -52h134v-102q0 -49 -20 -74q-23 -29 -59 -29h-55v60h27q15 0 24 8t9 21v16h-60v100z" />
    <glyph glyph-name="uni021A" unicode="&#x21a;" horiz-adv-x="450" 
d="M140 0v519h-133v151h436v-151h-132v-519h-171zM158 -52h134v-102q0 -49 -20 -74q-23 -29 -59 -29h-55v60h27q15 0 24 8t9 21v16h-60v100z" />
    <glyph glyph-name="uni021B" unicode="&#x21b;" horiz-adv-x="295" 
d="M64 0v389h-74v114h74v167h151v-167h72v-114h-72v-389h-151zM74 -52h134v-102q0 -49 -20 -74q-23 -29 -59 -29h-55v60h27q15 0 24 8t9 21v16h-60v100z" />
    <glyph glyph-name="circumflex" unicode="&#x2c6;" horiz-adv-x="503" 
d="M67 576l134 151h104l130 -151h-142l-42 58l-41 -58h-143z" />
    <glyph glyph-name="caron" unicode="&#x2c7;" horiz-adv-x="503" 
d="M197 576l-130 151h142l42 -58l41 58h143l-133 -151h-105z" />
    <glyph glyph-name="breve" unicode="&#x2d8;" horiz-adv-x="503" 
d="M324 709h95q-4 -65 -47.5 -100.5t-119.5 -35.5q-77 0 -120.5 35.5t-47.5 100.5h95q11 -25 28 -34.5t48 -9.5q51 0 69 44z" />
    <glyph glyph-name="dotaccent" unicode="&#x2d9;" horiz-adv-x="503" 
d="M179 577v137h144v-137h-144z" />
    <glyph glyph-name="ring" unicode="&#x2da;" horiz-adv-x="503" 
d="M252 553q-47 0 -80.5 33t-33.5 80t33.5 79.5t81.5 32.5q46 0 79 -33t33 -79t-33.5 -79.5t-79.5 -33.5zM251 621q18 0 31 13t13 32q0 18 -13 31.5t-30 13.5q-18 0 -31 -13t-13 -32t13 -32t30 -13z" />
    <glyph glyph-name="ogonek" unicode="&#x2db;" horiz-adv-x="503" 
d="M377 -98l-1 -75q-45 -14 -77 -14q-49 0 -78.5 24t-29.5 64q0 26 17 48t59 51h75q-55 -30 -55 -65q0 -18 13.5 -31t32.5 -13q17 0 44 11z" />
    <glyph glyph-name="tilde" unicode="&#x2dc;" horiz-adv-x="503" 
d="M129 575l-46 78q48 46 98 46q24 0 101 -23q18 -6 33 -6q18 0 65 31l39 -78q-47 -46 -106 -46q-19 0 -61 16q-37 13 -61 13q-32 0 -62 -31z" />
    <glyph glyph-name="hungarumlaut" unicode="&#x2dd;" horiz-adv-x="503" 
d="M328 546l-62 59l134 161l74 -75zM159 546l-62 59l134 161l74 -75z" />
    <glyph glyph-name="uni03A9" unicode="&#x3a9;" horiz-adv-x="670" 
d="M28 0v135h133q-72 45 -104.5 101t-32.5 136q0 131 90.5 223t220.5 92t220.5 -92t90.5 -224q0 -79 -32.5 -135t-104.5 -101h133v-135h-272v124q118 61 118 219q0 88 -44 147.5t-109 59.5t-109 -59t-44 -147q0 -159 118 -220v-124h-272z" />
    <glyph glyph-name="pi" unicode="&#x3c0;" horiz-adv-x="635" 
d="M93 0v367h-73v115h595v-115h-73v-367h-146v367h-157v-367h-146z" />
    <glyph glyph-name="endash" unicode="&#x2013;" horiz-adv-x="553" 
d="M44 194v127h466v-127h-466z" />
    <glyph glyph-name="emdash" unicode="&#x2014;" horiz-adv-x="771" 
d="M0 194v127h771v-127h-771z" />
    <glyph glyph-name="quoteleft" unicode="&#x2018;" horiz-adv-x="263" 
d="M54 371v190q0 49 25.5 79t66.5 30h64v-81h-31q-17 0 -28 -9.5t-11 -24.5v-30h70v-154h-156z" />
    <glyph glyph-name="quoteright" unicode="&#x2019;" horiz-adv-x="263" 
d="M54 370v81h31q17 0 28 9.5t11 24.5v31h-70v154h156v-190q0 -49 -25.5 -79.5t-66.5 -30.5h-64z" />
    <glyph glyph-name="quotesinglbase" unicode="&#x201a;" horiz-adv-x="263" 
d="M54 0v154h156v-190q0 -49 -25.5 -79.5t-66.5 -30.5h-64v81h31q17 0 28 9.5t11 24.5v31h-70z" />
    <glyph glyph-name="quotedblleft" unicode="&#x201c;" horiz-adv-x="487" 
d="M278 371v190q0 49 25.5 79t66.5 30h64v-81h-31q-17 0 -28 -9.5t-11 -24.5v-30h70v-154h-156zM54 371v190q0 49 25.5 79t66.5 30h64v-81h-31q-17 0 -28 -9.5t-11 -24.5v-30h70v-154h-156z" />
    <glyph glyph-name="quotedblright" unicode="&#x201d;" horiz-adv-x="487" 
d="M278 370v81h31q17 0 28 9.5t11 24.5v31h-70v154h156v-190q0 -49 -25.5 -79.5t-66.5 -30.5h-64zM54 370v81h31q17 0 28 9.5t11 24.5v31h-70v154h156v-190q0 -49 -25.5 -79.5t-66.5 -30.5h-64z" />
    <glyph glyph-name="quotedblbase" unicode="&#x201e;" horiz-adv-x="487" 
d="M278 0v154h156v-190q0 -49 -25.5 -79.5t-66.5 -30.5h-64v81h31q17 0 28 9.5t11 24.5v31h-70zM54 0v154h156v-190q0 -49 -25.5 -79.5t-66.5 -30.5h-64v81h31q17 0 28 9.5t11 24.5v31h-70z" />
    <glyph glyph-name="dagger" unicode="&#x2020;" horiz-adv-x="553" 
d="M201 -168v540h-149v131h149v167h149v-167h150v-131h-150v-540h-149z" />
    <glyph glyph-name="daggerdbl" unicode="&#x2021;" horiz-adv-x="553" 
d="M52 0v131h149v241h-149v131h149v167h149v-167h150v-131h-150v-241h150v-131h-150v-168h-149v168h-149z" />
    <glyph glyph-name="bullet" unicode="&#x2022;" horiz-adv-x="670" 
d="M337 201q-58 0 -99 41t-41 98q0 58 41.5 99t100.5 41q56 0 96.5 -41.5t40.5 -98.5t-41 -98t-98 -41z" />
    <glyph glyph-name="onedotenleader" unicode="&#x2024;" horiz-adv-x="251" 
d="M55 0v139h141v-139h-141z" />
    <glyph glyph-name="twodotenleader" unicode="&#x2025;" horiz-adv-x="503" 
d="M306 0v139h141v-139h-141zM55 0v139h141v-139h-141z" />
    <glyph glyph-name="ellipsis" unicode="&#x2026;" horiz-adv-x="790" 
d="M581 0v154h156v-154h-156zM317 0v154h156v-154h-156zM54 0v154h156v-154h-156z" />
    <glyph glyph-name="perthousand" unicode="&#x2030;" horiz-adv-x="1173" 
d="M193 359q-71 0 -117 46.5t-46 116.5q0 68 47 114.5t117 46.5q71 0 118 -46t47 -116t-47 -116t-119 -46zM208 0l282 670h106l-282 -670h-106zM195 459q25 0 42 18t17 44t-17 44t-42 18t-42.5 -18t-17.5 -43q0 -27 17 -45t43 -18zM814 150q0 68 47 114.5t117 46.5
q71 0 118 -46t47 -116t-47 -116t-119 -46q-71 0 -117 46.5t-46 116.5zM445 150q0 68 47 114.5t117 46.5q71 0 118 -46t47 -116t-47 -116t-119 -46q-70 0 -116.5 46.5t-46.5 116.5zM919 150q0 -27 17 -45t43 -18q25 0 42 18t17 44t-17 44t-42 18t-42.5 -18t-17.5 -43z
M550 150q0 -27 17 -45t43 -18q25 0 42 18t17 44t-17 44t-42 18t-42.5 -18t-17.5 -43z" />
    <glyph glyph-name="uni2032" unicode="&#x2032;" horiz-adv-x="146" 
d="M13 455l34 215h86l-52 -215h-68z" />
    <glyph glyph-name="uni2033" unicode="&#x2033;" horiz-adv-x="270" 
d="M137 455l34 215h86l-52 -215h-68zM13 455l34 215h86l-52 -215h-68z" />
    <glyph glyph-name="guilsinglleft" unicode="&#x2039;" horiz-adv-x="190" 
d="M151 86l-117 116v116l117 125v-141l-47 -40l47 -43v-133z" />
    <glyph glyph-name="guilsinglright" unicode="&#x203a;" horiz-adv-x="190" 
d="M40 86v135l47 40l-47 42v134l117 -120v-116z" />
    <glyph glyph-name="fraction" unicode="&#x2044;" horiz-adv-x="153" 
d="M-19 0h-92l282 670h92z" />
    <glyph glyph-name="zero.superior" unicode="&#x2070;" 
d="M353 527v-116q0 -64 -47 -107.5t-116 -43.5q-38 0 -74.5 17t-60.5 45q-31 36 -31 89v116q0 60 39 99q52 52 127 52q38 0 76.5 -18.5t60.5 -48.5q26 -34 26 -84zM139 527v-116q0 -57 49 -57q50 0 50 57v116q0 57 -49 57q-50 0 -50 -57z" />
    <glyph glyph-name="four.superior" unicode="&#x2074;" 
d="M204 268v70h-191v77l195 255h107v-248h48v-84h-48v-70h-111zM126 417h90v128z" />
    <glyph glyph-name="five.superior" unicode="&#x2075;" 
d="M160 580l-8 -49q22 11 56 11q62 0 104.5 -39t42.5 -96q0 -62 -48.5 -104.5t-120.5 -42.5q-66 0 -112 32t-57 87h116q19 -25 50 -25q23 0 40 15t17 36t-16.5 35.5t-41.5 14.5q-39 0 -56 -35l-93 21l38 229h245v-90h-156z" />
    <glyph glyph-name="six.superior" unicode="&#x2076;" 
d="M299 670l-95 -121q10 2 22 2q57 0 96 -39.5t39 -97.5q0 -66 -49 -110t-123 -44q-73 0 -123.5 45t-50.5 110q0 55 41 109l109 146h134zM187 354q25 0 42 14.5t17 36.5t-17 37t-42 15t-41.5 -14.5t-16.5 -35.5q0 -23 16.5 -38t41.5 -15z" />
    <glyph glyph-name="seven.superior" unicode="&#x2077;" 
d="M53 268l161 312h-168v90h288v-81l-154 -321h-127z" />
    <glyph glyph-name="eight.superior" unicode="&#x2078;" 
d="M189 260q-67 0 -114.5 38.5t-47.5 91.5q0 34 18 61t48 39q-40 31 -40 74q0 49 38.5 81.5t96.5 32.5t96.5 -32t38.5 -81q0 -44 -41 -75q31 -13 49 -39.5t18 -59.5q0 -55 -47 -93t-113 -38zM188 523q16 0 27 10.5t11 24.5t-11 24t-26 10q-16 0 -27.5 -10.5t-11.5 -24.5
t11 -24t27 -10zM190 354q17 0 30.5 13t13.5 31t-13.5 31t-32.5 13t-32.5 -12.5t-13.5 -30.5q0 -20 13.5 -32.5t34.5 -12.5z" />
    <glyph glyph-name="nine.superior" unicode="&#x2079;" 
d="M86 268l97 122q-9 -2 -24 -2q-62 0 -103 40t-41 100q0 64 49 107t123 43q76 0 125 -44.5t49 -113.5q0 -50 -31 -94l-112 -158h-132zM187 482q25 0 42 15t17 36t-17 36t-41 15q-23 0 -40.5 -15t-17.5 -35q0 -21 17 -36.5t40 -15.5z" />
    <glyph glyph-name="plus.superior" unicode="&#x207a;" horiz-adv-x="338" 
d="M114 326v98h-101v102h101v98h109v-98h101v-102h-101v-98h-109z" />
    <glyph glyph-name="minus.superior" unicode="&#x207b;" horiz-adv-x="338" 
d="M13 424v102h311v-102h-311z" />
    <glyph glyph-name="parenleft.superior" unicode="&#x207d;" horiz-adv-x="260" 
d="M236 249v-93q-50 16 -88 41q-58 39 -90 98t-32 124t32 124t90 98q37 24 88 42v-93q-47 -23 -75.5 -70t-28.5 -102q0 -53 29 -100t75 -69z" />
    <glyph glyph-name="parenright.superior" unicode="&#x207e;" horiz-adv-x="260" 
d="M24 156v93q46 22 75 69.5t29 101.5q0 53 -29 100t-75 70v93q51 -18 88 -42q58 -39 90 -98t32 -124t-32 -124t-90 -98q-38 -25 -88 -41z" />
    <glyph glyph-name="n.superior" unicode="&#x207f;" horiz-adv-x="383" 
d="M39 268v303h97v-28q27 38 87 38q56 0 90 -31q19 -16 26 -36.5t7 -56.5v-189h-102v165q0 31 -12 45.5t-38 14.5q-28 0 -45 -20q-8 -10 -8 -36v-169h-102z" />
    <glyph glyph-name="Euro" unicode="&#x20ac;" horiz-adv-x="728" 
d="M26 256l64 152h61q25 121 121 198.5t222 77.5q115 0 207 -65l-69 -158q-58 72 -138 72q-59 0 -103 -33t-65 -92h283l-64 -152h-216q20 -54 65 -86t101 -32q84 0 139 74v-199q-63 -26 -137 -26q-124 0 -221 75.5t-123 193.5h-127z" />
    <glyph glyph-name="uni2113" unicode="&#x2113;" horiz-adv-x="503" 
d="M125 141v18q-29 -37 -39 -37q-7 0 -13.5 11t-6.5 24q0 11 4.5 18.5t32.5 39.5q11 13 30 39q72 417 218 417q40 0 64.5 -28t24.5 -74q0 -61 -44 -143q-23 -43 -39.5 -63t-86.5 -93q-1 -2 -11 -12q-22 -135 -22 -174q0 -25 13 -25q8 0 13.5 6.5t21.5 36.5q12 22 26 22
q21 0 21 -25q0 -34 -29 -73q-37 -49 -84 -49q-65 0 -85 71q-9 31 -9 93zM269 337q43 48 75 115t32 108q0 33 -21 33q-25 0 -45 -60t-41 -196z" />
    <glyph glyph-name="uni2117" unicode="&#x2117;" horiz-adv-x="788" 
d="M46 339q0 140 103.5 242t245.5 102q143 0 245.5 -102.5t102.5 -245.5t-102.5 -245.5t-245.5 -102.5q-146 0 -247.5 102.5t-101.5 249.5zM92 338q0 -128 88.5 -218.5t214.5 -90.5q124 0 213 90t89 215q0 126 -89 216.5t-213 90.5q-123 0 -213 -90t-90 -213zM252 141v402
h140q96 0 136 -29q54 -41 54 -111q0 -57 -43 -97t-141 -40h-35v-125h-111zM363 343h37q34 0 52.5 14t18.5 40q0 52 -70 52h-38v-106z" />
    <glyph glyph-name="trademark" unicode="&#x2122;" horiz-adv-x="821" 
d="M315 288v382h145l82 -240l81 240h145v-382h-106l3 263l-85 -263h-76l-86 264l3 -264h-106zM94 288v291h-84v91h282v-91h-84v-291h-114z" />
    <glyph glyph-name="Omega" unicode="&#x2126;" horiz-adv-x="670" 
d="M28 0v135h133q-72 45 -104.5 101t-32.5 136q0 131 90.5 223t220.5 92t220.5 -92t90.5 -224q0 -79 -32.5 -135t-104.5 -101h133v-135h-272v124q118 61 118 219q0 88 -44 147.5t-109 59.5t-109 -59t-44 -147q0 -159 118 -220v-124h-272z" />
    <glyph glyph-name="estimated" unicode="&#x212e;" horiz-adv-x="838" 
d="M657 132h103q-120 -144 -340 -144q-161 0 -277 94q-114 95 -114 255q0 153 114 248q116 97 282 97q162 0 275 -102q109 -100 109 -261h-615v-187q87 -102 233 -102t230 102zM194 361h460v168q-81 110 -234 110q-148 0 -226 -110v-168z" />
    <glyph glyph-name="onethird" unicode="&#x2153;" horiz-adv-x="903" 
d="M265 0l282 670h92l-281 -670h-93zM145 268v312h-71v90h186v-402h-115zM549 122h117q9 -37 48 -37q20 0 33 10.5t13 27.5q0 38 -57 38h-41v79h21q53 0 53 43q0 33 -29 33q-32 0 -32 -34h-114q1 58 42.5 93t108.5 35q59 0 99 -32t40 -79q0 -55 -55 -83q79 -27 79 -97
q0 -53 -48 -90t-115 -37q-46 0 -84.5 16.5t-56.5 43.5q-16 24 -22 70z" />
    <glyph glyph-name="twothirds" unicode="&#x2154;" horiz-adv-x="903" 
d="M33 268v82q78 46 112 77q81 71 81 120q0 16 -11 26.5t-28 10.5q-45 0 -48 -63h-110q3 61 26 95q45 62 136 62q64 0 107 -34t43 -85q0 -49 -31.5 -94t-109.5 -107h144v-90h-311zM266 0l281 670h93l-282 -670h-92zM550 122h117q9 -37 48 -37q20 0 33 10.5t13 27.5
q0 38 -57 38h-41v79h21q53 0 53 43q0 33 -29 33q-32 0 -32 -34h-114q1 58 42.5 93t108.5 35q59 0 99 -32t40 -79q0 -55 -55 -83q79 -26 79 -97q0 -53 -48 -90t-115 -37q-46 0 -84.5 16.5t-56.5 43.5q-16 24 -22 70z" />
    <glyph glyph-name="oneeighth" unicode="&#x215b;" horiz-adv-x="905" 
d="M265 0l282 670h92l-281 -670h-93zM145 268v312h-71v90h186v-402h-115zM556 122q0 34 18 60.5t48 39.5q-40 31 -40 74q0 49 38.5 81.5t96.5 32.5t96.5 -32.5t38.5 -80.5q0 -46 -41 -75q31 -13 49 -39.5t18 -60.5q0 -54 -47 -92t-113 -38q-67 0 -114.5 38.5t-47.5 91.5z
M679 288q0 -14 11 -24t27 -10t27 10.5t11 25.5q0 14 -11 24t-26 10q-16 0 -27.5 -10.5t-11.5 -25.5zM671 130q0 -19 13.5 -31.5t34.5 -12.5q17 0 30.5 13t13.5 30q0 18 -13.5 30.5t-32.5 12.5q-20 0 -33 -12t-13 -30z" />
    <glyph glyph-name="threeeighths" unicode="&#x215c;" horiz-adv-x="903" 
d="M147 550h-114q1 58 42.5 93t108.5 35q59 0 99 -32t40 -79q0 -55 -55 -83q79 -26 79 -97q0 -53 -48 -90t-115 -37q-46 0 -84.5 16.5t-56.5 43.5q-16 24 -22 70h117q9 -36 48 -36q20 0 33 10.5t13 26.5q0 38 -57 38h-41v79h21q53 0 53 43q0 33 -29 33q-32 0 -32 -34zM264 0
l282 670h92l-282 -670h-92zM555 122q0 34 18 61t48 39q-41 31 -41 74q0 49 38.5 81.5t96.5 32.5t96.5 -32.5t38.5 -80.5q0 -45 -40 -75q31 -13 48.5 -39.5t17.5 -60.5q0 -54 -46.5 -92t-113.5 -38q-66 0 -113.5 38.5t-47.5 91.5zM677 288q0 -14 11 -24t27 -10t27 10.5
t11 25.5q0 14 -11 24t-26 10q-16 0 -27.5 -10.5t-11.5 -25.5zM670 130q0 -19 13.5 -31.5t33.5 -12.5q18 0 31 13t13 30q0 18 -13.5 30.5t-32.5 12.5t-32 -12t-13 -30z" />
    <glyph glyph-name="fiveeighths" unicode="&#x215d;" horiz-adv-x="905" 
d="M266 0l281 670h93l-282 -670h-92zM160 580l-8 -49q22 11 56 11q62 0 104.5 -39t42.5 -96q0 -62 -48.5 -104.5t-120.5 -42.5q-66 0 -112 32t-57 87h116q19 -25 50 -25q23 0 40 15t17 36t-16.5 35.5t-41.5 14.5q-39 0 -56 -35l-93 21l38 229h245v-90h-156zM557 122
q0 34 17.5 60.5t48.5 39.5q-41 31 -41 74q0 49 38.5 81.5t96.5 32.5t96.5 -32.5t38.5 -80.5q0 -45 -40 -75q31 -13 48.5 -39.5t17.5 -60.5q0 -54 -46.5 -92t-113.5 -38q-66 0 -113.5 38.5t-47.5 91.5zM679 288q0 -14 11 -24t27 -10t27 10.5t11 25.5q0 14 -11 24t-26 10
q-16 0 -27.5 -10.5t-11.5 -25.5zM672 130q0 -19 13.5 -31.5t33.5 -12.5q18 0 31 13t13 30q0 18 -13.5 30.5t-32.5 12.5t-32 -12t-13 -30z" />
    <glyph glyph-name="seveneighths" unicode="&#x215e;" horiz-adv-x="905" 
d="M265 0l282 670h92l-281 -670h-93zM53 268l161 312h-168v90h288v-81l-154 -321h-127zM556 122q0 34 18 60.5t48 39.5q-40 31 -40 74q0 49 38.5 81.5t96.5 32.5t96.5 -32.5t38.5 -80.5q0 -45 -40 -75q31 -13 48.5 -39.5t17.5 -60.5q0 -54 -47 -92t-113 -38
q-67 0 -114.5 38.5t-47.5 91.5zM679 288q0 -14 11 -24t27 -10t27 10.5t11 25.5q0 14 -11 24t-26 10q-16 0 -27.5 -10.5t-11.5 -25.5zM671 130q0 -19 13.5 -31.5t34.5 -12.5q17 0 30.5 13t13.5 30q0 18 -13.5 30.5t-32.5 12.5q-20 0 -33 -12t-13 -30z" />
    <glyph glyph-name="partialdiff" unicode="&#x2202;" horiz-adv-x="503" 
d="M56 547l18 120q99 -10 166.5 -35.5t121.5 -71.5q124 -109 124 -295q0 -152 -90 -224q-61 -50 -149 -50q-101 0 -166 65.5t-65 165.5q0 90 58 151t144 61q67 0 119 -41q-26 45 -43 63.5t-52 40.5q-87 42 -186 50zM154 216q0 -41 28 -71.5t67 -30.5q40 0 68 30t28 73
t-27 72.5t-66 29.5q-41 0 -69.5 -30t-28.5 -73z" />
    <glyph glyph-name="Delta" unicode="&#x2206;" horiz-adv-x="656" 
d="M9 0l238 670h161l240 -670h-639zM207 135h239l-117 371z" />
    <glyph glyph-name="product" unicode="&#x220f;" horiz-adv-x="670" 
d="M18 -126h73v755h-73v125h635v-125h-72v-755h72v-125h-275v125h63v755h-212v-755h63v-125h-274v125z" />
    <glyph glyph-name="summation" unicode="&#x2211;" horiz-adv-x="670" 
d="M34 -86l233 352l-233 323v165h595v-261h-141l-17 118h-262l242 -344l-241 -375h271l9 123h148v-266h-604v165z" />
    <glyph glyph-name="minus" unicode="&#x2212;" horiz-adv-x="553" 
d="M42 278v114h469v-114h-469z" />
    <glyph glyph-name="radical" unicode="&#x221a;" horiz-adv-x="670" 
d="M147 0l-57 251h-90v129h179l25 -102q10 -41 20 -144h9q22 161 60 313l98 384h279v-129h-165l-176 -702h-182z" />
    <glyph glyph-name="infinity" unicode="&#x221e;" horiz-adv-x="670" 
d="M177 182q-71 0 -115.5 45t-44.5 116q0 69 45 114t115 45q87 0 155 -89q68 89 161 89q70 0 114.5 -45t44.5 -115t-44.5 -115t-113.5 -45q-91 0 -157 90q-71 -90 -160 -90zM388 342q41 -63 89 -63q27 0 45.5 18.5t18.5 44.5q0 27 -18.5 45t-45.5 18q-46 0 -89 -63zM281 341
l-3 6q-40 58 -86 58q-27 0 -45.5 -18.5t-18.5 -45.5q0 -26 18.5 -44.5t45.5 -18.5q46 0 89 63z" />
    <glyph glyph-name="integral" unicode="&#x222b;" horiz-adv-x="503" 
d="M63 -94q27 -10 44 -10q42 0 55 35q5 13 5 111v390q0 111 1.5 136t9.5 56q16 61 68.5 95.5t127.5 34.5q39 0 90 -10l-25 -148q-24 10 -45 10q-40 0 -54 -34q-5 -14 -5 -60v-437q0 -139 -5 -168q-27 -157 -208 -157q-52 0 -84 9z" />
    <glyph glyph-name="approxequal" unicode="&#x2248;" horiz-adv-x="503" 
d="M88 350l-80 56q56 142 152 142q32 0 113 -33q58 -24 74 -24q21 0 34.5 9.5t33.5 39.5l80 -56q-31 -76 -67 -108t-91 -32q-35 0 -112 34q-49 21 -72 21q-18 0 -32 -10.5t-33 -38.5zM88 124l-80 56q56 141 152 141q34 0 113 -33q57 -24 74 -24q20 0 34 10t34 39l80 -55
q-31 -77 -67 -109t-91 -32q-21 0 -41 6t-71 28q-49 21 -72 21q-32 0 -65 -48z" />
    <glyph glyph-name="notequal" unicode="&#x2260;" horiz-adv-x="503" 
d="M78 83l32 56h-77v137h128l40 74h-167v137h223l70 132l101 -56l-42 -76h83v-137h-138l-40 -74h177v-137h-228l-60 -112z" />
    <glyph glyph-name="lessequal" unicode="&#x2264;" horiz-adv-x="503" 
d="M34 357v138l436 162v-154l-257 -78l256 -77l1 -154zM34 24v144h436v-144h-436z" />
    <glyph glyph-name="greaterequal" unicode="&#x2265;" horiz-adv-x="503" 
d="M34 194l1 154l256 77l-257 78v154l436 -162v-138zM34 24v144h436v-144h-436z" />
    <glyph glyph-name="lozenge" unicode="&#x25ca;" horiz-adv-x="670" 
d="M335 -26l-261 361l261 362l261 -362zM335 63l198 272l-198 273l-198 -273z" />
    <glyph glyph-name="fi" unicode="&#xe103;" horiz-adv-x="547" 
d="M64 0v389h-56v114h56v26q0 77 47 116t145 39h22v-114h-17q-22 0 -34 -12.5t-12 -34.5v-20h63v-114h-63v-389h-151zM346 556v114h151v-114h-151zM346 0v503h151v-503h-151z" />
    <glyph glyph-name="fl" unicode="&#xe104;" horiz-adv-x="547" 
d="M64 0v389h-56v114h56v26q0 77 47 116t145 39h22v-114h-17q-22 0 -34 -12.5t-12 -34.5v-20h63v-114h-63v-389h-151zM346 0v670h151v-670h-151z" />
    <glyph glyph-name="onesuperior" unicode="&#xe105;" 
d="M145 268v312h-71v90h186v-402h-115z" />
    <glyph glyph-name="twosuperior" unicode="&#xe107;" 
d="M33 268v82q78 46 112 77q81 71 81 120q0 16 -11 26.5t-28 10.5q-45 0 -48 -63h-110q3 61 26 95q45 62 136 62q64 0 107 -34t43 -85q0 -49 -31.5 -94t-109.5 -107h144v-90h-311z" />
    <glyph glyph-name="threesuperior" unicode="&#xe108;" horiz-adv-x="374" 
d="M147 550h-114q1 58 42.5 93t108.5 35q59 0 99 -32t40 -79q0 -55 -55 -83q79 -26 79 -97q0 -53 -48 -90t-115 -37q-46 0 -84.5 16.5t-56.5 43.5q-16 24 -22 70h117q9 -36 48 -36q20 0 33 10.5t13 26.5q0 38 -57 38h-41v79h21q53 0 53 43q0 33 -29 33q-32 0 -32 -34z" />
    <glyph glyph-name="onehalf.alt" unicode="&#xec73;" horiz-adv-x="275" 
d="M108 395v214h-51v61h132v-275h-81zM0 316v39h275v-39h-275zM28 0v56q57 33 80 53q57 47 57 82q0 11 -8 18t-20 7q-31 0 -34 -43h-78q5 107 115 107q46 0 76 -23t30 -58q0 -33 -22.5 -64.5t-77.5 -73.5h102v-61h-220z" />
    <glyph glyph-name="onethird.alt" unicode="&#xec74;" horiz-adv-x="275" 
d="M108 395v214h-51v61h132v-275h-81zM0 316v39h275v-39h-275zM20 84h80q7 -28 37 -28q15 0 25 8t10 20q0 17 -16 23q-5 2 -27 4l-29 2v49l14 2q23 3 28 7q12 7 12 23q0 24 -23 24q-24 0 -24 -25h-79q1 40 30 63.5t77 23.5q42 0 70 -22t28 -54q0 -38 -38 -56q56 -17 56 -66
q0 -36 -34 -62t-82 -26q-106 0 -115 90z" />
    <glyph glyph-name="twothirds.alt" unicode="&#xec75;" horiz-adv-x="275" 
d="M28 396v56q54 31 80 52q57 49 57 82q0 11 -8 18t-20 7q-31 0 -34 -43h-78q5 107 115 107q46 0 76 -23t30 -58q0 -33 -22 -63.5t-78 -73.5h102v-61h-220zM0 316v39h275v-39h-275zM20 84h80q7 -28 37 -28q15 0 25 8t10 20q0 17 -16 23q-5 2 -27 4l-29 2v49l14 2q23 3 28 7
q12 7 12 23q0 24 -23 24q-24 0 -24 -25h-79q1 40 30 63.5t77 23.5q42 0 70 -22t28 -54q0 -38 -38 -56q56 -17 56 -66q0 -36 -34 -62t-82 -26q-106 0 -115 90z" />
    <glyph glyph-name="onequarter.alt" unicode="&#xec76;" horiz-adv-x="275" 
d="M108 395v214h-51v61h132v-275h-81zM0 316v39h275v-39h-275zM14 48v52l138 175h75v-170h34v-57h-34v-48h-78v48h-135zM90 102h67v89z" />
    <glyph glyph-name="threequarters.alt" unicode="&#xec77;" horiz-adv-x="275" 
d="M107 588h-79q1 40 30 63.5t77 23.5q42 0 70 -22t28 -54q0 -37 -38 -56q56 -17 56 -66q0 -36 -34 -61.5t-82 -25.5q-106 0 -115 89h80q8 -27 37 -27q15 0 25 8t10 19q0 17 -16 23q-5 2 -27 4l-29 2v49l14 2q23 3 28 7q12 8 12 23q0 24 -23 24q-24 0 -24 -25zM0 316v39h275
v-39h-275zM14 48v52l138 175h75v-170h34v-57h-34v-48h-78v48h-135zM90 102h67v89z" />
    <glyph glyph-name="oneeighth.alt" unicode="&#xec7c;" horiz-adv-x="275" 
d="M108 395v214h-51v61h132v-275h-81zM0 316v39h275v-39h-275zM24 83q0 23 12.5 42t33.5 27q-28 21 -28 50q0 34 27.5 56t68.5 22t68 -22t27 -55q0 -32 -29 -51q47 -19 47 -69q0 -37 -33 -63t-80 -26t-80.5 26t-33.5 63zM137 170q13 0 22 8.5t9 19.5q0 10 -9 18t-21 8
q-13 0 -22 -8t-9 -20q0 -11 8.5 -18.5t21.5 -7.5zM103 89q0 -14 10 -23.5t26 -9.5q13 0 23 9.5t10 22.5q0 14 -10 23t-25 9q-14 0 -24 -9t-10 -22z" />
    <glyph glyph-name="threeeighths.alt" unicode="&#xec7d;" horiz-adv-x="275" 
d="M107 588h-79q1 40 30 63.5t77 23.5q42 0 70 -22t28 -54q0 -37 -38 -56q56 -17 56 -66q0 -36 -34 -61.5t-82 -25.5q-106 0 -115 89h80q8 -27 37 -27q15 0 25 8t10 19q0 17 -16 23q-5 2 -27 4l-29 2v49l14 2q23 3 28 7q12 8 12 23q0 24 -23 24q-24 0 -24 -25zM0 316v39h275
v-39h-275zM24 83q0 23 12.5 42t33.5 27q-28 21 -28 50q0 34 27.5 56t68.5 22t68 -22t27 -55q0 -32 -29 -51q47 -19 47 -69q0 -37 -33 -63t-80 -26t-80.5 26t-33.5 63zM137 170q13 0 22 8.5t9 19.5q0 10 -9 18t-21 8q-13 0 -22 -8t-9 -20q0 -11 8.5 -18.5t21.5 -7.5zM103 89
q0 -14 10 -23.5t26 -9.5q13 0 23 9.5t10 22.5q0 14 -10 23t-25 9q-14 0 -24 -9t-10 -22z" />
    <glyph glyph-name="fiveeighths.alt" unicode="&#xec7e;" horiz-adv-x="275" 
d="M117 610l-6 -37q15 8 40 8q43 0 73.5 -27t30.5 -65q0 -42 -35 -70.5t-85 -28.5q-47 0 -79 22t-40 59h81q15 -17 36 -17q17 0 29 10.5t12 24.5t-12 24t-30 10q-28 0 -39 -24l-66 15l27 156h173v-60h-110zM0 316v39h275v-39h-275zM24 83q0 23 12.5 42t33.5 27
q-28 21 -28 50q0 34 27.5 56t68.5 22t68 -22t27 -55q0 -32 -29 -51q47 -19 47 -69q0 -37 -33 -63t-80 -26t-80.5 26t-33.5 63zM137 170q13 0 22 8.5t9 19.5q0 10 -9 18t-21 8q-13 0 -22 -8t-9 -20q0 -11 8.5 -18.5t21.5 -7.5zM103 89q0 -14 10 -23.5t26 -9.5q13 0 23 9.5
t10 22.5q0 14 -10 23t-25 9q-14 0 -24 -9t-10 -22z" />
    <glyph glyph-name="seveneighths.alt" unicode="&#xec7f;" horiz-adv-x="275" 
d="M42 395l114 214h-119v61h204v-55l-109 -220h-90zM0 316v39h275v-39h-275zM24 83q0 23 12.5 42t33.5 27q-28 21 -28 50q0 34 27.5 56t68.5 22t68 -22t27 -55q0 -32 -29 -51q47 -19 47 -69q0 -37 -33 -63t-80 -26t-80.5 26t-33.5 63zM137 170q13 0 22 8.5t9 19.5
q0 10 -9 18t-21 8q-13 0 -22 -8t-9 -20q0 -11 8.5 -18.5t21.5 -7.5zM103 89q0 -14 10 -23.5t26 -9.5q13 0 23 9.5t10 22.5q0 14 -10 23t-25 9q-14 0 -24 -9t-10 -22z" />
    <glyph glyph-name="at.cap" unicode="&#xf633;" horiz-adv-x="754" 
d="M588 103l21 -83q-96 -34 -210 -34q-158 0 -253 92q-50 47 -78 113.5t-28 138.5q0 148 103 250.5t252 102.5q137 0 228 -84.5t91 -212.5q0 -93 -51 -164t-117 -71q-27 0 -49.5 14.5t-29.5 36.5q-19 -27 -52.5 -43t-69.5 -16q-62 0 -103.5 46t-41.5 115q0 82 53.5 143
t124.5 61q32 0 53 -9.5t45 -35.5l7 35l90 -1l-38 -197q-6 -32 -6 -43q0 -30 21 -30q31 0 57 50t26 109q0 95 -66 155t-169 60q-115 0 -192.5 -78.5t-77.5 -194.5q0 -112 74 -189q70 -71 196 -71q102 0 190 35zM302 308q0 -33 18 -53t47 -20q34 0 59.5 32t25.5 75
q0 32 -17 52t-45 20q-35 0 -61.5 -31.5t-26.5 -74.5z" />
    <glyph glyph-name="h.superior" unicode="&#xf637;" horiz-adv-x="383" 
d="M39 268v402h97v-127q27 38 87 38q56 0 90 -31q19 -16 26 -36.5t7 -56.5v-189h-102v165q0 31 -12 45.5t-38 14.5q-28 0 -45 -20q-8 -10 -8 -36v-169h-102z" />
    <glyph glyph-name="zero.denominator" unicode="&#xf655;" 
d="M353 259v-116q0 -64 -47 -107.5t-116 -43.5q-38 0 -74.5 17t-60.5 45q-31 36 -31 89v116q0 60 39 99q54 52 127 52q38 0 76.5 -18.5t60.5 -48.5q26 -34 26 -84zM139 143q0 -57 49 -57q50 0 50 57v116q0 57 -49 57q-50 0 -50 -57v-116z" />
    <glyph glyph-name="one.denominator" unicode="&#xf656;" 
d="M145 0v312h-71v90h186v-402h-115z" />
    <glyph glyph-name="two.denominator" unicode="&#xf657;" 
d="M33 0v82q81 49 112 77q81 71 81 120q0 16 -11 26.5t-28 10.5q-45 0 -48 -63h-110q3 61 26 95q45 62 136 62q64 0 107 -34t43 -85q0 -49 -31.5 -94t-109.5 -107h144v-90h-311z" />
    <glyph glyph-name="three.denominator" unicode="&#xf658;" horiz-adv-x="374" 
d="M147 282h-114q1 58 42.5 93t108.5 35q59 0 99 -32t40 -79q0 -55 -55 -83q79 -27 79 -97q0 -53 -48 -90t-115 -37q-46 0 -84.5 16.5t-56.5 43.5q-16 24 -22 70h117q9 -37 48 -37q20 0 33 10.5t13 27.5q0 38 -57 38h-41v79h21q53 0 53 43q0 33 -29 33q-32 0 -32 -34z" />
    <glyph glyph-name="four.denominator" unicode="&#xf659;" 
d="M13 70v77l195 255h107v-248h48v-84h-48v-70h-111v70h-191zM126 149h90v128z" />
    <glyph glyph-name="five.denominator" unicode="&#xf65a;" 
d="M17 111h116q19 -25 50 -25q23 0 40 15t17 36t-16.5 35.5t-41.5 14.5q-39 0 -56 -35l-93 21l38 229h245v-90h-156l-8 -49q22 11 56 11q62 0 104.5 -39t42.5 -96q0 -62 -48.5 -104.5t-120.5 -42.5q-67 0 -112.5 32t-56.5 87z" />
    <glyph glyph-name="six.denominator" unicode="&#xf65b;" 
d="M299 402l-95 -120q10 1 22 1q57 0 96 -39.5t39 -97.5q0 -66 -49 -110t-123 -44q-73 0 -123.5 45t-50.5 110q0 53 41 109l109 146h134zM129 139q0 -23 16.5 -38t41.5 -15t42 14.5t17 36.5t-17 37t-42 15t-41.5 -14.5t-16.5 -35.5z" />
    <glyph glyph-name="seven.denominator" unicode="&#xf65c;" 
d="M53 0l161 312h-168v90h288v-81l-154 -321h-127z" />
    <glyph glyph-name="eight.denominator" unicode="&#xf65d;" 
d="M27 122q0 34 18 61t48 39q-40 31 -40 74q0 49 38.5 81.5t96.5 32.5t96.5 -32.5t38.5 -80.5q0 -46 -41 -75q31 -13 49 -39.5t18 -60.5q0 -54 -47 -92t-113 -38q-67 0 -114.5 38.5t-47.5 91.5zM188 254q16 0 27 10.5t11 25.5q0 14 -11 24t-26 10q-16 0 -27.5 -10.5
t-11.5 -25.5q0 -14 11 -24t27 -10zM142 130q0 -19 13.5 -31.5t34.5 -12.5q17 0 30.5 13t13.5 30q0 18 -13.5 30.5t-32.5 12.5q-20 0 -33 -12t-13 -30z" />
    <glyph glyph-name="nine.denominator" unicode="&#xf65e;" 
d="M86 0l97 122q-9 -2 -24 -2q-62 0 -103 40t-41 100q0 64 49 107t123 43q76 0 125 -44.5t49 -113.5q0 -50 -31 -94l-112 -158h-132zM187 214q25 0 42 15t17 36t-17.5 36t-40.5 15t-40.5 -15t-17.5 -35q0 -21 17 -36.5t40 -15.5z" />
    <glyph glyph-name="zero.numerator" unicode="&#xf661;" 
d="M353 527v-116q0 -64 -47 -107.5t-116 -43.5q-38 0 -74.5 17t-60.5 45q-31 36 -31 89v116q0 60 39 99q52 52 127 52q38 0 76.5 -18.5t60.5 -48.5q26 -34 26 -84zM139 527v-116q0 -57 49 -57q50 0 50 57v116q0 57 -49 57q-50 0 -50 -57z" />
    <glyph glyph-name="one.numerator" unicode="&#xf662;" 
d="M145 268v312h-71v90h186v-402h-115z" />
    <glyph glyph-name="two.numerator" unicode="&#xf663;" 
d="M33 268v82q78 46 112 77q81 71 81 120q0 16 -11 26.5t-28 10.5q-45 0 -48 -63h-110q3 61 26 95q45 62 136 62q64 0 107 -34t43 -85q0 -49 -31.5 -94t-109.5 -107h144v-90h-311z" />
    <glyph glyph-name="three.numerator" unicode="&#xf664;" horiz-adv-x="374" 
d="M147 550h-114q1 58 42.5 93t108.5 35q59 0 99 -32t40 -79q0 -55 -55 -83q79 -26 79 -97q0 -53 -48 -90t-115 -37q-46 0 -84.5 16.5t-56.5 43.5q-16 24 -22 70h117q9 -36 48 -36q20 0 33 10.5t13 26.5q0 38 -57 38h-41v79h21q53 0 53 43q0 33 -29 33q-32 0 -32 -34z" />
    <glyph glyph-name="four.numerator" unicode="&#xf665;" 
d="M204 268v70h-191v77l195 255h107v-248h48v-84h-48v-70h-111zM126 417h90v128z" />
    <glyph glyph-name="five.numerator" unicode="&#xf666;" 
d="M160 580l-8 -49q22 11 56 11q62 0 104.5 -39t42.5 -96q0 -62 -48.5 -104.5t-120.5 -42.5q-66 0 -112 32t-57 87h116q19 -25 50 -25q23 0 40 15t17 36t-16.5 35.5t-41.5 14.5q-39 0 -56 -35l-93 21l38 229h245v-90h-156z" />
    <glyph glyph-name="six.numerator" unicode="&#xf667;" 
d="M299 670l-95 -121q10 2 22 2q57 0 96 -39.5t39 -97.5q0 -66 -49 -110t-123 -44q-73 0 -123.5 45t-50.5 110q0 55 41 109l109 146h134zM187 354q25 0 42 14.5t17 36.5t-17 37t-42 15t-41.5 -14.5t-16.5 -35.5q0 -23 16.5 -38t41.5 -15z" />
    <glyph glyph-name="seven.numerator" unicode="&#xf668;" 
d="M53 268l161 312h-168v90h288v-81l-154 -321h-127z" />
    <glyph glyph-name="eight.numerator" unicode="&#xf669;" 
d="M189 260q-67 0 -114.5 38.5t-47.5 91.5q0 34 18 61t48 39q-40 31 -40 74q0 49 38.5 81.5t96.5 32.5t96.5 -32t38.5 -81q0 -44 -41 -75q31 -13 49 -39.5t18 -59.5q0 -55 -47 -93t-113 -38zM188 523q16 0 27 10.5t11 24.5t-11 24t-26 10q-16 0 -27.5 -10.5t-11.5 -24.5
t11 -24t27 -10zM190 354q17 0 30.5 13t13.5 31t-13.5 31t-32.5 13t-32.5 -12.5t-13.5 -30.5q0 -20 13.5 -32.5t34.5 -12.5z" />
    <glyph glyph-name="nine.numerator" unicode="&#xf66a;" 
d="M86 268l97 122q-9 -2 -24 -2q-62 0 -103 40t-41 100q0 64 49 107t123 43q76 0 125 -44.5t49 -113.5q0 -50 -31 -94l-112 -158h-132zM187 482q25 0 42 15t17 36t-17 36t-41 15q-23 0 -40.5 -15t-17.5 -35q0 -21 17 -36.5t40 -15.5z" />
    <glyph glyph-name="cent.superior" unicode="&#xf6e0;" 
d="M146 284v57q-50 17 -77.5 51t-27.5 79q0 46 28.5 82t76.5 50v57h81v-55q41 -8 74 -41.5t35 -69.5h-105q-15 22 -41 22q-20 0 -34 -13t-14 -31t14 -31t34 -13q21 0 39 19h107q-6 -38 -36.5 -68.5t-68.5 -37.5v-57h-85z" />
    <glyph glyph-name="comma.superior" unicode="&#xf6e2;" horiz-adv-x="184" 
d="M39 182v54h24q21 0 21 17v15h-45v98h107v-116q0 -31 -17.5 -49.5t-45.5 -18.5h-44z" />
    <glyph glyph-name="dollar.superior" unicode="&#xf6e4;" 
d="M147 227v55q-46 9 -72 37t-26 67v7h105q3 -39 33 -39q13 0 22 9t9 22q0 17 -13.5 27t-58.5 25q-93 31 -93 107q0 41 25 70t69 40v55h83v-55q38 -8 61 -38t21 -68h-95q-3 34 -30 34q-13 0 -21.5 -8t-8.5 -20q0 -17 13.5 -26t64.5 -27q41 -14 64.5 -42.5t23.5 -63.5
q0 -38 -25 -68t-68 -43v-57h-83z" />
    <glyph glyph-name="hyphen.superior" unicode="&#xf6e6;" horiz-adv-x="213" 
d="M22 383v80h170v-80h-170z" />
    <glyph glyph-name="period.superior" unicode="&#xf6e8;" horiz-adv-x="184" 
d="M39 268v98h107v-98h-107z" />
    <glyph glyph-name="a.superior" unicode="&#xf6e9;" horiz-adv-x="427" 
d="M291 268v27q-31 -37 -100 -37q-74 0 -121 45t-47 117q0 71 47.5 116.5t123.5 45.5q66 0 97 -38v27h96v-303h-96zM205 346q35 0 57.5 21t22.5 54q0 32 -23 52.5t-58 20.5q-33 0 -56 -21t-23 -52q0 -32 23 -53.5t57 -21.5z" />
    <glyph glyph-name="d.superior" unicode="&#xf6eb;" horiz-adv-x="427" 
d="M291 268v27q-31 -37 -100 -37q-74 0 -121 45t-47 117q0 71 47.5 116.5t123.5 45.5q66 0 97 -38v126h96v-402h-96zM205 346q35 0 57.5 21t22.5 54q0 32 -23 52.5t-58 20.5q-33 0 -56 -21t-23 -52q0 -32 23 -53.5t57 -21.5z" />
    <glyph glyph-name="e.superior" unicode="&#xf6ec;" horiz-adv-x="395" 
d="M256 365h104q-24 -51 -66.5 -79t-96.5 -28q-72 0 -122.5 47t-50.5 113q0 68 50 115.5t122 47.5q74 0 124 -47.5t50 -118.5q0 -11 -3 -26h-244q3 -22 23 -37t46 -15q29 0 59 24zM126 453h142q-5 21 -25 34.5t-47 13.5q-26 0 -45.5 -13t-24.5 -35z" />
    <glyph glyph-name="i.superior" unicode="&#xf6ed;" horiz-adv-x="180" 
d="M39 598v72h102v-72h-102zM39 268v303h102v-303h-102z" />
    <glyph glyph-name="l.superior" unicode="&#xf6ee;" horiz-adv-x="180" 
d="M39 268v402h102v-402h-102z" />
    <glyph glyph-name="m.superior" unicode="&#xf6ef;" horiz-adv-x="581" 
d="M39 268v303h97v-27q26 37 87 37q63 0 95 -51q37 51 103 51q53 0 86 -30q23 -20 30 -43t7 -75v-165h-102v161q0 34 -10.5 49t-35.5 15q-52 0 -52 -60v-165h-102v165q0 60 -48 60q-53 0 -53 -60v-165h-102z" />
    <glyph glyph-name="o.superior" unicode="&#xf6f0;" horiz-adv-x="405" 
d="M200 258q-76 0 -126 46t-50 117q0 68 51 114t127 46q77 0 128 -46t51 -115q0 -70 -51 -116t-130 -46zM202 346q33 0 55 21t22 53q0 30 -22.5 51.5t-54.5 21.5t-54 -21t-22 -51q0 -32 22 -53.5t54 -21.5z" />
    <glyph glyph-name="r.superior" unicode="&#xf6f1;" horiz-adv-x="228" 
d="M39 268v303h97v-27q21 39 81 37v-94q-43 -1 -60 -12.5t-17 -39.5v-167h-101z" />
    <glyph glyph-name="s.superior" unicode="&#xf6f2;" horiz-adv-x="308" 
d="M277 483h-100q-1 22 -26 22q-29 0 -29 -17q0 -19 49 -31q65 -17 84 -31q32 -26 32 -64q0 -44 -39.5 -74t-98.5 -30q-57 0 -92.5 27.5t-40.5 75.5h101q5 -27 36 -27q14 0 23 6t9 15t-8 15q-8 7 -19 10t-67 16q-31 8 -51 31.5t-20 52.5q0 43 39 72t95 29q53 0 85.5 -26
t37.5 -72z" />
    <glyph glyph-name="t.superior" unicode="&#xf6f3;" horiz-adv-x="208" 
d="M48 268v231h-48v72h48v99h102v-99h47v-72h-47v-231h-102z" />
    <glyph glyph-name="apple" unicode="&#xf8ff;" horiz-adv-x="800" 
d="M35 101v635h629q42 0 71.5 -29.5t29.5 -71.5v-635h-629q-42 0 -71.5 29.5t-29.5 71.5zM231 623v-173q0 -34 18 -53t52 -19t52 19t18 53v173q0 72 -70 72t-70 -72zM398 383h54v236q0 23 16 23t16 -23v-236h54v242q0 68 -58 68q-22 0 -27 -10v7h-55v-307zM578 450
q0 -34 18 -53t52 -19t52 19t18 53v34h-54v-31q0 -23 -16 -23t-16 23v132h78v52h-79v53h-54v-53h-18v-52h19v-135zM90 383h54v103h59v60h-59v84h67v60h-121v-307zM317 619v-166q0 -22 -16 -22t-16 22v166q0 23 16 23t16 -23zM522 114q0 -34 18 -53t52 -19t52 19t18 53v12h-54
v-9q0 -22 -16 -22t-16 22v40h86v128q0 72 -70 72t-70 -72v-171zM86 123q0 -81 73 -81t73 89q0 25 -12 45.5t-54 49.5q-25 17 -25 40q0 38 19 38q18 0 18 -32v-25h54v29q0 81 -73 81t-73 -89q0 -17 3 -29t18.5 -30.5t44.5 -37.5q25 -17 25 -38q0 -38 -19 -38q-18 0 -18 32v10
h-54v-14zM361 114q0 -34 18 -53t52 -19t52 19t18 53v34h-54v-31q0 -22 -16 -22t-16 22v129h78v52h-79v55h-54v-55h-18v-52h19v-132zM262 292h54v61h-54v-61zM576 203v78q0 23 16 23t16 -23v-78h-32zM262 46h54v215h-54v-215zM703 46h6v21l9 -21h4l9 21v-21h6v31h-8l-9 -21
l-9 21h-8v-31zM672 71h10v-25h6v25h10v6h-26v-6z" />
    <glyph glyph-name="i.dot" horiz-adv-x="251" 
d="M50 556v114h151v-114h-151zM50 0v503h151v-503h-151z" />
    </font>
</defs>
</svg>
