<?xml version="1.0" standalone="no"?>
<!DOCTYPE svg PUBLIC "-//W3C//DTD SVG 1.1//EN" "http://www.w3.org/Graphics/SVG/1.1/DTD/svg11.dtd" >
<svg xmlns="http://www.w3.org/2000/svg" xmlns:xlink="http://www.w3.org/1999/xlink" version="1.1">
<metadata>
Created by FontForge 20161013 at Fri Sep  4 16:27:06 2015
 By ,,,
Copyright (c) 2015 by Schriftlabor. All rights reserved.
</metadata>
<defs>
<font id="SephoraSerif-Book" horiz-adv-x="1059" >
  <font-face
    font-family="SephoraSerifWeb Book"
    font-weight="400"
    font-stretch="normal"
    units-per-em="2048"
    panose-1="0 0 5 0 0 0 0 0 0 0"
    ascent="1638"
    descent="-410"
    x-height="1004"
    cap-height="1434"
    bbox="-315 -557 2361 1865"
    underline-thickness="50"
    underline-position="-200"
    unicode-range="U+0020-2265"
  />
<missing-glyph horiz-adv-x="1485"
d="M413 156.5q-146 82.5 -228.5 228.5t-82.5 330q0 183 82.5 328.5t228.5 228t330 82.5q183 0 328.5 -82.5t228 -228t82.5 -328.5q0 -184 -82 -330t-228 -228.5t-329 -82.5q-184 0 -330 82.5zM831 631q0 25 13 46.5t41 54.5q42 48 65 91.5t23 108.5q0 73 -37 117.5
t-120.5 66t-225.5 21.5l-8 -201q73 0 107 -16t34 -50q0 -19 -7.5 -34t-23.5 -39q-26 -36 -40.5 -72.5t-14.5 -95.5zM835.5 332.5q34.5 35.5 34.5 93.5q0 59 -32 96t-90 37q-67 0 -100.5 -36.5t-33.5 -96.5q0 -58 31.5 -93.5t89.5 -35.5q66 0 100.5 35.5z" />
    <glyph glyph-name=".notdef" horiz-adv-x="1485"
d="M413 156.5q-146 82.5 -228.5 228.5t-82.5 330q0 183 82.5 328.5t228.5 228t330 82.5q183 0 328.5 -82.5t228 -228t82.5 -328.5q0 -184 -82 -330t-228 -228.5t-329 -82.5q-184 0 -330 82.5zM831 631q0 25 13 46.5t41 54.5q42 48 65 91.5t23 108.5q0 73 -37 117.5
t-120.5 66t-225.5 21.5l-8 -201q73 0 107 -16t34 -50q0 -19 -7.5 -34t-23.5 -39q-26 -36 -40.5 -72.5t-14.5 -95.5zM835.5 332.5q34.5 35.5 34.5 93.5q0 59 -32 96t-90 37q-67 0 -100.5 -36.5t-33.5 -96.5q0 -58 31.5 -93.5t89.5 -35.5q66 0 100.5 35.5z" />
    <glyph glyph-name=".null" horiz-adv-x="0"
 />
    <glyph glyph-name="nonmarkingreturn" horiz-adv-x="682"
 />
    <glyph glyph-name="space" unicode=" " horiz-adv-x="395"
 />
    <glyph glyph-name="exclam" unicode="!" horiz-adv-x="589"
d="M267.5 762.5q-14.5 139.5 -39.5 301.5q-15 98 -22.5 161.5t-7.5 124.5q0 63 24 93.5t73 30.5q48 0 72 -30.5t24 -93.5q0 -60 -7.5 -122.5t-22.5 -159.5q-24 -162 -39 -302.5t-19 -332.5h-17q-4 190 -18.5 329.5zM201.5 22.5q-35.5 35.5 -35.5 93.5q0 59 35.5 94t93.5 35
t93.5 -35.5t35.5 -93.5t-35.5 -93.5t-93.5 -35.5t-93.5 35.5z" />
    <glyph glyph-name="quotedbl" unicode="&#x22;" horiz-adv-x="792"
d="M220.5 1081.5q-13.5 47.5 -39.5 106.5q-21 46 -30.5 77t-9.5 68q0 59 29 90t76 31q51 0 81.5 -30.5t30.5 -90.5q0 -38 -11 -69t-34 -76q-30 -60 -45 -107.5t-15 -114.5h-19q0 68 -13.5 115.5zM513.5 1081.5q-13.5 47.5 -39.5 106.5q-21 46 -30.5 77t-9.5 68q0 59 29 90
t76 31q51 0 81.5 -30.5t30.5 -90.5q0 -38 -11 -69t-34 -76q-30 -60 -45 -107.5t-15 -114.5h-19q0 68 -13.5 115.5z" />
    <glyph glyph-name="numbersign" unicode="#" horiz-adv-x="1436"
d="M1012 751q-32 -110 -52 -206t-35 -210q142 9 316 27l-24 -109q-175 19 -300 27q-17 -144 -34 -339h-135q80 233 112 342q-108 6 -208 6q-97 0 -178 -4q-15 -120 -33 -344h-135q73 224 108 341q-121 -8 -315 -29l23 109q172 -22 307 -29q33 115 54.5 212.5t36.5 205.5
q-126 -8 -324 -29l23 108q179 -19 308 -27q17 126 33 334h135l-13 -40q-75 -224 -97 -297q105 -5 184 -5q84 0 199 5q15 121 33 337h136q-68 -195 -109 -333q123 7 309 26l-23 -108q-147 17 -302 29zM926.5 540.5q20.5 98.5 35.5 213.5q-84 5 -196 5q-111 0 -195 -5
q-33 -113 -54 -211t-37 -213q77 -4 173 -4q107 0 221 6q32 110 52.5 208.5z" />
    <glyph glyph-name="dollar" unicode="$" horiz-adv-x="1010"
d="M863.5 262q-50.5 -74 -140.5 -117t-205 -51v-133h-31v132h-14q-121 0 -206.5 42t-128 104t-42.5 122q0 53 30 85t79 32q34 0 60.5 -15.5t41.5 -43.5q-22 -17 -35.5 -49t-13.5 -68q0 -47 23 -88.5t74.5 -68.5t131.5 -27v537q-119 58 -186 99.5t-115 107.5t-48 159t47 162
t128 108t181 46v126h31v-125q4 1 13 1q100 0 173.5 -27t112.5 -74.5t39 -105.5q0 -47 -26 -73.5t-72 -26.5q-36 0 -65.5 15.5t-40.5 41.5q15 17 24.5 41.5t9.5 50.5q0 53 -40 90.5t-128 41.5v-490q32 -17 59 -29q108 -53 174 -94.5t111 -107.5t45 -159q0 -97 -50.5 -171z
M336 956q55 -62 158 -117v474q-104 -3 -158.5 -57.5t-54.5 -144.5q0 -93 55 -155zM649 152q59 28 94 79t35 121q0 69 -34 120.5t-89 89t-137 78.5v-521q72 5 131 33z" />
    <glyph glyph-name="percent" unicode="%" horiz-adv-x="1665"
d="M364 -15l893 1473l41 -24l-896 -1473zM231 779.5q-73 42.5 -113 121t-40 182.5t41.5 183t117 122t174.5 43q97 0 169 -42t110.5 -118.5t38.5 -176.5q0 -107 -40 -188t-114 -125t-173 -44q-98 0 -171 42.5zM546 833.5q41 72.5 41 210.5q0 118 -25.5 200.5t-71 124
t-106.5 41.5q-80 0 -122 -75t-42 -216q0 -114 25 -194.5t71 -122t107 -41.5q82 0 123 72.5zM1088 16.5q-73 42.5 -113 121t-40 182.5t41.5 183t117 122t174.5 43q97 0 169 -42t110.5 -118.5t38.5 -176.5q0 -107 -40 -188t-114 -125t-173 -44q-98 0 -171 42.5zM1403 70.5
q41 72.5 41 210.5q0 118 -25.5 200.5t-71 124t-106.5 41.5q-80 0 -122 -75t-42 -216q0 -114 25 -194.5t71 -122t107 -41.5q82 0 123 72.5z" />
    <glyph glyph-name="ampersand" unicode="&#x26;" horiz-adv-x="1697"
d="M1565 180q-35 -102 -97.5 -156.5t-139.5 -54.5t-178 58t-212 161q-143 -222 -401 -222q-121 0 -213.5 50.5t-143 138t-50.5 194.5q0 132 85 237t267 183q-65 117 -101.5 218t-36.5 175q0 82 42 152t121 112t185 42q89 0 162 -31t115.5 -90.5t42.5 -142.5
q0 -88 -48 -154.5t-119.5 -113.5t-185.5 -106q70 -121 160 -241.5t184 -221.5q18 35 38 81t29 66q54 123 93.5 195.5t96.5 120.5t135 48q60 0 91.5 -29t31.5 -79q0 -40 -18.5 -67.5t-49.5 -37.5q-43 46 -114 46q-65 0 -113 -37.5t-82.5 -94.5t-81.5 -154l-38 -77
q112 -117 210 -185.5t163 -68.5q41 0 81.5 23t73.5 76zM548 1382.5q-40 -59.5 -40 -139.5q0 -74 37.5 -176t103.5 -218q111 65 155.5 140.5t44.5 189.5q0 127 -46 195t-130 68q-85 0 -125 -59.5zM923 202q-120 114 -233.5 258.5t-196.5 289.5q-99 -55 -147 -138.5
t-48 -185.5t45 -184t124.5 -128.5t179.5 -46.5q171 0 276 135z" />
    <glyph glyph-name="quotesingle" unicode="'" horiz-adv-x="499"
d="M220.5 1081.5q-13.5 47.5 -39.5 106.5q-21 46 -30.5 77t-9.5 68q0 59 29 90t76 31q51 0 81.5 -30.5t30.5 -90.5q0 -38 -11 -69t-34 -76q-30 -60 -45 -107.5t-15 -114.5h-19q0 68 -13.5 115.5z" />
    <glyph glyph-name="parenleft" unicode="(" horiz-adv-x="834"
d="M408 -189q-99 153 -148.5 335t-49.5 374q0 194 50 379t149.5 342t242.5 263l10 -14q-97 -95 -153.5 -207.5t-84.5 -290.5t-28 -460q0 -296 25 -471.5t81 -284.5t159 -205l-11 -15q-143 102 -242 255z" />
    <glyph glyph-name="parenright" unicode=")" horiz-adv-x="834"
d="M426 1247q99 -153 148.5 -335t49.5 -374q0 -194 -50 -379t-149.5 -342t-242.5 -263l-11 15q97 95 153.5 207.5t84.5 290t28 460.5q0 296 -25 471.5t-81 284.5t-159 204l12 15q143 -102 242 -255z" />
    <glyph glyph-name="asterisk" unicode="*" horiz-adv-x="828"
d="M704 1272q0 -24 -14 -41.5t-37 -25.5q-25 -7 -60 -7q-13 0 -69 2q-30 2 -95 4q47 -34 95 -66q34 -22 53 -36.5t31 -30.5q13 -19 13 -42q0 -38 -34 -63q-23 -17 -47 -17q-35 0 -57 31q-14 18 -22 41.5t-23 76.5q-19 69 -26 94q-16 -50 -32 -107q-11 -42 -19 -64.5
t-20 -38.5q-10 -14 -25 -22t-32 -8q-24 0 -49 17q-34 25 -34 61q0 24 15 43q13 18 35 34.5t64 43.5q74 51 79 54q-23 0 -110 -3q-40 -2 -53 -2q-33 0 -57 7q-23 8 -36.5 26t-13.5 42q0 12 5 29q9 26 27.5 40t40.5 14q14 0 25 -4q20 -6 40.5 -20t58.5 -45q12 -10 31.5 -25
t49.5 -38q-13 42 -38 107q-16 41 -22 62.5t-6 41.5q0 31 21.5 52t56.5 21t56 -20.5t21 -52.5q0 -22 -7.5 -46.5t-25.5 -70.5q-27 -72 -35 -97q46 33 90 69q36 28 54.5 41t38.5 20q10 3 21 3q24 0 43.5 -14.5t28.5 -41.5q5 -17 5 -28z" />
    <glyph glyph-name="plus" unicode="+"
d="M928 701h-376v-375h-47v375h-374v46h374v376h47v-376h376v-46z" />
    <glyph glyph-name="comma" unicode="," horiz-adv-x="583"
d="M391 192q36 -42 36 -122q0 -105 -69 -194.5t-186 -152.5l-5 11q158 117 169 270q-28 -12 -58 -12q-55 0 -88 33.5t-33 83.5q0 53 36 89t98 36q64 0 100 -42z" />
    <glyph glyph-name="hyphen" unicode="-" horiz-adv-x="723"
d="M128 665h467v-59h-467v59z" />
    <glyph glyph-name="period" unicode="." horiz-adv-x="572"
d="M192.5 22.5q-35.5 35.5 -35.5 93.5q0 59 35.5 94t93.5 35t93.5 -35.5t35.5 -93.5t-35.5 -93.5t-93.5 -35.5t-93.5 35.5z" />
    <glyph glyph-name="slash" unicode="/" horiz-adv-x="577"
d="M-41 -268l614 1761l45 -11l-614 -1761z" />
    <glyph glyph-name="zero" unicode="0" horiz-adv-x="1216"
d="M337.5 71.5q-115.5 84.5 -178.5 246.5t-63 386q0 228 65.5 395t184 256t276.5 89q155 0 267 -86.5t171.5 -249t59.5 -385.5q0 -228 -61.5 -394t-177 -254t-273.5 -88q-155 0 -270.5 84.5zM848 173.5q67 154.5 67 456.5q0 256 -42.5 432t-118 263.5t-176.5 87.5
q-137 0 -207 -161t-70 -465q0 -252 43 -424.5t119.5 -258t178.5 -85.5q139 0 206 154.5z" />
    <glyph glyph-name="one" unicode="1" horiz-adv-x="749"
d="M517.5 79q15.5 -34 52.5 -48.5t106 -14.5v-16h-561v16q79 0 121.5 12.5t61 44.5t18.5 93v990q-51 -50 -105.5 -82.5t-120.5 -55.5l-4 16q96 50 170 136t157 255l5 11l84 2v-1262q0 -63 15.5 -97z" />
    <glyph glyph-name="two" unicode="2" horiz-adv-x="1014"
d="M947 132q0 -40 -20.5 -73t-58 -52t-84.5 -19q-75 0 -139 24t-153 72q-81 43 -135 64t-115 21q-64 0 -111 -30q-16 -69 -16 -142h-20q-1 140 42 243.5t106 173t168 160.5q100 88 158.5 152t99 156.5t40.5 216.5q0 88 -28.5 161t-83.5 116t-133 43q-89 0 -134.5 -53.5
t-45.5 -132.5q0 -36 10 -73t29 -68q-12 -28 -38.5 -45t-65.5 -17q-47 0 -76.5 28.5t-29.5 77.5q0 84 48 155t133.5 113t193.5 42q129 0 223.5 -46t144.5 -128.5t50 -188.5q0 -126 -50.5 -216.5t-125 -150t-201.5 -139.5q-105 -66 -172.5 -115.5t-125 -119t-87.5 -159.5
q79 79 192 79q52 0 100.5 -11t119.5 -33q76 -23 125 -34t103 -11q51 0 78 16t37 49h11q37 -53 37 -106z" />
    <glyph glyph-name="three" unicode="3" horiz-adv-x="1017"
d="M755.5 728q86.5 -58 128 -143t41.5 -187q0 -117 -54.5 -210t-159 -147t-250.5 -54q-137 0 -227 46t-131.5 114.5t-41.5 137.5q0 58 30 89.5t83 31.5q36 0 63 -15t42 -43q-15 -19 -24.5 -53t-9.5 -72q0 -54 21.5 -102t71 -79t129.5 -31q130 0 196 83t66 232
q0 117 -40.5 207.5t-121.5 142.5t-200 53v18q157 62 232.5 155t75.5 232q0 130 -58.5 209.5t-167.5 79.5q-76 0 -114 -40.5t-38 -101.5q0 -34 11.5 -67.5t31.5 -61.5q-12 -28 -38.5 -45t-64.5 -17q-47 0 -76.5 27.5t-29.5 79.5q0 67 46.5 124t130 91t190.5 34q109 0 192 -39
t127.5 -106.5t44.5 -151.5q0 -112 -81 -200t-243 -145q131 -18 217.5 -76z" />
    <glyph glyph-name="four" unicode="4" horiz-adv-x="986"
d="M942 609v-347h-16q0 61 -12.5 94t-44.5 47.5t-93 14.5h-36v-242q0 -63 13.5 -97t45 -48.5t90.5 -14.5v-16h-501v16q65 0 100.5 12.5t50.5 44.5t15 93v252h-526l-1 24l594 1003l119 -7v-996h26q63 0 97 15t48.5 51t14.5 101h16zM554 442v842l-499 -842h499z" />
    <glyph glyph-name="five" unicode="5" horiz-adv-x="1017"
d="M808.5 762.5q103.5 -105.5 103.5 -302.5q0 -159 -59 -265t-162.5 -157t-238.5 -51q-124 0 -210 41t-127.5 103.5t-41.5 126.5q0 53 29.5 83.5t79.5 30.5q71 0 103 -58q-16 -16 -25.5 -44.5t-9.5 -60.5q0 -50 22 -95.5t71 -75t123 -29.5q90 0 142.5 36.5t76.5 121
t24 231.5q0 222 -70.5 330t-212.5 108q-84 0 -146 -32t-108 -94l-12 12l52 707h23l-10 -127q31 70 80.5 107t115.5 37q36 0 72 -9.5t93 -28.5q60 -20 96.5 -29.5t74.5 -9.5q54 0 81 16t32 47h13q31 -55 31 -107q0 -60 -40 -99t-106 -39q-58 0 -105 16.5t-113 49.5
q-59 29 -96 43t-80 14q-47 0 -88.5 -21.5t-66.5 -67.5l-31 -421q69 32 147 50t159 18q211 0 314.5 -105.5z" />
    <glyph glyph-name="six" unicode="6" horiz-adv-x="1177"
d="M889 858q85 -50 132 -144.5t47 -224.5q0 -150 -55.5 -263t-161.5 -175.5t-253 -62.5q-157 0 -263 79t-158.5 225t-52.5 347q0 212 63 396.5t189 297.5t306 113q95 0 168.5 -32t113.5 -85t40 -114q0 -51 -28 -79t-78 -28q-38 0 -66.5 15.5t-39.5 42.5q16 19 24.5 45
t8.5 53q0 40 -19 75.5t-59.5 57.5t-100.5 22q-164 0 -240.5 -171t-79.5 -509q71 77 165.5 123t200.5 46q112 0 197 -50zM811.5 112q63.5 94 63.5 262q0 235 -67 348t-213 113q-79 0 -150.5 -37.5t-118.5 -111.5q1 -228 29 -373t94 -220t180 -75q119 0 182.5 94z" />
    <glyph glyph-name="seven" unicode="7" horiz-adv-x="911"
d="M472.5 124q13.5 -33 47.5 -53q-12 -41 -46 -65t-89 -24q-67 0 -110 42t-43 137q0 96 40 194.5t98.5 187.5t156.5 221q81 109 132.5 183.5t95.5 158.5t66 167q-31 -42 -86 -69t-119 -27q-43 0 -85 9t-106 28q-67 20 -115 30t-99 10q-103 0 -126 -57h-11q-33 56 -33 106
q0 64 50.5 103t128.5 39q57 0 113.5 -20t142.5 -61q82 -38 134 -57t101 -19q36 0 68 11.5t55 29.5q9 57 8 110h22q3 -30 3 -59q0 -93 -27.5 -187t-67 -177t-107.5 -211q-67 -124 -108.5 -211.5t-69.5 -184.5t-28 -194q0 -58 13.5 -91z" />
    <glyph glyph-name="eight" unicode="8" horiz-adv-x="1189"
d="M897.5 694.5q71.5 -54.5 123 -136t51.5 -189.5q0 -110 -53 -196.5t-160.5 -136t-264.5 -49.5q-126 0 -234 35t-175.5 111t-67.5 193q0 142 102 247.5t265 161.5q-83 52 -140.5 103t-92.5 118.5t-35 154.5q0 99 46.5 174.5t136 118t214.5 42.5q112 0 200.5 -34.5
t139 -100.5t50.5 -158q0 -211 -303 -327q126 -77 197.5 -131.5zM444 1364q-56 -60 -56 -164q0 -80 39 -144t99.5 -112t154.5 -107q82 56 122 123t40 157t-30 159.5t-85.5 108.5t-129.5 39q-98 0 -154 -60zM822 78.5q70 67.5 70 190.5q0 101 -46 176t-112.5 126t-179.5 121
q-15 8 -26 15.5t-20 12.5q-97 -61 -156.5 -160t-59.5 -215q0 -110 43.5 -185t118.5 -112t170 -37q128 0 198 67.5z" />
    <glyph glyph-name="nine" unicode="9" horiz-adv-x="1177"
d="M842 1367q106 -79 158.5 -225.5t52.5 -347.5q0 -212 -63 -396.5t-189 -297.5t-306 -113q-95 0 -168.5 32.5t-113.5 85.5t-40 114q0 51 28 79t78 28q38 0 66.5 -15.5t40.5 -42.5q-16 -20 -25 -46t-9 -53q0 -40 19.5 -75.5t59.5 -57.5t100 -22q164 0 240.5 170.5
t79.5 509.5q-71 -77 -165.5 -123t-199.5 -46q-113 0 -198 50t-131.5 145t-46.5 225q0 150 55 263t161 175.5t253 62.5q157 0 263 -79zM733 636q71 37 118 111q-1 229 -28.5 374t-93.5 220t-181 75q-118 0 -182 -94.5t-64 -262.5q0 -235 67.5 -347.5t213.5 -112.5
q79 0 150 37z" />
    <glyph glyph-name="colon" unicode=":" horiz-adv-x="572"
d="M192.5 22.5q-35.5 35.5 -35.5 93.5q0 59 35.5 94t93.5 35t93.5 -35.5t35.5 -93.5t-35.5 -93.5t-93.5 -35.5t-93.5 35.5zM192.5 794.5q-35.5 35.5 -35.5 93.5q0 59 35.5 94t93.5 35t93.5 -35.5t35.5 -93.5t-35.5 -93.5t-93.5 -35.5t-93.5 35.5z" />
    <glyph glyph-name="semicolon" unicode=";" horiz-adv-x="583"
d="M391 192q36 -42 36 -122q0 -105 -69 -194.5t-186 -152.5l-5 11q158 117 169 270q-28 -12 -58 -12q-55 0 -88 33.5t-33 83.5q0 53 36 89t98 36q64 0 100 -42zM192.5 796.5q-35.5 35.5 -35.5 93.5q0 59 35.5 94t93.5 35t93.5 -35.5t35.5 -93.5t-35.5 -93.5t-93.5 -35.5
t-93.5 35.5z" />
    <glyph glyph-name="less" unicode="&#x3c;"
d="M267 710l661 -389l-12 -24l-785 405v20l785 387l12 -22z" />
    <glyph glyph-name="equal" unicode="="
d="M928 867v-46h-797v46h797zM928 624v-46h-797v46h797z" />
    <glyph glyph-name="greater" unicode="&#x3e;"
d="M928 722v-20l-785 -405l-12 24l661 389l-661 377l12 22z" />
    <glyph glyph-name="question" unicode="?" horiz-adv-x="838"
d="M661 1373.5q102 -79.5 102 -241.5q0 -97 -34 -167.5t-82 -116.5t-126 -103q-64 -47 -100 -79.5t-60.5 -77t-24.5 -102.5q0 -27 6 -59h-19q-20 64 -20 120q0 52 16.5 96t40.5 79.5t66 86.5q50 62 80 106.5t51 107.5t21 142q0 118 -55 192t-166 74q-50 0 -85 -17t-53 -44.5
t-18 -59.5q0 -25 11.5 -49.5t33.5 -43.5q-7 -36 -37 -59.5t-75 -23.5q-49 0 -77.5 29.5t-28.5 76.5q0 63 49.5 111.5t133 75t183.5 26.5q165 0 267 -79.5zM252.5 22.5q-35.5 35.5 -35.5 93.5q0 59 35.5 94t93.5 35t93.5 -35.5t35.5 -93.5t-35.5 -93.5t-93.5 -35.5
t-93.5 35.5z" />
    <glyph glyph-name="at" unicode="@" horiz-adv-x="2144"
d="M1280 586v26q0 192 -50.5 287.5t-161.5 95.5q-66 0 -100 -31t-34 -77q0 -23 9.5 -46t27.5 -42q-10 -31 -38.5 -49.5t-68.5 -18.5q-43 0 -68 24.5t-25 65.5q0 55 46 99.5t124.5 69.5t170.5 25q106 0 177.5 -37.5t110 -125.5t38.5 -237v-342q0 -60 12.5 -97t47 -57
t97.5 -20q95 0 163.5 56t104.5 163t36 257q0 236 -97 417t-280.5 282t-433.5 101q-261 0 -444 -108t-275.5 -301t-92.5 -444q0 -277 109.5 -470.5t312 -293t478.5 -99.5q222 0 386.5 61t295.5 163l11 -16q-163 -135 -354 -212.5t-441 -77.5q-287 0 -501 104t-330 302
t-116 472q0 275 120 491t347.5 339t537.5 123q283 0 488 -105t311 -283.5t106 -396.5q0 -183 -75 -309.5t-193 -189t-249 -62.5q-113 0 -170.5 48t-67.5 144q-38 -90 -116 -140t-192 -50q-120 0 -188.5 56.5t-68.5 159.5q0 288 563 306zM1227.5 210.5q52.5 79.5 52.5 229.5
v90q-94 17 -160 17q-125 0 -181 -53t-56 -153q0 -99 48.5 -154.5t138.5 -55.5q105 0 157.5 79.5z" />
    <glyph glyph-name="A" unicode="A" horiz-adv-x="1413"
d="M1289.5 84q24.5 -38 55.5 -53t82 -15v-16h-536v16q87 0 124.5 16.5t37.5 60.5q0 37 -24 98l-103 274h-628l-74 -189q-40 -102 -40 -157t38.5 -79t124.5 -24v-16h-361v16q61 0 109.5 59.5t99.5 190.5l456 1168h113l472 -1236q29 -76 53.5 -114zM917 488l-298 794
l-312 -794h610z" />
    <glyph glyph-name="B" unicode="B" horiz-adv-x="1184"
d="M970.5 648q107.5 -89 107.5 -276q0 -381 -565 -381q-34 0 -197 5q-116 4 -157 4h-105v16q56 0 86.5 12.5t43.5 44.5t13 93v1091q0 63 -13.5 97t-45 48.5t-90.5 14.5v17h120q72 0 159 3q138 4 218 4q230 0 344.5 -84.5t114.5 -255.5q0 -147 -92.5 -234.5t-271.5 -114.5
q223 -15 330.5 -104zM738.5 1342.5q-72.5 77.5 -226.5 77.5q-57 0 -123 -13v-650h133q153 0 221 83.5t68 254.5q0 170 -72.5 247.5zM793.5 96q82.5 81 82.5 259q0 144 -37 226t-119 118t-225 36h-106v-579q0 -53 12.5 -83t46 -44t98.5 -14q165 0 247.5 81z" />
    <glyph glyph-name="C" unicode="C" horiz-adv-x="1283"
d="M390 70.5q-142 86.5 -223 247.5t-81 376q0 211 86.5 383.5t249 273t381.5 100.5q120 0 215 -34.5t149 -95t54 -136.5q0 -57 -35 -89.5t-83 -32.5q-31 0 -58.5 15.5t-41.5 44.5q17 17 26 42.5t9 55.5q0 56 -33 101.5t-94.5 72t-142.5 26.5q-147 0 -256 -72t-169 -213
t-60 -343q0 -224 63 -376.5t181 -229t284 -76.5q113 0 211 41.5t209 141.5l12 -12q-108 -143 -238.5 -220.5t-295.5 -77.5q-177 0 -319 86.5z" />
    <glyph glyph-name="D" unicode="D" horiz-adv-x="1444"
d="M1348 720q0 -411 -219 -569t-533 -158q-119 0 -255 4q-75 3 -139 3h-148v16q56 0 86.5 12.5t43.5 44.5t13 93v1091q0 63 -13.5 97t-45 48.5t-90.5 14.5v17h128q56 0 104 1t85 2q146 4 227 4q756 0 756 -721zM1007 184q136 169 136 522q0 364 -140 538.5t-429 174.5
q-74 0 -185 -17v-1247q0 -53 18.5 -82.5t65.5 -43.5t135 -14q263 0 399 169z" />
    <glyph glyph-name="E" unicode="E" horiz-adv-x="1074"
d="M1002 381l-51 -381h-897v16q56 0 86.5 12.5t43.5 44.5t13 93v1091q0 63 -13.5 97t-45 48.5t-90.5 14.5v17h901l3 -346h-16q-48 138 -88 204t-100 92.5t-169 26.5h-190v-659h163q72 0 110.5 19.5t61 67.5t47.5 149h18v-495h-18q-25 102 -47.5 150t-61 68t-110.5 20h-163
v-708h164q121 0 193 29.5t125 104.5t114 226z" />
    <glyph glyph-name="F" unicode="F" horiz-adv-x="984"
d="M933 1066h-16q-38 146 -72 218t-80.5 99.5t-126.5 27.5h-249v-695h103q86 0 133 20.5t75.5 71.5t57.5 155h18v-518h-18q-29 105 -57.5 155.5t-75 71t-133.5 20.5h-103v-516q0 -63 15.5 -97t52.5 -48.5t105 -14.5v-16h-508v16q56 0 86.5 12.5t43.5 44.5t13 93v1091
q0 63 -14.5 97t-49 48.5t-98.5 14.5v17h890z" />
    <glyph glyph-name="G" unicode="G" horiz-adv-x="1413"
d="M1396 690v-16q-56 0 -86.5 -12t-44 -43t-13.5 -89v-486q-25 4 -57 4q-40 0 -79.5 -6.5t-101.5 -20.5q-77 -18 -136.5 -27.5t-130.5 -9.5q-194 0 -343.5 81.5t-233.5 240t-84 383.5q0 232 89 404t255.5 265t392.5 93q132 0 234.5 -33.5t159.5 -93t57 -134.5q0 -59 -34 -92
t-81 -33q-30 0 -58 15t-45 43q36 41 36 96q0 52 -35.5 98t-105 74.5t-167.5 28.5q-232 0 -358.5 -171t-126.5 -509q0 -229 59 -390t174.5 -245t282.5 -84q78 0 143.5 21t120.5 67v411q0 61 -13.5 93.5t-45 46.5t-90.5 14v16h466z" />
    <glyph glyph-name="H" unicode="H" horiz-adv-x="1497"
d="M1313.5 79q13.5 -34 45 -48.5t90.5 -14.5v-16h-484v16q56 0 86.5 12.5t43.5 44.5t13 93v541h-719v-531q0 -63 13.5 -97t45 -48.5t90.5 -14.5v-16h-484v16q56 0 86.5 12.5t43.5 44.5t13 93v1091q0 63 -13.5 97t-45 48.5t-90.5 14.5v17h484v-17q-56 0 -86.5 -12.5
t-43.5 -44.5t-13 -92v-539h719v528q0 63 -13.5 97t-45 48.5t-90.5 14.5v17h484v-17q-56 0 -86.5 -12.5t-43.5 -44.5t-13 -92v-1092q0 -63 13.5 -97z" />
    <glyph glyph-name="I" unicode="I" horiz-adv-x="627"
d="M74 16q56 0 86.5 12.5t44 44.5t13.5 93v1091q0 63 -13.5 97t-45 48.5t-90.5 14.5v17h484v-17q-56 0 -86.5 -12.5t-44 -44.5t-13.5 -92v-1092q0 -63 13.5 -97t45 -48.5t90.5 -14.5v-16h-484v16z" />
    <glyph glyph-name="J" unicode="J" horiz-adv-x="654"
d="M-97.5 -416.5q-59.5 26.5 -89 69t-29.5 90.5q0 54 32 87.5t82 33.5q43 0 73.5 -21.5t41.5 -55.5q-22 -14 -35 -44t-13 -64q0 -43 22.5 -72.5t68.5 -29.5q98 0 146 105t48 334v1241q0 63 -13.5 97t-45.5 48.5t-90 14.5v17h484v-17q-56 0 -86.5 -12.5t-43.5 -44.5t-13 -92
v-1158q0 -267 -97.5 -410t-299.5 -143q-83 0 -142.5 26.5z" />
    <glyph glyph-name="K" unicode="K" horiz-adv-x="1339"
d="M1204 70q28 -30 60 -42t75 -12v-16h-509v16q131 0 131 68q0 24 -19 60l-332 599l-221 -291v-276q0 -63 13.5 -97t45.5 -48.5t90 -14.5v-16h-484v16q56 0 86.5 12.5t43.5 44.5t13 93v1091q0 63 -13.5 97t-45 48.5t-90.5 14.5v17h485v-17q-56 0 -86.5 -12.5t-44 -44.5
t-13.5 -92v-777l555 732q58 74 58 121q0 73 -145 73v17h367v-17q-39 0 -74 -17.5t-78 -61.5t-108 -128l-224 -295l406 -760q30 -55 58 -85z" />
    <glyph glyph-name="L" unicode="L" horiz-adv-x="1005"
d="M389 135q0 -48 14.5 -71.5t50 -32.5t107.5 -9q89 0 157.5 37.5t125.5 123t106 230.5l16 -1l-55 -412h-857v16q56 0 86.5 12t43.5 43t13 89v1104q0 60 -13.5 92.5t-45 46.5t-90.5 14v17h485v-17q-57 0 -87 -12t-43.5 -42.5t-13.5 -88.5v-1139z" />
    <glyph glyph-name="M" unicode="M" horiz-adv-x="1905"
d="M1732.5 77.5q16.5 -33.5 48 -47.5t89.5 -14v-16h-493v16q71 0 104 21t33 76q0 22 -6 52l-207 1047l-426 -1212h-49l-449 1228l-157 -945q-9 -51 -9 -93q0 -89 41 -131.5t123 -42.5v-16h-347v16q52 0 83.5 26t51 81t35.5 150l164 985q5 33 5 53q0 59 -33.5 82.5
t-107.5 23.5v17h289l427 -1181l412 1181h271v-17q-71 0 -104 -21.5t-33 -75.5q0 -27 5 -51l211 -1094q12 -64 28.5 -97.5z" />
    <glyph glyph-name="N" unicode="N" horiz-adv-x="1328"
d="M1280 1436v-16q-55 0 -86 -26t-44.5 -83.5t-13.5 -158.5v-1152h-62l-853 1245v-951q0 -143 41.5 -210.5t139.5 -67.5v-16h-348v16q80 0 113.5 64t33.5 204v973q0 63 -13.5 97t-45 48.5t-90.5 14.5v17h286l778 -1147v855q0 104 -16 164t-52.5 87t-100.5 27v16h333z" />
    <glyph glyph-name="O" unicode="O" horiz-adv-x="1604"
d="M425 63.5q-162 90.5 -250.5 258.5t-88.5 396q0 217 91.5 383.5t257 258t380.5 91.5q214 0 373 -90.5t244.5 -255.5t85.5 -382q0 -232 -88 -401t-250 -259t-378 -90q-215 0 -377 90.5zM1181.5 175q118.5 171 118.5 485q0 234 -67.5 406t-187 263t-273.5 91
q-151 0 -256 -79.5t-159 -228.5t-54 -355q0 -236 67 -406t186.5 -258.5t274.5 -88.5q232 0 350.5 171z" />
    <glyph glyph-name="P" unicode="P" horiz-adv-x="1186"
d="M389 537v-361q0 -63 16.5 -97t55.5 -48.5t112 -14.5v-16h-519v16q56 0 86.5 12.5t43.5 44.5t13 93v1091q0 63 -13.5 97t-45 48.5t-90.5 14.5v17h79q44 0 102.5 1t91.5 2q134 4 212 4q282 0 424.5 -113.5t142.5 -327.5q0 -229 -146.5 -347.5t-419.5 -118.5q-85 0 -145 3z
M804 1315.5q-94 106.5 -296 106.5q-48 0 -119 -17v-800q70 -50 162 -50q173 0 260 102.5t87 324.5q0 227 -94 333.5z" />
    <glyph glyph-name="Q" unicode="Q" horiz-adv-x="1604"
d="M2072 -368q-222 -96 -419 -96q-219 0 -382 118.5t-247 346.5q-100 -28 -222 -28q-215 0 -377 90.5t-250.5 258.5t-88.5 396q0 217 91.5 383.5t257 258t380.5 91.5q214 0 373 -90.5t244.5 -255.5t85.5 -382q0 -185 -56.5 -330.5t-162.5 -243.5t-252 -142
q95 -112 230.5 -198.5t292 -134.5t311.5 -48q97 0 185 19zM370 351q67 -170 186.5 -258.5t274.5 -88.5q232 0 350.5 171t118.5 485q0 234 -67.5 406t-187 263t-273.5 91q-151 0 -256 -79.5t-159 -228.5t-54 -355q0 -236 67 -406z" />
    <glyph glyph-name="R" unicode="R" horiz-adv-x="1278"
d="M1270 -8q-69 -11 -116 -11q-99 0 -154.5 42t-79.5 104.5t-48 169.5q-28 126 -60.5 203t-114 130.5t-230.5 53.5h-78v-508q0 -63 13.5 -97t45.5 -48.5t90 -14.5v-16h-484v16q56 0 86.5 12.5t43.5 44.5t13 93v1091q0 63 -13.5 97t-45 48.5t-90.5 14.5v17h88q51 0 98.5 1
t86.5 2q144 4 207 4q262 0 401 -92t139 -277q0 -171 -110 -262t-348 -113q184 -3 282 -64.5t133.5 -146t60.5 -216.5q17 -88 33 -137.5t51.5 -84.5t99.5 -42v-14zM476 706q144 0 227.5 36.5t120.5 116t37 213.5q0 183 -89.5 266.5t-257.5 83.5q-62 0 -125 -17v-699h87z" />
    <glyph glyph-name="S" unicode="S" horiz-adv-x="1042"
d="M338 1033q41 -66 101.5 -111t163.5 -105q112 -65 180.5 -117t115.5 -132.5t47 -193.5q0 -117 -58.5 -204.5t-162 -135t-236.5 -47.5q-129 0 -218 43t-132 107t-43 126q0 57 31 90.5t83 33.5q37 0 62 -15.5t43 -46.5q-21 -17 -33.5 -48.5t-12.5 -68.5q0 -50 25 -94.5
t80 -73t142 -28.5q132 0 212.5 65t80.5 191q0 90 -42.5 157t-104.5 114t-167 111q-113 68 -180 120t-113.5 129.5t-46.5 182.5q0 110 55 192.5t150.5 127.5t215.5 45q95 0 167 -29t110.5 -78t38.5 -109q0 -51 -28.5 -80t-77.5 -29q-37 0 -65.5 16t-39.5 44q17 19 27.5 47
t10.5 57q0 58 -44 97.5t-139 39.5q-120 0 -179.5 -63.5t-59.5 -170.5q0 -90 41 -156z" />
    <glyph glyph-name="T" unicode="T" horiz-adv-x="1187"
d="M1144 1063h-17q-39 147 -72 220t-78 103t-120 30h-166v-1240q0 -63 13.5 -97t45 -48.5t90.5 -14.5v-16h-484v16q56 0 86.5 12.5t43.5 44.5t13 93v1250h-168q-75 0 -119.5 -30t-77.5 -103t-74 -220h-17l9 371h1083z" />
    <glyph glyph-name="U" unicode="U" horiz-adv-x="1435"
d="M1408 1417q-56 0 -87.5 -25.5t-45 -86t-13.5 -170.5v-626q0 -532 -532 -532q-270 0 -411.5 129t-141.5 382v769q0 63 -13.5 97t-45 48.5t-90.5 14.5v17h484v-17q-56 0 -86.5 -12.5t-43.5 -44.5t-13 -92v-757q0 -168 39.5 -272.5t128 -155t236.5 -50.5q237 0 351 123.5
t114 371.5v596q0 114 -15 176.5t-50 89.5t-99 27v17h334v-17z" />
    <glyph glyph-name="V" unicode="V" horiz-adv-x="1406"
d="M1421 1434v-17q-48 0 -82.5 -28.5t-68.5 -95.5t-85 -200l-424 -1093h-79l-505 1245q-29 70 -54 106t-56.5 51t-80.5 15v17h526v-17q-83 0 -119 -15.5t-36 -55.5q0 -31 25 -94l424 -1060l349 894q48 127 48 199q0 67 -39 99.5t-120 32.5v17h377z" />
    <glyph glyph-name="W" unicode="W" horiz-adv-x="2175"
d="M2189 1434v-17q-46 0 -85 -33t-78.5 -109t-85.5 -208l-378 -1067h-79l-382 985l-376 -985h-79l-438 1168q-39 105 -69 157t-64 72t-89 20v17h536v-17q-84 0 -119 -18t-35 -66q0 -49 38 -152l367 -988l315 824l-63 164q-39 100 -68 149t-62.5 68t-88.5 19v17h524v-17
q-78 0 -112 -16.5t-34 -60.5q0 -45 39 -146l384 -997l308 873q53 148 53 222q0 65 -39 95t-124 30v17h384z" />
    <glyph glyph-name="X" unicode="X" horiz-adv-x="1409"
d="M1276 66.5q27 -28.5 54.5 -39.5t70.5 -11v-16h-519v16q138 0 138 63q0 27 -25 65l-361 536l-328 -447q-70 -97 -70 -147q0 -37 35 -53.5t106 -16.5v-16h-361v16q40 0 74.5 19.5t78 67t110.5 140.5l339 459l-388 576q-41 60 -67.5 88.5t-54.5 39.5t-72 11v17h515v-17
q-138 0 -138 -61q0 -28 26 -66l330 -487l279 404q64 94 64 142q0 36 -36 52t-109 16v17h360v-17q-40 0 -74 -17.5t-75 -64t-103 -136.5l-292 -417l425 -627q41 -60 68 -88.5z" />
    <glyph glyph-name="Y" unicode="Y" horiz-adv-x="1284"
d="M1299 1434v-17q-40 0 -73.5 -23.5t-72.5 -81t-97 -167.5l-295 -548v-427q0 -61 14 -93.5t46.5 -46.5t93.5 -14v-16h-501v16q61 0 93.5 12t47 43t14.5 89v410l-388 707q-31 57 -59 87t-59 41.5t-77 11.5v17h515v-17q-67 0 -101 -14.5t-34 -48.5q0 -27 24 -72l359 -656
l278 516q68 127 68 191q0 44 -31.5 64t-92.5 20v17h328z" />
    <glyph glyph-name="Z" unicode="Z" horiz-adv-x="1158"
d="M1073 1434l5 -38l-810 -1374h381q125 0 199 34.5t120 113.5t85 228h16l12 -398h-1006l-6 34l809 1378h-378q-95 0 -153 -29.5t-100 -102.5t-85 -212h-16l-12 366h939z" />
    <glyph glyph-name="bracketleft" unicode="[" horiz-adv-x="752"
d="M373 1452v-1831h229v-22h-393v1876h393v-23h-229z" />
    <glyph glyph-name="backslash" unicode="\" horiz-adv-x="577"
d="M-41 1482l45 11l614 -1761l-45 -11z" />
    <glyph glyph-name="bracketright" unicode="]" horiz-adv-x="752"
d="M543 1475v-1876h-393v22h229v1831h-229v23h393z" />
    <glyph glyph-name="asciicircum" unicode="^" horiz-adv-x="1153"
d="M572 1240l-414 -723h-19l417 894h36l423 -894h-19z" />
    <glyph glyph-name="underscore" unicode="_" horiz-adv-x="878"
d="M783 0l-1 -42h-687l1 42h687z" />
    <glyph glyph-name="grave" unicode="`" horiz-adv-x="634"
d="M113 1332l61 148l8 1l341 -325l-10 -15z" />
    <glyph glyph-name="a" unicode="a" horiz-adv-x="1043"
d="M1021 82q-42 -49 -84 -72t-87 -23q-74 0 -114 40t-40 117v48q-42 -99 -127.5 -154t-207.5 -55q-135 0 -209.5 61.5t-74.5 178.5q0 160 160.5 239.5t458.5 88.5v29q0 213 -56.5 316t-180.5 103q-69 0 -106.5 -35.5t-37.5 -85.5q0 -26 10.5 -50.5t29.5 -43.5
q-10 -33 -41.5 -54t-73.5 -21q-48 0 -75.5 25.5t-27.5 69.5q0 62 49.5 111.5t133.5 77.5t182 28q122 0 204 -40.5t126 -136.5t44 -260v-418q0 -57 14.5 -79.5t47.5 -22.5q42 0 74 27zM638 142.5q58 86.5 58 250.5v101q-102 17 -172 17q-140 0 -202 -57.5t-62 -168.5
q0 -107 53.5 -168t148.5 -61q118 0 176 86.5z" />
    <glyph glyph-name="b" unicode="b" horiz-adv-x="1180"
d="M914 961q84 -58 130 -167.5t46 -261.5q0 -170 -59 -293.5t-172.5 -189.5t-274.5 -66q-109 0 -218.5 29.5t-209.5 85.5v949q0 132 -6.5 198.5t-24.5 94t-54 27.5q-22 0 -62 -10l-5 15l324 105l8 -7v-795q41 160 141.5 252t240.5 92q112 0 196 -58zM832 120.5
q63 102.5 63 325.5q0 235 -68.5 357t-205.5 122q-87 0 -151 -50.5t-99 -151.5t-35 -248v-262q70 -104 142.5 -149.5t151.5 -45.5q139 0 202 102.5z" />
    <glyph glyph-name="c" unicode="c" horiz-adv-x="982"
d="M749 994q67 -25 102 -67.5t35 -93.5q0 -48 -29.5 -77t-77.5 -29q-36 0 -64.5 18t-42.5 46q38 46 38 96q0 47 -36.5 78t-106.5 31q-88 0 -156 -45.5t-106.5 -139.5t-38.5 -236q0 -229 94.5 -353t271.5 -124q77 0 153.5 27.5t141.5 86.5l9 -9q-71 -98 -174.5 -159
t-224.5 -61q-138 0 -239 62.5t-154.5 175t-53.5 260.5q0 159 62 281t175.5 189.5t264.5 67.5q90 0 157 -25z" />
    <glyph glyph-name="d" unicode="d" horiz-adv-x="1212"
d="M1038.5 79q13.5 -34 45 -48.5t90.5 -14.5v-16h-186q-54 0 -128 -6l-8 7l-6 333q-40 -163 -141 -257t-243 -94q-112 0 -196 58t-130 168.5t-46 261.5q0 168 59 291.5t170.5 190t265.5 66.5q133 0 260 -50v82q0 134 -5 193.5t-25 88.5t-67 29q-32 0 -73 -10l-5 15l347 110
l8 -7v-1294q0 -63 13.5 -97zM710.5 127.5q64.5 50.5 99.5 152t35 249.5v267q-68 101 -141.5 145t-152.5 44q-139 0 -202.5 -103t-63.5 -325q0 -234 68.5 -357t205.5 -123q87 0 151.5 50.5z" />
    <glyph glyph-name="e" unicode="e" horiz-adv-x="1017"
d="M947 205q-86 -115 -184.5 -168.5t-221.5 -53.5q-142 0 -243.5 62.5t-154.5 175t-53 258.5q0 156 60 279t171 192t261 69q100 0 177 -29t120.5 -86.5t43.5 -139.5q0 -85 -63.5 -148t-182 -97t-279.5 -34q-55 0 -128 5q17 -196 113.5 -296.5t263.5 -100.5q88 0 157 30
t133 92zM336.5 883.5q-70.5 -107.5 -70.5 -309.5q0 -19 1 -29q120 -26 210 -26q149 0 210.5 66.5t61.5 179.5q0 68 -27.5 119t-76.5 79t-112 28q-126 0 -196.5 -107.5z" />
    <glyph glyph-name="f" unicode="f" horiz-adv-x="702"
d="M629 1243.5q-26 15.5 -42 43.5q16 17 24.5 40t8.5 46q0 38 -23 63.5t-70 25.5q-54 0 -85 -31t-45.5 -107.5t-14.5 -218.5v-119l316 22l5 -6l-18 -69h-303v-757q0 -63 15.5 -97t52.5 -48.5t106 -14.5v-16h-498v16q56 0 86.5 12.5t44 44.5t13.5 93v767h-164v22l164 14v19
q0 155 42.5 267t124 171.5t195.5 59.5q68 0 118 -23t76 -60.5t26 -78.5q0 -42 -26.5 -69t-70.5 -27q-32 0 -58 15.5z" />
    <glyph glyph-name="g" unicode="g" horiz-adv-x="1093"
d="M1052.5 970.5q-28.5 -24.5 -67.5 -24.5q-24 0 -45.5 10t-35.5 29q10 23 10 43q0 16 -10.5 24.5t-27.5 8.5q-27 0 -63 -22t-70 -68q76 -41 117.5 -111.5t41.5 -161.5q0 -104 -51 -182.5t-145.5 -121.5t-219.5 -43q-88 0 -155 21q-27 -21 -43.5 -44.5t-16.5 -47.5
q0 -37 36 -57t90 -29t152 -17q149 -13 245 -33t165 -77t69 -165q0 -105 -69 -183t-197.5 -120t-302.5 -42q-198 0 -308 55t-110 158q0 85 75.5 153.5t214.5 119.5q-86 17 -133.5 53.5t-47.5 106.5q0 55 39 98t123 78q-94 34 -145 107t-51 176q0 107 51 187.5t145.5 125
t220.5 44.5q109 0 193 -39q55 89 113 127t123 38q54 0 86.5 -29t32.5 -77q0 -44 -28.5 -68.5zM731 647q0 105 -29 183t-84.5 120.5t-132.5 42.5q-98 0 -148 -69t-50 -208q0 -157 64 -248.5t181 -91.5q199 0 199 271zM822.5 -60.5q-51.5 42.5 -126 57.5t-198.5 26
q-94 8 -138 15q-90 -50 -133 -107.5t-43 -125.5q0 -107 91.5 -164t251.5 -57q109 0 187 28t119 80.5t41 123.5q0 81 -51.5 123.5z" />
    <glyph glyph-name="h" unicode="h" horiz-adv-x="1256"
d="M1082.5 79q13.5 -34 45 -48.5t90.5 -14.5v-16h-472v16q56 0 86.5 12.5t43.5 44.5t13 93v420q0 129 -22 202.5t-68 105t-124 31.5q-145 0 -226.5 -119.5t-81.5 -356.5v-273q0 -63 13.5 -97t45 -48.5t90.5 -14.5v-16h-473v16q56 0 86.5 12.5t44 44.5t13.5 93v920
q0 114 -6.5 173.5t-24 84t-52.5 24.5q-25 0 -64 -11l-5 15l324 105l8 -7v-808q46 172 157 264.5t259 92.5q286 0 286 -372v-471q0 -63 13.5 -97z" />
    <glyph glyph-name="i" unicode="i" horiz-adv-x="605"
d="M226 1240q-30 30 -30 82q0 55 33 87.5t91 32.5q54 0 84.5 -30.5t30.5 -82.5q0 -55 -33.5 -87t-91.5 -32q-54 0 -84 30zM228 606q0 126 -6 189t-24 90.5t-56 27.5q-21 0 -61 -10l-5 15l324 105l8 -8v-839q0 -63 13.5 -97t45 -48.5t90.5 -14.5v-16h-473v16q56 0 86.5 12.5
t44 44.5t13.5 93v440z" />
    <glyph glyph-name="j" unicode="j" horiz-adv-x="614"
d="M240 1240q-30 30 -30 82q0 55 33 87.5t91 32.5q54 0 84.5 -30.5t30.5 -82.5q0 -55 -33.5 -87t-91.5 -32q-54 0 -84 30zM235.5 785.5q-6.5 62.5 -29 94t-70.5 31.5q-24 0 -52 -7l-5 15l335 105l8 -7v-922q0 -272 -85.5 -405t-266.5 -133q-65 0 -119.5 21.5t-86.5 61.5
t-32 92q0 49 30.5 81t77.5 32q39 0 67 -19t40 -48q-19 -16 -31 -45t-12 -58q0 -40 23 -67.5t69 -27.5q54 0 85.5 36.5t46 121.5t14.5 236v630q0 119 -6.5 181.5z" />
    <glyph glyph-name="k" unicode="k" horiz-adv-x="1140"
d="M994.5 71.5q26.5 -29.5 58.5 -42.5t79 -13v-16h-480v16q126 0 126 65q0 26 -21 63l-218 377l-172 -197v-148q0 -63 13 -97t43.5 -48.5t87.5 -14.5v-16h-468v16q56 0 86.5 12.5t44 44.5t13.5 93v920q0 114 -6.5 173.5t-24 84t-52.5 24.5q-25 0 -64 -11l-5 15l324 105l8 -7
v-1112l409 472q46 53 46 90q0 67 -151 67v17h389v-17q-47 0 -85.5 -16t-78.5 -50.5t-94 -96.5l-148 -170l282 -498q32 -55 58.5 -84.5z" />
    <glyph glyph-name="l" unicode="l" horiz-adv-x="554"
d="M180.5 1259.5q-6.5 59.5 -24 84t-52.5 24.5q-25 0 -64 -11l-5 15l324 105l8 -7v-1294q0 -63 13.5 -97t45 -48.5t90.5 -14.5v-16h-473v16q56 0 86.5 12.5t44 44.5t13.5 93v920q0 114 -6.5 173.5z" />
    <glyph glyph-name="m" unicode="m" horiz-adv-x="1896"
d="M1722.5 79q13.5 -34 45.5 -48.5t91 -14.5v-16h-465v16q53 0 81.5 12.5t41 44.5t12.5 93v437q0 120 -19 189t-60.5 99.5t-111.5 30.5q-136 0 -213 -119.5t-77 -353.5v-273q0 -63 13 -97t43 -48.5t85 -14.5v-16h-456v16q53 0 81.5 12.5t41 44.5t12.5 93v437q0 120 -19 189
t-60.5 99.5t-111.5 30.5q-136 0 -213 -119.5t-77 -353.5v-273q0 -63 12.5 -97t42.5 -48.5t85 -14.5v-16h-463v16q56 0 86.5 12.5t43.5 44.5t13 93v438q0 128 -6 191t-24 91t-57 28q-20 0 -60 -10l-5 15l324 105l8 -7v-350q43 169 147 260.5t248 91.5q136 0 200.5 -84
t65.5 -265q44 168 147.5 258.5t247.5 90.5q138 0 202 -86.5t64 -272.5v-484q0 -63 13.5 -97z" />
    <glyph glyph-name="n" unicode="n" horiz-adv-x="1277"
d="M1103.5 79q13.5 -34 45 -48.5t90.5 -14.5v-16h-469v16q55 0 84.5 12.5t42.5 44.5t13 93v420q0 128 -21 201.5t-66 105.5t-122 32q-150 0 -232 -119t-82 -357v-273q0 -63 13 -97t44 -48.5t88 -14.5v-16h-468v16q56 0 86.5 12.5t43.5 44.5t13 93v438q0 127 -6 189.5
t-24.5 90.5t-56.5 28q-25 0 -60 -9l-5 15l324 105l8 -8v-353q31 115 92 195t144 121t180 41q145 0 216 -91.5t71 -280.5v-471q0 -63 13.5 -97z" />
    <glyph glyph-name="o" unicode="o" horiz-adv-x="1196"
d="M314.5 44q-108.5 61 -166.5 172t-58 257q0 163 68 287t190 192.5t277 68.5q152 0 260.5 -65t164.5 -178.5t56 -257.5q0 -160 -69 -282t-190.5 -188.5t-275.5 -66.5q-148 0 -256.5 61zM835.5 124.5q71.5 108.5 71.5 317.5q0 160 -41 282.5t-117.5 191t-180.5 68.5
q-143 0 -211 -103t-68 -327q0 -158 42 -280t120 -190t182 -68q131 0 202.5 108.5z" />
    <glyph glyph-name="p" unicode="p" horiz-adv-x="1210"
d="M944 961.5q84 -57.5 130 -167.5t46 -261q0 -169 -59 -293t-170.5 -190.5t-265.5 -66.5q-134 0 -260 51v-288q0 -63 15.5 -97t51.5 -48.5t103 -14.5v-16h-493v16q56 0 86.5 12.5t43.5 44.5t13 93v868q0 128 -6 192t-23.5 91t-53.5 27q-20 0 -62 -10l-5 15l322 105l8 -7
v-342q41 160 141.5 252t241.5 92q112 0 196 -57.5zM861 121.5q63 102.5 63 324.5q0 234 -68.5 356.5t-204.5 122.5q-87 0 -151.5 -50.5t-99.5 -151.5t-35 -248v-269q68 -101 141 -144t153 -43q139 0 202 102.5z" />
    <glyph glyph-name="q" unicode="q" horiz-adv-x="1178"
d="M1038.5 -351q13.5 -34 45 -48.5t90.5 -14.5v-16h-510v16q71 0 109.5 12.5t55 44.5t16.5 93v592q-41 -160 -141.5 -252.5t-241.5 -92.5q-112 0 -196 58t-130 168t-46 262q0 167 59 290.5t170.5 190.5t265.5 67q95 0 180 -24t179 -74l73 14l8 -8v-1181q0 -63 13.5 -97z
M710.5 127.5q64.5 50.5 99.5 152t35 249.5v266q-68 101 -141.5 144.5t-152.5 43.5q-139 0 -202.5 -102.5t-63.5 -323.5q0 -235 68.5 -357.5t205.5 -122.5q87 0 151.5 50.5z" />
    <glyph glyph-name="r" unicode="r" horiz-adv-x="795"
d="M769 998l-44 -185q-73 48 -135 48q-103 0 -151.5 -125t-48.5 -385v-175q0 -63 17 -97t56.5 -48.5t112.5 -14.5v-16h-507v16q56 0 86.5 12.5t44 44.5t13.5 93v438q0 126 -6.5 189t-25.5 91t-59 28q-26 0 -62 -9l-5 15l322 105l8 -8l2 -147q3 -144 3 -289
q18 156 51.5 252.5t85.5 142t128 45.5q61 0 114 -21z" />
    <glyph glyph-name="s" unicode="s" horiz-adv-x="884"
d="M290 721.5q32 -41.5 79 -68t129 -61.5q92 -39 148 -71.5t95 -87.5t39 -137q0 -93 -46.5 -164t-130 -110t-190.5 -39q-92 0 -164.5 30t-112.5 77.5t-40 98.5q0 42 27 69t69 27q34 0 62 -16.5t38 -38.5q-17 -16 -26.5 -41t-9.5 -52q0 -55 42 -93t131 -38q97 0 155.5 47
t58.5 143q0 63 -31.5 106t-77.5 70t-125 61q-87 38 -140 70t-90 87t-37 137q0 86 43 152.5t118 103t167 36.5q80 0 141.5 -25t95.5 -65.5t34 -84.5q0 -37 -23.5 -58.5t-62.5 -21.5q-34 0 -58 14.5t-31 38.5q28 30 28 72q0 45 -37 76.5t-112 31.5q-89 0 -138 -46.5
t-49 -128.5q0 -59 32 -100.5z" />
    <glyph glyph-name="t" unicode="t" horiz-adv-x="745"
d="M735 158q-73 -87 -150 -131t-151 -44q-118 0 -180 69t-62 196v685h-164v22l164 15v187q56 11 92.5 26t78.5 46l10 -5v-239l323 23l5 -6l-18 -69h-310v-609q0 -134 37 -191t121 -57q92 0 193 94z" />
    <glyph glyph-name="u" unicode="u" horiz-adv-x="1226"
d="M1058 79q12 -34 40.5 -48.5t81.5 -14.5v-16h-160q-72 0 -142 -5l-8 7l-4 350q-30 -114 -88 -197t-138 -127.5t-172 -44.5q-153 0 -225.5 87.5t-72.5 270.5v309q0 103 -7 158t-24.5 78.5t-50.5 23.5q-23 0 -55 -9l-5 15l314 104l8 -7v-611q0 -123 20.5 -194t65 -102.5
t119.5 -31.5q99 0 168.5 57.5t106 167t36.5 262.5v46q0 121 -6.5 183t-25 89t-55.5 27q-22 0 -60 -10l-5 15l324 109l8 -7v-837q0 -63 12 -97z" />
    <glyph glyph-name="v" unicode="v" horiz-adv-x="1092"
d="M1098 1004v-17q-45 0 -74 -21.5t-59.5 -77t-83.5 -177.5l-312 -715h-25l-318 716q-51 114 -85 171.5t-67.5 80.5t-79.5 23v17h518v-17q-77 0 -115.5 -21.5t-38.5 -75.5q0 -59 48 -165l230 -520l219 508q44 100 44 160q0 59 -42.5 86.5t-131.5 27.5v17h373z" />
    <glyph glyph-name="w" unicode="w" horiz-adv-x="1696"
d="M1702 1004v-17q-45 0 -74 -21.5t-59.5 -77t-83.5 -177.5l-311 -715h-26l-290 652l-284 -652h-27l-321 716q-51 115 -85.5 172.5t-67.5 80t-79 22.5v17h504v-17q-73 0 -108.5 -20.5t-35.5 -70.5q0 -59 50 -171l234 -532l208 482l-16 37q-50 114 -84.5 171.5t-68 80.5
t-79.5 23v17h519v-17q-78 0 -116.5 -21.5t-38.5 -75.5q0 -59 48 -165l230 -520l219 508q44 100 44 160q0 59 -42.5 86.5t-131.5 27.5v17h373z" />
    <glyph glyph-name="x" unicode="x" horiz-adv-x="1061"
d="M928.5 71q27.5 -29 57 -42t71.5 -13v-16h-493v16q65 0 100.5 16t35.5 49q0 26 -24 63l-205 308l-191 -267q-48 -67 -48 -105q0 -34 33.5 -49t100.5 -15v-16h-350v16q41 0 76 15t74 54t92 112l200 275l-250 376q-37 56 -64 85t-57 41.5t-73 12.5v17h494v-17
q-66 0 -102 -16t-36 -48q0 -26 25 -63l190 -286l178 253q42 62 42 96t-36 49t-106 15v17h346v-17q-41 0 -73 -13.5t-68 -50t-85 -105.5l-185 -263l266 -400q37 -55 64.5 -84z" />
    <glyph glyph-name="y" unicode="y" horiz-adv-x="1094"
d="M1099 1004v-17q-44 0 -74 -21.5t-62 -78t-84 -176.5l-327 -761q-62 -144 -117.5 -229.5t-111.5 -123.5t-119 -38q-56 0 -102.5 22.5t-74 62.5t-27.5 89q0 53 29.5 83.5t75.5 30.5q35 0 62.5 -19t37.5 -42q-18 -15 -29 -42.5t-11 -56.5q0 -36 19.5 -60.5t58.5 -24.5
q67 0 132.5 77.5t135.5 241.5l34 78l-317 713q-53 117 -86.5 174t-66.5 79t-80 22v17h519v-17q-78 0 -116 -21.5t-38 -75.5q0 -58 47 -165l227 -519l218 507q44 103 44 162t-41.5 85.5t-128.5 26.5v17h373z" />
    <glyph glyph-name="z" unicode="z" horiz-adv-x="922"
d="M836 0h-759l-7 39l586 943h-286q-63 0 -102.5 -24.5t-66 -82t-46.5 -161.5h-12l-15 290h700l5 -39l-583 -945h294q83 0 133 25.5t81.5 91t51.5 188.5h12z" />
    <glyph glyph-name="braceleft" unicode="{" horiz-adv-x="792"
d="M427 649q-51 -96 -148 -119q95 -16 147 -83.5t52 -171.5v-381q0 -122 11 -186t36.5 -89t72.5 -25q37 0 76 7l3 -19q-49 -12 -141 -12q-129 0 -181.5 61t-52.5 176q0 43 6 110.5t14 135.5q10 89 15 145.5t5 99.5q0 112 -44.5 162.5t-146.5 50.5h-74v25h83q180 0 180 278
q0 63 -20 219q-7 56 -12.5 111t-5.5 89q0 119 60.5 180.5t193.5 61.5q54 0 122 -11l-1 -21q-40 8 -81 8q-49 0 -73.5 -25t-34.5 -91t-10 -198v-260q0 -132 -51 -228z" />
    <glyph glyph-name="bar" unicode="|" horiz-adv-x="481"
d="M218 1675h45v-2232h-45v2232z" />
    <glyph glyph-name="braceright" unicode="}" horiz-adv-x="792"
d="M715 536v-25h-84q-180 0 -180 -279q0 -40 5 -91t15 -127q19 -143 19 -201q0 -119 -60.5 -180t-193.5 -61q-64 0 -122 11l1 20q35 -7 80 -7q49 0 74 25t35 91t10 198v260q0 130 51 226.5t147 120.5q-95 16 -146.5 83.5t-51.5 170.5v382q0 122 -11 186t-36.5 89t-72.5 25
q-42 0 -76 -8l-3 20q50 12 140 12q129 0 182 -60.5t53 -176.5q0 -43 -5 -99.5t-15 -145.5q-10 -91 -15 -147.5t-5 -99.5q0 -111 44.5 -161.5t146.5 -50.5h74z" />
    <glyph glyph-name="asciitilde" unicode="~"
d="M180.5 757.5q49.5 43.5 124.5 43.5q58 0 114 -18.5t139 -54.5q71 -32 115.5 -47t86.5 -15q52 0 95.5 34t55.5 113l17 -4q0 -99 -48.5 -143.5t-123.5 -44.5q-56 0 -110 18t-131 53q-76 33 -121 48.5t-91 15.5q-56 0 -99.5 -34t-56.5 -112l-16 4q0 100 49.5 143.5z" />
    <glyph glyph-name="uni00A0" unicode="&#xa0;" horiz-adv-x="489"
 />
    <glyph glyph-name="exclamdown" unicode="&#xa1;" horiz-adv-x="589"
d="M387.5 1021.5q35.5 -35.5 35.5 -93.5t-35 -93.5t-94 -35.5q-58 0 -93.5 35.5t-35.5 93.5t35.5 93.5t93.5 35.5t93.5 -35.5zM322 282q15 -140 39 -302q15 -98 22.5 -161t7.5 -124q0 -124 -96 -124q-49 0 -73 30t-24 94q0 59 7.5 121.5t22.5 159.5q24 161 39 302.5
t19 333.5h17q4 -190 19 -330z" />
    <glyph glyph-name="cent" unicode="&#xa2;" horiz-adv-x="1017"
d="M777.5 166q-93.5 -59 -203.5 -68v-140h-32v138h-5q-138 0 -239 62.5t-154.5 175t-53.5 260.5q0 150 55.5 267.5t157.5 187.5t240 81v142h31v-140h18q90 0 157 -25t102 -67.5t35 -93.5q0 -48 -29.5 -77t-77.5 -29q-36 0 -64.5 18t-42.5 46q38 46 38 96q0 47 -36.5 78
t-106.5 31q-88 0 -156 -45.5t-106.5 -139.5t-38.5 -236q0 -229 94.5 -353t271.5 -124q77 0 153.5 27.5t141.5 86.5l9 -9q-65 -91 -158.5 -150z" />
    <glyph glyph-name="sterling" unicode="&#xa3;" horiz-adv-x="1043"
d="M693 51.5q66 29.5 119 105t123 233.5l16 -1l-53 -389h-828v16q118 0 172 107t54 289q0 87 -11 170h-182v25l177 12q-1 5 -25 141q-18 91 -26.5 149t-8.5 117q0 130 54.5 224.5t149.5 144t214 49.5q100 0 173.5 -28.5t112.5 -77t39 -108.5q0 -50 -28.5 -79t-77.5 -29
q-36 0 -65 16t-40 44q17 18 27 45t10 55q0 58 -43.5 98.5t-136.5 40.5q-122 0 -173.5 -82t-51.5 -229q0 -79 11.5 -151.5t35.5 -184.5q4 -17 13.5 -61t15.5 -81l362 25l5 -6l-18 -69h-341q10 -75 10 -138q0 -126 -52.5 -236.5t-149.5 -169.5q44 -8 112 -12t127 -4
q112 0 178 29.5z" />
    <glyph glyph-name="currency" unicode="&#xa4;" horiz-adv-x="1229"
d="M1077 260l-143 156q-57 -52 -128.5 -81.5t-150.5 -29.5q-82 0 -154 29t-128 81l-150 -149l-28 31l150 147q-49 57 -76 130t-27 153q0 79 28 150.5t79 128.5l-130 131l27 30l132 -132q57 52 129 81t150 29q82 0 154.5 -28.5t128.5 -79.5l133 137l31 -27l-135 -139
q50 -56 78 -128.5t28 -152.5q0 -76 -29.5 -149.5t-82.5 -131.5l145 -157zM794.5 386q58.5 49 89.5 137.5t31 203.5q0 113 -29.5 201t-88 137.5t-142.5 49.5q-76 0 -134 -48.5t-89 -136.5t-31 -203q0 -118 30 -206t88 -136t138 -48q79 0 137.5 49z" />
    <glyph glyph-name="yen" unicode="&#xa5;" horiz-adv-x="1280"
d="M1282 1434v-17q-41 0 -73.5 -20.5t-71 -78t-97.5 -173.5l-267 -520l260 18l5 -5l-18 -70h-262v-135l227 16l6 -6l-18 -69l-215 2v-206q0 -61 14 -93.5t47 -46.5t94 -14v-16h-501v16q61 0 93.5 12t47 43t14.5 89v218l-221 2v24l221 16v148h-262v25l243 17l-355 667
q-31 58 -58.5 88t-59 41t-77.5 11v17h518v-17q-67 0 -101 -14t-34 -49q0 -26 23 -72l343 -655l264 515q39 77 57 127.5t18 80.5q0 39 -27.5 53t-88.5 14v17h312z" />
    <glyph glyph-name="section" unicode="&#xa7;" horiz-adv-x="1184"
d="M1018 495.5q-55 -65.5 -174 -119.5q60 -42 93 -94t33 -120q0 -87 -53 -157t-147.5 -110t-215.5 -40q-115 0 -199 36t-126.5 90.5t-42.5 108.5q0 47 29 77.5t80 30.5q33 0 59 -15.5t42 -44.5q-16 -14 -25 -37t-9 -50q0 -43 23.5 -82t74 -64.5t128.5 -25.5q77 0 133.5 27
t85.5 73.5t29 102.5q0 71 -45.5 121t-112 83.5t-181.5 77.5q-125 48 -200 86.5t-127.5 100t-52.5 150.5q0 92 63 155.5t187 107.5q-58 42 -90 94t-32 122q0 88 50.5 154.5t139.5 102t201 35.5q96 0 167 -25t108.5 -67t37.5 -93q0 -42 -25.5 -70.5t-72.5 -28.5
q-35 0 -64 16.5t-40 44.5q16 16 24.5 38.5t8.5 45.5q0 49 -42 82.5t-129 33.5q-77 0 -127 -27t-72.5 -70.5t-22.5 -95.5q0 -73 43.5 -123.5t108 -82.5t174.5 -74q120 -46 190.5 -82.5t120 -96.5t49.5 -149q0 -87 -55 -152.5zM905.5 461.5q30.5 47.5 30.5 105.5
q0 71 -44 121.5t-108.5 83.5t-174.5 76q-86 34 -132.5 54.5t-88.5 47.5q-70 -30 -102 -68.5t-32 -94.5q0 -73 46.5 -126t115 -88t183.5 -80q85 -34 134.5 -56t93.5 -50q48 27 78.5 74.5z" />
    <glyph glyph-name="dieresis" unicode="&#xa8;" horiz-adv-x="942"
d="M154 1249q-26 27 -26 74q0 49 28 78t81 29q46 0 71 -27.5t25 -76.5q0 -48 -27 -76t-80 -28q-46 0 -72 27zM558.5 1249q-25.5 27 -25.5 74q0 49 27.5 78t80.5 29q46 0 71.5 -28t25.5 -76t-27.5 -76t-80.5 -28q-46 0 -71.5 27z" />
    <glyph glyph-name="copyright" unicode="&#xa9;" horiz-adv-x="2054"
d="M571 -3q-196 108 -304.5 295t-108.5 415t108.5 419t307 303.5t456.5 112.5q252 0 449 -108t307 -294t110 -413q0 -228 -110.5 -420t-310.5 -305t-457 -113q-251 0 -447 108zM1421.5 19q163.5 101 254.5 278.5t91 400.5q0 235 -99.5 420.5t-274.5 290t-391 104.5
q-208 0 -371 -100t-253.5 -276.5t-90.5 -399.5q0 -239 99.5 -425.5t273.5 -290t390 -103.5q208 0 371.5 101zM811 342q-82 51 -126.5 144t-44.5 217q0 139 55 247t158 168.5t241 60.5q85 0 146.5 -23t93 -62.5t31.5 -87.5q0 -45 -27 -72t-72 -27q-37 0 -64 17.5t-37 46.5
q16 17 26 42t10 50q0 42 -34 68t-98 26q-79 0 -139 -40.5t-94 -123t-34 -204.5q0 -189 78.5 -286t225.5 -97q70 0 137 23.5t123 74.5l10 -9q-70 -95 -163 -149.5t-209 -54.5q-111 0 -193 51z" />
    <glyph glyph-name="guillemotleft" unicode="&#xab;" horiz-adv-x="901"
d="M290 518l226 -372l-16 -16l-392 385l392 387l16 -16zM583 519l176 -308l-16 -15l-328 321l332 318l15 -16z" />
    <glyph glyph-name="logicalnot" unicode="&#xac;"
d="M928 352h-45v351h-752v45h797v-396z" />
    <glyph glyph-name="registered" unicode="&#xae;" horiz-adv-x="1209"
d="M343 517q-114 65 -178 180.5t-64 260.5q0 148 65 265.5t180.5 184t259.5 66.5t258.5 -65t179 -180.5t64.5 -260.5q0 -148 -65.5 -265.5t-181.5 -184t-261 -66.5q-143 0 -257 65zM839 552.5q104 61.5 163 169.5t59 244q0 134 -59 241.5t-163 168t-235 60.5
q-130 0 -234.5 -61.5t-163.5 -170t-59 -245.5q0 -134 59 -240.5t163.5 -167t234.5 -60.5q131 0 235 61.5zM731.5 1217.5q47.5 -35.5 47.5 -103.5q0 -121 -148 -138q58 -3 90.5 -26.5t46 -55t24.5 -79.5q11 -47 22.5 -69t39.5 -25v-6q-11 -2 -31 -2q-39 0 -61.5 16
t-32.5 39.5t-21 64.5q-12 45 -24.5 72t-41.5 46t-79 19h-19v-186q0 -33 12.5 -45t45.5 -12v-10h-182v10q31 0 42 11t11 42v404q0 33 -11.5 45t-43.5 12v10h33q41 0 64 1l74 1q95 0 142.5 -35.5zM565 985q75 0 105.5 28.5t30.5 94.5q0 71 -27.5 101t-84.5 30q-15 0 -45 -5
v-249h21z" />
    <glyph glyph-name="macron" unicode="&#xaf;" horiz-adv-x="942"
d="M715 1356v-76h-570v76h570z" />
    <glyph glyph-name="degree" unicode="&#xb0;" horiz-adv-x="905"
d="M244 893q-67 34 -107 98t-40 150q0 82 39 147.5t106.5 102t150.5 36.5q85 0 152.5 -38t105.5 -103.5t38 -144.5q0 -86 -40 -150t-108 -98t-150 -34q-80 0 -147 34zM522 953.5q43 66.5 43 178.5q0 121 -49 194t-138 73q-49 0 -86 -30.5t-57.5 -86.5t-20.5 -131
q0 -79 23.5 -139t67 -92.5t101.5 -32.5q73 0 116 66.5z" />
    <glyph glyph-name="plusminus" unicode="&#xb1;"
d="M928 783h-376v-375h-47v375h-374v46h374v376h47v-376h376v-46zM928 270v-46h-797v46h797z" />
    <glyph glyph-name="acute" unicode="&#xb4;" horiz-adv-x="942"
d="M191 1156l341 325l8 -1l62 -148l-400 -191z" />
    <glyph glyph-name="paragraph" unicode="&#xb6;" horiz-adv-x="1161"
d="M658 541h-123q-115 0 -217.5 47.5t-167 147t-64.5 245.5q0 214 135 333.5t410 119.5h482v-17q-56 0 -86.5 -12.5t-44 -44.5t-13.5 -92v-1268h-180v1409h-108v-1409h-23v541z" />
    <glyph glyph-name="periodcentered" unicode="&#xb7;" horiz-adv-x="572"
d="M192.5 595.5q-35.5 35.5 -35.5 93.5q0 59 35.5 94t93.5 35t93.5 -35.5t35.5 -93.5t-35.5 -93.5t-93.5 -35.5t-93.5 35.5z" />
    <glyph glyph-name="cedilla" unicode="&#xb8;" horiz-adv-x="942"
d="M394 -122q85 0 127 -42.5t42 -103.5q0 -55 -23.5 -94t-63.5 -59.5t-87 -20.5q-54 0 -103.5 25.5t-88.5 68.5l9 11q66 -50 128 -50q45 0 72.5 33t27.5 90q0 60 -32.5 87t-98.5 27q-21 0 -33 -1l-10 14l101 137h20l-60 -130q43 8 73 8z" />
    <glyph glyph-name="guillemotright" unicode="&#xbb;" horiz-adv-x="901"
d="M793 533l-392 -387l-16 16l226 368l-226 372l16 16zM486 531l-332 -318l-15 16l179 300l-176 308l16 15z" />
    <glyph glyph-name="questiondown" unicode="&#xbf;" horiz-adv-x="838"
d="M585.5 1017.5q35.5 -35.5 35.5 -93.5t-35 -93.5t-94 -35.5q-58 0 -93.5 35.5t-35.5 93.5t35.5 93.5t93.5 35.5t93.5 -35.5zM177 -333.5q-102 79.5 -102 241.5q0 97 34 167.5t82 116.5t126 103q64 47 100 79.5t60.5 77t24.5 102.5q0 28 -6 59h19q20 -64 20 -120
q0 -52 -16.5 -96t-40.5 -79.5t-66 -86.5q-50 -62 -80 -106.5t-51 -107.5t-21 -142q0 -118 55 -192t166 -74q50 0 85 17t53 44.5t18 59.5q0 25 -11.5 49.5t-33.5 43.5q7 36 37 59.5t75 23.5q49 0 77.5 -29.5t28.5 -76.5q0 -63 -49.5 -111.5t-133 -75t-183.5 -26.5
q-165 0 -267 79.5z" />
    <glyph glyph-name="Agrave" unicode="&#xc0;" horiz-adv-x="1413"
d="M845 1504l-386 192l43 134l8 2l345 -311zM1289.5 84q24.5 -38 55.5 -53t82 -15v-16h-536v16q87 0 124.5 16.5t37.5 60.5q0 37 -24 98l-103 274h-628l-74 -189q-40 -102 -40 -157t38.5 -79t124.5 -24v-16h-361v16q61 0 109.5 59.5t99.5 190.5l456 1168h113l472 -1236
q29 -76 53.5 -114zM917 488l-298 794l-312 -794h610z" />
    <glyph glyph-name="Aacute" unicode="&#xc1;" horiz-adv-x="1413"
d="M572 1504l-10 17l345 311l8 -2l43 -134zM1289.5 84q24.5 -38 55.5 -53t82 -15v-16h-536v16q87 0 124.5 16.5t37.5 60.5q0 37 -24 98l-103 274h-628l-74 -189q-40 -102 -40 -157t38.5 -79t124.5 -24v-16h-361v16q61 0 109.5 59.5t99.5 190.5l456 1168h113l472 -1236
q29 -76 53.5 -114zM917 488l-298 794l-312 -794h610z" />
    <glyph glyph-name="Acircumflex" unicode="&#xc2;" horiz-adv-x="1413"
d="M418 1517l-11 13l294 286l293 -286l-9 -13l-284 135zM1289.5 84q24.5 -38 55.5 -53t82 -15v-16h-536v16q87 0 124.5 16.5t37.5 60.5q0 37 -24 98l-103 274h-628l-74 -189q-40 -102 -40 -157t38.5 -79t124.5 -24v-16h-361v16q61 0 109.5 59.5t99.5 190.5l456 1168h113
l472 -1236q29 -76 53.5 -114zM917 488l-298 794l-312 -794h610z" />
    <glyph glyph-name="Atilde" unicode="&#xc3;" horiz-adv-x="1413"
d="M402 1551l-14 5q13 95 65.5 142.5t132.5 47.5q35 0 64.5 -8t74.5 -24q47 -17 79 -25t70 -8q55 0 85.5 20.5t39.5 53.5l14 -5q-7 -97 -57 -142t-124 -45q-36 0 -66 8t-70 23q-44 17 -78.5 25.5t-76.5 8.5q-116 0 -139 -77zM1289.5 84q24.5 -38 55.5 -53t82 -15v-16h-536
v16q87 0 124.5 16.5t37.5 60.5q0 37 -24 98l-103 274h-628l-74 -189q-40 -102 -40 -157t38.5 -79t124.5 -24v-16h-361v16q61 0 109.5 59.5t99.5 190.5l456 1168h113l472 -1236q29 -76 53.5 -114zM917 488l-298 794l-312 -794h610z" />
    <glyph glyph-name="Adieresis" unicode="&#xc4;" horiz-adv-x="1413"
d="M420 1602q-26 27 -26 74q0 49 27.5 78t80.5 29q46 0 71.5 -28t25.5 -76t-27.5 -76t-80.5 -28q-45 0 -71 27zM826.5 1602q-25.5 27 -25.5 74q0 50 27.5 78.5t80.5 28.5q46 0 71.5 -28t25.5 -76t-27.5 -76t-80.5 -28q-46 0 -71.5 27zM1289.5 84q24.5 -38 55.5 -53t82 -15
v-16h-536v16q87 0 124.5 16.5t37.5 60.5q0 37 -24 98l-103 274h-628l-74 -189q-40 -102 -40 -157t38.5 -79t124.5 -24v-16h-361v16q61 0 109.5 59.5t99.5 190.5l456 1168h113l472 -1236q29 -76 53.5 -114zM917 488l-298 794l-312 -794h610z" />
    <glyph glyph-name="AE" unicode="&#xc6;" horiz-adv-x="1631"
d="M1559 381l-51 -381h-897v16q56 0 86.5 12.5t44 44.5t13.5 93v299h-425l-87 -190q-52 -112 -52 -168q0 -49 39 -70t126 -21v-16h-370v16q61 0 114 57.5t116 193.5l445 976q33 72 33 108q0 35 -28.5 50.5t-91.5 15.5v17h937l-1 -346h-17q-47 138 -87.5 204t-100.5 92.5
t-168 26.5h-191v-659h163q72 0 111 19.5t61.5 67.5t47.5 149h17v-495h-17q-25 102 -47.5 150t-61 68t-111.5 20h-163v-708h164q121 0 193 29.5t125.5 104.5t114.5 226zM755 488v901l-415 -901h415z" />
    <glyph glyph-name="Ccedilla" unicode="&#xc7;" horiz-adv-x="1283"
d="M1009 64.5q-128 -77.5 -288 -80.5l-53 -114q43 8 73 8q85 0 127 -42.5t42 -103.5q0 -55 -23.5 -94t-63.5 -59.5t-87 -20.5q-54 0 -103.5 25.5t-88.5 68.5l9 11q66 -50 128 -50q45 0 72.5 33t27.5 90q0 60 -32.5 87t-98.5 27q-21 0 -33 -1l-10 14l89 121q-174 4 -312.5 91
t-218 246.5t-79.5 372.5q0 211 86.5 383.5t249 273t381.5 100.5q120 0 215 -34.5t149 -95t54 -136.5q0 -57 -35 -89.5t-83 -32.5q-31 0 -58.5 15.5t-41.5 44.5q17 17 26 42.5t9 55.5q0 56 -33 101.5t-94.5 72t-142.5 26.5q-147 0 -256 -72t-169 -213t-60 -343
q0 -224 63 -376.5t181 -229t284 -76.5q113 0 211 41.5t209 141.5l12 -12q-106 -140 -234 -217.5z" />
    <glyph glyph-name="Egrave" unicode="&#xc8;" horiz-adv-x="1074"
d="M700 1504l-386 192l43 134l8 2l345 -311zM1002 381l-51 -381h-897v16q56 0 86.5 12.5t43.5 44.5t13 93v1091q0 63 -13.5 97t-45 48.5t-90.5 14.5v17h901l3 -346h-16q-48 138 -88 204t-100 92.5t-169 26.5h-190v-659h163q72 0 110.5 19.5t61 67.5t47.5 149h18v-495h-18
q-25 102 -47.5 150t-61 68t-110.5 20h-163v-708h164q121 0 193 29.5t125 104.5t114 226z" />
    <glyph glyph-name="Eacute" unicode="&#xc9;" horiz-adv-x="1074"
d="M427 1504l-10 17l345 311l8 -2l43 -134zM1002 381l-51 -381h-897v16q56 0 86.5 12.5t43.5 44.5t13 93v1091q0 63 -13.5 97t-45 48.5t-90.5 14.5v17h901l3 -346h-16q-48 138 -88 204t-100 92.5t-169 26.5h-190v-659h163q72 0 110.5 19.5t61 67.5t47.5 149h18v-495h-18
q-25 102 -47.5 150t-61 68t-110.5 20h-163v-708h164q121 0 193 29.5t125 104.5t114 226z" />
    <glyph glyph-name="Ecircumflex" unicode="&#xca;" horiz-adv-x="1074"
d="M273 1517l-11 13l294 286l293 -286l-9 -13l-284 135zM1002 381l-51 -381h-897v16q56 0 86.5 12.5t43.5 44.5t13 93v1091q0 63 -13.5 97t-45 48.5t-90.5 14.5v17h901l3 -346h-16q-48 138 -88 204t-100 92.5t-169 26.5h-190v-659h163q72 0 110.5 19.5t61 67.5t47.5 149h18
v-495h-18q-25 102 -47.5 150t-61 68t-110.5 20h-163v-708h164q121 0 193 29.5t125 104.5t114 226z" />
    <glyph glyph-name="Edieresis" unicode="&#xcb;" horiz-adv-x="1074"
d="M276 1602q-26 27 -26 74q0 49 27.5 78t80.5 29q46 0 71.5 -28t25.5 -76t-27.5 -76t-80.5 -28q-45 0 -71 27zM682.5 1602q-25.5 27 -25.5 74q0 50 27.5 78.5t80.5 28.5q46 0 71.5 -28t25.5 -76t-27.5 -76t-80.5 -28q-46 0 -71.5 27zM1002 381l-51 -381h-897v16
q56 0 86.5 12.5t43.5 44.5t13 93v1091q0 63 -13.5 97t-45 48.5t-90.5 14.5v17h901l3 -346h-16q-48 138 -88 204t-100 92.5t-169 26.5h-190v-659h163q72 0 110.5 19.5t61 67.5t47.5 149h18v-495h-18q-25 102 -47.5 150t-61 68t-110.5 20h-163v-708h164q121 0 193 29.5
t125 104.5t114 226z" />
    <glyph glyph-name="Igrave" unicode="&#xcc;" horiz-adv-x="627"
d="M115 1830l8 2l345 -311l-10 -17l-386 192zM74 16q56 0 86.5 12.5t44 44.5t13.5 93v1091q0 63 -13.5 97t-45 48.5t-90.5 14.5v17h484v-17q-56 0 -86.5 -12.5t-44 -44.5t-13.5 -92v-1092q0 -63 13.5 -97t45 -48.5t90.5 -14.5v-16h-484v16z" />
    <glyph glyph-name="Iacute" unicode="&#xcd;" horiz-adv-x="627"
d="M185 1504l-10 17l345 311l8 -2l43 -134zM74 16q56 0 86.5 12.5t44 44.5t13.5 93v1091q0 63 -13.5 97t-45 48.5t-90.5 14.5v17h484v-17q-56 0 -86.5 -12.5t-44 -44.5t-13.5 -92v-1092q0 -63 13.5 -97t45 -48.5t90.5 -14.5v-16h-484v16z" />
    <glyph glyph-name="Icircumflex" unicode="&#xce;" horiz-adv-x="627"
d="M607 1530l-9 -13l-284 135l-283 -135l-11 13l294 286zM422.5 79q13.5 -34 45 -48.5t90.5 -14.5v-16h-484v16q56 0 86.5 12.5t44 44.5t13.5 93v1091q0 63 -13.5 97t-45 48.5t-90.5 14.5v17h484v-17q-56 0 -86.5 -12.5t-44 -44.5t-13.5 -92v-1092q0 -63 13.5 -97z" />
    <glyph glyph-name="Idieresis" unicode="&#xcf;" horiz-adv-x="627"
d="M33 1602q-26 27 -26 74q0 49 27.5 78t80.5 29q46 0 71.5 -28t25.5 -76t-27.5 -76t-80.5 -28q-45 0 -71 27zM439.5 1602q-25.5 27 -25.5 74q0 50 27.5 78.5t80.5 28.5q46 0 71.5 -28t25.5 -76t-27.5 -76t-80.5 -28q-46 0 -71.5 27zM74 16q56 0 86.5 12.5t44 44.5t13.5 93
v1091q0 63 -13.5 97t-45 48.5t-90.5 14.5v17h484v-17q-56 0 -86.5 -12.5t-44 -44.5t-13.5 -92v-1092q0 -63 13.5 -97t45 -48.5t90.5 -14.5v-16h-484v16z" />
    <glyph glyph-name="Ntilde" unicode="&#xd1;" horiz-adv-x="1328"
d="M402 1551l-14 5q13 95 65.5 142.5t132.5 47.5q35 0 64.5 -8t74.5 -24q47 -17 79 -25t70 -8q55 0 85.5 20.5t39.5 53.5l14 -5q-7 -97 -57 -142t-124 -45q-36 0 -66 8t-70 23q-44 17 -78.5 25.5t-76.5 8.5q-116 0 -139 -77zM1280 1436v-16q-55 0 -86 -26t-44.5 -83.5
t-13.5 -158.5v-1152h-62l-853 1245v-951q0 -143 41.5 -210.5t139.5 -67.5v-16h-348v16q80 0 113.5 64t33.5 204v973q0 63 -13.5 97t-45 48.5t-90.5 14.5v17h286l778 -1147v855q0 104 -16 164t-52.5 87t-100.5 27v16h333z" />
    <glyph glyph-name="Ograve" unicode="&#xd2;" horiz-adv-x="1604"
d="M603 1830l8 2l345 -311l-10 -17l-386 192zM425 63.5q-162 90.5 -250.5 258.5t-88.5 396q0 217 91.5 383.5t257 258t380.5 91.5q214 0 373 -90.5t244.5 -255.5t85.5 -382q0 -232 -88 -401t-250 -259t-378 -90q-215 0 -377 90.5zM1181.5 175q118.5 171 118.5 485
q0 234 -67.5 406t-187 263t-273.5 91q-151 0 -256 -79.5t-159 -228.5t-54 -355q0 -236 67 -406t186.5 -258.5t274.5 -88.5q232 0 350.5 171z" />
    <glyph glyph-name="Oacute" unicode="&#xd3;" horiz-adv-x="1604"
d="M673 1504l-10 17l345 311l8 -2l43 -134zM425 63.5q-162 90.5 -250.5 258.5t-88.5 396q0 217 91.5 383.5t257 258t380.5 91.5q214 0 373 -90.5t244.5 -255.5t85.5 -382q0 -232 -88 -401t-250 -259t-378 -90q-215 0 -377 90.5zM1181.5 175q118.5 171 118.5 485
q0 234 -67.5 406t-187 263t-273.5 91q-151 0 -256 -79.5t-159 -228.5t-54 -355q0 -236 67 -406t186.5 -258.5t274.5 -88.5q232 0 350.5 171z" />
    <glyph glyph-name="Ocircumflex" unicode="&#xd4;" horiz-adv-x="1604"
d="M519 1517l-11 13l294 286l293 -286l-9 -13l-284 135zM1188 1360.5q159 -90.5 244.5 -255.5t85.5 -382q0 -232 -88 -401t-250 -259t-378 -90q-215 0 -377 90.5t-250.5 258.5t-88.5 396q0 217 91.5 383.5t257 258t380.5 91.5q214 0 373 -90.5zM1181.5 175
q118.5 171 118.5 485q0 234 -67.5 406t-187 263t-273.5 91q-151 0 -256 -79.5t-159 -228.5t-54 -355q0 -236 67 -406t186.5 -258.5t274.5 -88.5q232 0 350.5 171z" />
    <glyph glyph-name="Otilde" unicode="&#xd5;" horiz-adv-x="1604"
d="M867 1571q-30 8 -70 23q-44 17 -78.5 25.5t-76.5 8.5q-116 0 -139 -77l-14 5q13 95 65.5 142.5t132.5 47.5q35 0 64.5 -8t74.5 -24q47 -17 79 -25t70 -8q55 0 85.5 20.5t39.5 53.5l14 -5q-7 -97 -57 -142t-124 -45q-36 0 -66 8zM425 63.5q-162 90.5 -250.5 258.5
t-88.5 396q0 217 91.5 383.5t257 258t380.5 91.5q214 0 373 -90.5t244.5 -255.5t85.5 -382q0 -232 -88 -401t-250 -259t-378 -90q-215 0 -377 90.5zM1181.5 175q118.5 171 118.5 485q0 234 -67.5 406t-187 263t-273.5 91q-151 0 -256 -79.5t-159 -228.5t-54 -355
q0 -236 67 -406t186.5 -258.5t274.5 -88.5q232 0 350.5 171z" />
    <glyph glyph-name="Odieresis" unicode="&#xd6;" horiz-adv-x="1604"
d="M521 1602q-26 27 -26 74q0 49 27.5 78t80.5 29q46 0 71.5 -28t25.5 -76t-27.5 -76t-80.5 -28q-45 0 -71 27zM927.5 1602q-25.5 27 -25.5 74q0 50 27.5 78.5t80.5 28.5q46 0 71.5 -28t25.5 -76t-27.5 -76t-80.5 -28q-46 0 -71.5 27zM425 63.5q-162 90.5 -250.5 258.5
t-88.5 396q0 217 91.5 383.5t257 258t380.5 91.5q214 0 373 -90.5t244.5 -255.5t85.5 -382q0 -232 -88 -401t-250 -259t-378 -90q-215 0 -377 90.5zM1181.5 175q118.5 171 118.5 485q0 234 -67.5 406t-187 263t-273.5 91q-151 0 -256 -79.5t-159 -228.5t-54 -355
q0 -236 67 -406t186.5 -258.5t274.5 -88.5q232 0 350.5 171z" />
    <glyph glyph-name="multiply" unicode="&#xd7;"
d="M562 686l292 -292l-32 -33l-292 292l-293 -293l-33 33l293 293l-293 293l33 32l293 -292l292 293l33 -33z" />
    <glyph glyph-name="Ugrave" unicode="&#xd9;" horiz-adv-x="1435"
d="M597 1830l8 2l345 -311l-10 -17l-386 192zM1408 1417q-56 0 -87.5 -25.5t-45 -86t-13.5 -170.5v-626q0 -532 -532 -532q-270 0 -411.5 129t-141.5 382v769q0 63 -13.5 97t-45 48.5t-90.5 14.5v17h484v-17q-56 0 -86.5 -12.5t-43.5 -44.5t-13 -92v-757q0 -168 39.5 -272.5
t128 -155t236.5 -50.5q237 0 351 123.5t114 371.5v596q0 114 -15 176.5t-50 89.5t-99 27v17h334v-17z" />
    <glyph glyph-name="Uacute" unicode="&#xda;" horiz-adv-x="1435"
d="M667 1504l-10 17l345 311l8 -2l43 -134zM1408 1417q-56 0 -87.5 -25.5t-45 -86t-13.5 -170.5v-626q0 -532 -532 -532q-270 0 -411.5 129t-141.5 382v769q0 63 -13.5 97t-45 48.5t-90.5 14.5v17h484v-17q-56 0 -86.5 -12.5t-43.5 -44.5t-13 -92v-757q0 -168 39.5 -272.5
t128 -155t236.5 -50.5q237 0 351 123.5t114 371.5v596q0 114 -15 176.5t-50 89.5t-99 27v17h334v-17z" />
    <glyph glyph-name="Ucircumflex" unicode="&#xdb;" horiz-adv-x="1435"
d="M513 1517l-11 13l294 286l293 -286l-9 -13l-284 135zM1408 1434v-17q-56 0 -87.5 -25.5t-45 -86t-13.5 -170.5v-626q0 -532 -532 -532q-270 0 -411.5 129t-141.5 382v769q0 63 -13.5 97t-45 48.5t-90.5 14.5v17h484v-17q-56 0 -86.5 -12.5t-43.5 -44.5t-13 -92v-757
q0 -168 39.5 -272.5t128 -155t236.5 -50.5q237 0 351 123.5t114 371.5v596q0 114 -15 176.5t-50 89.5t-99 27v17h334z" />
    <glyph glyph-name="Udieresis" unicode="&#xdc;" horiz-adv-x="1435"
d="M516 1602q-26 27 -26 74q0 49 27.5 78t80.5 29q46 0 71.5 -28t25.5 -76t-27.5 -76t-80.5 -28q-45 0 -71 27zM922.5 1602q-25.5 27 -25.5 74q0 50 27.5 78.5t80.5 28.5q46 0 71.5 -28t25.5 -76t-27.5 -76t-80.5 -28q-46 0 -71.5 27zM1408 1417q-56 0 -87.5 -25.5t-45 -86
t-13.5 -170.5v-626q0 -532 -532 -532q-270 0 -411.5 129t-141.5 382v769q0 63 -13.5 97t-45 48.5t-90.5 14.5v17h484v-17q-56 0 -86.5 -12.5t-43.5 -44.5t-13 -92v-757q0 -168 39.5 -272.5t128 -155t236.5 -50.5q237 0 351 123.5t114 371.5v596q0 114 -15 176.5t-50 89.5
t-99 27v17h334v-17z" />
    <glyph glyph-name="Yacute" unicode="&#xdd;" horiz-adv-x="1284"
d="M589 1504l-10 17l345 311l8 -2l43 -134zM1299 1434v-17q-40 0 -73.5 -23.5t-72.5 -81t-97 -167.5l-295 -548v-427q0 -61 14 -93.5t46.5 -46.5t93.5 -14v-16h-501v16q61 0 93.5 12t47 43t14.5 89v410l-388 707q-31 57 -59 87t-59 41.5t-77 11.5v17h515v-17
q-67 0 -101 -14.5t-34 -48.5q0 -27 24 -72l359 -656l278 516q68 127 68 191q0 44 -31.5 64t-92.5 20v17h328z" />
    <glyph glyph-name="agrave" unicode="&#xe0;" horiz-adv-x="1043"
d="M674 1141l-400 191l61 148l8 1l342 -325zM1021 82q-42 -49 -84 -72t-87 -23q-74 0 -114 40t-40 117v48q-42 -99 -127.5 -154t-207.5 -55q-135 0 -209.5 61.5t-74.5 178.5q0 160 160.5 239.5t458.5 88.5v29q0 213 -56.5 316t-180.5 103q-69 0 -106.5 -35.5t-37.5 -85.5
q0 -26 10.5 -50.5t29.5 -43.5q-10 -33 -41.5 -54t-73.5 -21q-48 0 -75.5 25.5t-27.5 69.5q0 62 49.5 111.5t133.5 77.5t182 28q122 0 204 -40.5t126 -136.5t44 -260v-418q0 -57 14.5 -79.5t47.5 -22.5q42 0 74 27zM638 142.5q58 86.5 58 250.5v101q-102 17 -172 17
q-140 0 -202 -57.5t-62 -168.5q0 -107 53.5 -168t148.5 -61q118 0 176 86.5z" />
    <glyph glyph-name="aacute" unicode="&#xe1;" horiz-adv-x="1043"
d="M369 1141l-11 15l341 325l8 -1l62 -148zM1021 82q-42 -49 -84 -72t-87 -23q-74 0 -114 40t-40 117v48q-42 -99 -127.5 -154t-207.5 -55q-135 0 -209.5 61.5t-74.5 178.5q0 160 160.5 239.5t458.5 88.5v29q0 213 -56.5 316t-180.5 103q-69 0 -106.5 -35.5t-37.5 -85.5
q0 -26 10.5 -50.5t29.5 -43.5q-10 -33 -41.5 -54t-73.5 -21q-48 0 -75.5 25.5t-27.5 69.5q0 62 49.5 111.5t133.5 77.5t182 28q122 0 204 -40.5t126 -136.5t44 -260v-418q0 -57 14.5 -79.5t47.5 -22.5q42 0 74 27zM638 142.5q58 86.5 58 250.5v101q-102 17 -172 17
q-140 0 -202 -57.5t-62 -168.5q0 -107 53.5 -168t148.5 -61q118 0 176 86.5z" />
    <glyph glyph-name="acircumflex" unicode="&#xe2;" horiz-adv-x="1043"
d="M223 1168l-11 13l294 286l293 -286l-9 -13l-284 135zM1021 82q-42 -49 -84 -72t-87 -23q-74 0 -114 40t-40 117v48q-42 -99 -127.5 -154t-207.5 -55q-135 0 -209.5 61.5t-74.5 178.5q0 160 160.5 239.5t458.5 88.5v29q0 213 -56.5 316t-180.5 103q-69 0 -106.5 -35.5
t-37.5 -85.5q0 -26 10.5 -50.5t29.5 -43.5q-10 -33 -41.5 -54t-73.5 -21q-48 0 -75.5 25.5t-27.5 69.5q0 62 49.5 111.5t133.5 77.5t182 28q122 0 204 -40.5t126 -136.5t44 -260v-418q0 -57 14.5 -79.5t47.5 -22.5q42 0 74 27zM638 142.5q58 86.5 58 250.5v101
q-102 17 -172 17q-140 0 -202 -57.5t-62 -168.5q0 -107 53.5 -168t148.5 -61q118 0 176 86.5z" />
    <glyph glyph-name="atilde" unicode="&#xe3;" horiz-adv-x="1043"
d="M243.5 1259.5q-34.5 -21.5 -44.5 -58.5l-14 5q14 101 66 151.5t135 50.5q38 0 69.5 -9t75.5 -26q46 -18 79 -27t73 -9q57 0 86.5 21.5t38.5 54.5l15 -5q-8 -102 -57.5 -150t-125.5 -48q-38 0 -68 8.5t-75 25.5q-48 19 -81.5 28t-77.5 9q-60 0 -94.5 -21.5zM1021 82
q-42 -49 -84 -72t-87 -23q-74 0 -114 40t-40 117v48q-42 -99 -127.5 -154t-207.5 -55q-135 0 -209.5 61.5t-74.5 178.5q0 160 160.5 239.5t458.5 88.5v29q0 213 -56.5 316t-180.5 103q-69 0 -106.5 -35.5t-37.5 -85.5q0 -26 10.5 -50.5t29.5 -43.5q-10 -33 -41.5 -54
t-73.5 -21q-48 0 -75.5 25.5t-27.5 69.5q0 62 49.5 111.5t133.5 77.5t182 28q122 0 204 -40.5t126 -136.5t44 -260v-418q0 -57 14.5 -79.5t47.5 -22.5q42 0 74 27zM638 142.5q58 86.5 58 250.5v101q-102 17 -172 17q-140 0 -202 -57.5t-62 -168.5q0 -107 53.5 -168
t148.5 -61q118 0 176 86.5z" />
    <glyph glyph-name="adieresis" unicode="&#xe4;" horiz-adv-x="1043"
d="M226 1249q-26 27 -26 74q0 49 28 78t81 29q46 0 71 -27.5t25 -76.5q0 -48 -27 -76t-80 -28q-46 0 -72 27zM630.5 1249q-25.5 27 -25.5 74q0 49 27.5 78t80.5 29q46 0 71.5 -28t25.5 -76t-27.5 -76t-80.5 -28q-46 0 -71.5 27zM1021 82q-42 -49 -84 -72t-87 -23
q-74 0 -114 40t-40 117v48q-42 -99 -127.5 -154t-207.5 -55q-135 0 -209.5 61.5t-74.5 178.5q0 160 160.5 239.5t458.5 88.5v29q0 213 -56.5 316t-180.5 103q-69 0 -106.5 -35.5t-37.5 -85.5q0 -26 10.5 -50.5t29.5 -43.5q-10 -33 -41.5 -54t-73.5 -21q-48 0 -75.5 25.5
t-27.5 69.5q0 62 49.5 111.5t133.5 77.5t182 28q122 0 204 -40.5t126 -136.5t44 -260v-418q0 -57 14.5 -79.5t47.5 -22.5q42 0 74 27zM638 142.5q58 86.5 58 250.5v101q-102 17 -172 17q-140 0 -202 -57.5t-62 -168.5q0 -107 53.5 -168t148.5 -61q118 0 176 86.5z" />
    <glyph glyph-name="ae" unicode="&#xe6;" horiz-adv-x="1625"
d="M1556 205q-87 -116 -185.5 -169t-221.5 -53q-142 0 -244 63t-155 177q-49 -112 -149.5 -174t-233.5 -62q-139 0 -214.5 60.5t-75.5 175.5q0 160 160.5 239.5t458.5 88.5v29q0 211 -56.5 312.5t-180.5 101.5q-69 0 -106.5 -34.5t-37.5 -83.5q0 -25 10.5 -49t29.5 -43
q-10 -33 -41.5 -54t-73.5 -21q-48 0 -75.5 25.5t-27.5 69.5q0 60 49.5 108.5t133.5 76t182 27.5q223 0 299 -187q64 90 164 140t226 50q100 0 177 -29t120.5 -86.5t43.5 -139.5q0 -85 -63.5 -148t-182 -97t-280.5 -34q-53 0 -128 5q17 -196 114 -296.5t264 -100.5
q88 0 156.5 30t133.5 92zM945.5 883.5q-70.5 -107.5 -70.5 -309.5v-29q125 -27 211 -27q149 0 210.5 67t61.5 180q0 68 -27.5 119t-76.5 79t-112 28q-126 0 -196.5 -107.5zM639 139q57 90 57 274v81q-102 17 -172 17q-140 0 -202 -57.5t-62 -168.5t53.5 -173.5t148.5 -62.5
q120 0 177 90z" />
    <glyph glyph-name="ccedilla" unicode="&#xe7;" horiz-adv-x="982"
d="M773.5 51q-95.5 -60 -207.5 -67l-53 -114q43 8 73 8q85 0 127 -42.5t42 -103.5q0 -55 -23.5 -94t-63.5 -59.5t-87 -20.5q-54 0 -103.5 25.5t-88.5 68.5l9 11q66 -50 128 -50q45 0 72.5 33t27.5 90q0 60 -32.5 87t-98.5 27q-21 0 -33 -1l-10 14l88 120h-3
q-138 0 -239 62.5t-154.5 175t-53.5 260.5q0 159 62 281t175.5 189.5t264.5 67.5q90 0 157 -25t102 -67.5t35 -93.5q0 -48 -29.5 -77t-77.5 -29q-36 0 -64.5 18t-42.5 46q38 46 38 96q0 47 -36.5 78t-106.5 31q-88 0 -156 -45.5t-106.5 -139.5t-38.5 -236q0 -229 94.5 -353
t271.5 -124q77 0 153.5 27.5t141.5 86.5l9 -9q-67 -92 -162.5 -152z" />
    <glyph glyph-name="egrave" unicode="&#xe8;" horiz-adv-x="1017"
d="M714 1141l-400 191l61 148l8 1l342 -325zM947 205q-86 -115 -184.5 -168.5t-221.5 -53.5q-142 0 -243.5 62.5t-154.5 175t-53 258.5q0 156 60 279t171 192t261 69q100 0 177 -29t120.5 -86.5t43.5 -139.5q0 -85 -63.5 -148t-182 -97t-279.5 -34q-55 0 -128 5
q17 -196 113.5 -296.5t263.5 -100.5q88 0 157 30t133 92zM336.5 883.5q-70.5 -107.5 -70.5 -309.5q0 -19 1 -29q120 -26 210 -26q149 0 210.5 66.5t61.5 179.5q0 68 -27.5 119t-76.5 79t-112 28q-126 0 -196.5 -107.5z" />
    <glyph glyph-name="eacute" unicode="&#xe9;" horiz-adv-x="1017"
d="M408 1141l-11 15l341 325l8 -1l62 -148zM947 205q-86 -115 -184.5 -168.5t-221.5 -53.5q-142 0 -243.5 62.5t-154.5 175t-53 258.5q0 156 60 279t171 192t261 69q100 0 177 -29t120.5 -86.5t43.5 -139.5q0 -85 -63.5 -148t-182 -97t-279.5 -34q-55 0 -128 5
q17 -196 113.5 -296.5t263.5 -100.5q88 0 157 30t133 92zM336.5 883.5q-70.5 -107.5 -70.5 -309.5q0 -19 1 -29q120 -26 210 -26q149 0 210.5 66.5t61.5 179.5q0 68 -27.5 119t-76.5 79t-112 28q-126 0 -196.5 -107.5z" />
    <glyph glyph-name="ecircumflex" unicode="&#xea;" horiz-adv-x="1017"
d="M263 1168l-11 13l294 286l293 -286l-9 -13l-284 135zM947 205q-86 -115 -184.5 -168.5t-221.5 -53.5q-142 0 -243.5 62.5t-154.5 175t-53 258.5q0 156 60 279t171 192t261 69q100 0 177 -29t120.5 -86.5t43.5 -139.5q0 -85 -63.5 -148t-182 -97t-279.5 -34q-55 0 -128 5
q17 -196 113.5 -296.5t263.5 -100.5q88 0 157 30t133 92zM336.5 883.5q-70.5 -107.5 -70.5 -309.5q0 -19 1 -29q120 -26 210 -26q149 0 210.5 66.5t61.5 179.5q0 68 -27.5 119t-76.5 79t-112 28q-126 0 -196.5 -107.5z" />
    <glyph glyph-name="edieresis" unicode="&#xeb;" horiz-adv-x="1017"
d="M266 1249q-26 27 -26 74q0 49 28 78t81 29q46 0 71 -27.5t25 -76.5q0 -48 -27 -76t-80 -28q-46 0 -72 27zM670.5 1249q-25.5 27 -25.5 74q0 49 27.5 78t80.5 29q46 0 71.5 -28t25.5 -76t-27.5 -76t-80.5 -28q-46 0 -71.5 27zM947 205q-86 -115 -184.5 -168.5
t-221.5 -53.5q-142 0 -243.5 62.5t-154.5 175t-53 258.5q0 156 60 279t171 192t261 69q100 0 177 -29t120.5 -86.5t43.5 -139.5q0 -85 -63.5 -148t-182 -97t-279.5 -34q-55 0 -128 5q17 -196 113.5 -296.5t263.5 -100.5q88 0 157 30t133 92zM336.5 883.5
q-70.5 -107.5 -70.5 -309.5q0 -19 1 -29q120 -26 210 -26q149 0 210.5 66.5t61.5 179.5q0 68 -27.5 119t-76.5 79t-112 28q-126 0 -196.5 -107.5z" />
    <glyph glyph-name="igrave" unicode="&#xec;" horiz-adv-x="605"
d="M440 1156l-12 -13l-334 238v9l116 82zM228 606q0 126 -6 189t-24 90.5t-56 27.5q-21 0 -61 -10l-5 15l324 105l8 -8v-839q0 -63 13.5 -97t45 -48.5t90.5 -14.5v-16h-473v16q56 0 86.5 12.5t44 44.5t13.5 93v440z" />
    <glyph glyph-name="iacute" unicode="&#xed;" horiz-adv-x="605"
d="M246 1105l-15 10l191 384l8 2l94 -128zM228 606q0 126 -6 189t-24 90.5t-56 27.5q-21 0 -61 -10l-5 15l324 105l8 -8v-839q0 -63 13.5 -97t45 -48.5t90.5 -14.5v-16h-473v16q56 0 86.5 12.5t44 44.5t13.5 93v440z" />
    <glyph glyph-name="icircumflex" unicode="&#xee;" horiz-adv-x="605"
d="M92 1156l-12 11l232 288l233 -287l-13 -12l-220 127zM421.5 79q13.5 -34 45 -48.5t90.5 -14.5v-16h-473v16q56 0 86.5 12.5t44 44.5t13.5 93v440q0 126 -6 189t-24 90.5t-56 27.5q-21 0 -61 -10l-5 15l324 105l8 -8v-839q0 -63 13.5 -97z" />
    <glyph glyph-name="idieresis" unicode="&#xef;" horiz-adv-x="605"
d="M74.5 1236q-25.5 27 -25.5 74q0 50 27.5 78.5t80.5 28.5q46 0 71.5 -28t25.5 -76t-27.5 -76t-80.5 -28q-46 0 -71.5 27zM402.5 1236q-25.5 27 -25.5 74q0 50 27.5 78.5t80.5 28.5q46 0 71.5 -28t25.5 -76t-27.5 -76t-80.5 -28q-46 0 -71.5 27zM228 606q0 126 -6 189
t-24 90.5t-56 27.5q-21 0 -61 -10l-5 15l324 105l8 -8v-839q0 -63 13.5 -97t45 -48.5t90.5 -14.5v-16h-473v16q56 0 86.5 12.5t44 44.5t13.5 93v440z" />
    <glyph glyph-name="ntilde" unicode="&#xf1;" horiz-adv-x="1277"
d="M402.5 1259.5q-34.5 -21.5 -44.5 -58.5l-14 5q14 101 66 151.5t135 50.5q38 0 69.5 -9t75.5 -26q46 -18 79 -27t73 -9q57 0 86.5 21.5t38.5 54.5l15 -5q-8 -102 -57.5 -150t-125.5 -48q-38 0 -68 8.5t-75 25.5q-48 19 -81.5 28t-77.5 9q-60 0 -94.5 -21.5zM1103.5 79
q13.5 -34 45 -48.5t90.5 -14.5v-16h-469v16q55 0 84.5 12.5t42.5 44.5t13 93v420q0 128 -21 201.5t-66 105.5t-122 32q-150 0 -232 -119t-82 -357v-273q0 -63 13 -97t44 -48.5t88 -14.5v-16h-468v16q56 0 86.5 12.5t43.5 44.5t13 93v438q0 127 -6 189.5t-24.5 90.5t-56.5 28
q-25 0 -60 -9l-5 15l324 105l8 -8v-353q31 115 92 195t144 121t180 41q145 0 216 -91.5t71 -280.5v-471q0 -63 13.5 -97z" />
    <glyph glyph-name="ograve" unicode="&#xf2;" horiz-adv-x="1196"
d="M370 1332l61 148l8 1l342 -325l-11 -15zM314.5 44q-108.5 61 -166.5 172t-58 257q0 163 68 287t190 192.5t277 68.5q152 0 260.5 -65t164.5 -178.5t56 -257.5q0 -160 -69 -282t-190.5 -188.5t-275.5 -66.5q-148 0 -256.5 61zM835.5 124.5q71.5 108.5 71.5 317.5
q0 160 -41 282.5t-117.5 191t-180.5 68.5q-143 0 -211 -103t-68 -327q0 -158 42 -280t120 -190t182 -68q131 0 202.5 108.5z" />
    <glyph glyph-name="oacute" unicode="&#xf3;" horiz-adv-x="1196"
d="M453 1156l341 325l8 -1l62 -148l-400 -191zM314.5 44q-108.5 61 -166.5 172t-58 257q0 163 68 287t190 192.5t277 68.5q152 0 260.5 -65t164.5 -178.5t56 -257.5q0 -160 -69 -282t-190.5 -188.5t-275.5 -66.5q-148 0 -256.5 61zM835.5 124.5q71.5 108.5 71.5 317.5
q0 160 -41 282.5t-117.5 191t-180.5 68.5q-143 0 -211 -103t-68 -327q0 -158 42 -280t120 -190t182 -68q131 0 202.5 108.5z" />
    <glyph glyph-name="ocircumflex" unicode="&#xf4;" horiz-adv-x="1196"
d="M319 1168l-11 13l294 286l293 -286l-9 -13l-284 135zM885.5 956q108.5 -65 164.5 -178.5t56 -257.5q0 -160 -69 -282t-190.5 -188.5t-275.5 -66.5q-148 0 -256.5 61t-166.5 172t-58 257q0 163 68 287t190 192.5t277 68.5q152 0 260.5 -65zM835.5 124.5
q71.5 108.5 71.5 317.5q0 160 -41 282.5t-117.5 191t-180.5 68.5q-143 0 -211 -103t-68 -327q0 -158 42 -280t120 -190t182 -68q131 0 202.5 108.5z" />
    <glyph glyph-name="otilde" unicode="&#xf5;" horiz-adv-x="1196"
d="M667 1218.5q-30 8.5 -75 25.5q-48 19 -81.5 28t-77.5 9q-60 0 -94.5 -21.5t-44.5 -58.5l-14 5q14 101 66 151.5t135 50.5q38 0 69.5 -9t75.5 -26q46 -18 79 -27t73 -9q57 0 86.5 21.5t38.5 54.5l15 -5q-8 -102 -57.5 -150t-125.5 -48q-38 0 -68 8.5zM314.5 44
q-108.5 61 -166.5 172t-58 257q0 163 68 287t190 192.5t277 68.5q152 0 260.5 -65t164.5 -178.5t56 -257.5q0 -160 -69 -282t-190.5 -188.5t-275.5 -66.5q-148 0 -256.5 61zM835.5 124.5q71.5 108.5 71.5 317.5q0 160 -41 282.5t-117.5 191t-180.5 68.5q-143 0 -211 -103
t-68 -327q0 -158 42 -280t120 -190t182 -68q131 0 202.5 108.5z" />
    <glyph glyph-name="odieresis" unicode="&#xf6;" horiz-adv-x="1196"
d="M322 1249q-26 27 -26 74q0 49 28 78t81 29q46 0 71 -27.5t25 -76.5q0 -48 -27 -76t-80 -28q-46 0 -72 27zM726.5 1249q-25.5 27 -25.5 74q0 49 27.5 78t80.5 29q46 0 71.5 -28t25.5 -76t-27.5 -76t-80.5 -28q-46 0 -71.5 27zM314.5 44q-108.5 61 -166.5 172t-58 257
q0 163 68 287t190 192.5t277 68.5q152 0 260.5 -65t164.5 -178.5t56 -257.5q0 -160 -69 -282t-190.5 -188.5t-275.5 -66.5q-148 0 -256.5 61zM835.5 124.5q71.5 108.5 71.5 317.5q0 160 -41 282.5t-117.5 191t-180.5 68.5q-143 0 -211 -103t-68 -327q0 -158 42 -280
t120 -190t182 -68q131 0 202.5 108.5z" />
    <glyph glyph-name="divide" unicode="&#xf7;"
d="M476.5 922q-19.5 20 -19.5 52q0 34 20 53.5t54 19.5q32 0 51.5 -19.5t19.5 -53.5q0 -33 -20 -52.5t-54 -19.5q-32 0 -51.5 20zM928 749v-46h-797v46h797zM476.5 423.5q-19.5 19.5 -19.5 52.5t20 53t54 20q32 0 51.5 -20.5t19.5 -52.5q0 -33 -20 -52.5t-54 -19.5
q-32 0 -51.5 19.5z" />
    <glyph glyph-name="ugrave" unicode="&#xf9;" horiz-adv-x="1226"
d="M780 1141l-400 191l61 148l8 1l342 -325zM1058 79q12 -34 40.5 -48.5t81.5 -14.5v-16h-160q-72 0 -142 -5l-8 7l-4 350q-30 -114 -88 -197t-138 -127.5t-172 -44.5q-153 0 -225.5 87.5t-72.5 270.5v309q0 103 -7 158t-24.5 78.5t-50.5 23.5q-23 0 -55 -9l-5 15l314 104
l8 -7v-611q0 -123 20.5 -194t65 -102.5t119.5 -31.5q99 0 168.5 57.5t106 167t36.5 262.5v46q0 121 -6.5 183t-25 89t-55.5 27q-22 0 -60 -10l-5 15l324 109l8 -7v-837q0 -63 12 -97z" />
    <glyph glyph-name="uacute" unicode="&#xfa;" horiz-adv-x="1226"
d="M474 1141l-11 15l341 325l8 -1l62 -148zM1058 79q12 -34 40.5 -48.5t81.5 -14.5v-16h-160q-72 0 -142 -5l-8 7l-4 350q-30 -114 -88 -197t-138 -127.5t-172 -44.5q-153 0 -225.5 87.5t-72.5 270.5v309q0 103 -7 158t-24.5 78.5t-50.5 23.5q-23 0 -55 -9l-5 15l314 104
l8 -7v-611q0 -123 20.5 -194t65 -102.5t119.5 -31.5q99 0 168.5 57.5t106 167t36.5 262.5v46q0 121 -6.5 183t-25 89t-55.5 27q-22 0 -60 -10l-5 15l324 109l8 -7v-837q0 -63 12 -97z" />
    <glyph glyph-name="ucircumflex" unicode="&#xfb;" horiz-adv-x="1226"
d="M329 1168l-11 13l294 286l293 -286l-9 -13l-284 135zM1058 79q12 -34 40.5 -48.5t81.5 -14.5v-16h-160q-72 0 -142 -5l-8 7l-4 350q-30 -114 -88 -197t-138 -127.5t-172 -44.5q-153 0 -225.5 87.5t-72.5 270.5v309q0 103 -7 158t-24.5 78.5t-50.5 23.5q-23 0 -55 -9
l-5 15l314 104l8 -7v-611q0 -123 20.5 -194t65 -102.5t119.5 -31.5q99 0 168.5 57.5t106 167t36.5 262.5v46q0 121 -6.5 183t-25 89t-55.5 27q-22 0 -60 -10l-5 15l324 109l8 -7v-837q0 -63 12 -97z" />
    <glyph glyph-name="udieresis" unicode="&#xfc;" horiz-adv-x="1226"
d="M332 1249q-26 27 -26 74q0 49 28 78t81 29q46 0 71 -27.5t25 -76.5q0 -48 -27 -76t-80 -28q-46 0 -72 27zM736.5 1249q-25.5 27 -25.5 74q0 49 27.5 78t80.5 29q46 0 71.5 -28t25.5 -76t-27.5 -76t-80.5 -28q-46 0 -71.5 27zM1058 79q12 -34 40.5 -48.5t81.5 -14.5v-16
h-160q-72 0 -142 -5l-8 7l-4 350q-30 -114 -88 -197t-138 -127.5t-172 -44.5q-153 0 -225.5 87.5t-72.5 270.5v309q0 103 -7 158t-24.5 78.5t-50.5 23.5q-23 0 -55 -9l-5 15l314 104l8 -7v-611q0 -123 20.5 -194t65 -102.5t119.5 -31.5q99 0 168.5 57.5t106 167t36.5 262.5
v46q0 121 -6.5 183t-25 89t-55.5 27q-22 0 -60 -10l-5 15l324 109l8 -7v-837q0 -63 12 -97z" />
    <glyph glyph-name="yacute" unicode="&#xfd;" horiz-adv-x="1094"
d="M476 1141l-11 15l341 325l8 -1l62 -148zM1099 1004v-17q-44 0 -74 -21.5t-62 -78t-84 -176.5l-327 -761q-62 -144 -117.5 -229.5t-111.5 -123.5t-119 -38q-56 0 -102.5 22.5t-74 62.5t-27.5 89q0 53 29.5 83.5t75.5 30.5q35 0 62.5 -19t37.5 -42q-18 -15 -29 -42.5
t-11 -56.5q0 -36 19.5 -60.5t58.5 -24.5q67 0 132.5 77.5t135.5 241.5l34 78l-317 713q-53 117 -86.5 174t-66.5 79t-80 22v17h519v-17q-78 0 -116 -21.5t-38 -75.5q0 -58 47 -165l227 -519l218 507q44 103 44 162t-41.5 85.5t-128.5 26.5v17h373z" />
    <glyph glyph-name="Abreve" unicode="&#x102;" horiz-adv-x="1413"
d="M448 1826l17 8q22 -70 81 -100.5t166 -30.5q93 0 147.5 30t75.5 100l16 -7q-7 -130 -73 -191.5t-177 -61.5q-235 0 -253 253zM1289.5 84q24.5 -38 55.5 -53t82 -15v-16h-536v16q87 0 124.5 16.5t37.5 60.5q0 37 -24 98l-103 274h-628l-74 -189q-40 -102 -40 -157
t38.5 -79t124.5 -24v-16h-361v16q61 0 109.5 59.5t99.5 190.5l456 1168h113l472 -1236q29 -76 53.5 -114zM917 488l-298 794l-312 -794h610z" />
    <glyph glyph-name="abreve" unicode="&#x103;" horiz-adv-x="1043"
d="M253 1436l16 9q22 -70 81.5 -100.5t166.5 -30.5q93 0 148 30t77 100l14 -7q-7 -130 -73 -191.5t-177 -61.5q-235 0 -253 252zM1021 82q-42 -49 -84 -72t-87 -23q-74 0 -114 40t-40 117v48q-42 -99 -127.5 -154t-207.5 -55q-135 0 -209.5 61.5t-74.5 178.5
q0 160 160.5 239.5t458.5 88.5v29q0 213 -56.5 316t-180.5 103q-69 0 -106.5 -35.5t-37.5 -85.5q0 -26 10.5 -50.5t29.5 -43.5q-10 -33 -41.5 -54t-73.5 -21q-48 0 -75.5 25.5t-27.5 69.5q0 62 49.5 111.5t133.5 77.5t182 28q122 0 204 -40.5t126 -136.5t44 -260v-418
q0 -57 14.5 -79.5t47.5 -22.5q42 0 74 27zM638 142.5q58 86.5 58 250.5v101q-102 17 -172 17q-140 0 -202 -57.5t-62 -168.5q0 -107 53.5 -168t148.5 -61q118 0 176 86.5z" />
    <glyph glyph-name="Aogonek" unicode="&#x104;" horiz-adv-x="1419"
d="M975.5 -133q-43.5 -67 -43.5 -128q0 -48 25.5 -73.5t68.5 -25.5q28 0 57 12t54 35l7 -7q-73 -118 -197 -118q-68 0 -111.5 34.5t-43.5 101.5q0 86 77 161.5t238 146.5l-170 459h-637l-77 -193q-38 -96 -38 -151q0 -56 40 -80.5t126 -24.5v-16h-362v16q40 0 73.5 25t66 80
t68.5 149l459 1167l105 10l491 -1283q21 -55 41.5 -86t53 -46.5t84.5 -15.5v-16h-316q-96 -66 -139.5 -133zM929 488l-299 810l-321 -810h620z" />
    <glyph glyph-name="aogonek" unicode="&#x105;" horiz-adv-x="1043"
d="M1026 -320q-35 -56 -85 -87t-108 -31q-70 0 -114.5 33t-44.5 103q0 55 34.5 107t83.5 95t125 101q-34 -14 -67 -14q-74 0 -114 40t-40 117v48q-42 -99 -127.5 -154t-207.5 -55q-135 0 -209.5 61.5t-74.5 178.5q0 160 160.5 239.5t458.5 88.5v29q0 213 -56.5 316
t-180.5 103q-69 0 -106.5 -35.5t-37.5 -85.5q0 -26 10.5 -50.5t29.5 -43.5q-10 -33 -41.5 -54t-73.5 -21q-48 0 -75.5 25.5t-27.5 69.5q0 62 49.5 111.5t133.5 77.5t182 28q122 0 204 -40.5t126 -136.5t44 -260v-418q0 -57 14.5 -79.5t47.5 -22.5q42 0 74 27l9 -9
q-1 0 -1 -0.5v-0.5l1 1l-18 -21q-66 -77 -103.5 -125.5t-61.5 -99.5t-24 -99t26 -72.5t68 -24.5q57 0 111 47zM638 142.5q58 86.5 58 250.5v101q-102 17 -172 17q-140 0 -202 -57.5t-62 -168.5q0 -107 53.5 -168t148.5 -61q118 0 176 86.5z" />
    <glyph glyph-name="Cacute" unicode="&#x106;" horiz-adv-x="1283"
d="M645 1504l-10 17l345 311l8 -2l43 -134zM390 70.5q-142 86.5 -223 247.5t-81 376q0 211 86.5 383.5t249 273t381.5 100.5q120 0 215 -34.5t149 -95t54 -136.5q0 -57 -35 -89.5t-83 -32.5q-31 0 -58.5 15.5t-41.5 44.5q17 17 26 42.5t9 55.5q0 56 -33 101.5t-94.5 72
t-142.5 26.5q-147 0 -256 -72t-169 -213t-60 -343q0 -224 63 -376.5t181 -229t284 -76.5q113 0 211 41.5t209 141.5l12 -12q-108 -143 -238.5 -220.5t-295.5 -77.5q-177 0 -319 86.5z" />
    <glyph glyph-name="cacute" unicode="&#x107;" horiz-adv-x="982"
d="M409 1156l341 325l8 -1l62 -148l-400 -191zM749 994q67 -25 102 -67.5t35 -93.5q0 -48 -29.5 -77t-77.5 -29q-36 0 -64.5 18t-42.5 46q38 46 38 96q0 47 -36.5 78t-106.5 31q-88 0 -156 -45.5t-106.5 -139.5t-38.5 -236q0 -229 94.5 -353t271.5 -124q77 0 153.5 27.5
t141.5 86.5l9 -9q-71 -98 -174.5 -159t-224.5 -61q-138 0 -239 62.5t-154.5 175t-53.5 260.5q0 159 62 281t175.5 189.5t264.5 67.5q90 0 157 -25z" />
    <glyph glyph-name="Ccaron" unicode="&#x10c;" horiz-adv-x="1283"
d="M773 1535l-275 229l11 14l264 -100l264 100l12 -14zM1243 282q-108 -143 -238.5 -220.5t-295.5 -77.5q-177 0 -319 86.5t-223 247.5t-81 376q0 211 86.5 383.5t249 273t381.5 100.5q120 0 215 -34.5t149 -95t54 -136.5q0 -57 -35 -89.5t-83 -32.5q-31 0 -58.5 15.5
t-41.5 44.5q17 17 26 42.5t9 55.5q0 56 -33 101.5t-94.5 72t-142.5 26.5q-147 0 -256 -72t-169 -213t-60 -343q0 -224 63 -376.5t181 -229t284 -76.5q113 0 211 41.5t209 141.5z" />
    <glyph glyph-name="ccaron" unicode="&#x10d;" horiz-adv-x="982"
d="M556 1167l-276 293l10 12l266 -145l265 145l11 -12zM936 203q-71 -98 -174.5 -159t-224.5 -61q-138 0 -239 62.5t-154.5 175t-53.5 260.5q0 159 62 281t175.5 189.5t264.5 67.5q90 0 157 -25t102 -67.5t35 -93.5q0 -48 -29.5 -77t-77.5 -29q-36 0 -64.5 18t-42.5 46
q38 46 38 96q0 47 -36.5 78t-106.5 31q-88 0 -156 -45.5t-106.5 -139.5t-38.5 -236q0 -229 94.5 -353t271.5 -124q77 0 153.5 27.5t141.5 86.5z" />
    <glyph glyph-name="Dcaron" unicode="&#x10e;" horiz-adv-x="1444"
d="M678 1535l-275 229l11 14l264 -100l264 100l12 -14zM1348 720q0 -411 -219 -569t-533 -158q-119 0 -255 4q-75 3 -139 3h-148v16q56 0 86.5 12.5t43.5 44.5t13 93v1091q0 63 -13.5 97t-45 48.5t-90.5 14.5v17h128q56 0 104 1t85 2q146 4 227 4q756 0 756 -721zM1007 184
q136 169 136 522q0 364 -140 538.5t-429 174.5q-74 0 -185 -17v-1247q0 -53 18.5 -82.5t65.5 -43.5t135 -14q263 0 399 169z" />
    <glyph glyph-name="dcaron" unicode="&#x10f;" horiz-adv-x="1212"
d="M1149 1080h-14v411l143 -19l6 -11zM1038.5 79q13.5 -34 45 -48.5t90.5 -14.5v-16h-186q-54 0 -128 -6l-8 7l-6 333q-40 -163 -141 -257t-243 -94q-112 0 -196 58t-130 168.5t-46 261.5q0 168 59 291.5t170.5 190t265.5 66.5q133 0 260 -50v82q0 134 -5 193.5t-25 88.5
t-67 29q-32 0 -73 -10l-5 15l347 110l8 -7v-1294q0 -63 13.5 -97zM710.5 127.5q64.5 50.5 99.5 152t35 249.5v267q-68 101 -141.5 145t-152.5 44q-139 0 -202.5 -103t-63.5 -325q0 -234 68.5 -357t205.5 -123q87 0 151.5 50.5z" />
    <glyph glyph-name="Eogonek" unicode="&#x118;" horiz-adv-x="1074"
d="M622.5 -133q-43.5 -67 -43.5 -128q0 -48 25.5 -73.5t68.5 -25.5q28 0 57 12t54 35l7 -7q-73 -118 -197 -118q-68 0 -111.5 34.5t-43.5 101.5q0 83 73.5 158t226.5 144h-685v16q56 0 86.5 12.5t43.5 44.5t13 93v1091q0 63 -13.5 97t-45 48.5t-90.5 14.5v17h901l3 -346h-16
q-48 138 -88 204t-100 92.5t-169 26.5h-190v-659h163q72 0 110.5 19.5t61 67.5t47.5 149h18v-495h-18q-25 102 -47.5 150t-61 68t-110.5 20h-163v-708h164q121 0 193 29.5t125 104.5t114 226l17 -2l-51 -381h-189q-96 -66 -139.5 -133z" />
    <glyph glyph-name="eogonek" unicode="&#x119;" horiz-adv-x="1017"
d="M875 122q-57 -57 -161 -135q-68 -52 -104.5 -85t-60.5 -74.5t-24 -92.5q0 -46 26.5 -70.5t69.5 -24.5q53 0 109 47l7 -7q-35 -55 -84.5 -86.5t-112.5 -31.5q-68 0 -112.5 33.5t-44.5 98.5q0 57 35 106.5t102.5 97.5t181.5 111q-72 -26 -161 -26q-142 0 -243.5 62.5
t-154.5 175t-53 258.5q0 156 60 279t171 192t261 69q100 0 177 -29t120.5 -86.5t43.5 -139.5q0 -85 -63.5 -148t-182 -97t-279.5 -34q-55 0 -128 5q17 -196 113.5 -296.5t263.5 -100.5q88 0 157 30t133 92l10 -10q-32 -45 -72 -83zM336.5 883.5q-70.5 -107.5 -70.5 -309.5
q0 -19 1 -29q120 -26 210 -26q149 0 210.5 66.5t61.5 179.5q0 68 -27.5 119t-76.5 79t-112 28q-126 0 -196.5 -107.5z" />
    <glyph glyph-name="Ecaron" unicode="&#x11a;" horiz-adv-x="1074"
d="M555 1535l-275 229l11 14l264 -100l264 100l12 -14zM1002 381l-51 -381h-897v16q56 0 86.5 12.5t43.5 44.5t13 93v1091q0 63 -13.5 97t-45 48.5t-90.5 14.5v17h901l3 -346h-16q-48 138 -88 204t-100 92.5t-169 26.5h-190v-659h163q72 0 110.5 19.5t61 67.5t47.5 149h18
v-495h-18q-25 102 -47.5 150t-61 68t-110.5 20h-163v-708h164q121 0 193 29.5t125 104.5t114 226z" />
    <glyph glyph-name="ecaron" unicode="&#x11b;" horiz-adv-x="1017"
d="M545 1167l-276 293l10 12l266 -145l265 145l11 -12zM947 205q-86 -115 -184.5 -168.5t-221.5 -53.5q-142 0 -243.5 62.5t-154.5 175t-53 258.5q0 156 60 279t171 192t261 69q100 0 177 -29t120.5 -86.5t43.5 -139.5q0 -85 -63.5 -148t-182 -97t-279.5 -34q-55 0 -128 5
q17 -196 113.5 -296.5t263.5 -100.5q88 0 157 30t133 92zM336.5 883.5q-70.5 -107.5 -70.5 -309.5q0 -19 1 -29q120 -26 210 -26q149 0 210.5 66.5t61.5 179.5q0 68 -27.5 119t-76.5 79t-112 28q-126 0 -196.5 -107.5z" />
    <glyph glyph-name="Gbreve" unicode="&#x11e;" horiz-adv-x="1413"
d="M530 1826l17 8q22 -70 81 -100.5t166 -30.5q93 0 147.5 30t75.5 100l16 -7q-7 -130 -73 -191.5t-177 -61.5q-235 0 -253 253zM1396 690v-16q-56 0 -86.5 -12t-44 -43t-13.5 -89v-486q-25 4 -57 4q-40 0 -79.5 -6.5t-101.5 -20.5q-77 -18 -136.5 -27.5t-130.5 -9.5
q-194 0 -343.5 81.5t-233.5 240t-84 383.5q0 232 89 404t255.5 265t392.5 93q132 0 234.5 -33.5t159.5 -93t57 -134.5q0 -59 -34 -92t-81 -33q-30 0 -58 15t-45 43q36 41 36 96q0 52 -35.5 98t-105 74.5t-167.5 28.5q-232 0 -358.5 -171t-126.5 -509q0 -229 59 -390
t174.5 -245t282.5 -84q78 0 143.5 21t120.5 67v411q0 61 -13.5 93.5t-45 46.5t-90.5 14v16h466z" />
    <glyph glyph-name="gbreve" unicode="&#x11f;" horiz-adv-x="1093"
d="M275 1436l16 9q22 -70 81.5 -100.5t166.5 -30.5q93 0 148 30t77 100l14 -7q-7 -130 -73 -191.5t-177 -61.5q-235 0 -253 252zM1052.5 970.5q-28.5 -24.5 -67.5 -24.5q-24 0 -45.5 10t-35.5 29q10 23 10 43q0 16 -10.5 24.5t-27.5 8.5q-27 0 -63 -22t-70 -68
q76 -41 117.5 -111.5t41.5 -161.5q0 -104 -51 -182.5t-145.5 -121.5t-219.5 -43q-88 0 -155 21q-27 -21 -43.5 -44.5t-16.5 -47.5q0 -37 36 -57t90 -29t152 -17q149 -13 245 -33t165 -77t69 -165q0 -105 -69 -183t-197.5 -120t-302.5 -42q-198 0 -308 55t-110 158
q0 85 75.5 153.5t214.5 119.5q-86 17 -133.5 53.5t-47.5 106.5q0 55 39 98t123 78q-94 34 -145 107t-51 176q0 107 51 187.5t145.5 125t220.5 44.5q109 0 193 -39q55 89 113 127t123 38q54 0 86.5 -29t32.5 -77q0 -44 -28.5 -68.5zM731 647q0 105 -29 183t-84.5 120.5
t-132.5 42.5q-98 0 -148 -69t-50 -208q0 -157 64 -248.5t181 -91.5q199 0 199 271zM822.5 -60.5q-51.5 42.5 -126 57.5t-198.5 26q-94 8 -138 15q-90 -50 -133 -107.5t-43 -125.5q0 -107 91.5 -164t251.5 -57q109 0 187 28t119 80.5t41 123.5q0 81 -51.5 123.5z" />
    <glyph glyph-name="Idotaccent" unicode="&#x130;" horiz-adv-x="627"
d="M224 1597q-30 31 -30 85t33 85t91 31q54 0 84.5 -30t30.5 -83q0 -55 -34 -87t-91 -32q-54 0 -84 31zM74 16q56 0 86.5 12.5t44 44.5t13.5 93v1091q0 63 -13.5 97t-45 48.5t-90.5 14.5v17h484v-17q-56 0 -86.5 -12.5t-44 -44.5t-13.5 -92v-1092q0 -63 13.5 -97t45 -48.5
t90.5 -14.5v-16h-484v16z" />
    <glyph glyph-name="dotlessi" unicode="&#x131;" horiz-adv-x="605"
d="M228 606q0 126 -6 189t-24 90.5t-56 27.5q-21 0 -61 -10l-5 15l324 105l8 -8v-839q0 -63 13.5 -97t45 -48.5t90.5 -14.5v-16h-473v16q56 0 86.5 12.5t44 44.5t13.5 93v440z" />
    <glyph glyph-name="Lslash" unicode="&#x141;" horiz-adv-x="1005"
d="M966 412l-55 -412h-857v16q56 0 86.5 12t43.5 43t13 89v454l-151 -100v24l151 102v624q0 60 -13.5 92.5t-45 46.5t-90.5 14v17h485v-17q-57 0 -87 -12t-43.5 -42.5t-13.5 -88.5v-534l374 254v-28l-374 -252v-579q0 -48 14.5 -71.5t50 -32.5t107.5 -9q89 0 157.5 37.5
t125.5 123t106 230.5z" />
    <glyph glyph-name="lslash" unicode="&#x142;" horiz-adv-x="554"
d="M367 879v-703q0 -63 13.5 -97t45 -48.5t90.5 -14.5v-16h-473v16q56 0 86.5 12.5t44 44.5t13.5 93v615l-155 -101v26l155 101v279q0 114 -6.5 173.5t-24 84t-52.5 24.5q-25 0 -64 -11l-5 15l324 105l8 -7v-565l165 111v-26z" />
    <glyph glyph-name="Nacute" unicode="&#x143;" horiz-adv-x="1328"
d="M571 1504l-10 17l345 311l8 -2l43 -134zM1280 1436v-16q-55 0 -86 -26t-44.5 -83.5t-13.5 -158.5v-1152h-62l-853 1245v-951q0 -143 41.5 -210.5t139.5 -67.5v-16h-348v16q80 0 113.5 64t33.5 204v973q0 63 -13.5 97t-45 48.5t-90.5 14.5v17h286l778 -1147v855
q0 104 -16 164t-52.5 87t-100.5 27v16h333z" />
    <glyph glyph-name="nacute" unicode="&#x144;" horiz-adv-x="1277"
d="M528 1141l-11 15l341 325l8 -1l62 -148zM1103.5 79q13.5 -34 45 -48.5t90.5 -14.5v-16h-469v16q55 0 84.5 12.5t42.5 44.5t13 93v420q0 128 -21 201.5t-66 105.5t-122 32q-150 0 -232 -119t-82 -357v-273q0 -63 13 -97t44 -48.5t88 -14.5v-16h-468v16q56 0 86.5 12.5
t43.5 44.5t13 93v438q0 127 -6 189.5t-24.5 90.5t-56.5 28q-25 0 -60 -9l-5 15l324 105l8 -8v-353q31 115 92 195t144 121t180 41q145 0 216 -91.5t71 -280.5v-471q0 -63 13.5 -97z" />
    <glyph glyph-name="Ncaron" unicode="&#x147;" horiz-adv-x="1328"
d="M699 1535l-275 229l11 14l264 -100l264 100l12 -14zM1280 1436v-16q-55 0 -86 -26t-44.5 -83.5t-13.5 -158.5v-1152h-62l-853 1245v-951q0 -143 41.5 -210.5t139.5 -67.5v-16h-348v16q80 0 113.5 64t33.5 204v973q0 63 -13.5 97t-45 48.5t-90.5 14.5v17h286l778 -1147
v855q0 104 -16 164t-52.5 87t-100.5 27v16h333z" />
    <glyph glyph-name="ncaron" unicode="&#x148;" horiz-adv-x="1277"
d="M665 1167l-276 293l10 12l266 -145l265 145l11 -12zM1103.5 79q13.5 -34 45 -48.5t90.5 -14.5v-16h-469v16q55 0 84.5 12.5t42.5 44.5t13 93v420q0 128 -21 201.5t-66 105.5t-122 32q-150 0 -232 -119t-82 -357v-273q0 -63 13 -97t44 -48.5t88 -14.5v-16h-468v16
q56 0 86.5 12.5t43.5 44.5t13 93v438q0 127 -6 189.5t-24.5 90.5t-56.5 28q-25 0 -60 -9l-5 15l324 105l8 -8v-353q31 115 92 195t144 121t180 41q145 0 216 -91.5t71 -280.5v-471q0 -63 13.5 -97z" />
    <glyph glyph-name="OE" unicode="&#x152;" horiz-adv-x="1944"
d="M1858 381l-51 -381h-735q-121 -27 -263 -27q-221 0 -384 90.5t-251 259.5t-88 398q0 220 91.5 388t258.5 260t388 92q135 0 262 -27h724l-2 -346h-16q-48 138 -88 204t-100 92.5t-169 26.5h-190v-659h162q72 0 111 19.5t61.5 67.5t47.5 149h18v-495h-18
q-25 102 -47.5 150t-61 68t-111.5 20h-162v-708h163q121 0 193.5 29.5t125.5 104.5t114 226zM370 352.5q67 -170.5 187 -259.5t277 -89q124 0 219 49v1286q-59 45 -129.5 68t-147.5 23q-153 0 -259 -80.5t-160 -231t-54 -358.5q0 -237 67 -407.5z" />
    <glyph glyph-name="oe" unicode="&#x153;" horiz-adv-x="1848"
d="M1772 205q-86 -115 -184.5 -168.5t-221.5 -53.5q-129 0 -225.5 52.5t-153.5 148.5q-69 -94 -177 -145.5t-239 -51.5q-148 0 -256.5 60.5t-166.5 170t-58 255.5q0 161 68 284.5t190 191t277 67.5q131 0 228.5 -51.5t156.5 -144.5q65 95 166 147t231 52q100 0 177 -29
t120.5 -86.5t43.5 -139.5q0 -85 -63.5 -148t-182 -97t-280.5 -34q-53 0 -128 5q17 -195 114 -296t264 -101q88 0 157 30t134 92zM1216 943.5q-60 -47.5 -92.5 -141t-32.5 -228.5v-29q125 -27 211 -27q150 0 211.5 67t61.5 180q0 68 -27.5 119t-77 79t-112.5 28
q-82 0 -142 -47.5zM835.5 127.5q71.5 106.5 71.5 314.5q0 158 -41 280t-117.5 190t-180.5 68q-143 0 -211 -102.5t-68 -323.5q0 -158 42 -278.5t120 -187.5t182 -67q131 0 202.5 106.5z" />
    <glyph glyph-name="Rcaron" unicode="&#x158;" horiz-adv-x="1278"
d="M595 1535l-275 229l11 14l264 -100l264 100l12 -14zM1270 -8q-69 -11 -116 -11q-99 0 -154.5 42t-79.5 104.5t-48 169.5q-28 126 -60.5 203t-114 130.5t-230.5 53.5h-78v-508q0 -63 13.5 -97t45.5 -48.5t90 -14.5v-16h-484v16q56 0 86.5 12.5t43.5 44.5t13 93v1091
q0 63 -13.5 97t-45 48.5t-90.5 14.5v17h88q51 0 98.5 1t86.5 2q144 4 207 4q262 0 401 -92t139 -277q0 -171 -110 -262t-348 -113q184 -3 282 -64.5t133.5 -146t60.5 -216.5q17 -88 33 -137.5t51.5 -84.5t99.5 -42v-14zM476 706q144 0 227.5 36.5t120.5 116t37 213.5
q0 183 -89.5 266.5t-257.5 83.5q-62 0 -125 -17v-699h87z" />
    <glyph glyph-name="rcaron" unicode="&#x159;" horiz-adv-x="795"
d="M469 1167l-276 293l10 12l266 -145l265 145l11 -12zM769 998l-44 -185q-73 48 -135 48q-103 0 -151.5 -125t-48.5 -385v-175q0 -63 17 -97t56.5 -48.5t112.5 -14.5v-16h-507v16q56 0 86.5 12.5t44 44.5t13.5 93v438q0 126 -6.5 189t-25.5 91t-59 28q-26 0 -62 -9l-5 15
l322 105l8 -8l2 -147q3 -144 3 -289q18 156 51.5 252.5t85.5 142t128 45.5q61 0 114 -21z" />
    <glyph glyph-name="Sacute" unicode="&#x15a;" horiz-adv-x="1042"
d="M442 1504l-10 17l345 311l8 -2l43 -134zM338 1033q41 -66 101.5 -111t163.5 -105q112 -65 180.5 -117t115.5 -132.5t47 -193.5q0 -117 -58.5 -204.5t-162 -135t-236.5 -47.5q-129 0 -218 43t-132 107t-43 126q0 57 31 90.5t83 33.5q37 0 62 -15.5t43 -46.5
q-21 -17 -33.5 -48.5t-12.5 -68.5q0 -50 25 -94.5t80 -73t142 -28.5q132 0 212.5 65t80.5 191q0 90 -42.5 157t-104.5 114t-167 111q-113 68 -180 120t-113.5 129.5t-46.5 182.5q0 110 55 192.5t150.5 127.5t215.5 45q95 0 167 -29t110.5 -78t38.5 -109q0 -51 -28.5 -80
t-77.5 -29q-37 0 -65.5 16t-39.5 44q17 19 27.5 47t10.5 57q0 58 -44 97.5t-139 39.5q-120 0 -179.5 -63.5t-59.5 -170.5q0 -90 41 -156z" />
    <glyph glyph-name="sacute" unicode="&#x15b;" horiz-adv-x="884"
d="M320 1156l341 325l8 -1l62 -148l-400 -191zM290 721.5q32 -41.5 79 -68t129 -61.5q92 -39 148 -71.5t95 -87.5t39 -137q0 -93 -46.5 -164t-130 -110t-190.5 -39q-92 0 -164.5 30t-112.5 77.5t-40 98.5q0 42 27 69t69 27q34 0 62 -16.5t38 -38.5q-17 -16 -26.5 -41
t-9.5 -52q0 -55 42 -93t131 -38q97 0 155.5 47t58.5 143q0 63 -31.5 106t-77.5 70t-125 61q-87 38 -140 70t-90 87t-37 137q0 86 43 152.5t118 103t167 36.5q80 0 141.5 -25t95.5 -65.5t34 -84.5q0 -37 -23.5 -58.5t-62.5 -21.5q-34 0 -58 14.5t-31 38.5q28 30 28 72
q0 45 -37 76.5t-112 31.5q-89 0 -138 -46.5t-49 -128.5q0 -59 32 -100.5z" />
    <glyph glyph-name="Scedilla" unicode="&#x15e;" horiz-adv-x="1042"
d="M897 184.5q-49 -82.5 -137.5 -132.5t-203.5 -62l-55 -120q43 8 73 8q85 0 127 -42.5t42 -103.5q0 -55 -23.5 -94t-63.5 -59.5t-87 -20.5q-54 0 -103.5 25.5t-88.5 68.5l9 11q66 -50 128 -50q45 0 72.5 33t27.5 90q0 60 -32.5 87t-98.5 27q-21 0 -33 -1l-10 14l92 125
q-14 -1 -43 -1q-129 0 -218 43t-132 107t-43 126q0 57 31 90.5t83 33.5q37 0 62 -15.5t43 -46.5q-21 -17 -33.5 -48.5t-12.5 -68.5q0 -50 25 -94.5t80 -73t142 -28.5q132 0 212.5 65t80.5 191q0 90 -42.5 157t-104.5 114t-167 111q-113 68 -180 120t-113.5 129.5
t-46.5 182.5q0 110 55 192.5t150.5 127.5t215.5 45q95 0 167 -29t110.5 -78t38.5 -109q0 -51 -28.5 -80t-77.5 -29q-37 0 -65.5 16t-39.5 44q17 19 27.5 47t10.5 57q0 58 -44 97.5t-139 39.5q-120 0 -179.5 -63.5t-59.5 -170.5q0 -90 41 -156t101.5 -111t163.5 -105
q112 -65 180.5 -117t115.5 -132.5t47 -193.5q0 -107 -49 -189.5z" />
    <glyph glyph-name="scedilla" unicode="&#x15f;" horiz-adv-x="884"
d="M738.5 141q-41.5 -68 -116 -109t-170.5 -48l-53 -114q43 8 73 8q85 0 127 -42.5t42 -103.5q0 -55 -23.5 -94t-63.5 -59.5t-87 -20.5q-54 0 -103.5 25.5t-88.5 68.5l9 11q66 -50 128 -50q45 0 72.5 33t27.5 90q0 60 -32.5 87t-98.5 27q-21 0 -33 -1l-10 14l89 120h-14
q-92 0 -164.5 30t-112.5 77.5t-40 98.5q0 42 27 69t69 27q34 0 62 -16.5t38 -38.5q-17 -16 -26.5 -41t-9.5 -52q0 -55 42 -93t131 -38q97 0 155.5 47t58.5 143q0 63 -31.5 106t-77.5 70t-125 61q-87 38 -140 70t-90 87t-37 137q0 86 43 152.5t118 103t167 36.5
q80 0 141.5 -25t95.5 -65.5t34 -84.5q0 -37 -23.5 -58.5t-62.5 -21.5q-34 0 -58 14.5t-31 38.5q28 30 28 72q0 45 -37 76.5t-112 31.5q-89 0 -138 -46.5t-49 -128.5q0 -59 32 -100.5t79 -68t129 -61.5q92 -39 148 -71.5t95 -87.5t39 -137q0 -87 -41.5 -155z" />
    <glyph glyph-name="Scaron" unicode="&#x160;" horiz-adv-x="1042"
d="M570 1535l-275 229l11 14l264 -100l264 100l12 -14zM338 1033q41 -66 101.5 -111t163.5 -105q112 -65 180.5 -117t115.5 -132.5t47 -193.5q0 -117 -58.5 -204.5t-162 -135t-236.5 -47.5q-129 0 -218 43t-132 107t-43 126q0 57 31 90.5t83 33.5q37 0 62 -15.5t43 -46.5
q-21 -17 -33.5 -48.5t-12.5 -68.5q0 -50 25 -94.5t80 -73t142 -28.5q132 0 212.5 65t80.5 191q0 90 -42.5 157t-104.5 114t-167 111q-113 68 -180 120t-113.5 129.5t-46.5 182.5q0 110 55 192.5t150.5 127.5t215.5 45q95 0 167 -29t110.5 -78t38.5 -109q0 -51 -28.5 -80
t-77.5 -29q-37 0 -65.5 16t-39.5 44q17 19 27.5 47t10.5 57q0 58 -44 97.5t-139 39.5q-120 0 -179.5 -63.5t-59.5 -170.5q0 -90 41 -156z" />
    <glyph glyph-name="scaron" unicode="&#x161;" horiz-adv-x="884"
d="M468 1167l-276 293l10 12l266 -145l265 145l11 -12zM290 721.5q32 -41.5 79 -68t129 -61.5q92 -39 148 -71.5t95 -87.5t39 -137q0 -93 -46.5 -164t-130 -110t-190.5 -39q-92 0 -164.5 30t-112.5 77.5t-40 98.5q0 42 27 69t69 27q34 0 62 -16.5t38 -38.5
q-17 -16 -26.5 -41t-9.5 -52q0 -55 42 -93t131 -38q97 0 155.5 47t58.5 143q0 63 -31.5 106t-77.5 70t-125 61q-87 38 -140 70t-90 87t-37 137q0 86 43 152.5t118 103t167 36.5q80 0 141.5 -25t95.5 -65.5t34 -84.5q0 -37 -23.5 -58.5t-62.5 -21.5q-34 0 -58 14.5t-31 38.5
q28 30 28 72q0 45 -37 76.5t-112 31.5q-89 0 -138 -46.5t-49 -128.5q0 -59 32 -100.5z" />
    <glyph glyph-name="uni0162" unicode="&#x162;" horiz-adv-x="1187"
d="M1144 1063h-17q-39 147 -72 220t-78 103t-120 30h-166v-1240q0 -63 13.5 -97t45 -48.5t90.5 -14.5v-16h-221l-60 -130q43 8 73 8q85 0 127 -42.5t42 -103.5q0 -55 -23.5 -94t-63.5 -59.5t-87 -20.5q-54 0 -103.5 25.5t-88.5 68.5l9 11q66 -50 128 -50q45 0 72.5 33
t27.5 90q0 60 -32.5 87t-98.5 27q-21 0 -33 -1l-10 14l101 137h-243v16q56 0 86.5 12.5t43.5 44.5t13 93v1250h-168q-75 0 -119.5 -30t-77.5 -103t-74 -220h-17l9 371h1083z" />
    <glyph glyph-name="uni0163" unicode="&#x163;" horiz-adv-x="745"
d="M591.5 31q-73.5 -44 -144.5 -48l-52 -113q43 8 73 8q85 0 127 -42.5t42 -103.5q0 -55 -23.5 -94t-63.5 -59.5t-87 -20.5q-54 0 -103.5 25.5t-88.5 68.5l9 11q66 -50 128 -50q45 0 72.5 33t27.5 90q0 60 -32.5 87t-98.5 27q-21 0 -33 -1l-10 14l89 120q-113 4 -172 72.5
t-59 192.5v685h-164v22l164 15v187q56 11 92.5 26t78.5 46l10 -5v-239l323 23l5 -6l-18 -69h-310v-609q0 -134 37 -191t121 -57q92 0 193 94l11 -12q-70 -83 -143.5 -127z" />
    <glyph glyph-name="Tcaron" unicode="&#x164;" horiz-adv-x="1187"
d="M593 1535l-275 229l11 14l264 -100l264 100l12 -14zM1144 1063h-17q-39 147 -72 220t-78 103t-120 30h-166v-1240q0 -63 13.5 -97t45 -48.5t90.5 -14.5v-16h-484v16q56 0 86.5 12.5t43.5 44.5t13 93v1250h-168q-75 0 -119.5 -30t-77.5 -103t-74 -220h-17l9 371h1083z" />
    <glyph glyph-name="tcaron" unicode="&#x165;" horiz-adv-x="745"
d="M503 1080h-14v411l143 -19l6 -11zM735 158q-73 -87 -150 -131t-151 -44q-118 0 -180 69t-62 196v685h-164v22l164 15v187q56 11 92.5 26t78.5 46l10 -5v-239l323 23l5 -6l-18 -69h-310v-609q0 -134 37 -191t121 -57q92 0 193 94z" />
    <glyph glyph-name="Uring" unicode="&#x16e;" horiz-adv-x="1435"
d="M636.5 1480.5q-59.5 44.5 -59.5 130.5q0 85 59 128.5t164 43.5q103 0 162 -43.5t59 -128.5q0 -86 -59 -130.5t-162 -44.5q-104 0 -163.5 44.5zM908 1602q0 77 -31 117t-89 40q-98 0 -98 -138q0 -78 31 -119.5t89 -41.5q98 0 98 142zM1408 1417q-56 0 -87.5 -25.5t-45 -86
t-13.5 -170.5v-626q0 -532 -532 -532q-270 0 -411.5 129t-141.5 382v769q0 63 -13.5 97t-45 48.5t-90.5 14.5v17h484v-17q-56 0 -86.5 -12.5t-43.5 -44.5t-13 -92v-757q0 -168 39.5 -272.5t128 -155t236.5 -50.5q237 0 351 123.5t114 371.5v596q0 114 -15 176.5t-50 89.5
t-99 27v17h334v-17z" />
    <glyph glyph-name="uring" unicode="&#x16f;" horiz-adv-x="1226"
d="M447.5 1210q-59.5 45 -59.5 131q0 84 59.5 128t164.5 44q102 0 161 -44t59 -128q0 -86 -59 -131t-161 -45q-105 0 -164.5 45zM515 1351q0 -81 27.5 -122.5t79.5 -41.5q83 0 83 144q0 79 -27.5 119.5t-80.5 40.5q-82 0 -82 -140zM1058 79q12 -34 40.5 -48.5t81.5 -14.5
v-16h-160q-72 0 -142 -5l-8 7l-4 350q-30 -114 -88 -197t-138 -127.5t-172 -44.5q-153 0 -225.5 87.5t-72.5 270.5v309q0 103 -7 158t-24.5 78.5t-50.5 23.5q-23 0 -55 -9l-5 15l314 104l8 -7v-611q0 -123 20.5 -194t65 -102.5t119.5 -31.5q99 0 168.5 57.5t106 167
t36.5 262.5v46q0 121 -6.5 183t-25 89t-55.5 27q-22 0 -60 -10l-5 15l324 109l8 -7v-837q0 -63 12 -97z" />
    <glyph glyph-name="Zacute" unicode="&#x179;" horiz-adv-x="1158"
d="M506 1504l-10 17l345 311l8 -2l43 -134zM1073 1434l5 -38l-810 -1374h381q125 0 199 34.5t120 113.5t85 228h16l12 -398h-1006l-6 34l809 1378h-378q-95 0 -153 -29.5t-100 -102.5t-85 -212h-16l-12 366h939z" />
    <glyph glyph-name="zacute" unicode="&#x17a;" horiz-adv-x="922"
d="M336 1141l-11 15l341 325l8 -1l62 -148zM836 0h-759l-7 39l586 943h-286q-63 0 -102.5 -24.5t-66 -82t-46.5 -161.5h-12l-15 290h700l5 -39l-583 -945h294q83 0 133 25.5t81.5 91t51.5 188.5h12z" />
    <glyph glyph-name="Zdotaccent" unicode="&#x17b;" horiz-adv-x="1158"
d="M546 1597q-30 31 -30 85t33 85t91 31q54 0 84.5 -30t30.5 -83q0 -55 -34 -87t-91 -32q-54 0 -84 31zM1073 1434l5 -38l-810 -1374h381q125 0 199 34.5t120 113.5t85 228h16l12 -398h-1006l-6 34l809 1378h-378q-95 0 -153 -29.5t-100 -102.5t-85 -212h-16l-12 366h939z
" />
    <glyph glyph-name="zdotaccent" unicode="&#x17c;" horiz-adv-x="922"
d="M388 1240q-30 30 -30 82q0 55 33 87.5t91 32.5q54 0 84.5 -30.5t30.5 -82.5q0 -55 -33.5 -87t-91.5 -32q-54 0 -84 30zM836 0h-759l-7 39l586 943h-286q-63 0 -102.5 -24.5t-66 -82t-46.5 -161.5h-12l-15 290h700l5 -39l-583 -945h294q83 0 133 25.5t81.5 91t51.5 188.5
h12z" />
    <glyph glyph-name="Zcaron" unicode="&#x17d;" horiz-adv-x="1158"
d="M634 1535l-275 229l11 14l264 -100l264 100l12 -14zM1081 0h-1006l-6 34l809 1378h-378q-95 0 -153 -29.5t-100 -102.5t-85 -212h-16l-12 366h939l5 -38l-810 -1374h381q125 0 199 34.5t120 113.5t85 228h16z" />
    <glyph glyph-name="zcaron" unicode="&#x17e;" horiz-adv-x="922"
d="M472 1167l-276 293l10 12l266 -145l265 145l11 -12zM836 0h-759l-7 39l586 943h-286q-63 0 -102.5 -24.5t-66 -82t-46.5 -161.5h-12l-15 290h700l5 -39l-583 -945h294q83 0 133 25.5t81.5 91t51.5 188.5h12z" />
    <glyph glyph-name="Scommaaccent" unicode="&#x218;" horiz-adv-x="1042"
d="M338 1033q41 -66 101.5 -111t163.5 -105q112 -65 180.5 -117t115.5 -132.5t47 -193.5q0 -117 -58.5 -204.5t-162 -135t-236.5 -47.5q-129 0 -218 43t-132 107t-43 126q0 57 31 90.5t83 33.5q37 0 62 -15.5t43 -46.5q-21 -17 -33.5 -48.5t-12.5 -68.5q0 -50 25 -94.5
t80 -73t142 -28.5q132 0 212.5 65t80.5 191q0 90 -42.5 157t-104.5 114t-167 111q-113 68 -180 120t-113.5 129.5t-46.5 182.5q0 110 55 192.5t150.5 127.5t215.5 45q95 0 167 -29t110.5 -78t38.5 -109q0 -51 -28.5 -80t-77.5 -29q-37 0 -65.5 16t-39.5 44q17 19 27.5 47
t10.5 57q0 58 -44 97.5t-139 39.5q-120 0 -179.5 -63.5t-59.5 -170.5q0 -90 41 -156zM626 -147.5q29 -30.5 29 -80.5q0 -73 -56 -126t-145 -69l-4 12q53 16 84 46t38 72q-13 -4 -32 -4q-45 0 -70.5 25t-25.5 64t28 65t76 26q49 0 78 -30.5z" />
    <glyph glyph-name="scommaaccent" unicode="&#x219;" horiz-adv-x="884"
d="M290 721.5q32 -41.5 79 -68t129 -61.5q92 -39 148 -71.5t95 -87.5t39 -137q0 -93 -46.5 -164t-130 -110t-190.5 -39q-92 0 -164.5 30t-112.5 77.5t-40 98.5q0 42 27 69t69 27q34 0 62 -16.5t38 -38.5q-17 -16 -26.5 -41t-9.5 -52q0 -55 42 -93t131 -38q97 0 155.5 47
t58.5 143q0 63 -31.5 106t-77.5 70t-125 61q-87 38 -140 70t-90 87t-37 137q0 86 43 152.5t118 103t167 36.5q80 0 141.5 -25t95.5 -65.5t34 -84.5q0 -37 -23.5 -58.5t-62.5 -21.5q-34 0 -58 14.5t-31 38.5q28 30 28 72q0 45 -37 76.5t-112 31.5q-89 0 -138 -46.5
t-49 -128.5q0 -59 32 -100.5zM524 -147.5q29 -30.5 29 -80.5q0 -73 -56 -126t-145 -69l-4 12q53 16 84 46t38 72q-13 -4 -32 -4q-45 0 -70.5 25t-25.5 64t28 65t76 26q49 0 78 -30.5z" />
    <glyph glyph-name="uni021A" unicode="&#x21a;" horiz-adv-x="1187"
d="M1144 1063h-17q-39 147 -72 220t-78 103t-120 30h-166v-1240q0 -63 13.5 -97t45 -48.5t90.5 -14.5v-16h-484v16q56 0 86.5 12.5t43.5 44.5t13 93v1250h-168q-75 0 -119.5 -30t-77.5 -103t-74 -220h-17l9 371h1083zM684 -147.5q29 -30.5 29 -80.5q0 -73 -56 -126t-145 -69
l-4 12q53 16 84 46t38 72q-13 -4 -32 -4q-45 0 -70.5 25t-25.5 64t28 65t76 26q49 0 78 -30.5z" />
    <glyph glyph-name="uni021B" unicode="&#x21b;" horiz-adv-x="745"
d="M735 158q-73 -87 -150 -131t-151 -44q-118 0 -180 69t-62 196v685h-164v22l164 15v187q56 11 92.5 26t78.5 46l10 -5v-239l323 23l5 -6l-18 -69h-310v-609q0 -134 37 -191t121 -57q92 0 193 94zM520 -147.5q29 -30.5 29 -80.5q0 -73 -56 -126t-145 -69l-4 12q53 16 84 46
t38 72q-13 -4 -32 -4q-45 0 -70.5 25t-25.5 64t28 65t76 26q49 0 78 -30.5z" />
    <glyph glyph-name="circumflex" unicode="&#x2c6;" horiz-adv-x="942"
d="M701 1168l-284 135l-283 -135l-11 13l294 286l293 -286z" />
    <glyph glyph-name="caron" unicode="&#x2c7;" horiz-adv-x="942"
d="M693 1460l-276 -293l-276 293l10 12l266 -145l265 145z" />
    <glyph glyph-name="breve" unicode="&#x2d8;" horiz-adv-x="833"
d="M586 1344q55 30 77 100l14 -7q-7 -130 -73 -191.5t-177 -61.5q-235 0 -253 252l16 9q22 -70 81.5 -100.5t166.5 -30.5q93 0 148 30z" />
    <glyph glyph-name="dotaccent" unicode="&#x2d9;" horiz-adv-x="758"
d="M195 1240q-30 30 -30 82q0 55 33 87.5t91 32.5q54 0 84.5 -30.5t30.5 -82.5q0 -55 -33.5 -87t-91.5 -32q-54 0 -84 30z" />
    <glyph glyph-name="ring" unicode="&#x2da;" horiz-adv-x="942"
d="M233.5 1210q-59.5 45 -59.5 131q0 84 59.5 128t164.5 44q102 0 161 -44t59 -128q0 -86 -59 -131t-161 -45q-105 0 -164.5 45zM491 1331q0 79 -27.5 119.5t-80.5 40.5q-82 0 -82 -140q0 -81 27.5 -122.5t79.5 -41.5q83 0 83 144z" />
    <glyph glyph-name="ogonek" unicode="&#x2db;" horiz-adv-x="809"
d="M587 -320q-73 -118 -197 -118q-68 0 -111.5 34.5t-43.5 101.5q0 86 79 163.5t244 148.5v-10q-96 -66 -139.5 -133t-43.5 -128q0 -48 25.5 -73.5t68.5 -25.5q28 0 57 12t54 35z" />
    <glyph glyph-name="tilde" unicode="&#x2dc;" horiz-adv-x="861"
d="M497 1218.5q-30 8.5 -75 25.5q-48 19 -81.5 28t-77.5 9q-60 0 -94.5 -21.5t-44.5 -58.5l-14 5q14 101 66 151.5t135 50.5q38 0 69.5 -9t75.5 -26q46 -18 79 -27t73 -9q57 0 86.5 21.5t38.5 54.5l15 -5q-8 -102 -57.5 -150t-125.5 -48q-38 0 -68 8.5z" />
    <glyph glyph-name="hungarumlaut" unicode="&#x2dd;" horiz-adv-x="942"
d="M492 1138l-17 5l172 364l135 -30l5 -12zM235 1129l-17 4l111 372l134 -28l4 -14z" />
    <glyph glyph-name="endash" unicode="&#x2013;" horiz-adv-x="1186"
d="M1091 665v-59h-996v59h996z" />
    <glyph glyph-name="emdash" unicode="&#x2014;" horiz-adv-x="1800"
d="M1705 664v-59h-1610v59h1610z" />
    <glyph glyph-name="quoteleft" unicode="&#x2018;" horiz-adv-x="546"
d="M375 1247.5q33 -33.5 33 -83.5q0 -53 -36 -89t-98 -36q-64 0 -100 42t-36 122q0 105 69 194.5t186 152.5l5 -11q-158 -118 -169 -269q30 11 58 11q55 0 88 -33.5z" />
    <glyph glyph-name="quoteright" unicode="&#x2019;" horiz-adv-x="546"
d="M372 1501q36 -42 36 -122q0 -105 -69 -194.5t-185 -152.5l-6 11q159 118 170 270q-28 -12 -59 -12q-55 0 -88 33.5t-33 83.5q0 53 36.5 89t97.5 36q64 0 100 -42z" />
    <glyph glyph-name="quotesinglbase" unicode="&#x201a;" horiz-adv-x="546"
d="M372 192q36 -42 36 -122q0 -105 -69 -194.5t-185 -152.5l-6 11q159 118 170 270q-28 -12 -59 -12q-55 0 -88 33.5t-33 83.5q0 53 36.5 89t97.5 36q64 0 100 -42z" />
    <glyph glyph-name="quotedblleft" unicode="&#x201c;" horiz-adv-x="929"
d="M758 1247.5q33 -33.5 33 -83.5q0 -53 -36 -89t-98 -36q-64 0 -100 42t-36 122q0 105 69 194.5t186 152.5l5 -11q-158 -118 -169 -269q30 11 58 11q55 0 88 -33.5zM375 1247.5q33 -33.5 33 -83.5q0 -53 -36 -89t-98 -36q-64 0 -100 42t-36 122q0 105 69 194.5t186 152.5
l5 -11q-158 -118 -169 -269q30 11 58 11q55 0 88 -33.5z" />
    <glyph glyph-name="quotedblright" unicode="&#x201d;" horiz-adv-x="929"
d="M755 1503q36 -42 36 -122q0 -105 -69 -194.5t-186 -152.5l-5 11q158 117 169 270q-28 -12 -58 -12q-55 0 -88 33.5t-33 83.5q0 53 36 89t98 36q64 0 100 -42zM372 1503q36 -42 36 -122q0 -105 -69 -194.5t-186 -152.5l-5 11q158 117 169 270q-28 -12 -58 -12
q-55 0 -88 33.5t-33 83.5q0 53 36 89t98 36q64 0 100 -42z" />
    <glyph glyph-name="quotedblbase" unicode="&#x201e;" horiz-adv-x="929"
d="M755 192q36 -42 36 -122q0 -105 -69 -194.5t-186 -152.5l-5 11q158 117 169 270q-28 -12 -58 -12q-55 0 -88 33.5t-33 83.5q0 53 36 89t98 36q64 0 100 -42zM372 192q36 -42 36 -122q0 -105 -69 -194.5t-186 -152.5l-5 11q158 117 169 270q-28 -12 -58 -12
q-55 0 -88 33.5t-33 83.5q0 53 36 89t98 36q64 0 100 -42z" />
    <glyph glyph-name="bullet" unicode="&#x2022;" horiz-adv-x="766"
d="M268.5 464q-49.5 27 -76.5 76.5t-27 114.5t27 114.5t76.5 76.5t114.5 27t114.5 -27t76.5 -76.5t27 -114.5t-27 -114.5t-76.5 -76.5t-114.5 -27t-114.5 27z" />
    <glyph glyph-name="ellipsis" unicode="&#x2026;" horiz-adv-x="1781"
d="M274.5 22.5q-35.5 35.5 -35.5 93.5q0 59 35.5 94t93.5 35t93.5 -35.5t35.5 -93.5t-35.5 -93.5t-93.5 -35.5t-93.5 35.5zM792.5 22.5q-35.5 35.5 -35.5 93.5q0 59 35.5 94t93.5 35t93.5 -35.5t35.5 -93.5t-35.5 -93.5t-93.5 -35.5t-93.5 35.5zM1319.5 22.5
q-35.5 35.5 -35.5 93.5q0 59 35.5 94t93.5 35t93.5 -35.5t35.5 -93.5t-35.5 -93.5t-93.5 -35.5t-93.5 35.5z" />
    <glyph glyph-name="perthousand" unicode="&#x2030;" horiz-adv-x="2439"
d="M364 -15l893 1473l41 -24l-896 -1473zM231 779.5q-73 42.5 -113 121t-40 182.5t41.5 183t117 122t174.5 43q97 0 169 -42t110.5 -118.5t38.5 -176.5q0 -107 -40 -188t-114 -125t-173 -44q-98 0 -171 42.5zM546 833.5q41 72.5 41 210.5q0 118 -25.5 200.5t-71 124
t-106.5 41.5q-80 0 -122 -75t-42 -216q0 -114 25 -194.5t71 -122t107 -41.5q82 0 123 72.5zM1088 16.5q-73 42.5 -113 121t-40 182.5t41.5 183t117 122t174.5 43q97 0 169 -42t110.5 -118.5t38.5 -176.5q0 -107 -40 -188t-114 -125t-173 -44q-98 0 -171 42.5zM1863 16.5
q-73 42.5 -113 121t-40 182.5t41.5 183t117 122t174.5 43q97 0 169 -42t110.5 -118.5t38.5 -176.5q0 -107 -40 -188t-114 -125t-173 -44q-98 0 -171 42.5zM1403 70.5q41 72.5 41 210.5q0 118 -25.5 200.5t-71 124t-106.5 41.5q-80 0 -122 -75t-42 -216q0 -114 25 -194.5
t71 -122t107 -41.5q82 0 123 72.5zM2178 70.5q41 72.5 41 210.5q0 118 -25.5 200.5t-71 124t-106.5 41.5q-80 0 -122 -75t-42 -216q0 -114 25 -194.5t71 -122t107 -41.5q82 0 123 72.5z" />
    <glyph glyph-name="guilsinglleft" unicode="&#x2039;" horiz-adv-x="652"
d="M291 535l225 -373l-16 -15l-391 384l391 387l16 -15z" />
    <glyph glyph-name="guilsinglright" unicode="&#x203a;" horiz-adv-x="652"
d="M544 533l-392 -387l-16 16l226 368l-226 372l16 16z" />
    <glyph glyph-name="fraction" unicode="&#x2044;" horiz-adv-x="538"
d="M-192 6l881 1452l41 -24l-885 -1453z" />
    <glyph glyph-name="Euro" unicode="&#x20ac;" horiz-adv-x="1366"
d="M1271 282q-196 -298 -512 -298q-140 0 -250 65.5t-180 189t-92 294.5h-164v25l160 9q-5 62 -5 116q0 57 4 101h-159v25l162 9q21 195 100.5 338t212.5 220t310 77q113 0 202.5 -30t139.5 -83.5t50 -122.5q0 -56 -32.5 -88t-77.5 -32q-31 0 -59 16.5t-45 47.5
q17 17 26.5 43.5t9.5 56.5q0 79 -64 121t-177 42q-196 0 -301 -145t-112 -451l552 31l5 -6l-18 -69h-539v-1q0 -119 11 -204l490 29l5 -6l-18 -69h-471q34 -212 134 -319.5t274 -107.5q126 0 227 48t190 140z" />
    <glyph glyph-name="uni2113" unicode="&#x2113;" horiz-adv-x="1193"
d="M1099 271q-87 -144 -192.5 -214t-240.5 -70q-175 0 -274.5 111.5t-109.5 324.5q-97 -37 -181 -65l-7 19q110 45 187 79v476q0 179 51.5 294t137.5 168t192 53q100 0 173.5 -40t113 -117t39.5 -186q0 -171 -132.5 -323t-389.5 -278v-30q0 -210 66.5 -318t197.5 -108
q103 0 185 57.5t165 180.5zM466 542q137 71 209 143t101 167t29 243q0 162 -38.5 245.5t-132.5 83.5q-62 0 -98.5 -38t-53 -121.5t-16.5 -224.5v-498z" />
    <glyph glyph-name="trademark" unicode="&#x2122;" horiz-adv-x="1723"
d="M676 1228h-8q-24 79 -43.5 118.5t-44.5 56t-67 16.5h-70v-558q0 -50 16 -68.5t61 -18.5v-13h-279v13q44 0 60 16.5t16 63.5v565h-72q-40 0 -65.5 -16.5t-45 -56t-43.5 -118.5h-9l5 206h586zM1573.5 792q18.5 -18 61.5 -18v-13h-281v13q38 0 54.5 11t16.5 40q0 13 -3 29
l-78 459l-236 -552h-40l-215 556l-73 -387q-6 -33 -6 -58q0 -50 21.5 -74t59.5 -24v-13h-188v13q37 0 57.5 34t35.5 116l77 413q3 17 3 30q0 29 -17 40.5t-56 11.5v15h169l209 -525l223 525h158v-15q-37 0 -53.5 -10.5t-16.5 -39.5q0 -13 3 -28l87 -482q9 -49 27.5 -67z" />
    <glyph glyph-name="estimated" unicode="&#x212e;" horiz-adv-x="1765"
d="M373 257q113 -120 241 -179.5t279 -59.5q156 0 293.5 65.5t238.5 180.5h117q-110 -133 -282 -210t-369 -77q-223 0 -411.5 99t-299 268.5t-110.5 370.5q0 202 110.5 372.5t299 270.5t411.5 100q228 0 417 -100t298.5 -274.5t109.5 -387.5h-1343v-439zM1165 1356.5
q-128 56.5 -272 56.5q-288 0 -520 -235v-443h1040v449q-120 116 -248 172.5z" />
    <glyph glyph-name="emptyset" unicode="&#x2205;" horiz-adv-x="1434"
d="M1252.5 873q37.5 -102 37.5 -222q0 -168 -72 -298.5t-202.5 -202.5t-298.5 -72q-121 0 -223 37.5t-178 108.5l-97 -97l-29 31l97 96q-69 75 -106.5 176.5t-37.5 220.5q0 168 72.5 298.5t203 203t298.5 72.5q120 0 221.5 -37.5t177.5 -107.5l103 102l30 -27l-104 -104
q70 -76 107.5 -178zM223 451.5q35 -92.5 99 -163.5l759 757q-70 65 -163.5 100t-200.5 35q-152 0 -272.5 -68t-188.5 -188.5t-68 -272.5q0 -107 35 -199.5zM989 191q120 68 188 188t68 272q0 108 -35 201.5t-100 163.5l-759 -757q71 -65 164.5 -100.5t201.5 -35.5
q152 0 272 68z" />
    <glyph glyph-name="product" unicode="&#x220f;" horiz-adv-x="1671"
d="M1323 -195h-176v1577h-623v-1577h-176v1577h-252v33h1479v-33h-252v-1577z" />
    <glyph glyph-name="minus" unicode="&#x2212;"
d="M928 749v-46h-797v46h797z" />
    <glyph glyph-name="infinity" unicode="&#x221e;" horiz-adv-x="1786"
d="M1514 981.5q73 -45.5 115 -126.5t42 -183q0 -105 -44 -189.5t-123.5 -133t-183.5 -48.5q-87 0 -166.5 39.5t-147.5 99.5t-153 152q-71 -91 -131 -152.5t-131 -100t-152 -38.5q-90 0 -164.5 47.5t-117.5 131.5t-43 188q0 106 45 188t124 127.5t177 45.5q90 0 171.5 -40.5
t149.5 -101.5t155 -154q71 92 131 154t132 101t154 39q88 0 161 -45.5zM1461.5 489q49.5 40 73.5 103t24 132q0 81 -34.5 137t-90 83.5t-118.5 27.5q-100 0 -184.5 -65.5t-181.5 -188.5q87 -93 142 -145t119 -88t130 -36q71 0 120.5 40zM658.5 420.5q85.5 65.5 180.5 186.5
q-93 99 -149 151.5t-123 90t-137 37.5t-121.5 -34t-78.5 -93.5t-27 -134.5q0 -94 42.5 -154.5t104 -87.5t122.5 -27q101 0 186.5 65.5z" />
    <glyph glyph-name="approxequal" unicode="&#x2248;"
d="M180.5 671.5q49.5 43.5 124.5 43.5q58 0 114 -18.5t139 -54.5q71 -32 115.5 -47t86.5 -15q52 0 95.5 34t55.5 113l17 -4q0 -99 -48.5 -143.5t-123.5 -44.5q-56 0 -110 18t-131 53q-76 33 -121 48.5t-91 15.5q-56 0 -99.5 -34t-56.5 -112l-16 4q0 100 49.5 143.5z
M180.5 907.5q49.5 43.5 124.5 43.5q58 0 114 -18.5t139 -54.5q71 -32 115.5 -47t86.5 -15q52 0 95.5 34t55.5 113l17 -4q0 -99 -48.5 -143.5t-123.5 -44.5q-56 0 -110 18t-131 53q-76 33 -121 48.5t-91 15.5q-56 0 -99.5 -34t-56.5 -112l-16 4q0 100 49.5 143.5z" />
    <glyph glyph-name="notequal" unicode="&#x2260;"
d="M574 821l-74 -197h428v-46h-445l-122 -324l-39 14l117 310h-308v46h325l74 197h-399v46h416l125 331l39 -14l-119 -317h336v-46h-354z" />
    <glyph glyph-name="lessequal" unicode="&#x2264;"
d="M267 756l661 -389l-12 -24l-785 405v20l785 387l12 -22zM928 204v-46h-797v46h797z" />
    <glyph glyph-name="greaterequal" unicode="&#x2265;" horiz-adv-x="1063"
d="M932 768v-20l-785 -405l-12 24l661 389l-661 377l12 22zM135 204h797v-46h-797v46z" />
    <glyph glyph-name="Cacute.loclPLK" horiz-adv-x="1283"
d="M775 1513l-15 6l73 343l8 3l119 -68zM390 70.5q-142 86.5 -223 247.5t-81 376q0 211 86.5 383.5t249 273t381.5 100.5q120 0 215 -34.5t149 -95t54 -136.5q0 -57 -35 -89.5t-83 -32.5q-31 0 -58.5 15.5t-41.5 44.5q17 17 26 42.5t9 55.5q0 56 -33 101.5t-94.5 72
t-142.5 26.5q-147 0 -256 -72t-169 -213t-60 -343q0 -224 63 -376.5t181 -229t284 -76.5q113 0 211 41.5t209 141.5l12 -12q-108 -143 -238.5 -220.5t-295.5 -77.5q-177 0 -319 86.5z" />
    <glyph glyph-name="N.ss01" horiz-adv-x="1336"
d="M1288 1436v-16q-54 0 -84.5 -25.5t-44.5 -82.5t-14 -154v-1158h-107l-812 1292l-5 9v-1001q0 -144 42.5 -214t138.5 -70v-16h-348v16q79 0 112.5 65t33.5 203v1048q-35 51 -66.5 68t-85.5 17v17h316l760 -1211v925q0 106 -14 164t-47.5 83t-95.5 25v16h321z" />
    <glyph glyph-name="Nacute.loclPLK" horiz-adv-x="1328"
d="M701 1513l-15 6l73 343l8 3l119 -68zM1280 1436v-16q-55 0 -86 -26t-44.5 -83.5t-13.5 -158.5v-1152h-62l-853 1245v-951q0 -143 41.5 -210.5t139.5 -67.5v-16h-348v16q80 0 113.5 64t33.5 204v973q0 63 -13.5 97t-45 48.5t-90.5 14.5v17h286l778 -1147v855
q0 104 -16 164t-52.5 87t-100.5 27v16h333z" />
    <glyph glyph-name="Nacute.loclPLK.ss01" horiz-adv-x="1328"
d="M701 1513l-15 6l73 343l8 3l119 -68zM1280 1436v-16q-55 0 -86 -26t-44.5 -83.5t-13.5 -158.5v-1152h-62l-853 1245v-951q0 -143 41.5 -210.5t139.5 -67.5v-16h-348v16q80 0 113.5 64t33.5 204v973q0 63 -13.5 97t-45 48.5t-90.5 14.5v17h286l778 -1147v855
q0 104 -16 164t-52.5 87t-100.5 27v16h333z" />
    <glyph glyph-name="Nacute.ss01" horiz-adv-x="1336"
d="M588 1504l-10 17l345 311l8 -2l43 -134zM1288 1436v-16q-54 0 -84.5 -25.5t-44.5 -82.5t-14 -154v-1158h-107l-812 1292l-5 9v-1001q0 -144 42.5 -214t138.5 -70v-16h-348v16q79 0 112.5 65t33.5 203v1048q-35 51 -66.5 68t-85.5 17v17h316l760 -1211v925q0 106 -14 164
t-47.5 83t-95.5 25v16h321z" />
    <glyph glyph-name="Ncaron.ss01" horiz-adv-x="1336"
d="M716 1535l-275 229l11 14l264 -100l264 100l12 -14zM1288 1436v-16q-54 0 -84.5 -25.5t-44.5 -82.5t-14 -154v-1158h-107l-812 1292l-5 9v-1001q0 -144 42.5 -214t138.5 -70v-16h-348v16q79 0 112.5 65t33.5 203v1048q-35 51 -66.5 68t-85.5 17v17h316l760 -1211v925
q0 106 -14 164t-47.5 83t-95.5 25v16h321z" />
    <glyph glyph-name="Ntilde.ss01" horiz-adv-x="1336"
d="M419 1551l-14 5q13 95 65.5 142.5t132.5 47.5q35 0 64.5 -8t74.5 -24q47 -17 79 -25t70 -8q55 0 85.5 20.5t39.5 53.5l14 -5q-7 -97 -57 -142t-124 -45q-36 0 -66 8t-70 23q-44 17 -78.5 25.5t-76.5 8.5q-116 0 -139 -77zM1288 1436v-16q-54 0 -84.5 -25.5t-44.5 -82.5
t-14 -154v-1158h-107l-812 1292l-5 9v-1001q0 -144 42.5 -214t138.5 -70v-16h-348v16q79 0 112.5 65t33.5 203v1048q-35 51 -66.5 68t-85.5 17v17h316l760 -1211v925q0 106 -14 164t-47.5 83t-95.5 25v16h321z" />
    <glyph glyph-name="Oacute.loclPLK" horiz-adv-x="1604"
d="M803 1513l-15 6l73 343l8 3l119 -68zM425 63.5q-162 90.5 -250.5 258.5t-88.5 396q0 217 91.5 383.5t257 258t380.5 91.5q214 0 373 -90.5t244.5 -255.5t85.5 -382q0 -232 -88 -401t-250 -259t-378 -90q-215 0 -377 90.5zM1181.5 175q118.5 171 118.5 485
q0 234 -67.5 406t-187 263t-273.5 91q-151 0 -256 -79.5t-159 -228.5t-54 -355q0 -236 67 -406t186.5 -258.5t274.5 -88.5q232 0 350.5 171z" />
    <glyph glyph-name="Q.ss01" horiz-adv-x="1604"
d="M1535 -368q-142 -93 -273 -93q-146 0 -254 113t-158 322q-16 -1 -48 -1q-215 0 -377 90.5t-250.5 258.5t-88.5 396q0 217 91.5 383.5t257 258t380.5 91.5q214 0 373 -90.5t244.5 -255.5t85.5 -382q0 -219 -79 -382.5t-224.5 -257.5t-342.5 -108q58 -101 141.5 -180
t183.5 -123.5t205 -44.5q63 0 127 18zM370 351q67 -170 186.5 -258.5t274.5 -88.5q232 0 350.5 171t118.5 485q0 234 -67.5 406t-187 263t-273.5 91q-151 0 -256 -79.5t-159 -228.5t-54 -355q0 -236 67 -406z" />
    <glyph glyph-name="Sacute.loclPLK" horiz-adv-x="1042"
d="M572 1513l-15 6l73 343l8 3l119 -68zM338 1033q41 -66 101.5 -111t163.5 -105q112 -65 180.5 -117t115.5 -132.5t47 -193.5q0 -117 -58.5 -204.5t-162 -135t-236.5 -47.5q-129 0 -218 43t-132 107t-43 126q0 57 31 90.5t83 33.5q37 0 62 -15.5t43 -46.5
q-21 -17 -33.5 -48.5t-12.5 -68.5q0 -50 25 -94.5t80 -73t142 -28.5q132 0 212.5 65t80.5 191q0 90 -42.5 157t-104.5 114t-167 111q-113 68 -180 120t-113.5 129.5t-46.5 182.5q0 110 55 192.5t150.5 127.5t215.5 45q95 0 167 -29t110.5 -78t38.5 -109q0 -51 -28.5 -80
t-77.5 -29q-37 0 -65.5 16t-39.5 44q17 19 27.5 47t10.5 57q0 58 -44 97.5t-139 39.5q-120 0 -179.5 -63.5t-59.5 -170.5q0 -90 41 -156z" />
    <glyph glyph-name="Zacute.loclPLK" horiz-adv-x="1158"
d="M636 1513l-15 6l73 343l8 3l119 -68zM1073 1434l5 -38l-810 -1374h381q125 0 199 34.5t120 113.5t85 228h16l12 -398h-1006l-6 34l809 1378h-378q-95 0 -153 -29.5t-100 -102.5t-85 -212h-16l-12 366h939z" />
    <glyph glyph-name="cacute.loclPLK" horiz-adv-x="982"
d="M554 1116l-15 6l70 392l7 3l129 -71zM749 994q67 -25 102 -67.5t35 -93.5q0 -48 -29.5 -77t-77.5 -29q-36 0 -64.5 18t-42.5 46q38 46 38 96q0 47 -36.5 78t-106.5 31q-88 0 -156 -45.5t-106.5 -139.5t-38.5 -236q0 -229 94.5 -353t271.5 -124q77 0 153.5 27.5
t141.5 86.5l9 -9q-71 -98 -174.5 -159t-224.5 -61q-138 0 -239 62.5t-154.5 175t-53.5 260.5q0 159 62 281t175.5 189.5t264.5 67.5q90 0 157 -25z" />
    <glyph glyph-name="f.ss01" horiz-adv-x="701"
d="M698 1008l5 -6l-18 -69h-303v-757q0 -63 15.5 -97t52.5 -48.5t106 -14.5v-16h-498v16q56 0 86.5 12.5t44 44.5t13.5 93v767h-164v22l164 14v18q0 238 76.5 368.5t227.5 130.5q60 0 105.5 -23t70 -60t24.5 -80t-25.5 -69t-66.5 -26q-64 0 -94 59q32 41 32 87
q0 37 -21 62.5t-58 25.5q-39 0 -59 -28t-26.5 -78.5t-6.5 -134.5l1 -181v-54z" />
    <glyph glyph-name="i.loclTRK" horiz-adv-x="605"
d="M226 1240q-30 30 -30 82q0 55 33 87.5t91 32.5q54 0 84.5 -30.5t30.5 -82.5q0 -55 -33.5 -87t-91.5 -32q-54 0 -84 30zM228 606q0 126 -6 189t-24 90.5t-56 27.5q-21 0 -61 -10l-5 15l324 105l8 -8v-839q0 -63 13.5 -97t45 -48.5t90.5 -14.5v-16h-473v16q56 0 86.5 12.5
t44 44.5t13.5 93v440z" />
    <glyph glyph-name="nacute.loclPLK" horiz-adv-x="1277"
d="M662 1116l-15 6l70 392l7 3l129 -71zM1103.5 79q13.5 -34 45 -48.5t90.5 -14.5v-16h-469v16q55 0 84.5 12.5t42.5 44.5t13 93v420q0 128 -21 201.5t-66 105.5t-122 32q-150 0 -232 -119t-82 -357v-273q0 -63 13 -97t44 -48.5t88 -14.5v-16h-468v16q56 0 86.5 12.5
t43.5 44.5t13 93v438q0 127 -6 189.5t-24.5 90.5t-56.5 28q-25 0 -60 -9l-5 15l324 105l8 -8v-353q31 115 92 195t144 121t180 41q145 0 216 -91.5t71 -280.5v-471q0 -63 13.5 -97z" />
    <glyph glyph-name="oacute.loclPLK" horiz-adv-x="1196"
d="M598 1116l-15 6l70 392l7 3l129 -71zM314.5 44q-108.5 61 -166.5 172t-58 257q0 163 68 287t190 192.5t277 68.5q152 0 260.5 -65t164.5 -178.5t56 -257.5q0 -160 -69 -282t-190.5 -188.5t-275.5 -66.5q-148 0 -256.5 61zM835.5 124.5q71.5 108.5 71.5 317.5
q0 160 -41 282.5t-117.5 191t-180.5 68.5q-143 0 -211 -103t-68 -327q0 -158 42 -280t120 -190t182 -68q131 0 202.5 108.5z" />
    <glyph glyph-name="sacute.loclPLK" horiz-adv-x="884"
d="M465 1116l-15 6l70 392l7 3l129 -71zM290 721.5q32 -41.5 79 -68t129 -61.5q92 -39 148 -71.5t95 -87.5t39 -137q0 -93 -46.5 -164t-130 -110t-190.5 -39q-92 0 -164.5 30t-112.5 77.5t-40 98.5q0 42 27 69t69 27q34 0 62 -16.5t38 -38.5q-17 -16 -26.5 -41t-9.5 -52
q0 -55 42 -93t131 -38q97 0 155.5 47t58.5 143q0 63 -31.5 106t-77.5 70t-125 61q-87 38 -140 70t-90 87t-37 137q0 86 43 152.5t118 103t167 36.5q80 0 141.5 -25t95.5 -65.5t34 -84.5q0 -37 -23.5 -58.5t-62.5 -21.5q-34 0 -58 14.5t-31 38.5q28 30 28 72q0 45 -37 76.5
t-112 31.5q-89 0 -138 -46.5t-49 -128.5q0 -59 32 -100.5z" />
    <glyph glyph-name="zacute.loclPLK" horiz-adv-x="922"
d="M470 1116l-15 6l70 392l7 3l129 -71zM836 0h-759l-7 39l586 943h-286q-63 0 -102.5 -24.5t-66 -82t-46.5 -161.5h-12l-15 290h700l5 -39l-583 -945h294q83 0 133 25.5t81.5 91t51.5 188.5h12z" />
    <glyph glyph-name="periodcentered.loclCAT.case" horiz-adv-x="20"
d="M-279.5 657.5q-35.5 35.5 -35.5 93.5q0 59 35 94t94 35q58 0 93.5 -35.5t35.5 -93.5t-35.5 -93.5t-93.5 -35.5t-93.5 35.5z" />
    <glyph glyph-name="periodcentered.loclCAT" horiz-adv-x="85"
d="M-49.5 626.5q-30.5 33.5 -30.5 95.5t30.5 95.5t86.5 33.5t86.5 -33.5t30.5 -95.5t-30.5 -95.5t-86.5 -33.5t-86.5 33.5z" />
    <glyph glyph-name="numbersign.ss01" horiz-adv-x="1444"
d="M1055 811l-92 -459h259l-9 -41h-258l-67 -331h-86l67 331h-404l-67 -331h-85l67 331h-251l9 41h250l92 459h-260l9 41h259l63 310h86l-63 -310h404l62 310h86l-62 -310h250l-9 -41h-250zM970 811h-404l-93 -459h404z" />
    <glyph glyph-name="braceleft.case" horiz-adv-x="792"
d="M427 772q-51 -96 -148 -119q95 -16 147 -83.5t52 -171.5v-381q0 -122 11 -186t36.5 -89t72.5 -25q37 0 76 7l3 -19q-49 -12 -141 -12q-129 0 -181.5 61t-52.5 176q0 43 6 110.5t14 135.5q10 89 15 145.5t5 99.5q0 112 -44.5 162.5t-146.5 50.5h-74v25h83q180 0 180 278
q0 63 -20 219q-7 56 -12.5 111t-5.5 89q0 119 60.5 180.5t193.5 61.5q54 0 122 -11l-1 -21q-40 8 -81 8q-49 0 -73.5 -25t-34.5 -91t-10 -198v-260q0 -132 -51 -228z" />
    <glyph glyph-name="braceright.case" horiz-adv-x="792"
d="M715 659v-25h-84q-180 0 -180 -279q0 -40 5 -91t15 -127q19 -143 19 -201q0 -119 -60.5 -180t-193.5 -61q-64 0 -122 11l1 20q35 -7 80 -7q49 0 74 25t35 91t10 198v260q0 130 51 226.5t147 120.5q-95 16 -146.5 83.5t-51.5 170.5v382q0 122 -11 186t-36.5 89t-72.5 25
q-42 0 -76 -8l-3 20q50 12 140 12q129 0 182 -60.5t53 -176.5q0 -43 -5 -99.5t-15 -145.5q-10 -91 -15 -147.5t-5 -99.5q0 -111 44.5 -161.5t146.5 -50.5h74z" />
    <glyph glyph-name="bracketleft.case" horiz-adv-x="752"
d="M373 1575v-1831h229v-22h-393v1876h393v-23h-229z" />
    <glyph glyph-name="bracketright.case" horiz-adv-x="752"
d="M543 1598v-1876h-393v22h229v1831h-229v23h393z" />
    <glyph glyph-name="parenleft.case" horiz-adv-x="834"
d="M408 -66q-99 153 -148.5 335t-49.5 374q0 194 50 379t149.5 342t242.5 263l10 -14q-97 -95 -153.5 -207.5t-84.5 -290.5t-28 -460q0 -296 25 -471.5t81 -284.5t159 -205l-11 -15q-143 102 -242 255z" />
    <glyph glyph-name="parenright.case" horiz-adv-x="834"
d="M426 1370q99 -153 148.5 -335t49.5 -374q0 -194 -50 -379t-149.5 -342t-242.5 -263l-11 15q97 95 153.5 207.5t84.5 290t28 460.5q0 296 -25 471.5t-81 284.5t-159 204l12 15q143 -102 242 -255z" />
    </font>
</defs>
</svg>
