<?xml version="1.0" standalone="no"?>
<!DOCTYPE svg PUBLIC "-//W3C//DTD SVG 1.1//EN" "http://www.w3.org/Graphics/SVG/1.1/DTD/svg11.dtd" >
<svg>
<metadata>
Created by FontForge 20120731 at Tue Sep 24 09:09:18 2019
 By www-data
Copyright \(c\) 2016 by Mucca/Schriftlabor. All rights reserved.
</metadata>
<defs>
<font id="SephoraSans-Book" horiz-adv-x="0" >
  <font-face 
    font-family="Sephora Sans Book"
    font-weight="400"
    font-stretch="normal"
    units-per-em="1000"
    panose-1="0 0 5 0 0 0 0 0 0 0"
    ascent="770"
    descent="-230"
    x-height="492"
    cap-height="700"
    bbox="-603 -270 1230 941"
    underline-thickness="50"
    underline-position="-50"
    stemh="65"
    stemv="80"
    unicode-range="U+0020-25CA"
  />
<missing-glyph horiz-adv-x="725" 
d="M363 36c-182 0 -313 131 -313 313c0 181 131 312 313 312c181 0 312 -131 312 -312c0 -182 -131 -313 -312 -313zM311 307l95 1c0 19 12 33 26 49c20 23 43 50 43 98c0 70 -48 100 -187 100l-4 -98c48 0 69 -10 69 -32c0 -8 -2 -15 -6 -22c-12 -21 -36 -41 -36 -96z
M359 145c45 0 66 27 66 63c0 37 -21 65 -60 65c-45 0 -65 -28 -65 -65c0 -36 20 -63 59 -63z" />
    <glyph glyph-name=".notdef" horiz-adv-x="725" 
d="M363 36c-182 0 -313 131 -313 313c0 181 131 312 313 312c181 0 312 -131 312 -312c0 -182 -131 -313 -312 -313zM311 307l95 1c0 19 12 33 26 49c20 23 43 50 43 98c0 70 -48 100 -187 100l-4 -98c48 0 69 -10 69 -32c0 -8 -2 -15 -6 -22c-12 -21 -36 -41 -36 -96z
M359 145c45 0 66 27 66 63c0 37 -21 65 -60 65c-45 0 -65 -28 -65 -65c0 -36 20 -63 59 -63z" />
    <glyph glyph-name="A" unicode="A" horiz-adv-x="681" 
d="M573 0l-78 210h-314l-79 -210h-80l271 701l94 5l272 -706h-86zM205 274h266l-132 355z" />
    <glyph glyph-name="Aacute" unicode="&#xc1;" horiz-adv-x="681" 
d="M479 833l-210 -90l-19 39l201 113zM573 0l-78 210h-314l-79 -210h-80l271 701l94 5l272 -706h-86zM205 274h266l-132 355z" />
    <glyph glyph-name="Abreve" unicode="&#x102;" horiz-adv-x="681" 
d="M340 766c-67 0 -124 35 -149 106l43 21c19 -39 59 -69 106 -69c48 0 87 30 106 69l43 -21c-25 -71 -82 -106 -149 -106zM573 0l-78 210h-314l-79 -210h-80l271 701l94 5l272 -706h-86zM205 274h266l-132 355z" />
    <glyph glyph-name="Acircumflex" unicode="&#xc2;" horiz-adv-x="681" 
d="M340 827l-139 -71l-21 36l160 107l161 -107l-21 -36zM573 0l-78 210h-314l-79 -210h-80l271 701l94 5l272 -706h-86zM205 274h266l-132 355z" />
    <glyph glyph-name="Adieresis" unicode="&#xc4;" horiz-adv-x="681" 
d="M241 782c-30 0 -47 20 -47 51s17 51 50 51c30 0 47 -20 47 -51s-17 -51 -50 -51zM436 782c-30 0 -47 20 -47 51s17 51 50 51c30 0 47 -20 47 -51s-17 -51 -50 -51zM573 0l-78 210h-314l-79 -210h-80l271 701l94 5l272 -706h-86zM205 274h266l-132 355z" />
    <glyph glyph-name="Agrave" unicode="&#xc0;" horiz-adv-x="681" 
d="M433 782l-19 -39l-210 90l28 62zM573 0l-78 210h-314l-79 -210h-80l271 701l94 5l272 -706h-86zM205 274h266l-132 355z" />
    <glyph glyph-name="Amacron" unicode="&#x100;" horiz-adv-x="681" 
d="M489 840l-1 -60h-298l1 60h298zM573 0l-78 210h-314l-79 -210h-80l271 701l94 5l272 -706h-86zM205 274h266l-132 355z" />
    <glyph glyph-name="Aogonek" unicode="&#x104;" horiz-adv-x="681" 
d="M642 -149l19 -36c-29 -23 -58 -35 -90 -35c-42 0 -81 19 -81 72c0 51 31 96 85 148h-2l-78 210h-314l-79 -210h-80l271 701l94 5l272 -706c-73 -58 -101 -94 -101 -137c0 -20 14 -30 31 -30c16 0 30 4 53 18zM205 274h266l-132 355z" />
    <glyph glyph-name="Aring" unicode="&#xc5;" horiz-adv-x="681" 
d="M574 -3l-80 213h-312l-81 -213l-79 3l263 669c-33 17 -53 49 -53 91c0 59 43 100 108 100c63 0 106 -41 106 -100c0 -41 -19 -73 -50 -90l263 -670zM340 814c-34 0 -53 -20 -53 -54c0 -36 19 -56 53 -56c32 0 52 20 52 56c0 34 -20 54 -52 54zM206 274h265l-132 351z" />
    <glyph glyph-name="Atilde" unicode="&#xc3;" horiz-adv-x="681" 
d="M268 796c-25 0 -42 -11 -69 -32l-25 37c36 39 68 52 100 52s60 -11 85 -22c20 -8 38 -15 54 -15c24 0 40 11 67 33l25 -37c-36 -39 -67 -52 -98 -52c-16 0 -31 3 -45 8c-32 11 -62 28 -94 28zM573 0l-78 210h-314l-79 -210h-80l271 701l94 5l272 -706h-86zM205 274h266
l-132 355z" />
    <glyph glyph-name="AE" unicode="&#xc6;" horiz-adv-x="764" 
d="M480 68h242v-68h-322v210h-219l-80 -213l-79 3l271 700h421v-68h-234v-236h208v-65h-208v-263zM205 274h195v358h-60z" />
    <glyph glyph-name="B" unicode="B" horiz-adv-x="526" 
d="M321 372c110 -21 167 -80 167 -179c0 -117 -82 -201 -259 -201c-30 0 -97 3 -152 8v700c40 5 93 8 126 8c144 0 228 -63 228 -178c0 -79 -40 -134 -110 -158zM352 520c0 82 -49 125 -149 125c-13 0 -30 -1 -46 -2v-251h26c116 0 169 42 169 128zM239 59
c110 0 163 44 163 133c0 98 -65 141 -214 141h-31v-270c33 -3 64 -4 82 -4z" />
    <glyph glyph-name="C" unicode="C" horiz-adv-x="623" 
d="M377 -13c-190 0 -335 134 -335 360c0 219 137 366 355 366c69 0 133 -15 185 -41l-25 -65c-48 22 -101 34 -157 34c-166 0 -274 -109 -274 -291c0 -178 103 -290 262 -290c63 0 129 18 178 43l25 -57c-51 -35 -134 -59 -214 -59z" />
    <glyph glyph-name="Cacute" unicode="&#x106;" horiz-adv-x="623" 
d="M280 782l201 113l28 -62l-210 -90zM377 -13c-190 0 -335 134 -335 360c0 219 137 366 355 366c69 0 133 -15 185 -41l-25 -65c-48 22 -101 34 -157 34c-166 0 -274 -109 -274 -291c0 -178 103 -290 262 -290c63 0 129 18 178 43l25 -57c-51 -35 -134 -59 -214 -59z" />
    <glyph glyph-name="Cacute.loclPLK" horiz-adv-x="623" 
d="M344 763l36 152l69 -12l-62 -148zM377 -13c-190 0 -335 134 -335 360c0 219 137 366 355 366c69 0 133 -15 185 -41l-25 -65c-48 22 -101 34 -157 34c-166 0 -274 -109 -274 -291c0 -178 103 -290 262 -290c63 0 129 18 178 43l25 -57c-51 -35 -134 -59 -214 -59z" />
    <glyph glyph-name="Ccaron" unicode="&#x10c;" horiz-adv-x="623" 
d="M531 855l-161 -107l-161 107l21 35l140 -71l139 71zM566 103l25 -57c-51 -35 -134 -59 -214 -59c-190 0 -335 134 -335 360c0 219 137 366 355 366c69 0 133 -15 185 -41l-25 -65c-48 22 -101 34 -157 34c-166 0 -274 -109 -274 -291c0 -178 103 -290 262 -290
c63 0 129 18 178 43z" />
    <glyph glyph-name="Ccedilla" unicode="&#xc7;" horiz-adv-x="623" 
d="M350 -60c63 1 94 -28 94 -74c0 -51 -40 -81 -102 -81c-31 0 -55 7 -78 20l17 36c17 -9 36 -14 56 -14c30 0 49 11 49 37c0 29 -24 43 -67 43c-3 0 -6 0 -9 -1h-9l-9 20l23 66c-159 26 -273 154 -273 355c0 219 137 366 355 366c69 0 133 -15 185 -41l-25 -65
c-48 22 -101 34 -157 34c-166 0 -274 -109 -274 -291c0 -178 103 -290 262 -290c63 0 129 18 178 43l25 -57c-51 -35 -134 -59 -214 -59h-15z" />
    <glyph glyph-name="Cdotaccent" unicode="&#x10a;" horiz-adv-x="623" 
d="M368 782c-31 0 -49 21 -49 53c0 33 18 53 52 53c32 0 49 -20 49 -53c0 -32 -17 -53 -52 -53zM377 -13c-190 0 -335 134 -335 360c0 219 137 366 355 366c69 0 133 -15 185 -41l-25 -65c-48 22 -101 34 -157 34c-166 0 -274 -109 -274 -291c0 -178 103 -290 262 -290
c63 0 129 18 178 43l25 -57c-51 -35 -134 -59 -214 -59z" />
    <glyph glyph-name="D" unicode="D" horiz-adv-x="673" 
d="M246 709c248 0 385 -120 385 -352c0 -231 -134 -366 -386 -366c-36 0 -111 3 -168 9v700c61 6 132 9 169 9zM246 60c200 0 300 93 300 290c0 202 -107 290 -300 290c-21 0 -54 -1 -89 -3v-575h12c32 -1 59 -2 77 -2z" />
    <glyph glyph-name="Eth" unicode="&#xd0;" horiz-adv-x="673" 
d="M246 709c248 0 385 -120 385 -352c0 -231 -134 -366 -386 -366c-36 0 -111 3 -168 9v324h-69l4 57h65v319c61 6 132 9 169 9zM246 60c200 0 300 93 300 290c0 202 -107 290 -300 290c-21 0 -54 -1 -89 -3v-256h174l-4 -57h-170v-262h12c32 -1 59 -2 77 -2z" />
    <glyph glyph-name="Dcaron" unicode="&#x10e;" horiz-adv-x="673" 
d="M473 855l-161 -107l-161 107l21 35l140 -71l139 71zM246 709c248 0 385 -120 385 -352c0 -231 -134 -366 -386 -366c-36 0 -111 3 -168 9v700c61 6 132 9 169 9zM246 60c200 0 300 93 300 290c0 202 -107 290 -300 290c-21 0 -54 -1 -89 -3v-575h12c32 -1 59 -2 77 -2z
" />
    <glyph glyph-name="Dcroat" unicode="&#x110;" horiz-adv-x="673" 
d="M246 709c248 0 385 -120 385 -352c0 -231 -134 -366 -386 -366c-36 0 -111 3 -168 9v324h-69l4 57h65v319c61 6 132 9 169 9zM246 60c200 0 300 93 300 290c0 202 -107 290 -300 290c-21 0 -54 -1 -89 -3v-256h174l-4 -57h-170v-262h12c32 -1 59 -2 77 -2z" />
    <glyph glyph-name="E" unicode="E" horiz-adv-x="456" 
d="M157 68h257v-68h-337v700h329v-68h-249v-236h223v-65h-223v-263z" />
    <glyph glyph-name="Eacute" unicode="&#xc9;" horiz-adv-x="456" 
d="M387 833l-210 -90l-19 39l201 113zM157 68h257v-68h-337v700h329v-68h-249v-236h223v-65h-223v-263z" />
    <glyph glyph-name="Ecaron" unicode="&#x11a;" horiz-adv-x="456" 
d="M409 855l-161 -107l-161 107l21 35l140 -71l139 71zM157 68h257v-68h-337v700h329v-68h-249v-236h223v-65h-223v-263z" />
    <glyph glyph-name="Ecircumflex" unicode="&#xca;" horiz-adv-x="456" 
d="M248 827l-139 -71l-21 36l160 107l161 -107l-21 -36zM157 68h257v-68h-337v700h329v-68h-249v-236h223v-65h-223v-263z" />
    <glyph glyph-name="Edieresis" unicode="&#xcb;" horiz-adv-x="456" 
d="M149 782c-30 0 -47 20 -47 51s17 51 50 51c30 0 47 -20 47 -51s-17 -51 -50 -51zM344 782c-30 0 -47 20 -47 51s17 51 50 51c30 0 47 -20 47 -51s-17 -51 -50 -51zM157 68h257v-68h-337v700h329v-68h-249v-236h223v-65h-223v-263z" />
    <glyph glyph-name="Edotaccent" unicode="&#x116;" horiz-adv-x="456" 
d="M246 782c-31 0 -49 21 -49 53c0 33 18 53 52 53c32 0 49 -20 49 -53c0 -32 -17 -53 -52 -53zM157 68h257v-68h-337v700h329v-68h-249v-236h223v-65h-223v-263z" />
    <glyph glyph-name="Egrave" unicode="&#xc8;" horiz-adv-x="456" 
d="M341 782l-19 -39l-210 90l28 62zM157 68h257v-68h-337v700h329v-68h-249v-236h223v-65h-223v-263z" />
    <glyph glyph-name="Emacron" unicode="&#x112;" horiz-adv-x="456" 
d="M397 840l-1 -60h-298l1 60h298zM157 68h257v-68h-337v700h329v-68h-249v-236h223v-65h-223v-263z" />
    <glyph glyph-name="Eogonek" unicode="&#x118;" horiz-adv-x="456" 
d="M399 -149l19 -36c-25 -22 -54 -35 -90 -35c-41 0 -80 19 -80 73c0 50 34 97 93 147h-264v700h329v-68h-249v-236h223v-65h-223v-263h257v-68c-70 -56 -99 -96 -99 -134c0 -25 13 -33 33 -33c15 0 30 5 51 18z" />
    <glyph glyph-name="F" unicode="F" horiz-adv-x="440" 
d="M410 632h-253v-257h219v-67h-219v-308h-80v700h333v-68z" />
    <glyph glyph-name="G" unicode="G" horiz-adv-x="703" 
d="M558 338h78v-308c-78 -28 -161 -43 -238 -43c-224 0 -356 128 -356 349c0 232 146 377 371 377c76 0 148 -17 203 -48l-25 -63c-48 24 -112 38 -175 38c-175 0 -290 -108 -290 -303c0 -180 99 -279 276 -279c48 0 99 7 156 23v257z" />
    <glyph glyph-name="Gbreve" unicode="&#x11e;" horiz-adv-x="703" 
d="M389 766c-67 0 -124 35 -149 106l43 21c19 -39 59 -69 106 -69c48 0 87 30 106 69l43 -21c-25 -71 -82 -106 -149 -106zM558 338h78v-308c-78 -28 -161 -43 -238 -43c-224 0 -356 128 -356 349c0 232 146 377 371 377c76 0 148 -17 203 -48l-25 -63
c-48 24 -112 38 -175 38c-175 0 -290 -108 -290 -303c0 -180 99 -279 276 -279c48 0 99 7 156 23v257z" />
    <glyph glyph-name="Gcommaaccent" unicode="&#x122;" horiz-adv-x="703" 
d="M558 338h78v-308c-78 -28 -161 -43 -238 -43c-224 0 -356 128 -356 349c0 232 146 377 371 377c76 0 148 -17 203 -48l-25 -63c-48 24 -112 38 -175 38c-175 0 -290 -108 -290 -303c0 -180 99 -279 276 -279c48 0 99 7 156 23v257zM378 -60c30 0 51 -19 51 -60
c0 -42 -30 -83 -92 -96l-10 22c33 14 50 32 54 54c-1 0 -3 0 -4 -1h-5c-24 0 -40 14 -40 40c0 28 20 41 46 41z" />
    <glyph glyph-name="Gdotaccent" unicode="&#x120;" horiz-adv-x="703" 
d="M387 782c-31 0 -49 21 -49 53c0 33 18 53 52 53c32 0 49 -20 49 -53c0 -32 -17 -53 -52 -53zM558 338h78v-308c-78 -28 -161 -43 -238 -43c-224 0 -356 128 -356 349c0 232 146 377 371 377c76 0 148 -17 203 -48l-25 -63c-48 24 -112 38 -175 38
c-175 0 -290 -108 -290 -303c0 -180 99 -279 276 -279c48 0 99 7 156 23v257z" />
    <glyph glyph-name="H" unicode="H" horiz-adv-x="681" 
d="M524 700h80v-700h-80v314h-367v-314h-80v700h80v-317h367v317z" />
    <glyph glyph-name="Hbar" unicode="&#x126;" horiz-adv-x="681" 
d="M639 591l-4 -55h-31v-536h-80v310h-367v-310h-80v536h-34l4 55h30v109h80v-109h367v109h80v-109h35zM524 379v157h-367v-157h367z" />
    <glyph glyph-name="I" unicode="I" horiz-adv-x="243" 
d="M162 0h-80v700h80v-700z" />
    <glyph glyph-name="Iacute" unicode="&#xcd;" horiz-adv-x="243" 
d="M32 782l201 113l28 -62l-210 -90zM162 0h-80v700h80v-700z" />
    <glyph glyph-name="Icircumflex" unicode="&#xce;" horiz-adv-x="243" 
d="M122 899l161 -107l-21 -36l-140 71l-139 -71l-21 36zM82 0v700h80v-700h-80z" />
    <glyph glyph-name="Idieresis" unicode="&#xcf;" horiz-adv-x="243" 
d="M42 787c-29 0 -45 19 -45 50s16 51 48 51c29 0 45 -20 45 -51s-16 -50 -48 -50zM199 787c-29 0 -45 19 -45 50s16 51 48 51c28 0 44 -20 44 -51s-16 -50 -47 -50zM162 0h-80v700h80v-700z" />
    <glyph glyph-name="Idotaccent" unicode="&#x130;" horiz-adv-x="243" 
d="M120 782c-31 0 -49 21 -49 53c0 33 18 53 52 53c32 0 49 -20 49 -53c0 -32 -17 -53 -52 -53zM162 0h-80v700h80v-700z" />
    <glyph glyph-name="Igrave" unicode="&#xcc;" horiz-adv-x="243" 
d="M215 782l-19 -39l-210 90l28 62zM162 0h-80v700h80v-700z" />
    <glyph glyph-name="Imacron" unicode="&#x12a;" horiz-adv-x="243" 
d="M6 881h232l-1 -59h-232zM162 0h-80v700h80v-700z" />
    <glyph glyph-name="Iogonek" unicode="&#x12e;" horiz-adv-x="243" 
d="M147 -149l19 -36c-25 -22 -54 -35 -90 -35c-41 0 -80 19 -80 73c0 50 34 97 93 147h-7v700h80v-700c-70 -56 -99 -96 -99 -134c0 -25 13 -33 33 -33c15 0 30 5 51 18z" />
    <glyph glyph-name="J" unicode="J" horiz-adv-x="271" 
d="M109 700h80v-613c0 -198 -83 -292 -236 -299l-6 72c112 10 162 72 162 224v616z" />
    <glyph glyph-name="Jacute" horiz-adv-x="271" 
d="M61 782l201 113l28 -62l-210 -90zM109 700h80v-613c0 -198 -83 -292 -236 -299l-6 72c112 10 162 72 162 224v616z" />
    <glyph glyph-name="K" unicode="K" horiz-adv-x="604" 
d="M500 -5l-239 308l-104 -140v-163h-80v700h80v-420l310 424l90 -4l-246 -330l285 -370z" />
    <glyph glyph-name="Kcommaaccent" unicode="&#x136;" horiz-adv-x="604" 
d="M311 370l285 -370l-96 -5l-239 308l-104 -140v-163h-80v700h80v-420l310 424l90 -4zM298 -60c30 0 51 -19 51 -60c0 -42 -30 -83 -92 -96l-10 22c33 14 50 32 54 54c-1 0 -3 0 -4 -1h-5c-24 0 -40 14 -40 40c0 28 20 41 46 41z" />
    <glyph glyph-name="L" unicode="L" horiz-adv-x="422" 
d="M157 68h250v-68h-330v700h80v-632z" />
    <glyph glyph-name="Lacute" unicode="&#x139;" horiz-adv-x="422" 
d="M244 895l28 -62l-210 -90l-19 39zM157 68h250v-68h-330v700h80v-632z" />
    <glyph glyph-name="Lcaron" unicode="&#x13d;" horiz-adv-x="422" 
d="M282 704l-9 -174h-52v170zM157 68h250v-68h-330v700h80v-632z" />
    <glyph glyph-name="Lcommaaccent" unicode="&#x13b;" horiz-adv-x="422" 
d="M157 68h250v-68h-330v700h80v-632zM233 -60c30 0 51 -19 51 -60c0 -42 -30 -83 -92 -96l-10 22c33 14 50 32 54 54c-1 0 -3 0 -4 -1h-5c-24 0 -40 14 -40 40c0 28 20 41 46 41z" />
    <glyph glyph-name="Ldot" unicode="&#x13f;" horiz-adv-x="461" 
d="M157 68h250v-68h-330v700h80v-632zM344 317c-33 0 -54 21 -54 53s21 53 55 53c33 0 54 -21 54 -53s-21 -53 -55 -53z" />
    <glyph glyph-name="Lslash" unicode="&#x141;" horiz-adv-x="427" 
d="M162 68h250v-68h-330v297l-33 -14l-19 48l52 22v347h80v-313l151 64l18 -49l-169 -71v-263z" />
    <glyph glyph-name="M" unicode="M" horiz-adv-x="913" 
d="M864 0l-84 -2l-77 614l-202 -583h-95l-201 584l-78 -615l-78 2l92 700l117 5l200 -588l203 588l110 -5z" />
    <glyph glyph-name="N" unicode="N" horiz-adv-x="700" 
d="M550 700h73v-700h-100l-372 606v-606h-74v700l107 5l366 -598v593z" />
    <glyph glyph-name="N.ss01" horiz-adv-x="700" 
d="M550 700h73v-700h-73v142l-324 352c-30 33 -54 60 -75 87v-581h-74v700l63 5l299 -324c47 -51 81 -92 111 -130v449z" />
    <glyph glyph-name="Nacute" unicode="&#x143;" horiz-adv-x="700" 
d="M492 833l-210 -90l-19 39l201 113zM550 700h73v-700h-100l-372 606v-606h-74v700l107 5l366 -598v593z" />
    <glyph glyph-name="Nacute.loclPLK" horiz-adv-x="700" 
d="M432 903l-62 -148l-43 8l36 152zM550 700h73v-700h-100l-372 606v-606h-74v700l107 5l366 -598v593z" />
    <glyph glyph-name="Nacute.loclPLK.ss01" horiz-adv-x="700" 
d="M429 903l-62 -148l-43 8l36 152zM550 700h73v-700h-73v142l-324 352c-30 33 -54 60 -75 87v-581h-74v700l63 5l299 -324c47 -51 81 -92 111 -130v449z" />
    <glyph glyph-name="Nacute.ss01" horiz-adv-x="700" 
d="M489 833l-210 -90l-19 39l201 113zM550 700h73v-700h-73v142l-324 352c-30 33 -54 60 -75 87v-581h-74v700l63 5l299 -324c47 -51 81 -92 111 -130v449z" />
    <glyph glyph-name="Ncaron" unicode="&#x147;" horiz-adv-x="700" 
d="M514 855l-161 -107l-161 107l21 35l140 -71l139 71zM550 700h73v-700h-100l-372 606v-606h-74v700l107 5l366 -598v593z" />
    <glyph glyph-name="Ncaron.ss01" horiz-adv-x="700" 
d="M511 855l-161 -107l-161 107l21 35l140 -71l139 71zM550 700h73v-700h-73v142l-324 352c-30 33 -54 60 -75 87v-581h-74v700l63 5l299 -324c47 -51 81 -92 111 -130v449z" />
    <glyph glyph-name="Ncommaaccent" unicode="&#x145;" horiz-adv-x="700" 
d="M550 700h73v-700h-100l-372 606v-606h-74v700l107 5l366 -598v593zM347 -60c30 0 51 -19 51 -60c0 -42 -30 -83 -92 -96l-10 22c33 14 50 32 54 54c-1 0 -3 0 -4 -1h-5c-24 0 -40 14 -40 40c0 28 20 41 46 41z" />
    <glyph glyph-name="Ncommaaccent.ss01" horiz-adv-x="700" 
d="M550 700h73v-700h-73v142l-324 352c-30 33 -54 60 -75 87v-581h-74v700l63 5l299 -324c47 -51 81 -92 111 -130v449zM347 -60c30 0 51 -19 51 -60c0 -42 -30 -83 -92 -96l-10 22c33 14 50 32 54 54c-1 0 -3 0 -4 -1h-5c-24 0 -40 14 -40 40c0 28 20 41 46 41z" />
    <glyph glyph-name="Eng" unicode="&#x14a;" horiz-adv-x="700" 
d="M550 700h73v-700c0 -141 -78 -207 -218 -213l-7 65c105 6 152 48 152 140v8h-27l-372 606v-606h-74v700l107 5l366 -598v593z" />
    <glyph glyph-name="Eng.ss01" horiz-adv-x="700" 
d="M550 700h73v-700c0 -141 -78 -207 -218 -213l-7 65c105 6 152 48 152 140v150l-324 352c-30 33 -54 60 -75 87v-581h-74v700l63 5l299 -324c47 -51 81 -92 111 -130v449z" />
    <glyph glyph-name="Ntilde" unicode="&#xd1;" horiz-adv-x="700" 
d="M281 796c-25 0 -42 -11 -69 -32l-25 37c36 39 68 52 100 52s60 -11 85 -22c20 -8 38 -15 54 -15c24 0 40 11 67 33l25 -37c-36 -39 -67 -52 -98 -52c-16 0 -31 3 -45 8c-32 11 -62 28 -94 28zM550 700h73v-700h-100l-372 606v-606h-74v700l107 5l366 -598v593z" />
    <glyph glyph-name="Ntilde.ss01" horiz-adv-x="700" 
d="M278 796c-25 0 -42 -11 -69 -32l-25 37c36 39 68 52 100 52s60 -11 85 -22c20 -8 38 -15 54 -15c24 0 40 11 67 33l25 -37c-36 -39 -67 -52 -98 -52c-16 0 -31 3 -45 8c-32 11 -62 28 -94 28zM550 700h73v-700h-73v142l-324 352c-30 33 -54 60 -75 87v-581h-74v700l63 5
l299 -324c47 -51 81 -92 111 -130v449z" />
    <glyph glyph-name="O" unicode="O" horiz-adv-x="778" 
d="M389 -15c-210 0 -347 142 -347 365c0 221 137 365 347 365s347 -142 347 -365c0 -221 -137 -365 -347 -365zM389 57c160 0 260 109 260 293c0 185 -100 295 -260 295s-260 -110 -260 -295c0 -184 100 -293 260 -293z" />
    <glyph glyph-name="Oacute" unicode="&#xd3;" horiz-adv-x="778" 
d="M299 782l201 113l28 -62l-210 -90zM389 -15c-210 0 -347 142 -347 365c0 221 137 365 347 365s347 -142 347 -365c0 -221 -137 -365 -347 -365zM389 57c160 0 260 109 260 293c0 185 -100 295 -260 295s-260 -110 -260 -295c0 -184 100 -293 260 -293z" />
    <glyph glyph-name="Oacute.loclPLK" horiz-adv-x="778" 
d="M363 763l36 152l69 -12l-62 -148zM389 -15c-210 0 -347 142 -347 365c0 221 137 365 347 365s347 -142 347 -365c0 -221 -137 -365 -347 -365zM389 57c160 0 260 109 260 293c0 185 -100 295 -260 295s-260 -110 -260 -295c0 -184 100 -293 260 -293z" />
    <glyph glyph-name="Ocircumflex" unicode="&#xd4;" horiz-adv-x="778" 
d="M389 827l-139 -71l-21 36l160 107l161 -107l-21 -36zM389 715c210 0 347 -142 347 -365c0 -221 -137 -365 -347 -365s-347 142 -347 365c0 221 137 365 347 365zM389 57c160 0 260 109 260 293c0 185 -100 295 -260 295s-260 -110 -260 -295c0 -184 100 -293 260 -293z
" />
    <glyph glyph-name="Odieresis" unicode="&#xd6;" horiz-adv-x="778" 
d="M290 782c-30 0 -47 20 -47 51s17 51 50 51c30 0 47 -20 47 -51s-17 -51 -50 -51zM485 782c-30 0 -47 20 -47 51s17 51 50 51c30 0 47 -20 47 -51s-17 -51 -50 -51zM389 -15c-210 0 -347 142 -347 365c0 221 137 365 347 365s347 -142 347 -365
c0 -221 -137 -365 -347 -365zM389 57c160 0 260 109 260 293c0 185 -100 295 -260 295s-260 -110 -260 -295c0 -184 100 -293 260 -293z" />
    <glyph glyph-name="Ograve" unicode="&#xd2;" horiz-adv-x="778" 
d="M482 782l-19 -39l-210 90l28 62zM389 -15c-210 0 -347 142 -347 365c0 221 137 365 347 365s347 -142 347 -365c0 -221 -137 -365 -347 -365zM389 57c160 0 260 109 260 293c0 185 -100 295 -260 295s-260 -110 -260 -295c0 -184 100 -293 260 -293z" />
    <glyph glyph-name="Ohungarumlaut" unicode="&#x150;" horiz-adv-x="778" 
d="M305 774l37 153l60 -12l-49 -150zM420 770l57 151l61 -13l-70 -148zM389 -15c-210 0 -347 142 -347 365c0 221 137 365 347 365s347 -142 347 -365c0 -221 -137 -365 -347 -365zM389 57c160 0 260 109 260 293c0 185 -100 295 -260 295s-260 -110 -260 -295
c0 -184 100 -293 260 -293z" />
    <glyph glyph-name="Omacron" unicode="&#x14c;" horiz-adv-x="778" 
d="M240 840h298l-1 -60h-298zM389 -15c-210 0 -347 142 -347 365c0 221 137 365 347 365s347 -142 347 -365c0 -221 -137 -365 -347 -365zM389 57c160 0 260 109 260 293c0 185 -100 295 -260 295s-260 -110 -260 -295c0 -184 100 -293 260 -293z" />
    <glyph glyph-name="Oslash" unicode="&#xd8;" horiz-adv-x="778" 
d="M643 615c59 -64 93 -154 93 -265c0 -221 -137 -365 -347 -365c-80 0 -150 21 -206 59l-39 -49l-49 40l40 50c-59 64 -93 154 -93 265c0 221 137 365 347 365c80 0 150 -21 205 -59l40 50l49 -41zM129 350c0 -83 21 -151 58 -201l359 448c-41 31 -95 48 -157 48
c-160 0 -260 -110 -260 -295zM389 57c160 0 260 109 260 293c0 83 -20 152 -57 201l-360 -447c42 -31 95 -47 157 -47z" />
    <glyph glyph-name="Otilde" unicode="&#xd5;" horiz-adv-x="778" 
d="M456 760c-26 0 -50 9 -73 19c-22 8 -44 17 -66 17c-25 0 -42 -11 -69 -32l-25 37c36 39 68 52 100 52s60 -11 85 -22c20 -8 38 -15 54 -15c24 0 40 11 67 33l25 -37c-36 -39 -67 -52 -98 -52zM389 -15c-210 0 -347 142 -347 365c0 221 137 365 347 365s347 -142 347 -365
c0 -221 -137 -365 -347 -365zM389 57c160 0 260 109 260 293c0 185 -100 295 -260 295s-260 -110 -260 -295c0 -184 100 -293 260 -293z" />
    <glyph glyph-name="OE" unicode="&#x152;" horiz-adv-x="973" 
d="M689 68h242v-68h-316v125c-50 -89 -135 -140 -248 -140c-189 0 -325 142 -325 365s137 365 325 365c113 0 198 -51 248 -139v124h308v-68h-234v-236h208v-65h-208v-263zM373 57c147 0 234 108 234 293s-87 295 -234 295c-146 0 -244 -110 -244 -295
c0 -184 98 -293 244 -293z" />
    <glyph glyph-name="P" unicode="P" horiz-adv-x="500" 
d="M212 708c168 0 262 -66 262 -215c0 -161 -106 -246 -291 -246h-26v-247h-80v700c47 5 105 8 135 8zM192 315c137 0 198 62 198 173s-58 153 -176 153c-14 0 -30 -1 -48 -2h-9v-324h35z" />
    <glyph glyph-name="Thorn" unicode="&#xde;" horiz-adv-x="499" 
d="M177 582c191 0 297 -62 297 -213c0 -152 -105 -232 -289 -232h-28v-137h-80v700h80v-118h20zM193 204c137 0 197 58 197 162c0 107 -71 148 -213 148h-20v-310h36z" />
    <glyph glyph-name="Q" unicode="Q" horiz-adv-x="778" 
d="M997 -135l16 -65c-51 -10 -98 -15 -143 -15c-163 0 -289 68 -389 210c-29 -7 -59 -10 -92 -10c-210 0 -347 142 -347 365c0 221 137 365 347 365s347 -142 347 -365c0 -156 -68 -274 -182 -329c84 -112 184 -167 325 -167c36 0 76 4 118 11zM129 350
c0 -184 100 -293 260 -293s260 109 260 293c0 185 -100 295 -260 295s-260 -110 -260 -295z" />
    <glyph glyph-name="Q.ss01" horiz-adv-x="778" 
d="M783 -139l13 -67c-31 -7 -60 -11 -89 -11c-137 0 -244 82 -314 202h-4c-210 0 -347 142 -347 365c0 221 137 365 347 365s347 -142 347 -365c0 -189 -100 -322 -261 -356c57 -83 138 -141 242 -141c21 0 43 3 66 8zM129 350c0 -184 100 -293 260 -293s260 109 260 293
c0 185 -100 295 -260 295s-260 -110 -260 -295z" />
    <glyph glyph-name="R" unicode="R" horiz-adv-x="551" 
d="M534 0l-89 -5l-160 267c-24 -5 -50 -8 -76 -8h-52v-254h-80v700c46 5 110 9 146 9c158 0 254 -70 254 -215c0 -99 -47 -168 -119 -206zM157 320h57c112 0 179 60 179 170c0 101 -57 152 -170 152c-20 0 -42 0 -66 -3v-319z" />
    <glyph glyph-name="Racute" unicode="&#x154;" horiz-adv-x="551" 
d="M402 833l-210 -90l-19 39l201 113zM534 0l-89 -5l-160 267c-24 -5 -50 -8 -76 -8h-52v-254h-80v700c46 5 110 9 146 9c158 0 254 -70 254 -215c0 -99 -47 -168 -119 -206zM157 320h57c112 0 179 60 179 170c0 101 -57 152 -170 152c-20 0 -42 0 -66 -3v-319z" />
    <glyph glyph-name="Rcaron" unicode="&#x158;" horiz-adv-x="551" 
d="M424 855l-161 -107l-161 107l21 35l140 -71l139 71zM534 0l-89 -5l-160 267c-24 -5 -50 -8 -76 -8h-52v-254h-80v700c46 5 110 9 146 9c158 0 254 -70 254 -215c0 -99 -47 -168 -119 -206zM157 320h57c112 0 179 60 179 170c0 101 -57 152 -170 152c-20 0 -42 0 -66 -3
v-319z" />
    <glyph glyph-name="Rcommaaccent" unicode="&#x156;" horiz-adv-x="551" 
d="M358 288l176 -288l-89 -5l-160 267c-24 -5 -50 -8 -76 -8h-52v-254h-80v700c46 5 110 9 146 9c158 0 254 -70 254 -215c0 -99 -47 -168 -119 -206zM157 320h57c112 0 179 60 179 170c0 101 -57 152 -170 152c-20 0 -42 0 -66 -3v-319zM267 -60c30 0 51 -19 51 -60
c0 -42 -30 -83 -92 -96l-10 22c33 14 50 32 54 54c-1 0 -3 0 -4 -1h-5c-24 0 -40 14 -40 40c0 28 20 41 46 41z" />
    <glyph glyph-name="S" unicode="S" horiz-adv-x="474" 
d="M221 -12c-63 0 -123 20 -172 54l24 61c54 -30 101 -45 148 -45c80 0 124 45 124 112c0 78 -62 120 -126 165c-71 48 -145 99 -146 203c-1 103 70 175 195 175c47 0 91 -11 133 -31l-24 -62c-35 17 -75 26 -109 26c-74 0 -117 -40 -117 -100c0 -72 60 -113 124 -156
c74 -50 153 -104 153 -214s-84 -188 -207 -188z" />
    <glyph glyph-name="Sacute" unicode="&#x15a;" horiz-adv-x="474" 
d="M169 782l201 113l28 -62l-210 -90zM221 -12c-63 0 -123 20 -172 54l24 61c54 -30 101 -45 148 -45c80 0 124 45 124 112c0 78 -62 120 -126 165c-71 48 -145 99 -146 203c-1 103 70 175 195 175c47 0 91 -11 133 -31l-24 -62c-35 17 -75 26 -109 26
c-74 0 -117 -40 -117 -100c0 -72 60 -113 124 -156c74 -50 153 -104 153 -214s-84 -188 -207 -188z" />
    <glyph glyph-name="Sacute.loclPLK" horiz-adv-x="474" 
d="M233 763l36 152l69 -12l-62 -148zM221 -12c-63 0 -123 20 -172 54l24 61c54 -30 101 -45 148 -45c80 0 124 45 124 112c0 78 -62 120 -126 165c-71 48 -145 99 -146 203c-1 103 70 175 195 175c47 0 91 -11 133 -31l-24 -62c-35 17 -75 26 -109 26
c-74 0 -117 -40 -117 -100c0 -72 60 -113 124 -156c74 -50 153 -104 153 -214s-84 -188 -207 -188z" />
    <glyph glyph-name="Scaron" unicode="&#x160;" horiz-adv-x="474" 
d="M420 855l-161 -107l-161 107l21 35l140 -71l139 71zM151 546c0 -72 60 -113 124 -156c74 -50 153 -104 153 -214s-84 -188 -207 -188c-63 0 -123 20 -172 54l24 61c54 -30 101 -45 148 -45c80 0 124 45 124 112c0 78 -62 120 -126 165c-71 48 -145 99 -146 203
c-1 103 70 175 195 175c47 0 91 -11 133 -31l-24 -62c-35 17 -75 26 -109 26c-74 0 -117 -40 -117 -100z" />
    <glyph glyph-name="Scedilla" unicode="&#x15e;" horiz-adv-x="474" 
d="M428 176c0 -102 -72 -176 -181 -187l-12 -49c63 1 94 -28 94 -74c0 -51 -40 -81 -102 -81c-31 0 -55 7 -78 20l17 36c17 -9 36 -14 56 -14c30 0 49 11 49 37c0 29 -24 43 -67 43c-3 0 -6 0 -9 -1h-9l-9 20l22 63c-55 4 -107 23 -150 53l24 61c54 -30 101 -45 148 -45
c80 0 124 45 124 112c0 78 -62 120 -126 165c-71 48 -145 99 -146 203c-1 103 70 175 195 175c47 0 91 -11 133 -31l-24 -62c-35 17 -75 26 -109 26c-74 0 -117 -40 -117 -100c0 -53 32 -89 75 -121c82 -63 202 -114 202 -249z" />
    <glyph glyph-name="Scommaaccent" unicode="&#x218;" horiz-adv-x="474" 
d="M151 546c0 -72 60 -113 124 -156c74 -50 153 -104 153 -214s-84 -188 -207 -188c-63 0 -123 20 -172 54l24 61c54 -30 101 -45 148 -45c80 0 124 45 124 112c0 78 -62 120 -126 165c-71 48 -145 99 -146 203c-1 103 70 175 195 175c47 0 91 -11 133 -31l-24 -62
c-35 17 -75 26 -109 26c-74 0 -117 -40 -117 -100zM228 -60c30 0 51 -19 51 -60c0 -42 -30 -83 -92 -96l-10 22c33 14 50 32 54 54c-1 0 -3 0 -4 -1h-5c-24 0 -40 14 -40 40c0 28 20 41 46 41z" />
    <glyph glyph-name="T" unicode="T" horiz-adv-x="539" 
d="M534 700v-69h-224v-631h-80v631h-225v69h529z" />
    <glyph glyph-name="Tbar" unicode="&#x166;" horiz-adv-x="539" 
d="M534 631h-224v-250h122l-4 -57h-118v-324h-80v324h-121l4 57h117v250h-225v69h529v-69z" />
    <glyph glyph-name="Tcaron" unicode="&#x164;" horiz-adv-x="539" 
d="M432 855l-161 -107l-161 107l21 35l140 -71l139 71zM534 700v-69h-224v-631h-80v631h-225v69h529z" />
    <glyph glyph-name="uni0162" unicode="&#x162;" horiz-adv-x="539" 
d="M310 0h-20l-15 -60c63 1 94 -28 94 -74c0 -51 -40 -81 -102 -81c-31 0 -55 7 -78 20l17 36c17 -9 36 -14 56 -14c30 0 49 11 49 37c0 29 -24 43 -67 43c-3 0 -6 0 -9 -1h-9l-9 20l26 74h-13v631h-225v69h529v-69h-224v-631z" />
    <glyph glyph-name="uni021A" unicode="&#x21a;" horiz-adv-x="539" 
d="M534 700v-69h-224v-631h-80v631h-225v69h529zM268 -60c30 0 51 -19 51 -60c0 -42 -30 -83 -92 -96l-10 22c33 14 50 32 54 54c-1 0 -3 0 -4 -1h-5c-24 0 -40 14 -40 40c0 28 20 41 46 41z" />
    <glyph glyph-name="U" unicode="U" horiz-adv-x="671" 
d="M519 700h80v-458c0 -167 -112 -254 -265 -254s-262 85 -262 254v458h80v-444c0 -127 66 -194 183 -194s184 69 184 194v444z" />
    <glyph glyph-name="Uacute" unicode="&#xda;" horiz-adv-x="671" 
d="M250 782l201 113l28 -62l-210 -90zM519 700h80v-458c0 -167 -112 -254 -265 -254s-262 85 -262 254v458h80v-444c0 -127 66 -194 183 -194s184 69 184 194v444z" />
    <glyph glyph-name="Ucircumflex" unicode="&#xdb;" horiz-adv-x="671" 
d="M340 827l-139 -71l-21 36l160 107l161 -107l-21 -36zM519 700h80v-458c0 -167 -112 -254 -265 -254s-262 85 -262 254v458h80v-444c0 -127 66 -194 183 -194s184 69 184 194v444z" />
    <glyph glyph-name="Udieresis" unicode="&#xdc;" horiz-adv-x="671" 
d="M241 782c-30 0 -47 20 -47 51s17 51 50 51c30 0 47 -20 47 -51s-17 -51 -50 -51zM436 782c-30 0 -47 20 -47 51s17 51 50 51c30 0 47 -20 47 -51s-17 -51 -50 -51zM519 700h80v-458c0 -167 -112 -254 -265 -254s-262 85 -262 254v458h80v-444c0 -127 66 -194 183 -194
s184 69 184 194v444z" />
    <glyph glyph-name="Ugrave" unicode="&#xd9;" horiz-adv-x="671" 
d="M423 819l-21 -38l-189 101l32 59zM519 700h80v-458c0 -167 -112 -254 -265 -254s-262 85 -262 254v458h80v-444c0 -127 66 -194 183 -194s184 69 184 194v444z" />
    <glyph glyph-name="Uhungarumlaut" unicode="&#x170;" horiz-adv-x="671" 
d="M256 774l37 153l60 -12l-49 -150zM371 770l57 151l61 -13l-70 -148zM519 700h80v-458c0 -167 -112 -254 -265 -254s-262 85 -262 254v458h80v-444c0 -127 66 -194 183 -194s184 69 184 194v444z" />
    <glyph glyph-name="Umacron" unicode="&#x16a;" horiz-adv-x="671" 
d="M191 840h298l-1 -60h-298zM519 700h80v-458c0 -167 -112 -254 -265 -254s-262 85 -262 254v458h80v-444c0 -127 66 -194 183 -194s184 69 184 194v444z" />
    <glyph glyph-name="Uogonek" unicode="&#x172;" horiz-adv-x="671" 
d="M519 700h80v-458c0 -94 -35 -162 -93 -204c-104 -84 -143 -124 -143 -176c0 -19 13 -29 31 -29c17 0 32 5 53 18l19 -36c-26 -22 -57 -35 -91 -35c-40 0 -80 19 -80 71c0 49 30 93 82 139c-14 -1 -28 -2 -43 -2c-153 0 -262 85 -262 254v458h80v-444
c0 -127 66 -194 183 -194s184 69 184 194v444z" />
    <glyph glyph-name="Uring" unicode="&#x16e;" horiz-adv-x="671" 
d="M340 696c-63 0 -105 39 -105 99c0 58 42 97 105 97c62 0 104 -39 104 -97c0 -60 -42 -99 -104 -99zM340 739c32 0 52 20 52 56c0 34 -20 54 -52 54c-33 0 -53 -20 -53 -54c0 -36 20 -56 53 -56zM519 700h80v-458c0 -167 -112 -254 -265 -254s-262 85 -262 254v458h80
v-444c0 -127 66 -194 183 -194s184 69 184 194v444z" />
    <glyph glyph-name="V" unicode="V" horiz-adv-x="627" 
d="M539 705l83 -5l-271 -705h-76l-270 705l89 5l223 -609z" />
    <glyph glyph-name="W" unicode="W" horiz-adv-x="1012" 
d="M925 704l82 -4l-276 -706h-70l-147 389l-168 -389h-64l-277 706l87 4l230 -607l159 374l-87 229l87 1l218 -593z" />
    <glyph glyph-name="Wacute" unicode="&#x1e82;" horiz-adv-x="1012" 
d="M613 882l-190 -101l-21 38l179 122zM925 704l82 -4l-276 -706h-70l-147 389l-168 -389h-64l-277 706l87 4l230 -607l159 374l-87 229l87 1l218 -593z" />
    <glyph glyph-name="Wcircumflex" unicode="&#x174;" horiz-adv-x="1012" 
d="M486 827l-139 -71l-21 36l160 107l161 -107l-21 -36zM925 704l82 -4l-276 -706h-70l-147 389l-168 -389h-64l-277 706l87 4l230 -607l159 374l-87 229l87 1l218 -593z" />
    <glyph glyph-name="Wdieresis" unicode="&#x1e84;" horiz-adv-x="1012" 
d="M387 782c-30 0 -47 20 -47 51s17 51 50 51c30 0 47 -20 47 -51s-17 -51 -50 -51zM582 782c-30 0 -47 20 -47 51s17 51 50 51c30 0 47 -20 47 -51s-17 -51 -50 -51zM925 704l82 -4l-276 -706h-70l-147 389l-168 -389h-64l-277 706l87 4l230 -607l159 374l-87 229l87 1
l218 -593z" />
    <glyph glyph-name="Wgrave" unicode="&#x1e80;" horiz-adv-x="1012" 
d="M579 782l-19 -39l-210 90l28 62zM925 704l82 -4l-276 -706h-70l-147 389l-168 -389h-64l-277 706l87 4l230 -607l159 374l-87 229l87 1l218 -593z" />
    <glyph glyph-name="X" unicode="X" horiz-adv-x="611" 
d="M603 0l-95 -4l-205 299l-209 -299l-86 4l253 355l-237 345l94 4l196 -285l195 285l85 -4l-238 -342z" />
    <glyph glyph-name="Y" unicode="Y" horiz-adv-x="603" 
d="M605 700l-262 -395v-305h-80v302l-265 398l92 4l215 -327l217 327z" />
    <glyph glyph-name="Yacute" unicode="&#xdd;" horiz-adv-x="603" 
d="M428 882l-190 -101l-21 38l179 122zM605 700l-262 -395v-305h-80v302l-265 398l92 4l215 -327l217 327z" />
    <glyph glyph-name="Ycircumflex" unicode="&#x176;" horiz-adv-x="603" 
d="M301 827l-139 -71l-21 36l160 107l161 -107l-21 -36zM605 700l-262 -395v-305h-80v302l-265 398l92 4l215 -327l217 327z" />
    <glyph glyph-name="Ydieresis" unicode="&#x178;" horiz-adv-x="603" 
d="M202 782c-30 0 -47 20 -47 51s17 51 50 51c30 0 47 -20 47 -51s-17 -51 -50 -51zM397 782c-30 0 -47 20 -47 51s17 51 50 51c30 0 47 -20 47 -51s-17 -51 -50 -51zM605 700l-262 -395v-305h-80v302l-265 398l92 4l215 -327l217 327z" />
    <glyph glyph-name="Ygrave" unicode="&#x1ef2;" horiz-adv-x="603" 
d="M384 819l-21 -38l-189 101l32 59zM605 700l-262 -395v-305h-80v302l-265 398l92 4l215 -327l217 327z" />
    <glyph glyph-name="Z" unicode="Z" horiz-adv-x="544" 
d="M128 68h385v-68h-476l-5 55l373 577h-348v68h442l6 -55z" />
    <glyph glyph-name="Zacute" unicode="&#x179;" horiz-adv-x="544" 
d="M401 882l-190 -101l-21 38l179 122zM128 68h385v-68h-476l-5 55l373 577h-348v68h442l6 -55z" />
    <glyph glyph-name="Zacute.loclPLK" horiz-adv-x="544" 
d="M353 903l-62 -148l-43 8l36 152zM128 68h385v-68h-476l-5 55l373 577h-348v68h442l6 -55z" />
    <glyph glyph-name="Zcaron" unicode="&#x17d;" horiz-adv-x="544" 
d="M435 855l-161 -107l-161 107l21 35l140 -71l139 71zM128 68h385v-68h-476l-5 55l373 577h-348v68h442l6 -55z" />
    <glyph glyph-name="Zdotaccent" unicode="&#x17b;" horiz-adv-x="544" 
d="M272 782c-31 0 -49 21 -49 53c0 33 18 53 52 53c32 0 49 -20 49 -53c0 -32 -17 -53 -52 -53zM128 68h385v-68h-476l-5 55l373 577h-348v68h442l6 -55z" />
    <glyph glyph-name="a" unicode="a" horiz-adv-x="510" 
d="M444 0l-74 -7c-6 23 -11 55 -12 92c-34 -62 -94 -99 -171 -99c-88 0 -140 48 -140 130c0 120 112 168 311 170v14c0 96 -40 135 -121 135c-43 0 -87 -10 -134 -39l-23 58c55 34 116 49 174 49c118 0 178 -60 178 -196v-211c0 -33 4 -62 12 -96zM212 45
c81 0 146 66 146 170v17c-166 -2 -234 -35 -234 -111c0 -52 34 -76 88 -76z" />
    <glyph glyph-name="aacute" unicode="&#xe1;" horiz-adv-x="510" 
d="M381 674l-190 -101l-21 38l179 122zM444 0l-74 -7c-6 23 -11 55 -12 92c-34 -62 -94 -99 -171 -99c-88 0 -140 48 -140 130c0 120 112 168 311 170v14c0 96 -40 135 -121 135c-43 0 -87 -10 -134 -39l-23 58c55 34 116 49 174 49c118 0 178 -60 178 -196v-211
c0 -33 4 -62 12 -96zM212 45c81 0 146 66 146 170v17c-166 -2 -234 -35 -234 -111c0 -52 34 -76 88 -76z" />
    <glyph glyph-name="abreve" unicode="&#x103;" horiz-adv-x="510" 
d="M254 587c-64 0 -114 36 -138 115l42 22c20 -47 52 -79 96 -79s76 32 96 79l42 -22c-24 -79 -74 -115 -138 -115zM444 0l-74 -7c-6 23 -11 55 -12 92c-34 -62 -94 -99 -171 -99c-88 0 -140 48 -140 130c0 120 112 168 311 170v14c0 96 -40 135 -121 135
c-43 0 -87 -10 -134 -39l-23 58c55 34 116 49 174 49c118 0 178 -60 178 -196v-211c0 -33 4 -62 12 -96zM212 45c81 0 146 66 146 170v17c-166 -2 -234 -35 -234 -111c0 -52 34 -76 88 -76z" />
    <glyph glyph-name="acircumflex" unicode="&#xe2;" horiz-adv-x="510" 
d="M254 652l-119 -81l-21 35l140 123l141 -123l-21 -35zM444 0l-74 -7c-6 23 -11 55 -12 92c-34 -62 -94 -99 -171 -99c-88 0 -140 48 -140 130c0 120 112 168 311 170v14c0 96 -40 135 -121 135c-43 0 -87 -10 -134 -39l-23 58c55 34 116 49 174 49c118 0 178 -60 178 -196
v-211c0 -33 4 -62 12 -96zM212 45c81 0 146 66 146 170v17c-166 -2 -234 -35 -234 -111c0 -52 34 -76 88 -76z" />
    <glyph glyph-name="adieresis" unicode="&#xe4;" horiz-adv-x="510" 
d="M155 609c-30 0 -47 19 -47 50s17 51 50 51c30 0 47 -20 47 -51s-17 -50 -50 -50zM350 609c-30 0 -47 19 -47 50s17 51 50 51c30 0 47 -20 47 -51s-17 -50 -50 -50zM444 0l-74 -7c-6 23 -11 55 -12 92c-34 -62 -94 -99 -171 -99c-88 0 -140 48 -140 130
c0 120 112 168 311 170v14c0 96 -40 135 -121 135c-43 0 -87 -10 -134 -39l-23 58c55 34 116 49 174 49c118 0 178 -60 178 -196v-211c0 -33 4 -62 12 -96zM212 45c81 0 146 66 146 170v17c-166 -2 -234 -35 -234 -111c0 -52 34 -76 88 -76z" />
    <glyph glyph-name="agrave" unicode="&#xe0;" horiz-adv-x="510" 
d="M337 611l-21 -38l-189 101l32 59zM444 0l-74 -7c-6 23 -11 55 -12 92c-34 -62 -94 -99 -171 -99c-88 0 -140 48 -140 130c0 120 112 168 311 170v14c0 96 -40 135 -121 135c-43 0 -87 -10 -134 -39l-23 58c55 34 116 49 174 49c118 0 178 -60 178 -196v-211
c0 -33 4 -62 12 -96zM212 45c81 0 146 66 146 170v17c-166 -2 -234 -35 -234 -111c0 -52 34 -76 88 -76z" />
    <glyph glyph-name="amacron" unicode="&#x101;" horiz-adv-x="510" 
d="M403 674l-1 -60h-298l1 60h298zM444 0l-74 -7c-6 23 -11 55 -12 92c-34 -62 -94 -99 -171 -99c-88 0 -140 48 -140 130c0 120 112 168 311 170v14c0 96 -40 135 -121 135c-43 0 -87 -10 -134 -39l-23 58c55 34 116 49 174 49c118 0 178 -60 178 -196v-211
c0 -33 4 -62 12 -96zM212 45c81 0 146 66 146 170v17c-166 -2 -234 -35 -234 -111c0 -52 34 -76 88 -76z" />
    <glyph glyph-name="aogonek" unicode="&#x105;" horiz-adv-x="510" 
d="M431 -144l19 -36c-25 -22 -54 -35 -90 -35c-41 0 -80 19 -80 73c0 49 32 94 88 143c-5 23 -9 51 -10 84c-34 -62 -94 -99 -171 -99c-88 0 -140 48 -140 130c0 120 112 168 311 170v14c0 96 -40 135 -121 135c-43 0 -87 -10 -134 -39l-23 58c55 34 116 49 174 49
c118 0 178 -60 178 -196v-211c0 -31 4 -59 11 -90l3 -1l-3 -2c1 -1 1 -2 1 -3h-5c-65 -54 -92 -92 -92 -129c0 -25 13 -33 33 -33c15 0 30 5 51 18zM212 45c81 0 146 66 146 170v17c-166 -2 -234 -35 -234 -111c0 -52 34 -76 88 -76z" />
    <glyph glyph-name="aring" unicode="&#xe5;" horiz-adv-x="510" 
d="M254 555c-62 0 -103 39 -103 98c0 58 41 97 103 97c61 0 102 -39 102 -97c0 -59 -41 -98 -102 -98zM254 707c-33 0 -53 -20 -53 -54c0 -35 20 -55 53 -55c32 0 52 20 52 55c0 34 -20 54 -52 54zM444 0l-74 -7c-6 23 -11 55 -12 92c-34 -62 -94 -99 -171 -99
c-88 0 -140 48 -140 130c0 120 112 168 311 170v14c0 96 -40 135 -121 135c-43 0 -87 -10 -134 -39l-23 58c55 34 116 49 174 49c118 0 178 -60 178 -196v-211c0 -33 4 -62 12 -96zM212 45c81 0 146 66 146 170v17c-166 -2 -234 -35 -234 -111c0 -52 34 -76 88 -76z" />
    <glyph glyph-name="atilde" unicode="&#xe3;" horiz-adv-x="510" 
d="M194 640c-23 0 -39 -11 -64 -32l-26 37c35 39 66 52 96 52c32 0 53 -11 71 -22c15 -8 28 -15 44 -15c23 0 38 11 63 33l25 -37c-34 -40 -63 -52 -94 -52c-16 0 -29 4 -40 9c-25 10 -43 27 -75 27zM444 0l-74 -7c-6 23 -11 55 -12 92c-34 -62 -94 -99 -171 -99
c-88 0 -140 48 -140 130c0 120 112 168 311 170v14c0 96 -40 135 -121 135c-43 0 -87 -10 -134 -39l-23 58c55 34 116 49 174 49c118 0 178 -60 178 -196v-211c0 -33 4 -62 12 -96zM212 45c81 0 146 66 146 170v17c-166 -2 -234 -35 -234 -111c0 -52 34 -76 88 -76z" />
    <glyph glyph-name="ae" unicode="&#xe6;" horiz-adv-x="778" 
d="M574 55c43 0 88 11 133 34l22 -55c-49 -30 -112 -47 -169 -47c-84 0 -147 38 -183 120c-38 -77 -106 -121 -188 -121c-93 0 -147 48 -147 129c0 117 110 164 311 167v18c0 96 -41 135 -127 135c-42 0 -83 -10 -128 -38l-22 57c52 33 108 49 164 49c83 0 136 -29 162 -98
c38 65 99 98 175 98c86 0 156 -50 156 -133c0 -100 -71 -137 -260 -137h-48c2 -119 48 -178 149 -178zM568 444c-80 0 -131 -56 -141 -163h48c138 0 181 18 181 85c0 45 -34 78 -88 78zM203 45c92 0 150 72 150 174v15c-167 -2 -236 -36 -236 -111c0 -54 32 -78 86 -78z" />
    <glyph glyph-name="b" unicode="b" horiz-adv-x="574" 
d="M334 503c113 0 188 -80 188 -227c0 -182 -91 -286 -243 -286c-62 0 -130 14 -193 45v685l74 5v-334c36 73 95 112 174 112zM291 55c100 0 152 78 152 211c0 110 -45 172 -131 172c-92 0 -152 -82 -152 -257v-100c45 -18 89 -26 131 -26z" />
    <glyph glyph-name="c" unicode="c" horiz-adv-x="499" 
d="M458 34c-40 -28 -98 -47 -165 -47c-146 0 -240 92 -240 248c0 164 99 268 253 268c53 0 104 -12 144 -37l-23 -61c-36 21 -73 32 -119 32c-107 0 -176 -66 -176 -191c0 -124 64 -190 176 -190c51 0 94 13 126 33z" />
    <glyph glyph-name="cacute" unicode="&#x107;" horiz-adv-x="499" 
d="M212 611l179 122l32 -59l-190 -101zM458 34c-40 -28 -98 -47 -165 -47c-146 0 -240 92 -240 248c0 164 99 268 253 268c53 0 104 -12 144 -37l-23 -61c-36 21 -73 32 -119 32c-107 0 -176 -66 -176 -191c0 -124 64 -190 176 -190c51 0 94 13 126 33z" />
    <glyph glyph-name="cacute.loclPLK" horiz-adv-x="499" 
d="M267 582l42 174l67 -14l-67 -167zM458 34c-40 -28 -98 -47 -165 -47c-146 0 -240 92 -240 248c0 164 99 268 253 268c53 0 104 -12 144 -37l-23 -61c-36 21 -73 32 -119 32c-107 0 -176 -66 -176 -191c0 -124 64 -190 176 -190c51 0 94 13 126 33z" />
    <glyph glyph-name="ccaron" unicode="&#x10d;" horiz-adv-x="499" 
d="M437 694l-141 -123l-141 123l22 35l119 -81l120 81zM434 89l24 -55c-40 -28 -98 -47 -165 -47c-146 0 -240 92 -240 248c0 164 99 268 253 268c53 0 104 -12 144 -37l-23 -61c-36 21 -73 32 -119 32c-107 0 -176 -66 -176 -191c0 -124 64 -190 176 -190
c51 0 94 13 126 33z" />
    <glyph glyph-name="ccedilla" unicode="&#xe7;" horiz-adv-x="499" 
d="M300 -60c63 1 94 -28 94 -74c0 -51 -40 -81 -102 -81c-31 0 -55 7 -78 20l17 36c17 -9 36 -14 56 -14c30 0 49 11 49 37c0 29 -24 43 -67 43c-3 0 -6 0 -9 -1h-9l-9 20l22 62c-129 12 -211 102 -211 247c0 164 99 268 253 268c53 0 104 -12 144 -37l-23 -61
c-36 21 -73 32 -119 32c-107 0 -176 -66 -176 -191c0 -124 64 -190 176 -190c51 0 94 13 126 33l24 -55c-36 -25 -87 -43 -146 -46z" />
    <glyph glyph-name="cdotaccent" unicode="&#x10b;" horiz-adv-x="499" 
d="M294 616c-31 0 -49 21 -49 53s18 53 52 53c32 0 49 -21 49 -53s-17 -53 -52 -53zM458 34c-40 -28 -98 -47 -165 -47c-146 0 -240 92 -240 248c0 164 99 268 253 268c53 0 104 -12 144 -37l-23 -61c-36 21 -73 32 -119 32c-107 0 -176 -66 -176 -191
c0 -124 64 -190 176 -190c51 0 94 13 126 33z" />
    <glyph glyph-name="d" unicode="d" horiz-adv-x="573" 
d="M412 720l75 5v-725h-75v90c-33 -67 -89 -101 -162 -101c-125 0 -197 96 -197 248c0 170 89 266 219 266c50 0 92 -14 140 -47v264zM271 57c87 0 141 71 141 202v125c-45 36 -88 54 -139 54c-89 0 -141 -67 -141 -194c0 -118 48 -187 139 -187z" />
    <glyph glyph-name="eth" unicode="&#xf0;" horiz-adv-x="577" 
d="M374 621c117 -119 150 -245 150 -360c0 -185 -88 -274 -234 -274c-151 0 -237 95 -237 252c0 159 94 260 228 260c55 0 101 -17 137 -53c-23 51 -59 103 -110 155l-150 -46l-5 44l118 36c-33 29 -70 57 -114 85l89 5c34 -23 65 -46 91 -69l119 36l5 -45zM290 47
c98 0 154 70 154 195s-58 197 -156 197c-97 0 -154 -70 -154 -195c0 -127 58 -197 156 -197z" />
    <glyph glyph-name="dcaron" unicode="&#x10f;" horiz-adv-x="573" 
d="M548 722l61 4l-9 -174h-52v170zM412 456v264l75 5v-725h-75v90c-33 -67 -89 -101 -162 -101c-125 0 -197 96 -197 248c0 170 89 266 219 266c50 0 92 -14 140 -47zM271 57c87 0 141 71 141 202v125c-45 36 -88 54 -139 54c-89 0 -141 -67 -141 -194
c0 -118 48 -187 139 -187z" />
    <glyph glyph-name="dcroat" unicode="&#x111;" horiz-adv-x="573" 
d="M572 631l-4 -57h-81v-574h-75v90c-33 -67 -89 -101 -162 -101c-125 0 -197 96 -197 248c0 170 89 266 219 266c50 0 92 -14 140 -47v118h-163l4 57h159v89l75 5v-94h85zM271 57c87 0 141 71 141 202v125c-45 36 -88 54 -139 54c-89 0 -141 -67 -141 -194
c0 -118 48 -187 139 -187z" />
    <glyph glyph-name="e" unicode="e" horiz-adv-x="485" 
d="M278 55c43 0 92 11 136 33l24 -54c-51 -30 -113 -47 -173 -47c-130 0 -212 75 -212 241c0 171 86 275 225 275c89 0 162 -49 162 -134c0 -99 -69 -136 -266 -136h-44c2 -121 50 -178 148 -178zM274 444c-80 0 -132 -54 -142 -163h48c140 0 183 18 183 85
c0 45 -34 78 -89 78z" />
    <glyph glyph-name="eacute" unicode="&#xe9;" horiz-adv-x="485" 
d="M397 674l-190 -101l-21 38l179 122zM278 55c43 0 92 11 136 33l24 -54c-51 -30 -113 -47 -173 -47c-130 0 -212 75 -212 241c0 171 86 275 225 275c89 0 162 -49 162 -134c0 -99 -69 -136 -266 -136h-44c2 -121 50 -178 148 -178zM274 444c-80 0 -132 -54 -142 -163h48
c140 0 183 18 183 85c0 45 -34 78 -89 78z" />
    <glyph glyph-name="ecaron" unicode="&#x11b;" horiz-adv-x="485" 
d="M411 694l-141 -123l-141 123l22 35l119 -81l120 81zM278 55c43 0 92 11 136 33l24 -54c-51 -30 -113 -47 -173 -47c-130 0 -212 75 -212 241c0 171 86 275 225 275c89 0 162 -49 162 -134c0 -99 -69 -136 -266 -136h-44c2 -121 50 -178 148 -178zM274 444
c-80 0 -132 -54 -142 -163h48c140 0 183 18 183 85c0 45 -34 78 -89 78z" />
    <glyph glyph-name="ecircumflex" unicode="&#xea;" horiz-adv-x="485" 
d="M270 652l-119 -81l-21 35l140 123l141 -123l-21 -35zM278 55c43 0 92 11 136 33l24 -54c-51 -30 -113 -47 -173 -47c-130 0 -212 75 -212 241c0 171 86 275 225 275c89 0 162 -49 162 -134c0 -99 -69 -136 -266 -136h-44c2 -121 50 -178 148 -178zM274 444
c-80 0 -132 -54 -142 -163h48c140 0 183 18 183 85c0 45 -34 78 -89 78z" />
    <glyph glyph-name="edieresis" unicode="&#xeb;" horiz-adv-x="485" 
d="M171 609c-30 0 -47 19 -47 50s17 51 50 51c30 0 47 -20 47 -51s-17 -50 -50 -50zM366 609c-30 0 -47 19 -47 50s17 51 50 51c30 0 47 -20 47 -51s-17 -50 -50 -50zM278 55c43 0 92 11 136 33l24 -54c-51 -30 -113 -47 -173 -47c-130 0 -212 75 -212 241
c0 171 86 275 225 275c89 0 162 -49 162 -134c0 -99 -69 -136 -266 -136h-44c2 -121 50 -178 148 -178zM274 444c-80 0 -132 -54 -142 -163h48c140 0 183 18 183 85c0 45 -34 78 -89 78z" />
    <glyph glyph-name="edotaccent" unicode="&#x117;" horiz-adv-x="485" 
d="M268 616c-31 0 -49 21 -49 53s18 53 52 53c32 0 49 -21 49 -53s-17 -53 -52 -53zM278 55c43 0 92 11 136 33l24 -54c-51 -30 -113 -47 -173 -47c-130 0 -212 75 -212 241c0 171 86 275 225 275c89 0 162 -49 162 -134c0 -99 -69 -136 -266 -136h-44
c2 -121 50 -178 148 -178zM274 444c-80 0 -132 -54 -142 -163h48c140 0 183 18 183 85c0 45 -34 78 -89 78z" />
    <glyph glyph-name="egrave" unicode="&#xe8;" horiz-adv-x="485" 
d="M353 611l-21 -38l-189 101l32 59zM278 55c43 0 92 11 136 33l24 -54c-51 -30 -113 -47 -173 -47c-130 0 -212 75 -212 241c0 171 86 275 225 275c89 0 162 -49 162 -134c0 -99 -69 -136 -266 -136h-44c2 -121 50 -178 148 -178zM274 444c-80 0 -132 -54 -142 -163h48
c140 0 183 18 183 85c0 45 -34 78 -89 78z" />
    <glyph glyph-name="emacron" unicode="&#x113;" horiz-adv-x="485" 
d="M419 674l-1 -60h-298l1 60h298zM278 55c43 0 92 11 136 33l24 -54c-51 -30 -113 -47 -173 -47c-130 0 -212 75 -212 241c0 171 86 275 225 275c89 0 162 -49 162 -134c0 -99 -69 -136 -266 -136h-44c2 -121 50 -178 148 -178zM274 444c-80 0 -132 -54 -142 -163h48
c140 0 183 18 183 85c0 45 -34 78 -89 78z" />
    <glyph glyph-name="eogonek" unicode="&#x119;" horiz-adv-x="485" 
d="M438 34c-107 -72 -142 -133 -142 -171c0 -22 12 -30 32 -30c16 0 31 5 52 18l19 -36c-26 -22 -55 -35 -89 -35c-43 0 -82 22 -82 71s32 101 80 139c-14 -2 -29 -3 -43 -3c-130 0 -212 75 -212 241c0 171 86 275 225 275c89 0 162 -49 162 -134c0 -99 -69 -136 -266 -136
h-44c2 -121 50 -178 148 -178c43 0 92 11 136 33zM274 444c-80 0 -132 -54 -142 -163h48c140 0 183 18 183 85c0 45 -34 78 -89 78z" />
    <glyph glyph-name="f" unicode="f" horiz-adv-x="335" 
d="M274 667c-65 0 -92 -48 -92 -166v-9h137l-4 -63h-133v-429h-75v429h-65v63h65v9c0 153 55 232 163 232c37 0 72 -10 105 -26l-23 -57c-25 11 -50 17 -78 17z" />
    <glyph glyph-name="g" unicode="g" horiz-adv-x="521" 
d="M163 125c0 -43 60 -50 129 -58c94 -10 205 -23 205 -130c0 -103 -104 -159 -253 -159c-138 0 -213 47 -213 128c0 58 39 98 105 134c-25 14 -40 34 -40 66s16 56 48 76c-51 29 -81 82 -81 148c0 104 74 175 188 175c47 0 87 -12 118 -33l98 69l38 -49l-97 -57
c21 -28 32 -64 32 -105c0 -104 -75 -175 -189 -175c-24 0 -46 3 -65 9c-16 -12 -23 -26 -23 -39zM251 448c-68 0 -113 -43 -113 -118c0 -74 45 -120 115 -120c67 0 111 44 111 119s-45 119 -113 119zM251 -163c109 0 172 34 172 93c0 64 -77 72 -157 81c-26 3 -53 6 -77 11
c-66 -35 -91 -68 -91 -105c0 -53 56 -80 153 -80z" />
    <glyph glyph-name="gbreve" unicode="&#x11f;" horiz-adv-x="521" 
d="M256 587c-64 0 -114 36 -138 115l42 22c20 -47 52 -79 96 -79s76 32 96 79l42 -22c-24 -79 -74 -115 -138 -115zM163 125c0 -43 60 -50 129 -58c94 -10 205 -23 205 -130c0 -103 -104 -159 -253 -159c-138 0 -213 47 -213 128c0 58 39 98 105 134c-25 14 -40 34 -40 66
s16 56 48 76c-51 29 -81 82 -81 148c0 104 74 175 188 175c47 0 87 -12 118 -33l98 69l38 -49l-97 -57c21 -28 32 -64 32 -105c0 -104 -75 -175 -189 -175c-24 0 -46 3 -65 9c-16 -12 -23 -26 -23 -39zM251 448c-68 0 -113 -43 -113 -118c0 -74 45 -120 115 -120
c67 0 111 44 111 119s-45 119 -113 119zM251 -163c109 0 172 34 172 93c0 64 -77 72 -157 81c-26 3 -53 6 -77 11c-66 -35 -91 -68 -91 -105c0 -53 56 -80 153 -80z" />
    <glyph glyph-name="gcommaaccent" unicode="&#x123;" horiz-adv-x="521" 
d="M252 574c-30 0 -51 19 -51 60c0 42 30 83 92 96l10 -22c-33 -14 -50 -32 -54 -54c2 0 3 0 5 1h4c24 0 40 -14 40 -40c0 -28 -20 -41 -46 -41zM163 125c0 -43 60 -50 129 -58c94 -10 205 -23 205 -130c0 -103 -104 -159 -253 -159c-138 0 -213 47 -213 128
c0 58 39 98 105 134c-25 14 -40 34 -40 66s16 56 48 76c-51 29 -81 82 -81 148c0 104 74 175 188 175c47 0 87 -12 118 -33l98 69l38 -49l-97 -57c21 -28 32 -64 32 -105c0 -104 -75 -175 -189 -175c-24 0 -46 3 -65 9c-16 -12 -23 -26 -23 -39zM251 448
c-68 0 -113 -43 -113 -118c0 -74 45 -120 115 -120c67 0 111 44 111 119s-45 119 -113 119zM251 -163c109 0 172 34 172 93c0 64 -77 72 -157 81c-26 3 -53 6 -77 11c-66 -35 -91 -68 -91 -105c0 -53 56 -80 153 -80z" />
    <glyph glyph-name="gdotaccent" unicode="&#x121;" horiz-adv-x="521" 
d="M254 616c-31 0 -49 21 -49 53s18 53 52 53c32 0 49 -21 49 -53s-17 -53 -52 -53zM163 125c0 -43 60 -50 129 -58c94 -10 205 -23 205 -130c0 -103 -104 -159 -253 -159c-138 0 -213 47 -213 128c0 58 39 98 105 134c-25 14 -40 34 -40 66s16 56 48 76
c-51 29 -81 82 -81 148c0 104 74 175 188 175c47 0 87 -12 118 -33l98 69l38 -49l-97 -57c21 -28 32 -64 32 -105c0 -104 -75 -175 -189 -175c-24 0 -46 3 -65 9c-16 -12 -23 -26 -23 -39zM251 448c-68 0 -113 -43 -113 -118c0 -74 45 -120 115 -120c67 0 111 44 111 119
s-45 119 -113 119zM251 -163c109 0 172 34 172 93c0 64 -77 72 -157 81c-26 3 -53 6 -77 11c-66 -35 -91 -68 -91 -105c0 -53 56 -80 153 -80z" />
    <glyph glyph-name="h" unicode="h" horiz-adv-x="573" 
d="M339 503c103 0 153 -65 153 -184v-319h-76v302c0 93 -32 134 -102 134c-99 0 -153 -84 -153 -263v-173h-75v720l75 5v-335c37 74 98 113 178 113z" />
    <glyph glyph-name="hbar" unicode="&#x127;" horiz-adv-x="573" 
d="M339 503c103 0 153 -65 153 -184v-319h-76v302c0 93 -32 134 -102 134c-99 0 -153 -84 -153 -263v-173h-75v574h-85l4 57h81v89l75 5v-94h163l-4 -57h-159v-184c37 74 98 113 178 113z" />
    <glyph glyph-name="i" unicode="i" horiz-adv-x="256" 
d="M125 616c-31 0 -49 21 -49 53s18 53 52 53c32 0 49 -21 49 -53s-17 -53 -52 -53zM91 492l75 5v-497h-75v492z" />
    <glyph glyph-name="dotlessi" unicode="&#x131;" horiz-adv-x="256" 
d="M91 492l75 5v-497h-75v492z" />
    <glyph glyph-name="iacute" unicode="&#xed;" horiz-adv-x="256" 
d="M43 611l179 122l32 -59l-190 -101zM91 492l75 5v-497h-75v492z" />
    <glyph glyph-name="icircumflex" unicode="&#xee;" horiz-adv-x="256" 
d="M127 729l141 -123l-21 -35l-120 81l-119 -81l-21 35zM91 0v492l75 5v-497h-75z" />
    <glyph glyph-name="idieresis" unicode="&#xef;" horiz-adv-x="256" 
d="M47 618c-29 0 -45 20 -45 51s16 51 48 51c29 0 45 -20 45 -51s-16 -51 -48 -51zM204 618c-29 0 -45 20 -45 51s16 51 48 51c28 0 44 -20 44 -51s-16 -51 -47 -51zM91 492l75 5v-497h-75v492z" />
    <glyph glyph-name="igrave" unicode="&#xec;" horiz-adv-x="256" 
d="M210 611l-21 -38l-189 101l32 59zM91 492l75 5v-497h-75v492z" />
    <glyph glyph-name="imacron" unicode="&#x12b;" horiz-adv-x="256" 
d="M11 673h232l-1 -59h-232zM91 492l75 5v-497h-75v492z" />
    <glyph glyph-name="iogonek" unicode="&#x12f;" horiz-adv-x="256" 
d="M125 616c-31 0 -49 21 -49 53s18 53 52 53c32 0 49 -21 49 -53s-17 -53 -52 -53zM100 -167c15 0 30 5 51 18l19 -36c-25 -22 -54 -35 -90 -35c-41 0 -80 19 -80 73c0 50 34 97 93 147h-2v492l75 5v-497c-7 -6 -10 -10 -10 -13s1 -4 3 -4c1 0 3 1 5 2l2 -4
c-3 -2 -5 -3 -9 -3s-8 2 -8 7v1c-58 -49 -82 -85 -82 -120c0 -25 13 -33 33 -33z" />
    <glyph glyph-name="j" unicode="j" horiz-adv-x="261" 
d="M131 616c-31 0 -49 21 -49 53s18 53 52 53c32 0 49 -21 49 -53s-17 -53 -52 -53zM-57 -138c18 -7 42 -12 68 -12c56 0 84 51 84 167v474l77 5v-471c0 -168 -64 -242 -163 -242c-32 0 -63 7 -87 18z" />
    <glyph glyph-name="jacute" horiz-adv-x="261" 
d="M49 611l179 122l32 -59l-190 -101zM-57 -138c18 -7 42 -12 68 -12c56 0 84 51 84 167v474l77 5v-471c0 -168 -64 -242 -163 -242c-32 0 -63 7 -87 18z" />
    <glyph glyph-name="uni0237" unicode="&#x237;" horiz-adv-x="261" 
d="M-57 -138c18 -7 42 -12 68 -12c56 0 84 51 84 167v474l77 5v-471c0 -168 -64 -242 -163 -242c-32 0 -63 7 -87 18z" />
    <glyph glyph-name="k" unicode="k" horiz-adv-x="516" 
d="M419 -5l-169 242l-89 -99v-139h-75v721l75 5v-500c47 59 97 119 141 170l88 101l85 -4l-175 -199l209 -294z" />
    <glyph glyph-name="kcommaaccent" unicode="&#x137;" horiz-adv-x="516" 
d="M300 293l209 -294l-90 -4l-169 242l-89 -99v-139h-75v721l75 5v-500c47 59 97 119 141 170l88 101l85 -4zM278 -60c30 0 51 -19 51 -60c0 -42 -30 -83 -92 -96l-10 22c33 14 50 32 54 54c-1 0 -3 0 -4 -1h-5c-24 0 -40 14 -40 40c0 28 20 41 46 41z" />
    <glyph glyph-name="l" unicode="l" horiz-adv-x="258" 
d="M91 720l76 5v-725h-76v720z" />
    <glyph glyph-name="lacute" unicode="&#x13a;" horiz-adv-x="258" 
d="M39 782l201 113l28 -62l-210 -90zM91 720l76 5v-725h-76v720z" />
    <glyph glyph-name="lcaron" unicode="&#x13e;" horiz-adv-x="258" 
d="M228 552v170l61 4l-9 -174h-52zM91 720l76 5v-725h-76v720z" />
    <glyph glyph-name="lcommaaccent" unicode="&#x13c;" horiz-adv-x="258" 
d="M167 725v-725h-76v720zM126 -60c30 0 51 -19 51 -60c0 -42 -30 -83 -92 -96l-10 22c33 14 50 32 54 54c-1 0 -3 0 -4 -1h-5c-24 0 -40 14 -40 40c0 28 20 41 46 41z" />
    <glyph glyph-name="ldot" unicode="&#x140;" horiz-adv-x="348" 
d="M91 720l76 5v-725h-76v720zM303 303c-31 0 -51 21 -51 53s20 54 52 54c31 0 50 -22 50 -54s-19 -53 -51 -53z" />
    <glyph glyph-name="lslash" unicode="&#x142;" horiz-adv-x="278" 
d="M281 454l-104 -55v-399h-76v358l-74 -39l-26 48l100 53v300l76 5v-265l79 42z" />
    <glyph glyph-name="m" unicode="m" horiz-adv-x="874" 
d="M648 503c99 0 146 -64 146 -181v-322h-75v305c0 92 -31 131 -96 131c-96 0 -146 -83 -146 -278v-158h-75v305c0 92 -30 131 -95 131c-96 0 -146 -83 -146 -278v-158h-75v491l75 5v-104c36 73 94 111 170 111c82 0 129 -44 142 -126c35 82 95 126 175 126z" />
    <glyph glyph-name="n" unicode="n" horiz-adv-x="573" 
d="M339 503c103 0 153 -65 153 -184v-319h-76v302c0 93 -32 134 -102 134c-99 0 -153 -84 -153 -263v-173h-75v491l75 5v-106c37 74 98 113 178 113z" />
    <glyph glyph-name="nacute" unicode="&#x144;" horiz-adv-x="573" 
d="M423 674l-190 -101l-21 38l179 122zM339 503c103 0 153 -65 153 -184v-319h-76v302c0 93 -32 134 -102 134c-99 0 -153 -84 -153 -263v-173h-75v491l75 5v-106c37 74 98 113 178 113z" />
    <glyph glyph-name="nacute.loclPLK" horiz-adv-x="573" 
d="M376 742l-67 -167l-42 7l42 174zM339 503c103 0 153 -65 153 -184v-319h-76v302c0 93 -32 134 -102 134c-99 0 -153 -84 -153 -263v-173h-75v491l75 5v-106c37 74 98 113 178 113z" />
    <glyph glyph-name="ncaron" unicode="&#x148;" horiz-adv-x="573" 
d="M437 694l-141 -123l-141 123l22 35l119 -81l120 81zM339 503c103 0 153 -65 153 -184v-319h-76v302c0 93 -32 134 -102 134c-99 0 -153 -84 -153 -263v-173h-75v491l75 5v-106c37 74 98 113 178 113z" />
    <glyph glyph-name="ncommaaccent" unicode="&#x146;" horiz-adv-x="573" 
d="M339 503c103 0 153 -65 153 -184v-319h-76v302c0 93 -32 134 -102 134c-99 0 -153 -84 -153 -263v-173h-75v491l75 5v-106c37 74 98 113 178 113zM283 -60c30 0 51 -19 51 -60c0 -42 -30 -83 -92 -96l-10 22c33 14 50 32 54 54c-1 0 -3 0 -4 -1h-5c-24 0 -40 14 -40 40
c0 28 20 41 46 41z" />
    <glyph glyph-name="eng" unicode="&#x14b;" horiz-adv-x="573" 
d="M339 503c103 0 153 -65 153 -184v-319c0 -162 -65 -222 -164 -222c-33 0 -64 7 -87 18l21 59c18 -8 42 -12 68 -12c56 0 86 38 86 167v292c0 93 -32 134 -102 134c-99 0 -153 -84 -153 -263v-173h-75v491l75 5v-106c37 74 98 113 178 113z" />
    <glyph glyph-name="ntilde" unicode="&#xf1;" horiz-adv-x="573" 
d="M236 640c-23 0 -39 -11 -64 -32l-26 37c35 39 66 52 96 52c32 0 53 -11 71 -22c15 -8 28 -15 44 -15c23 0 38 11 63 33l25 -37c-34 -40 -63 -52 -94 -52c-16 0 -29 4 -40 9c-25 10 -43 27 -75 27zM339 503c103 0 153 -65 153 -184v-319h-76v302c0 93 -32 134 -102 134
c-99 0 -153 -84 -153 -263v-173h-75v491l75 5v-106c37 74 98 113 178 113z" />
    <glyph glyph-name="o" unicode="o" horiz-adv-x="577" 
d="M287 -13c-147 0 -234 95 -234 255c0 162 88 261 237 261c147 0 234 -96 234 -256c0 -162 -88 -260 -237 -260zM290 47c98 0 154 71 154 196c0 127 -58 200 -156 200c-97 0 -154 -71 -154 -198s58 -198 156 -198z" />
    <glyph glyph-name="oacute" unicode="&#xf3;" horiz-adv-x="577" 
d="M205 611l179 122l32 -59l-190 -101zM287 -13c-147 0 -234 95 -234 255c0 162 88 261 237 261c147 0 234 -96 234 -256c0 -162 -88 -260 -237 -260zM290 47c98 0 154 71 154 196c0 127 -58 200 -156 200c-97 0 -154 -71 -154 -198s58 -198 156 -198z" />
    <glyph glyph-name="oacute.loclPLK" horiz-adv-x="577" 
d="M260 582l42 174l67 -14l-67 -167zM287 -13c-147 0 -234 95 -234 255c0 162 88 261 237 261c147 0 234 -96 234 -256c0 -162 -88 -260 -237 -260zM290 47c98 0 154 71 154 196c0 127 -58 200 -156 200c-97 0 -154 -71 -154 -198s58 -198 156 -198z" />
    <glyph glyph-name="ocircumflex" unicode="&#xf4;" horiz-adv-x="577" 
d="M289 652l-119 -81l-21 35l140 123l141 -123l-21 -35zM290 503c147 0 234 -96 234 -256c0 -162 -88 -260 -237 -260c-147 0 -234 95 -234 255c0 162 88 261 237 261zM290 47c98 0 154 71 154 196c0 127 -58 200 -156 200c-97 0 -154 -71 -154 -198s58 -198 156 -198z" />
    <glyph glyph-name="odieresis" unicode="&#xf6;" horiz-adv-x="577" 
d="M190 609c-30 0 -47 19 -47 50s17 51 50 51c30 0 47 -20 47 -51s-17 -50 -50 -50zM385 609c-30 0 -47 19 -47 50s17 51 50 51c30 0 47 -20 47 -51s-17 -50 -50 -50zM287 -13c-147 0 -234 95 -234 255c0 162 88 261 237 261c147 0 234 -96 234 -256
c0 -162 -88 -260 -237 -260zM290 47c98 0 154 71 154 196c0 127 -58 200 -156 200c-97 0 -154 -71 -154 -198s58 -198 156 -198z" />
    <glyph glyph-name="ograve" unicode="&#xf2;" horiz-adv-x="577" 
d="M372 611l-21 -38l-189 101l32 59zM287 -13c-147 0 -234 95 -234 255c0 162 88 261 237 261c147 0 234 -96 234 -256c0 -162 -88 -260 -237 -260zM290 47c98 0 154 71 154 196c0 127 -58 200 -156 200c-97 0 -154 -71 -154 -198s58 -198 156 -198z" />
    <glyph glyph-name="ohungarumlaut" unicode="&#x151;" horiz-adv-x="577" 
d="M208 563l47 176l67 -13l-67 -172zM321 563l69 171l67 -14l-89 -167zM287 -13c-147 0 -234 95 -234 255c0 162 88 261 237 261c147 0 234 -96 234 -256c0 -162 -88 -260 -237 -260zM290 47c98 0 154 71 154 196c0 127 -58 200 -156 200c-97 0 -154 -71 -154 -198
s58 -198 156 -198z" />
    <glyph glyph-name="omacron" unicode="&#x14d;" horiz-adv-x="577" 
d="M140 674h298l-1 -60h-298zM287 -13c-147 0 -234 95 -234 255c0 162 88 261 237 261c147 0 234 -96 234 -256c0 -162 -88 -260 -237 -260zM290 47c98 0 154 71 154 196c0 127 -58 200 -156 200c-97 0 -154 -71 -154 -198s58 -198 156 -198z" />
    <glyph glyph-name="oslash" unicode="&#xf8;" horiz-adv-x="577" 
d="M468 428c36 -43 56 -105 56 -181c0 -162 -88 -260 -237 -260c-54 0 -101 13 -137 37l-32 -40l-45 35l35 43c-36 44 -55 105 -55 180c0 162 88 261 237 261c53 0 99 -13 135 -36l31 40l46 -36zM288 443c-97 0 -154 -71 -154 -198c0 -47 8 -86 23 -117l224 285
c-25 20 -56 30 -93 30zM290 47c98 0 154 71 154 196c0 50 -9 92 -26 124l-226 -286c25 -22 58 -34 98 -34z" />
    <glyph glyph-name="otilde" unicode="&#xf5;" horiz-adv-x="577" 
d="M344 604c-25 0 -43 9 -59 18c-17 9 -33 18 -56 18s-39 -11 -64 -32l-26 37c35 39 66 52 96 52c32 0 53 -11 71 -22c15 -8 28 -15 44 -15c23 0 38 11 63 33l25 -37c-34 -40 -63 -52 -94 -52zM287 -13c-147 0 -234 95 -234 255c0 162 88 261 237 261
c147 0 234 -96 234 -256c0 -162 -88 -260 -237 -260zM290 47c98 0 154 71 154 196c0 127 -58 200 -156 200c-97 0 -154 -71 -154 -198s58 -198 156 -198z" />
    <glyph glyph-name="oe" unicode="&#x153;" horiz-adv-x="882" 
d="M677 55c45 0 89 11 134 34l22 -55c-50 -30 -112 -47 -170 -47c-84 0 -148 33 -181 104c-38 -67 -105 -104 -195 -104c-147 0 -234 95 -234 255c0 162 88 261 237 261c94 0 163 -41 199 -115c36 74 101 115 187 115c88 0 161 -49 161 -135c0 -98 -69 -134 -253 -136
l-55 -1c2 -120 52 -176 148 -176zM671 444c-79 0 -129 -56 -140 -163h48c138 0 181 18 181 85c0 45 -33 78 -89 78zM290 47c98 0 154 71 154 196c0 127 -58 200 -156 200c-97 0 -154 -71 -154 -198s58 -198 156 -198z" />
    <glyph glyph-name="p" unicode="p" horiz-adv-x="578" 
d="M339 503c121 0 187 -97 187 -247c0 -162 -79 -266 -213 -266c-46 0 -98 14 -152 50v-250l-75 -5v706l75 5v-116c36 82 97 123 178 123zM312 55c89 0 135 69 135 194c0 120 -44 189 -131 189c-97 0 -155 -87 -155 -262v-62c51 -41 107 -59 151 -59z" />
    <glyph glyph-name="thorn" unicode="&#xfe;" horiz-adv-x="577" 
d="M339 503c121 0 187 -97 187 -247c0 -162 -79 -266 -213 -266c-46 0 -98 14 -152 50v-250l-75 -5v935l75 5v-345c36 82 97 123 178 123zM312 55c89 0 135 69 135 194c0 120 -44 189 -131 189c-97 0 -155 -87 -155 -262v-62c51 -41 107 -59 151 -59z" />
    <glyph glyph-name="q" unicode="q" horiz-adv-x="573" 
d="M288 503c65 0 125 -16 199 -63v-650l-75 -5v303c-32 -64 -86 -99 -161 -99c-124 0 -198 94 -198 246c0 170 90 268 235 268zM270 57c88 0 142 66 142 202v140c-43 26 -84 39 -135 39c-93 0 -145 -65 -145 -191c0 -123 50 -190 138 -190z" />
    <glyph glyph-name="r" unicode="r" horiz-adv-x="345" 
d="M302 501c10 0 18 -2 25 -4l-6 -81c-7 1 -14 1 -20 1c-92 0 -140 -99 -140 -282v-135h-75v491l75 5v-142c27 90 74 147 141 147z" />
    <glyph glyph-name="racute" unicode="&#x155;" horiz-adv-x="345" 
d="M338 674l-190 -101l-21 38l179 122zM161 354c27 90 74 147 141 147c10 0 18 -2 25 -4l-6 -81c-7 1 -14 1 -20 1c-92 0 -140 -99 -140 -282v-135h-75v491l75 5v-142z" />
    <glyph glyph-name="rcaron" unicode="&#x159;" horiz-adv-x="345" 
d="M352 694l-141 -123l-141 123l22 35l119 -81l120 81zM161 354c27 90 74 147 141 147c10 0 18 -2 25 -4l-6 -81c-7 1 -14 1 -20 1c-92 0 -140 -99 -140 -282v-135h-75v491l75 5v-142z" />
    <glyph glyph-name="rcommaaccent" unicode="&#x157;" horiz-adv-x="345" 
d="M302 501c10 0 18 -2 25 -4l-6 -81c-7 1 -14 1 -20 1c-92 0 -140 -99 -140 -282v-135h-75v491l75 5v-142c27 90 74 147 141 147zM125 -60c30 0 51 -19 51 -60c0 -42 -30 -83 -92 -96l-10 22c33 14 50 32 54 54c-1 0 -3 0 -4 -1h-5c-24 0 -40 14 -40 40c0 28 20 41 46 41z
" />
    <glyph glyph-name="s" unicode="s" horiz-adv-x="421" 
d="M355 481l-22 -58c-30 14 -63 21 -96 21c-65 0 -102 -29 -102 -75c0 -53 51 -73 106 -95c66 -26 138 -54 138 -145s-72 -144 -175 -144c-54 0 -107 15 -161 44l25 57c46 -25 89 -37 132 -37c62 0 103 27 103 73c0 49 -48 69 -100 91c-65 27 -138 57 -138 149
c0 90 69 143 171 143c41 0 84 -9 119 -24z" />
    <glyph glyph-name="sacute" unicode="&#x15b;" horiz-adv-x="421" 
d="M148 611l179 122l32 -59l-190 -101zM355 481l-22 -58c-30 14 -63 21 -96 21c-65 0 -102 -29 -102 -75c0 -53 51 -73 106 -95c66 -26 138 -54 138 -145s-72 -144 -175 -144c-54 0 -107 15 -161 44l25 57c46 -25 89 -37 132 -37c62 0 103 27 103 73c0 49 -48 69 -100 91
c-65 27 -138 57 -138 149c0 90 69 143 171 143c41 0 84 -9 119 -24z" />
    <glyph glyph-name="sacute.loclPLK" horiz-adv-x="421" 
d="M203 582l42 174l67 -14l-67 -167zM355 481l-22 -58c-30 14 -63 21 -96 21c-65 0 -102 -29 -102 -75c0 -53 51 -73 106 -95c66 -26 138 -54 138 -145s-72 -144 -175 -144c-54 0 -107 15 -161 44l25 57c46 -25 89 -37 132 -37c62 0 103 27 103 73c0 49 -48 69 -100 91
c-65 27 -138 57 -138 149c0 90 69 143 171 143c41 0 84 -9 119 -24z" />
    <glyph glyph-name="scaron" unicode="&#x161;" horiz-adv-x="421" 
d="M373 694l-141 -123l-141 123l22 35l119 -81l120 81zM135 369c0 -53 51 -73 106 -95c66 -26 138 -54 138 -145s-72 -144 -175 -144c-54 0 -107 15 -161 44l25 57c46 -25 89 -37 132 -37c62 0 103 27 103 73c0 49 -48 69 -100 91c-65 27 -138 57 -138 149
c0 90 69 143 171 143c41 0 84 -9 119 -24l-22 -58c-30 14 -63 21 -96 21c-65 0 -102 -29 -102 -75z" />
    <glyph glyph-name="scedilla" unicode="&#x15f;" horiz-adv-x="421" 
d="M379 129c0 -84 -61 -135 -151 -143l-12 -46c63 1 94 -28 94 -74c0 -51 -40 -81 -102 -81c-31 0 -55 7 -78 20l17 36c17 -9 36 -14 56 -14c30 0 49 11 49 37c0 29 -24 43 -67 43c-3 0 -6 0 -9 -1h-9l-9 20l21 60c-45 4 -90 18 -136 43l25 57c46 -25 89 -37 132 -37
c62 0 103 27 103 73c0 49 -48 69 -100 91c-65 27 -138 57 -138 149c0 90 69 143 171 143c41 0 84 -9 119 -24l-22 -58c-30 14 -63 21 -96 21c-65 0 -102 -29 -102 -75c0 -40 28 -61 66 -78c72 -34 178 -52 178 -162z" />
    <glyph glyph-name="scommaaccent" unicode="&#x219;" horiz-adv-x="421" 
d="M135 369c0 -53 51 -73 106 -95c66 -26 138 -54 138 -145s-72 -144 -175 -144c-54 0 -107 15 -161 44l25 57c46 -25 89 -37 132 -37c62 0 103 27 103 73c0 49 -48 69 -100 91c-65 27 -138 57 -138 149c0 90 69 143 171 143c41 0 84 -9 119 -24l-22 -58
c-30 14 -63 21 -96 21c-65 0 -102 -29 -102 -75zM209 -60c30 0 51 -19 51 -60c0 -42 -30 -83 -92 -96l-10 22c33 14 50 32 54 54c-1 0 -3 0 -4 -1h-5c-24 0 -40 14 -40 40c0 28 20 41 46 41z" />
    <glyph glyph-name="germandbls" unicode="&#xdf;" horiz-adv-x="595" 
d="M385 385c90 -19 157 -81 157 -185c0 -122 -66 -210 -199 -210c-47 0 -95 11 -132 31l20 60c29 -15 66 -24 103 -24c83 0 128 48 128 146c0 101 -79 139 -191 139h-25l4 57h19c98 0 148 50 148 140c0 82 -42 128 -123 128c-92 0 -131 -59 -131 -188v-479h-77v471
c0 172 75 262 213 262c121 0 194 -70 194 -183c0 -83 -39 -140 -108 -165z" />
    <glyph glyph-name="t" unicode="t" horiz-adv-x="373" 
d="M338 85l17 -57c-39 -27 -84 -40 -128 -40c-78 0 -123 44 -123 135v306h-62v63h62v119l75 8v-127h166l-4 -63h-162v-290c0 -58 22 -82 72 -82c27 0 55 8 87 28z" />
    <glyph glyph-name="tbar" unicode="&#x167;" horiz-adv-x="373" 
d="M338 85l17 -57c-39 -27 -84 -40 -128 -40c-78 0 -123 44 -123 135v117h-59v55h59v134h-62v63h62v119l75 8v-127h166l-4 -63h-162v-134h158v-55h-158v-101c0 -58 22 -82 72 -82c27 0 55 8 87 28z" />
    <glyph glyph-name="tcaron" unicode="&#x165;" horiz-adv-x="373" 
d="M301 726l-9 -174h-52v170zM338 85l17 -57c-39 -27 -84 -40 -128 -40c-78 0 -123 44 -123 135v306h-62v63h62v119l75 8v-127h166l-4 -63h-162v-290c0 -58 22 -82 72 -82c27 0 55 8 87 28z" />
    <glyph glyph-name="uni0163" unicode="&#x163;" horiz-adv-x="373" 
d="M231 -60c63 1 94 -28 94 -74c0 -51 -40 -81 -102 -81c-31 0 -55 7 -78 20l17 36c17 -9 36 -14 56 -14c30 0 49 11 49 37c0 29 -24 43 -67 43c-3 0 -6 0 -9 -1h-9l-9 20l23 65c-59 10 -92 54 -92 132v306h-62v63h62v119l75 8v-127h166l-4 -63h-162v-290
c0 -58 22 -82 72 -82c27 0 55 8 87 28l17 -57c-34 -24 -73 -37 -112 -39z" />
    <glyph glyph-name="uni021B" unicode="&#x21b;" horiz-adv-x="373" 
d="M355 28c-39 -27 -84 -40 -128 -40c-78 0 -123 44 -123 135v306h-62v63h62v119l75 8v-127h166l-4 -63h-162v-290c0 -58 22 -82 72 -82c27 0 55 8 87 28zM224 -60c30 0 51 -19 51 -60c0 -42 -30 -83 -92 -96l-10 22c33 14 50 32 54 54c-1 0 -3 0 -4 -1h-5
c-24 0 -40 14 -40 40c0 28 20 41 46 41z" />
    <glyph glyph-name="u" unicode="u" horiz-adv-x="565" 
d="M404 491l75 5v-496l-75 -4v107c-32 -73 -88 -113 -168 -113c-101 0 -155 64 -155 183v318l75 5v-303c0 -95 35 -136 100 -136c94 0 148 94 148 235v199z" />
    <glyph glyph-name="uacute" unicode="&#xfa;" horiz-adv-x="565" 
d="M408 674l-190 -101l-21 38l179 122zM404 491l75 5v-496l-75 -4v107c-32 -73 -88 -113 -168 -113c-101 0 -155 64 -155 183v318l75 5v-303c0 -95 35 -136 100 -136c94 0 148 94 148 235v199z" />
    <glyph glyph-name="ucircumflex" unicode="&#xfb;" horiz-adv-x="565" 
d="M281 652l-119 -81l-21 35l140 123l141 -123l-21 -35zM404 491l75 5v-496l-75 -4v107c-32 -73 -88 -113 -168 -113c-101 0 -155 64 -155 183v318l75 5v-303c0 -95 35 -136 100 -136c94 0 148 94 148 235v199z" />
    <glyph glyph-name="udieresis" unicode="&#xfc;" horiz-adv-x="565" 
d="M182 609c-30 0 -47 19 -47 50s17 51 50 51c30 0 47 -20 47 -51s-17 -50 -50 -50zM377 609c-30 0 -47 19 -47 50s17 51 50 51c30 0 47 -20 47 -51s-17 -50 -50 -50zM404 491l75 5v-496l-75 -4v107c-32 -73 -88 -113 -168 -113c-101 0 -155 64 -155 183v318l75 5v-303
c0 -95 35 -136 100 -136c94 0 148 94 148 235v199z" />
    <glyph glyph-name="ugrave" unicode="&#xf9;" horiz-adv-x="565" 
d="M364 611l-21 -38l-189 101l32 59zM404 491l75 5v-496l-75 -4v107c-32 -73 -88 -113 -168 -113c-101 0 -155 64 -155 183v318l75 5v-303c0 -95 35 -136 100 -136c94 0 148 94 148 235v199z" />
    <glyph glyph-name="uhungarumlaut" unicode="&#x171;" horiz-adv-x="565" 
d="M314 726l-67 -172l-47 9l47 176zM360 553l-47 10l69 171l67 -14zM404 491l75 5v-496l-75 -4v107c-32 -73 -88 -113 -168 -113c-101 0 -155 64 -155 183v318l75 5v-303c0 -95 35 -136 100 -136c94 0 148 94 148 235v199z" />
    <glyph glyph-name="umacron" unicode="&#x16b;" horiz-adv-x="565" 
d="M430 674l-1 -60h-298l1 60h298zM404 491l75 5v-496l-75 -4v107c-32 -73 -88 -113 -168 -113c-101 0 -155 64 -155 183v318l75 5v-303c0 -95 35 -136 100 -136c94 0 148 94 148 235v199z" />
    <glyph glyph-name="uogonek" unicode="&#x173;" horiz-adv-x="565" 
d="M462 -149l19 -36c-29 -23 -58 -35 -90 -35c-42 0 -81 19 -81 72c0 54 34 101 94 156v95c-32 -73 -88 -113 -168 -113c-101 0 -155 64 -155 183v318l75 5v-303c0 -95 35 -136 100 -136c94 0 148 94 148 235v199l75 5v-496c-73 -58 -101 -94 -101 -137c0 -20 14 -30 31 -30
c16 0 30 4 53 18z" />
    <glyph glyph-name="uring" unicode="&#x16f;" horiz-adv-x="565" 
d="M281 555c-62 0 -103 39 -103 98c0 58 41 97 103 97c61 0 102 -39 102 -97c0 -59 -41 -98 -102 -98zM281 707c-33 0 -53 -20 -53 -54c0 -35 20 -55 53 -55c32 0 52 20 52 55c0 34 -20 54 -52 54zM404 491l75 5v-496l-75 -4v107c-32 -73 -88 -113 -168 -113
c-101 0 -155 64 -155 183v318l75 5v-303c0 -95 35 -136 100 -136c94 0 148 94 148 235v199z" />
    <glyph glyph-name="v" unicode="v" horiz-adv-x="501" 
d="M399 496l81 -5l-177 -491h-105l-177 491l85 5l147 -431z" />
    <glyph glyph-name="w" unicode="w" horiz-adv-x="787" 
d="M690 496l76 -5l-171 -491h-101l-98 279l-111 -279h-96l-168 491l78 5l147 -433l121 297l-46 131l78 4l146 -428z" />
    <glyph glyph-name="wacute" unicode="&#x1e83;" horiz-adv-x="787" 
d="M521 674l-190 -101l-21 38l179 122zM690 496l76 -5l-171 -491h-101l-98 279l-111 -279h-96l-168 491l78 5l147 -433l121 297l-46 131l78 4l146 -428z" />
    <glyph glyph-name="wcircumflex" unicode="&#x175;" horiz-adv-x="787" 
d="M394 652l-119 -81l-21 35l140 123l141 -123l-21 -35zM690 496l76 -5l-171 -491h-101l-98 279l-111 -279h-96l-168 491l78 5l147 -433l121 297l-46 131l78 4l146 -428z" />
    <glyph glyph-name="wdieresis" unicode="&#x1e85;" horiz-adv-x="787" 
d="M295 609c-30 0 -47 19 -47 50s17 51 50 51c30 0 47 -20 47 -51s-17 -50 -50 -50zM490 609c-30 0 -47 19 -47 50s17 51 50 51c30 0 47 -20 47 -51s-17 -50 -50 -50zM690 496l76 -5l-171 -491h-101l-98 279l-111 -279h-96l-168 491l78 5l147 -433l121 297l-46 131l78 4
l146 -428z" />
    <glyph glyph-name="wgrave" unicode="&#x1e81;" horiz-adv-x="787" 
d="M477 611l-21 -38l-189 101l32 59zM690 496l76 -5l-171 -491h-101l-98 279l-111 -279h-96l-168 491l78 5l147 -433l121 297l-46 131l78 4l146 -428z" />
    <glyph glyph-name="x" unicode="x" horiz-adv-x="499" 
d="M484 0l-90 -5l-150 199l-146 -199l-82 5l185 250l-182 242l89 4l145 -191l144 191l82 -4l-183 -244z" />
    <glyph glyph-name="y" unicode="y" horiz-adv-x="501" 
d="M399 496l81 -5l-177 -491l-17 -39c-49 -124 -110 -169 -222 -174l-6 70c80 5 119 34 157 123l9 20h-26l-177 491l85 5l147 -431z" />
    <glyph glyph-name="yacute" unicode="&#xfd;" horiz-adv-x="501" 
d="M377 674l-190 -101l-21 38l179 122zM399 496l81 -5l-177 -491l-17 -39c-49 -124 -110 -169 -222 -174l-6 70c80 5 119 34 157 123l9 20h-26l-177 491l85 5l147 -431z" />
    <glyph glyph-name="ycircumflex" unicode="&#x177;" horiz-adv-x="501" 
d="M250 652l-119 -81l-21 35l140 123l141 -123l-21 -35zM399 496l81 -5l-177 -491l-17 -39c-49 -124 -110 -169 -222 -174l-6 70c80 5 119 34 157 123l9 20h-26l-177 491l85 5l147 -431z" />
    <glyph glyph-name="ydieresis" unicode="&#xff;" horiz-adv-x="501" 
d="M151 609c-30 0 -47 19 -47 50s17 51 50 51c30 0 47 -20 47 -51s-17 -50 -50 -50zM346 609c-30 0 -47 19 -47 50s17 51 50 51c30 0 47 -20 47 -51s-17 -50 -50 -50zM399 496l81 -5l-177 -491l-17 -39c-49 -124 -110 -169 -222 -174l-6 70c80 5 119 34 157 123l9 20h-26
l-177 491l85 5l147 -431z" />
    <glyph glyph-name="ygrave" unicode="&#x1ef3;" horiz-adv-x="501" 
d="M333 611l-21 -38l-189 101l32 59zM399 496l81 -5l-177 -491l-17 -39c-49 -124 -110 -169 -222 -174l-6 70c80 5 119 34 157 123l9 20h-26l-177 491l85 5l147 -431z" />
    <glyph glyph-name="z" unicode="z" horiz-adv-x="455" 
d="M137 63h278v-63h-370l-5 51l270 378h-254v63h344l5 -55z" />
    <glyph glyph-name="zacute" unicode="&#x17a;" horiz-adv-x="455" 
d="M364 674l-190 -101l-21 38l179 122zM137 63h278v-63h-370l-5 51l270 378h-254v63h344l5 -55z" />
    <glyph glyph-name="zacute.loclPLK" horiz-adv-x="455" 
d="M317 742l-67 -167l-42 7l42 174zM137 63h278v-63h-370l-5 51l270 378h-254v63h344l5 -55z" />
    <glyph glyph-name="zcaron" unicode="&#x17e;" horiz-adv-x="455" 
d="M378 694l-141 -123l-141 123l22 35l119 -81l120 81zM137 63h278v-63h-370l-5 51l270 378h-254v63h344l5 -55z" />
    <glyph glyph-name="zdotaccent" unicode="&#x17c;" horiz-adv-x="455" 
d="M235 616c-31 0 -49 21 -49 53s18 53 52 53c32 0 49 -21 49 -53s-17 -53 -52 -53zM137 63h278v-63h-370l-5 51l270 378h-254v63h344l5 -55z" />
    <glyph glyph-name="ordfeminine" unicode="&#xaa;" horiz-adv-x="416" 
d="M209 711c98 0 146 -48 146 -157v-246l-58 -6c-4 18 -7 40 -9 65c-29 -44 -75 -70 -133 -70c-69 0 -116 37 -116 105c0 96 90 134 247 136v10c0 77 -30 106 -93 106c-36 0 -72 -9 -109 -30l-19 48c45 26 93 39 144 39zM174 349c58 0 112 50 112 133v11
c-124 -1 -179 -27 -179 -85c0 -40 27 -59 67 -59z" />
    <glyph glyph-name="ordmasculine" unicode="&#xba;" horiz-adv-x="462" 
d="M230 297c-119 0 -190 76 -190 205c0 130 71 209 193 209c119 0 189 -76 189 -205c0 -130 -71 -209 -192 -209zM232 352c74 0 116 54 116 151c0 99 -43 154 -117 154c-73 0 -116 -54 -116 -152c0 -99 43 -153 117 -153z" />
    <glyph glyph-name="uni0394" unicode="&#x394;" horiz-adv-x="717" 
d="M33 51l282 660h90l279 -660v-51h-651v51zM598 59l-165 392c-8 21 -20 48 -31 76c-17 41 -35 83 -44 110h-4c-7 -21 -24 -62 -40 -103c-10 -23 -20 -46 -27 -65l-175 -410h486z" />
    <glyph glyph-name="uni03A9" unicode="&#x3a9;" horiz-adv-x="810" 
d="M224 62c-79 60 -153 165 -153 307c0 194 147 334 337 334c199 0 330 -157 330 -331c0 -147 -78 -256 -155 -310v-3h170v-59h-268v45c89 50 175 155 175 316c0 131 -89 281 -252 281c-157 0 -259 -128 -259 -285c0 -150 90 -261 175 -312v-45h-268v59h168v3z" />
    <glyph glyph-name="pi" unicode="&#x3c0;" horiz-adv-x="627" 
d="M507 452v-299c0 -88 9 -126 16 -153h-74c-11 15 -19 57 -19 144v308h-206c-6 -132 -41 -365 -80 -452h-76c41 102 75 316 80 452c-71 0 -103 -6 -127 -14l-12 48c28 16 72 27 157 27h440l-7 -61h-92z" />
    <glyph glyph-name="zero" unicode="0" horiz-adv-x="602" 
d="M297 -9c-161 0 -250 123 -250 350c0 228 95 368 258 368c161 0 251 -123 251 -350c0 -228 -95 -368 -259 -368zM305 62c96 0 164 100 164 288s-59 288 -171 288c-96 0 -165 -100 -165 -288s60 -288 172 -288z" />
    <glyph glyph-name="one" unicode="1" horiz-adv-x="367" 
d="M204 705l87 -5v-700h-78v623l-162 -136l-42 55z" />
    <glyph glyph-name="two" unicode="2" horiz-adv-x="510" 
d="M138 67h324l-6 -67h-428l-6 53c246 220 338 326 338 444c0 91 -48 146 -150 146c-38 0 -87 -11 -141 -34l-25 60c70 35 136 43 180 43c144 0 219 -79 219 -203c0 -126 -75 -242 -305 -442z" />
    <glyph glyph-name="three" unicode="3" horiz-adv-x="500" 
d="M299 375c85 -19 147 -74 147 -174c0 -115 -76 -211 -237 -211c-64 0 -130 13 -183 38l23 61c44 -19 99 -30 153 -30c103 0 159 50 159 142c0 99 -80 131 -194 131h-43l4 59h43c110 0 165 55 165 137c0 77 -46 112 -129 112c-55 0 -92 -10 -129 -26l-25 61
c49 21 105 36 165 36c122 0 198 -62 198 -166c0 -81 -43 -142 -117 -170z" />
    <glyph glyph-name="four" unicode="4" horiz-adv-x="584" 
d="M575 232l-6 -69h-117v-163h-78v163h-341l-5 63l323 486l101 -5v-475h123zM113 232h261v398z" />
    <glyph glyph-name="five" unicode="5" horiz-adv-x="504" 
d="M168 416c17 1 34 2 50 2c163 0 239 -79 239 -203c0 -137 -88 -226 -236 -226c-66 0 -137 17 -191 50l22 58c51 -27 105 -40 166 -40c95 0 154 59 154 151c0 100 -57 154 -201 154c-21 0 -43 -1 -67 -3l-13 33v308h338l-5 -71h-256v-213z" />
    <glyph glyph-name="six" unicode="6" horiz-adv-x="572" 
d="M314 442c123 0 204 -71 204 -207c0 -139 -92 -243 -231 -243c-155 0 -231 108 -231 303s67 416 293 416c37 0 79 -4 127 -23l-19 -64c-43 13 -81 18 -109 18c-142 0 -191 -123 -204 -260c45 36 103 60 170 60zM294 63c90 0 139 68 139 165s-46 148 -138 148
c-53 0 -107 -18 -154 -57v-19c0 -153 41 -237 153 -237z" />
    <glyph glyph-name="seven" unicode="7" horiz-adv-x="459" 
d="M440 700l6 -59c-133 -198 -217 -410 -281 -645l-82 3c62 233 148 445 275 632h-332l5 69h409z" />
    <glyph glyph-name="eight" unicode="8" horiz-adv-x="572" 
d="M357 370c83 -42 162 -91 162 -190c0 -104 -84 -194 -235 -194c-126 0 -226 59 -226 179c0 100 70 162 152 201c-63 39 -115 88 -115 172c0 105 76 176 199 176c113 0 197 -60 197 -163c0 -76 -52 -143 -134 -181zM291 651c-74 0 -118 -42 -118 -104
c0 -71 58 -111 126 -147c71 34 113 87 113 142c0 67 -46 109 -121 109zM288 52c88 0 145 53 145 121c0 75 -74 113 -154 154c-5 3 -10 5 -15 8c-71 -33 -122 -85 -122 -156c0 -82 65 -127 146 -127z" />
    <glyph glyph-name="nine" unicode="9" horiz-adv-x="564" 
d="M275 711c150 0 234 -117 234 -329c0 -205 -70 -390 -294 -390c-39 0 -83 6 -127 18l20 64c35 -8 73 -13 102 -13c157 0 205 121 213 280c-44 -38 -100 -64 -173 -64c-109 0 -195 72 -195 196c0 150 92 238 220 238zM140 482c0 -89 53 -139 131 -139c55 0 105 19 153 61
c-3 153 -51 236 -157 236c-72 0 -127 -59 -127 -158z" />
    <glyph glyph-name="fraction" unicode="&#x2044;" horiz-adv-x="17" 
d="M-193 -20l-55 35l456 705l57 -33z" />
    <glyph glyph-name="asterisk" unicode="*" horiz-adv-x="424" 
d="M374 610l-124 -32l81 -99l-50 -36l-69 108l-69 -109l-50 37l82 99l-125 32l19 59l120 -47l-8 128h62l-8 -129l120 48z" />
    <glyph glyph-name="backslash" unicode="\" horiz-adv-x="377" 
d="M287 -132l-273 860l76 4l273 -860z" />
    <glyph glyph-name="periodcentered" unicode="&#xb7;" horiz-adv-x="259" 
d="M129 273c-37 0 -59 24 -59 60c0 35 22 59 60 59c36 0 59 -24 59 -59c0 -36 -22 -60 -60 -60z" />
    <glyph glyph-name="bullet" unicode="&#x2022;" horiz-adv-x="368" 
d="M184 219c-61 0 -101 40 -101 101s40 101 101 101s102 -40 102 -101s-41 -101 -102 -101z" />
    <glyph glyph-name="exclamdown.case" horiz-adv-x="274" 
d="M145 617c37 0 59 -24 59 -60c0 -35 -22 -59 -60 -59c-36 0 -59 24 -59 59c0 36 22 60 60 60zM184 401v-511l-79 -4v511z" />
    <glyph glyph-name="periodcentered.loclCAT.case" horiz-adv-x="38" 
d="M-78 317c-33 0 -54 21 -54 53s21 53 55 53c33 0 54 -21 54 -53s-21 -53 -55 -53z" />
    <glyph glyph-name="numbersign.case" horiz-adv-x="735" 
d="M657 438h-118l-29 -163h116l-4 -63h-123l-38 -212h-68l38 212h-174l-38 -212h-68l38 212h-115l4 63h122l29 163h-120l4 63h127l35 199h68l-35 -199h174l35 199h68l-35 -199h111zM442 275l29 163h-174l-29 -163h174z" />
    <glyph glyph-name="questiondown.case" horiz-adv-x="378" 
d="M240 617c37 0 59 -24 59 -60c0 -35 -22 -59 -60 -59c-36 0 -59 24 -59 59c0 36 22 60 60 60zM207 397l75 4c0 -93 -41 -140 -78 -184c-34 -38 -65 -74 -65 -137c0 -84 57 -124 170 -124l-4 -75c-169 0 -255 62 -255 185c0 154 137 184 155 305c1 8 2 17 2 26z" />
    <glyph glyph-name="colon" unicode=":" horiz-adv-x="259" 
d="M129 349c-37 0 -59 24 -59 60c0 35 22 59 60 59c36 0 59 -24 59 -59c0 -36 -22 -60 -60 -60zM129 -7c-37 0 -59 24 -59 60c0 35 22 59 60 59c36 0 59 -24 59 -59c0 -36 -22 -60 -60 -60z" />
    <glyph glyph-name="comma" unicode="," horiz-adv-x="274" 
d="M135 111c39 0 63 -23 63 -74c0 -62 -39 -137 -89 -163l-26 19c27 26 46 71 49 109c-38 2 -56 23 -56 54c0 32 21 55 59 55z" />
    <glyph glyph-name="ellipsis" unicode="&#x2026;" horiz-adv-x="780" 
d="M169 -7c-37 0 -59 24 -59 60c0 35 22 59 60 59c36 0 59 -24 59 -59c0 -36 -22 -60 -60 -60zM390 -7c-37 0 -59 24 -59 60c0 35 22 59 60 59c36 0 59 -24 59 -59c0 -36 -22 -60 -60 -60zM610 -7c-37 0 -59 24 -59 60c0 35 22 59 60 59c36 0 59 -24 59 -59
c0 -36 -22 -60 -60 -60z" />
    <glyph glyph-name="exclam" unicode="!" horiz-adv-x="274" 
d="M90 209v511l79 4v-511zM129 -7c-37 0 -59 24 -59 60c0 35 22 59 60 59c36 0 59 -24 59 -59c0 -36 -22 -60 -60 -60z" />
    <glyph glyph-name="exclamdown" unicode="&#xa1;" horiz-adv-x="274" 
d="M145 517c37 0 59 -24 59 -60c0 -35 -22 -59 -60 -59c-36 0 -59 24 -59 59c0 36 22 60 60 60zM184 301v-511l-79 -4v511z" />
    <glyph glyph-name="periodcentered.loclCAT" horiz-adv-x="91" 
d="M45 303c-31 0 -51 21 -51 53s20 54 52 54c31 0 50 -22 50 -54s-19 -53 -51 -53z" />
    <glyph glyph-name="numbersign" unicode="#" horiz-adv-x="728" 
d="M641 360h-117l-25 -161h120l-4 -64h-126l-24 -157h-68l24 157h-155l-24 -157h-69l24 157h-115l4 64h121l25 161h-123l4 64h128l25 161h69l-25 -161h155l25 161h69l-25 -161h111zM431 199l25 161h-155l-25 -161h155z" />
    <glyph glyph-name="period" unicode="." horiz-adv-x="259" 
d="M129 -7c-37 0 -59 24 -59 60c0 35 22 59 60 59c36 0 59 -24 59 -59c0 -36 -22 -60 -60 -60z" />
    <glyph glyph-name="question" unicode="?" horiz-adv-x="378" 
d="M171 213l-75 -4c0 93 41 140 78 184c34 38 65 74 65 137c0 84 -57 124 -170 124l4 75c169 0 255 -62 255 -185c0 -154 -137 -184 -155 -305c-1 -8 -2 -17 -2 -26zM138 -7c-37 0 -59 24 -59 60c0 35 22 59 60 59c36 0 59 -24 59 -59c0 -36 -22 -60 -60 -60z" />
    <glyph glyph-name="questiondown" unicode="&#xbf;" horiz-adv-x="378" 
d="M240 517c37 0 59 -24 59 -60c0 -35 -22 -59 -60 -59c-36 0 -59 24 -59 59c0 36 22 60 60 60zM207 297l75 4c0 -93 -41 -140 -78 -184c-34 -38 -65 -74 -65 -137c0 -84 57 -124 170 -124l-4 -75c-169 0 -255 62 -255 185c0 154 137 184 155 305c1 8 2 17 2 26z" />
    <glyph glyph-name="quotedbl" unicode="&#x22;" horiz-adv-x="417" 
d="M102 478l-6 242l74 4l-6 -242zM253 478l-6 242l74 4l-6 -242z" />
    <glyph glyph-name="quotesingle" unicode="'" horiz-adv-x="266" 
d="M102 478l-6 242l74 4l-6 -242z" />
    <glyph glyph-name="semicolon" unicode=";" horiz-adv-x="264" 
d="M134 346c-37 0 -59 24 -59 60c0 35 22 59 60 59c36 0 59 -24 59 -59c0 -36 -22 -60 -60 -60zM129 113c39 0 63 -23 63 -74c0 -62 -39 -137 -89 -163l-26 19c27 26 46 71 49 109c-38 2 -56 23 -56 54c0 32 21 55 59 55z" />
    <glyph glyph-name="slash" unicode="/" horiz-adv-x="376" 
d="M87 -128l-74 -4l275 860l74 4z" />
    <glyph glyph-name="numbersign.ss01" horiz-adv-x="735" 
d="M657 438h-118l-29 -163h116l-4 -63h-123l-38 -212h-68l38 212h-174l-38 -212h-68l38 212h-115l4 63h122l29 163h-120l4 63h127l35 199h68l-35 -199h174l35 199h68l-35 -199h111zM442 275l29 163h-174l-29 -163h174z" />
    <glyph glyph-name="underscore" unicode="_" horiz-adv-x="582" 
d="M46 0h486l-4 -68h-486z" />
    <glyph glyph-name="braceleft" unicode="{" horiz-adv-x="385" 
d="M220 -78c0 -53 13 -68 51 -68h50l-4 -64h-78c-71 0 -94 33 -94 110v248c0 44 -18 83 -70 83h-45l4 71h46c51 0 65 35 65 89v219c0 77 25 110 99 110h77l-4 -64h-49c-38 0 -48 -15 -48 -68v-213c0 -44 -9 -89 -50 -106c38 -18 50 -61 50 -108v-239z" />
    <glyph glyph-name="braceright" unicode="}" horiz-adv-x="385" 
d="M308 302h45l-4 -72h-46c-51 0 -65 -35 -65 -89v-241c0 -77 -25 -110 -99 -110h-77l4 64h49c38 0 49 15 49 68v235c0 44 9 89 50 106c-38 18 -50 61 -50 108v217c0 53 -13 68 -52 68h-50l4 64h78c71 0 94 -33 94 -110v-225c0 -45 18 -83 70 -83z" />
    <glyph glyph-name="bracketleft" unicode="[" horiz-adv-x="358" 
d="M290 656h-112v-799h112l-4 -64h-178v927h186z" />
    <glyph glyph-name="bracketright" unicode="]" horiz-adv-x="358" 
d="M72 720h178v-927h-186l4 64h112v799h-112z" />
    <glyph glyph-name="braceleft.case" horiz-adv-x="385" 
d="M220 -8c0 -53 13 -68 51 -68h50l-4 -64h-78c-71 0 -94 33 -94 110v248c0 44 -18 83 -70 83h-45l4 71h46c51 0 65 35 65 89v219c0 77 25 110 99 110h77l-4 -64h-49c-38 0 -48 -15 -48 -68v-213c0 -44 -9 -89 -50 -106c38 -18 50 -61 50 -108v-239z" />
    <glyph glyph-name="braceright.case" horiz-adv-x="385" 
d="M308 372h45l-4 -72h-46c-51 0 -65 -35 -65 -89v-241c0 -77 -25 -110 -99 -110h-77l4 64h49c38 0 49 15 49 68v235c0 44 9 89 50 106c-38 18 -50 61 -50 108v217c0 53 -13 68 -52 68h-50l4 64h78c71 0 94 -33 94 -110v-225c0 -45 18 -83 70 -83z" />
    <glyph glyph-name="bracketleft.case" horiz-adv-x="358" 
d="M290 726h-112v-799h112l-4 -64h-178v927h186z" />
    <glyph glyph-name="bracketright.case" horiz-adv-x="358" 
d="M72 790h178v-927h-186l4 64h112v799h-112z" />
    <glyph glyph-name="parenleft.case" horiz-adv-x="388" 
d="M265 -159c-102 146 -153 314 -153 481c0 166 50 331 150 472l66 -8c-84 -139 -127 -300 -127 -462c0 -165 44 -330 132 -472z" />
    <glyph glyph-name="parenright.case" horiz-adv-x="388" 
d="M123 802c102 -146 153 -314 153 -481c0 -166 -50 -331 -150 -472l-66 8c84 139 127 300 127 462c0 165 -44 330 -132 472z" />
    <glyph glyph-name="parenleft" unicode="(" horiz-adv-x="388" 
d="M265 -222c-102 146 -153 314 -153 481c0 166 50 331 150 472l66 -8c-84 -139 -127 -300 -127 -462c0 -165 44 -330 132 -472z" />
    <glyph glyph-name="parenright" unicode=")" horiz-adv-x="388" 
d="M123 739c102 -146 153 -314 153 -481c0 -166 -50 -331 -150 -472l-66 8c84 139 127 300 127 462c0 165 -44 330 -132 472z" />
    <glyph glyph-name="emdash" unicode="&#x2014;" horiz-adv-x="878" 
d="M47 389h786l-4 -68h-786z" />
    <glyph glyph-name="endash" unicode="&#x2013;" horiz-adv-x="578" 
d="M47 389h486l-4 -68h-486z" />
    <glyph glyph-name="hyphen" unicode="-" horiz-adv-x="363" 
d="M56 317l4 62h247l-4 -62h-247z" />
    <glyph glyph-name="guillemotleft" unicode="&#xab;" horiz-adv-x="520" 
d="M293 411l-132 -155l132 -159l-47 -36l-165 193l174 199zM330 256l106 -122l-46 -36l-137 156l140 156l37 -42z" />
    <glyph glyph-name="guillemotright" unicode="&#xbb;" horiz-adv-x="520" 
d="M274 453l165 -193l-174 -199l-38 42l132 155l-132 159zM130 416l137 -156l-140 -156l-37 42l100 112l-106 122z" />
    <glyph glyph-name="guilsinglleft" unicode="&#x2039;" horiz-adv-x="383" 
d="M297 420l-132 -155l132 -159l-47 -36l-165 193l174 199z" />
    <glyph glyph-name="guilsinglright" unicode="&#x203a;" horiz-adv-x="383" 
d="M133 453l165 -193l-174 -199l-38 42l132 155l-132 159z" />
    <glyph glyph-name="quotedblbase" unicode="&#x201e;" horiz-adv-x="399" 
d="M124 105c37 0 62 -23 62 -73c0 -60 -39 -132 -89 -158l-26 19c28 24 47 68 49 105c-38 1 -56 22 -56 52c0 31 21 55 60 55zM273 105c37 0 62 -23 62 -73c0 -60 -39 -132 -89 -158l-26 19c28 24 47 68 49 105c-38 1 -56 22 -56 52c0 31 21 55 60 55z" />
    <glyph glyph-name="quotedblleft" unicode="&#x201c;" horiz-adv-x="399" 
d="M130 635c38 -1 56 -22 56 -52c0 -31 -21 -55 -60 -55c-37 0 -62 23 -62 73c0 60 39 132 89 158l26 -19c-28 -24 -47 -68 -49 -105zM279 635c38 -1 56 -22 56 -52c0 -31 -21 -55 -60 -55c-37 0 -62 23 -62 73c0 60 39 132 89 158l26 -19c-28 -24 -47 -68 -49 -105z" />
    <glyph glyph-name="quotedblright" unicode="&#x201d;" horiz-adv-x="399" 
d="M124 749c37 0 62 -23 62 -73c0 -60 -39 -132 -89 -158l-26 19c28 24 47 68 49 105c-38 1 -56 22 -56 52c0 31 21 55 60 55zM273 749c37 0 62 -23 62 -73c0 -60 -39 -132 -89 -158l-26 19c28 24 47 68 49 105c-38 1 -56 22 -56 52c0 31 21 55 60 55z" />
    <glyph glyph-name="quoteleft" unicode="&#x2018;" horiz-adv-x="251" 
d="M131 635c38 -1 56 -22 56 -52c0 -31 -21 -55 -60 -55c-37 0 -62 23 -62 73c0 60 39 132 89 158l26 -19c-28 -24 -47 -68 -49 -105z" />
    <glyph glyph-name="quoteright" unicode="&#x2019;" horiz-adv-x="251" 
d="M124 749c37 0 62 -23 62 -73c0 -60 -39 -132 -89 -158l-26 19c28 24 47 68 49 105c-38 1 -56 22 -56 52c0 31 21 55 60 55z" />
    <glyph glyph-name="quotesinglbase" unicode="&#x201a;" horiz-adv-x="251" 
d="M124 105c37 0 62 -23 62 -73c0 -60 -39 -132 -89 -158l-26 19c28 24 47 68 49 105c-38 1 -56 22 -56 52c0 31 21 55 60 55z" />
    <glyph glyph-name="space" unicode=" " horiz-adv-x="260" 
 />
    <glyph glyph-name="uni00A0" unicode="&#xa0;" horiz-adv-x="260" 
 />
    <glyph glyph-name="cent" unicode="&#xa2;" horiz-adv-x="507" 
d="M468 100c-35 -25 -85 -42 -142 -46v-80l-69 -4v86c-119 18 -194 106 -194 245c0 145 78 244 203 264v90l68 4v-90c46 -3 91 -15 126 -37l-23 -61c-36 21 -73 32 -119 32c-107 0 -176 -66 -176 -191c0 -124 64 -190 176 -190c51 0 94 13 126 33z" />
    <glyph glyph-name="currency" unicode="&#xa4;" horiz-adv-x="646" 
d="M550 138l-37 -35l-67 75c-34 -24 -76 -38 -123 -38s-90 14 -123 39l-67 -76l-37 35l70 72c-32 38 -51 88 -51 147c0 57 18 107 49 144l-67 68l36 35l64 -72c34 25 77 40 126 40s93 -15 127 -41l64 73l35 -35l-68 -68c32 -37 50 -87 50 -144c0 -59 -19 -110 -51 -148z
M323 194c85 0 146 67 146 161s-61 161 -147 161c-85 0 -145 -67 -145 -161s61 -161 146 -161z" />
    <glyph glyph-name="dollar" unicode="$" horiz-adv-x="517" 
d="M453 231c0 -85 -59 -151 -152 -170v-80l-69 -4v79c-60 3 -118 22 -168 55l32 60c51 -30 100 -45 154 -45c71 0 116 34 116 93c0 54 -55 79 -116 107c-75 34 -158 72 -158 170c0 72 47 144 149 160v68l69 4v-70c43 -3 83 -14 119 -32l-25 -60c-37 18 -80 27 -123 27
c-72 0 -107 -38 -107 -86c0 -46 34 -73 78 -96c83 -42 201 -70 201 -180z" />
    <glyph glyph-name="Euro" unicode="&#x20ac;" horiz-adv-x="654" 
d="M598 101l24 -57c-50 -33 -123 -57 -203 -57c-165 0 -274 90 -302 261h-89l5 59h78c-1 11 -1 23 -1 35c0 20 1 39 3 57h-67l6 59h70c35 157 145 256 307 256c70 0 134 -16 185 -42l-25 -63c-49 22 -102 34 -158 34c-118 0 -197 -67 -226 -185h301l-5 -59h-306
c-1 -16 -2 -32 -2 -49c0 -15 1 -29 2 -43h288l-5 -59h-275c26 -122 104 -190 225 -190c68 0 121 18 170 43z" />
    <glyph glyph-name="sterling" unicode="&#xa3;" horiz-adv-x="526" 
d="M234 277c1 -63 -17 -131 -81 -209h306v-68h-391l-5 53c75 87 95 158 94 224h-103l5 59h92c-3 17 -7 34 -11 51c-9 43 -19 86 -19 134c0 93 57 192 189 192c68 0 114 -20 156 -41l-25 -64c-47 21 -81 34 -127 34c-78 0 -113 -56 -113 -136c0 -35 8 -69 15 -105
c5 -21 10 -43 13 -65h194l-5 -59h-184z" />
    <glyph glyph-name="yen" unicode="&#xa5;" horiz-adv-x="637" 
d="M527 270h-164v-74h169l-5 -60h-164v-136h-78v136h-171l6 60h165v74h-171l6 59h151l-208 371l92 4l172 -323l172 323l83 -4l-207 -371h157z" />
    <glyph glyph-name="plus" unicode="+" horiz-adv-x="604" 
d="M523 393l-4 -66h-180v-187h-69v187h-189l4 66h185v188h69v-188h184z" />
    <glyph glyph-name="minus" unicode="&#x2212;" horiz-adv-x="604" 
d="M85 393h438l-4 -66h-438z" />
    <glyph glyph-name="multiply" unicode="&#xd7;" horiz-adv-x="604" 
d="M495 217l-48 -49l-145 145l-144 -144l-47 47l144 144l-146 145l49 48l145 -145l143 143l48 -46l-144 -144z" />
    <glyph glyph-name="divide" unicode="&#xf7;" horiz-adv-x="604" 
d="M304 500c-32 0 -53 22 -53 54s21 53 54 53c32 0 53 -21 53 -53s-21 -54 -54 -54zM85 393h438l-4 -66h-438zM304 115c-32 0 -53 22 -53 54c0 31 21 54 54 54c32 0 53 -23 53 -54c0 -32 -21 -54 -54 -54z" />
    <glyph glyph-name="equal" unicode="=" horiz-adv-x="604" 
d="M85 484h438l-4 -67h-438zM85 274h438l-4 -66h-438z" />
    <glyph glyph-name="notequal" unicode="&#x2260;" horiz-adv-x="604" 
d="M366 417l-56 -143h213l-4 -66h-234l-39 -101h-74l39 101h-130l4 66h151l56 143h-211l4 67h232l41 105h74l-41 -105h132l-4 -67h-153z" />
    <glyph glyph-name="greater" unicode="&#x3e;" horiz-adv-x="604" 
d="M96 573l412 -204v-55l-412 -204v70l329 162l-329 161v70z" />
    <glyph glyph-name="less" unicode="&#x3c;" horiz-adv-x="604" 
d="M508 573v-70l-329 -161l329 -162v-70l-412 204v55z" />
    <glyph glyph-name="greaterequal" unicode="&#x2265;" horiz-adv-x="604" 
d="M96 653l412 -204v-55l-412 -204v70l329 162l-329 161v70zM96 39v67h411v-67h-411z" />
    <glyph glyph-name="lessequal" unicode="&#x2264;" horiz-adv-x="604" 
d="M508 653v-70l-329 -161l329 -162v-70l-412 204v55zM97 39v67h411v-67h-411z" />
    <glyph glyph-name="plusminus" unicode="&#xb1;" horiz-adv-x="604" 
d="M274 269v168h-170l4 59h166v168h61v-168h165l-3 -59h-162v-168h-61zM104 121l4 59h392l-3 -59h-393z" />
    <glyph glyph-name="approxequal" unicode="&#x2248;" horiz-adv-x="604" 
d="M67 375c10 79 70 110 123 110c44 0 87 -18 126 -35c35 -15 67 -29 96 -29c30 0 62 17 69 63l57 -12c-10 -80 -71 -110 -123 -110c-42 0 -82 17 -120 34c-35 15 -69 30 -101 30s-63 -18 -70 -63zM67 176c10 79 70 110 123 110c44 0 87 -18 126 -35c35 -15 67 -29 96 -29
c30 0 62 17 69 63l57 -12c-10 -80 -71 -110 -123 -110c-42 0 -82 17 -120 34c-35 15 -69 30 -101 30s-63 -18 -70 -63z" />
    <glyph glyph-name="asciitilde" unicode="~" horiz-adv-x="604" 
d="M67 278c10 79 70 110 123 110c44 0 87 -18 126 -35c35 -15 67 -29 96 -29c30 0 62 17 69 63l57 -12c-10 -80 -71 -110 -123 -110c-42 0 -82 17 -120 34c-35 15 -69 30 -101 30s-63 -18 -70 -63z" />
    <glyph glyph-name="logicalnot" unicode="&#xac;" horiz-adv-x="604" 
d="M522 393v-241h-69v175h-371l4 66h436z" />
    <glyph glyph-name="emptyset" unicode="&#x2205;" horiz-adv-x="711" 
d="M583 508c40 -48 62 -113 62 -187c0 -171 -118 -289 -290 -289c-74 0 -138 22 -187 61l-24 -24l-41 41l24 24c-39 49 -61 113 -61 187c0 171 118 289 289 289c74 0 139 -22 188 -61l24 24l41 -40zM127 321c0 -58 15 -107 42 -145l332 331c-38 28 -87 43 -146 43
c-140 0 -228 -88 -228 -229zM355 92c141 0 229 88 229 229c0 58 -15 108 -43 145l-331 -331c38 -28 87 -43 145 -43z" />
    <glyph glyph-name="infinity" unicode="&#x221e;" horiz-adv-x="867" 
d="M650 423c87 0 158 -68 158 -170s-69 -175 -162 -175c-85 0 -154 61 -216 127c-63 -66 -129 -127 -211 -127c-90 0 -160 74 -160 175c0 102 69 170 158 170c86 0 155 -63 218 -129c63 66 131 129 215 129zM226 142c58 0 110 48 164 104c-56 60 -110 113 -168 113
c-53 0 -95 -42 -95 -106c0 -65 42 -111 99 -111zM642 142c55 0 98 46 98 111c0 64 -40 106 -97 106c-60 0 -114 -49 -168 -107c55 -58 108 -110 167 -110z" />
    <glyph glyph-name="integral" unicode="&#x222b;" horiz-adv-x="363" 
d="M287 733c37 0 72 -11 104 -26l-23 -57c-25 11 -49 17 -77 17c-65 0 -93 -48 -93 -166v-506c0 -144 -60 -218 -165 -218c-37 0 -73 11 -105 26l24 57c25 -11 49 -17 77 -17c65 0 92 49 92 165v506c0 145 61 219 166 219z" />
    <glyph glyph-name="product" unicode="&#x220f;" horiz-adv-x="770" 
d="M618 635v-730h-75v730h-316v-730h-75v730h-124v65h713v-65h-123z" />
    <glyph glyph-name="summation" unicode="&#x2211;" horiz-adv-x="610" 
d="M25 -95v46l298 349l-284 350v50h531v-63h-422v-4l263 -324l-283 -334v-3h459v-67h-562z" />
    <glyph glyph-name="radical" unicode="&#x221a;" horiz-adv-x="643" 
d="M381 -150h-67l-178 461l-81 -30l-17 43l145 57l163 -439l1 -1l222 877h58z" />
    <glyph glyph-name="partialdiff" unicode="&#x2202;" horiz-adv-x="597" 
d="M258 -5c-149 0 -214 124 -214 232c0 149 108 248 232 248c107 0 173 -77 189 -108h1c2 13 2 35 2 48c0 184 -95 302 -216 302c-60 0 -114 -26 -143 -48l-27 50c31 25 96 58 177 58c154 0 284 -130 284 -376c0 -216 -99 -406 -285 -406zM263 55c102 0 176 106 193 243
c-17 46 -78 118 -168 118c-95 0 -168 -82 -168 -191c0 -95 57 -170 143 -170z" />
    <glyph glyph-name="percent" unicode="%" horiz-adv-x="901" 
d="M249 -20l-55 35l456 705l57 -33zM221 359c-100 0 -159 64 -159 173c0 108 60 177 160 177c101 0 159 -65 159 -174c0 -110 -59 -176 -160 -176zM222 412c61 0 95 43 95 121s-35 123 -95 123s-95 -43 -95 -122s35 -122 95 -122zM680 -15c-100 0 -159 64 -159 173
c0 108 60 177 160 177c101 0 159 -65 159 -174c0 -110 -59 -176 -160 -176zM681 38c61 0 95 43 95 121s-35 123 -95 123s-95 -43 -95 -122s35 -122 95 -122z" />
    <glyph glyph-name="perthousand" unicode="&#x2030;" horiz-adv-x="1291" 
d="M249 -20l-55 35l456 705l57 -33zM221 359c-100 0 -159 64 -159 173c0 108 60 177 160 177c101 0 159 -65 159 -174c0 -110 -59 -176 -160 -176zM222 412c61 0 95 43 95 121s-35 123 -95 123s-95 -43 -95 -122s35 -122 95 -122zM680 -15c-100 0 -159 64 -159 173
c0 108 60 177 160 177c101 0 159 -65 159 -174c0 -110 -59 -176 -160 -176zM1070 -15c-100 0 -159 64 -159 173c0 108 60 177 160 177c101 0 159 -65 159 -174c0 -110 -59 -176 -160 -176zM681 38c61 0 95 43 95 121s-35 123 -95 123s-95 -43 -95 -122s35 -122 95 -122z
M1071 38c61 0 95 43 95 121s-35 123 -95 123s-95 -43 -95 -122s35 -122 95 -122z" />
    <glyph glyph-name="lozenge" unicode="&#x25ca;" horiz-adv-x="618" 
d="M338 -49h-60l-220 394l222 395h60l220 -395zM309 677h-2l-181 -331l182 -332h3l181 329z" />
    <glyph glyph-name="at" unicode="@" horiz-adv-x="1053" 
d="M564 -152c150 0 263 39 336 83l26 -56c-85 -55 -228 -95 -381 -95c-299 0 -479 152 -479 435c0 277 173 486 484 486c278 0 436 -168 436 -418c0 -187 -87 -294 -221 -294c-69 0 -113 32 -128 103c-32 -66 -90 -102 -168 -102c-89 0 -136 48 -136 121
c0 116 117 155 299 157v6c0 99 -36 137 -115 137c-43 0 -81 -10 -132 -39l-18 52c55 33 107 47 164 47c113 0 165 -58 165 -190v-127c0 -71 24 -103 79 -103c84 0 134 79 134 216c0 224 -123 368 -364 368c-261 0 -402 -171 -402 -410c0 -263 168 -377 421 -377zM484 48
c94 0 147 72 148 170c-163 -1 -228 -27 -228 -99c0 -46 25 -71 80 -71z" />
    <glyph glyph-name="ampersand" unicode="&#x26;" horiz-adv-x="766" 
d="M739 44l-41 -62c-59 42 -112 81 -161 119c-67 -75 -152 -116 -243 -116c-119 0 -207 66 -207 174c0 105 73 165 151 217c-53 68 -78 128 -78 185c0 93 70 164 178 164c95 0 159 -53 159 -140c0 -97 -79 -155 -160 -210c46 -52 109 -109 192 -175c31 52 55 117 69 194
l59 -27c-15 -81 -41 -150 -76 -207c47 -36 100 -75 158 -116zM239 566c0 -44 20 -93 62 -148c64 44 118 89 118 160c0 52 -29 85 -85 85c-62 0 -95 -42 -95 -97zM306 52c65 0 128 31 180 89c-89 71 -159 134 -211 191c-61 -44 -111 -92 -111 -161c0 -73 61 -119 142 -119z
" />
    <glyph glyph-name="paragraph" unicode="&#xb6;" horiz-adv-x="537" 
d="M267 0v280h-11c-112 0 -222 63 -222 205c0 131 74 235 302 235c62 0 98 -3 124 -9v-711h-59v665h-74v-665h-60z" />
    <glyph glyph-name="section" unicode="&#xa7;" horiz-adv-x="576" 
d="M433 183c25 -23 42 -53 42 -96c0 -104 -99 -151 -199 -151c-59 0 -136 16 -177 45l22 51c27 -17 92 -37 153 -37c83 0 127 35 127 87c0 64 -70 87 -146 111c-90 29 -188 61 -188 167c0 54 25 98 90 130c-24 22 -39 51 -39 91c0 93 80 144 186 144c56 0 118 -15 159 -36
l-21 -52c-32 15 -84 30 -135 30c-78 0 -117 -33 -117 -79c0 -59 66 -81 138 -105c88 -30 185 -63 185 -169c0 -57 -28 -95 -80 -131zM135 373c0 -71 75 -95 154 -122c35 -11 70 -22 100 -38c34 20 56 50 56 90c0 69 -72 93 -149 119c-33 11 -67 23 -96 38
c-39 -18 -65 -44 -65 -87z" />
    <glyph glyph-name="copyright" unicode="&#xa9;" horiz-adv-x="999" 
d="M498 -91c-256 0 -425 188 -425 436c0 247 170 445 426 445c255 0 428 -188 428 -435c0 -248 -172 -446 -429 -446zM503 -25c209 0 352 172 352 375c0 210 -144 375 -361 375c-210 0 -349 -173 -349 -375c0 -211 141 -375 358 -375zM648 185c-39 -28 -89 -42 -142 -42
c-123 0 -198 82 -198 213c0 134 80 219 209 219c47 0 88 -11 125 -35l-27 -56c-29 15 -57 23 -93 23c-91 0 -138 -51 -138 -148s47 -148 136 -148c38 0 75 9 103 27z" />
    <glyph glyph-name="registered" unicode="&#xae;" horiz-adv-x="585" 
d="M294 724c145 0 241 -100 241 -248c0 -152 -97 -254 -244 -254c-145 0 -240 100 -240 249c0 151 96 253 243 253zM293 266c117 0 194 83 194 209c0 124 -77 206 -194 206c-118 0 -195 -83 -195 -209c0 -125 77 -206 195 -206zM380 539c0 -31 -16 -57 -41 -73l65 -115h-51
l-56 100c-7 -1 -14 -2 -22 -2h-14v-97h-43v262c27 3 45 5 59 5c63 0 103 -31 103 -80zM274 487c40 0 62 17 62 50c0 30 -19 45 -58 45c-6 0 -11 0 -17 -1v-94h13z" />
    <glyph glyph-name="trademark" unicode="&#x2122;" horiz-adv-x="854" 
d="M811 328h-61l-42 297l-96 -286h-61l-96 288l-43 -299h-54l55 372l75 2l97 -294l99 294l72 -2zM329 700v-47h-117v-325h-59v325h-118v47h294z" />
    <glyph glyph-name="degree" unicode="&#xb0;" horiz-adv-x="364" 
d="M182 706c84 0 142 -66 142 -148c0 -92 -64 -146 -143 -146c-76 0 -141 54 -141 146c0 89 65 148 141 148h1zM180 668c-54 0 -93 -42 -93 -109c0 -62 40 -110 96 -110c58 0 94 42 94 107c0 62 -32 112 -96 112h-1z" />
    <glyph glyph-name="bar" unicode="|" horiz-adv-x="281" 
d="M171 811v-1081h-61v1081h61z" />
    <glyph glyph-name="brokenbar" unicode="&#xa6;" horiz-adv-x="281" 
d="M110 355v456h61v-456h-61zM110 -270v461h61v-461h-61z" />
    <glyph glyph-name="uni2113" unicode="&#x2113;" horiz-adv-x="568" 
d="M507 158l36 -32c-49 -84 -129 -130 -210 -130c-104 0 -170 58 -179 173c-19 -11 -40 -22 -61 -33l-25 48c31 17 59 33 85 48v239c0 185 89 242 169 242c99 0 152 -75 152 -160c0 -145 -84 -242 -247 -342v-9c0 -97 40 -145 123 -145c71 0 126 56 157 101zM320 654
c-47 0 -94 -44 -93 -171v-205c133 90 174 160 174 267c0 62 -22 109 -81 109z" />
    <glyph glyph-name="dagger" unicode="&#x2020;" horiz-adv-x="564" 
d="M319 716l-8 -229l206 6v-68l-206 7l8 -484h-74l7 484l-205 -7v68l205 -6l-7 229h74z" />
    <glyph glyph-name="daggerdbl" unicode="&#x2021;" horiz-adv-x="565" 
d="M318 716l-6 -216l206 7v-68l-206 7v-227l206 7v-67l-206 7l6 -218h-73l6 218l-204 -7v67l205 -7v227l-205 -7v68l205 -7l-7 216h73z" />
    <glyph glyph-name="estimated" unicode="&#x212e;" horiz-adv-x="898" 
d="M197 340v-212c73 -77 154 -116 253 -116c102 0 193 46 256 119h57c-71 -84 -186 -139 -314 -139c-221 0 -399 160 -399 358s178 359 399 359c223 0 399 -159 399 -369h-651zM701 574c-75 76 -154 113 -251 113c-94 0 -178 -38 -253 -114v-214h504v215z" />
    <glyph glyph-name="asciicircum" unicode="^" horiz-adv-x="565" 
d="M460 250l-179 388l-179 -388h-54l209 438h50l210 -438h-57z" />
    <glyph glyph-name="uni0308" unicode="&#x308;" 
d="M-305 609c-30 0 -47 19 -47 50s17 51 50 51c30 0 47 -20 47 -51s-17 -50 -50 -50zM-110 609c-30 0 -47 19 -47 50s17 51 50 51c30 0 47 -20 47 -51s-17 -50 -50 -50z" />
    <glyph glyph-name="uni0307" unicode="&#x307;" 
d="M-129 616c-31 0 -49 21 -49 53s18 53 52 53c32 0 49 -21 49 -53s-17 -53 -52 -53z" />
    <glyph glyph-name="gravecomb" unicode="&#x300;" 
d="M-199 611l-21 -38l-189 101l32 59z" />
    <glyph glyph-name="acutecomb" unicode="&#x301;" 
d="M-287 611l179 122l32 -59l-190 -101z" />
    <glyph glyph-name="uni030B" unicode="&#x30b;" 
d="M-350 563l47 176l67 -13l-67 -172zM-237 563l69 171l67 -14l-89 -167z" />
    <glyph glyph-name="caroncomb.alt" 
d="M-160 552v170l61 4l-9 -174h-52z" />
    <glyph glyph-name="uni0302" unicode="&#x302;" 
d="M-190 606l-21 -35l-120 81l-119 -81l-21 35l140 123z" />
    <glyph glyph-name="uni030C" unicode="&#x30c;" 
d="M-134 729l21 -35l-141 -123l-141 123l22 35l119 -81z" />
    <glyph glyph-name="uni0306" unicode="&#x306;" 
d="M-231 645c44 0 76 32 96 79l42 -22c-24 -79 -74 -115 -138 -115s-114 36 -138 115l42 22c20 -47 52 -79 96 -79z" />
    <glyph glyph-name="uni030A" unicode="&#x30a;" 
d="M-298 555c-62 0 -103 39 -103 98c0 58 41 97 103 97c61 0 102 -39 102 -97c0 -59 -41 -98 -102 -98zM-298 598c32 0 52 20 52 55c0 34 -20 54 -52 54c-33 0 -53 -20 -53 -54c0 -35 20 -55 53 -55z" />
    <glyph glyph-name="tildecomb" unicode="&#x303;" 
d="M-203 604c-25 0 -43 9 -59 18c-17 9 -33 18 -56 18s-39 -11 -64 -32l-26 37c35 39 66 52 96 52c32 0 53 -11 71 -22c15 -8 28 -15 44 -15c23 0 38 11 63 33l25 -37c-34 -40 -63 -52 -94 -52z" />
    <glyph glyph-name="uni0304" unicode="&#x304;" 
d="M-406 674h298l-1 -60h-298z" />
    <glyph glyph-name="uni0312" unicode="&#x312;" 
d="M-164 654c1 0 3 0 4 1h5c24 0 40 -14 40 -40c0 -28 -20 -41 -46 -41c-30 0 -51 19 -51 60c0 42 30 83 92 96l10 -22c-33 -14 -50 -32 -54 -54z" />
    <glyph glyph-name="uni0326" unicode="&#x326;" 
d="M-137 -60c30 0 51 -19 51 -60c0 -42 -30 -83 -92 -96l-10 22c33 14 50 32 54 54c-2 0 -3 0 -5 -1h-4c-24 0 -40 14 -40 40c0 28 20 41 46 41z" />
    <glyph glyph-name="uni0327" unicode="&#x327;" 
d="M-299 -60c63 1 94 -28 94 -74c0 -51 -40 -81 -102 -81c-31 0 -55 7 -78 20l17 36c17 -9 36 -14 56 -14c30 0 49 11 49 37c0 29 -24 43 -67 43c-3 0 -6 0 -9 -1h-9l-9 20l26 74h47z" />
    <glyph glyph-name="uni0328" unicode="&#x328;" 
d="M-112 -149l19 -36c-25 -22 -54 -35 -90 -35c-41 0 -80 19 -80 73s39 104 107 159l59 -12c-70 -56 -99 -96 -99 -134c0 -25 13 -33 33 -33c15 0 30 5 51 18z" />
    <glyph glyph-name="uni0335" unicode="&#x335;" 
d="M-510 322l4 57h319l-4 -57h-319z" />
    <glyph glyph-name="uni0336" unicode="&#x336;" 
d="M-603 553l4 55h592l-4 -55h-592z" />
    <glyph glyph-name="uni0308.case" 
d="M-305 782c-30 0 -47 20 -47 51s17 51 50 51c30 0 47 -20 47 -51s-17 -51 -50 -51zM-110 782c-30 0 -47 20 -47 51s17 51 50 51c30 0 47 -20 47 -51s-17 -51 -50 -51z" />
    <glyph glyph-name="uni0307.case" 
d="M-129 782c-31 0 -49 21 -49 53c0 33 18 53 52 53c32 0 49 -20 49 -53c0 -32 -17 -53 -52 -53z" />
    <glyph glyph-name="gravecomb.case" 
d="M-189 782l-19 -39l-210 90l28 62z" />
    <glyph glyph-name="acutecomb.case" 
d="M-408 782l201 113l28 -62l-210 -90z" />
    <glyph glyph-name="uni030B.case" 
d="M-354 774l37 153l60 -12l-49 -150zM-239 770l57 151l61 -13l-70 -148z" />
    <glyph glyph-name="uni0302.case" 
d="M-170 792l-21 -36l-140 71l-139 -71l-21 36l160 107z" />
    <glyph glyph-name="uni030C.case" 
d="M-102 890l22 -35l-161 -107l-161 107l21 35l140 -71z" />
    <glyph glyph-name="uni0306.case" 
d="M-231 824c48 0 87 30 106 69l43 -21c-25 -71 -82 -106 -149 -106s-124 35 -149 106l43 21c19 -39 59 -69 106 -69z" />
    <glyph glyph-name="uni030A.case" 
d="M-298 696c-63 0 -105 39 -105 99c0 58 42 97 105 97c62 0 104 -39 104 -97c0 -60 -42 -99 -104 -99zM-298 739c32 0 52 20 52 56c0 34 -20 54 -52 54c-33 0 -53 -20 -53 -54c0 -36 20 -56 53 -56z" />
    <glyph glyph-name="tildecomb.case" 
d="M-265 760c-26 0 -50 9 -73 19c-22 8 -44 17 -66 17c-25 0 -42 -11 -69 -32l-25 37c36 39 68 52 100 52s60 -11 85 -22c20 -8 38 -15 54 -15c24 0 40 11 67 33l25 -37c-36 -39 -67 -52 -98 -52z" />
    <glyph glyph-name="uni0304.case" 
d="M-406 840h298l-1 -60h-298z" />
    <glyph glyph-name="acutecomb.loclPLK.case" 
d="M-265 763l36 152l69 -12l-62 -148z" />
    <glyph glyph-name="acutecomb.loclPLK" 
d="M-241 582l42 174l67 -14l-67 -167z" />
    <glyph glyph-name="acute" unicode="&#xb4;" horiz-adv-x="311" 
d="M50 611l179 122l32 -59l-190 -101z" />
    <glyph glyph-name="breve" unicode="&#x2d8;" horiz-adv-x="376" 
d="M188 645c44 0 76 32 96 79l42 -22c-24 -79 -74 -115 -138 -115s-114 36 -138 115l42 22c20 -47 52 -79 96 -79z" />
    <glyph glyph-name="caron" unicode="&#x2c7;" horiz-adv-x="382" 
d="M311 729l21 -35l-141 -123l-141 123l22 35l119 -81z" />
    <glyph glyph-name="cedilla" unicode="&#xb8;" horiz-adv-x="280" 
d="M136 -60c63 1 94 -28 94 -74c0 -51 -40 -81 -102 -81c-31 0 -55 7 -78 20l17 36c17 -9 36 -14 56 -14c30 0 49 11 49 37c0 29 -24 43 -67 43c-3 0 -6 0 -9 -1h-9l-9 20l26 74h47z" />
    <glyph glyph-name="circumflex" unicode="&#x2c6;" horiz-adv-x="382" 
d="M331 606l-21 -35l-120 81l-119 -81l-21 35l140 123z" />
    <glyph glyph-name="dieresis" unicode="&#xa8;" horiz-adv-x="391" 
d="M97 609c-30 0 -47 19 -47 50s17 51 50 51c30 0 47 -20 47 -51s-17 -50 -50 -50zM292 609c-30 0 -47 19 -47 50s17 51 50 51c30 0 47 -20 47 -51s-17 -50 -50 -50z" />
    <glyph glyph-name="dotaccent" unicode="&#x2d9;" horiz-adv-x="201" 
d="M99 616c-31 0 -49 21 -49 53s18 53 52 53c32 0 49 -21 49 -53s-17 -53 -52 -53z" />
    <glyph glyph-name="grave" unicode="`" horiz-adv-x="311" 
d="M260 611l-21 -38l-189 101l32 59z" />
    <glyph glyph-name="hungarumlaut" unicode="&#x2dd;" horiz-adv-x="349" 
d="M50 563l47 176l67 -13l-67 -172zM163 563l69 171l67 -14l-89 -167z" />
    <glyph glyph-name="macron" unicode="&#xaf;" horiz-adv-x="399" 
d="M51 674h298l-1 -60h-298z" />
    <glyph glyph-name="ogonek" unicode="&#x2db;" horiz-adv-x="271" 
d="M201 -149l19 -36c-25 -22 -54 -35 -90 -35c-41 0 -80 19 -80 73s39 104 107 159l59 -12c-70 -56 -99 -96 -99 -134c0 -25 13 -33 33 -33c15 0 30 5 51 18z" />
    <glyph glyph-name="ring" unicode="&#x2da;" horiz-adv-x="305" 
d="M153 555c-62 0 -103 39 -103 98c0 58 41 97 103 97c61 0 102 -39 102 -97c0 -59 -41 -98 -102 -98zM153 598c32 0 52 20 52 55c0 34 -20 54 -52 54c-33 0 -53 -20 -53 -54c0 -35 20 -55 53 -55z" />
    <glyph glyph-name="tilde" unicode="&#x2dc;" horiz-adv-x="399" 
d="M255 604c-25 0 -43 9 -59 18c-17 9 -33 18 -56 18s-39 -11 -64 -32l-26 37c35 39 66 52 96 52c32 0 53 -11 71 -22c15 -8 28 -15 44 -15c23 0 38 11 63 33l25 -37c-34 -40 -63 -52 -94 -52z" />
    </font>
</defs>
</svg>
