<?xml version="1.0" standalone="no"?>
<!DOCTYPE svg PUBLIC "-//W3C//DTD SVG 1.1//EN" "http://www.w3.org/Graphics/SVG/1.1/DTD/svg11.dtd" >
<svg>
<metadata>
Created by FontForge 20120731 at Tue Sep 24 09:14:06 2019
 By www-data
Copyright \(c\) 2016 by Mucca/Schriftlabor. All rights reserved.
</metadata>
<defs>
<font id="SephoraSans-Medium" horiz-adv-x="0" >
  <font-face 
    font-family="Sephora Sans Medium"
    font-weight="500"
    font-stretch="normal"
    units-per-em="1000"
    panose-1="0 0 6 0 0 0 0 0 0 0"
    ascent="770"
    descent="-230"
    x-height="494"
    cap-height="700"
    bbox="-617 -270 1243 950"
    underline-thickness="50"
    underline-position="-50"
    stemh="88"
    stemv="115"
    unicode-range="U+0020-25CA"
  />
<missing-glyph horiz-adv-x="725" 
d="M363 36c-182 0 -313 131 -313 313c0 181 131 312 313 312c181 0 312 -131 312 -312c0 -182 -131 -313 -312 -313zM311 307l95 1c0 19 12 33 26 49c20 23 43 50 43 98c0 70 -48 100 -187 100l-4 -98c48 0 69 -10 69 -32c0 -8 -2 -15 -6 -22c-12 -21 -36 -41 -36 -96z
M359 145c45 0 66 27 66 63c0 37 -21 65 -60 65c-45 0 -65 -28 -65 -65c0 -36 20 -63 59 -63z" />
    <glyph glyph-name=".notdef" horiz-adv-x="725" 
d="M363 36c-182 0 -313 131 -313 313c0 181 131 312 313 312c181 0 312 -131 312 -312c0 -182 -131 -313 -312 -313zM311 307l95 1c0 19 12 33 26 49c20 23 43 50 43 98c0 70 -48 100 -187 100l-4 -98c48 0 69 -10 69 -32c0 -8 -2 -15 -6 -22c-12 -21 -36 -41 -36 -96z
M359 145c45 0 66 27 66 63c0 37 -21 65 -60 65c-45 0 -65 -28 -65 -65c0 -36 20 -63 59 -63z" />
    <glyph glyph-name="A" unicode="A" horiz-adv-x="700" 
d="M560 0l-66 190h-293l-67 -190h-116l260 701l142 6l262 -707h-122zM231 277h232l-115 331z" />
    <glyph glyph-name="Aacute" unicode="&#xc1;" horiz-adv-x="700" 
d="M496 824l-223 -82l-23 52l211 113zM560 0l-66 190h-293l-67 -190h-116l260 701l142 6l262 -707h-122zM231 277h232l-115 331z" />
    <glyph glyph-name="Abreve" unicode="&#x102;" horiz-adv-x="700" 
d="M350 764c-74 0 -136 41 -158 114l57 29c18 -38 54 -67 101 -67s83 29 101 67l57 -29c-22 -73 -83 -114 -158 -114zM560 0l-66 190h-293l-67 -190h-116l260 701l142 6l262 -707h-122zM231 277h232l-115 331z" />
    <glyph glyph-name="Acircumflex" unicode="&#xc2;" horiz-adv-x="700" 
d="M350 818l-142 -66l-25 50l167 106l168 -106l-25 -50zM560 0l-66 190h-293l-67 -190h-116l260 701l142 6l262 -707h-122zM231 277h232l-115 331z" />
    <glyph glyph-name="Adieresis" unicode="&#xc4;" horiz-adv-x="700" 
d="M248 775c-38 0 -60 25 -60 63s22 63 64 63c38 0 59 -25 59 -63s-21 -63 -63 -63zM449 775c-39 0 -60 25 -60 63s21 63 63 63c39 0 60 -25 60 -63s-21 -63 -63 -63zM560 0l-66 190h-293l-67 -190h-116l260 701l142 6l262 -707h-122zM231 277h232l-115 331z" />
    <glyph glyph-name="Agrave" unicode="&#xc0;" horiz-adv-x="700" 
d="M449 794l-24 -52l-222 82l35 83zM560 0l-66 190h-293l-67 -190h-116l260 701l142 6l262 -707h-122zM231 277h232l-115 331z" />
    <glyph glyph-name="Amacron" unicode="&#x100;" horiz-adv-x="700" 
d="M507 861l-2 -81h-312l1 81h313zM560 0l-66 190h-293l-67 -190h-116l260 701l142 6l262 -707h-122zM231 277h232l-115 331z" />
    <glyph glyph-name="Aogonek" unicode="&#x104;" horiz-adv-x="700" 
d="M663 -136l21 -47c-33 -25 -69 -38 -105 -38c-52 0 -93 24 -93 82c0 46 26 92 74 139l-66 190h-293l-67 -190h-116l260 701l142 6l262 -707c-70 -45 -103 -82 -103 -123c0 -20 14 -29 30 -29s30 4 54 16zM231 277h232l-115 331z" />
    <glyph glyph-name="Aring" unicode="&#xc5;" horiz-adv-x="700" 
d="M561 -2l-68 192h-291l-69 -192l-115 2l255 664c-27 20 -42 51 -42 89c0 64 47 108 119 108c70 0 117 -44 117 -108c0 -38 -15 -68 -40 -88l255 -665zM350 799c-29 0 -45 -17 -45 -46s16 -46 45 -46c27 0 43 17 43 46s-16 46 -43 46zM233 277h230l-114 324z" />
    <glyph glyph-name="Atilde" unicode="&#xc3;" horiz-adv-x="700" 
d="M277 797c-26 0 -45 -11 -75 -31l-28 51c42 39 77 52 112 52c33 0 60 -11 84 -21c20 -8 37 -15 54 -15c24 0 43 11 73 31l27 -51c-41 -38 -76 -52 -110 -52c-17 0 -32 4 -47 8c-31 11 -58 28 -90 28zM560 0l-66 190h-293l-67 -190h-116l260 701l142 6l262 -707h-122z
M231 277h232l-115 331z" />
    <glyph glyph-name="AE" unicode="&#xc6;" horiz-adv-x="786" 
d="M517 94h231v-94h-346v190h-201l-68 -192l-115 2l260 700h462v-94h-223v-199h197v-90h-197v-223zM231 277h171v329h-55z" />
    <glyph glyph-name="B" unicode="B" horiz-adv-x="551" 
d="M359 375c102 -21 156 -81 156 -175c0 -119 -90 -209 -280 -209c-35 0 -109 3 -168 9v700c48 6 112 10 150 10c153 0 240 -65 240 -178c0 -74 -37 -130 -98 -157zM222 623c-10 0 -23 -1 -37 -2h-3v-219h25c96 0 140 39 140 113c0 72 -42 108 -125 108zM251 87
c95 0 142 39 142 115c0 83 -55 120 -176 120h-35v-231c27 -3 52 -4 69 -4z" />
    <glyph glyph-name="C" unicode="C" horiz-adv-x="626" 
d="M377 -13c-181 0 -339 119 -339 357c0 219 135 369 359 369c72 0 137 -15 189 -41l-32 -92c-49 22 -100 32 -150 32c-147 0 -247 -92 -247 -262c0 -163 94 -261 238 -261c61 0 120 17 170 42l33 -81c-51 -38 -136 -63 -221 -63z" />
    <glyph glyph-name="Cacute" unicode="&#x106;" horiz-adv-x="626" 
d="M270 794l211 113l35 -83l-223 -82zM377 -13c-181 0 -339 119 -339 357c0 219 135 369 359 369c72 0 137 -15 189 -41l-32 -92c-49 22 -100 32 -150 32c-147 0 -247 -92 -247 -262c0 -163 94 -261 238 -261c61 0 120 17 170 42l33 -81c-51 -38 -136 -63 -221 -63z" />
    <glyph glyph-name="Cacute.loclPLK" horiz-adv-x="626" 
d="M340 769l29 158l94 -13l-65 -154zM377 -13c-181 0 -339 119 -339 357c0 219 135 369 359 369c72 0 137 -15 189 -41l-32 -92c-49 22 -100 32 -150 32c-147 0 -247 -92 -247 -262c0 -163 94 -261 238 -261c61 0 120 17 170 42l33 -81c-51 -38 -136 -63 -221 -63z" />
    <glyph glyph-name="Ccaron" unicode="&#x10c;" horiz-adv-x="626" 
d="M537 851l-167 -106l-168 106l25 50l143 -66l142 66zM565 131l33 -81c-51 -38 -136 -63 -221 -63c-181 0 -339 119 -339 357c0 219 135 369 359 369c72 0 137 -15 189 -41l-32 -92c-49 22 -100 32 -150 32c-147 0 -247 -92 -247 -262c0 -163 94 -261 238 -261
c61 0 120 17 170 42z" />
    <glyph glyph-name="Ccedilla" unicode="&#xc7;" horiz-adv-x="626" 
d="M363 -57c60 1 91 -27 91 -74c0 -53 -41 -85 -108 -85c-30 0 -56 7 -80 19l16 44c18 -8 36 -13 55 -13c27 0 45 10 45 34c0 32 -32 43 -82 40l-6 21l21 63c-153 24 -277 142 -277 352c0 219 135 369 359 369c72 0 137 -15 189 -41l-32 -92c-49 22 -100 32 -150 32
c-147 0 -247 -92 -247 -262c0 -163 94 -261 238 -261c61 0 120 17 170 42l33 -81c-51 -38 -136 -63 -221 -63h-5z" />
    <glyph glyph-name="Cdotaccent" unicode="&#x10a;" horiz-adv-x="626" 
d="M368 774c-42 0 -65 27 -65 68c0 42 23 69 69 69c42 0 64 -27 64 -69c0 -41 -22 -68 -68 -68zM377 -13c-181 0 -339 119 -339 357c0 219 135 369 359 369c72 0 137 -15 189 -41l-32 -92c-49 22 -100 32 -150 32c-147 0 -247 -92 -247 -262c0 -163 94 -261 238 -261
c61 0 120 17 170 42l33 -81c-51 -38 -136 -63 -221 -63z" />
    <glyph glyph-name="D" unicode="D" horiz-adv-x="684" 
d="M248 711c254 0 397 -121 397 -353c0 -227 -136 -369 -397 -369c-42 0 -123 4 -181 11v700c66 7 139 11 181 11zM256 86c180 0 271 90 271 265c0 187 -107 263 -272 263c-15 0 -39 -1 -65 -2h-8v-524c30 -1 57 -2 74 -2z" />
    <glyph glyph-name="Eth" unicode="&#xd0;" horiz-adv-x="684" 
d="M248 711c254 0 397 -121 397 -353c0 -227 -136 -369 -397 -369c-42 0 -123 4 -181 11v314h-60l4 75h56v311c66 7 139 11 181 11zM256 86c180 0 271 90 271 265c0 187 -107 263 -272 263c-15 0 -39 -1 -65 -2h-8v-223h158l-4 -75h-154v-226c30 -1 57 -2 74 -2z" />
    <glyph glyph-name="Dcaron" unicode="&#x10e;" horiz-adv-x="684" 
d="M485 851l-167 -106l-168 106l25 50l143 -66l142 66zM248 711c254 0 397 -121 397 -353c0 -227 -136 -369 -397 -369c-42 0 -123 4 -181 11v700c66 7 139 11 181 11zM256 86c180 0 271 90 271 265c0 187 -107 263 -272 263c-15 0 -39 -1 -65 -2h-8v-524c30 -1 57 -2 74 -2
z" />
    <glyph glyph-name="Dcroat" unicode="&#x110;" horiz-adv-x="684" 
d="M248 711c254 0 397 -121 397 -353c0 -227 -136 -369 -397 -369c-42 0 -123 4 -181 11v314h-60l4 75h56v311c66 7 139 11 181 11zM256 86c180 0 271 90 271 265c0 187 -107 263 -272 263c-15 0 -39 -1 -65 -2h-8v-223h158l-4 -75h-154v-226c30 -1 57 -2 74 -2z" />
    <glyph glyph-name="E" unicode="E" horiz-adv-x="462" 
d="M182 94h242v-94h-357v700h349v-94h-234v-199h208v-90h-208v-223z" />
    <glyph glyph-name="Eacute" unicode="&#xc9;" horiz-adv-x="462" 
d="M396 824l-223 -82l-23 52l211 113zM182 94h242v-94h-357v700h349v-94h-234v-199h208v-90h-208v-223z" />
    <glyph glyph-name="Ecaron" unicode="&#x11a;" horiz-adv-x="462" 
d="M417 851l-167 -106l-168 106l25 50l143 -66l142 66zM182 94h242v-94h-357v700h349v-94h-234v-199h208v-90h-208v-223z" />
    <glyph glyph-name="Ecircumflex" unicode="&#xca;" horiz-adv-x="462" 
d="M250 818l-142 -66l-25 50l167 106l168 -106l-25 -50zM182 94h242v-94h-357v700h349v-94h-234v-199h208v-90h-208v-223z" />
    <glyph glyph-name="Edieresis" unicode="&#xcb;" horiz-adv-x="462" 
d="M148 775c-38 0 -60 25 -60 63s22 63 64 63c38 0 59 -25 59 -63s-21 -63 -63 -63zM349 775c-39 0 -60 25 -60 63s21 63 63 63c39 0 60 -25 60 -63s-21 -63 -63 -63zM182 94h242v-94h-357v700h349v-94h-234v-199h208v-90h-208v-223z" />
    <glyph glyph-name="Edotaccent" unicode="&#x116;" horiz-adv-x="462" 
d="M248 774c-42 0 -65 27 -65 68c0 42 23 69 69 69c42 0 64 -27 64 -69c0 -41 -22 -68 -68 -68zM182 94h242v-94h-357v700h349v-94h-234v-199h208v-90h-208v-223z" />
    <glyph glyph-name="Egrave" unicode="&#xc8;" horiz-adv-x="462" 
d="M349 794l-24 -52l-222 82l35 83zM182 94h242v-94h-357v700h349v-94h-234v-199h208v-90h-208v-223z" />
    <glyph glyph-name="Emacron" unicode="&#x112;" horiz-adv-x="462" 
d="M407 861l-2 -81h-312l1 81h313zM182 94h242v-94h-357v700h349v-94h-234v-199h208v-90h-208v-223z" />
    <glyph glyph-name="Eogonek" unicode="&#x118;" horiz-adv-x="462" 
d="M411 -135l21 -48c-25 -21 -62 -38 -106 -38c-52 0 -92 25 -92 80c0 51 34 98 92 141h-259v700h349v-94h-234v-199h208v-90h-208v-223h242v-94c-68 -46 -98 -86 -98 -121c0 -23 13 -31 33 -31c15 0 31 5 52 17z" />
    <glyph glyph-name="F" unicode="F" horiz-adv-x="449" 
d="M419 606h-237v-221h205v-94h-205v-291h-115v700h352v-94z" />
    <glyph glyph-name="G" unicode="G" horiz-adv-x="694" 
d="M527 336h110v-306c-74 -28 -159 -43 -239 -43c-227 0 -360 124 -360 348c0 233 146 378 374 378c80 0 155 -17 208 -48l-33 -90c-43 22 -108 37 -169 37c-157 0 -261 -94 -261 -272c0 -164 89 -255 250 -255c39 0 78 5 120 17v234z" />
    <glyph glyph-name="Gbreve" unicode="&#x11e;" horiz-adv-x="694" 
d="M388 764c-74 0 -136 41 -158 114l57 29c18 -38 54 -67 101 -67s83 29 101 67l57 -29c-22 -73 -83 -114 -158 -114zM527 336h110v-306c-74 -28 -159 -43 -239 -43c-227 0 -360 124 -360 348c0 233 146 378 374 378c80 0 155 -17 208 -48l-33 -90c-43 22 -108 37 -169 37
c-157 0 -261 -94 -261 -272c0 -164 89 -255 250 -255c39 0 78 5 120 17v234z" />
    <glyph glyph-name="Gcommaaccent" unicode="&#x122;" horiz-adv-x="694" 
d="M527 336h110v-306c-74 -28 -159 -43 -239 -43c-227 0 -360 124 -360 348c0 233 146 378 374 378c80 0 155 -17 208 -48l-33 -90c-43 22 -108 37 -169 37c-157 0 -261 -94 -261 -272c0 -164 89 -255 250 -255c39 0 78 5 120 17v234zM379 -52c39 0 65 -23 65 -65
c0 -49 -42 -89 -113 -101l-10 27c32 11 52 26 60 45c-37 -2 -61 13 -61 45c0 33 26 49 59 49z" />
    <glyph glyph-name="Gdotaccent" unicode="&#x120;" horiz-adv-x="694" 
d="M386 774c-42 0 -65 27 -65 68c0 42 23 69 69 69c42 0 64 -27 64 -69c0 -41 -22 -68 -68 -68zM527 336h110v-306c-74 -28 -159 -43 -239 -43c-227 0 -360 124 -360 348c0 233 146 378 374 378c80 0 155 -17 208 -48l-33 -90c-43 22 -108 37 -169 37
c-157 0 -261 -94 -261 -272c0 -164 89 -255 250 -255c39 0 78 5 120 17v234z" />
    <glyph glyph-name="H" unicode="H" horiz-adv-x="686" 
d="M504 700h115v-700h-115v302h-322v-302h-115v700h115v-302h322v302z" />
    <glyph glyph-name="Hbar" unicode="&#x126;" horiz-adv-x="686" 
d="M653 600l-4 -71h-30v-529h-115v292h-322v-292h-115v529h-34l4 71h30v100h115v-100h322v100h115v-100h34zM504 388v141h-322v-141h322z" />
    <glyph glyph-name="I" unicode="I" horiz-adv-x="259" 
d="M187 0h-115v700h115v-700z" />
    <glyph glyph-name="Iacute" unicode="&#xcd;" horiz-adv-x="259" 
d="M29 794l211 113l35 -83l-223 -82zM187 0h-115v700h115v-700z" />
    <glyph glyph-name="Icircumflex" unicode="&#xce;" horiz-adv-x="259" 
d="M129 908l168 -106l-25 -50l-143 66l-142 -66l-25 50zM72 0v700h115v-700h-115z" />
    <glyph glyph-name="Idieresis" unicode="&#xcf;" horiz-adv-x="259" 
d="M45 784c-36 0 -56 25 -56 63s20 63 59 63c36 0 55 -25 55 -63s-19 -63 -58 -63zM210 784c-36 0 -56 25 -56 63s20 63 59 63c35 0 55 -25 55 -63s-20 -63 -58 -63zM187 0h-115v700h115v-700z" />
    <glyph glyph-name="Idotaccent" unicode="&#x130;" horiz-adv-x="259" 
d="M127 774c-42 0 -65 27 -65 68c0 42 23 69 69 69c42 0 64 -27 64 -69c0 -41 -22 -68 -68 -68zM187 0h-115v700h115v-700z" />
    <glyph glyph-name="Igrave" unicode="&#xcc;" horiz-adv-x="259" 
d="M228 794l-24 -52l-222 82l35 83zM187 0h-115v700h115v-700z" />
    <glyph glyph-name="Imacron" unicode="&#x12a;" horiz-adv-x="259" 
d="M10 893h240l-2 -80h-240zM187 0h-115v700h115v-700z" />
    <glyph glyph-name="Iogonek" unicode="&#x12e;" horiz-adv-x="259" 
d="M174 -135l21 -48c-25 -21 -62 -38 -106 -38c-52 0 -92 25 -92 80c0 51 34 98 92 141h-17v700h115v-700c-68 -46 -98 -86 -98 -121c0 -23 13 -31 33 -31c15 0 31 5 52 17z" />
    <glyph glyph-name="J" unicode="J" horiz-adv-x="296" 
d="M108 700h116v-606c0 -208 -105 -303 -272 -305l-9 99c112 10 165 61 165 209v603z" />
    <glyph glyph-name="Jacute" horiz-adv-x="296" 
d="M69 794l211 113l35 -83l-223 -82zM108 700h116v-606c0 -208 -105 -303 -272 -305l-9 99c112 10 165 61 165 209v603z" />
    <glyph glyph-name="K" unicode="K" horiz-adv-x="637" 
d="M494 -6l-220 283l-92 -124v-153h-115v700h115v-379l281 383l127 -4l-244 -328l285 -372z" />
    <glyph glyph-name="Kcommaaccent" unicode="&#x136;" horiz-adv-x="637" 
d="M346 372l285 -372l-137 -6l-220 283l-92 -124v-153h-115v700h115v-379l281 383l127 -4zM310 -52c39 0 65 -23 65 -65c0 -49 -42 -89 -113 -101l-10 27c32 11 52 26 60 45c-37 -2 -61 13 -61 45c0 33 26 49 59 49z" />
    <glyph glyph-name="L" unicode="L" horiz-adv-x="434" 
d="M182 94h237v-94h-352v700h115v-606z" />
    <glyph glyph-name="Lacute" unicode="&#x139;" horiz-adv-x="434" 
d="M247 907l35 -83l-223 -82l-23 52zM182 94h237v-94h-352v700h115v-606z" />
    <glyph glyph-name="Lcaron" unicode="&#x13d;" horiz-adv-x="434" 
d="M320 704l-12 -176h-66v172zM182 94h237v-94h-352v700h115v-606z" />
    <glyph glyph-name="Lcommaaccent" unicode="&#x13b;" horiz-adv-x="434" 
d="M182 94h237v-94h-352v700h115v-606zM233 -52c39 0 65 -23 65 -65c0 -49 -42 -89 -113 -101l-10 27c32 11 52 26 60 45c-37 -2 -61 13 -61 45c0 33 26 49 59 49z" />
    <glyph glyph-name="Ldot" unicode="&#x13f;" horiz-adv-x="473" 
d="M182 700v-606h237v-94h-352v700h115zM356 315c-39 0 -63 25 -63 62c0 38 24 63 67 63c39 0 63 -25 63 -63c0 -37 -24 -62 -67 -62z" />
    <glyph glyph-name="Lslash" unicode="&#x141;" horiz-adv-x="439" 
d="M187 94h237v-94h-352v285l-31 -12l-24 68l55 21v338h115v-293l144 56l22 -69l-166 -64v-236z" />
    <glyph glyph-name="M" unicode="M" horiz-adv-x="933" 
d="M892 0l-120 -2l-62 557l-186 -526h-123l-183 530l-65 -561l-111 2l87 700l156 7l186 -543l190 543l143 -7z" />
    <glyph glyph-name="N" unicode="N" horiz-adv-x="704" 
d="M535 700h102v-700h-143l-325 560v-560h-102v700l150 7l318 -554v547z" />
    <glyph glyph-name="N.ss01" horiz-adv-x="704" 
d="M535 700h102v-700h-102v130l-295 323c-28 31 -50 56 -71 83v-536h-102v700l97 7l266 -293c44 -48 75 -85 105 -125v411z" />
    <glyph glyph-name="Nacute" unicode="&#x143;" horiz-adv-x="704" 
d="M503 824l-223 -82l-23 52l211 113zM535 700h102v-700h-143l-325 560v-560h-102v700l150 7l318 -554v547z" />
    <glyph glyph-name="Nacute.loclPLK" horiz-adv-x="704" 
d="M450 914l-65 -154l-58 9l29 158zM535 700h102v-700h-143l-325 560v-560h-102v700l150 7l318 -554v547z" />
    <glyph glyph-name="Nacute.loclPLK.ss01" horiz-adv-x="704" 
d="M445 914l-65 -154l-58 9l29 158zM535 700h102v-700h-102v130l-295 323c-28 31 -50 56 -71 83v-536h-102v700l97 7l266 -293c44 -48 75 -85 105 -125v411z" />
    <glyph glyph-name="Nacute.ss01" horiz-adv-x="704" 
d="M498 824l-223 -82l-23 52l211 113zM535 700h102v-700h-102v130l-295 323c-28 31 -50 56 -71 83v-536h-102v700l97 7l266 -293c44 -48 75 -85 105 -125v411z" />
    <glyph glyph-name="Ncaron" unicode="&#x147;" horiz-adv-x="704" 
d="M524 851l-167 -106l-168 106l25 50l143 -66l142 66zM535 700h102v-700h-143l-325 560v-560h-102v700l150 7l318 -554v547z" />
    <glyph glyph-name="Ncaron.ss01" horiz-adv-x="704" 
d="M519 851l-167 -106l-168 106l25 50l143 -66l142 66zM535 700h102v-700h-102v130l-295 323c-28 31 -50 56 -71 83v-536h-102v700l97 7l266 -293c44 -48 75 -85 105 -125v411z" />
    <glyph glyph-name="Ncommaaccent" unicode="&#x145;" horiz-adv-x="704" 
d="M535 700h102v-700h-143l-325 560v-560h-102v700l150 7l318 -554v547zM349 -52c39 0 65 -23 65 -65c0 -49 -42 -89 -113 -101l-10 27c32 11 52 26 60 45c-37 -2 -61 13 -61 45c0 33 26 49 59 49z" />
    <glyph glyph-name="Ncommaaccent.ss01" horiz-adv-x="704" 
d="M535 700h102v-700h-102v130l-295 323c-28 31 -50 56 -71 83v-536h-102v700l97 7l266 -293c44 -48 75 -85 105 -125v411zM349 -52c39 0 65 -23 65 -65c0 -49 -42 -89 -113 -101l-10 27c32 11 52 26 60 45c-37 -2 -61 13 -61 45c0 33 26 49 59 49z" />
    <glyph glyph-name="Eng" unicode="&#x14a;" horiz-adv-x="704" 
d="M535 700h102v-700c0 -147 -94 -210 -234 -215l-9 86c96 6 141 41 141 123v6h-41l-325 560v-560h-102v700l150 7l318 -554v547z" />
    <glyph glyph-name="Eng.ss01" horiz-adv-x="704" 
d="M535 700h102v-700c0 -147 -94 -210 -234 -215l-9 86c96 6 141 41 141 123v136l-295 323c-28 31 -50 56 -71 83v-536h-102v700l97 7l266 -293c44 -48 75 -85 105 -125v411z" />
    <glyph glyph-name="Ntilde" unicode="&#xd1;" horiz-adv-x="704" 
d="M284 797c-26 0 -45 -11 -75 -31l-28 51c42 39 77 52 112 52c33 0 60 -11 84 -21c20 -8 37 -15 54 -15c24 0 43 11 73 31l27 -51c-41 -38 -76 -52 -110 -52c-17 0 -32 4 -47 8c-31 11 -58 28 -90 28zM535 700h102v-700h-143l-325 560v-560h-102v700l150 7l318 -554v547z
" />
    <glyph glyph-name="Ntilde.ss01" horiz-adv-x="704" 
d="M279 797c-26 0 -45 -11 -75 -31l-28 51c42 39 77 52 112 52c33 0 60 -11 84 -21c20 -8 37 -15 54 -15c24 0 43 11 73 31l27 -51c-41 -38 -76 -52 -110 -52c-17 0 -32 4 -47 8c-31 11 -58 28 -90 28zM535 700h102v-700h-102v130l-295 323c-28 31 -50 56 -71 83v-536h-102
v700l97 7l266 -293c44 -48 75 -85 105 -125v411z" />
    <glyph glyph-name="O" unicode="O" horiz-adv-x="776" 
d="M388 -15c-214 0 -350 137 -350 365c0 223 136 365 350 365c213 0 349 -137 349 -365c0 -223 -136 -365 -349 -365zM388 86c139 0 225 92 225 264c0 173 -86 269 -225 269s-225 -96 -225 -269c0 -172 86 -264 225 -264z" />
    <glyph glyph-name="Oacute" unicode="&#xd3;" horiz-adv-x="776" 
d="M288 794l211 113l35 -83l-223 -82zM388 -15c-214 0 -350 137 -350 365c0 223 136 365 350 365c213 0 349 -137 349 -365c0 -223 -136 -365 -349 -365zM388 86c139 0 225 92 225 264c0 173 -86 269 -225 269s-225 -96 -225 -269c0 -172 86 -264 225 -264z" />
    <glyph glyph-name="Oacute.loclPLK" horiz-adv-x="776" 
d="M358 769l29 158l94 -13l-65 -154zM388 -15c-214 0 -350 137 -350 365c0 223 136 365 350 365c213 0 349 -137 349 -365c0 -223 -136 -365 -349 -365zM388 86c139 0 225 92 225 264c0 173 -86 269 -225 269s-225 -96 -225 -269c0 -172 86 -264 225 -264z" />
    <glyph glyph-name="Ocircumflex" unicode="&#xd4;" horiz-adv-x="776" 
d="M388 818l-142 -66l-25 50l167 106l168 -106l-25 -50zM388 715c213 0 349 -137 349 -365c0 -223 -136 -365 -349 -365c-214 0 -350 137 -350 365c0 223 136 365 350 365zM388 86c139 0 225 92 225 264c0 173 -86 269 -225 269s-225 -96 -225 -269c0 -172 86 -264 225 -264
z" />
    <glyph glyph-name="Odieresis" unicode="&#xd6;" horiz-adv-x="776" 
d="M286 775c-38 0 -60 25 -60 63s22 63 64 63c38 0 59 -25 59 -63s-21 -63 -63 -63zM487 775c-39 0 -60 25 -60 63s21 63 63 63c39 0 60 -25 60 -63s-21 -63 -63 -63zM388 -15c-214 0 -350 137 -350 365c0 223 136 365 350 365c213 0 349 -137 349 -365
c0 -223 -136 -365 -349 -365zM388 86c139 0 225 92 225 264c0 173 -86 269 -225 269s-225 -96 -225 -269c0 -172 86 -264 225 -264z" />
    <glyph glyph-name="Ograve" unicode="&#xd2;" horiz-adv-x="776" 
d="M487 794l-24 -52l-222 82l35 83zM388 -15c-214 0 -350 137 -350 365c0 223 136 365 350 365c213 0 349 -137 349 -365c0 -223 -136 -365 -349 -365zM388 86c139 0 225 92 225 264c0 173 -86 269 -225 269s-225 -96 -225 -269c0 -172 86 -264 225 -264z" />
    <glyph glyph-name="Ohungarumlaut" unicode="&#x150;" horiz-adv-x="776" 
d="M287 773l32 158l82 -16l-48 -154zM415 768l55 155l83 -17l-73 -151zM388 -15c-214 0 -350 137 -350 365c0 223 136 365 350 365c213 0 349 -137 349 -365c0 -223 -136 -365 -349 -365zM388 86c139 0 225 92 225 264c0 173 -86 269 -225 269s-225 -96 -225 -269
c0 -172 86 -264 225 -264z" />
    <glyph glyph-name="Omacron" unicode="&#x14c;" horiz-adv-x="776" 
d="M232 861h313l-2 -81h-312zM388 -15c-214 0 -350 137 -350 365c0 223 136 365 350 365c213 0 349 -137 349 -365c0 -223 -136 -365 -349 -365zM388 86c139 0 225 92 225 264c0 173 -86 269 -225 269s-225 -96 -225 -269c0 -172 86 -264 225 -264z" />
    <glyph glyph-name="Oslash" unicode="&#xd8;" horiz-adv-x="776" 
d="M652 608c55 -63 85 -150 85 -258c0 -223 -136 -365 -349 -365c-76 0 -143 17 -197 50l-34 -42l-67 57l34 42c-55 62 -86 150 -86 258c0 223 136 365 350 365c77 0 143 -18 197 -51l35 43l67 -56zM163 350c0 -67 13 -122 37 -164l318 395c-35 25 -79 38 -130 38
c-139 0 -225 -96 -225 -269zM388 86c139 0 225 92 225 264c0 66 -13 122 -36 164l-317 -393c35 -23 78 -35 128 -35z" />
    <glyph glyph-name="Otilde" unicode="&#xd5;" horiz-adv-x="776" 
d="M452 761c-28 0 -51 10 -73 19c-21 9 -41 17 -64 17c-26 0 -45 -11 -75 -31l-28 51c42 39 77 52 112 52c33 0 60 -11 84 -21c20 -8 37 -15 54 -15c24 0 43 11 73 31l27 -51c-41 -38 -76 -52 -110 -52zM388 -15c-214 0 -350 137 -350 365c0 223 136 365 350 365
c213 0 349 -137 349 -365c0 -223 -136 -365 -349 -365zM388 86c139 0 225 92 225 264c0 173 -86 269 -225 269s-225 -96 -225 -269c0 -172 86 -264 225 -264z" />
    <glyph glyph-name="OE" unicode="&#x152;" horiz-adv-x="963" 
d="M694 94h231v-94h-339v102c-48 -75 -125 -117 -227 -117c-184 0 -321 137 -321 364c0 228 139 366 323 366c101 0 177 -41 225 -115v100h331v-94h-223v-199h197v-90h-197v-223zM372 86c128 0 202 90 202 264s-74 269 -203 269c-123 0 -208 -96 -208 -269
c0 -171 84 -264 209 -264z" />
    <glyph glyph-name="P" unicode="P" horiz-adv-x="521" 
d="M217 710c174 0 285 -63 285 -224c0 -175 -125 -252 -296 -252h-24v-234h-115v700c47 6 115 10 150 10zM214 324c116 0 169 58 169 155c0 101 -55 139 -157 139c-13 0 -27 0 -44 -1v-293h32z" />
    <glyph glyph-name="Thorn" unicode="&#xde;" horiz-adv-x="520" 
d="M204 587c180 0 298 -58 298 -217c0 -163 -122 -236 -292 -236h-28v-134h-115v700h115v-113h22zM216 224c115 0 167 52 167 141c0 94 -63 130 -179 130h-22v-271h34z" />
    <glyph glyph-name="Q" unicode="Q" horiz-adv-x="776" 
d="M972 -111l25 -90c-54 -12 -105 -18 -152 -18c-165 0 -289 72 -386 210c-23 -4 -46 -6 -71 -6c-214 0 -350 137 -350 365c0 223 136 365 350 365c213 0 349 -137 349 -365c0 -153 -64 -269 -174 -325c73 -95 158 -148 290 -148c36 0 75 4 119 12zM163 350
c0 -172 86 -264 225 -264s225 92 225 264c0 173 -86 269 -225 269s-225 -96 -225 -269z" />
    <glyph glyph-name="Q.ss01" horiz-adv-x="776" 
d="M768 -118l18 -93c-27 -5 -54 -7 -79 -7c-146 0 -259 80 -333 203c-206 6 -336 142 -336 365s136 365 350 365c213 0 349 -137 349 -365c0 -184 -93 -313 -246 -353c54 -71 127 -119 226 -119c17 0 33 1 51 4zM163 350c0 -172 86 -264 225 -264s225 92 225 264
c0 173 -86 269 -225 269s-225 -96 -225 -269z" />
    <glyph glyph-name="R" unicode="R" horiz-adv-x="571" 
d="M558 0l-124 -6l-148 256c-21 -3 -42 -5 -63 -5h-41v-245h-115v700c47 6 118 11 160 11c166 0 278 -67 278 -220c0 -97 -49 -165 -117 -205zM182 334h47c99 0 157 55 157 150c0 91 -53 134 -152 134c-18 0 -35 0 -52 -1v-283z" />
    <glyph glyph-name="Racute" unicode="&#x154;" horiz-adv-x="571" 
d="M419 824l-223 -82l-23 52l211 113zM558 0l-124 -6l-148 256c-21 -3 -42 -5 -63 -5h-41v-245h-115v700c47 6 118 11 160 11c166 0 278 -67 278 -220c0 -97 -49 -165 -117 -205zM182 334h47c99 0 157 55 157 150c0 91 -53 134 -152 134c-18 0 -35 0 -52 -1v-283z" />
    <glyph glyph-name="Rcaron" unicode="&#x158;" horiz-adv-x="571" 
d="M440 851l-167 -106l-168 106l25 50l143 -66l142 66zM558 0l-124 -6l-148 256c-21 -3 -42 -5 -63 -5h-41v-245h-115v700c47 6 118 11 160 11c166 0 278 -67 278 -220c0 -97 -49 -165 -117 -205zM182 334h47c99 0 157 55 157 150c0 91 -53 134 -152 134c-18 0 -35 0 -52 -1
v-283z" />
    <glyph glyph-name="Rcommaaccent" unicode="&#x156;" horiz-adv-x="571" 
d="M388 286l170 -286l-124 -6l-148 256c-21 -3 -42 -5 -63 -5h-41v-245h-115v700c47 6 118 11 160 11c166 0 278 -67 278 -220c0 -97 -49 -165 -117 -205zM182 334h47c99 0 157 55 157 150c0 91 -53 134 -152 134c-18 0 -35 0 -52 -1v-283zM274 -52c39 0 65 -23 65 -65
c0 -49 -42 -89 -113 -101l-10 27c32 11 52 26 60 45c-37 -2 -61 13 -61 45c0 33 26 49 59 49z" />
    <glyph glyph-name="S" unicode="S" horiz-adv-x="488" 
d="M222 -12c-69 0 -133 22 -180 54l30 86c53 -27 100 -43 147 -43c75 0 112 40 112 94c0 65 -56 101 -116 141c-72 47 -151 99 -151 209c0 106 73 184 210 184c52 0 100 -11 148 -34l-31 -86c-36 17 -82 27 -116 27c-65 0 -102 -34 -102 -84c0 -62 56 -98 117 -138
c75 -48 157 -101 157 -212c0 -117 -93 -198 -225 -198z" />
    <glyph glyph-name="Sacute" unicode="&#x15a;" horiz-adv-x="488" 
d="M166 794l211 113l35 -83l-223 -82zM222 -12c-69 0 -133 22 -180 54l30 86c53 -27 100 -43 147 -43c75 0 112 40 112 94c0 65 -56 101 -116 141c-72 47 -151 99 -151 209c0 106 73 184 210 184c52 0 100 -11 148 -34l-31 -86c-36 17 -82 27 -116 27
c-65 0 -102 -34 -102 -84c0 -62 56 -98 117 -138c75 -48 157 -101 157 -212c0 -117 -93 -198 -225 -198z" />
    <glyph glyph-name="Sacute.loclPLK" horiz-adv-x="488" 
d="M236 769l29 158l94 -13l-65 -154zM222 -12c-69 0 -133 22 -180 54l30 86c53 -27 100 -43 147 -43c75 0 112 40 112 94c0 65 -56 101 -116 141c-72 47 -151 99 -151 209c0 106 73 184 210 184c52 0 100 -11 148 -34l-31 -86c-36 17 -82 27 -116 27
c-65 0 -102 -34 -102 -84c0 -62 56 -98 117 -138c75 -48 157 -101 157 -212c0 -117 -93 -198 -225 -198z" />
    <glyph glyph-name="Scaron" unicode="&#x160;" horiz-adv-x="488" 
d="M433 851l-167 -106l-168 106l25 50l143 -66l142 66zM173 536c0 -62 56 -98 117 -138c75 -48 157 -101 157 -212c0 -117 -93 -198 -225 -198c-69 0 -133 22 -180 54l30 86c53 -27 100 -43 147 -43c75 0 112 40 112 94c0 65 -56 101 -116 141c-72 47 -151 99 -151 209
c0 106 73 184 210 184c52 0 100 -11 148 -34l-31 -86c-36 17 -82 27 -116 27c-65 0 -102 -34 -102 -84z" />
    <glyph glyph-name="Scedilla" unicode="&#x15e;" horiz-adv-x="488" 
d="M447 186c0 -105 -76 -182 -187 -196l-10 -47c60 1 91 -27 91 -74c0 -53 -41 -85 -108 -85c-30 0 -56 7 -80 19l16 44c18 -8 36 -13 55 -13c27 0 45 10 45 34c0 32 -32 43 -82 40l-6 21l20 60c-61 4 -117 24 -159 53l30 86c53 -27 100 -43 147 -43c75 0 112 40 112 94
c0 65 -56 101 -116 141c-72 47 -151 99 -151 209c0 106 73 184 210 184c52 0 100 -11 148 -34l-31 -86c-36 17 -82 27 -116 27c-65 0 -102 -34 -102 -84c0 -45 29 -76 68 -104c81 -60 206 -109 206 -246z" />
    <glyph glyph-name="Scommaaccent" unicode="&#x218;" horiz-adv-x="488" 
d="M173 536c0 -62 56 -98 117 -138c75 -48 157 -101 157 -212c0 -117 -93 -198 -225 -198c-69 0 -133 22 -180 54l30 86c53 -27 100 -43 147 -43c75 0 112 40 112 94c0 65 -56 101 -116 141c-72 47 -151 99 -151 209c0 106 73 184 210 184c52 0 100 -11 148 -34l-31 -86
c-36 17 -82 27 -116 27c-65 0 -102 -34 -102 -84zM238 -52c39 0 65 -23 65 -65c0 -49 -42 -89 -113 -101l-10 27c32 11 52 26 60 45c-37 -2 -61 13 -61 45c0 33 26 49 59 49z" />
    <glyph glyph-name="T" unicode="T" horiz-adv-x="553" 
d="M548 700v-95h-213v-605h-115v605h-215v95h543z" />
    <glyph glyph-name="Tbar" unicode="&#x166;" horiz-adv-x="553" 
d="M548 605h-213v-216h110l-4 -75h-106v-314h-115v314h-108l4 75h104v216h-215v95h543v-95z" />
    <glyph glyph-name="Tcaron" unicode="&#x164;" horiz-adv-x="553" 
d="M446 851l-167 -106l-168 106l25 50l143 -66l142 66zM548 700v-95h-213v-605h-115v605h-215v95h543z" />
    <glyph glyph-name="uni0162" unicode="&#x162;" horiz-adv-x="553" 
d="M335 0h-35l-12 -57c60 1 91 -27 91 -74c0 -53 -41 -85 -108 -85c-30 0 -56 7 -80 19l16 44c18 -8 36 -13 55 -13c27 0 45 10 45 34c0 32 -32 43 -82 40l-6 21l24 71h-23v605h-215v95h543v-95h-213v-605z" />
    <glyph glyph-name="uni021A" unicode="&#x21a;" horiz-adv-x="553" 
d="M548 700v-95h-213v-605h-115v605h-215v95h543zM276 -52c39 0 65 -23 65 -65c0 -49 -42 -89 -113 -101l-10 27c32 11 52 26 60 45c-37 -2 -61 13 -61 45c0 33 26 49 59 49z" />
    <glyph glyph-name="U" unicode="U" horiz-adv-x="676" 
d="M498 700h116v-447c0 -181 -123 -265 -278 -265c-157 0 -274 81 -274 265v447h116v-432c0 -116 59 -174 160 -174s160 60 160 174v432z" />
    <glyph glyph-name="Uacute" unicode="&#xda;" horiz-adv-x="676" 
d="M241 794l211 113l35 -83l-223 -82zM498 700h116v-447c0 -181 -123 -265 -278 -265c-157 0 -274 81 -274 265v447h116v-432c0 -116 59 -174 160 -174s160 60 160 174v432z" />
    <glyph glyph-name="Ucircumflex" unicode="&#xdb;" horiz-adv-x="676" 
d="M341 818l-142 -66l-25 50l167 106l168 -106l-25 -50zM498 700h116v-447c0 -181 -123 -265 -278 -265c-157 0 -274 81 -274 265v447h116v-432c0 -116 59 -174 160 -174s160 60 160 174v432z" />
    <glyph glyph-name="Udieresis" unicode="&#xdc;" horiz-adv-x="676" 
d="M239 775c-38 0 -60 25 -60 63s22 63 64 63c38 0 59 -25 59 -63s-21 -63 -63 -63zM440 775c-39 0 -60 25 -60 63s21 63 63 63c39 0 60 -25 60 -63s-21 -63 -63 -63zM498 700h116v-447c0 -181 -123 -265 -278 -265c-157 0 -274 81 -274 265v447h116v-432
c0 -116 59 -174 160 -174s160 60 160 174v432z" />
    <glyph glyph-name="Ugrave" unicode="&#xd9;" horiz-adv-x="676" 
d="M433 831l-25 -52l-202 90l38 81zM498 700h116v-447c0 -181 -123 -265 -278 -265c-157 0 -274 81 -274 265v447h116v-432c0 -116 59 -174 160 -174s160 60 160 174v432z" />
    <glyph glyph-name="Uhungarumlaut" unicode="&#x170;" horiz-adv-x="676" 
d="M240 773l32 158l82 -16l-48 -154zM368 768l55 155l83 -17l-73 -151zM498 700h116v-447c0 -181 -123 -265 -278 -265c-157 0 -274 81 -274 265v447h116v-432c0 -116 59 -174 160 -174s160 60 160 174v432z" />
    <glyph glyph-name="Umacron" unicode="&#x16a;" horiz-adv-x="676" 
d="M185 861h313l-2 -81h-312zM498 700h116v-447c0 -181 -123 -265 -278 -265c-157 0 -274 81 -274 265v447h116v-432c0 -116 59 -174 160 -174s160 60 160 174v432z" />
    <glyph glyph-name="Uogonek" unicode="&#x172;" horiz-adv-x="676" 
d="M498 700h116v-447c0 -93 -33 -161 -85 -204h-1c0 -1 0 -1 -1 -1c-3 -3 -5 -4 -8 -6c-1 -1 -3 -2 -4 -3c-107 -82 -140 -118 -140 -163c0 -18 12 -28 30 -28s34 4 54 17l21 -48c-27 -22 -66 -38 -107 -38c-49 0 -91 25 -91 79c0 48 28 91 77 131c-8 -1 -15 -1 -23 -1
c-157 0 -274 81 -274 265v447h116v-432c0 -116 59 -174 160 -174s160 60 160 174v432z" />
    <glyph glyph-name="Uring" unicode="&#x16e;" horiz-adv-x="676" 
d="M341 701c-68 0 -114 41 -114 103c0 61 46 102 114 102c67 0 113 -41 113 -102c0 -62 -46 -103 -113 -103zM341 757c27 0 43 17 43 47c0 28 -16 45 -43 45c-28 0 -44 -17 -44 -45c0 -30 16 -47 44 -47zM498 700h116v-447c0 -181 -123 -265 -278 -265
c-157 0 -274 81 -274 265v447h116v-432c0 -116 59 -174 160 -174s160 60 160 174v432z" />
    <glyph glyph-name="V" unicode="V" horiz-adv-x="637" 
d="M521 705l117 -5l-259 -703h-122l-258 703l128 5l197 -574z" />
    <glyph glyph-name="W" unicode="W" horiz-adv-x="1041" 
d="M924 704l118 -4l-276 -706h-106l-135 357l-153 -357h-96l-277 706l123 4l214 -567l144 334l-87 229l123 2l200 -551z" />
    <glyph glyph-name="Wacute" unicode="&#x1e82;" horiz-adv-x="1041" 
d="M636 869l-202 -90l-25 52l189 119zM924 704l118 -4l-276 -706h-106l-135 357l-153 -357h-96l-277 706l123 4l214 -567l144 334l-87 229l123 2l200 -551z" />
    <glyph glyph-name="Wcircumflex" unicode="&#x174;" horiz-adv-x="1041" 
d="M501 818l-142 -66l-25 50l167 106l168 -106l-25 -50zM924 704l118 -4l-276 -706h-106l-135 357l-153 -357h-96l-277 706l123 4l214 -567l144 334l-87 229l123 2l200 -551z" />
    <glyph glyph-name="Wdieresis" unicode="&#x1e84;" horiz-adv-x="1041" 
d="M399 775c-38 0 -60 25 -60 63s22 63 64 63c38 0 59 -25 59 -63s-21 -63 -63 -63zM600 775c-39 0 -60 25 -60 63s21 63 63 63c39 0 60 -25 60 -63s-21 -63 -63 -63zM924 704l118 -4l-276 -706h-106l-135 357l-153 -357h-96l-277 706l123 4l214 -567l144 334l-87 229l123 2
l200 -551z" />
    <glyph glyph-name="Wgrave" unicode="&#x1e80;" horiz-adv-x="1041" 
d="M600 794l-24 -52l-222 82l35 83zM924 704l118 -4l-276 -706h-106l-135 357l-153 -357h-96l-277 706l123 4l214 -567l144 334l-87 229l123 2l200 -551z" />
    <glyph glyph-name="X" unicode="X" horiz-adv-x="632" 
d="M627 0l-135 -4l-183 273l-184 -273l-119 4l245 356l-230 344l133 4l172 -256l168 256l118 -4l-228 -338z" />
    <glyph glyph-name="Y" unicode="Y" horiz-adv-x="621" 
d="M625 700l-257 -411v-289h-115v286l-257 414l129 4l191 -310l194 310z" />
    <glyph glyph-name="Yacute" unicode="&#xdd;" horiz-adv-x="621" 
d="M444 869l-202 -90l-25 52l189 119zM625 700l-257 -411v-289h-115v286l-257 414l129 4l191 -310l194 310z" />
    <glyph glyph-name="Ycircumflex" unicode="&#x176;" horiz-adv-x="621" 
d="M309 818l-142 -66l-25 50l167 106l168 -106l-25 -50zM625 700l-257 -411v-289h-115v286l-257 414l129 4l191 -310l194 310z" />
    <glyph glyph-name="Ydieresis" unicode="&#x178;" horiz-adv-x="621" 
d="M207 775c-38 0 -60 25 -60 63s22 63 64 63c38 0 59 -25 59 -63s-21 -63 -63 -63zM408 775c-39 0 -60 25 -60 63s21 63 63 63c39 0 60 -25 60 -63s-21 -63 -63 -63zM625 700l-257 -411v-289h-115v286l-257 414l129 4l191 -310l194 310z" />
    <glyph glyph-name="Ygrave" unicode="&#x1ef2;" horiz-adv-x="621" 
d="M401 831l-25 -52l-202 90l38 81zM625 700l-257 -411v-289h-115v286l-257 414l129 4l191 -310l194 310z" />
    <glyph glyph-name="Z" unicode="Z" horiz-adv-x="559" 
d="M169 94h357v-94h-485l-7 82l348 524h-323v94h455l7 -82z" />
    <glyph glyph-name="Zacute" unicode="&#x179;" horiz-adv-x="559" 
d="M418 869l-202 -90l-25 52l189 119zM169 94h357v-94h-485l-7 82l348 524h-323v94h455l7 -82z" />
    <glyph glyph-name="Zacute.loclPLK" horiz-adv-x="559" 
d="M376 914l-65 -154l-58 9l29 158zM169 94h357v-94h-485l-7 82l348 524h-323v94h455l7 -82z" />
    <glyph glyph-name="Zcaron" unicode="&#x17d;" horiz-adv-x="559" 
d="M450 851l-167 -106l-168 106l25 50l143 -66l142 66zM169 94h357v-94h-485l-7 82l348 524h-323v94h455l7 -82z" />
    <glyph glyph-name="Zdotaccent" unicode="&#x17b;" horiz-adv-x="559" 
d="M281 774c-42 0 -65 27 -65 68c0 42 23 69 69 69c42 0 64 -27 64 -69c0 -41 -22 -68 -68 -68zM169 94h357v-94h-485l-7 82l348 524h-323v94h455l7 -82z" />
    <glyph glyph-name="a" unicode="a" horiz-adv-x="510" 
d="M455 0l-104 -9c-6 21 -11 50 -14 87c-34 -58 -93 -92 -166 -92c-85 0 -140 47 -140 134c0 123 110 172 305 174v6c0 80 -43 112 -117 112c-44 0 -89 -11 -131 -37l-27 81c53 35 119 51 183 51c127 0 199 -62 199 -200v-209c0 -35 4 -64 12 -98zM213 65
c74 0 123 59 123 141v15c-134 -1 -195 -27 -195 -91c0 -44 28 -65 72 -65z" />
    <glyph glyph-name="aacute" unicode="&#xe1;" horiz-adv-x="510" 
d="M390 663l-202 -90l-25 52l189 119zM455 0l-104 -9c-6 21 -11 50 -14 87c-34 -58 -93 -92 -166 -92c-85 0 -140 47 -140 134c0 123 110 172 305 174v6c0 80 -43 112 -117 112c-44 0 -89 -11 -131 -37l-27 81c53 35 119 51 183 51c127 0 199 -62 199 -200v-209
c0 -35 4 -64 12 -98zM213 65c74 0 123 59 123 141v15c-134 -1 -195 -27 -195 -91c0 -44 28 -65 72 -65z" />
    <glyph glyph-name="abreve" unicode="&#x103;" horiz-adv-x="510" 
d="M255 582c-72 0 -126 43 -147 122l57 29c18 -44 46 -76 90 -76s72 32 90 76l57 -29c-21 -79 -75 -122 -147 -122zM455 0l-104 -9c-6 21 -11 50 -14 87c-34 -58 -93 -92 -166 -92c-85 0 -140 47 -140 134c0 123 110 172 305 174v6c0 80 -43 112 -117 112
c-44 0 -89 -11 -131 -37l-27 81c53 35 119 51 183 51c127 0 199 -62 199 -200v-209c0 -35 4 -64 12 -98zM213 65c74 0 123 59 123 141v15c-134 -1 -195 -27 -195 -91c0 -44 28 -65 72 -65z" />
    <glyph glyph-name="acircumflex" unicode="&#xe2;" horiz-adv-x="510" 
d="M255 641l-122 -72l-25 49l147 117l148 -117l-25 -49zM455 0l-104 -9c-6 21 -11 50 -14 87c-34 -58 -93 -92 -166 -92c-85 0 -140 47 -140 134c0 123 110 172 305 174v6c0 80 -43 112 -117 112c-44 0 -89 -11 -131 -37l-27 81c53 35 119 51 183 51c127 0 199 -62 199 -200
v-209c0 -35 4 -64 12 -98zM213 65c74 0 123 59 123 141v15c-134 -1 -195 -27 -195 -91c0 -44 28 -65 72 -65z" />
    <glyph glyph-name="adieresis" unicode="&#xe4;" horiz-adv-x="510" 
d="M153 599c-38 0 -60 25 -60 63s22 64 64 64c38 0 59 -26 59 -64s-21 -63 -63 -63zM354 599c-39 0 -60 25 -60 63s21 64 63 64c39 0 60 -26 60 -64s-21 -63 -63 -63zM455 0l-104 -9c-6 21 -11 50 -14 87c-34 -58 -93 -92 -166 -92c-85 0 -140 47 -140 134
c0 123 110 172 305 174v6c0 80 -43 112 -117 112c-44 0 -89 -11 -131 -37l-27 81c53 35 119 51 183 51c127 0 199 -62 199 -200v-209c0 -35 4 -64 12 -98zM213 65c74 0 123 59 123 141v15c-134 -1 -195 -27 -195 -91c0 -44 28 -65 72 -65z" />
    <glyph glyph-name="agrave" unicode="&#xe0;" horiz-adv-x="510" 
d="M347 625l-25 -52l-202 90l38 81zM455 0l-104 -9c-6 21 -11 50 -14 87c-34 -58 -93 -92 -166 -92c-85 0 -140 47 -140 134c0 123 110 172 305 174v6c0 80 -43 112 -117 112c-44 0 -89 -11 -131 -37l-27 81c53 35 119 51 183 51c127 0 199 -62 199 -200v-209
c0 -35 4 -64 12 -98zM213 65c74 0 123 59 123 141v15c-134 -1 -195 -27 -195 -91c0 -44 28 -65 72 -65z" />
    <glyph glyph-name="amacron" unicode="&#x101;" horiz-adv-x="510" 
d="M412 688l-2 -80h-312l1 80h313zM455 0l-104 -9c-6 21 -11 50 -14 87c-34 -58 -93 -92 -166 -92c-85 0 -140 47 -140 134c0 123 110 172 305 174v6c0 80 -43 112 -117 112c-44 0 -89 -11 -131 -37l-27 81c53 35 119 51 183 51c127 0 199 -62 199 -200v-209
c0 -35 4 -64 12 -98zM213 65c74 0 123 59 123 141v15c-134 -1 -195 -27 -195 -91c0 -44 28 -65 72 -65z" />
    <glyph glyph-name="aogonek" unicode="&#x105;" horiz-adv-x="510" 
d="M446 -125l21 -48c-25 -21 -62 -38 -106 -38c-52 0 -92 25 -92 80c0 47 29 91 80 132c-5 20 -10 45 -12 77c-34 -58 -93 -92 -166 -92c-85 0 -140 47 -140 134c0 123 110 172 305 174v6c0 80 -43 112 -117 112c-44 0 -89 -11 -131 -37l-27 81c53 35 119 51 183 51
c127 0 199 -62 199 -200v-209c0 -31 3 -58 10 -87l6 -1c-2 -1 -4 -2 -5 -4c0 -1 0 -2 1 -3v-3l-12 -1c-57 -41 -82 -78 -82 -110c0 -23 13 -31 33 -31h3c14 1 29 6 49 17zM213 65c74 0 123 59 123 141v15c-134 -1 -195 -27 -195 -91c0 -44 28 -65 72 -65z" />
    <glyph glyph-name="aring" unicode="&#xe5;" horiz-adv-x="510" 
d="M255 554c-66 0 -109 40 -109 101s43 101 109 101c65 0 108 -40 108 -101s-43 -101 -108 -101zM255 701c-28 0 -44 -17 -44 -46s16 -46 44 -46c27 0 43 17 43 46s-16 46 -43 46zM455 0l-104 -9c-6 21 -11 50 -14 87c-34 -58 -93 -92 -166 -92c-85 0 -140 47 -140 134
c0 123 110 172 305 174v6c0 80 -43 112 -117 112c-44 0 -89 -11 -131 -37l-27 81c53 35 119 51 183 51c127 0 199 -62 199 -200v-209c0 -35 4 -64 12 -98zM213 65c74 0 123 59 123 141v15c-134 -1 -195 -27 -195 -91c0 -44 28 -65 72 -65z" />
    <glyph glyph-name="atilde" unicode="&#xe3;" horiz-adv-x="510" 
d="M190 633c-22 0 -39 -11 -65 -30l-28 51c38 38 70 52 103 52c32 0 54 -11 74 -21c16 -8 30 -15 46 -15c22 0 37 10 63 29c1 0 1 0 2 1l27 -51c-38 -38 -69 -52 -101 -52c-42 0 -64 23 -95 32c-8 3 -16 4 -26 4zM455 0l-104 -9c-6 21 -11 50 -14 87
c-34 -58 -93 -92 -166 -92c-85 0 -140 47 -140 134c0 123 110 172 305 174v6c0 80 -43 112 -117 112c-44 0 -89 -11 -131 -37l-27 81c53 35 119 51 183 51c127 0 199 -62 199 -200v-209c0 -35 4 -64 12 -98zM213 65c74 0 123 59 123 141v15c-134 -1 -195 -27 -195 -91
c0 -44 28 -65 72 -65z" />
    <glyph glyph-name="ae" unicode="&#xe6;" horiz-adv-x="772" 
d="M573 79c45 0 90 12 129 33l27 -75c-48 -30 -116 -51 -179 -51c-81 0 -143 35 -179 107c-41 -68 -109 -107 -188 -107c-92 0 -151 46 -151 132c0 115 104 162 305 166v16c0 80 -42 112 -120 112c-45 0 -86 -11 -128 -35l-27 79c53 33 113 51 175 51c82 0 135 -27 165 -90
c38 60 96 90 168 90c95 0 163 -56 163 -141c0 -98 -71 -143 -249 -143h-48c5 -95 44 -144 137 -144zM556 428c-69 0 -110 -52 -118 -145h44c110 0 147 20 147 78c0 39 -28 67 -73 67zM209 65c75 0 128 61 128 149v12c-138 -3 -199 -30 -199 -94c0 -46 27 -67 71 -67z" />
    <glyph glyph-name="b" unicode="b" horiz-adv-x="577" 
d="M346 507c105 0 187 -72 187 -229c0 -186 -96 -288 -258 -288c-59 0 -140 15 -200 48v682l108 6v-309c36 58 90 90 163 90zM290 82c89 0 131 74 131 183c0 97 -38 150 -110 150c-79 0 -128 -68 -128 -223v-91c37 -14 73 -19 107 -19z" />
    <glyph glyph-name="c" unicode="c" horiz-adv-x="490" 
d="M460 34c-38 -27 -101 -48 -172 -48c-146 0 -244 93 -244 249c0 169 104 272 259 272c54 0 111 -13 152 -37l-30 -85c-33 18 -71 28 -112 28c-92 0 -155 -56 -155 -165s60 -164 158 -164c48 0 86 12 113 28z" />
    <glyph glyph-name="cacute" unicode="&#x107;" horiz-adv-x="490" 
d="M202 625l189 119l38 -81l-202 -90zM460 34c-38 -27 -101 -48 -172 -48c-146 0 -244 93 -244 249c0 169 104 272 259 272c54 0 111 -13 152 -37l-30 -85c-33 18 -71 28 -112 28c-92 0 -155 -56 -155 -165s60 -164 158 -164c48 0 86 12 113 28z" />
    <glyph glyph-name="cacute.loclPLK" horiz-adv-x="490" 
d="M260 585l37 181l89 -17l-70 -174zM460 34c-38 -27 -101 -48 -172 -48c-146 0 -244 93 -244 249c0 169 104 272 259 272c54 0 111 -13 152 -37l-30 -85c-33 18 -71 28 -112 28c-92 0 -155 -56 -155 -165s60 -164 158 -164c48 0 86 12 113 28z" />
    <glyph glyph-name="ccaron" unicode="&#x10d;" horiz-adv-x="490" 
d="M441 686l-147 -117l-148 117l26 49l122 -72l122 72zM429 112l31 -78c-38 -27 -101 -48 -172 -48c-146 0 -244 93 -244 249c0 169 104 272 259 272c54 0 111 -13 152 -37l-30 -85c-33 18 -71 28 -112 28c-92 0 -155 -56 -155 -165s60 -164 158 -164c48 0 86 12 113 28z
" />
    <glyph glyph-name="ccedilla" unicode="&#xe7;" horiz-adv-x="490" 
d="M303 -57c60 1 91 -27 91 -74c0 -53 -41 -85 -108 -85c-30 0 -56 7 -80 19l16 44c18 -8 36 -13 55 -13c27 0 45 10 45 34c0 32 -32 43 -82 40l-6 21l20 59c-127 13 -210 103 -210 247c0 169 104 272 259 272c54 0 111 -13 152 -37l-30 -85c-33 18 -71 28 -112 28
c-92 0 -155 -56 -155 -165s60 -164 158 -164c48 0 86 12 113 28l31 -78c-34 -24 -87 -43 -148 -47z" />
    <glyph glyph-name="cdotaccent" unicode="&#x10b;" horiz-adv-x="490" 
d="M292 600c-42 0 -65 28 -65 69s23 69 69 69c42 0 64 -28 64 -69s-22 -69 -68 -69zM460 34c-38 -27 -101 -48 -172 -48c-146 0 -244 93 -244 249c0 169 104 272 259 272c54 0 111 -13 152 -37l-30 -85c-33 18 -71 28 -112 28c-92 0 -155 -56 -155 -165s60 -164 158 -164
c48 0 86 12 113 28z" />
    <glyph glyph-name="d" unicode="d" horiz-adv-x="576" 
d="M393 720l108 6v-726h-108v83c-33 -63 -86 -95 -154 -95c-122 0 -195 93 -195 246c0 175 92 273 220 273c46 0 87 -12 129 -39v252zM273 86c71 0 120 61 120 173v116c-36 26 -69 40 -114 40c-77 0 -121 -60 -121 -172c0 -100 40 -157 115 -157z" />
    <glyph glyph-name="eth" unicode="&#xf0;" horiz-adv-x="579" 
d="M391 617c108 -117 144 -243 144 -357c0 -183 -91 -274 -245 -274c-156 0 -246 94 -246 251c0 162 99 261 236 261c41 0 77 -9 107 -28c-22 40 -50 80 -87 121l-152 -44l-5 55l112 33c-32 28 -68 57 -110 85l118 6c31 -21 58 -43 82 -65l122 36l5 -57zM291 71
c81 0 128 58 128 171s-48 172 -130 172c-81 0 -126 -58 -126 -170c0 -115 46 -173 128 -173z" />
    <glyph glyph-name="dcaron" unicode="&#x10f;" horiz-adv-x="576" 
d="M555 724l78 4l-12 -176h-66v172zM393 468v252l108 6v-726h-108v83c-33 -63 -86 -95 -154 -95c-122 0 -195 93 -195 246c0 175 92 273 220 273c46 0 87 -12 129 -39zM273 86c71 0 120 61 120 173v116c-36 26 -69 40 -114 40c-77 0 -121 -60 -121 -172
c0 -100 40 -157 115 -157z" />
    <glyph glyph-name="dcroat" unicode="&#x111;" horiz-adv-x="576" 
d="M576 639l-4 -75h-71v-564h-108v83c-33 -63 -86 -95 -154 -95c-122 0 -195 93 -195 246c0 175 92 273 220 273c46 0 87 -12 129 -39v96h-150l4 75h146v81l108 6v-87h75zM273 86c71 0 120 61 120 173v116c-36 26 -69 40 -114 40c-77 0 -121 -60 -121 -172
c0 -100 40 -157 115 -157z" />
    <glyph glyph-name="e" unicode="e" horiz-adv-x="494" 
d="M288 79c45 0 96 12 135 30l29 -72c-50 -31 -115 -51 -184 -51c-138 0 -224 77 -224 245c0 173 90 276 236 276c100 0 175 -54 175 -143c0 -96 -68 -141 -261 -141h-40c5 -99 48 -144 134 -144zM276 428c-69 0 -113 -47 -122 -145h45c115 0 152 20 152 78
c0 39 -27 67 -75 67z" />
    <glyph glyph-name="eacute" unicode="&#xe9;" horiz-adv-x="494" 
d="M407 663l-202 -90l-25 52l189 119zM288 79c45 0 96 12 135 30l29 -72c-50 -31 -115 -51 -184 -51c-138 0 -224 77 -224 245c0 173 90 276 236 276c100 0 175 -54 175 -143c0 -96 -68 -141 -261 -141h-40c5 -99 48 -144 134 -144zM276 428c-69 0 -113 -47 -122 -145h45
c115 0 152 20 152 78c0 39 -27 67 -75 67z" />
    <glyph glyph-name="ecaron" unicode="&#x11b;" horiz-adv-x="494" 
d="M419 686l-147 -117l-148 117l26 49l122 -72l122 72zM288 79c45 0 96 12 135 30l29 -72c-50 -31 -115 -51 -184 -51c-138 0 -224 77 -224 245c0 173 90 276 236 276c100 0 175 -54 175 -143c0 -96 -68 -141 -261 -141h-40c5 -99 48 -144 134 -144zM276 428
c-69 0 -113 -47 -122 -145h45c115 0 152 20 152 78c0 39 -27 67 -75 67z" />
    <glyph glyph-name="ecircumflex" unicode="&#xea;" horiz-adv-x="494" 
d="M272 641l-122 -72l-25 49l147 117l148 -117l-25 -49zM288 79c45 0 96 12 135 30l29 -72c-50 -31 -115 -51 -184 -51c-138 0 -224 77 -224 245c0 173 90 276 236 276c100 0 175 -54 175 -143c0 -96 -68 -141 -261 -141h-40c5 -99 48 -144 134 -144zM276 428
c-69 0 -113 -47 -122 -145h45c115 0 152 20 152 78c0 39 -27 67 -75 67z" />
    <glyph glyph-name="edieresis" unicode="&#xeb;" horiz-adv-x="494" 
d="M170 599c-38 0 -60 25 -60 63s22 64 64 64c38 0 59 -26 59 -64s-21 -63 -63 -63zM371 599c-39 0 -60 25 -60 63s21 64 63 64c39 0 60 -26 60 -64s-21 -63 -63 -63zM288 79c45 0 96 12 135 30l29 -72c-50 -31 -115 -51 -184 -51c-138 0 -224 77 -224 245
c0 173 90 276 236 276c100 0 175 -54 175 -143c0 -96 -68 -141 -261 -141h-40c5 -99 48 -144 134 -144zM276 428c-69 0 -113 -47 -122 -145h45c115 0 152 20 152 78c0 39 -27 67 -75 67z" />
    <glyph glyph-name="edotaccent" unicode="&#x117;" horiz-adv-x="494" 
d="M270 600c-42 0 -65 28 -65 69s23 69 69 69c42 0 64 -28 64 -69s-22 -69 -68 -69zM288 79c45 0 96 12 135 30l29 -72c-50 -31 -115 -51 -184 -51c-138 0 -224 77 -224 245c0 173 90 276 236 276c100 0 175 -54 175 -143c0 -96 -68 -141 -261 -141h-40
c5 -99 48 -144 134 -144zM276 428c-69 0 -113 -47 -122 -145h45c115 0 152 20 152 78c0 39 -27 67 -75 67z" />
    <glyph glyph-name="egrave" unicode="&#xe8;" horiz-adv-x="494" 
d="M364 625l-25 -52l-202 90l38 81zM288 79c45 0 96 12 135 30l29 -72c-50 -31 -115 -51 -184 -51c-138 0 -224 77 -224 245c0 173 90 276 236 276c100 0 175 -54 175 -143c0 -96 -68 -141 -261 -141h-40c5 -99 48 -144 134 -144zM276 428c-69 0 -113 -47 -122 -145h45
c115 0 152 20 152 78c0 39 -27 67 -75 67z" />
    <glyph glyph-name="emacron" unicode="&#x113;" horiz-adv-x="494" 
d="M429 688l-2 -80h-312l1 80h313zM288 79c45 0 96 12 135 30l29 -72c-50 -31 -115 -51 -184 -51c-138 0 -224 77 -224 245c0 173 90 276 236 276c100 0 175 -54 175 -143c0 -96 -68 -141 -261 -141h-40c5 -99 48 -144 134 -144zM276 428c-69 0 -113 -47 -122 -145h45
c115 0 152 20 152 78c0 39 -27 67 -75 67z" />
    <glyph glyph-name="eogonek" unicode="&#x119;" horiz-adv-x="494" 
d="M452 37c-108 -72 -140 -124 -140 -159c0 -21 12 -30 32 -30c16 0 31 4 52 17l21 -48c-26 -21 -64 -38 -105 -38c-53 0 -93 28 -93 79c0 47 31 94 78 129c-10 -1 -19 -1 -29 -1c-138 0 -224 77 -224 245c0 173 90 276 236 276c100 0 175 -54 175 -143
c0 -96 -68 -141 -261 -141h-40c5 -99 48 -144 134 -144c45 0 96 12 135 30zM276 428c-69 0 -113 -47 -122 -145h45c115 0 152 20 152 78c0 39 -27 67 -75 67z" />
    <glyph glyph-name="f" unicode="f" horiz-adv-x="345" 
d="M285 643c-57 0 -82 -41 -82 -139v-10h128l-4 -85h-124v-409h-108v409h-63v85h63v17c0 145 62 223 175 223c44 0 84 -13 115 -29l-28 -78c-24 10 -48 16 -72 16z" />
    <glyph glyph-name="g" unicode="g" horiz-adv-x="533" 
d="M188 127c0 -34 53 -40 116 -47c95 -10 212 -23 212 -134c0 -108 -112 -168 -270 -168c-139 0 -221 46 -221 130c0 57 37 94 93 128c-20 14 -32 34 -32 63c0 35 21 62 52 80c-55 30 -87 83 -87 150c0 106 80 179 208 179c43 0 80 -8 111 -23l100 82l59 -66l-99 -64
c22 -28 34 -64 34 -105c0 -107 -81 -180 -208 -180c-18 0 -36 2 -52 5c-10 -9 -16 -20 -16 -30zM257 432c-52 0 -89 -33 -89 -101c0 -67 37 -104 91 -104c52 0 88 35 88 102c0 68 -37 103 -90 103zM257 -138c92 0 147 25 147 71c0 51 -67 58 -140 66c-25 3 -50 5 -74 10
c-48 -26 -68 -52 -68 -81c0 -47 54 -66 135 -66z" />
    <glyph glyph-name="gbreve" unicode="&#x11f;" horiz-adv-x="533" 
d="M262 583c-72 0 -126 43 -147 122l57 29c18 -44 46 -76 90 -76s72 32 90 76l57 -29c-21 -79 -75 -122 -147 -122zM188 127c0 -34 53 -40 116 -47c95 -10 212 -23 212 -134c0 -108 -112 -168 -270 -168c-139 0 -221 46 -221 130c0 57 37 94 93 128c-20 14 -32 34 -32 63
c0 35 21 62 52 80c-55 30 -87 83 -87 150c0 106 80 179 208 179c43 0 80 -8 111 -23l100 82l59 -66l-99 -64c22 -28 34 -64 34 -105c0 -107 -81 -180 -208 -180c-18 0 -36 2 -52 5c-10 -9 -16 -20 -16 -30zM257 432c-52 0 -89 -33 -89 -101c0 -67 37 -104 91 -104
c52 0 88 35 88 102c0 68 -37 103 -90 103zM257 -138c92 0 147 25 147 71c0 51 -67 58 -140 66c-25 3 -50 5 -74 10c-48 -26 -68 -52 -68 -81c0 -47 54 -66 135 -66z" />
    <glyph glyph-name="gcommaaccent" unicode="&#x123;" horiz-adv-x="533" 
d="M257 569c-39 0 -65 23 -65 65c0 49 42 89 113 101l10 -27c-32 -11 -52 -26 -60 -45c37 2 61 -13 61 -45c0 -33 -26 -49 -59 -49zM188 127c0 -34 53 -40 116 -47c95 -10 212 -23 212 -134c0 -108 -112 -168 -270 -168c-139 0 -221 46 -221 130c0 57 37 94 93 128
c-20 14 -32 34 -32 63c0 35 21 62 52 80c-55 30 -87 83 -87 150c0 106 80 179 208 179c43 0 80 -8 111 -23l100 82l59 -66l-99 -64c22 -28 34 -64 34 -105c0 -107 -81 -180 -208 -180c-18 0 -36 2 -52 5c-10 -9 -16 -20 -16 -30zM257 432c-52 0 -89 -33 -89 -101
c0 -67 37 -104 91 -104c52 0 88 35 88 102c0 68 -37 103 -90 103zM257 -138c92 0 147 25 147 71c0 51 -67 58 -140 66c-25 3 -50 5 -74 10c-48 -26 -68 -52 -68 -81c0 -47 54 -66 135 -66z" />
    <glyph glyph-name="gdotaccent" unicode="&#x121;" horiz-adv-x="533" 
d="M260 601c-42 0 -65 28 -65 69s23 69 69 69c42 0 64 -28 64 -69s-22 -69 -68 -69zM188 127c0 -34 53 -40 116 -47c95 -10 212 -23 212 -134c0 -108 -112 -168 -270 -168c-139 0 -221 46 -221 130c0 57 37 94 93 128c-20 14 -32 34 -32 63c0 35 21 62 52 80
c-55 30 -87 83 -87 150c0 106 80 179 208 179c43 0 80 -8 111 -23l100 82l59 -66l-99 -64c22 -28 34 -64 34 -105c0 -107 -81 -180 -208 -180c-18 0 -36 2 -52 5c-10 -9 -16 -20 -16 -30zM257 432c-52 0 -89 -33 -89 -101c0 -67 37 -104 91 -104c52 0 88 35 88 102
c0 68 -37 103 -90 103zM257 -138c92 0 147 25 147 71c0 51 -67 58 -140 66c-25 3 -50 5 -74 10c-48 -26 -68 -52 -68 -81c0 -47 54 -66 135 -66z" />
    <glyph glyph-name="h" unicode="h" horiz-adv-x="578" 
d="M352 507c102 0 156 -66 156 -185v-322h-110v293c0 82 -26 118 -86 118c-84 0 -128 -72 -128 -236v-175h-109v720l109 6v-321c37 67 95 102 168 102z" />
    <glyph glyph-name="hbar" unicode="&#x127;" horiz-adv-x="578" 
d="M352 507c102 0 156 -66 156 -185v-322h-110v293c0 82 -26 118 -86 118c-84 0 -128 -72 -128 -236v-175h-109v564h-74l4 75h70v81l109 6v-87h150l-4 -75h-146v-159c37 67 95 102 168 102z" />
    <glyph glyph-name="i" unicode="i" horiz-adv-x="268" 
d="M132 600c-42 0 -65 28 -65 69s23 69 69 69c42 0 64 -28 64 -69s-22 -69 -68 -69zM80 494l109 7v-501h-109v494z" />
    <glyph glyph-name="dotlessi" unicode="&#x131;" horiz-adv-x="268" 
d="M80 494l109 7v-501h-109v494z" />
    <glyph glyph-name="iacute" unicode="&#xed;" horiz-adv-x="268" 
d="M42 625l189 119l38 -81l-202 -90zM80 494l109 7v-501h-109v494z" />
    <glyph glyph-name="icircumflex" unicode="&#xee;" horiz-adv-x="268" 
d="M134 735l148 -117l-25 -49l-123 72l-122 -72l-25 49zM80 0v494l109 7v-501h-109z" />
    <glyph glyph-name="idieresis" unicode="&#xef;" horiz-adv-x="268" 
d="M50 606c-36 0 -56 25 -56 63s20 63 59 63c36 0 55 -25 55 -63s-19 -63 -58 -63zM215 606c-36 0 -56 25 -56 63s20 63 59 63c35 0 55 -25 55 -63s-20 -63 -58 -63zM80 494l109 7v-501h-109v494z" />
    <glyph glyph-name="igrave" unicode="&#xec;" horiz-adv-x="268" 
d="M226 625l-25 -52l-202 90l38 81zM80 494l109 7v-501h-109v494z" />
    <glyph glyph-name="imacron" unicode="&#x12b;" horiz-adv-x="268" 
d="M15 687h240l-2 -80h-240zM80 494l109 7v-501h-109v494z" />
    <glyph glyph-name="iogonek" unicode="&#x12f;" horiz-adv-x="268" 
d="M132 600c-42 0 -65 28 -65 69s23 69 69 69c42 0 64 -28 64 -69s-22 -69 -68 -69zM124 -152c15 0 31 5 52 17l21 -48c-25 -21 -62 -38 -106 -38c-52 0 -92 25 -92 80c0 51 34 98 92 141h-11v494l109 7v-501c-7 -5 -10 -9 -10 -12c0 -2 2 -3 4 -3c1 0 3 0 5 1l2 -4
c-3 -2 -6 -4 -11 -4s-9 2 -9 8v1c-55 -41 -79 -76 -79 -108c0 -23 13 -31 33 -31z" />
    <glyph glyph-name="j" unicode="j" horiz-adv-x="272" 
d="M139 600c-42 0 -65 28 -65 69s23 69 69 69c42 0 64 -28 64 -69s-22 -69 -68 -69zM-63 -109c17 -8 43 -13 69 -13c50 0 80 41 80 140v475l110 6v-471c0 -176 -82 -246 -182 -246c-38 0 -77 10 -103 23z" />
    <glyph glyph-name="jacute" horiz-adv-x="272" 
d="M49 625l189 119l38 -81l-202 -90zM-63 -109c17 -8 43 -13 69 -13c50 0 80 41 80 140v475l110 6v-471c0 -176 -82 -246 -182 -246c-38 0 -77 10 -103 23z" />
    <glyph glyph-name="uni0237" unicode="&#x237;" horiz-adv-x="272" 
d="M-63 -109c17 -8 43 -13 69 -13c50 0 80 41 80 140v475l110 6v-471c0 -176 -82 -246 -182 -246c-38 0 -77 10 -103 23z" />
    <glyph glyph-name="k" unicode="k" horiz-adv-x="535" 
d="M402 -5l-145 221l-73 -80v-137h-109v721l109 6v-463c43 57 87 114 127 160l66 75l122 -4l-168 -195l201 -300z" />
    <glyph glyph-name="kcommaaccent" unicode="&#x137;" horiz-adv-x="535" 
d="M331 299l201 -300l-130 -4l-145 221l-73 -80v-137h-109v721l109 6v-463c43 57 87 114 127 160l66 75l122 -4zM282 -52c39 0 65 -23 65 -65c0 -49 -42 -89 -113 -101l-10 27c32 11 52 26 60 45c-37 -2 -61 13 -61 45c0 33 26 49 59 49z" />
    <glyph glyph-name="l" unicode="l" horiz-adv-x="270" 
d="M80 720l110 6v-726h-110v720z" />
    <glyph glyph-name="lacute" unicode="&#x13a;" horiz-adv-x="270" 
d="M35 794l211 113l35 -83l-223 -82zM80 720l110 6v-726h-110v720z" />
    <glyph glyph-name="lcaron" unicode="&#x13e;" horiz-adv-x="270" 
d="M244 552v172l78 4l-12 -176h-66zM80 720l110 6v-726h-110v720z" />
    <glyph glyph-name="lcommaaccent" unicode="&#x13c;" horiz-adv-x="270" 
d="M190 726v-726h-110v720zM132 -52c39 0 65 -23 65 -65c0 -49 -42 -89 -113 -101l-10 27c32 11 52 26 60 45c-37 -2 -61 13 -61 45c0 33 26 49 59 49z" />
    <glyph glyph-name="ldot" unicode="&#x140;" horiz-adv-x="365" 
d="M80 720l110 6v-726h-110v720zM317 295c-36 0 -57 25 -57 63c0 37 21 63 59 63c36 0 57 -26 57 -63c0 -38 -21 -63 -59 -63z" />
    <glyph glyph-name="lslash" unicode="&#x142;" horiz-adv-x="290" 
d="M301 435l-101 -53v-382h-110v325l-60 -31l-35 67l95 49v310l110 6v-259l67 35z" />
    <glyph glyph-name="m" unicode="m" horiz-adv-x="876" 
d="M657 507c99 0 149 -65 149 -183v-324h-108v295c0 81 -26 116 -82 116c-82 0 -121 -71 -121 -246v-165h-109v295c0 81 -25 116 -81 116c-82 0 -121 -71 -121 -246v-165h-109v493l109 6v-93c36 66 92 101 162 101c80 0 127 -42 143 -120c35 78 92 120 168 120z" />
    <glyph glyph-name="n" unicode="n" horiz-adv-x="578" 
d="M352 507c102 0 156 -66 156 -185v-322h-110v293c0 82 -26 118 -86 118c-84 0 -128 -72 -128 -236v-175h-109v493l109 6v-94c37 67 95 102 168 102z" />
    <glyph glyph-name="nacute" unicode="&#x144;" horiz-adv-x="578" 
d="M434 663l-202 -90l-25 52l189 119zM352 507c102 0 156 -66 156 -185v-322h-110v293c0 82 -26 118 -86 118c-84 0 -128 -72 -128 -236v-175h-109v493l109 6v-94c37 67 95 102 168 102z" />
    <glyph glyph-name="nacute.loclPLK" horiz-adv-x="578" 
d="M391 749l-70 -174l-56 10l37 181zM352 507c102 0 156 -66 156 -185v-322h-110v293c0 82 -26 118 -86 118c-84 0 -128 -72 -128 -236v-175h-109v493l109 6v-94c37 67 95 102 168 102z" />
    <glyph glyph-name="ncaron" unicode="&#x148;" horiz-adv-x="578" 
d="M446 686l-147 -117l-148 117l26 49l122 -72l122 72zM352 507c102 0 156 -66 156 -185v-322h-110v293c0 82 -26 118 -86 118c-84 0 -128 -72 -128 -236v-175h-109v493l109 6v-94c37 67 95 102 168 102z" />
    <glyph glyph-name="ncommaaccent" unicode="&#x146;" horiz-adv-x="578" 
d="M352 507c102 0 156 -66 156 -185v-322h-110v293c0 82 -26 118 -86 118c-84 0 -128 -72 -128 -236v-175h-109v493l109 6v-94c37 67 95 102 168 102zM286 -52c39 0 65 -23 65 -65c0 -49 -42 -89 -113 -101l-10 27c32 11 52 26 60 45c-37 -2 -61 13 -61 45c0 33 26 49 59 49
z" />
    <glyph glyph-name="eng" unicode="&#x14b;" horiz-adv-x="578" 
d="M352 507c102 0 156 -66 156 -185v-322c0 -165 -84 -222 -185 -222c-40 0 -78 9 -104 22l26 78c18 -7 44 -12 70 -12c51 0 83 32 83 144v283c0 82 -26 118 -86 118c-84 0 -128 -72 -128 -236v-175h-109v493l109 6v-94c37 67 95 102 168 102z" />
    <glyph glyph-name="ntilde" unicode="&#xf1;" horiz-adv-x="578" 
d="M234 633c-22 0 -39 -11 -65 -30l-28 51c38 38 70 52 103 52c32 0 54 -11 74 -21c16 -8 30 -15 46 -15c22 0 37 10 63 29c1 0 1 0 2 1l27 -51c-38 -38 -69 -52 -101 -52c-42 0 -64 23 -95 32c-8 3 -16 4 -26 4zM352 507c102 0 156 -66 156 -185v-322h-110v293
c0 82 -26 118 -86 118c-84 0 -128 -72 -128 -236v-175h-109v493l109 6v-94c37 67 95 102 168 102z" />
    <glyph glyph-name="o" unicode="o" horiz-adv-x="579" 
d="M288 -14c-153 0 -244 94 -244 256c0 164 92 265 247 265c154 0 244 -96 244 -258c0 -164 -91 -263 -247 -263zM291 71c81 0 128 59 128 174c0 116 -48 178 -130 178c-81 0 -126 -60 -126 -176s46 -176 128 -176z" />
    <glyph glyph-name="oacute" unicode="&#xf3;" horiz-adv-x="579" 
d="M198 625l189 119l38 -81l-202 -90zM288 -14c-153 0 -244 94 -244 256c0 164 92 265 247 265c154 0 244 -96 244 -258c0 -164 -91 -263 -247 -263zM291 71c81 0 128 59 128 174c0 116 -48 178 -130 178c-81 0 -126 -60 -126 -176s46 -176 128 -176z" />
    <glyph glyph-name="oacute.loclPLK" horiz-adv-x="579" 
d="M256 585l37 181l89 -17l-70 -174zM288 -14c-153 0 -244 94 -244 256c0 164 92 265 247 265c154 0 244 -96 244 -258c0 -164 -91 -263 -247 -263zM291 71c81 0 128 59 128 174c0 116 -48 178 -130 178c-81 0 -126 -60 -126 -176s46 -176 128 -176z" />
    <glyph glyph-name="ocircumflex" unicode="&#xf4;" horiz-adv-x="579" 
d="M290 641l-122 -72l-25 49l147 117l148 -117l-25 -49zM291 507c154 0 244 -96 244 -258c0 -164 -91 -263 -247 -263c-153 0 -244 94 -244 256c0 164 92 265 247 265zM291 71c81 0 128 59 128 174c0 116 -48 178 -130 178c-81 0 -126 -60 -126 -176s46 -176 128 -176z" />
    <glyph glyph-name="odieresis" unicode="&#xf6;" horiz-adv-x="579" 
d="M188 599c-38 0 -60 25 -60 63s22 64 64 64c38 0 59 -26 59 -64s-21 -63 -63 -63zM389 599c-39 0 -60 25 -60 63s21 64 63 64c39 0 60 -26 60 -64s-21 -63 -63 -63zM288 -14c-153 0 -244 94 -244 256c0 164 92 265 247 265c154 0 244 -96 244 -258
c0 -164 -91 -263 -247 -263zM291 71c81 0 128 59 128 174c0 116 -48 178 -130 178c-81 0 -126 -60 -126 -176s46 -176 128 -176z" />
    <glyph glyph-name="ograve" unicode="&#xf2;" horiz-adv-x="579" 
d="M382 625l-25 -52l-202 90l38 81zM288 -14c-153 0 -244 94 -244 256c0 164 92 265 247 265c154 0 244 -96 244 -258c0 -164 -91 -263 -247 -263zM291 71c81 0 128 59 128 174c0 116 -48 178 -130 178c-81 0 -126 -60 -126 -176s46 -176 128 -176z" />
    <glyph glyph-name="ohungarumlaut" unicode="&#x151;" horiz-adv-x="579" 
d="M193 565l41 178l85 -16l-61 -172zM320 565l63 173l86 -18l-85 -167zM288 -14c-153 0 -244 94 -244 256c0 164 92 265 247 265c154 0 244 -96 244 -258c0 -164 -91 -263 -247 -263zM291 71c81 0 128 59 128 174c0 116 -48 178 -130 178c-81 0 -126 -60 -126 -176
s46 -176 128 -176z" />
    <glyph glyph-name="omacron" unicode="&#x14d;" horiz-adv-x="579" 
d="M134 688h313l-2 -80h-312zM288 -14c-153 0 -244 94 -244 256c0 164 92 265 247 265c154 0 244 -96 244 -258c0 -164 -91 -263 -247 -263zM291 71c81 0 128 59 128 174c0 116 -48 178 -130 178c-81 0 -126 -60 -126 -176s46 -176 128 -176z" />
    <glyph glyph-name="oslash" unicode="&#xf8;" horiz-adv-x="579" 
d="M476 432c39 -44 59 -106 59 -183c0 -164 -91 -263 -247 -263c-54 0 -100 12 -137 34l-30 -38l-58 44l33 42c-34 43 -52 102 -52 174c0 164 92 265 247 265c50 0 93 -10 128 -29l31 39l58 -45zM289 423c-81 0 -126 -60 -126 -176c0 -31 3 -59 10 -82l187 237
c-20 14 -43 21 -71 21zM291 71c81 0 128 59 128 174c0 38 -5 70 -15 96l-192 -243c21 -18 47 -27 79 -27z" />
    <glyph glyph-name="otilde" unicode="&#xf5;" horiz-adv-x="579" 
d="M346 597c-27 0 -46 9 -64 19c-17 8 -34 17 -57 17c-22 0 -39 -11 -65 -30l-28 51c38 38 70 52 103 52c32 0 54 -11 74 -21c16 -8 30 -15 46 -15c22 0 37 10 63 29c1 0 1 0 2 1l27 -51c-38 -38 -69 -52 -101 -52zM288 -14c-153 0 -244 94 -244 256c0 164 92 265 247 265
c154 0 244 -96 244 -258c0 -164 -91 -263 -247 -263zM291 71c81 0 128 59 128 174c0 116 -48 178 -130 178c-81 0 -126 -60 -126 -176s46 -176 128 -176z" />
    <glyph glyph-name="oe" unicode="&#x153;" horiz-adv-x="867" 
d="M666 79c48 0 92 12 131 33l27 -75c-50 -31 -116 -51 -181 -51c-77 0 -137 27 -173 82c-40 -53 -102 -82 -182 -82c-153 0 -244 94 -244 256c0 164 92 265 247 265c84 0 148 -32 187 -90c38 58 99 90 176 90c99 0 174 -53 174 -144c0 -95 -68 -138 -234 -141l-63 -2
c6 -97 51 -141 135 -141zM649 428c-66 0 -107 -50 -116 -145h44c110 0 147 20 147 77c0 40 -27 68 -75 68zM291 71c81 0 128 59 128 174c0 116 -48 178 -130 178c-81 0 -126 -60 -126 -176s46 -176 128 -176z" />
    <glyph glyph-name="p" unicode="p" horiz-adv-x="581" 
d="M353 506c121 0 184 -98 184 -245c0 -160 -82 -271 -222 -271c-37 0 -84 10 -131 36v-236l-109 -7v710l109 6v-103c35 73 93 110 169 110zM304 82c80 0 120 64 120 175c0 100 -36 158 -110 158c-82 0 -130 -78 -130 -232v-60c40 -28 84 -41 120 -41z" />
    <glyph glyph-name="thorn" unicode="&#xfe;" horiz-adv-x="580" 
d="M353 506c121 0 184 -98 184 -245c0 -160 -82 -271 -222 -271c-37 0 -84 10 -131 36v-236l-109 -7v937l109 7v-331c35 73 93 110 169 110zM304 82c80 0 120 64 120 175c0 100 -36 158 -110 158c-82 0 -130 -78 -130 -232v-60c40 -28 84 -41 120 -41z" />
    <glyph glyph-name="q" unicode="q" horiz-adv-x="576" 
d="M292 507c71 0 138 -18 209 -60v-657l-108 -7v296c-30 -58 -80 -91 -152 -91c-121 0 -197 90 -197 243c0 174 95 276 248 276zM272 86c72 0 121 56 121 173v124c-34 21 -68 32 -111 32c-78 0 -124 -55 -124 -168c0 -109 44 -161 114 -161z" />
    <glyph glyph-name="r" unicode="r" horiz-adv-x="362" 
d="M316 505c12 0 23 -3 31 -6l-7 -116h-3c-8 1 -15 2 -22 2c-87 0 -131 -83 -131 -269v-116h-109v493l109 6v-132c26 85 69 138 132 138z" />
    <glyph glyph-name="racute" unicode="&#x155;" horiz-adv-x="362" 
d="M350 663l-202 -90l-25 52l189 119zM184 367c26 85 69 138 132 138c12 0 23 -3 31 -6l-7 -116h-3c-8 1 -15 2 -22 2c-87 0 -131 -83 -131 -269v-116h-109v493l109 6v-132z" />
    <glyph glyph-name="rcaron" unicode="&#x159;" horiz-adv-x="362" 
d="M362 686l-147 -117l-148 117l26 49l122 -72l122 72zM184 367c26 85 69 138 132 138c12 0 23 -3 31 -6l-7 -116h-3c-8 1 -15 2 -22 2c-87 0 -131 -83 -131 -269v-116h-109v493l109 6v-132z" />
    <glyph glyph-name="rcommaaccent" unicode="&#x157;" horiz-adv-x="362" 
d="M316 505c12 0 23 -3 31 -6l-7 -116h-3c-8 1 -15 2 -22 2c-87 0 -131 -83 -131 -269v-116h-109v493l109 6v-132c26 85 69 138 132 138zM130 -52c39 0 65 -23 65 -65c0 -49 -42 -89 -113 -101l-10 27c32 11 52 26 60 45c-37 -2 -61 13 -61 45c0 33 26 49 59 49z" />
    <glyph glyph-name="s" unicode="s" horiz-adv-x="421" 
d="M367 483l-29 -79c-32 14 -68 22 -100 22c-54 0 -84 -23 -84 -61c0 -42 43 -59 92 -77c65 -24 140 -52 140 -149c0 -98 -77 -153 -184 -153c-55 0 -111 14 -168 42l32 78c45 -22 87 -34 126 -34c51 0 86 21 86 59c0 39 -40 55 -86 74c-62 25 -136 55 -136 152
s75 151 180 151c43 0 92 -9 131 -25z" />
    <glyph glyph-name="sacute" unicode="&#x15b;" horiz-adv-x="421" 
d="M141 625l189 119l38 -81l-202 -90zM367 483l-29 -79c-32 14 -68 22 -100 22c-54 0 -84 -23 -84 -61c0 -42 43 -59 92 -77c65 -24 140 -52 140 -149c0 -98 -77 -153 -184 -153c-55 0 -111 14 -168 42l32 78c45 -22 87 -34 126 -34c51 0 86 21 86 59c0 39 -40 55 -86 74
c-62 25 -136 55 -136 152s75 151 180 151c43 0 92 -9 131 -25z" />
    <glyph glyph-name="sacute.loclPLK" horiz-adv-x="421" 
d="M199 585l37 181l89 -17l-70 -174zM367 483l-29 -79c-32 14 -68 22 -100 22c-54 0 -84 -23 -84 -61c0 -42 43 -59 92 -77c65 -24 140 -52 140 -149c0 -98 -77 -153 -184 -153c-55 0 -111 14 -168 42l32 78c45 -22 87 -34 126 -34c51 0 86 21 86 59c0 39 -40 55 -86 74
c-62 25 -136 55 -136 152s75 151 180 151c43 0 92 -9 131 -25z" />
    <glyph glyph-name="scaron" unicode="&#x161;" horiz-adv-x="421" 
d="M380 686l-147 -117l-148 117l26 49l122 -72l122 72zM154 365c0 -42 43 -59 92 -77c65 -24 140 -52 140 -149c0 -98 -77 -153 -184 -153c-55 0 -111 14 -168 42l32 78c45 -22 87 -34 126 -34c51 0 86 21 86 59c0 39 -40 55 -86 74c-62 25 -136 55 -136 152s75 151 180 151
c43 0 92 -9 131 -25l-29 -79c-32 14 -68 22 -100 22c-54 0 -84 -23 -84 -61z" />
    <glyph glyph-name="scedilla" unicode="&#x15f;" horiz-adv-x="421" 
d="M386 139c0 -89 -63 -142 -155 -152l-9 -44c60 1 91 -27 91 -74c0 -53 -41 -85 -108 -85c-30 0 -56 7 -80 19l16 44c18 -8 36 -13 55 -13c27 0 45 10 45 34c0 32 -32 43 -82 40l-6 21l20 58c-46 4 -92 18 -139 41l32 78c45 -22 87 -34 126 -34c51 0 86 21 86 59
c0 39 -40 55 -86 74c-62 25 -136 55 -136 152s75 151 180 151c43 0 92 -9 131 -25l-29 -79c-32 14 -68 22 -100 22c-54 0 -84 -23 -84 -61c0 -32 24 -49 57 -63c69 -30 175 -48 175 -163z" />
    <glyph glyph-name="scommaaccent" unicode="&#x219;" horiz-adv-x="421" 
d="M154 365c0 -42 43 -59 92 -77c65 -24 140 -52 140 -149c0 -98 -77 -153 -184 -153c-55 0 -111 14 -168 42l32 78c45 -22 87 -34 126 -34c51 0 86 21 86 59c0 39 -40 55 -86 74c-62 25 -136 55 -136 152s75 151 180 151c43 0 92 -9 131 -25l-29 -79c-32 14 -68 22 -100 22
c-54 0 -84 -23 -84 -61zM210 -52c39 0 65 -23 65 -65c0 -49 -42 -89 -113 -101l-10 27c32 11 52 26 60 45c-37 -2 -61 13 -61 45c0 33 26 49 59 49z" />
    <glyph glyph-name="germandbls" unicode="&#xdf;" horiz-adv-x="609" 
d="M420 388c86 -21 145 -84 145 -184c0 -128 -71 -214 -207 -214c-46 0 -95 10 -129 27l22 86c25 -12 58 -19 89 -19c73 0 112 42 112 126c0 85 -64 120 -160 120h-29l4 76h21c83 0 122 46 122 124c0 73 -37 113 -107 113c-82 0 -117 -52 -117 -163v-480h-111v469
c0 172 84 265 232 265c130 0 209 -72 209 -187c0 -76 -35 -132 -96 -159z" />
    <glyph glyph-name="t" unicode="t" horiz-adv-x="385" 
d="M352 108l18 -82c-40 -24 -87 -39 -139 -39c-83 0 -138 41 -138 149v273h-60v85h60v122l109 10v-132h155l-4 -85h-151v-247c0 -54 21 -78 68 -78c27 0 54 8 82 24z" />
    <glyph glyph-name="tbar" unicode="&#x167;" horiz-adv-x="385" 
d="M352 108l18 -82c-40 -24 -87 -39 -139 -39c-83 0 -138 41 -138 149v95h-55v71h55v107h-60v85h60v122l109 10v-132h155l-4 -85h-151v-107h143v-71h-143v-69c0 -54 21 -78 68 -78c27 0 54 8 82 24z" />
    <glyph glyph-name="tcaron" unicode="&#x165;" horiz-adv-x="385" 
d="M334 728l-12 -176h-66v172zM352 108l18 -82c-40 -24 -87 -39 -139 -39c-83 0 -138 41 -138 149v273h-60v85h60v122l109 10v-132h155l-4 -85h-151v-247c0 -54 21 -78 68 -78c27 0 54 8 82 24z" />
    <glyph glyph-name="uni0163" unicode="&#x163;" horiz-adv-x="385" 
d="M240 -57c60 1 91 -27 91 -74c0 -53 -41 -85 -108 -85c-30 0 -56 7 -80 19l16 44c18 -8 36 -13 55 -13c27 0 45 10 45 34c0 32 -32 43 -82 40l-6 21l21 62c-61 12 -99 55 -99 145v273h-60v85h60v122l109 10v-132h155l-4 -85h-151v-247c0 -54 21 -78 68 -78
c27 0 54 8 82 24l18 -82c-35 -21 -76 -35 -121 -38z" />
    <glyph glyph-name="uni021B" unicode="&#x21b;" horiz-adv-x="385" 
d="M370 26c-40 -24 -87 -39 -139 -39c-83 0 -138 41 -138 149v273h-60v85h60v122l109 10v-132h155l-4 -85h-151v-247c0 -54 21 -78 68 -78c27 0 54 8 82 24zM228 -52c39 0 65 -23 65 -65c0 -49 -42 -89 -113 -101l-10 27c32 11 52 26 60 45c-37 -2 -61 13 -61 45
c0 33 26 49 59 49z" />
    <glyph glyph-name="u" unicode="u" horiz-adv-x="572" 
d="M388 493l110 6v-499l-110 -4v94c-33 -63 -87 -100 -163 -100c-101 0 -155 64 -155 183v320l109 6v-292c0 -85 30 -121 86 -121c78 0 123 79 123 198v209z" />
    <glyph glyph-name="uacute" unicode="&#xfa;" horiz-adv-x="572" 
d="M420 663l-202 -90l-25 52l189 119zM388 493l110 6v-499l-110 -4v94c-33 -63 -87 -100 -163 -100c-101 0 -155 64 -155 183v320l109 6v-292c0 -85 30 -121 86 -121c78 0 123 79 123 198v209z" />
    <glyph glyph-name="ucircumflex" unicode="&#xfb;" horiz-adv-x="572" 
d="M285 641l-122 -72l-25 49l147 117l148 -117l-25 -49zM388 493l110 6v-499l-110 -4v94c-33 -63 -87 -100 -163 -100c-101 0 -155 64 -155 183v320l109 6v-292c0 -85 30 -121 86 -121c78 0 123 79 123 198v209z" />
    <glyph glyph-name="udieresis" unicode="&#xfc;" horiz-adv-x="572" 
d="M183 599c-38 0 -60 25 -60 63s22 64 64 64c38 0 59 -26 59 -64s-21 -63 -63 -63zM384 599c-39 0 -60 25 -60 63s21 64 63 64c39 0 60 -26 60 -64s-21 -63 -63 -63zM388 493l110 6v-499l-110 -4v94c-33 -63 -87 -100 -163 -100c-101 0 -155 64 -155 183v320l109 6v-292
c0 -85 30 -121 86 -121c78 0 123 79 123 198v209z" />
    <glyph glyph-name="ugrave" unicode="&#xf9;" horiz-adv-x="572" 
d="M377 625l-25 -52l-202 90l38 81zM388 493l110 6v-499l-110 -4v94c-33 -63 -87 -100 -163 -100c-101 0 -155 64 -155 183v320l109 6v-292c0 -85 30 -121 86 -121c78 0 123 79 123 198v209z" />
    <glyph glyph-name="uhungarumlaut" unicode="&#x171;" horiz-adv-x="572" 
d="M314 727l-61 -172l-65 10l41 178zM464 720l-85 -167l-64 12l63 173zM388 493l110 6v-499l-110 -4v94c-33 -63 -87 -100 -163 -100c-101 0 -155 64 -155 183v320l109 6v-292c0 -85 30 -121 86 -121c78 0 123 79 123 198v209z" />
    <glyph glyph-name="umacron" unicode="&#x16b;" horiz-adv-x="572" 
d="M442 688l-2 -80h-312l1 80h313zM388 493l110 6v-499l-110 -4v94c-33 -63 -87 -100 -163 -100c-101 0 -155 64 -155 183v320l109 6v-292c0 -85 30 -121 86 -121c78 0 123 79 123 198v209z" />
    <glyph glyph-name="uogonek" unicode="&#x173;" horiz-adv-x="572" 
d="M479 -136l21 -47c-33 -25 -69 -38 -105 -38c-52 0 -93 24 -93 82c0 50 31 99 86 150v79c-33 -63 -87 -100 -163 -100c-101 0 -155 64 -155 183v320l109 6v-292c0 -85 30 -121 86 -121c78 0 123 79 123 198v209l110 6v-499c-70 -45 -103 -82 -103 -123
c0 -20 14 -29 30 -29s30 4 54 16z" />
    <glyph glyph-name="uring" unicode="&#x16f;" horiz-adv-x="572" 
d="M285 554c-66 0 -109 40 -109 101s43 101 109 101c65 0 108 -40 108 -101s-43 -101 -108 -101zM285 701c-28 0 -44 -17 -44 -46s16 -46 44 -46c27 0 43 17 43 46s-16 46 -43 46zM388 493l110 6v-499l-110 -4v94c-33 -63 -87 -100 -163 -100c-101 0 -155 64 -155 183v320
l109 6v-292c0 -85 30 -121 86 -121c78 0 123 79 123 198v209z" />
    <glyph glyph-name="v" unicode="v" horiz-adv-x="520" 
d="M392 498l112 -5l-167 -493h-154l-167 493l122 5l127 -405z" />
    <glyph glyph-name="w" unicode="w" horiz-adv-x="805" 
d="M687 498l102 -5l-160 -493h-144l-86 261l-97 -261h-132l-154 493l110 5l128 -406l107 282l-39 119l110 5l128 -406z" />
    <glyph glyph-name="wacute" unicode="&#x1e83;" horiz-adv-x="805" 
d="M538 663l-202 -90l-25 52l189 119zM687 498l102 -5l-160 -493h-144l-86 261l-97 -261h-132l-154 493l110 5l128 -406l107 282l-39 119l110 5l128 -406z" />
    <glyph glyph-name="wcircumflex" unicode="&#x175;" horiz-adv-x="805" 
d="M403 641l-122 -72l-25 49l147 117l148 -117l-25 -49zM687 498l102 -5l-160 -493h-144l-86 261l-97 -261h-132l-154 493l110 5l128 -406l107 282l-39 119l110 5l128 -406z" />
    <glyph glyph-name="wdieresis" unicode="&#x1e85;" horiz-adv-x="805" 
d="M301 599c-38 0 -60 25 -60 63s22 64 64 64c38 0 59 -26 59 -64s-21 -63 -63 -63zM502 599c-39 0 -60 25 -60 63s21 64 63 64c39 0 60 -26 60 -64s-21 -63 -63 -63zM687 498l102 -5l-160 -493h-144l-86 261l-97 -261h-132l-154 493l110 5l128 -406l107 282l-39 119l110 5
l128 -406z" />
    <glyph glyph-name="wgrave" unicode="&#x1e81;" horiz-adv-x="805" 
d="M495 625l-25 -52l-202 90l38 81zM687 498l102 -5l-160 -493h-144l-86 261l-97 -261h-132l-154 493l110 5l128 -406l107 282l-39 119l110 5l128 -406z" />
    <glyph glyph-name="x" unicode="x" horiz-adv-x="521" 
d="M510 0l-130 -5l-127 173l-127 -173l-114 5l182 248l-181 246l130 5l123 -168l126 168l113 -5l-180 -242z" />
    <glyph glyph-name="y" unicode="y" horiz-adv-x="520" 
d="M392 498l112 -5l-167 -493l-13 -30c-49 -134 -135 -181 -264 -185l-7 97c84 4 131 28 164 107l5 11h-39l-167 493l122 5l127 -405z" />
    <glyph glyph-name="yacute" unicode="&#xfd;" horiz-adv-x="520" 
d="M395 663l-202 -90l-25 52l189 119zM392 498l112 -5l-167 -493l-13 -30c-49 -134 -135 -181 -264 -185l-7 97c84 4 131 28 164 107l5 11h-39l-167 493l122 5l127 -405z" />
    <glyph glyph-name="ycircumflex" unicode="&#x177;" horiz-adv-x="520" 
d="M260 641l-122 -72l-25 49l147 117l148 -117l-25 -49zM392 498l112 -5l-167 -493l-13 -30c-49 -134 -135 -181 -264 -185l-7 97c84 4 131 28 164 107l5 11h-39l-167 493l122 5l127 -405z" />
    <glyph glyph-name="ydieresis" unicode="&#xff;" horiz-adv-x="520" 
d="M158 599c-38 0 -60 25 -60 63s22 64 64 64c38 0 59 -26 59 -64s-21 -63 -63 -63zM359 599c-39 0 -60 25 -60 63s21 64 63 64c39 0 60 -26 60 -64s-21 -63 -63 -63zM392 498l112 -5l-167 -493l-13 -30c-49 -134 -135 -181 -264 -185l-7 97c84 4 131 28 164 107l5 11h-39
l-167 493l122 5l127 -405z" />
    <glyph glyph-name="ygrave" unicode="&#x1ef3;" horiz-adv-x="520" 
d="M352 625l-25 -52l-202 90l38 81zM392 498l112 -5l-167 -493l-13 -30c-49 -134 -135 -181 -264 -185l-7 97c84 4 131 28 164 107l5 11h-39l-167 493l122 5l127 -405z" />
    <glyph glyph-name="z" unicode="z" horiz-adv-x="452" 
d="M168 86h250v-86h-378l-6 74l245 335h-232v85h357l6 -76z" />
    <glyph glyph-name="zacute" unicode="&#x17a;" horiz-adv-x="452" 
d="M370 663l-202 -90l-25 52l189 119zM168 86h250v-86h-378l-6 74l245 335h-232v85h357l6 -76z" />
    <glyph glyph-name="zacute.loclPLK" horiz-adv-x="452" 
d="M327 749l-70 -174l-56 10l37 181zM168 86h250v-86h-378l-6 74l245 335h-232v85h357l6 -76z" />
    <glyph glyph-name="zcaron" unicode="&#x17e;" horiz-adv-x="452" 
d="M382 686l-147 -117l-148 117l26 49l122 -72l122 72zM168 86h250v-86h-378l-6 74l245 335h-232v85h357l6 -76z" />
    <glyph glyph-name="zdotaccent" unicode="&#x17c;" horiz-adv-x="452" 
d="M233 600c-42 0 -65 28 -65 69s23 69 69 69c42 0 64 -28 64 -69s-22 -69 -68 -69zM168 86h250v-86h-378l-6 74l245 335h-232v85h357l6 -76z" />
    <glyph glyph-name="ordfeminine" unicode="&#xaa;" horiz-adv-x="422" 
d="M207 711c105 0 160 -49 160 -159v-246l-77 -8c-5 16 -9 36 -12 59c-29 -40 -74 -63 -128 -63c-67 0 -118 36 -118 109c0 98 89 137 243 139v4c0 69 -31 94 -89 94c-38 0 -76 -11 -108 -28l-23 60c45 25 96 39 152 39zM178 361c49 0 97 43 97 115v9
c-102 -1 -154 -22 -154 -73c0 -34 24 -51 57 -51z" />
    <glyph glyph-name="ordmasculine" unicode="&#xba;" horiz-adv-x="464" 
d="M231 294c-124 0 -197 75 -197 206c0 130 73 211 199 211c124 0 197 -76 197 -206c0 -131 -74 -211 -199 -211zM232 366c63 0 98 46 98 135c0 92 -36 139 -99 139c-61 0 -96 -46 -96 -136c0 -91 35 -138 97 -138z" />
    <glyph glyph-name="uni0394" unicode="&#x394;" horiz-adv-x="732" 
d="M30 62l274 649h128l269 -648v-63h-671v62zM580 82l-147 355c-7 18 -16 41 -26 65c-17 41 -34 84 -43 112h-4c-6 -19 -19 -52 -33 -87c-10 -26 -20 -53 -28 -74l-156 -371h437z" />
    <glyph glyph-name="uni03A9" unicode="&#x3a9;" horiz-adv-x="819" 
d="M215 85c-75 55 -149 155 -149 291c0 187 145 329 346 329c209 0 340 -157 340 -326c0 -140 -75 -240 -151 -294v-3h166v-82h-289v62c86 49 165 144 165 299c0 127 -83 261 -231 261c-142 0 -237 -115 -237 -265c0 -142 87 -243 165 -295v-62h-289v82h164v3z" />
    <glyph glyph-name="pi" unicode="&#x3c0;" horiz-adv-x="653" 
d="M539 433v-276c0 -83 8 -128 15 -157h-105c-11 17 -18 66 -18 147v286h-183c-5 -126 -37 -346 -76 -433h-106c39 104 72 307 75 433c-62 0 -96 -5 -121 -13l-14 66c28 19 78 31 171 31h458l-10 -84h-86z" />
    <glyph glyph-name="zero" unicode="0" horiz-adv-x="617" 
d="M304 -10c-169 0 -261 122 -261 352c0 231 97 368 270 368c169 0 261 -122 261 -352c0 -231 -97 -368 -270 -368zM311 88c85 0 140 90 140 261c0 173 -50 263 -145 263c-85 0 -140 -90 -140 -261c0 -173 50 -263 145 -263z" />
    <glyph glyph-name="one" unicode="1" horiz-adv-x="397" 
d="M208 707l118 -7v-700h-111v586l-147 -123l-60 76z" />
    <glyph glyph-name="two" unicode="2" horiz-adv-x="525" 
d="M182 94h297l-7 -94h-440l-7 81c215 190 321 295 321 407c0 81 -47 125 -140 125c-39 0 -88 -9 -136 -29l-33 85c72 35 145 44 193 44c152 0 234 -78 234 -206c0 -123 -73 -235 -282 -413z" />
    <glyph glyph-name="three" unicode="3" horiz-adv-x="511" 
d="M324 378c84 -21 142 -78 142 -173c0 -116 -80 -215 -250 -215c-68 0 -140 15 -195 41l30 86c41 -17 98 -29 151 -29c92 0 144 41 144 121c0 85 -70 111 -180 111h-42l4 81h47c101 0 147 48 147 116c0 67 -43 94 -117 94c-52 0 -92 -9 -127 -23l-34 85
c56 24 119 39 181 39c129 0 210 -64 210 -169c0 -78 -41 -137 -111 -165z" />
    <glyph glyph-name="four" unicode="4" horiz-adv-x="605" 
d="M598 247l-7 -93h-116v-154h-111v154h-332l-6 87l300 471l149 -7v-458h123zM143 247h221v355z" />
    <glyph glyph-name="five" unicode="5" horiz-adv-x="519" 
d="M191 424h3c15 1 29 2 43 2c159 0 238 -79 238 -204c0 -140 -92 -232 -248 -232c-64 0 -145 15 -203 49l30 85c50 -24 101 -37 159 -37c86 0 143 48 143 132c0 88 -61 132 -187 132c-22 0 -46 -1 -72 -4l-13 46v307h361l-6 -97h-248v-179z" />
    <glyph glyph-name="six" unicode="6" horiz-adv-x="587" 
d="M332 449c118 0 206 -67 206 -207c0 -143 -94 -250 -243 -250c-154 0 -244 102 -244 305c0 193 70 414 311 414c45 0 91 -7 138 -27l-28 -91c-43 14 -84 19 -113 19c-124 0 -170 -95 -183 -215c41 31 93 52 156 52zM300 91c79 0 119 63 119 144c0 84 -41 126 -119 126
c-44 0 -89 -14 -129 -45v-10c0 -142 36 -215 129 -215z" />
    <glyph glyph-name="seven" unicode="7" horiz-adv-x="471" 
d="M448 700l7 -88c-124 -188 -203 -389 -258 -615l-117 2c52 227 141 432 260 606h-319l7 95h420z" />
    <glyph glyph-name="eight" unicode="8" horiz-adv-x="581" 
d="M386 371c78 -40 150 -89 150 -186c0 -109 -88 -199 -248 -199c-137 0 -239 60 -239 181c0 94 65 154 144 194c-59 38 -108 88 -108 170c0 112 84 183 214 183c121 0 212 -61 212 -168c0 -74 -49 -137 -125 -175zM297 630c-64 0 -101 -37 -101 -90c0 -62 51 -98 113 -130
c56 31 92 77 92 126c0 57 -38 94 -104 94zM292 73c72 0 121 44 121 104c0 67 -67 102 -141 140c-3 1 -5 3 -8 4c-58 -32 -96 -77 -96 -136c0 -73 55 -112 124 -112z" />
    <glyph glyph-name="nine" unicode="9" horiz-adv-x="581" 
d="M284 711c152 0 246 -112 246 -336c0 -194 -75 -383 -313 -383c-46 0 -97 8 -143 23l29 90c33 -9 75 -14 104 -14c138 0 189 92 201 232c-40 -36 -93 -58 -160 -58c-108 0 -199 70 -199 201c0 151 94 245 235 245zM168 473c0 -79 47 -120 115 -120c46 0 89 16 128 51
c-2 134 -42 208 -133 208c-65 0 -110 -56 -110 -139z" />
    <glyph glyph-name="fraction" unicode="&#x2044;" horiz-adv-x="29" 
d="M-184 -19l-74 51l468 688l77 -47z" />
    <glyph glyph-name="asterisk" unicode="*" horiz-adv-x="428" 
d="M378 603l-114 -29l75 -91l-61 -45l-63 100l-64 -100l-61 45l74 90l-114 30l24 72l109 -43l-7 118h76l-7 -119l110 44z" />
    <glyph glyph-name="backslash" unicode="\" horiz-adv-x="377" 
d="M256 -132l-242 860l107 4l242 -860z" />
    <glyph glyph-name="periodcentered" unicode="&#xb7;" horiz-adv-x="274" 
d="M135 271c-47 0 -74 31 -74 76s27 77 78 77c46 0 74 -32 74 -77s-27 -76 -78 -76z" />
    <glyph glyph-name="bullet" unicode="&#x2022;" horiz-adv-x="383" 
d="M191 205c-68 0 -114 46 -114 115s46 115 114 115c69 0 115 -46 115 -115s-46 -115 -115 -115z" />
    <glyph glyph-name="exclamdown.case" horiz-adv-x="284" 
d="M149 619c47 0 74 -31 74 -76s-27 -77 -78 -77c-46 0 -74 32 -74 77s27 76 78 76zM203 380v-490l-112 -4v490z" />
    <glyph glyph-name="periodcentered.loclCAT.case" horiz-adv-x="39" 
d="M-78 315c-39 0 -63 25 -63 62c0 38 24 63 67 63c39 0 63 -25 63 -63c0 -37 -24 -62 -67 -62z" />
    <glyph glyph-name="numbersign.case" horiz-adv-x="735" 
d="M664 427h-115l-26 -145h110l-4 -87h-121l-35 -195h-92l35 195h-150l-35 -195h-92l35 195h-107l4 87h118l26 145h-113l4 88h124l33 185h92l-33 -185h150l33 185h92l-33 -185h104zM431 282l26 145h-150l-26 -145h150z" />
    <glyph glyph-name="questiondown.case" horiz-adv-x="388" 
d="M238 619c47 0 74 -31 74 -76s-27 -77 -78 -77c-46 0 -74 32 -74 77s27 76 78 76zM190 376l104 4c0 -89 -36 -133 -69 -174c-27 -33 -52 -63 -52 -114c0 -71 51 -105 156 -105l-4 -106c-195 0 -282 60 -282 184c0 161 147 187 147 311z" />
    <glyph glyph-name="colon" unicode=":" horiz-adv-x="274" 
d="M135 330c-47 0 -74 31 -74 76s27 77 78 77c46 0 74 -32 74 -77s-27 -76 -78 -76zM135 -9c-47 0 -74 31 -74 76s27 77 78 77c46 0 74 -32 74 -77s-27 -76 -78 -76z" />
    <glyph glyph-name="comma" unicode="," horiz-adv-x="276" 
d="M136 142c48 0 78 -32 78 -91c0 -74 -48 -155 -98 -184l-43 19c26 30 46 78 50 119c-41 5 -61 32 -61 67c0 40 28 70 74 70z" />
    <glyph glyph-name="ellipsis" unicode="&#x2026;" horiz-adv-x="843" 
d="M175 -9c-47 0 -74 31 -74 76s27 77 78 77c46 0 74 -32 74 -77s-27 -76 -78 -76zM420 -9c-47 0 -74 31 -74 76s27 77 78 77c46 0 74 -32 74 -77s-27 -76 -78 -76zM665 -9c-47 0 -74 31 -74 76s27 77 78 77c46 0 74 -32 74 -77s-27 -76 -78 -76z" />
    <glyph glyph-name="exclam" unicode="!" horiz-adv-x="284" 
d="M81 230v490l112 4v-490zM135 -9c-47 0 -74 31 -74 76s27 77 78 77c46 0 74 -32 74 -77s-27 -76 -78 -76z" />
    <glyph glyph-name="exclamdown" unicode="&#xa1;" horiz-adv-x="284" 
d="M149 519c47 0 74 -31 74 -76s-27 -77 -78 -77c-46 0 -74 32 -74 77s27 76 78 76zM203 280v-490l-112 -4v490z" />
    <glyph glyph-name="periodcentered.loclCAT" horiz-adv-x="96" 
d="M47 295c-36 0 -57 25 -57 63c0 37 21 63 59 63c36 0 57 -26 57 -63c0 -38 -21 -63 -59 -63z" />
    <glyph glyph-name="numbersign" unicode="#" horiz-adv-x="731" 
d="M653 350h-113l-22 -142h111l-4 -88h-121l-22 -144h-92l22 144h-137l-22 -144h-93l22 144h-109l4 88h119l22 142h-116l4 88h125l23 147h93l-23 -147h137l22 147h93l-23 -147h104zM425 208l22 142h-136l-22 -142h136z" />
    <glyph glyph-name="period" unicode="." horiz-adv-x="274" 
d="M135 -9c-47 0 -74 31 -74 76s27 77 78 77c46 0 74 -32 74 -77s-27 -76 -78 -76z" />
    <glyph glyph-name="question" unicode="?" horiz-adv-x="388" 
d="M198 234l-104 -4c0 89 36 133 69 174c27 33 52 63 52 114c0 71 -51 105 -156 105l4 106c195 0 282 -60 282 -184c0 -161 -147 -187 -147 -311zM150 -9c-47 0 -74 31 -74 76s27 77 78 77c46 0 74 -32 74 -77s-27 -76 -78 -76z" />
    <glyph glyph-name="questiondown" unicode="&#xbf;" horiz-adv-x="388" 
d="M238 519c47 0 74 -31 74 -76s-27 -77 -78 -77c-46 0 -74 32 -74 77s27 76 78 76zM190 276l104 4c0 -89 -36 -133 -69 -174c-27 -33 -52 -63 -52 -114c0 -71 51 -105 156 -105l-4 -106c-195 0 -282 60 -282 184c0 161 147 187 147 311z" />
    <glyph glyph-name="quotedbl" unicode="&#x22;" horiz-adv-x="441" 
d="M88 463l-7 257l104 4l-7 -257zM263 463l-7 257l104 4l-7 -257z" />
    <glyph glyph-name="quotesingle" unicode="'" horiz-adv-x="266" 
d="M88 463l-7 257l104 4l-7 -257z" />
    <glyph glyph-name="semicolon" unicode=";" horiz-adv-x="278" 
d="M139 328c-47 0 -74 31 -74 76s27 77 78 77c46 0 74 -32 74 -77s-27 -76 -78 -76zM135 143c48 0 78 -32 78 -91c0 -74 -48 -155 -98 -184l-43 19c26 30 46 78 50 119c-41 5 -61 32 -61 67c0 40 28 70 74 70z" />
    <glyph glyph-name="slash" unicode="/" horiz-adv-x="376" 
d="M117 -128l-104 -4l246 860l103 4z" />
    <glyph glyph-name="numbersign.ss01" horiz-adv-x="735" 
d="M664 427h-115l-26 -145h110l-4 -87h-121l-35 -195h-92l35 195h-150l-35 -195h-92l35 195h-107l4 87h118l26 145h-113l4 88h124l33 185h92l-33 -185h150l33 185h92l-33 -185h104zM431 282l26 145h-150l-26 -145h150z" />
    <glyph glyph-name="underscore" unicode="_" horiz-adv-x="587" 
d="M46 0h486l-4 -92h-486z" />
    <glyph glyph-name="braceleft" unicode="{" horiz-adv-x="395" 
d="M241 -61c0 -47 12 -61 47 -61h50l-4 -88h-95c-76 0 -101 33 -101 110v241c0 39 -16 73 -63 73h-45l4 105h46c45 0 58 31 58 79v212c0 77 27 110 106 110h94l-4 -88h-49c-34 0 -44 -14 -44 -61v-196c0 -44 -9 -89 -54 -106c42 -18 54 -60 54 -108v-222z" />
    <glyph glyph-name="braceright" unicode="}" horiz-adv-x="395" 
d="M315 318h45l-4 -106h-46c-45 0 -57 -31 -57 -79v-233c0 -77 -28 -110 -107 -110h-94l4 88h49c35 0 44 14 44 61v218c0 44 9 89 54 106c-42 18 -54 61 -54 108v200c0 47 -12 61 -47 61h-50l4 88h95c76 0 102 -33 102 -110v-219c0 -39 15 -73 62 -73z" />
    <glyph glyph-name="bracketleft" unicode="[" horiz-adv-x="360" 
d="M300 632h-112v-748h112l-4 -88h-203v924h211z" />
    <glyph glyph-name="bracketright" unicode="]" horiz-adv-x="360" 
d="M64 720h203v-924h-211l4 88h112v748h-112z" />
    <glyph glyph-name="braceleft.case" horiz-adv-x="395" 
d="M241 -3c0 -47 12 -61 47 -61h50l-4 -88h-95c-76 0 -101 33 -101 110v241c0 39 -16 73 -63 73h-45l4 105h46c45 0 58 31 58 79v212c0 77 27 110 106 110h94l-4 -88h-49c-34 0 -44 -14 -44 -61v-196c0 -44 -9 -89 -54 -106c42 -18 54 -60 54 -108v-222z" />
    <glyph glyph-name="braceright.case" horiz-adv-x="395" 
d="M315 376h45l-4 -106h-46c-45 0 -57 -31 -57 -79v-233c0 -77 -28 -110 -107 -110h-94l4 88h49c35 0 44 14 44 61v218c0 44 9 89 54 106c-42 18 -54 61 -54 108v200c0 47 -12 61 -47 61h-50l4 88h95c76 0 102 -33 102 -110v-219c0 -39 15 -73 62 -73z" />
    <glyph glyph-name="bracketleft.case" horiz-adv-x="360" 
d="M300 690h-112v-748h112l-4 -88h-203v924h211z" />
    <glyph glyph-name="bracketright.case" horiz-adv-x="360" 
d="M64 778h203v-924h-211l4 88h112v748h-112z" />
    <glyph glyph-name="parenleft.case" horiz-adv-x="400" 
d="M253 -177c-101 146 -151 313 -151 479s50 330 149 473l89 -4c-76 -141 -114 -304 -114 -466c0 -165 39 -330 118 -473z" />
    <glyph glyph-name="parenright.case" horiz-adv-x="400" 
d="M147 782c101 -146 151 -313 151 -479s-50 -330 -149 -473l-89 4c76 141 114 304 114 466c0 165 -39 330 -118 473z" />
    <glyph glyph-name="parenleft" unicode="(" horiz-adv-x="400" 
d="M253 -221c-101 146 -151 313 -151 479s50 330 149 473l89 -4c-76 -141 -114 -304 -114 -466c0 -165 39 -330 118 -473z" />
    <glyph glyph-name="parenright" unicode=")" horiz-adv-x="400" 
d="M147 738c101 -146 151 -313 151 -479s-50 -330 -149 -473l-89 4c76 141 114 304 114 466c0 165 -39 330 -118 473z" />
    <glyph glyph-name="emdash" unicode="&#x2014;" horiz-adv-x="878" 
d="M47 389h786l-4 -92h-786z" />
    <glyph glyph-name="endash" unicode="&#x2013;" horiz-adv-x="578" 
d="M47 389h486l-4 -92h-486z" />
    <glyph glyph-name="hyphen" unicode="-" horiz-adv-x="361" 
d="M51 301l4 79h255l-4 -79h-255z" />
    <glyph glyph-name="guillemotleft" unicode="&#xab;" horiz-adv-x="529" 
d="M307 414l-135 -155l135 -159l-57 -48l-179 205l188 210zM349 259l106 -122l-56 -46l-146 166l149 166l47 -52z" />
    <glyph glyph-name="guillemotright" unicode="&#xbb;" horiz-adv-x="529" 
d="M279 467l179 -205l-188 -210l-48 53l135 155l-135 159zM130 428l146 -166l-149 -166l-47 52l100 112l-106 122z" />
    <glyph glyph-name="guilsinglleft" unicode="&#x2039;" horiz-adv-x="398" 
d="M317 420l-135 -155l135 -159l-57 -48l-179 205l188 210z" />
    <glyph glyph-name="guilsinglright" unicode="&#x203a;" horiz-adv-x="398" 
d="M138 467l179 -205l-188 -210l-48 53l135 155l-135 159z" />
    <glyph glyph-name="quotedblbase" unicode="&#x201e;" horiz-adv-x="450" 
d="M134 128c46 0 78 -32 78 -90c0 -68 -48 -143 -99 -171l-43 19c27 27 47 72 50 110c-41 4 -61 29 -61 63c0 39 27 69 75 69zM312 128c46 0 78 -32 78 -90c0 -68 -48 -143 -99 -171l-43 19c27 27 47 72 50 110c-41 4 -61 29 -61 63c0 39 27 69 75 69z" />
    <glyph glyph-name="quotedblleft" unicode="&#x201c;" horiz-adv-x="450" 
d="M152 654c41 -4 61 -29 61 -63c0 -39 -27 -69 -75 -69c-46 0 -78 32 -78 90c0 68 48 143 99 171l43 -19c-27 -27 -47 -72 -50 -110zM330 654c41 -4 61 -29 61 -63c0 -39 -27 -69 -75 -69c-46 0 -78 32 -78 90c0 68 48 143 99 171l43 -19c-27 -27 -47 -72 -50 -110z" />
    <glyph glyph-name="quotedblright" unicode="&#x201d;" horiz-adv-x="450" 
d="M134 777c46 0 78 -32 78 -90c0 -68 -48 -143 -99 -171l-43 19c27 27 47 72 50 110c-41 4 -61 29 -61 63c0 39 27 69 75 69zM312 777c46 0 78 -32 78 -90c0 -68 -48 -143 -99 -171l-43 19c27 27 47 72 50 110c-41 4 -61 29 -61 63c0 39 27 69 75 69z" />
    <glyph glyph-name="quoteleft" unicode="&#x2018;" horiz-adv-x="272" 
d="M152 654c41 -4 61 -29 61 -63c0 -39 -27 -69 -75 -69c-46 0 -78 32 -78 90c0 68 48 143 99 171l43 -19c-27 -27 -47 -72 -50 -110z" />
    <glyph glyph-name="quoteright" unicode="&#x2019;" horiz-adv-x="272" 
d="M134 777c46 0 78 -32 78 -90c0 -68 -48 -143 -99 -171l-43 19c27 27 47 72 50 110c-41 4 -61 29 -61 63c0 39 27 69 75 69z" />
    <glyph glyph-name="quotesinglbase" unicode="&#x201a;" horiz-adv-x="272" 
d="M134 128c46 0 78 -32 78 -90c0 -68 -48 -143 -99 -171l-43 19c27 27 47 72 50 110c-41 4 -61 29 -61 63c0 39 27 69 75 69z" />
    <glyph glyph-name="space" unicode=" " horiz-adv-x="248" 
 />
    <glyph glyph-name="uni00A0" unicode="&#xa0;" horiz-adv-x="248" 
 />
    <glyph glyph-name="cent" unicode="&#xa2;" horiz-adv-x="508" 
d="M470 100c-31 -22 -79 -40 -134 -46v-80l-93 -4v87c-115 21 -189 109 -189 244c0 145 76 241 195 266v90l93 4v-89c45 -4 89 -16 123 -36l-30 -85c-33 18 -71 28 -112 28c-92 0 -155 -56 -155 -165s60 -164 158 -164c48 0 86 12 113 28z" />
    <glyph glyph-name="currency" unicode="&#xa4;" horiz-adv-x="654" 
d="M563 135l-47 -44l-65 77c-35 -23 -77 -36 -124 -36s-90 13 -124 37l-65 -78l-47 44l69 73c-32 38 -50 89 -50 147c0 57 18 108 49 146l-67 67l46 45l63 -74c35 24 78 38 126 38c49 0 92 -14 127 -38l63 74l45 -45l-67 -67c31 -38 49 -89 49 -146c0 -58 -19 -110 -51 -148
zM327 206c79 0 134 61 134 148c0 88 -55 148 -135 148c-79 0 -133 -60 -133 -148c0 -87 55 -148 134 -148z" />
    <glyph glyph-name="dollar" unicode="$" horiz-adv-x="538" 
d="M481 242c0 -86 -61 -156 -157 -180v-81l-92 -4v78c-64 3 -126 24 -175 53l41 85c51 -27 102 -43 154 -43c68 0 104 33 104 79c0 45 -50 65 -108 89c-76 31 -164 67 -164 171c0 76 47 153 154 173v67l93 4v-68c44 -4 87 -16 130 -36l-34 -84c-41 20 -89 31 -130 31
c-65 0 -95 -34 -95 -74s31 -63 73 -82c83 -38 206 -62 206 -178z" />
    <glyph glyph-name="Euro" unicode="&#x20ac;" horiz-adv-x="657" 
d="M597 127l32 -81c-50 -35 -127 -59 -208 -59c-159 0 -278 84 -309 254h-86l7 73h71v20c0 21 1 41 3 60h-64l7 74h70c39 153 148 248 309 248c76 0 140 -18 190 -44l-32 -87c-49 21 -98 32 -152 32c-101 0 -172 -51 -201 -149h281l-7 -74h-287c-1 -14 -2 -28 -2 -43
c0 -13 0 -25 1 -37h273l-6 -73h-255c27 -99 95 -156 203 -156c63 0 114 16 162 42z" />
    <glyph glyph-name="sterling" unicode="&#xa3;" horiz-adv-x="559" 
d="M262 278c-2 -58 -20 -119 -82 -184h309v-94h-426l-7 81c74 75 95 137 96 197h-99l7 74h84c-2 14 -5 27 -8 41c-8 38 -16 77 -16 120c0 104 69 200 214 200c76 0 129 -21 171 -43l-31 -88c-48 21 -87 32 -130 32c-75 0 -109 -48 -109 -124c0 -31 6 -63 13 -95
c3 -14 6 -29 8 -43h190l-7 -74h-177z" />
    <glyph glyph-name="yen" unicode="&#xa5;" horiz-adv-x="651" 
d="M542 263h-158v-66h165l-7 -74h-158v-123h-111v123h-163l7 74h156v66h-163l7 74h129l-196 363l129 4l155 -308l157 308l115 -4l-198 -363h141z" />
    <glyph glyph-name="plus" unicode="+" horiz-adv-x="609" 
d="M533 402l-4 -89h-177v-184h-92v184h-184l4 89h180v184h92v-184h181z" />
    <glyph glyph-name="minus" unicode="&#x2212;" horiz-adv-x="609" 
d="M80 402h453l-4 -89h-453z" />
    <glyph glyph-name="multiply" unicode="&#xd7;" horiz-adv-x="609" 
d="M510 218l-65 -66l-141 141l-139 -138l-63 63l139 139l-142 141l66 65l141 -141l138 138l64 -63l-139 -138z" />
    <glyph glyph-name="divide" unicode="&#xf7;" horiz-adv-x="609" 
d="M305 495c-40 0 -63 27 -63 64c0 39 23 65 65 65c40 0 64 -26 64 -65c0 -37 -24 -64 -66 -64zM80 402h453l-4 -90h-453zM305 91c-40 0 -63 27 -63 65s23 65 65 65c40 0 64 -27 64 -65s-24 -65 -66 -65z" />
    <glyph glyph-name="equal" unicode="=" horiz-adv-x="609" 
d="M80 489h453l-4 -90h-453zM80 275h453l-4 -90h-453z" />
    <glyph glyph-name="notequal" unicode="&#x2260;" horiz-adv-x="609" 
d="M378 399l-45 -124h200l-4 -90h-229l-35 -96h-103l35 96h-121l4 90h149l45 124h-198l4 90h226l38 104h104l-38 -104h123l-4 -90h-151z" />
    <glyph glyph-name="greater" unicode="&#x3e;" horiz-adv-x="609" 
d="M91 591l427 -211v-72l-427 -211v93l319 154l-319 154v93z" />
    <glyph glyph-name="less" unicode="&#x3c;" horiz-adv-x="609" 
d="M518 591v-93l-319 -154l319 -154v-93l-427 211v72z" />
    <glyph glyph-name="greaterequal" unicode="&#x2265;" horiz-adv-x="609" 
d="M91 683l427 -211v-72l-427 -211v93l319 154l-319 154v93zM91 27v90h427v-90h-427z" />
    <glyph glyph-name="lessequal" unicode="&#x2264;" horiz-adv-x="609" 
d="M518 683v-93l-319 -154l319 -154v-93l-427 211v72zM91 27v90h427v-90h-427z" />
    <glyph glyph-name="plusminus" unicode="&#xb1;" horiz-adv-x="609" 
d="M265 262v162h-162l4 79h158v162h82v-162h159l-3 -79h-156v-162h-82zM103 99l4 79h399l-3 -79h-400z" />
    <glyph glyph-name="approxequal" unicode="&#x2248;" horiz-adv-x="609" 
d="M58 373c6 88 69 128 131 128c46 0 89 -18 129 -35c34 -14 65 -27 94 -27c30 0 59 20 64 63l76 -14c-7 -90 -70 -128 -133 -128c-43 0 -84 17 -123 34c-34 14 -67 28 -97 28c-33 0 -60 -20 -66 -63zM58 160c6 88 69 128 131 128c46 0 89 -18 129 -35c34 -14 65 -27 94 -27
c30 0 59 20 64 63l76 -14c-7 -90 -70 -128 -133 -128c-43 0 -84 17 -123 34c-34 14 -67 28 -97 28c-33 0 -60 -20 -66 -63z" />
    <glyph glyph-name="asciitilde" unicode="~" horiz-adv-x="609" 
d="M58 269c6 88 69 128 131 128c46 0 89 -18 129 -35c34 -14 65 -27 94 -27c30 0 59 20 64 63l76 -14c-7 -90 -70 -128 -133 -128c-43 0 -84 17 -123 34c-34 14 -67 28 -97 28c-33 0 -60 -20 -66 -63z" />
    <glyph glyph-name="logicalnot" unicode="&#xac;" horiz-adv-x="609" 
d="M532 402v-255h-93v166h-362l4 89h451z" />
    <glyph glyph-name="emptyset" unicode="&#x2205;" horiz-adv-x="723" 
d="M604 511c37 -49 58 -113 58 -186c0 -178 -123 -300 -300 -300c-73 0 -137 21 -187 57l-24 -24l-56 56l24 24c-37 50 -58 114 -58 187c0 177 123 300 301 300c73 0 137 -21 186 -58l24 24l56 -56zM141 325c0 -51 12 -95 35 -130l316 316c-35 22 -79 34 -130 34
c-136 0 -221 -85 -221 -220zM362 104c135 0 220 85 220 221c0 51 -12 95 -34 130l-316 -316c35 -23 79 -35 130 -35z" />
    <glyph glyph-name="infinity" unicode="&#x221e;" horiz-adv-x="879" 
d="M657 436c94 0 172 -70 172 -183c0 -111 -75 -188 -176 -188c-88 0 -157 59 -219 122c-61 -63 -127 -122 -211 -122c-96 0 -173 77 -173 188s76 183 172 183c89 0 158 -60 220 -124c62 64 130 124 215 124zM235 155c50 0 97 40 145 91c-51 54 -99 100 -149 100
c-46 0 -85 -36 -85 -93s38 -98 89 -98zM645 155c49 0 88 40 88 98s-37 93 -87 93c-53 0 -101 -41 -150 -92c51 -54 98 -99 149 -99z" />
    <glyph glyph-name="integral" unicode="&#x222b;" horiz-adv-x="394" 
d="M303 734c45 0 86 -14 116 -29l-30 -78c-24 11 -46 16 -70 16c-58 0 -82 -41 -82 -139v-515c0 -138 -66 -212 -177 -212c-45 0 -86 13 -116 28l31 78c23 -10 45 -16 70 -16c57 0 81 42 81 139v515c0 138 67 213 177 213z" />
    <glyph glyph-name="product" unicode="&#x220f;" horiz-adv-x="788" 
d="M641 610v-705h-105v705h-284v-705h-105v705h-121v90h736v-90h-121z" />
    <glyph glyph-name="summation" unicode="&#x2211;" horiz-adv-x="622" 
d="M24 -95v61l287 334l-273 331v69h544v-87h-395v-4l245 -297l-266 -313v-3h435v-91h-577z" />
    <glyph glyph-name="radical" unicode="&#x221a;" horiz-adv-x="664" 
d="M402 -148h-89l-176 450l-81 -31l-20 56l165 66l156 -420l1 -1l218 851h77z" />
    <glyph glyph-name="partialdiff" unicode="&#x2202;" horiz-adv-x="620" 
d="M266 -6c-157 0 -226 130 -226 235c0 150 106 253 238 253c103 0 166 -71 183 -101h1c1 11 1 30 1 41c0 161 -86 276 -207 276c-65 0 -118 -27 -147 -48l-34 71c31 24 100 59 193 59c165 0 300 -135 300 -379c0 -226 -111 -407 -302 -407zM275 76c91 0 159 97 175 219
c-15 40 -69 107 -152 107c-87 0 -152 -77 -152 -175c0 -84 52 -151 129 -151z" />
    <glyph glyph-name="percent" unicode="%" horiz-adv-x="901" 
d="M252 -19l-74 51l468 688l77 -47zM218 357c-106 0 -166 62 -166 174c0 107 61 179 167 179s165 -64 165 -175c0 -112 -60 -178 -166 -178zM219 424c50 0 79 36 79 109c0 72 -28 110 -79 110c-50 0 -79 -36 -79 -109s28 -110 79 -110zM683 -15c-106 0 -166 62 -166 174
c0 107 61 179 167 179s165 -64 165 -175c0 -112 -60 -178 -166 -178zM684 52c50 0 79 36 79 109c0 72 -28 110 -79 110c-50 0 -79 -36 -79 -109s28 -110 79 -110z" />
    <glyph glyph-name="perthousand" unicode="&#x2030;" horiz-adv-x="1295" 
d="M252 -19l-74 51l468 688l77 -47zM218 357c-106 0 -166 62 -166 174c0 107 61 179 167 179s165 -64 165 -175c0 -112 -60 -178 -166 -178zM219 424c50 0 79 36 79 109c0 72 -28 110 -79 110c-50 0 -79 -36 -79 -109s28 -110 79 -110zM683 -15c-106 0 -166 62 -166 174
c0 107 61 179 167 179s165 -64 165 -175c0 -112 -60 -178 -166 -178zM1077 -15c-106 0 -166 62 -166 174c0 107 61 179 167 179s165 -64 165 -175c0 -112 -60 -178 -166 -178zM684 52c50 0 79 36 79 109c0 72 -28 110 -79 110c-50 0 -79 -36 -79 -109s28 -110 79 -110z
M1078 52c50 0 79 36 79 109c0 72 -28 110 -79 110c-50 0 -79 -36 -79 -109s28 -110 79 -110z" />
    <glyph glyph-name="lozenge" unicode="&#x25ca;" horiz-adv-x="639" 
d="M360 -49h-83l-221 394l223 397h83l222 -397zM320 658h-3l-168 -311l169 -313h4l168 309z" />
    <glyph glyph-name="at" unicode="@" horiz-adv-x="1053" 
d="M566 -123c141 0 253 32 334 75l32 -80c-89 -53 -241 -92 -391 -92c-302 0 -479 154 -479 435c0 279 173 487 487 487c281 0 440 -167 440 -415c0 -183 -86 -294 -228 -294c-67 0 -112 28 -130 90c-33 -58 -87 -89 -160 -89c-89 0 -138 49 -138 124c0 116 116 156 289 159
v1c0 86 -33 116 -103 116c-46 0 -87 -10 -137 -36l-20 68c55 31 114 47 175 47c116 0 171 -58 171 -188v-120c0 -59 19 -86 64 -86c70 0 107 73 107 186c0 215 -113 344 -335 344c-245 0 -373 -158 -373 -384c0 -259 168 -348 395 -348zM496 73c80 0 125 59 126 142
c-138 -2 -194 -24 -194 -84c0 -38 21 -58 68 -58z" />
    <glyph glyph-name="ampersand" unicode="&#x26;" horiz-adv-x="749" 
d="M736 73l-54 -90c-56 37 -107 73 -154 107c-67 -68 -151 -104 -245 -104c-131 0 -219 64 -219 172c0 105 72 163 150 212c-50 65 -73 124 -73 181c0 101 77 176 199 176c108 0 179 -57 179 -150c0 -100 -82 -157 -166 -209c42 -44 98 -92 168 -146c28 46 51 103 68 170
l78 -35c-17 -71 -43 -134 -75 -186c43 -31 91 -64 144 -98zM256 557c0 -40 16 -83 49 -130c57 37 102 78 102 142c0 46 -24 74 -72 74c-52 0 -79 -35 -79 -86zM301 73c57 0 110 23 157 68c-80 62 -145 118 -194 170c-50 -36 -88 -77 -88 -133c0 -66 54 -105 125 -105z" />
    <glyph glyph-name="paragraph" unicode="&#xb6;" horiz-adv-x="551" 
d="M256 0v278h-14c-105 0 -215 62 -215 205c0 135 82 237 319 237c63 0 109 -3 137 -10v-710h-80v644h-67v-644h-80z" />
    <glyph glyph-name="section" unicode="&#xa7;" horiz-adv-x="602" 
d="M459 186c26 -23 42 -55 42 -98c0 -105 -97 -158 -214 -158c-66 0 -144 18 -187 46l26 70c29 -16 95 -37 156 -37c76 0 114 28 114 73c0 54 -64 74 -137 97c-91 28 -194 60 -194 170c0 56 29 103 92 132c-24 23 -39 53 -39 95c0 97 82 151 200 151c59 0 125 -14 168 -35
l-26 -72c-36 16 -89 29 -135 29c-72 0 -106 -26 -106 -66c0 -50 61 -69 129 -91c90 -29 193 -62 193 -173c0 -58 -28 -97 -82 -133zM158 370c0 -62 71 -86 148 -111c32 -10 65 -21 94 -35c29 18 49 43 49 77c0 61 -69 84 -144 109c-31 10 -63 20 -92 34
c-32 -15 -55 -37 -55 -74z" />
    <glyph glyph-name="copyright" unicode="&#xa9;" horiz-adv-x="995" 
d="M495 -91c-259 0 -431 184 -431 437c0 252 173 444 433 444c259 0 434 -184 434 -435c0 -253 -174 -446 -436 -446zM500 1c200 0 331 152 331 349c0 202 -133 349 -338 349c-200 0 -329 -153 -329 -349c0 -202 131 -349 336 -349zM648 183c-41 -28 -95 -42 -147 -42
c-124 0 -198 83 -198 213c0 134 79 219 209 219c47 0 91 -11 130 -34l-32 -79c-26 12 -52 18 -82 18c-78 0 -117 -41 -117 -121c0 -79 39 -121 115 -121c32 0 66 7 92 22z" />
    <glyph glyph-name="registered" unicode="&#xae;" horiz-adv-x="594" 
d="M298 724c152 0 251 -103 251 -256c0 -156 -100 -260 -254 -260c-151 0 -249 102 -249 255c0 156 99 261 252 261zM297 260c119 0 195 82 195 207c0 124 -76 205 -195 205s-195 -82 -195 -208c0 -123 76 -204 195 -204zM388 531c0 -31 -16 -57 -41 -74l64 -116h-59l-54 98
h-10c-4 -1 -7 -1 -11 -1h-7v-96h-51v266c27 4 47 6 62 6c65 0 107 -32 107 -83zM270 481h9c37 0 57 16 57 48c0 28 -17 43 -53 43c-4 0 -9 0 -13 -1v-90z" />
    <glyph glyph-name="trademark" unicode="&#x2122;" horiz-adv-x="888" 
d="M853 327h-82l-39 273l-90 -265h-79l-88 268l-41 -276h-74l58 373l102 1l89 -275l92 275l94 -1zM343 700v-64h-115v-309h-84v309h-115v64h314z" />
    <glyph glyph-name="degree" unicode="&#xb0;" horiz-adv-x="376" 
d="M189 709c86 0 147 -67 147 -153c0 -95 -67 -151 -148 -151c-80 0 -148 56 -148 151c0 93 68 153 148 153h1zM186 663c-52 0 -89 -41 -89 -106c0 -61 38 -108 92 -108c56 0 90 43 90 105c0 60 -30 109 -92 109h-1z" />
    <glyph glyph-name="bar" unicode="|" horiz-adv-x="302" 
d="M192 811v-1081h-82v1081h82z" />
    <glyph glyph-name="brokenbar" unicode="&#xa6;" horiz-adv-x="302" 
d="M110 354v457h82v-457h-82zM110 -270v460h82v-460h-82z" />
    <glyph glyph-name="uni2113" unicode="&#x2113;" horiz-adv-x="596" 
d="M525 178l46 -46c-52 -90 -139 -138 -227 -138c-105 0 -172 56 -187 160c-14 -8 -29 -16 -45 -24c-5 -3 -10 -5 -15 -8l-31 67c32 17 61 33 88 49v223c0 188 91 254 187 254c109 0 169 -76 169 -164c0 -143 -87 -239 -253 -341v-6c0 -82 40 -122 113 -122c16 0 32 3 47 8
c45 17 83 55 108 88zM340 633c-44 0 -84 -42 -83 -154v-176c123 85 154 150 154 238c0 52 -20 92 -71 92z" />
    <glyph glyph-name="dagger" unicode="&#x2020;" horiz-adv-x="578" 
d="M340 718l-10 -224l205 9v-92l-205 9l10 -472h-102l10 472l-205 -9v92l205 -9l-10 224h102z" />
    <glyph glyph-name="daggerdbl" unicode="&#x2021;" horiz-adv-x="579" 
d="M338 718l-8 -207l206 9v-92l-206 9v-206l206 9v-91l-206 9l8 -210h-99l7 210l-203 -9v91l204 -9v206l-204 -9v92l204 -9l-8 207h99z" />
    <glyph glyph-name="estimated" unicode="&#x212e;" horiz-adv-x="900" 
d="M197 340v-212c73 -78 154 -117 253 -117c103 0 195 47 258 119h57c-71 -84 -187 -139 -316 -139c-220 0 -399 160 -399 359s179 360 399 360c224 0 401 -159 401 -370h-653zM703 575c-77 76 -156 113 -253 113c-94 0 -178 -39 -253 -115v-214h506v216z" />
    <glyph glyph-name="asciicircum" unicode="^" horiz-adv-x="572" 
d="M455 253l-170 370l-170 -369h-69l208 436h64l209 -436z" />
    <glyph glyph-name="uni0308" unicode="&#x308;" 
d="M-315 599c-38 0 -60 25 -60 63s22 64 64 64c38 0 59 -26 59 -64s-21 -63 -63 -63zM-114 599c-39 0 -60 25 -60 63s21 64 63 64c39 0 60 -26 60 -64s-21 -63 -63 -63z" />
    <glyph glyph-name="uni0307" unicode="&#x307;" 
d="M-133 600c-42 0 -65 28 -65 69s23 69 69 69c42 0 64 -28 64 -69s-22 -69 -68 -69z" />
    <glyph glyph-name="gravecomb" unicode="&#x300;" 
d="M-191 625l-25 -52l-202 90l38 81z" />
    <glyph glyph-name="acutecomb" unicode="&#x301;" 
d="M-333 625l189 119l38 -81l-202 -90z" />
    <glyph glyph-name="uni030B" unicode="&#x30b;" 
d="M-378 565l41 178l85 -16l-61 -172zM-251 565l63 173l86 -18l-85 -167z" />
    <glyph glyph-name="caroncomb.alt" 
d="M-175 552v172l78 4l-12 -176h-66z" />
    <glyph glyph-name="uni0302" unicode="&#x302;" 
d="M-181 618l-25 -49l-123 72l-122 -72l-25 49l147 117z" />
    <glyph glyph-name="uni030C" unicode="&#x30c;" 
d="M-153 735l25 -49l-147 -117l-148 117l26 49l122 -72z" />
    <glyph glyph-name="uni0306" unicode="&#x306;" 
d="M-231 657c44 0 72 32 90 76l57 -29c-21 -79 -75 -122 -147 -122s-126 43 -147 122l57 29c18 -44 46 -76 90 -76z" />
    <glyph glyph-name="uni030A" unicode="&#x30a;" 
d="M-298 554c-66 0 -109 40 -109 101s43 101 109 101c65 0 108 -40 108 -101s-43 -101 -108 -101zM-298 609c27 0 43 17 43 46s-16 46 -43 46c-28 0 -44 -17 -44 -46s16 -46 44 -46z" />
    <glyph glyph-name="tildecomb" unicode="&#x303;" 
d="M-220 597c-27 0 -46 9 -64 19c-17 8 -34 17 -57 17c-22 0 -39 -11 -65 -30l-28 51c38 38 70 52 103 52c32 0 54 -11 74 -21c16 -8 30 -15 46 -15c22 0 37 10 63 29c1 0 1 0 2 1l27 -51c-38 -38 -69 -52 -101 -52z" />
    <glyph glyph-name="uni0304" unicode="&#x304;" 
d="M-419 688h313l-2 -80h-312z" />
    <glyph glyph-name="uni0312" unicode="&#x312;" 
d="M-181 662c37 2 61 -13 61 -45c0 -33 -26 -49 -59 -49c-39 0 -65 23 -65 65c0 49 42 89 113 101l10 -27c-32 -11 -52 -26 -60 -45z" />
    <glyph glyph-name="uni0326" unicode="&#x326;" 
d="M-138 -52c39 0 65 -23 65 -65c0 -49 -42 -89 -113 -101l-10 27c32 11 52 26 60 45c-37 -2 -61 13 -61 45c0 33 26 49 59 49z" />
    <glyph glyph-name="uni0327" unicode="&#x327;" 
d="M-287 -57c60 1 91 -27 91 -74c0 -53 -41 -85 -108 -85c-30 0 -56 7 -80 19l16 44c18 -8 36 -13 55 -13c27 0 45 10 45 34c0 32 -32 43 -82 40l-6 21l24 71h57z" />
    <glyph glyph-name="uni0328" unicode="&#x328;" 
d="M-106 -135l21 -48c-25 -21 -62 -38 -106 -38c-52 0 -92 25 -92 80s40 106 107 152l83 -11c-68 -46 -98 -86 -98 -121c0 -23 13 -31 33 -31c15 0 31 5 52 17z" />
    <glyph glyph-name="uni0335" unicode="&#x335;" 
d="M-475 305l4 75h329l-4 -75h-329z" />
    <glyph glyph-name="uni0336" unicode="&#x336;" 
d="M-617 560l4 71h616l-4 -71h-616z" />
    <glyph glyph-name="uni0308.case" 
d="M-315 775c-38 0 -60 25 -60 63s22 63 64 63c38 0 59 -25 59 -63s-21 -63 -63 -63zM-114 775c-39 0 -60 25 -60 63s21 63 63 63c39 0 60 -25 60 -63s-21 -63 -63 -63z" />
    <glyph glyph-name="uni0307.case" 
d="M-133 774c-42 0 -65 27 -65 68c0 42 23 69 69 69c42 0 64 -27 64 -69c0 -41 -22 -68 -68 -68z" />
    <glyph glyph-name="gravecomb.case" 
d="M-184 794l-24 -52l-222 82l35 83z" />
    <glyph glyph-name="acutecomb.case" 
d="M-420 794l211 113l35 -83l-223 -82z" />
    <glyph glyph-name="uni030B.case" 
d="M-383 773l32 158l82 -16l-48 -154zM-255 768l55 155l83 -17l-73 -151z" />
    <glyph glyph-name="uni0302.case" 
d="M-161 802l-25 -50l-143 66l-142 -66l-25 50l167 106z" />
    <glyph glyph-name="uni030C.case" 
d="M-105 901l25 -50l-167 -106l-168 106l25 50l143 -66z" />
    <glyph glyph-name="uni0306.case" 
d="M-231 840c47 0 83 29 101 67l57 -29c-22 -73 -83 -114 -158 -114c-74 0 -136 41 -158 114l57 29c18 -38 54 -67 101 -67z" />
    <glyph glyph-name="uni030A.case" 
d="M-298 701c-68 0 -114 41 -114 103c0 61 46 102 114 102c67 0 113 -41 113 -102c0 -62 -46 -103 -113 -103zM-298 757c27 0 43 17 43 47c0 28 -16 45 -43 45c-28 0 -44 -17 -44 -45c0 -30 16 -47 44 -47z" />
    <glyph glyph-name="tildecomb.case" 
d="M-263 761c-28 0 -51 10 -73 19c-21 9 -41 17 -64 17c-26 0 -45 -11 -75 -31l-28 51c42 39 77 52 112 52c33 0 60 -11 84 -21c20 -8 37 -15 54 -15c24 0 43 11 73 31l27 -51c-41 -38 -76 -52 -110 -52z" />
    <glyph glyph-name="uni0304.case" 
d="M-419 861h313l-2 -81h-312z" />
    <glyph glyph-name="acutecomb.loclPLK.case" 
d="M-284 769l29 158l94 -13l-65 -154z" />
    <glyph glyph-name="acutecomb.loclPLK" 
d="M-253 585l37 181l89 -17l-70 -174z" />
    <glyph glyph-name="acute" unicode="&#xb4;" horiz-adv-x="327" 
d="M50 625l189 119l38 -81l-202 -90z" />
    <glyph glyph-name="breve" unicode="&#x2d8;" horiz-adv-x="393" 
d="M197 657c44 0 72 32 90 76l57 -29c-21 -79 -75 -122 -147 -122s-126 43 -147 122l57 29c18 -44 46 -76 90 -76z" />
    <glyph glyph-name="caron" unicode="&#x2c7;" horiz-adv-x="395" 
d="M320 735l25 -49l-147 -117l-148 117l26 49l122 -72z" />
    <glyph glyph-name="cedilla" unicode="&#xb8;" horiz-adv-x="289" 
d="M147 -57c60 1 91 -27 91 -74c0 -53 -41 -85 -108 -85c-30 0 -56 7 -80 19l16 44c18 -8 36 -13 55 -13c27 0 45 10 45 34c0 32 -32 43 -82 40l-6 21l24 71h57z" />
    <glyph glyph-name="circumflex" unicode="&#x2c6;" horiz-adv-x="395" 
d="M345 618l-25 -49l-123 72l-122 -72l-25 49l147 117z" />
    <glyph glyph-name="dieresis" unicode="&#xa8;" horiz-adv-x="423" 
d="M110 599c-38 0 -60 25 -60 63s22 64 64 64c38 0 59 -26 59 -64s-21 -63 -63 -63zM311 599c-39 0 -60 25 -60 63s21 64 63 64c39 0 60 -26 60 -64s-21 -63 -63 -63z" />
    <glyph glyph-name="dotaccent" unicode="&#x2d9;" horiz-adv-x="233" 
d="M115 600c-42 0 -65 28 -65 69s23 69 69 69c42 0 64 -28 64 -69s-22 -69 -68 -69z" />
    <glyph glyph-name="grave" unicode="`" horiz-adv-x="327" 
d="M277 625l-25 -52l-202 90l38 81z" />
    <glyph glyph-name="hungarumlaut" unicode="&#x2dd;" horiz-adv-x="375" 
d="M50 565l41 178l85 -16l-61 -172zM177 565l63 173l86 -18l-85 -167z" />
    <glyph glyph-name="macron" unicode="&#xaf;" horiz-adv-x="415" 
d="M51 688h313l-2 -80h-312z" />
    <glyph glyph-name="ogonek" unicode="&#x2db;" horiz-adv-x="298" 
d="M227 -135l21 -48c-25 -21 -62 -38 -106 -38c-52 0 -92 25 -92 80s40 106 107 152l83 -11c-68 -46 -98 -86 -98 -121c0 -23 13 -31 33 -31c15 0 31 5 52 17z" />
    <glyph glyph-name="ring" unicode="&#x2da;" horiz-adv-x="317" 
d="M159 554c-66 0 -109 40 -109 101s43 101 109 101c65 0 108 -40 108 -101s-43 -101 -108 -101zM159 609c27 0 43 17 43 46s-16 46 -43 46c-28 0 -44 -17 -44 -46s16 -46 44 -46z" />
    <glyph glyph-name="tilde" unicode="&#x2dc;" horiz-adv-x="415" 
d="M264 597c-27 0 -46 9 -64 19c-17 8 -34 17 -57 17c-22 0 -39 -11 -65 -30l-28 51c38 38 70 52 103 52c32 0 54 -11 74 -21c16 -8 30 -15 46 -15c22 0 37 10 63 29c1 0 1 0 2 1l27 -51c-38 -38 -69 -52 -101 -52z" />
    </font>
</defs>
</svg>
