<svg xmlns="http://www.w3.org/2000/svg" viewBox="0 0 40 40">
  <g fill="none" fill-rule="evenodd">
    <circle cx="19.68497" cy="19.68497" r="19.68497" fill="#FFF" opacity=".8"/>
    <path fill="#d50032" d="M29.8236 12.5154c-1.1149-1.08075-2.5782-1.62112-4.1112-1.62112-1.533 0-2.9963.60792-4.1112 1.6211l-1.8814 1.75622-1.8814-1.82375c-1.1149-1.08075-2.5782-1.62112-4.11118-1.62112-1.533 0-2.9963.60792-4.1112 1.62112C8.50112 13.5286 7.874 14.94707 7.874 16.50063c0 1.48603.62712 2.9045 1.67234 3.98524L19.7198 30.2801l10.1038-9.79423c1.1149-1.08074 1.67235-2.4992 1.67235-3.98524 0-1.48602-.55745-2.97204-1.67235-3.98524zm-.97554 7.02482l-9.12825 8.8486-9.12824-8.8486c-.83618-.81055-1.32395-1.8913-1.32395-3.0396 0-1.14828.48778-2.22902 1.32396-3.03958.83617-.81055 1.95107-1.28338 3.13566-1.28338 1.18458 0 2.29948.47283 3.13565 1.28338l2.85694 2.7694 2.85694-2.7694c.83618-.81055 1.95108-1.28338 3.13566-1.28338 1.18458 0 2.29948.47283 3.13566 1.28338.83617.81056 1.32394 1.8913 1.32394 3.0396 0 1.14828-.48777 2.22903-1.32394 3.03958z"/>
  </g>
</svg>
