<svg xmlns="http://www.w3.org/2000/svg" xmlns:xlink="http://www.w3.org/1999/xlink" viewBox="0 0 40 40">
  <defs>
    <path id="a" d="M0 0v29.63h34.9V0H0z"/>
  </defs>
  <g transform="translate(2.5 5)" fill="none" fill-rule="evenodd">
    <mask id="b" fill="#fff">
      <use xlink:href="#a"/>
    </mask>
    <path d="M30.94 13.24l-13.5 13.48-13.47-13.5C2.74 12 2.07 10.37 2.07 8.6c0-1.75.67-3.4 1.9-4.63s2.88-1.9 4.63-1.9c1.76 0 3.4.67 4.63 1.9l4.22 4.22 4.22-4.24c1.23-1.23 2.88-1.9 4.64-1.9 1.77 0 3.4.67 4.65 1.9 1.23 1.23 1.9 2.87 1.9 4.63 0 1.75-.67 3.4-1.9 4.63M32.4 2.5C30.76.9 28.6 0 26.3 0s-4.46.9-6.08 2.5l-2.77 2.8-2.75-2.8C13.06.9 10.9 0 8.6 0S4.14.9 2.52 2.5C.9 4.14 0 6.3 0 8.6s.9 4.47 2.52 6.1l14.93 14.93L32.4 14.7c1.6-1.63 2.5-3.8 2.5-6.1s-.9-4.47-2.5-6.1" fill="#000"/>
  </g>
</svg>
