<svg xmlns="http://www.w3.org/2000/svg" viewBox="0 0 40 40">
  <g fill="none" fill-rule="evenodd">
    <circle cx="20" cy="20" r="20" fill="#FFF" opacity=".8"/>
    <path fill="#D50032" d="M30.3009 12.7157c-1.13276-1.09805-2.61948-1.64707-4.177-1.64707-1.55753 0-3.04425.61764-4.177 1.64706L20.0354 14.5l-1.9115-1.85294C16.99114 11.54902 15.5044 11 13.9469 11c-1.55752 0-3.04425.61765-4.177 1.64706C8.63718 13.7451 8 15.18626 8 16.7647c0 1.5098.63717 2.951 1.69912 4.04903L20.0354 30.7647l10.2655-9.95097C31.43361 19.7157 32 18.2745 32 16.7647c0-1.5098-.56637-3.0196-1.6991-4.049z"/>
  </g>
</svg>
