<svg viewBox="0 0 40 40" xmlns="http://www.w3.org/2000/svg">
  <path d="M8.993 24.98c-2.136-2.135-3.31-4.974-3.31-7.993 0-3.02 1.174-5.86 3.31-7.995 2.135-2.135 4.974-3.31 7.994-3.31 3.02 0 5.86 1.176 7.994 3.31 4.408 4.41 4.408 11.58 0 15.99-2.134 2.134-4.974 3.31-7.993 3.31-3.02 0-5.86-1.176-7.994-3.31zm19.297 1.06c4.558-5.683 4.208-14.03-1.06-19.298C24.494 4.007 20.857 2.5 16.987 2.5S9.48 4.007 6.743 6.742C4.007 9.48 2.5 13.117 2.5 16.987c0 3.87 1.507 7.507 4.243 10.243 2.736 2.737 6.375 4.244 10.244 4.244 3.334 0 6.492-1.125 9.053-3.184l8.908 9.135 2.25-2.25-8.908-9.135z" fill="#000" fill-rule="evenodd"/>
</svg>
