<svg viewBox="10 5 20 25" xmlns="http://www.w3.org/2000/svg" xmlns:xlink="http://www.w3.org/1999/xlink">
  <defs>
    <path id="a" d="M2.63 0h2.633v34.206H0V0h2.63z"/>
  </defs>
  <g transform="translate(17 3.5)" fill="none" fill-rule="evenodd">
    <mask id="b" fill="#fff"><use xlink:href="#a"/></mask>
    <path d="M.372 34.206c.057-.052.128-.098.17-.158C3.593 29.71 5.4 25.075 5.256 19.95c-.074-2.637-.975-5.16-1.358-7.752-.437-2.953-.744-5.9-.266-8.87.184-1.133.57-2.223.91-3.328-.118.065-.19.14-.25.222C.376 5.456-.918 11.098.646 17.192c.745 2.908 1.205 5.853 1.226 8.828.017 2.778-.362 5.522-1.5 8.186" fill="#000" mask="url(#b)"/>
  </g>
</svg>
