<svg width="14" height="14" viewBox="0 0 14 14" xmlns="http://www.w3.org/2000/svg">
  <g fill="none" fill-rule="evenodd">
    <path d="M6.998 7L2.894 1.353C4.142.445 5.456.018 6.998.018V7z" fill="#E0582A"/>
    <path d="M6.998 7L.358 4.844c.476-1.467 1.288-2.584 2.536-3.49L6.998 7z" fill="#EA862D"/>
    <path d="M6.998 7L.358 9.16C-.12 7.69-.12 6.31.358 4.842L6.998 7z" fill="#F7C723"/>
    <path d="M7 7l6.64 2.16c.477-1.468.477-2.85 0-4.317L7 7z" fill="#692D7B"/>
    <path d="M6.998 7l-4.104 5.65C1.646 11.743.834 10.626.358 9.16L6.998 7z" fill="#529A43"/>
    <path d="M6.998 7v6.984c-1.542 0-2.856-.427-4.104-1.334L6.998 7z" fill="#228672"/>
    <path d="M6.998 7l4.105 5.65c-1.248.907-2.562 1.334-4.105 1.334V7z" fill="#415C9A"/>
    <path d="M6.998 7l6.64 2.16c-.476 1.466-1.287 2.583-2.535 3.49L6.998 7z" fill="#5E5493"/>
    <path d="M6.998 7l4.105-5.648c1.248.907 2.06 2.024 2.536 3.49l-6.642 2.16z" fill="#913E86"/>
    <path d="M6.998 7V.02c1.543 0 2.857.427 4.105 1.334l-4.105 5.65z" fill="#D9242A"/>
    <path d="M5.315 8.685c-.45-.45-.698-1.048-.698-1.684 0-.635.248-1.233.698-1.683.45-.45 1.047-.697 1.683-.697.636 0 1.234.248 1.684.697.45.45.697 1.048.697 1.684 0 .637-.248 1.235-.698 1.685-.45.45-1.048.697-1.684.697-.636 0-1.234-.248-1.683-.697z" stroke="#FFF" fill="#FFF"/>
  </g>
</svg>
