<svg xmlns="http://www.w3.org/2000/svg" viewBox="0 0 40 40"><g fill="#000" fill-rule="evenodd"><path d="M19.58375 5C11.5425 5 5 11.54125 5 19.58375c0 8.04125 6.5425 14.5825 14.58375 14.5825S34.1675 27.625 34.1675 19.58375C34.1675 11.54125 27.625 5 19.58375 5m0 31.66625c-9.42 0-17.08375-7.66375-17.08375-17.0825C2.5 10.16375 10.16375 2.5 19.58375 2.5c9.42 0 17.08375 7.66375 17.08375 17.08375 0 9.41875-7.66375 17.0825-17.08375 17.0825"/><path d="M17.63312 15.67563v7.815l6.345-3.9075-6.345-3.9075zm-2.5 12.29125v-16.7675l13.6125 8.38374-13.6125 8.38376z"/></g></svg>