<!-- Generated by IcoMoon.io -->
<svg version="1.1" xmlns="http://www.w3.org/2000/svg" width="32" height="32" viewBox="0 0 32 32">
<title>account</title>
<path d="M15.617 5.548c-3.006 0-5.452 2.446-5.452 5.452s2.446 5.453 5.452 5.453c3.006 0 5.452-2.446 5.452-5.453s-2.446-5.452-5.452-5.452zM15.617 18.001c-3.86 0-7-3.141-7-7.001s3.14-7 7-7 7 3.141 7 7c0 3.86-3.14 7.001-7 7.001z"></path>
<path d="M10.212 21.459c-0.938 0-2.019 0.782-2.312 1.674l-0.682 2.071c-0.113 0.345-0.091 0.651 0.062 0.862s0.437 0.328 0.801 0.328h15.073c0.379 0 0.695-0.134 0.891-0.377s0.259-0.581 0.178-0.951l-0.427-1.946c-0.198-0.9-1.143-1.661-2.064-1.661h-11.52zM23.153 27.943h-15.073c-0.86 0-1.61-0.353-2.055-0.969s-0.547-1.437-0.278-2.254l0.681-2.070c0.505-1.536 2.166-2.739 3.783-2.739h11.52c1.651 0 3.222 1.263 3.576 2.877l0.427 1.946c0.181 0.825 0.005 1.647-0.484 2.254s-1.253 0.955-2.097 0.955v0z"></path>
</svg>
