<!-- Generated by IcoMoon.io -->
<svg version="1.1" xmlns="http://www.w3.org/2000/svg" viewBox="0 0 24 24">
<title>bag</title>
<path class="st0" d="M17,6.5V6c0-2.5-2-4.5-4.5-4.5S8,3.5,8,6v0.5H4v12c0,1.7,1.3,3,3,3h11c1.7,0,3-1.3,3-3v-12H17z M9,6
	c0-1.9,1.6-3.5,3.5-3.5S16,4.1,16,6v0.5H9V6z M20,18.5c0,1.1-0.9,2-2,2H7c-1.1,0-2-0.9-2-2v-11h3v1.2C7.7,8.8,7.5,9.1,7.5,9.5
	c0,0.6,0.4,1,1,1s1-0.4,1-1c0-0.4-0.2-0.7-0.5-0.8V7.5h7v1.2c-0.3,0.2-0.5,0.5-0.5,0.8c0,0.6,0.4,1,1,1s1-0.4,1-1
	c0-0.4-0.2-0.7-0.5-0.8V7.5h3V18.5z"/>
</svg>
