<!-- Generated by IcoMoon.io -->
<svg version="1.1" xmlns="http://www.w3.org/2000/svg" width="32" height="32" viewBox="0 0 32 32">
<title>beautypass</title>
<path d="M3.6 6.4c-0.882 0-1.6 0.718-1.6 1.6v15.835c0 0.882 0.718 1.6 1.6 1.6h24.372c0.882 0 1.6-0.718 1.6-1.6v-15.835c0-0.882-0.718-1.6-1.6-1.6h-24.372zM27.972 27.035h-24.372c-1.765 0-3.2-1.435-3.2-3.2v-15.835c0-1.764 1.435-3.2 3.2-3.2h24.372c1.764 0 3.2 1.436 3.2 3.2v15.835c0 1.765-1.436 3.2-3.2 3.2v0z"></path>
<path d="M14.412 23.712c0.035-0.024 0.078-0.045 0.104-0.072 1.854-1.978 2.953-4.090 2.866-6.425-0.046-1.202-0.592-2.351-0.826-3.533-0.266-1.346-0.454-2.689-0.162-4.042 0.11-0.517 0.346-1.014 0.552-1.517-0.071 0.030-0.115 0.064-0.152 0.102-2.379 2.385-3.166 4.956-2.214 7.734 0.453 1.325 0.733 2.667 0.745 4.022 0.010 1.266-0.22 2.517-0.913 3.731z"></path>
</svg>
