<!-- Generated by IcoMoon.io -->
<svg version="1.1" xmlns="http://www.w3.org/2000/svg" width="32" height="32" viewBox="0 0 32 32">
<title>beauty_profile</title>
<path fill="#040000" d="M25.938 26.964c0 0.793-0.643 1.436-1.436 1.436h-17.231c-0.793 0-1.436-0.643-1.436-1.436v-21.184c0-0.792 0.643-1.436 1.436-1.436h2.154v1.265h-2.005v21.545h16.932v-21.545h-2.005v-1.265h2.154c0.793 0 1.436 0.644 1.436 1.436v21.184zM22.349 7.045h0.569v18.673h-14.060v-18.673h13.492zM10.862 3.436h10.051v2.173h-10.051v-2.173zM24.503 2.909h-2.154v-0.908h-12.923v0.908h-2.154c-1.583 0-2.872 1.288-2.872 2.872v21.184c0 1.584 1.289 2.872 2.872 2.872h17.231c1.583 0 2.872-1.288 2.872-2.872v-21.184c0-1.584-1.289-2.872-2.872-2.872v0z"></path>
<path fill="#000" d="M15.85 17.155c-1.684 0-3.053-1.371-3.053-3.054s1.37-3.054 3.053-3.054c1.684 0 3.054 1.37 3.054 3.054s-1.37 3.054-3.054 3.054z"></path>
<path fill="#000" d="M19.137 21.492h-6.576c-0.375 0-0.701-0.154-0.895-0.423-0.195-0.268-0.239-0.627-0.121-0.983l0.296-0.903c0.22-0.671 0.945-1.195 1.651-1.195h5.026c0.721 0 1.405 0.551 1.559 1.255l0.187 0.848c0.078 0.361 0.002 0.719-0.212 0.984-0.212 0.265-0.545 0.417-0.914 0.417z"></path>
</svg>
