<!-- Generated by IcoMoon.io -->
<svg version="1.1" xmlns="http://www.w3.org/2000/svg" width="32" height="32" viewBox="0 0 32 32">
<title>member_benefits</title>
<path d="M22.871 15.432h-6.071v-6.071h-1.6v6.071h-6.071v1.6h6.071v6.071h1.6v-6.071h6.071z"></path>
<path d="M24.357 24.947c1.646-2.348 2.647-5.39 2.647-8.715s-1.001-6.367-2.647-8.715c2.478 2.165 4.042 5.265 4.042 8.715s-1.565 6.55-4.042 8.715zM3.6 16.232c0-3.45 1.566-6.55 4.042-8.715-1.646 2.348-2.647 5.39-2.647 8.715s1.001 6.367 2.647 8.715c-2.477-2.165-4.042-5.265-4.042-8.715zM25.405 16.232c0 6.524-4.218 11.832-9.405 11.832s-9.405-5.308-9.405-11.832 4.219-11.832 9.405-11.832c5.186 0 9.405 5.308 9.405 11.832zM16 2.8c-7.719 0-14 6.026-14 13.432s6.281 13.432 14 13.432c7.72 0 14-6.026 14-13.432s-6.28-13.432-14-13.432z"></path>
</svg>
