<!-- Generated by IcoMoon.io -->
<svg version="1.1" xmlns="http://www.w3.org/2000/svg" width="32" height="32" viewBox="0 0 32 32">
<title>birthday</title>
<path d="M17.923 10.4h-4.262l-1.043 2.8h6.349z"></path>
<path d="M20.010 16h-8.435l-1.043 2.8h10.522z"></path>
<path d="M16.879 7.6l-0.528-1.419c0.080-0.231 0.23-0.514 0.506-0.71 0.423-0.301 1.057-0.337 1.943-0.093 0.064 0.010 1.612 0.213 2.728-0.68l-0.583-0.73c-0.556 0.446-1.312 0.507-1.701 0.507-0.164 0-0.259-0.009-0.255-0.008-0.428-0.119-0.815-0.162-1.179-0.165 0.119-0.051 1.49-0.665 1.981-1.972l-0.873-0.329c-0.355 0.941-1.44 1.427-1.428 1.427-1.112 0.3-1.841 0.83-2.172 1.574-0.217 0.488-0.212 0.97-0.147 1.347l-0.467 1.253h2.175z"></path>
<path d="M22.097 21.6h-12.61l-1.043 2.8h14.697z"></path>
<path d="M24.184 27.2h-16.784l-1 2.682h18.783z"></path>
</svg>
