<?xml version="1.0" encoding="UTF-8"?>
<svg width="39px" height="28px" viewBox="0 0 39 28" version="1.1" xmlns="http://www.w3.org/2000/svg" xmlns:xlink="http://www.w3.org/1999/xlink">
    <!-- Generator: Sketch 53.2 (72643) - https://sketchapp.com -->
    <title>beauty pass black</title>
    <desc>Created with Sketch.</desc>
    <g id="Icons" stroke="none" stroke-width="1" fill="none" fill-rule="evenodd">
        <g id="beautypass-black" transform="translate(0.000000, -6.000000)">
            <g id="beauty-pass-black" transform="translate(0.500000, 6.000000)">
                <path d="M34.465,27.794 L4,27.794 C1.794,27.794 0,26 0,23.794 L0,4 C0,1.795 1.794,0 4,0 L34.465,0 C36.67,0 38.465,1.795 38.465,4 L38.465,23.794 C38.465,26 36.67,27.794 34.465,27.794 L34.465,27.794 Z" id="Path" fill="#000000"></path>
                <path d="M17.5146,23.6402 C17.5586,23.6102 17.6126,23.5842 17.6446,23.5502 C19.9616,21.0782 21.3356,18.4382 21.2266,15.5192 C21.1696,14.0172 20.4866,12.5802 20.1946,11.1032 C19.8626,9.4212 19.6276,7.7422 19.9926,6.0502 C20.1306,5.4042 20.4246,4.7832 20.6826,4.1542 C20.5936,4.1912 20.5386,4.2342 20.4926,4.2812 C17.5186,7.2622 16.5346,10.4762 17.7246,13.9482 C18.2906,15.6042 18.6406,17.2822 18.6556,18.9762 C18.6686,20.5592 18.3806,22.1222 17.5146,23.6402" id="Fill-3" fill="#FFFFFF"></path>
            </g>
        </g>
    </g>
</svg>