<svg width="39" height="28" xmlns="http://www.w3.org/2000/svg">
  <title>beauty pass black</title>
  <g fill="none" fill-rule="evenodd">
    <path d="M34.965 27.794H4.5c-2.206 0-4-1.794-4-4V4c0-2.205 1.794-4 4-4h30.465c2.205 0 4 1.795 4 4v19.794c0 2.206-1.795 4-4 4z" fill="#000"/>
    <path d="M18.015 23.64c.044-.03.098-.056.13-.09 2.317-2.472 3.69-5.112 3.582-8.03-.057-1.503-.74-2.94-1.032-4.417-.332-1.682-.567-3.36-.202-5.053.138-.646.432-1.267.69-1.896a.541.541 0 0 0-.19.127c-2.974 2.981-3.958 6.195-2.768 9.667.566 1.656.916 3.334.93 5.028.014 1.583-.274 3.146-1.14 4.664" fill="#FFF"/>
  </g>
</svg>
