<?xml version="1.0" encoding="UTF-8" standalone="no"?>
<svg width="40px" height="40px" viewBox="0 0 40 40" version="1.1" xmlns="http://www.w3.org/2000/svg" xmlns:xlink="http://www.w3.org/1999/xlink">
    <!-- Generator: Sketch 45 (43475) - http://www.bohemiancoding.com/sketch -->
    <title>card_gold</title>
    <desc>Created with Sketch.</desc>
    <defs>
        <linearGradient x1="74.8853473%" y1="118.46823%" x2="25.152902%" y2="-18.4940998%" id="linearGradient-1">
            <stop stop-color="#D7C6A5" offset="0%"></stop>
            <stop stop-color="#E2DAC6" offset="17.42%"></stop>
            <stop stop-color="#EDECE5" offset="36.63%"></stop>
            <stop stop-color="#F1F3F0" offset="47.43%"></stop>
            <stop stop-color="#F0E1CB" offset="73.16%"></stop>
            <stop stop-color="#E8D8BE" offset="78.71%"></stop>
            <stop stop-color="#CAB791" offset="100%"></stop>
        </linearGradient>
    </defs>
    <g id="Icons" stroke="none" stroke-width="1" fill="none" fill-rule="evenodd">
        <g id="card_gold">
            <g transform="translate(0.000000, 5.000000)">
                <path d="M37.2978116,30 L2.70218839,30 C1.21788773,30 0,28.5476551 0,26.7776097 L0,3.22239032 C0,1.45234493 1.21788773,0 2.70218839,0 L37.2978116,0 C38.7821123,0 40,1.45234493 40,3.22239032 L40,26.7776097 C40,28.5476551 38.7821123,30 37.2978116,30 L37.2978116,30 Z" id="Shape" fill="url(#linearGradient-1)"></path>
                <g id="Group-7" transform="translate(7.000000, 8.000000)" fill="#000000">
                    <path d="M6.20754717,9.20754717 C6.20754717,9.62264151 6.16981132,10.0377358 6.09433962,10.4528302 C6.01886792,10.8679245 5.90566038,11.2075472 5.71698113,11.5471698 C5.52830189,11.8867925 5.22641509,12.1509434 4.88679245,12.3396226 C4.50943396,12.5283019 4.05660377,12.6415094 3.45283019,12.6415094 C2.8490566,12.6415094 2.35849057,12.5283019 1.98113208,12.3396226 C1.60377358,12.1509434 1.30188679,11.8867925 1.0754717,11.5471698 C0.849056604,11.2075472 0.698113208,10.8301887 0.622641509,10.4150943 C0.547169811,10 0.471698113,9.58490566 0.471698113,9.16981132 C0.471698113,8.75471698 0.509433962,8.33962264 0.58490566,7.9245283 C0.660377358,7.50943396 0.811320755,7.13207547 1.03773585,6.79245283 C1.26415094,6.45283019 1.56603774,6.18867925 1.94339623,6 C2.32075472,5.77358491 2.81132075,5.69811321 3.41509434,5.69811321 C3.71698113,5.69811321 4.01886792,5.73584906 4.32075472,5.81132075 C4.62264151,5.88679245 4.8490566,6 5.0754717,6.11320755 C5.30188679,6.26415094 5.49056604,6.41509434 5.64150943,6.64150943 C5.79245283,6.86792453 5.86792453,7.09433962 5.94339623,7.39622642 L4.88679245,7.39622642 C4.8490566,7.20754717 4.81132075,7.01886792 4.77358491,6.83018868 C4.73584906,6.64150943 4.62264151,6.49056604 4.50943396,6.33962264 C4.39622642,6.18867925 4.24528302,6.0754717 4.09433962,6 C3.90566038,5.9245283 3.71698113,5.88679245 3.45283019,5.88679245 C3.1509434,5.88679245 2.9245283,5.96226415 2.73584906,6.0754717 C2.54716981,6.18867925 2.35849057,6.33962264 2.24528302,6.52830189 C2.13207547,6.71698113 2.01886792,6.94339623 1.94339623,7.16981132 C1.86792453,7.39622642 1.83018868,7.66037736 1.79245283,7.88679245 C1.75471698,8.1509434 1.71698113,8.37735849 1.71698113,8.60377358 L1.71698113,9.20754717 L1.71698113,9.81132075 C1.71698113,10.0377358 1.75471698,10.2641509 1.79245283,10.5283019 C1.83018868,10.7924528 1.86792453,11.0188679 1.98113208,11.245283 C2.05660377,11.4716981 2.16981132,11.6981132 2.28301887,11.8867925 C2.43396226,12.0754717 2.58490566,12.2264151 2.77358491,12.3396226 C2.96226415,12.4528302 3.22641509,12.5283019 3.52830189,12.490566 C3.94339623,12.490566 4.24528302,12.4150943 4.47169811,12.2264151 C4.69811321,12.0377358 4.8490566,11.8113208 4.96226415,11.5471698 C5.0754717,11.2830189 5.11320755,10.9811321 5.1509434,10.6792453 C5.18867925,10.3773585 5.18867925,10.1132075 5.18867925,9.8490566 L5.18867925,9.32075472 L3.60377358,9.32075472 L3.60377358,9.13207547 L6.28301887,9.13207547 L6.20754717,9.20754717 L6.20754717,9.20754717 Z" id="Shape"></path>
                    <path d="M13.4528302,9.09433962 C13.4528302,9.58490566 13.3773585,10.0377358 13.2641509,10.4528302 C13.1509434,10.8679245 12.9622642,11.245283 12.6981132,11.5471698 C12.4339623,11.8490566 12.1320755,12.1132075 11.754717,12.3018868 C11.3773585,12.490566 10.9622642,12.5660377 10.4716981,12.5660377 C9.98113208,12.5660377 9.56603774,12.490566 9.18867925,12.3018868 C8.81132075,12.1132075 8.50943396,11.8867925 8.24528302,11.5471698 C7.98113208,11.245283 7.79245283,10.8679245 7.67924528,10.4528302 C7.56603774,10.0377358 7.49056604,9.58490566 7.49056604,9.09433962 C7.49056604,8.60377358 7.56603774,8.1509434 7.67924528,7.73584906 C7.79245283,7.32075472 7.98113208,6.94339623 8.24528302,6.60377358 C8.50943396,6.26415094 8.81132075,6.03773585 9.18867925,5.8490566 C9.56603774,5.66037736 9.98113208,5.58490566 10.4716981,5.58490566 C10.9622642,5.58490566 11.3773585,5.66037736 11.754717,5.8490566 C12.1320755,6.03773585 12.4339623,6.26415094 12.6981132,6.60377358 C12.9622642,6.90566038 13.1509434,7.28301887 13.2641509,7.69811321 C13.3773585,8.1509434 13.4528302,8.60377358 13.4528302,9.09433962 L13.4528302,9.09433962 Z M12.3207547,9.09433962 C12.3207547,8.52830189 12.245283,8.03773585 12.1320755,7.62264151 C12.0188679,7.20754717 11.8679245,6.86792453 11.6792453,6.56603774 C11.490566,6.30188679 11.3018868,6.0754717 11.0754717,5.9245283 C10.8490566,5.77358491 10.6603774,5.69811321 10.4339623,5.69811321 C10.245283,5.69811321 10.0188679,5.77358491 9.79245283,5.9245283 C9.56603774,6.0754717 9.37735849,6.26415094 9.18867925,6.56603774 C9,6.86792453 8.8490566,7.20754717 8.73584906,7.62264151 C8.62264151,8.03773585 8.58490566,8.52830189 8.58490566,9.09433962 C8.58490566,9.66037736 8.66037736,10.1509434 8.77358491,10.5660377 C8.88679245,10.9811321 9.03773585,11.3207547 9.22641509,11.6226415 C9.41509434,11.8867925 9.60377358,12.1132075 9.83018868,12.2641509 C10.0566038,12.4150943 10.245283,12.490566 10.4716981,12.490566 C10.6603774,12.490566 10.8867925,12.4150943 11.1132075,12.2641509 C11.3396226,12.1132075 11.5283019,11.9245283 11.7169811,11.6226415 C11.9056604,11.3584906 12.0566038,10.9811321 12.1698113,10.5660377 C12.245283,10.1509434 12.3207547,9.66037736 12.3207547,9.09433962 L12.3207547,9.09433962 Z" id="Shape"></path>
                    <path d="M19,11.509434 L18.8867925,12.490566 L14.7735849,12.490566 L14.7358491,6.1509434 C14.7358491,6.03773585 14.6981132,5.9245283 14.5849057,5.8490566 C14.4716981,5.77358491 14.3584906,5.73584906 14.2075472,5.73584906 L14.2075472,5.69811321 L14.7358491,5.69811321 C15.0377358,5.69811321 15.2641509,5.77358491 15.490566,5.96226415 C15.6792453,6.1509434 15.7924528,6.33962264 15.7924528,6.60377358 L15.8301887,12.3396226 L17.7169811,12.3396226 C17.9056604,12.3396226 18.0566038,12.3396226 18.1698113,12.3018868 C18.2830189,12.2641509 18.3962264,12.2264151 18.509434,12.1886792 C18.6226415,12.1132075 18.6981132,12.0377358 18.7735849,11.9622642 C18.8490566,11.8490566 18.9245283,11.7358491 19,11.5849057 L19,11.509434 L19,11.509434 Z" id="Shape"></path>
                    <path d="M25.5283019,9.05660377 C25.5283019,9.47169811 25.490566,9.8490566 25.3773585,10.2641509 C25.2641509,10.6792453 25.1132075,11.0188679 24.8867925,11.3584906 C24.6603774,11.6981132 24.3584906,11.9622642 23.9433962,12.1509434 C23.5660377,12.3396226 23.0754717,12.4528302 22.509434,12.4528302 L20.0943396,12.4528302 L20.0566038,6.18867925 C20.0566038,6.03773585 20.0188679,5.9245283 19.9056604,5.81132075 C19.8301887,5.69811321 19.6792453,5.66037736 19.5283019,5.66037736 L19.5283019,5.62264151 L22.3584906,5.62264151 C22.9245283,5.62264151 23.4150943,5.73584906 23.7924528,5.9245283 C24.1698113,6.11320755 24.509434,6.37735849 24.7735849,6.71698113 C25.0377358,7.05660377 25.2264151,7.39622642 25.3396226,7.81132075 C25.4528302,8.22641509 25.5283019,8.64150943 25.5283019,9.05660377 L25.5283019,9.05660377 Z M24.3584906,9.05660377 C24.3584906,8.86792453 24.3584906,8.64150943 24.3207547,8.41509434 C24.2830189,8.18867925 24.245283,7.96226415 24.2075472,7.69811321 C24.1698113,7.47169811 24.0943396,7.20754717 23.9811321,6.98113208 C23.8679245,6.75471698 23.754717,6.56603774 23.6037736,6.37735849 C23.4528302,6.18867925 23.2641509,6.0754717 23.0377358,5.96226415 C22.8113208,5.8490566 22.5471698,5.81132075 22.245283,5.81132075 L21.1132075,5.81132075 L21.1509434,12.2641509 L22.3962264,12.2641509 C22.6981132,12.2641509 22.9245283,12.2264151 23.1509434,12.1132075 C23.3773585,12 23.5283019,11.8490566 23.6792453,11.6981132 C23.8301887,11.509434 23.9433962,11.3207547 24.0188679,11.0943396 C24.0943396,10.8679245 24.1698113,10.6415094 24.2075472,10.3773585 C24.245283,10.1509434 24.2830189,9.9245283 24.2830189,9.66037736 C24.3207547,9.43396226 24.3584906,9.24528302 24.3584906,9.05660377 L24.3584906,9.05660377 Z" id="Shape"></path>
                    <g id="Group" transform="translate(3.188679, 0.792453)">
                        <path d="M1.81132075,0.301886792 C1.81132075,0.301886792 1.81132075,0.339622642 1.69811321,0.679245283 C1.32075472,0.377358491 0.754716981,0.41509434 0.754716981,0.830188679 C0.754716981,1.35849057 1.96226415,1.28301887 1.9245283,2.22641509 C1.88679245,2.98113208 1.01886792,3.13207547 0.339622642,2.79245283 C0.41509434,2.67924528 0.452830189,2.52830189 0.490566038,2.41509434 C1.01886792,2.71698113 1.43396226,2.60377358 1.50943396,2.33962264 C1.69811321,1.66037736 0.339622642,1.8490566 0.339622642,0.867924528 C0.339622642,0.452830189 0.830188679,-0.188679245 1.81132075,0.301886792" id="Shape"></path>
                        <path d="M3.20754717,0.188679245 L4.90566038,0.188679245 L4.90566038,0.566037736 L3.62264151,0.566037736 L3.62264151,1.32075472 L4.52830189,1.32075472 L4.52830189,1.66037736 L3.62264151,1.66037736 L3.62264151,2.60377358 L4.90566038,2.60377358 L4.90566038,2.94339623 L3.20754717,2.94339623 L3.20754717,0.188679245 L3.20754717,0.188679245 Z" id="Shape"></path>
                        <path d="M7.09433962,0.188679245 L6.37735849,0.188679245 L6.37735849,2.90566038 L6.79245283,2.90566038 L6.79245283,1.88679245 L7.28301887,1.88679245 C7.50943396,1.88679245 8.1509434,1.77358491 8.1509434,1.01886792 C8.18867925,0.150943396 7.24528302,0.188679245 7.09433962,0.188679245 M7.09433962,1.50943396 L6.83018868,1.50943396 L6.83018868,0.528301887 L7.05660377,0.528301887 C7.16981132,0.528301887 7.81132075,0.490566038 7.8490566,0.981132075 C7.8490566,1.50943396 7.32075472,1.50943396 7.09433962,1.50943396" id="Shape"></path>
                        <path d="M18.3773585,2.90566038 L18.9056604,2.90566038 L18.0754717,1.69811321 C18.3018868,1.62264151 18.5660377,1.43396226 18.5283019,0.981132075 C18.4528302,0.188679245 17.6981132,0.226415094 17.509434,0.226415094 L16.7924528,0.226415094 L16.7924528,2.94339623 L17.2075472,2.94339623 L17.2075472,1.81132075 L17.6226415,1.81132075 L18.3773585,2.90566038 L18.3773585,2.90566038 Z M17.4716981,1.43396226 L17.2075472,1.43396226 L17.2075472,0.528301887 L17.4339623,0.528301887 C17.5471698,0.528301887 18.0754717,0.490566038 18.1509434,0.943396226 C18.2264151,1.47169811 17.5849057,1.43396226 17.4716981,1.43396226 L17.4716981,1.43396226 Z" id="Shape"></path>
                        <polygon id="Shape" points="11.1698113 1.28301887 11.1698113 0.188679245 11.5849057 0.188679245 11.5849057 2.90566038 11.1698113 2.90566038 11.1698113 1.62264151 9.77358491 1.62264151 9.77358491 2.90566038 9.35849057 2.90566038 9.35849057 0.188679245 9.77358491 0.188679245 9.77358491 1.28301887"></polygon>
                        <path d="M20.7924528,0.188679245 L21.2830189,0.188679245 L22.2641509,2.90566038 L21.8490566,2.90566038 C21.8490566,2.90566038 21.7358491,2.64150943 21.6226415,2.26415094 L20.5283019,2.26415094 C20.5283019,2.26415094 20.490566,2.41509434 20.3396226,2.90566038 L19.9245283,2.90566038 L20.7924528,0.188679245 L20.7924528,0.188679245 Z M20.6037736,1.96226415 L21.4716981,1.96226415 L21.0188679,0.603773585 L21.0188679,0.603773585 L20.6037736,1.96226415 L20.6037736,1.96226415 Z M14.1886792,0.490566038 C13.5471698,0.490566038 13.2075472,0.943396226 13.2075472,1.54716981 C13.2075472,2.11320755 13.5471698,2.60377358 14.1886792,2.60377358 C14.8301887,2.60377358 15.1698113,2.1509434 15.1698113,1.54716981 C15.1698113,0.981132075 14.7924528,0.490566038 14.1886792,0.490566038 L14.1886792,0.490566038 Z M14.1886792,0.113207547 C13.3207547,0.113207547 12.7924528,0.754716981 12.7924528,1.54716981 C12.7924528,2.33962264 13.3584906,2.98113208 14.1886792,2.98113208 C15.0566038,2.98113208 15.5849057,2.33962264 15.5849057,1.54716981 C15.5849057,0.754716981 15.0566038,0.113207547 14.1886792,0.113207547 L14.1886792,0.113207547 Z" id="Shape"></path>
                    </g>
                    <g id="Group" transform="translate(0.169811, 0.792453)">
                        <rect id="Rectangle-path" x="0.339622642" y="0.188679245" width="1.32075472" height="1"></rect>
                        <rect id="Rectangle-path" x="0.339622642" y="1.28301887" width="1.32075472" height="1"></rect>
                        <rect id="Rectangle-path" x="0.339622642" y="2.37735849" width="1.32075472" height="1"></rect>
                    </g>
                </g>
            </g>
        </g>
    </g>
</svg>