<!-- Generated by IcoMoon.io -->
<svg version="1.1" xmlns="http://www.w3.org/2000/svg" width="32" height="32" viewBox="0 0 32 32">
<title>card_black</title>
<path fill="#000" d="M29.808 28h-27.646c-1.187 0-2.162-1.164-2.162-2.582v-18.836c0-1.418 0.974-2.582 2.162-2.582h27.677c1.187 0 2.162 1.164 2.162 2.582v18.836c-0.030 1.418-1.005 2.582-2.192 2.582v0z"></path>
<path fill="#fff" d="M9.464 19.14c0 0.241-0.030 0.423-0.121 0.604s-0.181 0.332-0.332 0.453c-0.151 0.121-0.302 0.211-0.513 0.272-0.181 0.060-0.392 0.091-0.604 0.091h-1.811v-5.041c0-0.091-0.030-0.181-0.091-0.242s-0.151-0.091-0.242-0.091v-0.030h0.362c0.211 0 0.362 0.060 0.513 0.211s0.211 0.302 0.211 0.513v4.559h0.725c0.181 0 0.362-0.030 0.513-0.091s0.302-0.151 0.392-0.272c0.121-0.121 0.181-0.241 0.242-0.392s0.091-0.332 0.091-0.513c0-0.181-0.030-0.362-0.091-0.513s-0.151-0.302-0.242-0.423c-0.121-0.121-0.242-0.211-0.392-0.272-0.181-0.091-0.362-0.121-0.543-0.121-0.211 0-0.423 0.060-0.634 0.181l-0.030-0.030c0.151-0.121 0.302-0.211 0.483-0.241 0.181-0.060 0.362-0.060 0.543-0.060 0.211 0 0.423 0.030 0.604 0.091s0.362 0.151 0.483 0.272c0.151 0.121 0.242 0.272 0.332 0.453 0.091 0.211 0.151 0.392 0.151 0.634v0zM9.192 16.513c0 0.181-0.030 0.332-0.091 0.453s-0.151 0.241-0.242 0.332c-0.091 0.091-0.242 0.151-0.362 0.211-0.151 0.060-0.302 0.091-0.453 0.121 0.242-0.121 0.392-0.272 0.453-0.453s0.091-0.423 0.091-0.664c0-0.181-0.030-0.362-0.091-0.513s-0.121-0.302-0.242-0.392c-0.091-0.121-0.242-0.211-0.392-0.272s-0.332-0.091-0.513-0.091c-0.121 0-0.242 0-0.332 0.030-0.121 0.030-0.211 0.091-0.332 0.151l-0.030-0.030c0.151-0.121 0.302-0.211 0.483-0.242 0.181-0.060 0.362-0.060 0.543-0.060 0.211 0 0.423 0.030 0.604 0.091s0.332 0.151 0.483 0.272c0.121 0.121 0.242 0.272 0.302 0.453 0.091 0.181 0.121 0.362 0.121 0.604v0z"></path>
<path fill="#fff" d="M13.238 19.774l-0.091 0.785h-2.808v-5.041c0-0.091-0.030-0.181-0.091-0.242s-0.151-0.091-0.242-0.091v-0.030h0.362c0.211 0 0.362 0.060 0.513 0.211s0.211 0.302 0.211 0.513v4.559h1.268c0.121 0 0.211 0 0.302-0.030s0.151-0.060 0.242-0.091c0.060-0.060 0.121-0.121 0.181-0.181 0.060-0.091 0.121-0.181 0.151-0.302v0-0.060z"></path>
<path fill="#fff" d="M17.434 20.558h-0.755l-0.513-1.781h-1.841l-0.513 1.781h-0.151l1.509-5.192c-0.091-0.121-0.242-0.211-0.453-0.211v-0.030h0.604c0.211 0 0.362 0.060 0.483 0.181s0.211 0.302 0.272 0.543l1.358 4.709zM16.136 18.657l-0.875-3.019-0.875 3.019h1.751z"></path>
<path fill="#fff" d="M21.479 19.291c-0.030 0.241-0.091 0.423-0.181 0.604s-0.211 0.302-0.362 0.423c-0.151 0.121-0.302 0.181-0.513 0.241-0.181 0.060-0.392 0.091-0.634 0.091-0.392 0-0.725-0.091-0.966-0.241s-0.453-0.392-0.604-0.634c-0.151-0.272-0.241-0.543-0.302-0.875s-0.091-0.664-0.091-0.996c0-0.332 0.030-0.664 0.091-0.996s0.151-0.634 0.302-0.906c0.151-0.272 0.332-0.483 0.604-0.634 0.241-0.181 0.574-0.242 0.996-0.242s0.785 0.121 1.087 0.332c0.272 0.242 0.453 0.574 0.513 0.996h-0.664c0-0.151-0.030-0.272-0.060-0.423s-0.091-0.272-0.151-0.392c-0.060-0.121-0.151-0.211-0.272-0.302s-0.241-0.121-0.423-0.121c-0.181 0-0.362 0.060-0.483 0.151s-0.241 0.211-0.332 0.362c-0.091 0.151-0.151 0.332-0.211 0.513s-0.091 0.392-0.121 0.574c-0.030 0.211-0.060 0.392-0.060 0.574v0.966c0 0.181 0.030 0.362 0.060 0.574s0.060 0.392 0.121 0.574c0.060 0.181 0.121 0.362 0.211 0.513s0.211 0.272 0.332 0.362c0.121 0.091 0.302 0.151 0.483 0.151s0.332-0.030 0.453-0.121c0.121-0.060 0.211-0.181 0.272-0.302s0.121-0.241 0.151-0.392c0.030-0.151 0.060-0.302 0.060-0.423h0.694z"></path>
<path fill="#fff" d="M22.989 20.558h-0.694v-5.041c0-0.091-0.030-0.181-0.091-0.242s-0.151-0.091-0.241-0.091v-0.030h0.362c0.211 0 0.362 0.060 0.513 0.211s0.211 0.302 0.211 0.513v4.679h-0.060zM25.706 15.155l-1.298 2.023c-0.121 0.151-0.211 0.302-0.362 0.392-0.121 0.091-0.302 0.151-0.483 0.151h-0.392c0.091-0.030 0.181-0.060 0.241-0.091 0.060-0.060 0.121-0.121 0.181-0.211l1.358-2.234h0.755v-0.030zM26.008 20.558h-0.815l-1.509-2.475c-0.060-0.091-0.121-0.151-0.181-0.211s-0.151-0.091-0.241-0.121h0.453c0.211 0 0.362 0.060 0.513 0.151 0.121 0.091 0.241 0.211 0.332 0.392l1.449 2.264z"></path>
<path fill="#fff" d="M9.313 11.472c0 0 0 0.030-0.091 0.302-0.272-0.242-0.755-0.211-0.755 0.151 0 0.423 0.966 0.362 0.936 1.117-0.030 0.604-0.725 0.725-1.268 0.453 0.060-0.091 0.091-0.211 0.121-0.302 0.423 0.242 0.755 0.151 0.815-0.060 0.151-0.543-0.936-0.392-0.936-1.177 0-0.362 0.362-0.875 1.177-0.483z"></path>
<path fill="#fff" d="M10.43 11.381h1.358v0.302h-1.026v0.604h0.725v0.272h-0.725v0.725h1.026v0.272h-1.358v-2.174z"></path>
<path fill="#fff" d="M13.54 11.381h-0.574v2.174h0.332v-0.815h0.392c0.181 0 0.694-0.091 0.694-0.694 0-0.694-0.725-0.664-0.845-0.664zM13.509 12.438h-0.211v-0.785h0.181c0.091 0 0.604-0.030 0.634 0.362 0 0.423-0.392 0.423-0.604 0.423z"></path>
<path fill="#fff" d="M22.566 13.555h0.423l-0.664-0.966c0.181-0.060 0.392-0.211 0.362-0.574-0.060-0.634-0.664-0.604-0.815-0.604h-0.574v2.174h0.332v-0.906h0.332l0.604 0.875zM21.841 12.408h-0.211v-0.725h0.181c0.091 0 0.513-0.030 0.574 0.332 0.030 0.392-0.453 0.392-0.543 0.392v0z"></path>
<path fill="#fff" d="M16.77 12.257v-0.875h0.332v2.174h-0.332v-1.026h-1.087v1.026h-0.332v-2.174h0.332v0.875z"></path>
<path fill="#fff" d="M24.498 11.381h0.392l0.785 2.174h-0.332c0 0-0.091-0.211-0.181-0.513h-0.875c0 0-0.030 0.121-0.151 0.513h-0.332l0.694-2.174zM24.347 12.8h0.694l-0.362-1.087-0.332 1.087zM19.185 11.653v0c0.513 0 0.785 0.362 0.785 0.845s-0.272 0.845-0.785 0.845c-0.513 0-0.785-0.392-0.785-0.845 0-0.483 0.272-0.845 0.785-0.845zM19.185 11.321c-0.694 0-1.117 0.513-1.117 1.147s0.453 1.147 1.117 1.147c0.694 0 1.117-0.513 1.117-1.147 0.030-0.634-0.423-1.147-1.117-1.147v0z"></path>
<path fill="#fff" d="M5.721 11.381h1.057v0.8h-1.057v-0.8z"></path>
<path fill="#fff" d="M5.721 12.257h1.057v0.8h-1.057v-0.8z"></path>
<path fill="#fff" d="M5.721 13.132h1.057v0.8h-1.057v-0.8z"></path>
</svg>
