<!-- Generated by IcoMoon.io -->
<svg version="1.1" xmlns="http://www.w3.org/2000/svg" width="32" height="32" viewBox="0 0 32 32">
<title>certified</title>
<path d="M25.047 11.13c0.887 1.621 1.394 3.479 1.394 5.454 0 6.277-5.102 11.383-11.372 11.383-6.272 0-11.374-5.106-11.374-11.383s5.102-11.384 11.374-11.384c2.729 0 5.235 0.969 7.197 2.579l1.024-1.35c-2.248-1.827-5.108-2.926-8.221-2.926-7.207 0-13.069 5.868-13.069 13.081s5.862 13.080 13.069 13.080c7.205 0 13.067-5.868 13.067-13.080 0-2.536-0.737-4.897-1.989-6.905l-1.1 1.451z"></path>
<path d="M15.075 19.366l-3.084-3.942-1.334 1.047 4.438 5.674 13.857-18.27-1.35-1.026-4.398 5.799z"></path>
</svg>
