<!-- Generated by IcoMoon.io -->
<svg version="1.1" xmlns="http://www.w3.org/2000/svg" width="32" height="32" viewBox="0 0 32 32">
<title>delete_icon</title>
<path fill="#000" d="M19.285 3.771c0-0.354 0.001-0.684-0-1.014-0.001-0.34-0.019-0.358-0.363-0.358-1.904-0-3.808-0-5.712-0-0.052 0-0.119-0.020-0.154 0.005-0.082 0.058-0.207 0.135-0.211 0.21-0.021 0.38-0.010 0.762-0.010 1.157h6.45zM6.292 9.249h19.577v-3.142h-19.577v3.142zM23.701 11.597h-15.228c-0.005 0.101-0.013 0.188-0.013 0.275-0.001 5.077-0.002 10.154 0.003 15.231 0 0.247 0.026 0.503 0.094 0.739 0.238 0.823 0.966 1.318 1.915 1.318 3.711 0.002 7.423-0.013 11.134 0.009 1.201 0.007 2.11-0.881 2.104-2.141-0.025-5.032-0.010-10.064-0.010-15.097v-0.334zM10.574 3.784c0-0.393-0.001-0.757 0-1.121 0.004-1.498 1.038-2.573 2.502-2.579 2-0.008 4.001-0.007 6.001-0 1.459 0.005 2.498 1.079 2.511 2.577 0.003 0.364 0.001 0.728 0.001 1.122h0.309c1.319 0 2.638-0.007 3.957 0.003 1.134 0.009 2.027 0.747 2.253 1.856 0.042 0.208 0.045 0.426 0.046 0.64 0.005 0.921 0.003 1.842 0.002 2.763-0.002 1.364-0.705 2.223-2.018 2.484-0.063 0.013-0.126 0.11-0.157 0.182-0.026 0.060-0.006 0.141-0.006 0.212 0 5.042 0.004 10.085-0.002 15.127-0.002 1.67-0.694 2.96-2.101 3.825-0.612 0.377-1.287 0.551-1.998 0.551-3.861 0.005-7.722 0.028-11.582-0.007-2.353-0.021-4.085-1.864-4.097-4.28-0.013-2.405-0.003-4.81-0.003-7.215 0-2.691-0.003-5.382 0.005-8.073 0.001-0.234-0.055-0.312-0.294-0.339-0.976-0.114-1.846-1.042-1.873-2.042-0.033-1.188-0.037-2.378-0.001-3.566 0.034-1.127 0.997-2.085 2.098-2.106 1.371-0.026 2.742-0.011 4.114-0.013 0.102-0 0.205-0 0.336-0v0z"></path>
<path fill="#fff" d="M18.935 25.203h2.278v-11.069h-2.278v11.069zM10.994 25.202h2.275v-11.069h-2.275v11.069zM14.962 25.202h2.288v-11.062h-2.288v11.062zM23.881 11.243v0.329c0 4.954-0.015 9.907 0.010 14.861 0.006 1.241-0.922 2.115-2.148 2.108-3.788-0.021-7.576-0.007-11.365-0.008-0.969-0.001-1.712-0.487-1.955-1.298-0.070-0.232-0.096-0.484-0.096-0.727-0.005-4.998-0.004-9.995-0.003-14.993 0-0.086 0.008-0.171 0.013-0.271h15.544z"></path>
<path fill="#fff" d="M6.595 9.514h19.892v-3.459h-19.892z"></path>
<path fill="#fff" d="M18.702 3.974h-6.051c0-0.395-0.011-0.777 0.009-1.157 0.004-0.075 0.121-0.152 0.198-0.21 0.033-0.025 0.096-0.005 0.145-0.005 1.786-0 3.572-0 5.358 0 0.323 0 0.339 0.018 0.34 0.358 0.001 0.33 0 0.66 0 1.014z"></path>
<path fill="#000" d="M15.243 25.946h2.595v-11.243h-2.595z"></path>
<path fill="#000" d="M10.919 25.946h2.595v-11.243h-2.595z"></path>
<path fill="#000" d="M18.703 25.946h2.595v-11.243h-2.595z"></path>
</svg>
