<svg width="24" height="24" xmlns="http://www.w3.org/2000/svg" xmlns:xlink="http://www.w3.org/1999/xlink"><title>delete_icon</title><defs><path d="M19.5 5a.5.5 0 110 1h-.559l-.775 13.176A3 3 0 0115.171 22H8.83a3 3 0 01-2.995-2.824L5.059 6H4.5a.5.5 0 010-1h15zm-1.563 1H6.062l.82 13.125a2 2 0 001.84 1.869l.157.006h6.242a2 2 0 001.98-1.719l.016-.156L17.937 6zM9.5 10a.5.5 0 01.5.5v6a.5.5 0 11-1 0v-6a.5.5 0 01.5-.5zm5 0a.5.5 0 01.5.5v6a.5.5 0 11-1 0v-6a.5.5 0 01.5-.5zm0-8a.5.5 0 110 1h-5a.5.5 0 010-1h5z" id="a"/></defs><use fill="#191919" xlink:href="#a" fill-rule="evenodd"/></svg>