<!-- Generated by IcoMoon.io -->
<svg version="1.1" xmlns="http://www.w3.org/2000/svg" width="32" height="32" viewBox="0 0 32 32">
<title>delivered</title>
<path d="M17.33 12.975c0.101 0.017 0.21 0.036 0.319 0.058l1.045 0.346c0.351 0.176 0.835 0.456 1.097 0.665l1.059 0.816h-3.52v-1.885zM22.497 16.373c0.263 0 0.878 0 1.080-0.576 0.202-0.574-0.281-0.96-0.452-1.097l-2.399-1.847c-0.419-0.336-1.084-0.696-1.411-0.856l-1.231-0.415-0.084-0.023c-0.37-0.077-0.919-0.16-1.161-0.16-0.621 0-1.022 0.598-1.022 1.523v2.251c0 0.547 0.268 1.199 1.544 1.199h5.136z"></path>
<path d="M24.873 23.184c-0.229 0.684-0.869 1.182-1.63 1.182s-1.401-0.498-1.631-1.182c-0.058-0.172-0.096-0.353-0.096-0.544 0-0.952 0.775-1.726 1.727-1.726s1.726 0.774 1.726 1.726c0 0.191-0.039 0.372-0.096 0.544zM10.187 23.184c-0.229 0.684-0.87 1.182-1.631 1.182s-1.402-0.499-1.631-1.184c-0.057-0.172-0.095-0.351-0.095-0.542 0-0.952 0.775-1.726 1.726-1.726s1.727 0.774 1.727 1.726c0 0.191-0.039 0.372-0.096 0.544zM27.776 14.8l-5.489-4.495c-1.093-0.883-2.87-1.5-4.321-1.5h-4.955c0.107 0.453 0.169 0.922 0.169 1.406 0 0.036-0.005 0.071-0.005 0.107h4.791c1.1 0 2.549 0.5 3.366 1.161l5.489 4.495c0.725 0.586 1.104 2.007 1.104 3.109v0.378c0 1.1-0.232 2.208-0.752 2.208h-0.855c-0.415-1.311-1.629-2.27-3.075-2.27s-2.66 0.96-3.075 2.27h-8.535c-0.415-1.311-1.629-2.27-3.075-2.27s-2.66 0.96-3.075 2.27h-0.433c-0.764 0-1.517-0.899-1.519-1.815l-0.012-4.653c-0.592-0.42-1.108-0.94-1.518-1.538l0.017 6.194c0.004 1.57 1.302 3.325 3.032 3.325h0.323c0.26 1.527 1.585 2.696 3.184 2.696s2.925-1.169 3.185-2.696h8.316c0.26 1.527 1.585 2.696 3.185 2.696s2.924-1.169 3.184-2.696h0.745c0.681 0 2.266-0.363 2.266-3.722v-0.378c0-1.356-0.436-3.293-1.663-4.283z"></path>
<path d="M6.761 13.468l-2.619-2.385 1.019-1.119 1.282 1.167 2.381-3.788 1.281 0.805-3.344 5.321zM11.446 8.805c-0.595-1.859-2.335-3.205-4.391-3.205-2.538 0-4.597 2.051-4.611 4.587 0 0.008-0.001 0.016-0.001 0.024 0 1.123 0.403 2.151 1.069 2.951 0.846 1.014 2.118 1.66 3.542 1.66 2.51 0 4.548-2.008 4.606-4.504 0.002-0.036 0.005-0.071 0.005-0.107 0-0.49-0.078-0.963-0.219-1.406v0z"></path>
</svg>
