<!-- Generated by IcoMoon.io -->
<svg version="1.1" xmlns="http://www.w3.org/2000/svg" width="32" height="32" viewBox="0 0 32 32">
<title>delivery</title>
<path fill="#040000" d="M17.366 14.011h-0.030v-1.885c0.101 0.017 0.21 0.036 0.319 0.058l1.045 0.347c0.351 0.175 0.835 0.456 1.097 0.664l1.059 0.816h-3.49zM23.13 13.852l-2.399-1.847c-0.419-0.337-1.084-0.697-1.411-0.857l-1.231-0.415-0.084-0.023c-0.37-0.077-0.919-0.16-1.161-0.16-0.621 0-1.022 0.598-1.022 1.524v2.251c0 0.546 0.268 1.199 1.544 1.199h5.136c0.263 0 0.878 0 1.080-0.576 0.201-0.573-0.281-0.96-0.452-1.097v0z"></path>
<path fill="#000" d="M27.93 18.613c0 1.1-0.233 2.208-0.752 2.208h-1.22c-0.335-1.232-1.452-2.145-2.789-2.145s-2.453 0.913-2.789 2.145h-9.242c-0.336-1.232-1.453-2.145-2.789-2.145s-2.453 0.913-2.789 2.145h-0.505c-0.764 0-1.517-0.899-1.519-1.815l-0.022-8.12c-0.001-0.476 0.215-0.793 0.397-0.975 0.284-0.285 0.679-0.442 1.112-0.442h12.947c1.1 0 2.549 0.5 3.367 1.161l5.489 4.495c0.725 0.586 1.104 2.007 1.104 3.109v0.378zM24.456 22.092c-0.204 0.511-0.703 0.874-1.287 0.874-0.555 0-1.031-0.329-1.252-0.801-0.085-0.179-0.135-0.377-0.135-0.587 0-0.766 0.623-1.389 1.388-1.389s1.389 0.623 1.389 1.389c0 0.182-0.037 0.354-0.101 0.514v0zM9.598 22.173c-0.223 0.468-0.697 0.793-1.249 0.793-0.587 0-1.087-0.367-1.29-0.884-0.061-0.157-0.098-0.326-0.098-0.504 0-0.766 0.622-1.389 1.388-1.389s1.388 0.623 1.388 1.389c0 0.213-0.052 0.414-0.139 0.595v0zM27.781 13.952l-5.489-4.495c-1.093-0.883-2.87-1.5-4.322-1.5h-12.947c-0.838 0-1.613 0.315-2.184 0.886-0.543 0.544-0.84 1.271-0.839 2.048l0.022 8.119c0.004 1.57 1.301 3.325 3.032 3.325h0.505c0.336 1.232 1.453 2.145 2.789 2.145s2.453-0.913 2.789-2.145h9.241c0.335 1.232 1.452 2.145 2.789 2.145s2.454-0.913 2.789-2.145h1.22c0.681 0 2.266-0.363 2.266-3.722v-0.378c0-1.356-0.437-3.293-1.663-4.283v0z"></path>
</svg>
