<!-- Generated by IcoMoon.io -->
<svg version="1.1" xmlns="http://www.w3.org/2000/svg" width="32" height="32" viewBox="0 0 32 32">
<title>Edit_icon</title>
<path fill="#000" d="M2.279 7.201v22.288h22.299v-0.294c0-3.607-0-7.213 0-10.819 0-0.606 0.415-1.071 1.018-1.149 0.539-0.070 1.083 0.321 1.213 0.882 0.027 0.118 0.030 0.243 0.030 0.364 0.001 4.023 0.002 8.045 0.001 12.068-0 0.758-0.45 1.216-1.208 1.24-0.057 0.002-0.114 0.001-0.171 0.001-8.029 0-16.058 0.001-24.087-0.006-0.253-0-0.523-0.044-0.756-0.14-0.397-0.163-0.576-0.509-0.613-0.929-0.007-0.081-0.003-0.163-0.003-0.245-0-8.094-0-16.188-0-24.283 0-0.782 0.464-1.247 1.245-1.247 4.039-0 8.078-0 12.117-0 0.484 0 0.858 0.203 1.070 0.639 0.201 0.413 0.167 0.827-0.121 1.197-0.229 0.295-0.542 0.433-0.916 0.433-1.077-0.001-2.154-0-3.231-0-2.521 0-5.043 0-7.564 0h-0.323z"></path>
<path fill="#000" d="M11.032 20.799c0.831-0.355 1.601-0.684 2.322-0.993-0.439-0.448-0.877-0.894-1.317-1.343-0.321 0.747-0.65 1.511-1.004 2.336zM26.922 6.719c0.681-0.674 1.349-1.335 1.988-1.967-0.605-0.613-1.228-1.245-1.826-1.85-0.663 0.658-1.33 1.321-1.988 1.975 0.614 0.619 1.239 1.25 1.825 1.842zM24.005 6.003c-3.695 3.692-7.396 7.391-11.084 11.075 0.603 0.609 1.227 1.24 1.848 1.867 3.692-3.706 7.386-7.412 11.066-11.106-0.608-0.61-1.24-1.244-1.83-1.837zM7.711 22.937c0.053-0.169 0.092-0.345 0.161-0.508 0.858-2.016 1.717-4.031 2.585-6.043 0.075-0.175 0.197-0.341 0.332-0.477 5.131-5.139 10.267-10.275 15.402-15.409 0.541-0.541 1.2-0.537 1.747 0.009 1.126 1.124 2.25 2.25 3.374 3.377 0.556 0.557 0.56 1.21 0.006 1.764-1.286 1.288-2.574 2.573-3.861 3.86-3.837 3.837-7.673 7.676-11.515 11.508-0.168 0.168-0.383 0.309-0.601 0.404-1.966 0.85-3.944 1.675-5.907 2.531-0.98 0.428-1.706-0.297-1.724-1.016z"></path>
<path fill="#fff" d="M24.005 6.003c0.59 0.592 1.222 1.226 1.83 1.836-3.68 3.693-7.374 7.4-11.066 11.106-0.621-0.627-1.245-1.258-1.848-1.867 3.687-3.684 7.389-7.383 11.084-11.075z"></path>
<path fill="#fff" d="M26.922 6.719c-0.586-0.592-1.211-1.222-1.825-1.842 0.658-0.654 1.325-1.317 1.988-1.975 0.597 0.605 1.22 1.237 1.826 1.85-0.639 0.632-1.307 1.293-1.988 1.967z"></path>
<path fill="#fff" d="M11.032 20.799c0.354-0.825 0.683-1.589 1.004-2.336 0.441 0.449 0.878 0.895 1.317 1.343-0.721 0.308-1.491 0.637-2.322 0.993z"></path>
</svg>
