<svg width="24" height="24" xmlns="http://www.w3.org/2000/svg" xmlns:xlink="http://www.w3.org/1999/xlink"><title>Edit_icon</title><defs><path d="M11 6a.5.5 0 110 1H6a2 2 0 00-2 2v9a2 2 0 002 2h9a2 2 0 002-2v-5l.008-.09A.5.5 0 0118 13v-.001V18a3 3 0 01-3 3H6a3 3 0 01-3-3V9a3 3 0 013-3zm7.586-2.707l2.121 2.121a1 1 0 010 1.414l-9.069 9.07a1 1 0 01-.495.27l-2.707.585a1 1 0 01-1.19-1.189l.586-2.707a1 1 0 01.27-.495l9.07-9.07a1 1 0 011.414 0zM15.76 6.118l-6.876 6.876a.5.5 0 00-.12.194l-.019.075-.365 2.127a.2.2 0 00.177.232l.053-.001 2.113-.354a.5.5 0 00.212-.09l.06-.05L17.88 8.24l-2.12-2.12zm1.834-1.822l-.069.057-1.058 1.058 2.121 2.121 1.058-1.057a.5.5 0 00.058-.638l-.058-.07-1.414-1.414a.5.5 0 00-.638-.057z" id="a"/></defs><use fill="#191919" xlink:href="#a" fill-rule="evenodd"/></svg>