<svg width="20" height="20" viewBox="0 0 20 20" fill="none" xmlns="http://www.w3.org/2000/svg">
<path d="M10.6892 10.4065V15H8.78044V10.4081H8.66695C8.58212 10.4081 8.49732 10.408 8.41253 10.408C8.07341 10.4079 7.73442 10.4079 7.39476 10.4091C7.33543 10.4091 7.29881 10.4024 7.29932 10.3271C7.30133 9.83874 7.30115 9.3501 7.30097 8.86163C7.30092 8.72208 7.30087 8.58255 7.30087 8.44305C7.30087 8.43279 7.30236 8.42274 7.30438 8.40909C7.3055 8.40146 7.3068 8.39271 7.30809 8.38217H8.78818C8.78818 8.365 8.78809 8.34895 8.788 8.33368C8.78779 8.29804 8.78761 8.26672 8.7887 8.23566C8.79236 8.12292 8.79268 8.00959 8.79299 7.89622C8.7937 7.64281 8.79441 7.38918 8.83255 7.14146C8.94501 6.41251 9.29994 5.81304 9.91075 5.38021C10.2729 5.1233 10.6768 4.99949 11.1205 5C11.4897 5.00078 11.8588 5.00068 12.2277 5.00058C12.3507 5.00055 12.4736 5.00052 12.5965 5.00052H12.7002V7.02177C12.6892 7.02247 12.6781 7.02328 12.6671 7.02409C12.6372 7.02628 12.6071 7.02848 12.5774 7.02848C12.111 7.02899 11.6452 7.02899 11.1788 7.02899C10.8951 7.02899 10.7145 7.17448 10.6965 7.46079C10.6832 7.66912 10.6861 7.8787 10.6892 8.09267C10.6905 8.18601 10.6918 8.28019 10.6918 8.37547H12.7007V10.4065H10.6892Z" fill="black"/>
<path fill-rule="evenodd" clip-rule="evenodd" d="M20 10C20 15.5228 15.5228 20 10 20C4.47715 20 0 15.5228 0 10C0 4.47715 4.47715 0 10 0C15.5228 0 20 4.47715 20 10ZM19 10C19 14.9706 14.9706 19 10 19C5.02944 19 1 14.9706 1 10C1 5.02944 5.02944 1 10 1C14.9706 1 19 5.02944 19 10Z" fill="black"/>
</svg>
