<!-- Generated by IcoMoon.io -->
<svg version="1.1" xmlns="http://www.w3.org/2000/svg" width="32" height="32" viewBox="0 0 32 32">
<title>facebook</title>
<path d="M16 4.4c-6.396 0-11.6 5.204-11.6 11.6s5.204 11.6 11.6 11.6c6.396 0 11.6-5.204 11.6-11.6s-5.204-11.6-11.6-11.6zM16 29.2c-7.278 0-13.2-5.922-13.2-13.2s5.922-13.2 13.2-13.2c7.278 0 13.2 5.922 13.2 13.2s-5.922 13.2-13.2 13.2z"></path>
<path d="M17.069 23.754v-7.123h3.119v-3.15h-3.115c0-0.486-0.022-0.954 0.007-1.418 0.028-0.444 0.308-0.67 0.748-0.67 0.723 0 1.446 0 2.169-0.001 0.063 0 0.127-0.006 0.19-0.010v-3.134h-0.161c-0.762 0-1.526 0.001-2.289-0.001-0.688-0.001-1.314 0.191-1.876 0.59-0.947 0.671-1.498 1.601-1.672 2.731-0.086 0.556-0.050 1.131-0.068 1.697-0.002 0.069-0.001 0.138-0.001 0.227h-2.295c-0.006 0.046-0.011 0.070-0.011 0.094 0 0.974 0.002 1.948-0.002 2.922-0.001 0.117 0.056 0.127 0.148 0.127 0.658-0.002 1.315-0.002 1.973-0.002h0.176v7.121h2.96z"></path>
</svg>
