<svg width="24" height="24" xmlns="http://www.w3.org/2000/svg" xmlns:xlink="http://www.w3.org/1999/xlink"><defs><path d="M19 4c1.6568542 0 3 1.34314575 3 3v10c0 1.6568542-1.3431458 3-3 3H5c-1.65685425 0-3-1.3431458-3-3V7c0-1.65685425 1.34314575-3 3-3h14zm-8.585 8l1.9385534 1.9393398c.1735663.1735664.1928515.4429908.0578554.6378589l-.0578554.0692479c-.1735664.1735664-.4429908.1928515-.6378589.0578555l-.0692479-.0578555L9 12h-.001l-2.64544661 2.6464466c-.19526215.1952622-.51184463.1952622-.70710678 0-.19526215-.1952621-.19526215-.5118446 0-.7071068L7.584 12H3v5c0 1.0543618.81587779 1.9181651 1.85073766 1.9945143L5 19h14c1.0543618 0 1.9181651-.8158778 1.9945143-1.8507377L21 17v-5H10.415zm8.085 4c.2761424 0 .5.2238576.5.5s-.2238576.5-.5.5h-3c-.2761424 0-.5-.2238576-.5-.5s.2238576-.5.5-.5h3zM19 5H5c-1.0543618 0-1.91816512.81587779-1.99451426 1.85073766L3 7v4l2.00054687.0009713C4.6862608 10.5829748 4.5 10.0632392 4.5 9.5 4.5 8.11928813 5.61928813 7 7 7c.81838558 0 1.54492631.39323459 2.00098025 1.00106187C9.45507369 7.39323459 10.1816144 7 11 7c1.3807119 0 2.5 1.11928813 2.5 2.5 0 .5632392-.1862608 1.0829748-.5005469 1.5009713L21 11V7c0-1.1045695-.8954305-2-2-2zM7 8c-.82842712 0-1.5.67157288-1.5 1.5 0 .7796961.59488808 1.4204487 1.35553999 1.4931334L7 11h1.5V9.5l-.00686658-.14446001C8.42044868 8.59488808 7.77969612 8 7 8zm4 0c-.7796961 0-1.42044868.59488808-1.49313342 1.35553999L9.5 9.5V11H11c.8284271 0 1.5-.6715729 1.5-1.5 0-.82842712-.6715729-1.5-1.5-1.5z" id="a"/></defs><use fill="#191919" xlink:href="#a" fill-rule="evenodd"/></svg>