<!-- Generated by IcoMoon.io -->
<svg version="1.1" xmlns="http://www.w3.org/2000/svg" width="32" height="32" viewBox="0 0 32 32">
<title>giftcard</title>
<path fill="#000" d="M31.596 11.445c0.477 0.253 0.469 0.94-0.013 1.183l-15.285 7.677c-0.187 0.094-0.408 0.094-0.596-0l-15.279-7.677c-0.483-0.242-0.49-0.93-0.013-1.183l15.279-8.111c0.195-0.103 0.428-0.103 0.622-0l15.285 8.111zM16 4.676l-13.829 7.341 13.829 6.949 13.835-6.949-13.835-7.341z"></path>
<path fill="#fff" d="M6.693 6.767h18.824v13.43h-18.824v-13.43z"></path>
<path fill="#000" d="M24.714 6.348c0.905 0 1.633 0.722 1.639 1.609v10.841c0 0.887-0.734 1.609-1.633 1.609h-17.441c-0.898 0-1.633-0.722-1.633-1.609v-10.841c0-0.887 0.734-1.609 1.633-1.609h17.434zM25.098 8.156c0-0.418-0.361-0.759-0.813-0.759h-11.108v3.777c0.046-0.025 0.079-0.038 0.105-0.057 0.184-0.139 0.361-0.285 0.551-0.418 0.393-0.278 0.813-0.512 1.292-0.626 0.164-0.038 0.334-0.051 0.498-0.051 0.111 0 0.157 0.057 0.184 0.165 0.072 0.316 0.19 0.62 0.348 0.911 0.026 0.044 0.052 0.057 0.105 0.057h8.84v-2.999zM7.894 7.397c-0.433 0-0.783 0.345-0.783 0.753v3.024h1.725c0.019 0 0.051-0.032 0.057-0.057 0.064-0.191 0.089-0.466 0.159-0.657 0.083-0.223 0.165-0.268 0.414-0.255 0.045 0.006 0.089 0.006 0.134 0.019 0.592 0.14 1.19 0.281 1.693 0.632 0.083 0.057 0.172 0.121 0.261 0.172 0.045 0.026 0.095 0.038 0.159 0.057v-3.688h-3.819zM7.111 18.564c0 0.436 0.35 0.793 0.788 0.793h3.813v-6.148c-0.025 0.026-0.038 0.040-0.051 0.053-0.28 0.297-0.553 0.608-0.845 0.906-0.407 0.41-0.82 0.806-1.227 1.216-0.121 0.119-0.21 0.264-0.318 0.397-0.013 0.020-0.032 0.020-0.064 0.040 0.006-0.126 0.013-0.225 0.013-0.331 0.006-0.575 0.032-1.236-0.051-1.805-0.013-0.086-0.006-0.159 0.057-0.218 0.184-0.178 0.273-0.271 0.451-0.45 0.051-0.046 0.095-0.099 0.153-0.165h-2.72v5.712zM24.291 19.357c0.446 0 0.807-0.357 0.807-0.787v-5.717h-9.948c0.033 0.026 0.059 0.046 0.079 0.066 0.203 0.199 0.577 0.576 0.787 0.774 0.052 0.046 0.066 0.099 0.059 0.172-0.052 0.675-0.105 1.343-0.157 2.018 0 0.026-0.007 0.046-0.013 0.086-0.026-0.033-0.046-0.046-0.059-0.066-0.269-0.304-0.702-0.794-0.977-1.092-0.269-0.291-0.571-0.562-0.839-0.854-0.295-0.318-0.564-0.642-0.852-0.973v6.373h11.115z"></path>
<path fill="#000" d="M31.039 12.776l-14.778 6.952c-0.101 0.048-0.218 0.048-0.319-0l-14.771-6.952v14.848h29.868v-14.848zM16.261 19.048l-0.319-0 0.16-0.080 0.159 0.080zM31.255 11.839c0.249-0.117 0.536 0.066 0.536 0.342v15.82c0 0.209-0.168 0.378-0.376 0.378h-30.62c-0.208 0-0.376-0.169-0.376-0.378v-15.82c0-0.277 0.286-0.46 0.536-0.342l15.147 7.129 15.154-7.129z"></path>
<path fill="#fff" d="M31.373 27.751h-30.536v-15.738l15.265 7.547 15.271-7.547z"></path>
<path fill="#000" d="M30.675 13.322l-14.281 7.044c-0.185 0.091-0.401 0.091-0.586-0l-14.275-7.043v13.942h29.142v-13.942zM31.045 11.663c0.44-0.217 0.955 0.103 0.955 0.594v15.671c0 0.366-0.297 0.663-0.662 0.663h-30.466c-0.366 0-0.662-0.297-0.662-0.663v-15.671c0-0.491 0.515-0.812 0.955-0.594l14.937 7.37 14.944-7.37z"></path>
<path fill="#000" d="M30.927 28.448l-12.657-9.337c-0.717-0.529 0.074-1.609 0.791-1.080l12.657 9.338c0.717 0.529-0.074 1.609-0.791 1.080z"></path>
<path fill="#000" d="M0.489 27.379l12.669-9.349c0.711-0.525 1.496 0.546 0.784 1.070l-12.669 9.349c-0.711 0.525-1.496-0.546-0.784-1.070z"></path>
</svg>
