<!-- Generated by IcoMoon.io -->
<svg version="1.1" xmlns="http://www.w3.org/2000/svg" width="32" height="32" viewBox="0 0 32 32">
<title>google</title>
<path fill="#040000" d="M16 27.6c-6.396 0-11.6-5.204-11.6-11.6s5.204-11.6 11.6-11.6c6.396 0 11.6 5.204 11.6 11.6s-5.204 11.6-11.6 11.6zM16 2.8c-7.278 0-13.2 5.922-13.2 13.2s5.922 13.2 13.2 13.2c7.278 0 13.2-5.922 13.2-13.2s-5.922-13.2-13.2-13.2z"></path>
<path fill="#000" d="M18.75 15.133c0.067 0.357 0.103 0.73 0.103 1.12 0 3.047-2.040 5.213-5.12 5.213-2.947 0-5.333-2.387-5.333-5.333s2.387-5.333 5.333-5.333c1.44 0 2.643 0.53 3.567 1.39l-1.504 1.503v-0.003c-0.56-0.533-1.27-0.807-2.063-0.807-1.76 0-3.19 1.487-3.19 3.247s1.43 3.25 3.19 3.25c1.597 0 2.683-0.913 2.907-2.167h-2.907v-2.080h5.017zM22.733 15.467v-1.667h-1.333v1.667h-1.667v1.333h1.667v1.667h1.333v-1.667h1.667v-1.333h-1.667z"></path>
</svg>
