<!-- Generated by IcoMoon.io -->
<svg version="1.1" xmlns="http://www.w3.org/2000/svg" width="32" height="32" viewBox="0 0 32 32">
<title>heart_empty_bg</title>
<path fill="#fff" opacity="0.8" d="M31.496 15.748c0 8.697-7.051 15.748-15.748 15.748s-15.748-7.051-15.748-15.748c0-8.697 7.051-15.748 15.748-15.748s15.748 7.051 15.748 15.748z"></path>
<path fill="#d50032" d="M23.859 10.012c-0.892-0.865-2.063-1.297-3.289-1.297s-2.397 0.486-3.289 1.297l-1.505 1.405-1.505-1.459c-0.892-0.865-2.063-1.297-3.289-1.297s-2.397 0.486-3.289 1.297c-0.892 0.865-1.394 1.999-1.394 3.242 0 1.189 0.502 2.324 1.338 3.188l8.139 7.835 8.083-7.835c0.892-0.865 1.338-1.999 1.338-3.188s-0.446-2.378-1.338-3.188v0zM23.078 15.632l-7.303 7.079-7.303-7.079c-0.669-0.648-1.059-1.513-1.059-2.432s0.39-1.783 1.059-2.432c0.669-0.648 1.561-1.027 2.509-1.027s1.84 0.378 2.509 1.027l2.286 2.216 2.286-2.216c0.669-0.648 1.561-1.027 2.509-1.027s1.84 0.378 2.509 1.027c0.669 0.648 1.059 1.513 1.059 2.432s-0.39 1.783-1.059 2.432v0z"></path>
</svg>
