<!-- Generated by IcoMoon.io -->
<svg version="1.1" xmlns="http://www.w3.org/2000/svg" width="32" height="32" viewBox="0 0 32 32">
<title>heart_fill_bg</title>
<path fill="#fff" opacity="0.8" d="M32 16c0 8.837-7.163 16-16 16s-16-7.163-16-16c0-8.837 7.163-16 16-16s16 7.163 16 16z"></path>
<path fill="#d50032" d="M24.241 10.173c-0.906-0.878-2.096-1.318-3.342-1.318s-2.435 0.494-3.342 1.318l-1.529 1.427-1.529-1.482c-0.906-0.878-2.096-1.318-3.342-1.318s-2.435 0.494-3.342 1.318c-0.906 0.878-1.416 2.031-1.416 3.294 0 1.208 0.51 2.361 1.359 3.239l8.269 7.961 8.212-7.961c0.906-0.878 1.359-2.031 1.359-3.239s-0.453-2.416-1.359-3.239v0z"></path>
</svg>
