<!-- Generated by IcoMoon.io -->
<svg version="1.1" xmlns="http://www.w3.org/2000/svg" width="32" height="32" viewBox="0 0 32 32">
<title>heart_empty</title>
<path d="M26.748 14.588l-10.786 10.786-10.785-10.787c-0.987-0.985-1.531-2.301-1.531-3.706s0.544-2.722 1.531-3.708c0.985-0.985 2.301-1.527 3.705-1.527s2.719 0.542 3.704 1.527l3.376 3.376 3.376-3.376c0.985-0.985 2.301-1.527 3.706-1.527 1.403 0 2.719 0.542 3.704 1.527s1.528 2.302 1.528 3.708c0 1.405-0.542 2.722-1.528 3.707zM27.913 6.010c-1.296-1.296-3.026-2.009-4.869-2.009-1.845 0-3.574 0.713-4.871 2.009l-2.21 2.211-2.211-2.211c-1.295-1.296-3.025-2.009-4.869-2.009s-3.573 0.713-4.869 2.009c-1.3 1.296-2.014 3.026-2.014 4.873s0.716 3.576 2.014 4.871l11.949 11.95 11.95-11.95c1.296-1.296 2.010-3.026 2.010-4.871s-0.714-3.576-2.010-4.872z"></path>
</svg>
