<!-- Generated by IcoMoon.io -->
<svg version="1.1" xmlns="http://www.w3.org/2000/svg" width="32" height="32" viewBox="0 0 32 32">
<title>help</title>
<path d="M16 26.222c-5.636 0-10.222-4.586-10.222-10.222s4.586-10.222 10.222-10.222c5.636 0 10.222 4.586 10.222 10.222s-4.586 10.222-10.222 10.222zM16 4c-6.617 0-12 5.383-12 12s5.383 12 12 12c6.617 0 12-5.383 12-12s-5.383-12-12-12z"></path>
<path d="M14.082 22.127c0-0.941 0.564-1.61 1.631-1.61 0.962 0 1.548 0.668 1.548 1.61s-0.565 1.589-1.631 1.589c-0.983 0-1.548-0.648-1.548-1.589v0zM14.459 18.719c0-1.861 0.753-2.781 1.443-3.639 0.564-0.691 1.087-1.317 1.087-2.384 0-1.484-1.067-2.196-3.262-2.196l0.084-2.217c4.077 0 5.898 1.255 5.898 3.848 0 3.366-3.075 3.91-3.075 6.503l-2.174 0.084z"></path>
</svg>
