<?xml version="1.0" encoding="UTF-8"?>
<svg xmlns="http://www.w3.org/2000/svg" xmlns:xlink="http://www.w3.org/1999/xlink" viewBox="0 0 48 48" width="48px" height="48px">
<g id="surface23001310">
<path style=" stroke:none;fill-rule:nonzero;fill:rgb(58.431375%,64.705884%,65.098041%);fill-opacity:1;" d="M 24 4 C 12.953125 4 4 12.953125 4 24 C 4 35.046875 12.953125 44 24 44 C 35.046875 44 44 35.046875 44 24 C 44 12.953125 35.046875 4 24 4 Z M 24 34 C 22.894531 34 22 33.105469 22 32 L 22 24 C 22 22.894531 22.894531 22 24 22 C 25.105469 22 26 22.894531 26 24 L 26 32 C 26 33.105469 25.105469 34 24 34 Z M 25 18 L 23 18 C 22.449219 18 22 17.550781 22 17 L 22 15 C 22 14.449219 22.449219 14 23 14 L 25 14 C 25.550781 14 26 14.449219 26 15 L 26 17 C 26 17.550781 25.550781 18 25 18 Z M 25 18 "/>
</g>
</svg>
