<!-- Generated by IcoMoon.io -->
<svg version="1.1" xmlns="http://www.w3.org/2000/svg" width="32" height="32" viewBox="0 0 32 32">
<title>instagram</title>
<path fill="#040000" d="M16 27.6c-6.396 0-11.6-5.204-11.6-11.6s5.204-11.6 11.6-11.6c6.396 0 11.6 5.204 11.6 11.6s-5.204 11.6-11.6 11.6zM16 2.8c-7.278 0-13.2 5.922-13.2 13.2s5.922 13.2 13.2 13.2c7.278 0 13.2-5.922 13.2-13.2s-5.922-13.2-13.2-13.2z"></path>
<path fill="#000" d="M22.197 16.023c-0.007-0-0.015-0-0.022-0 0-0.636 0.017-1.272-0.005-1.908-0.022-0.65-0.044-1.305-0.133-1.948-0.159-1.14-0.939-1.937-2.064-2.189-0.691-0.155-1.395-0.147-2.094-0.156-1.272-0.018-2.544-0.019-3.815 0.001-0.645 0.010-1.296 0.033-1.931 0.133-1.129 0.178-1.871 0.832-2.174 1.955-0.163 0.605-0.164 1.225-0.175 1.842-0.019 1.045-0.028 2.090-0.015 3.135 0.012 0.922 0.018 1.848 0.106 2.764 0.12 1.249 0.841 2.124 2.104 2.41 0.69 0.156 1.395 0.145 2.094 0.155 1.266 0.018 2.533 0.019 3.799-0.001 0.65-0.010 1.307-0.033 1.947-0.134 1.091-0.172 1.841-0.797 2.14-1.883 0.097-0.353 0.15-0.726 0.165-1.092 0.041-1.027 0.051-2.055 0.073-3.083zM15.986 8.433c1.028 0.018 2.056 0.024 3.084 0.057 0.962 0.030 1.887 0.222 2.692 0.791 0.939 0.664 1.458 1.59 1.645 2.712 0.137 0.821 0.132 1.651 0.135 2.48 0.004 1.31 0.009 2.621-0.011 3.931-0.012 0.804-0.037 1.612-0.311 2.386-0.515 1.456-1.549 2.312-3.041 2.628-0.881 0.187-1.78 0.166-2.674 0.17-1.305 0.006-2.61 0.009-3.915-0.011-0.804-0.012-1.612-0.038-2.386-0.311-1.456-0.515-2.311-1.55-2.628-3.042-0.187-0.881-0.166-1.78-0.17-2.674-0.006-1.305-0.010-2.61 0.011-3.915 0.013-0.804 0.037-1.612 0.311-2.386 0.515-1.455 1.549-2.311 3.041-2.627 0.881-0.187 1.78-0.159 2.674-0.171 0.514-0.006 1.029-0.001 1.543-0.001 0-0.005 0-0.011 0-0.016z"></path>
<path fill="#000" d="M15.982 13.496c-1.384-0.003-2.525 1.127-2.532 2.509-0.007 1.388 1.133 2.536 2.522 2.537 1.382 0.001 2.521-1.136 2.524-2.518s-1.134-2.525-2.514-2.528zM15.974 19.906c-2.173 0-3.883-1.724-3.889-3.91-0.006-2.125 1.769-3.884 3.919-3.868 2.114 0.016 3.881 1.771 3.859 3.932-0.022 2.121-1.748 3.846-3.889 3.847z"></path>
<path fill="#000" d="M20.015 11.071c0.517 0 0.907 0.392 0.905 0.912-0.001 0.5-0.405 0.909-0.9 0.912-0.499 0.003-0.921-0.415-0.924-0.913-0.002-0.501 0.41-0.91 0.918-0.91z"></path>
</svg>
