<svg width="20" height="20" viewBox="0 0 20 20" fill="none" xmlns="http://www.w3.org/2000/svg">
<path fill-rule="evenodd" clip-rule="evenodd" d="M7.59603 10.0206C7.59966 11.3785 8.66344 12.45 10.0154 12.45C11.3477 12.4499 12.4213 11.378 12.4349 10.0599C12.4488 8.71731 11.3495 7.62685 10.0341 7.61704C8.69646 7.60708 7.59248 8.70045 7.59603 10.0206ZM8.44495 10.0266C8.44958 9.16785 9.15949 8.46526 10.0203 8.4674C10.8789 8.46955 11.5858 9.17979 11.584 10.0383C11.5822 10.8971 10.8733 11.6033 10.0137 11.6028C9.15 11.6023 8.44031 10.8892 8.44495 10.0266Z" fill="black"/>
<path d="M12.6294 6.87421C12.951 6.87423 13.1933 7.1179 13.1926 7.44062C13.1919 7.75106 12.9408 8.00519 12.6329 8.00715C12.3227 8.00911 12.0597 7.74945 12.0583 7.43973C12.0568 7.12819 12.3133 6.87419 12.6294 6.87421Z" fill="black"/>
<path fill-rule="evenodd" clip-rule="evenodd" d="M5 8C5 6.34315 6.34315 5 8 5H12C13.6569 5 15 6.34315 15 8V12C15 13.6569 13.6569 15 12 15H8C6.34315 15 5 13.6569 5 12V8ZM6 8C6 6.89543 6.89543 6 8 6H12C13.1046 6 14 6.89543 14 8V12C14 13.1046 13.1046 14 12 14H8C6.89543 14 6 13.1046 6 12V8Z" fill="black"/>
<path fill-rule="evenodd" clip-rule="evenodd" d="M20 10C20 15.5228 15.5228 20 10 20C4.47715 20 0 15.5228 0 10C0 4.47715 4.47715 0 10 0C15.5228 0 20 4.47715 20 10ZM19 10C19 14.9706 14.9706 19 10 19C5.02944 19 1 14.9706 1 10C1 5.02944 5.02944 1 10 1C14.9706 1 19 5.02944 19 10Z" fill="black"/>
</svg>
