<svg width="32" height="32" viewBox="2 2 28 28" fill="none" xmlns="http://www.w3.org/2000/svg">
  <g fill="#000" fill-rule="nonzero"><path d="M16 4.4C9.604 4.4 4.4 9.604 4.4 16S9.604 27.6 16 27.6 27.6 22.396 27.6 16 22.396 4.4 16 4.4zm0 24.8C8.722 29.2 2.8 23.278 2.8 16S8.722 2.8 16 2.8 29.2 8.722 29.2 16 23.278 29.2 16 29.2z"/><path d="M16 9c-4.419 0-8 2.883-8 6.438 0 2.26 1.448 4.248 3.638 5.396L11.033 24l3.46-2.24c.488.076.991.116 1.507.116 4.418 0 8-2.882 8-6.438C24 11.883 20.418 9 16 9z"/></g>
</svg>
