<?xml version="1.0" encoding="UTF-8"?>
<svg width="28px" height="28px" viewBox="0 0 28 28" version="1.1" xmlns="http://www.w3.org/2000/svg" xmlns:xlink="http://www.w3.org/1999/xlink">
    <!-- Generator: Sketch 55.2 (78181) - https://sketchapp.com -->
    <title>facebook</title>
    <desc>Created with Sketch.</desc>
    <g id="Icons" stroke="none" stroke-width="1" fill="none" fill-rule="evenodd">
        <g id="SVG" transform="translate(-947.000000, -731.000000)" fill="#000000" fill-rule="nonzero">
            <g id="facebook" transform="translate(947.000000, 731.000000)">
                <path d="M14,2.4 C7.604,2.4 2.4,7.604 2.4,14 C2.4,20.396 7.604,25.6 14,25.6 C20.396,25.6 25.6,20.396 25.6,14 C25.6,7.604 20.396,2.4 14,2.4 Z M14,27.2 C6.722,27.2 0.8,21.278 0.8,14 C0.8,6.722 6.722,0.8 14,0.8 C21.278,0.8 27.2,6.722 27.2,14 C27.2,21.278 21.278,27.2 14,27.2 Z" id="Shape"></path>
                <path d="M13.9997953,7 C9.5812075,7 6,9.88260405 6,13.4380363 C6,15.6984526 7.44814022,17.6855292 9.63797773,18.8341557 L9.03338354,22 L12.493094,19.7605999 C12.98118,19.8357721 13.4843859,19.8762277 13.9997953,19.8762277 C18.4181274,19.8762277 22,16.9936236 22,13.4380105 C22,9.88260405 18.4181274,7 13.9997953,7 Z" id="kakaoLogo"></path>
            </g>
        </g>
    </g>
</svg>