<svg width="30" height="30" xmlns="http://www.w3.org/2000/svg"><g fill="none" fill-rule="evenodd"><path d="M0 0h30v30H0z"/><g fill="#000"><path d="M15 .857C7.2.857.857 7.2.857 15 .857 22.8 7.2 29.143 15 29.143c7.8 0 14.143-6.343 14.143-14.143C29.143 7.2 22.8.857 15 .857zm0 26.572C8.143 27.429 2.571 21.857 2.571 15S8.143 2.571 15 2.571 27.429 8.143 27.429 15 21.857 27.429 15 27.429z"/><path d="M15 8c-4.419 0-8 2.883-8 6.438 0 2.26 1.448 4.248 3.638 5.396L10.033 23l3.46-2.24c.488.076.991.116 1.507.116 4.418 0 8-2.882 8-6.438C23 10.883 19.418 8 15 8z" fill-rule="nonzero"/></g></g></svg>