<svg width="29" height="29" xmlns="http://www.w3.org/2000/svg"><g fill="#000" fill-rule="evenodd"><path d="M14.143 0C6.343 0 0 6.343 0 14.143c0 7.8 6.343 14.143 14.143 14.143 7.8 0 14.143-6.343 14.143-14.143C28.286 6.343 21.943 0 14.143 0zm0 26.571C7.286 26.571 1.714 21 1.714 14.143c0-6.857 5.572-12.429 12.429-12.429S26.57 7.286 26.57 14.143 21 26.57 14.143 26.57z"/><path d="M14 7C9.58 7 6 9.69 6 13.009c0 2.11 1.448 3.964 3.638 5.036L9.033 21l3.46-2.09c.488.07.991.108 1.507.108 4.418 0 8-2.69 8-6.01C22 9.69 18.418 7 14 7z" fill-rule="nonzero"/></g></svg>