<svg width="20" height="20" viewBox="0 0 20 20" fill="none" xmlns="http://www.w3.org/2000/svg">
<path d="M9.23042 10.3024L8.94229 9.48392L8.65417 10.3024H9.23042Z" fill="black"/>
<path fill-rule="evenodd" clip-rule="evenodd" d="M10 6C7.23856 6 5 7.76505 5 9.94231C5 11.35 5.93587 12.5851 7.34365 13.2825C7.26707 13.5467 6.85149 14.9818 6.83495 15.0945C6.83495 15.0945 6.825 15.1792 6.87986 15.2115C6.93471 15.2438 6.99923 15.2188 6.99923 15.2188C7.15654 15.1968 8.82341 14.0259 9.11192 13.8226C9.40014 13.8634 9.69692 13.8846 10 13.8846C12.7614 13.8846 15 12.1196 15 9.94231C15 7.76505 12.7614 6 10 6ZM7.23556 11.3185C7.07648 11.3185 6.9471 11.1949 6.9471 11.043V9.32931H6.49701C6.3409 9.32931 6.21393 9.20258 6.21393 9.04686C6.21393 8.89114 6.34095 8.7644 6.49701 8.7644H7.97412C8.13023 8.7644 8.2572 8.89114 8.2572 9.04686C8.2572 9.20258 8.13018 9.32931 7.97412 9.32931H7.52402V11.043C7.52402 11.1949 7.39465 11.3185 7.23556 11.3185ZM9.76499 11.3147C9.6447 11.3147 9.55268 11.2659 9.52494 11.1873L9.3821 10.8134L8.50249 10.8133L8.35955 11.1875C8.33191 11.2659 8.23994 11.3147 8.11965 11.3147C8.05638 11.3148 7.99383 11.3012 7.93628 11.2749C7.85676 11.2382 7.78032 11.1374 7.86792 10.8653L8.55792 9.04916C8.60652 8.91104 8.75417 8.76873 8.94205 8.76445C9.13047 8.76868 9.27811 8.91104 9.32681 9.04945L10.0165 10.8648C10.1043 11.1375 10.0279 11.2384 9.94835 11.275C9.89079 11.3012 9.82825 11.3148 9.76499 11.3147ZM10.4808 11.2764C10.3283 11.2764 10.2043 11.1578 10.2043 11.012V9.05287C10.2043 8.89378 10.3364 8.7644 10.4988 8.7644C10.6611 8.7644 10.7933 8.89378 10.7933 9.05287V10.7476H11.4062C11.5587 10.7476 11.6827 10.8662 11.6827 11.012C11.6827 11.1578 11.5587 11.2764 11.4062 11.2764H10.4808ZM12.0834 11.3147C11.9243 11.3147 11.7949 11.1854 11.7949 11.0263V9.05287C11.7949 8.89378 11.9243 8.7644 12.0834 8.7644C12.2424 8.7644 12.3718 8.89378 12.3718 9.05287V9.67287L13.1766 8.86806C13.218 8.82666 13.2749 8.80387 13.3366 8.80387C13.4086 8.80387 13.4809 8.83493 13.5351 8.88907C13.5857 8.93955 13.6158 9.0045 13.6199 9.07195C13.6241 9.13998 13.6015 9.20234 13.5563 9.24758L12.8989 9.90484L13.609 10.8455C13.6319 10.8757 13.6486 10.9101 13.6581 10.9468C13.6676 10.9835 13.6697 11.0217 13.6644 11.0592C13.6592 11.0967 13.6467 11.1329 13.6275 11.1655C13.6083 11.1982 13.5828 11.2267 13.5524 11.2495C13.5026 11.2874 13.4416 11.3078 13.3789 11.3077C13.3342 11.3079 13.2901 11.2976 13.2501 11.2777C13.2101 11.2578 13.1753 11.2288 13.1485 11.193L12.472 10.2967L12.3719 10.3968V11.0261C12.3718 11.1026 12.3414 11.176 12.2873 11.2301C12.2332 11.2842 12.1599 11.3146 12.0834 11.3147Z" fill="black"/>
<path fill-rule="evenodd" clip-rule="evenodd" d="M20 10C20 15.5228 15.5228 20 10 20C4.47715 20 0 15.5228 0 10C0 4.47715 4.47715 0 10 0C15.5228 0 20 4.47715 20 10ZM19 10C19 14.9706 14.9706 19 10 19C5.02944 19 1 14.9706 1 10C1 5.02944 5.02944 1 10 1C14.9706 1 19 5.02944 19 10Z" fill="black"/>
<path d="M9.23042 50.3024L8.94229 49.4839L8.65417 50.3024H9.23042Z" fill="white"/>
<path fill-rule="evenodd" clip-rule="evenodd" d="M10 46C7.23856 46 5 47.765 5 49.9423C5 51.35 5.93587 52.5851 7.34365 53.2825C7.26707 53.5467 6.85149 54.9818 6.83495 55.0945C6.83495 55.0945 6.825 55.1792 6.87986 55.2115C6.93471 55.2438 6.99923 55.2188 6.99923 55.2188C7.15654 55.1968 8.82341 54.0259 9.11192 53.8226C9.40014 53.8634 9.69692 53.8846 10 53.8846C12.7614 53.8846 15 52.1196 15 49.9423C15 47.765 12.7614 46 10 46ZM7.23556 51.3185C7.07648 51.3185 6.9471 51.1949 6.9471 51.043V49.3293H6.49701C6.3409 49.3293 6.21393 49.2026 6.21393 49.0469C6.21393 48.8911 6.34095 48.7644 6.49701 48.7644H7.97412C8.13023 48.7644 8.2572 48.8911 8.2572 49.0469C8.2572 49.2026 8.13018 49.3293 7.97412 49.3293H7.52402V51.043C7.52402 51.1949 7.39465 51.3185 7.23556 51.3185ZM9.76499 51.3147C9.6447 51.3147 9.55268 51.2659 9.52494 51.1873L9.3821 50.8134L8.50249 50.8133L8.35955 51.1875C8.33191 51.2659 8.23994 51.3147 8.11965 51.3147C8.05638 51.3148 7.99383 51.3012 7.93628 51.2749C7.85676 51.2382 7.78032 51.1374 7.86792 50.8653L8.55792 49.0492C8.60652 48.911 8.75417 48.7687 8.94205 48.7645C9.13047 48.7687 9.27811 48.911 9.32681 49.0495L10.0165 50.8648C10.1043 51.1375 10.0279 51.2384 9.94835 51.275C9.89079 51.3012 9.82825 51.3148 9.76499 51.3147ZM10.4808 51.2764C10.3283 51.2764 10.2043 51.1578 10.2043 51.012V49.0529C10.2043 48.8938 10.3364 48.7644 10.4988 48.7644C10.6611 48.7644 10.7933 48.8938 10.7933 49.0529V50.7476H11.4062C11.5587 50.7476 11.6827 50.8662 11.6827 51.012C11.6827 51.1578 11.5587 51.2764 11.4062 51.2764H10.4808ZM12.0834 51.3147C11.9243 51.3147 11.7949 51.1854 11.7949 51.0263V49.0529C11.7949 48.8938 11.9243 48.7644 12.0834 48.7644C12.2424 48.7644 12.3718 48.8938 12.3718 49.0529V49.6729L13.1766 48.8681C13.218 48.8267 13.2749 48.8039 13.3366 48.8039C13.4086 48.8039 13.4809 48.8349 13.5351 48.8891C13.5857 48.9395 13.6158 49.0045 13.6199 49.072C13.6241 49.14 13.6015 49.2023 13.5563 49.2476L12.8989 49.9048L13.609 50.8455C13.6319 50.8757 13.6486 50.9101 13.6581 50.9468C13.6676 50.9835 13.6697 51.0217 13.6644 51.0592C13.6592 51.0967 13.6467 51.1329 13.6275 51.1655C13.6083 51.1982 13.5828 51.2267 13.5524 51.2495C13.5026 51.2874 13.4416 51.3078 13.3789 51.3077C13.3342 51.3079 13.2901 51.2976 13.2501 51.2777C13.2101 51.2578 13.1753 51.2288 13.1485 51.193L12.472 50.2967L12.3719 50.3968V51.0261C12.3718 51.1026 12.3414 51.176 12.2873 51.2301C12.2332 51.2842 12.1599 51.3146 12.0834 51.3147Z" fill="white"/>
<path fill-rule="evenodd" clip-rule="evenodd" d="M20 50C20 55.5228 15.5228 60 10 60C4.47715 60 0 55.5228 0 50C0 44.4772 4.47715 40 10 40C15.5228 40 20 44.4772 20 50ZM19 50C19 54.9706 14.9706 59 10 59C5.02944 59 1 54.9706 1 50C1 45.0294 5.02944 41 10 41C14.9706 41 19 45.0294 19 50Z" fill="white"/>
</svg>
