<svg width="20" height="20" viewBox="0 0 20 20" fill="none" xmlns="http://www.w3.org/2000/svg">
<circle cx="10" cy="10" r="9.5" stroke="black"/>
<path d="M14.9767 8.85997L14.9737 8.83362C14.9737 8.83317 14.9737 8.83282 14.9736 8.83237C14.9736 8.83199 14.9735 8.83164 14.9735 8.83126L14.9619 8.73228C14.9595 8.7124 14.9569 8.68975 14.9538 8.66392L14.9514 8.64334L14.9464 8.64397C14.8245 7.93153 14.4894 7.25543 13.9704 6.67814C13.4539 6.10361 12.7828 5.64999 12.0297 5.36631C11.3845 5.12326 10.6998 5 9.99491 5C9.04323 5 8.11896 5.22986 7.32207 5.66471C5.78539 6.50321 4.8791 8.04444 5.01305 9.59121C5.08238 10.3916 5.38772 11.1535 5.89607 11.7946C6.37454 12.398 7.0218 12.8849 7.76783 13.2028C8.22654 13.3982 8.68009 13.4902 9.16031 13.5877L9.21653 13.5992C9.34876 13.626 9.38431 13.663 9.39348 13.6776C9.41044 13.7047 9.40157 13.7582 9.39476 13.7877C9.38849 13.8149 9.38201 13.842 9.37554 13.8692C9.32398 14.0851 9.27066 14.3084 9.31254 14.5546C9.3607 14.8376 9.53279 15 9.78471 15C10.0557 15 10.3641 14.8133 10.5682 14.6898L10.5955 14.6734C11.0823 14.3798 11.5409 14.0486 11.8861 13.7928C12.6414 13.2332 13.4975 12.5989 14.1393 11.7782C14.7857 10.9517 15.0901 9.88964 14.9767 8.85997ZM8.11414 10.4259H7.25142C7.12105 10.4259 7.01536 10.3173 7.01536 10.1834V8.32379C7.01536 8.1899 7.12105 8.08136 7.25142 8.08136C7.3818 8.08136 7.48749 8.1899 7.48749 8.32379V9.941H8.11411C8.24448 9.941 8.35017 10.0495 8.35017 10.1834C8.35021 10.3173 8.24452 10.4259 8.11414 10.4259ZM9.01412 10.1769C9.01412 10.3107 8.90843 10.4193 8.77806 10.4193C8.64768 10.4193 8.54199 10.3107 8.54199 10.1769V8.31721C8.54199 8.18332 8.64768 8.07478 8.77806 8.07478C8.90843 8.07478 9.01412 8.18332 9.01412 8.31721V10.1769ZM11.148 10.1769C11.148 10.2819 11.0821 10.375 10.9848 10.4074C10.9608 10.4154 10.9362 10.4193 10.9119 10.4193C10.8378 10.4193 10.7661 10.3833 10.7208 10.3193L9.87077 9.11695V10.1769C9.87077 10.3108 9.76508 10.4193 9.63471 10.4193C9.50433 10.4193 9.39864 10.3108 9.39864 10.1769V8.37044C9.39864 8.2654 9.4645 8.1723 9.56179 8.13985C9.65912 8.10743 9.76565 8.14297 9.82575 8.22799L10.6758 9.43034V8.31721C10.6758 8.18332 10.7815 8.07478 10.9119 8.07478C11.0423 8.07478 11.148 8.18332 11.148 8.31721V10.1769ZM12.8681 10.3811H11.6997C11.5694 10.3811 11.4637 10.2726 11.4637 10.1387V9.2089V8.27904C11.4637 8.14515 11.5694 8.03661 11.6997 8.03661H12.8318C12.9622 8.03661 13.0679 8.14515 13.0679 8.27904C13.0679 8.41293 12.9622 8.52147 12.8318 8.52147H11.9358V8.96647H12.663C12.7933 8.96647 12.899 9.07501 12.899 9.2089C12.899 9.34279 12.7933 9.45133 12.663 9.45133H11.9358V9.89626H12.8681C12.9985 9.89626 13.1042 10.0048 13.1042 10.1387C13.1042 10.2726 12.9985 10.3811 12.8681 10.3811Z" fill="black"/>
</svg>
