<?xml version="1.0" encoding="UTF-8" standalone="no"?>
<svg width="40px" height="40px" viewBox="0 0 40 40" version="1.1" xmlns="http://www.w3.org/2000/svg" xmlns:xlink="http://www.w3.org/1999/xlink">
    <!-- Generator: Sketch 45 (43475) - http://www.bohemiancoding.com/sketch -->
    <title>lipstick_empty</title>
    <desc>Created with Sketch.</desc>
    <defs>
        <path d="M1.6104,1.528 L0.3968,8.5648 C0.3432,8.8728 0.4208,9.188 0.6088,9.4376 L14.6176,27.908 C14.9936,28.404 15.6992,28.5016 16.1952,28.1256 L20.3544,24.9728 C20.8496,24.596 20.9464,23.8896 20.5704,23.3952 L3.6176,1.0392 C3.3848,0.7336 3.0536,0.5928 2.7264,0.5928 C2.2152,0.5928 1.7128,0.936 1.6104,1.528 Z" id="path-1"></path>
        <polygon id="path-3" points="0.5952 3.2744 1.5664 4.5536 0.7048 5.2064 1.1416 5.7808 7.016 13.528 7.876 12.8752 15.048 7.4344 15.9096 6.784 11.112 0.456"></polygon>
        <polygon id="path-5" points="0.6824 2.9488 7.9664 12.5536 7.1048 13.2064 7.5416 13.7808 7.6272 13.8944 19.2704 10.7752 16.8704 7.6096 15.9992 6.4624 15.1384 7.1152 10.0712 0.4328"></polygon>
        <polygon id="path-7" points="0.0552 5.6472 5.1776 12.4016 14.5664 9.8856 7.2288 0.2096"></polygon>
    </defs>
    <g id="Icons" stroke="none" stroke-width="1" fill="none" fill-rule="evenodd">
        <g id="lipstick_empty">
            <g id="Page-1" transform="translate(4.800000, 0.000000)">
                <g id="Group-5">
                    <mask id="mask-2" fill="white">
                        <use xlink:href="#path-1"></use>
                    </mask>
                    <g id="Clip-4"></g>
                    <polygon id="Fill-3" fill="#D6D6D6" mask="url(#mask-2)" points="-907.2 436 259.2 436 259.2 -215.2 -907.2 -215.2"></polygon>
                </g>
                <g id="Group-49" transform="translate(14.400000, 26.400000)">
                    <mask id="mask-4" fill="white">
                        <use xlink:href="#path-3"></use>
                    </mask>
                    <g id="Clip-46"></g>
                    <polygon id="Fill-45" fill="#D6D6D6" mask="url(#mask-4)" points="-921.6 409.6 244.8 409.6 244.8 -241.6 -921.6 -241.6"></polygon>
                    <polygon id="Fill-47" fill="#D6D6D6" mask="url(#mask-4)" points="-4.8 17.6 20 17.6 20 -2.4 -4.8 -2.4"></polygon>
                    <path d="M-4.20976,16.59688 L-4.00256,16.86728 L19.27664,-0.95752 L19.07024,-1.22792 L-4.20976,16.59688 Z M-4.06416,17.33048 L-4.67296,16.53528 L19.13184,-1.69192 L19.74064,-0.89592 L-4.06416,17.33048 Z" id="Fill-48" fill="#D6D6D6" mask="url(#mask-4)"></path>
                </g>
                <g id="Group-109" transform="translate(8.000000, 18.400000)">
                    <mask id="mask-6" fill="white">
                        <use xlink:href="#path-5"></use>
                    </mask>
                    <g id="Clip-106"></g>
                    <polygon id="Fill-105" fill="#D6D6D6" mask="url(#mask-6)" points="-915.2 417.6 251.2 417.6 251.2 -233.6 -915.2 -233.6"></polygon>
                    <polygon id="Fill-107" fill="#D6D6D6" mask="url(#mask-6)" points="-1.6 16.8 23.2 16.8 23.2 -3.2 -1.6 -3.2"></polygon>
                    <path d="M-0.93168,15.41488 L-0.72528,15.68608 L22.55392,-2.13872 L22.34832,-2.40912 L-0.93168,15.41488 Z M-0.78608,16.14928 L-1.39648,15.35408 L-1.26448,15.25328 L22.40912,-2.87232 L23.01792,-2.07712 L22.88672,-1.97712 L-0.78608,16.14928 Z" id="Fill-108" fill="#D6D6D6" mask="url(#mask-6)"></path>
                </g>
                <g id="Group-185" transform="translate(4.000000, 9.600000)">
                    <mask id="mask-8" fill="white">
                        <use xlink:href="#path-7"></use>
                    </mask>
                    <g id="Clip-182"></g>
                    <polygon id="Fill-181" fill="#D6D6D6" mask="url(#mask-8)" points="-911.2 426.4 255.2 426.4 255.2 -224.8 -911.2 -224.8"></polygon>
                    <polygon id="Fill-183" fill="#D6D6D6" mask="url(#mask-8)" points="-1.6 14.4 24 14.4 24 -5.6 -1.6 -5.6"></polygon>
                    <path d="M-0.67928,13.19848 L-0.47208,13.46888 L22.80712,-4.35592 L22.60072,-4.62632 L-0.67928,13.19848 Z M-0.53288,13.93208 L-1.14328,13.13768 L22.66232,-5.09032 L23.27032,-4.29432 L23.13992,-4.19352 L-0.53288,13.93208 Z" id="Fill-184" fill="#D6D6D6" mask="url(#mask-8)"></path>
                </g>
            </g>
        </g>
    </g>
</svg>