<?xml version="1.0" encoding="UTF-8" standalone="no"?>
<svg width="40px" height="40px" viewBox="0 0 40 40" version="1.1" xmlns="http://www.w3.org/2000/svg" xmlns:xlink="http://www.w3.org/1999/xlink">
    <!-- Generator: Sketch 45 (43475) - http://www.bohemiancoding.com/sketch -->
    <title>lipstick_filled</title>
    <desc>Created with Sketch.</desc>
    <defs>
        <path d="M1.6291498,1.528 L0.401619433,8.5648 C0.346558704,8.8728 0.425910931,9.188 0.616194332,9.4376 L14.7959514,27.9088 C15.1757085,28.404 15.8898785,28.5016 16.3919028,28.1256 L20.6008097,24.9728 C21.1020243,24.596 21.2016194,23.8896 20.8210526,23.3952 L3.66153846,1.0392 C3.42591093,0.7336 3.09149798,0.5928 2.75951417,0.5928 C2.24129555,0.5928 1.73279352,0.9368 1.6291498,1.528 Z" id="path-1"></path>
    </defs>
    <g id="Icons" stroke="none" stroke-width="1" fill="none" fill-rule="evenodd">
        <g id="lipstick_filled">
            <g id="Page-1" transform="translate(4.615385, 0.000000)">
                <g id="Group-3">
                    <mask id="mask-2" fill="white">
                        <use xlink:href="#path-1"></use>
                    </mask>
                    <g id="Clip-2"></g>
                    <polygon id="Fill-1" fill="#EA1B35" mask="url(#mask-2)" points="-6.52834008 -1.13048 16.7753036 -7.30008 26.7834008 29.60232 3.47975709 35.77192"></polygon>
                </g>
                <polygon id="Fill-4" fill="#FFFFFF" points="4.10502024 15.24712 16.1608907 30.95432 15.2888259 31.60632 15.7293117 32.18072 21.6758704 39.92792 22.5471255 39.27512 29.8062348 33.83432 30.6774899 33.18392 25.171417 26.00952 24.2904453 24.86232 23.42 25.51512 11.3649393 9.80952"></polygon>
                <polygon id="Fill-5" fill="#231F20" points="21.1387045 39.22816 21.5492308 39.76336 30.5192713 32.97776 30.1087449 32.44256"></polygon>
                <path d="M21.0374089,39.0964 L21.2398381,39.3604 L30.2098785,32.5748 L30.0074494,32.3108 L21.0374089,39.0964 Z M21.4479352,39.6316 L21.6503644,39.8948 L30.6204049,33.1092 L30.4179757,32.8452 L21.4479352,39.6316 Z" id="Fill-6" fill="#231F20"></path>
                <polygon id="Fill-7" fill="#231F20" points="20.0149798 37.7644 20.4255061 38.2988 29.3955466 31.5132 28.9850202 30.978"></polygon>
                <path d="M19.9136842,37.63264 L20.1153036,37.89584 L29.0853441,31.10944 L28.8837247,30.84624 L19.9136842,37.63264 Z M20.3242105,38.16784 L20.5266397,38.43024 L29.4966802,31.64544 L29.294251,31.38144 L20.3242105,38.16784 Z" id="Fill-8" fill="#231F20"></path>
                <polygon id="Fill-9" fill="#231F20" points="18.8904453 36.29992 19.3017814 36.83512 28.2710121 30.04872 27.8604858 29.51352"></polygon>
                <path d="M18.7899595,36.16816 L18.9923887,36.43136 L27.9624291,29.64656 L27.76,29.38176 L18.7899595,36.16816 Z M19.2004858,36.70336 L19.402915,36.96656 L28.3729555,30.18176 L28.1705263,29.91696 L19.2004858,36.70336 Z" id="Fill-10" fill="#231F20"></path>
                <polygon id="Fill-11" fill="#231F20" points="17.7675304 34.83616 18.177247 35.37056 27.1472874 28.58416 26.7375709 28.05056"></polygon>
                <path d="M17.6661538,34.70368 L17.8677733,34.96688 L26.8378138,28.18128 L26.6361943,27.91808 L17.6661538,34.70368 Z M18.0766802,35.23808 L18.2782996,35.50208 L27.2483401,28.71648 L27.0467206,28.45248 L18.0766802,35.23808 Z" id="Fill-12" fill="#231F20"></path>
                <polygon id="Fill-13" fill="#231F20" points="16.6430769 33.37168 17.054413 33.90688 26.0244534 27.12048 25.6139271 26.58608"></polygon>
                <path d="M16.5424291,33.23992 L16.7440486,33.50312 L25.7140891,26.71752 L25.5124696,26.45432 L16.5424291,33.23992 Z M16.9529555,33.77512 L17.1545749,34.03832 L26.1254251,27.25272 L25.922996,26.98872 L16.9529555,33.77512 Z" id="Fill-14" fill="#231F20"></path>
                <polygon id="Fill-15" fill="#231F20" points="15.5193522 31.9072 15.7290688 32.1808 15.9306883 32.4424 24.9007287 25.656 24.4893927 25.1216"></polygon>
                <path d="M15.4187045,31.77544 L15.6203239,32.03864 L24.5903644,25.25304 L24.3879352,24.98984 L15.4187045,31.77544 Z M15.8284211,32.31064 L16.0308502,32.57384 L25.0008907,25.78824 L24.7992713,25.52424 L15.8284211,32.31064 Z" id="Fill-16" fill="#231F20"></path>
                <polygon id="Fill-17" fill="#231F20" points="15.2642105 29.78608 15.6747368 30.32128 22.9087449 24.84848 22.4982186 24.31408"></polygon>
                <path d="M15.162996,29.65504 L15.3662348,29.91824 L22.5994332,24.44624 L22.397004,24.18224 L15.162996,29.65504 Z M15.5735223,30.18944 L15.7759514,30.45264 L23.0099595,24.97984 L22.8075304,24.71664 L15.5735223,30.18944 Z" id="Fill-18" fill="#231F20"></path>
                <polygon id="Fill-19" fill="#231F20" points="14.1397571 28.3216 14.5510931 28.8568 21.7842915 23.384 21.3737652 22.8488"></polygon>
                <path d="M14.0392713,28.18984 L14.2408907,28.45304 L21.4757085,22.98104 L21.2724696,22.71704 L14.0392713,28.18984 Z M14.4497976,28.72504 L14.651417,28.98824 L21.8854251,23.51544 L21.6838057,23.25304 L14.4497976,28.72504 Z" id="Fill-20" fill="#231F20"></path>
                <polygon id="Fill-21" fill="#231F20" points="13.0153846 26.85784 13.4267206 27.39304 20.6607287 21.92024 20.2502024 21.38504"></polygon>
                <path d="M12.9147368,26.72536 L13.117166,26.98936 L20.3511741,21.51656 L20.1479352,21.25336 L12.9147368,26.72536 Z M13.3260729,27.26136 L13.5276923,27.52456 L20.7617004,22.05176 L20.560081,21.78936 L13.3260729,27.26136 Z" id="Fill-22" fill="#231F20"></path>
                <polygon id="Fill-23" fill="#231F20" points="11.8931174 25.39336 12.3036437 25.92856 19.5368421 20.45656 19.1263158 19.92136"></polygon>
                <path d="M11.7910931,25.26232 L11.9935223,25.52552 L19.2275304,20.05272 L19.0251012,19.78872 L11.7910931,25.26232 Z M12.2024291,25.79752 L12.4040486,26.05992 L19.6380567,20.58712 L19.4364372,20.32392 L12.2024291,25.79752 Z" id="Fill-24" fill="#231F20"></path>
                <polygon id="Fill-25" fill="#231F20" points="10.7678543 23.9296 11.1791903 24.4648 18.4131984 18.992 18.0026721 18.4568"></polygon>
                <path d="M10.6673684,23.79712 L10.8697976,24.06112 L18.1038057,18.58832 L17.9005668,18.32512 L10.6673684,23.79712 Z M11.0778947,24.33232 L11.2803239,24.59632 L18.5135223,19.12352 L18.3110931,18.86032 L11.0778947,24.33232 Z" id="Fill-26" fill="#231F20"></path>
                <polygon id="Fill-27" fill="#231F20" points="9.64412955 22.46512 10.0554656 23.00032 17.288664 17.52752 16.8781377 16.99312"></polygon>
                <path d="M9.54291498,22.33336 L9.74534413,22.59736 L16.9793522,17.12456 L16.7769231,16.86056 L9.54291498,22.33336 Z M9.9534413,22.86856 L10.1558704,23.13176 L17.3898785,17.65896 L17.1882591,17.39576 L9.9534413,22.86856 Z" id="Fill-28" fill="#231F20"></path>
                <polygon id="Fill-29" fill="#231F20" points="8.52121457 21.00136 8.93093117 21.53576 16.1649393 16.06376 15.754413 15.52856"></polygon>
                <path d="M8.41991903,20.86888 L8.62234818,21.13288 L15.8563563,15.66088 L15.6531174,15.39768 L8.41991903,20.86888 Z M8.83044534,21.40408 L9.03206478,21.66728 L16.2660729,16.19528 L16.0636437,15.93208 L8.83044534,21.40408 Z" id="Fill-30" fill="#231F20"></path>
                <polygon id="Fill-31" fill="#231F20" points="7.39676113 19.53688 7.80809717 20.07208 15.0412955 14.60008 14.6307692 14.06488"></polygon>
                <path d="M7.29611336,19.4044 L7.49854251,19.6684 L14.7325506,14.1956 L14.5293117,13.9324 L7.29611336,19.4044 Z M7.70663968,19.9396 L7.90906883,20.2036 L15.1422672,14.7316 L14.9406478,14.4676 L7.70663968,19.9396 Z" id="Fill-32" fill="#231F20"></path>
                <polygon id="Fill-33" fill="#231F20" points="6.27303644 18.07312 6.68437247 18.60832 13.9175709 13.13552 13.5070445 12.60032"></polygon>
                <path d="M6.17238866,17.94064 L6.37481781,18.20384 L13.6080162,12.73184 L13.405587,12.46864 L6.17238866,17.94064 Z M6.5837247,18.47584 L6.78534413,18.73904 L14.0177328,13.26704 L13.8161134,13.00384 L6.5837247,18.47584 Z" id="Fill-34" fill="#231F20"></path>
                <polygon id="Fill-35" fill="#231F20" points="5.14931174 16.60864 5.55983806 17.14384 12.7930364 11.67104 12.3825101 11.13664"></polygon>
                <path d="M5.04801619,16.47616 L5.24963563,16.73936 L12.4844534,11.26736 L12.2812146,11.00416 L5.04801619,16.47616 Z M5.45854251,17.01136 L5.66097166,17.27536 L12.89417,11.80256 L12.6925506,11.53936 L5.45854251,17.01136 Z" id="Fill-36" fill="#231F20"></path>
                <polygon id="Fill-37" fill="#231F20" points="4.10502024 15.24712 4.43619433 15.67912 11.6693927 10.20712 11.3649393 9.80952"></polygon>
                <path d="M4.33530364,15.54736 L4.53773279,15.81056 L11.7709312,10.33856 L11.568502,10.07536 L4.33530364,15.54736 Z M4.10534413,15.24736 L4.12720648,15.27616 L10.1045344,10.75376 L4.10534413,15.24736 Z" id="Fill-38" fill="#231F20"></path>
            </g>
        </g>
    </g>
</svg>