<!-- Generated by IcoMoon.io -->
<svg version="1.1" xmlns="http://www.w3.org/2000/svg" width="32" height="32" viewBox="0 0 32 32">
<title>makeup_2</title>
<path d="M26.232 31.069h-4.029c-0.658 0-1.289-0.26-1.753-0.722s-0.722-1.089-0.718-1.741v-10.148c-0.018-0.66 0.234-1.3 0.7-1.773s1.104-0.74 1.771-0.74h4.029c0.67-0.005 1.313 0.26 1.782 0.734s0.724 1.116 0.706 1.779v10.148c0.004 0.652-0.254 1.278-0.718 1.741s-1.095 0.722-1.753 0.722h-0.017zM22.203 16.963c-0.824 0-1.492 0.662-1.492 1.478v10.148c0 0.816 0.668 1.478 1.492 1.478h4.029c0.824 0 1.492-0.662 1.492-1.478v-10.132c0-0.392-0.157-0.768-0.437-1.045s-0.659-0.433-1.055-0.433l-4.029-0.016z"></path>
<path d="M27.575 16.979h-6.367v-5.797h6.351v5.797h0.017zM22.186 15.945h4.411v-3.793h-4.411v3.793z"></path>
<path d="M27.575 11.675h-0.978v-10.477c-0.156-0.053-0.325-0.053-0.481 0l-3.93 7.537v2.939h-0.978v-3.169l4.195-8.063h0.166c0.488-0.228 1.054-0.228 1.542 0 0.354 0.252 0.549 0.67 0.514 1.1v10.132h-0.050z"></path>
<path d="M24.209 27.292c-1.575 0-2.802-1.741-2.802-3.957s1.227-3.957 2.802-3.957c1.575 0 2.852 1.757 2.852 3.974s-1.227 3.957-2.802 3.957l-0.050-0.016zM24.209 20.362c-0.995 0-1.824 1.363-1.824 2.972s0.829 2.972 1.824 2.972c0.995 0 1.824-1.363 1.824-2.972s-0.829-2.972-1.824-2.972v0z"></path>
<path d="M16.399 31.069h-8.39v-11.987c-0-1.272 1.037-2.306 2.321-2.315h3.748c1.285 0.009 2.321 1.043 2.321 2.315v11.987zM8.987 30.1h6.467v-11.019c0-0.737-0.599-1.338-1.343-1.347h-3.781c-0.744 0.009-1.343 0.609-1.343 1.347v11.019z"></path>
<path d="M8.506 20.789h7.412v0.969h-7.412v-0.969z"></path>
<path d="M8.506 22.48h7.412v0.969h-7.412v-0.969z"></path>
<path d="M8.871 5.813l-5.439 0.378 5.439 0.361 5.455-0.361z"></path>
<path d="M8.821 6.782v0l-5.406-0.361v-0.493l5.406-0.361 5.489 0.361v0.493l-5.489 0.361zM7.163 6.174l1.658 0.115 1.774-0.115-1.774-0.082-1.658 0.082z"></path>
<path d="M9.236 6.191l-0.365-5.452-0.365 5.452 0.365 5.435z"></path>
<path d="M9.12 11.643h-0.481l-0.365-5.452 0.365-5.468h0.481l0.365 5.37-0.365 5.55zM8.821 4.45v3.514l0.182-1.872-0.182-1.642z"></path>
<path d="M9.020 6.027l-2.454-2.151 2.156 2.463 2.471 2.151z"></path>
<path d="M11.027 8.67l-2.471-2.151-2.172-2.48 0.332-0.345 2.471 2.151 2.189 2.48z"></path>
<path d="M9.020 6.339l2.172-2.463-2.471 2.151-2.156 2.463z"></path>
<path d="M6.715 8.67l-0.332-0.345 2.156-2.463 2.487-2.168 0.348 0.345-2.156 2.463z"></path>
<path d="M15.371 11.429l-2.819 0.197 2.819 0.181 2.835-0.181z"></path>
<path d="M15.371 12.053l-2.835-0.181v-0.493l2.819-0.181 2.869 0.181v0.493z"></path>
<path d="M15.57 11.626l-0.199-2.824-0.182 2.824 0.182 2.808z"></path>
<path d="M15.62 14.451h-0.481l-0.199-2.808 0.199-2.857h0.481l0.199 2.824z"></path>
<path d="M15.454 11.544l-1.277-1.117 1.128 1.281 1.277 1.117z"></path>
<path d="M16.416 13.005l-1.277-1.117-1.144-1.297 0.348-0.345 1.277 1.117 1.144 1.297z"></path>
<path d="M15.454 11.708l1.128-1.281-1.277 1.117-1.128 1.281z"></path>
<path d="M14.343 13.005l-0.348-0.345 1.128-1.281 1.293-1.133 0.348 0.345-1.128 1.264z"></path>
</svg>
