<!-- Generated by IcoMoon.io -->
<svg version="1.1" xmlns="http://www.w3.org/2000/svg" width="32" height="32" viewBox="0 0 32 32">
<title>member_points</title>
<path d="M24.357 24.947c1.646-2.348 2.647-5.39 2.647-8.715s-1.001-6.367-2.647-8.715c2.478 2.165 4.042 5.265 4.042 8.715s-1.565 6.55-4.042 8.715zM3.6 16.232c0-3.45 1.566-6.55 4.042-8.715-1.646 2.348-2.647 5.39-2.647 8.715s1.001 6.367 2.647 8.715c-2.477-2.165-4.042-5.265-4.042-8.715zM25.405 16.232c0 6.524-4.218 11.832-9.405 11.832s-9.405-5.308-9.405-11.832 4.219-11.832 9.405-11.832c5.186 0 9.405 5.308 9.405 11.832zM16 2.8c-7.719 0-14 6.026-14 13.432s6.281 13.432 14 13.432c7.72 0 14-6.026 14-13.432s-6.28-13.432-14-13.432z"></path>
<path d="M14.562 17.635c0 1.476-0.975 2.709-3.042 2.709-0.822 0-1.669-0.167-2.349-0.488l0.295-0.783c0.565 0.245 1.27 0.386 1.963 0.386 1.322 0 2.041-0.642 2.041-1.823 0-1.27-1.026-1.682-2.49-1.682h-0.552l0.051-0.757h0.552c1.412 0 2.118-0.706 2.118-1.758 0-0.988-0.59-1.438-1.656-1.438-0.706 0-1.181 0.129-1.655 0.334l-0.321-0.783c0.629-0.27 1.348-0.462 2.118-0.462 1.566 0 2.541 0.797 2.541 2.131 0 1.053-0.552 1.836-1.502 2.182 1.090 0.244 1.886 0.95 1.886 2.233z"></path>
<path d="M21.779 20.266l-2.632-3.825-2.682 3.825-1.104-0.051 3.249-4.557-3.043-4.428 1.206-0.051 2.517 3.658 2.502-3.658 1.090 0.051-3.054 4.39 3.17 4.594z"></path>
</svg>
