<!-- Generated by IcoMoon.io -->
<svg version="1.1" xmlns="http://www.w3.org/2000/svg" width="32" height="32" viewBox="0 0 32 32">
<title>orders</title>
<path d="M10.862 15.249h10.769v-1.436h-10.769z"></path>
<path d="M10.862 19.166h10.769v-1.436h-10.769z"></path>
<path d="M10.862 23.081h10.769v-1.436h-10.769z"></path>
<path d="M10.862 11.334h10.769v-1.437h-10.769z"></path>
<path d="M25.938 26.964c0 0.793-0.643 1.436-1.436 1.436h-17.231c-0.793 0-1.436-0.643-1.436-1.436v-21.184c0-0.792 0.643-1.436 1.436-1.436h2.154v1.265h-2.005v21.545h16.932v-21.545h-2.005v-1.265h2.154c0.793 0 1.436 0.644 1.436 1.436v21.184zM22.349 7.045h0.569v18.673h-14.060v-18.673h13.492zM10.862 3.436h10.051v2.173h-10.051v-2.173zM24.503 2.909h-2.154v-0.908h-12.923v0.908h-2.154c-1.583 0-2.872 1.288-2.872 2.872v21.184c0 1.584 1.289 2.872 2.872 2.872h17.231c1.583 0 2.872-1.288 2.872-2.872v-21.184c0-1.584-1.289-2.872-2.872-2.872v0z"></path>
</svg>
