<!-- Generated by IcoMoon.io -->
<svg version="1.1" xmlns="http://www.w3.org/2000/svg" width="32" height="32" viewBox="0 0 32 32">
<title>payment_paid</title>
<path d="M25.507 18.316v4.59c0 0.954-0.776 1.73-1.73 1.73h-20.317c-0.954 0-1.73-0.776-1.73-1.73v-5.562h20.587c-0.755-0.451-1.418-1.038-1.955-1.73h-18.633v-3.198h17.252c-0.055-0.353-0.092-0.712-0.092-1.080 0-0.22 0.013-0.435 0.033-0.649h-17.194v-0.634c0-0.954 0.776-1.73 1.73-1.73h16.122c0.304-0.636 0.701-1.218 1.175-1.73h-17.297c-1.908 0-3.459 1.552-3.459 3.459v12.854c0 1.907 1.552 3.459 3.459 3.459h20.317c1.908 0 3.459-1.552 3.459-3.459v-4.703c-0.436 0.085-0.886 0.133-1.347 0.133-0.129 0-0.256-0.013-0.383-0.020z"></path>
<path d="M27.236 12.705l-1.598 2.543-0.131-0.119-2.862-2.607 1.165-1.278 1.464 1.334 0.101-0.162 0.131-0.208 2.489-3.96 1.464 0.921-2.224 3.537zM25.89 6.065c-0.82 0-1.594 0.193-2.287 0.528-0.817 0.394-1.518 0.991-2.033 1.73-0.48 0.687-0.799 1.492-0.906 2.364-0.026 0.214-0.043 0.429-0.043 0.649 0 0.371 0.039 0.733 0.112 1.081 0.273 1.313 1.038 2.442 2.090 3.198 0.767 0.551 1.687 0.899 2.685 0.972 0.127 0.009 0.254 0.019 0.383 0.019 0.466 0 0.916-0.066 1.347-0.18 2.257-0.596 3.924-2.646 3.924-5.091 0-2.91-2.359-5.27-5.27-5.27v0z"></path>
</svg>
