<!-- Generated by IcoMoon.io -->
<svg version="1.1" xmlns="http://www.w3.org/2000/svg" width="32" height="32" viewBox="0 0 32 32">
<title>payment_expired</title>
<path d="M5.662 25.393c0.026 0 0.093 0.017 0.204 0.017h19.813c0.12 0 0.188-0.019 0.219-0.032-0.014-0.018-0.029-0.087-0.087-0.192l-9.967-18.133c-0.026-0.047-0.050-0.084-0.072-0.112-0.022 0.028-0.046 0.065-0.072 0.112l-9.967 18.133c-0.058 0.105-0.074 0.174-0.078 0.208h0.006zM25.679 27.064h-19.813c-0.734 0-1.335-0.303-1.648-0.833s-0.289-1.201 0.065-1.844l9.967-18.133c0.358-0.653 0.913-1.027 1.522-1.027s1.164 0.374 1.523 1.026l9.967 18.134c0.353 0.643 0.377 1.315 0.064 1.844s-0.913 0.833-1.647 0.833z"></path>
<path d="M15.249 12.912l1.047-0.053v6.77l-1.047 0.053v-6.77zM14.985 21.748c0-0.464 0.29-0.781 0.794-0.781 0.477 0 0.781 0.317 0.781 0.781 0 0.477-0.292 0.794-0.794 0.794-0.491 0-0.781-0.318-0.781-0.794v0z"></path>
</svg>
