<!-- Generated by IcoMoon.io -->
<svg version="1.1" xmlns="http://www.w3.org/2000/svg" width="32" height="32" viewBox="0 0 32 32">
<title>payment_pending</title>
<path d="M25.507 18.316v4.59c0 0.954-0.776 1.73-1.73 1.73h-20.317c-0.954 0-1.73-0.776-1.73-1.73v-5.562h20.587c-0.755-0.451-1.418-1.038-1.955-1.73h-18.633v-3.198h17.252c-0.055-0.353-0.092-0.713-0.092-1.080 0-0.22 0.013-0.435 0.033-0.649h-17.194v-0.634c0-0.954 0.776-1.73 1.73-1.73h16.122c0.304-0.637 0.701-1.218 1.175-1.73h-17.297c-1.908 0-3.459 1.552-3.459 3.459v12.854c0 1.907 1.552 3.459 3.459 3.459h20.317c1.908 0 3.459-1.552 3.459-3.459v-4.703c-0.436 0.085-0.886 0.132-1.347 0.132-0.129 0-0.256-0.012-0.383-0.019z"></path>
<path d="M27.72 15.159l-2.953-2.624v-4.536h1.73v3.759l2.372 2.109-1.149 1.293zM25.89 6.065c-0.82 0-1.594 0.193-2.287 0.528-0.817 0.395-1.518 0.992-2.033 1.73-0.48 0.687-0.799 1.492-0.906 2.365-0.026 0.213-0.043 0.429-0.043 0.649 0 0.37 0.039 0.732 0.112 1.081 0.273 1.312 1.038 2.442 2.090 3.197 0.767 0.552 1.687 0.9 2.685 0.972 0.127 0.009 0.254 0.020 0.383 0.020 0.466 0 0.916-0.067 1.347-0.181 2.257-0.596 3.924-2.646 3.924-5.090 0-2.911-2.359-5.271-5.27-5.271v0z"></path>
</svg>
