<!-- Generated by IcoMoon.io -->
<svg version="1.1" xmlns="http://www.w3.org/2000/svg" width="32" height="32" viewBox="0 0 32 32">
<title>payment_cancelled</title>
<path d="M25.907 17.851v4.59c0 0.954-0.776 1.73-1.73 1.73h-20.317c-0.954 0-1.73-0.776-1.73-1.73v-5.562h20.587c-0.755-0.451-1.418-1.038-1.955-1.73h-18.633v-3.198h17.252c-0.055-0.353-0.092-0.713-0.092-1.080 0-0.22 0.013-0.435 0.033-0.649h-17.194v-0.634c0-0.954 0.776-1.73 1.73-1.73h16.122c0.304-0.637 0.701-1.218 1.175-1.73h-17.297c-1.908 0-3.459 1.552-3.459 3.459v12.854c0 1.907 1.552 3.459 3.459 3.459h20.317c1.908 0 3.459-1.552 3.459-3.459v-4.703c-0.436 0.085-0.886 0.132-1.347 0.132-0.129 0-0.256-0.012-0.383-0.019z"></path>
<path d="M29.272 12.625l-1.223 1.223-1.551-1.551-1.551 1.551-1.223-1.223 1.551-1.551-1.551-1.551 1.223-1.223 1.551 1.551 1.551-1.551 1.223 1.223-1.551 1.551 1.551 1.551zM26.29 5.6c-0.821 0-1.595 0.193-2.287 0.527-0.818 0.395-1.519 0.992-2.034 1.73-0.48 0.687-0.798 1.492-0.905 2.365-0.026 0.213-0.044 0.429-0.044 0.649 0 0.37 0.039 0.732 0.112 1.081 0.274 1.312 1.039 2.442 2.090 3.198 0.768 0.551 1.687 0.899 2.685 0.972 0.127 0.009 0.254 0.019 0.384 0.019 0.466 0 0.916-0.067 1.346-0.18 2.257-0.596 3.924-2.646 3.924-5.091 0-2.911-2.359-5.27-5.27-5.27v0z"></path>
</svg>
