<!-- Generated by IcoMoon.io -->
<svg version="1.1" xmlns="http://www.w3.org/2000/svg" width="32" height="32" viewBox="0 0 32 32">
<title>pdf</title>
<path d="M19.92 14.194h8.68c0.933 0 1.4 0.452 1.4 1.355v7.677c0 0.813-0.467 1.355-1.4 1.355h-17.36c-0.933 0-1.4-0.632-1.4-1.355v-7.587c0-0.813 0.56-1.355 1.4-1.355 2.893 0 5.787-0.090 8.68-0.090zM18.147 19.342v2.439c0 0.452 0.187 0.632 0.653 0.632h1.4c1.4-0.090 2.24-0.813 2.427-2.077 0.093-0.723 0-1.355 0-2.077-0.28-0.903-0.933-1.626-1.96-1.806-0.653-0.090-1.4-0.090-2.053-0.090-0.373 0-0.467 0.181-0.467 0.542v2.439zM13.853 20.335c0.467 0 0.933 0 1.4-0.090 1.027-0.090 1.68-0.813 1.68-1.716 0.093-0.994-0.467-1.806-1.493-1.987-0.747-0.090-1.493-0.090-2.24-0.090-0.373 0-0.56 0.271-0.56 0.632v4.877c0 0.452 0.187 0.723 0.653 0.723 0.373 0 0.56-0.181 0.56-0.723v-1.626zM25.053 17.355h2.053c0.28 0 0.467-0.090 0.467-0.361 0-0.181 0-0.452-0.093-0.542s-0.373-0.181-0.467-0.181h-2.427c-0.56 0-0.747 0.181-0.747 0.723v4.877c0 0.361 0.28 0.542 0.653 0.542 0.28 0 0.56-0.271 0.56-0.542v-2.077h1.493c0.28 0 0.467-0.090 0.56-0.361 0.093-0.361-0.093-0.632-0.467-0.723h-1.307c-0.187 0-0.28 0-0.28-0.181v-1.174z"></path>
<path d="M24.4 12.297h-1.96v-4.877h-3.080c-0.467 0-0.653-0.181-0.653-0.632v-2.529c0-0.271-0.093-0.361-0.373-0.361h-14.373v0.452c-0.093 7.587-0.093 15.265-0.093 22.852 0 0.271 0 0.361 0.373 0.361h18.2v-0.994h1.96v1.806c0 0.723-0.373 0.994-1.12 0.994h-20.16c-0.28 0-0.56-0.090-0.84-0.181-0.187-0.181-0.28-0.452-0.28-0.813v-25.652c0.093-0.452 0.56-0.723 1.12-0.723h15.96c0.467 0 0.84 0.181 1.213 0.452 1.307 1.265 2.52 2.439 3.827 3.703 0.187 0.181 0.28 0.452 0.28 0.813v5.329z"></path>
<path d="M19.267 21.419v-4.065c0.467 0.090 0.84 0 1.307 0.181 0.467 0.090 0.747 0.452 0.747 0.903 0.093 0.632 0.093 1.174 0 1.806-0.093 0.723-0.467 1.084-1.213 1.084-0.28 0.090-0.56 0.090-0.84 0.090z"></path>
<path d="M13.853 17.355c0.373 0 0.747 0 1.12 0.090 0.56 0.090 0.747 0.452 0.747 1.084 0 0.452-0.28 0.813-0.84 0.903v0c-1.027 0.181-1.12 0.181-1.12-0.813 0.093-0.542 0.093-0.903 0.093-1.265z"></path>
</svg>
