<!-- Generated by IcoMoon.io -->
<svg version="1.1" xmlns="http://www.w3.org/2000/svg" width="32" height="32" viewBox="0 0 32 32">
<title>pinterest</title>
<path d="M16 4.4c-6.396 0-11.6 5.204-11.6 11.6s5.204 11.6 11.6 11.6c6.396 0 11.6-5.204 11.6-11.6s-5.204-11.6-11.6-11.6zM16 29.2c-7.278 0-13.2-5.922-13.2-13.2s5.922-13.2 13.2-13.2c7.278 0 13.2 5.922 13.2 13.2s-5.922 13.2-13.2 13.2z"></path>
<path d="M17.95 7.264c-2.814-0.6-5.412-0.074-7.435 2.156-1.786 1.969-2.065 5.052-0.718 7.263 0.329 0.54 0.748 0.993 1.314 1.297 0.28 0.15 0.436 0.084 0.502-0.232 0.074-0.351 0.186-0.696 0.243-1.050 0.024-0.146-0.007-0.341-0.091-0.458-1.693-2.354-0.569-6.39 3.066-7.122 1.066-0.214 2.126-0.156 3.134 0.291 1.527 0.677 2.364 1.871 2.525 3.52 0.136 1.395-0.074 2.738-0.812 3.954-0.602 0.992-1.438 1.638-2.666 1.61-1.080-0.025-1.793-0.936-1.524-1.981 0.248-0.962 0.544-1.913 0.788-2.876 0.080-0.316 0.11-0.661 0.082-0.985-0.11-1.226-1.297-1.771-2.308-1.059-0.838 0.59-1.076 1.477-1.082 2.439-0.002 0.356 0.033 0.733 0.154 1.062 0.16 0.433 0.109 0.826 0.007 1.25-0.391 1.626-0.794 3.25-1.128 4.887-0.129 0.629-0.101 1.291-0.118 1.939-0.009 0.33 0.037 0.661 0.059 1.002l0.209 0.793c0 0 0.158 0.004 0.351-0.127 0 0 0.022-0.013 0.059-0.043 0.002-0.001 0.002-0.002 0.003-0.002 0.008-0.006 0.016-0.013 0.024-0.021l0.022-0.018 0.015-0.014c0.003-0.003 0.006-0.006 0.010-0.009 0.221-0.209 0.682-0.769 1.11-2.068 0-0.001 0-0.002 0.001-0.003 0.459-1.13 0.73-2.333 1.024-3.538 1.465 1.679 3.794 1.368 5.334 0.355 1.723-1.133 2.552-2.828 2.854-4.809 0.55-3.593-1.458-6.647-5.010-7.404z"></path>
</svg>
