<!-- Generated by IcoMoon.io -->
<svg version="1.1" xmlns="http://www.w3.org/2000/svg" width="32" height="32" viewBox="0 0 32 32">
<title>point_history</title>
<path fill="#060001" d="M6.38 25.639v0z"></path>
<path fill="#060001" d="M1.801 9.066v-0.671c0-1.008 0.807-1.828 1.801-1.828h16.784c0.318-0.672 0.731-1.287 1.223-1.828h-18.007c-1.986 0-3.601 1.641-3.601 3.657v13.587c0 2.017 1.615 3.657 3.601 3.657h21.152c1.985 0 3.601-1.64 3.601-3.657v-4.971c-0.454 0.090-0.922 0.14-1.401 0.14-0.135 0-0.267-0.013-0.399-0.020v4.851c0 1.009-0.808 1.828-1.801 1.828h-21.152c-0.993 0-1.801-0.82-1.801-1.828v-5.879z"></path>
<path fill="#060001" d="M27.78 14.177l-3.121-2.684v-4.64h1.743v3.845l2.463 2.156-1.084 1.323zM26.082 4.874c-0.827 0-1.606 0.198-2.304 0.54-0.823 0.404-1.529 1.014-2.049 1.769-0.483 0.702-0.804 1.526-0.913 2.418-0.026 0.218-0.044 0.439-0.044 0.664 0 0.379 0.039 0.748 0.113 1.105 0.276 1.343 1.045 2.498 2.105 3.271 0.773 0.563 1.7 0.92 2.705 0.994 0.128 0.010 0.256 0.020 0.386 0.020 0.47 0 0.923-0.068 1.356-0.185 2.273-0.609 3.953-2.706 3.953-5.206 0-2.977-2.377-5.391-5.309-5.391v0z"></path>
<path fill="#000" d="M12.581 22.398c0.029-0.021 0.065-0.038 0.086-0.061 1.536-1.663 2.447-3.44 2.375-5.405-0.038-1.010-0.491-1.978-0.684-2.972-0.22-1.132-0.375-2.262-0.134-3.401 0.092-0.434 0.287-0.852 0.457-1.276-0.059 0.025-0.095 0.054-0.126 0.086-1.971 2.006-2.623 4.169-1.835 6.506 0.376 1.114 0.607 2.243 0.617 3.384 0.009 1.066-0.183 2.117-0.756 3.138z"></path>
</svg>
