<!-- Generated by IcoMoon.io -->
<svg version="1.1" xmlns="http://www.w3.org/2000/svg" width="32" height="32" viewBox="0 0 32 32">
<title>pop_payment</title>
<path fill="#000" d="M30.801 5.873c0-0.235 0.028-0.46-0.006-0.676-0.071-0.449-0.407-0.669-0.971-0.669-9.269-0-18.539-0-27.808 0-0.090 0-0.18 0.002-0.27 0.011-0.357 0.039-0.656 0.304-0.701 0.659-0.028 0.218-0.005 0.442-0.005 0.675h29.761zM15.912 17.883c-2.744 0.016-4.795 2.253-4.855 4.745-0.070 2.902 2.195 5.111 4.877 5.101 2.657-0.009 4.861-2.232 4.852-4.884-0.010-2.756-2.187-4.972-4.874-4.962v0zM11.854 18.437h-8.569c-0.090 0-0.18 0.002-0.27-0.003-0.277-0.018-0.476-0.217-0.493-0.491-0.016-0.263 0.177-0.487 0.456-0.522 0.105-0.013 0.212-0.012 0.319-0.012 3.268-0.001 6.536 0.001 9.803-0.004 0.143-0 0.297-0.021 0.427-0.077 1.554-0.672 3.11-0.684 4.678-0.050 0.17 0.069 0.357 0.111 0.539 0.126 0.274 0.023 0.464 0.126 0.557 0.401 0.026 0.077 0.097 0.149 0.165 0.201 1.152 0.889 1.894 2.047 2.215 3.474 0.053 0.236 0.148 0.287 0.373 0.287 2.596-0.009 5.192-0.006 7.788-0.006 0.677 0 0.975-0.3 0.975-0.981 0-3.365 0-6.73 0-10.095v-0.251h-29.788v5.639c0 1.6-0.002 3.199 0.001 4.799 0.001 0.545 0.322 0.887 0.841 0.888 2.678 0.003 5.356 0.001 8.034 0.004 0.137 0 0.197-0.032 0.227-0.182 0.205-1.038 0.673-1.946 1.356-2.744 0.105-0.122 0.217-0.239 0.365-0.401v0zM21.855 22.806c-0.053 1.89-0.769 3.454-2.207 4.647-1.125 0.933-2.431 1.377-3.887 1.345-1.036-0.023-1.997-0.314-2.887-0.853-0.891-0.54-1.59-1.27-2.104-2.18s-0.759-1.896-0.773-2.959h-0.315c-2.556 0-5.111 0-7.667 0-1.26 0-2.015-0.765-2.015-2.043-0-5.098-0-10.196 0-15.295 0-1.189 0.749-1.963 1.921-1.985 0.057-0.001 0.115-0 0.172-0 9.223 0 18.446 0 27.669-0.001 0.406 0 0.801 0.036 1.159 0.254 0.596 0.363 0.895 0.904 0.922 1.6 0.012 0.298 0.003 0.597 0.003 0.895 0 4.841 0 9.682 0 14.524 0 1.282-0.765 2.052-2.037 2.052-2.547 0-5.095 0-7.642 0h-0.313z"></path>
<path fill="#fff" d="M10.621 14.216c-2.539 0-5.077 0-7.616 0-0.089 0-0.18-0.004-0.268 0.005-0.248 0.025-0.436 0.222-0.455 0.468-0.017 0.231 0.132 0.46 0.361 0.522 0.107 0.029 0.225 0.032 0.338 0.032 5.11 0.002 10.219 0.003 15.329 0.002 0.104 0 0.213-0.008 0.312-0.038 0.233-0.070 0.369-0.289 0.346-0.528-0.024-0.248-0.214-0.439-0.462-0.459-0.081-0.007-0.163-0.003-0.244-0.003-2.547 0-5.093 0-7.64 0v0zM11.556 18.31c-0.147 0.161-0.258 0.275-0.363 0.396-0.679 0.788-1.143 1.686-1.347 2.712-0.029 0.148-0.090 0.18-0.226 0.18-2.661-0.003-5.322-0.001-7.984-0.004-0.516-0.001-0.835-0.339-0.836-0.878-0.003-1.581-0.001-3.162-0.001-4.743v-5.573h29.599v0.248c0 3.325 0 6.651 0 9.977-0 0.673-0.297 0.97-0.969 0.97-2.58 0-5.16-0.003-7.739 0.006-0.224 0.001-0.318-0.050-0.37-0.283-0.319-1.41-1.057-2.554-2.201-3.432-0.067-0.052-0.137-0.122-0.164-0.198-0.093-0.272-0.281-0.374-0.554-0.397-0.181-0.015-0.367-0.057-0.536-0.125-1.557-0.627-3.104-0.614-4.648 0.049-0.129 0.055-0.282 0.076-0.424 0.076-3.247 0.004-6.494 0.003-9.741 0.004-0.106 0-0.212-0.001-0.317 0.012-0.278 0.034-0.469 0.256-0.453 0.515 0.016 0.27 0.214 0.467 0.489 0.485 0.089 0.006 0.179 0.003 0.269 0.004h8.514z"></path>
<path fill="#fff" d="M17.506 21.261c-0.008-0.604-0.129-1.19-0.639-1.506-0.423-0.263-0.488-0.575-0.453-0.989 0.002-0.032-0.002-0.065-0.005-0.097-0.019-0.183-0.123-0.274-0.304-0.277-0.097-0.002-0.194-0.004-0.291 0-0.192 0.008-0.299 0.1-0.296 0.303 0.003 0.21 0.010 0.421-0.003 0.63-0.004 0.066-0.047 0.159-0.101 0.189-0.726 0.404-0.961 1.050-0.919 1.835 0.047 0.869 0.67 1.509 1.532 1.597 0.12 0.012 0.25 0.072 0.347 0.147 0.25 0.193 0.317 0.574 0.175 0.883-0.121 0.266-0.345 0.396-0.62 0.361-0.268-0.034-0.456-0.264-0.511-0.624-0.010-0.062-0.029-0.122-0.045-0.185h-0.85c-0.070 0.714 0.301 1.408 0.888 1.741 0.077 0.044 0.143 0.163 0.156 0.255 0.026 0.191 0.006 0.387 0.016 0.58 0.009 0.188 0.106 0.301 0.305 0.303 0.105 0.002 0.211 0.005 0.315-0.004 0.179-0.016 0.28-0.112 0.28-0.299-0.001-0.202-0.013-0.405 0.004-0.606 0.007-0.081 0.060-0.189 0.126-0.229 0.708-0.421 0.957-1.059 0.894-1.848-0.067-0.853-0.658-1.478-1.459-1.553-0.49-0.046-0.764-0.447-0.633-0.926 0.084-0.308 0.312-0.509 0.573-0.506 0.272 0.003 0.515 0.219 0.586 0.526 0.023 0.1 0.035 0.203 0.051 0.296h0.883zM15.991 17.6c2.652-0.010 4.799 2.151 4.809 4.838 0.009 2.586-2.165 4.753-4.787 4.762-2.646 0.009-4.881-2.144-4.812-4.974 0.059-2.43 2.082-4.611 4.789-4.626v0z"></path>
<path fill="#fff" d="M30.389 6.4h-29.58c0-0.277-0.023-0.543 0.005-0.802 0.045-0.422 0.342-0.737 0.697-0.784 0.089-0.011 0.179-0.014 0.268-0.014 9.213-0.001 18.426-0.001 27.639-0 0.56 0 0.894 0.262 0.965 0.796 0.034 0.256 0.006 0.525 0.006 0.804z"></path>
<path fill="#000" d="M10.796 14.401c2.564 0 5.127 0 7.691 0 0.082 0 0.164-0.003 0.246 0.003 0.25 0.016 0.441 0.164 0.465 0.356 0.023 0.186-0.114 0.356-0.349 0.41-0.1 0.023-0.209 0.030-0.314 0.030-5.143 0.001-10.287 0-15.43-0.001-0.114 0-0.232-0.002-0.34-0.025-0.23-0.048-0.38-0.226-0.363-0.406 0.019-0.191 0.208-0.344 0.458-0.363 0.089-0.007 0.18-0.004 0.27-0.004 2.555-0 5.111-0 7.666-0z"></path>
<path fill="#000" d="M17.592 21.263h-0.935c-0.017-0.093-0.030-0.195-0.054-0.295-0.075-0.306-0.332-0.521-0.62-0.524-0.276-0.003-0.517 0.197-0.606 0.504-0.139 0.477 0.152 0.878 0.67 0.924 0.848 0.075 1.473 0.699 1.544 1.55 0.066 0.787-0.198 1.423-0.947 1.843-0.070 0.039-0.126 0.148-0.133 0.228-0.018 0.2-0.005 0.403-0.004 0.604 0 0.187-0.107 0.283-0.296 0.298-0.11 0.009-0.222 0.005-0.333 0.004-0.21-0.003-0.313-0.115-0.322-0.303-0.010-0.193 0.011-0.389-0.017-0.579-0.013-0.092-0.083-0.211-0.165-0.254-0.621-0.333-1.014-1.025-0.94-1.737h0.899c0.017 0.063 0.038 0.123 0.048 0.184 0.059 0.359 0.257 0.588 0.541 0.622 0.291 0.035 0.528-0.095 0.656-0.36 0.15-0.308 0.080-0.688-0.186-0.881-0.102-0.074-0.24-0.134-0.367-0.146-0.912-0.088-1.571-0.727-1.621-1.593-0.045-0.783 0.203-1.427 0.972-1.83 0.057-0.030 0.103-0.122 0.107-0.188 0.013-0.209 0.006-0.419 0.003-0.628-0.003-0.203 0.111-0.294 0.314-0.302 0.102-0.004 0.205-0.002 0.308-0 0.192 0.003 0.302 0.094 0.322 0.276 0.003 0.032 0.008 0.065 0.006 0.097-0.037 0.413 0.032 0.724 0.48 0.986 0.54 0.316 0.668 0.9 0.676 1.502z"></path>
</svg>
