<!-- Generated by IcoMoon.io -->
<svg version="1.1" xmlns="http://www.w3.org/2000/svg" width="35" height="35" viewBox="0 0 32 32">
<title>pop_sms</title>
<path fill="#000" d="M23.924 16.050v-9.464c0-1.247-0.010-2.494 0.003-3.742 0.011-1.099-0.658-2.133-2.037-2.118-3.965 0.042-7.932 0.015-11.898 0.015-0.11 0-0.22 0.002-0.33 0.009-0.647 0.042-1.099 0.394-1.41 0.962-0.204 0.374-0.243 0.782-0.243 1.204 0.002 8.731 0.002 17.461 0.002 26.191 0 0.090-0.001 0.179 0.004 0.269 0.057 1.214 0.784 1.933 1.953 1.933 2.345 0 4.69 0 7.035 0 1.684 0 3.368-0.006 5.052 0.003 0.713 0.004 1.237-0.31 1.599-0.934 0.223-0.384 0.271-0.808 0.271-1.246-0.002-4.361-0.001-8.722-0.001-13.083zM7.467 16.026c0-4.426 0-8.851-0-13.277-0-0.902 0.341-1.625 1.042-2.161 0.353-0.269 0.753-0.407 1.189-0.408 4.178-0.003 8.356-0.007 12.533 0.001 1.070 0.002 2.023 0.915 2.188 2.057 0.030 0.209 0.047 0.421 0.047 0.632 0.002 8.778 0.002 17.555 0.002 26.334 0 1.042-0.371 1.884-1.273 2.39-0.292 0.164-0.656 0.265-0.987 0.266-4.162 0.017-8.324 0.016-12.486 0.009-1.2-0.002-2.197-1.070-2.251-2.371-0.006-0.155-0.005-0.31-0.005-0.464-0-4.336-0-8.672 0-13.008z"></path>
<path fill="#fff" d="M15.962 2.991c0.462-0.018 0.489-0.053 0.477-0.53-0.005-0.218-0.101-0.31-0.304-0.303-0.109 0.004-0.225-0.022-0.327 0.007-0.107 0.030-0.28 0.105-0.284 0.17-0.012 0.197 0.016 0.41 0.088 0.591 0.025 0.062 0.228 0.046 0.35 0.066v0zM15.976 29.871c0.149 0 0.299 0.004 0.448-0.001 0.295-0.009 0.461-0.16 0.478-0.457 0.014-0.243 0.015-0.489-0.002-0.732-0.019-0.278-0.175-0.428-0.445-0.437-0.322-0.010-0.645-0.010-0.966-0.001-0.281 0.008-0.438 0.164-0.454 0.454-0.013 0.235-0.013 0.473 0 0.708 0.016 0.3 0.179 0.455 0.471 0.464 0.157 0.005 0.314 0.001 0.472 0.001v0zM8.88 15.281c0 3.529-0 7.057 0 10.586 0 0.572 0.166 0.747 0.714 0.747 4.248 0.001 8.496 0.001 12.744 0 0.546-0 0.716-0.18 0.716-0.747 0-7.049 0-14.099 0-21.148 0-0.586-0.178-0.767-0.753-0.767-4.224 0-8.449 0-12.674 0-0.577 0-0.749 0.177-0.749 0.767 0 3.521 0 7.041 0 10.562v0zM23.924 16.050c0 4.361-0.001 8.722 0.001 13.083 0 0.438-0.048 0.862-0.271 1.246-0.362 0.624-0.886 0.937-1.599 0.933-1.684-0.009-3.368-0.003-5.052-0.003-2.345 0-4.69 0-7.035 0-1.169-0-1.896-0.72-1.953-1.933-0.004-0.090-0.004-0.179-0.004-0.269-0-8.73 0-17.46-0.002-26.191-0-0.422 0.038-0.83 0.243-1.204 0.311-0.569 0.763-0.92 1.41-0.962 0.11-0.007 0.22-0.009 0.33-0.009 3.966-0.001 7.932 0.027 11.898-0.015 1.379-0.014 2.048 1.019 2.037 2.118-0.012 1.247-0.003 2.494-0.003 3.742v9.464z"></path>
<path fill="#000" d="M9.431 26.035h13.068v-21.493h-13.068v21.493zM8.88 15.281c0-3.521 0-7.041 0-10.562 0-0.591 0.172-0.767 0.749-0.767 4.224-0 8.449-0 12.674 0 0.575 0 0.753 0.181 0.753 0.767 0 7.049 0 14.099 0 21.148 0 0.568-0.171 0.747-0.717 0.748-4.248 0.001-8.496 0.001-12.744 0-0.548-0-0.714-0.175-0.714-0.747-0-3.529-0-7.058-0-10.586v0z"></path>
<path fill="#000" d="M15.976 29.871c-0.157 0-0.315 0.004-0.472-0.001-0.292-0.010-0.455-0.165-0.471-0.464-0.013-0.235-0.013-0.473 0-0.708 0.016-0.29 0.174-0.446 0.454-0.454 0.322-0.009 0.645-0.010 0.967 0.001 0.27 0.009 0.427 0.159 0.445 0.437 0.016 0.243 0.015 0.488 0.002 0.732-0.017 0.298-0.183 0.448-0.478 0.457-0.149 0.005-0.299 0.001-0.448 0.001z"></path>
<path fill="#000" d="M15.962 2.991c-0.122-0.020-0.325-0.004-0.35-0.066-0.072-0.181-0.1-0.394-0.088-0.591 0.004-0.065 0.178-0.139 0.284-0.17 0.102-0.029 0.217-0.003 0.327-0.007 0.203-0.007 0.299 0.085 0.304 0.303 0.012 0.478-0.015 0.513-0.477 0.53z"></path>
<path fill="#fff" d="M9.431 26.035h13.068v-21.493h-13.068z"></path>
<path fill="#000" d="M19.24 13.526c-0.002-0.005-0.003-0.010-0.005-0.016h-6.686c0.038 0.027 0.059 0.044 0.082 0.058 1.069 0.678 2.138 1.356 3.205 2.036 0.053 0.034 0.088 0.029 0.138-0.002 0.782-0.499 1.564-0.995 2.347-1.492 0.306-0.194 0.613-0.389 0.919-0.584v0zM20.046 13.648c-0.041 0.024-0.070 0.041-0.098 0.059-1.321 0.839-2.642 1.677-3.962 2.518-0.058 0.037-0.1 0.043-0.162 0.003-1.273-0.811-2.548-1.619-3.822-2.427-0.038-0.024-0.077-0.047-0.121-0.074v4.81h8.165v-4.889zM15.952 12.969c1.429 0 2.858-0 4.287 0 0.236 0 0.329 0.094 0.329 0.337 0 1.815 0 3.631 0 5.446-0 0.231-0.096 0.33-0.316 0.33-2.855 0-5.709 0-8.564 0-0.224 0-0.319-0.101-0.32-0.337-0-1.841-0-3.681-0-5.522 0-0.164 0.089-0.254 0.252-0.254 1.444-0 2.888 0 4.332 0v0z"></path>
<path fill="#fff" d="M20.045 13.649v4.889h-8.165v-4.81c0.044 0.027 0.083 0.050 0.121 0.074 1.274 0.808 2.549 1.616 3.822 2.427 0.063 0.040 0.104 0.034 0.162-0.003 1.32-0.841 2.641-1.679 3.962-2.518 0.028-0.018 0.057-0.034 0.097-0.059z"></path>
<path fill="#fff" d="M19.24 13.526c-0.306 0.195-0.613 0.389-0.919 0.584-0.782 0.497-1.565 0.994-2.347 1.492-0.050 0.032-0.085 0.036-0.138 0.002-1.068-0.68-2.137-1.358-3.205-2.036-0.022-0.014-0.043-0.031-0.082-0.058h6.686c0.002 0.005 0.003 0.010 0.005 0.016z"></path>
</svg>
