<!-- Generated by IcoMoon.io -->
<svg version="1.1" xmlns="http://www.w3.org/2000/svg" width="32" height="32" viewBox="0 0 32 32">
<title>pop_parcel</title>
<path fill="#000" d="M21.445 9.468c-0.095-0.041-0.132-0.060-0.171-0.075-4.252-1.581-8.505-3.162-12.761-4.736-0.113-0.042-0.277-0.028-0.394 0.015-1.206 0.442-2.407 0.895-3.609 1.344-0.546 0.204-1.093 0.407-1.7 0.633 0.467 0.173 0.872 0.323 1.276 0.473 3.873 1.432 7.747 2.863 11.618 4.299 0.158 0.059 0.289 0.065 0.446 0.001 0.321-0.131 0.65-0.242 0.976-0.362 1.424-0.525 2.848-1.050 4.318-1.593v0zM29.031 6.654c-0.096-0.042-0.135-0.062-0.175-0.077-4.254-1.581-8.507-3.163-12.764-4.738-0.099-0.037-0.242-0.031-0.343 0.006-1.695 0.622-3.386 1.252-5.077 1.88-0.069 0.026-0.135 0.057-0.241 0.103 0.107 0.045 0.174 0.076 0.244 0.102 4.206 1.56 8.412 3.122 12.621 4.674 0.129 0.047 0.314 0.045 0.444-0.002 1.526-0.553 3.047-1.118 4.569-1.681 0.225-0.083 0.451-0.168 0.722-0.268v0zM30.345 7.676c-2.015 0.75-3.973 1.483-5.935 2.207-0.161 0.059-0.141 0.163-0.141 0.275-0 1.588 0 3.177-0.001 4.765 0 0.564-0.287 0.894-0.767 0.884-0.476-0.010-0.742-0.324-0.743-0.882-0.001-1.376 0-2.753-0.001-4.129 0-0.086-0.008-0.172-0.013-0.278-0.075 0.022-0.124 0.034-0.17 0.051-1.905 0.704-3.808 1.412-5.716 2.109-0.179 0.066-0.177 0.171-0.177 0.305 0.001 5.661 0.001 11.322 0.001 16.982 0 0.076 0.010 0.152 0.017 0.245 0.117-0.039 0.199-0.064 0.28-0.094 4.362-1.616 8.723-3.233 13.087-4.843 0.212-0.078 0.284-0.171 0.284-0.387-0.007-5.636-0.006-11.273-0.006-16.909v-0.301zM1.511 7.677v0.26c0 5.661 0.001 11.323-0.004 16.984-0 0.183 0.059 0.266 0.246 0.335 4.38 1.617 8.758 3.242 13.136 4.864 0.084 0.031 0.171 0.054 0.284 0.089v-0.306c0-5.613-0.002-11.225 0.007-16.838 0-0.243-0.076-0.35-0.319-0.44-3.42-1.261-6.836-2.533-10.253-3.802-1.015-0.377-2.032-0.752-3.097-1.147v0zM31.856 16.171v9.262c-0 0.581-0.112 0.735-0.695 0.951-4.922 1.828-9.845 3.655-14.764 5.488-0.323 0.12-0.614 0.12-0.937-0.001-4.936-1.839-9.875-3.672-14.813-5.506-0.525-0.195-0.645-0.358-0.645-0.882-0-6.223-0-12.447 0-18.671 0-0.515 0.132-0.694 0.645-0.885 4.938-1.834 9.877-3.666 14.813-5.507 0.325-0.121 0.614-0.121 0.937-0 4.936 1.838 9.875 3.671 14.813 5.506 0.509 0.189 0.648 0.377 0.648 0.884 0 3.12 0 6.24 0 9.36v0z"></path>
<path fill="#fff" d="M1.51 7.677c1.065 0.394 2.081 0.77 3.097 1.147 3.417 1.269 6.833 2.541 10.253 3.802 0.243 0.089 0.32 0.197 0.319 0.439-0.009 5.613-0.006 11.225-0.006 16.838v0.306c-0.113-0.035-0.201-0.058-0.284-0.090-4.378-1.622-8.756-3.247-13.136-4.864-0.187-0.069-0.246-0.152-0.246-0.335 0.005-5.661 0.004-11.323 0.004-16.984v-0.26z"></path>
<path fill="#fff" d="M30.345 7.676v0.301c0 5.636-0.001 11.273 0.006 16.909 0 0.215-0.072 0.309-0.284 0.387-4.364 1.61-8.725 3.228-13.086 4.843-0.081 0.030-0.164 0.055-0.28 0.094-0.007-0.093-0.017-0.169-0.017-0.245-0.001-5.66-0-11.321-0.002-16.982 0-0.134-0.002-0.239 0.177-0.305 1.908-0.697 3.811-1.405 5.716-2.109 0.046-0.018 0.095-0.029 0.171-0.051 0.005 0.107 0.013 0.193 0.013 0.278 0.001 1.377 0 2.753 0.001 4.13 0 0.558 0.266 0.872 0.743 0.881 0.48 0.010 0.767-0.32 0.767-0.884 0.001-1.588 0-3.176 0-4.765 0-0.111-0.020-0.215 0.141-0.275 1.962-0.725 3.92-1.457 5.935-2.207z"></path>
<path fill="#fff" d="M29.031 6.654c-0.271 0.101-0.496 0.185-0.722 0.268-1.522 0.563-3.043 1.128-4.569 1.681-0.13 0.047-0.315 0.050-0.444 0.002-4.209-1.553-8.415-3.114-12.621-4.674-0.070-0.026-0.138-0.057-0.244-0.102 0.106-0.046 0.172-0.077 0.241-0.103 1.691-0.628 3.382-1.258 5.077-1.88 0.101-0.037 0.244-0.043 0.343-0.006 4.256 1.575 8.51 3.157 12.764 4.738 0.041 0.015 0.079 0.035 0.175 0.077z"></path>
<path fill="#fff" d="M21.445 9.468c-1.47 0.542-2.894 1.068-4.318 1.593-0.326 0.12-0.655 0.231-0.976 0.362-0.157 0.064-0.288 0.058-0.446-0.001-3.871-1.436-7.745-2.867-11.618-4.299-0.405-0.15-0.81-0.3-1.276-0.473 0.607-0.226 1.154-0.429 1.7-0.633 1.202-0.45 2.404-0.903 3.609-1.344 0.117-0.043 0.281-0.057 0.394-0.015 4.256 1.573 8.508 3.155 12.761 4.736 0.039 0.015 0.076 0.033 0.171 0.075z"></path>
</svg>
