<!-- Generated by IcoMoon.io -->
<svg version="1.1" xmlns="http://www.w3.org/2000/svg" width="32" height="32" viewBox="0 0 32 32">
<title>pop_location</title>
<path fill="#fcfcfc" d="M31.183 28.627c0 1.385-6.866 2.507-15.336 2.507s-15.336-1.123-15.336-2.507c0-1.385 6.866-2.507 15.336-2.507s15.336 1.122 15.336 2.507z"></path>
<path fill="#000" d="M15.847 26.614c-10.079 0-14.628 1.43-14.827 2.026 0.198 0.57 4.748 2 14.827 2 10.005 0 14.561-1.41 14.821-2.013-0.26-0.604-4.816-2.013-14.821-2.013zM15.847 31.629c-0.647 0-15.847-0.034-15.847-3.002s15.201-3.002 15.847-3.002c0.647 0 15.847 0.034 15.847 3.002s-15.2 3.002-15.847 3.002z"></path>
<path fill="#fff" d="M25.023 9.941c-0.017 1.801-0.587 3.434-1.447 4.998-2.446 4.451-4.881 8.908-7.319 13.364-0.089 0.161-0.173 0.318-0.398 0.324-0.237 0.006-0.33-0.153-0.424-0.325-2.495-4.561-5.009-9.112-7.485-13.683-1.629-3.007-1.705-6.103-0.215-9.162 1.281-2.633 3.529-4.147 6.477-4.63 2.481-0.407 4.82 0.016 6.914 1.416 1.947 1.301 3.099 3.127 3.577 5.348 0.166 0.771 0.217 1.565 0.32 2.349z"></path>
<path fill="#000" d="M23.585 12.694c-0.308 0.846-0.754 1.668-1.186 2.462l-0.052 0.098c-1.602 2.949-3.215 5.893-4.827 8.837l-1.673 3.054-2.025-3.694c-1.662-3.033-3.382-6.168-5.060-9.259-1.477-2.724-1.543-5.553-0.191-8.407 0.989-2.091 2.728-3.423 5.166-3.959 0.771-0.17 1.519-0.254 2.242-0.254 1.835 0 3.509 0.546 4.995 1.634 1.29 0.944 2.179 2.234 2.642 3.835 0.603 2.086 0.593 3.935-0.031 5.653v0zM25.192 9.92c-0.033-0.244-0.059-0.489-0.086-0.734-0.059-0.536-0.121-1.090-0.236-1.627-0.503-2.335-1.73-4.169-3.647-5.45-2.071-1.383-4.439-1.868-7.039-1.443-3.103 0.509-5.325 2.098-6.603 4.723-1.515 3.112-1.441 6.244 0.219 9.308 1.69 3.121 3.426 6.283 5.106 9.342 0.794 1.447 1.588 2.893 2.38 4.341 0.090 0.165 0.226 0.412 0.562 0.412 0.006 0 0.012 0 0.018 0 0.323-0.008 0.449-0.239 0.544-0.412l1.836-3.356c1.826-3.337 3.651-6.674 5.483-10.007 0.985-1.793 1.451-3.405 1.467-5.075l-0.002-0.022z"></path>
<path fill="#fff" d="M15.847 13.558c2.279-0.008 4.181-1.827 4.176-3.994-0.005-2.306-1.861-4.105-4.228-4.099-2.208 0.006-4.111 1.837-4.138 3.905-0.032 2.353 1.878 4.199 4.19 4.189z"></path>
<path fill="#000" d="M15.859 6.208c-1.879-0.010-3.43 1.467-3.435 3.273-0.005 1.842 1.504 3.328 3.393 3.34s3.45-1.473 3.454-3.286c0.005-1.832-1.519-3.317-3.412-3.327zM15.847 13.558c-2.312 0.010-4.222-1.836-4.191-4.189 0.028-2.067 1.93-3.899 4.139-3.905 2.366-0.006 4.223 1.794 4.228 4.099 0.005 2.168-1.897 3.986-4.176 3.994z"></path>
<path fill="none" stroke="#000" stroke-width="0.8" stroke-miterlimit="4" stroke-linecap="butt" stroke-linejoin="miter" d="M15.859 6.208c-1.879-0.010-3.43 1.467-3.435 3.273-0.005 1.842 1.504 3.328 3.393 3.34s3.45-1.473 3.454-3.286c0.005-1.832-1.519-3.317-3.412-3.327zM15.847 13.558c-2.312 0.010-4.222-1.836-4.191-4.189 0.028-2.067 1.93-3.899 4.139-3.905 2.366-0.006 4.223 1.794 4.228 4.099 0.005 2.168-1.897 3.986-4.176 3.994z"></path>
</svg>
