<!-- Generated by IcoMoon.io -->
<svg version="1.1" xmlns="http://www.w3.org/2000/svg" width="35" height="35" viewBox="0 0 32 32">
<title>pop_scan_barcode</title>
<path fill="#000" d="M23.933 16.068v-9.463c0-1.247-0.010-2.494 0.003-3.741 0.011-1.099-0.659-2.133-2.038-2.118-3.968 0.042-7.936 0.015-11.904 0.015-0.11 0-0.22 0.002-0.33 0.009-0.647 0.042-1.099 0.394-1.411 0.962-0.205 0.374-0.243 0.782-0.243 1.204 0.003 8.73 0.002 17.46 0.002 26.189 0 0.090-0 0.179 0.004 0.269 0.057 1.214 0.784 1.933 1.954 1.933 2.346 0 4.692 0 7.039 0 1.685 0 3.37-0.006 5.055 0.003 0.713 0.004 1.237-0.31 1.6-0.933 0.223-0.384 0.271-0.808 0.271-1.246-0.002-4.361-0.001-8.722-0.001-13.082zM7.467 16.044c0-4.425 0.001-8.85-0.001-13.276-0-0.902 0.341-1.625 1.043-2.161 0.353-0.27 0.753-0.408 1.189-0.408 4.18-0.003 8.36-0.006 12.54 0.002 1.070 0.002 2.024 0.915 2.19 2.057 0.030 0.209 0.047 0.421 0.047 0.632 0.002 8.777 0.002 17.554 0.003 26.332 0 1.042-0.371 1.884-1.273 2.39-0.292 0.164-0.656 0.264-0.988 0.266-4.164 0.017-8.329 0.016-12.493 0.009-1.201-0.002-2.198-1.070-2.252-2.371-0.006-0.155-0.004-0.31-0.004-0.465-0-4.336-0-8.671-0-13.007z"></path>
<path fill="#fff" d="M15.966 3.011c0.462-0.018 0.489-0.053 0.478-0.53-0.006-0.218-0.101-0.31-0.305-0.303-0.109 0.004-0.225-0.022-0.327 0.007-0.107 0.030-0.28 0.105-0.284 0.17-0.012 0.197 0.016 0.41 0.088 0.591 0.024 0.061 0.228 0.046 0.35 0.066v0zM15.98 29.888c0.149 0 0.299 0.004 0.448-0.001 0.295-0.009 0.461-0.16 0.478-0.457 0.014-0.243 0.015-0.489-0.002-0.732-0.019-0.278-0.175-0.428-0.446-0.437-0.322-0.010-0.645-0.010-0.967-0.001-0.281 0.008-0.438 0.165-0.455 0.454-0.013 0.235-0.012 0.473 0 0.708 0.016 0.299 0.179 0.454 0.471 0.464 0.157 0.006 0.314 0.001 0.472 0.001v0zM8.881 15.299c0 3.528 0 7.057 0 10.586 0 0.572 0.166 0.747 0.715 0.747 4.251 0.001 8.501 0.001 12.751 0 0.546 0 0.717-0.18 0.717-0.747 0-7.049 0-14.098 0-21.146 0-0.586-0.178-0.767-0.753-0.767-4.227-0-8.454-0-12.681 0-0.577 0-0.749 0.177-0.749 0.767-0 3.52-0 7.041-0 10.561v0zM23.933 16.068c0 4.361-0.001 8.722 0.001 13.082 0 0.438-0.048 0.862-0.271 1.246-0.362 0.623-0.886 0.937-1.6 0.933-1.685-0.009-3.37-0.003-5.055-0.003-2.346 0-4.692 0-7.039 0-1.17-0-1.897-0.72-1.954-1.933-0.004-0.090-0.004-0.179-0.004-0.269-0-8.73 0.001-17.459-0.002-26.189 0-0.422 0.038-0.83 0.243-1.204 0.312-0.569 0.764-0.92 1.411-0.962 0.11-0.007 0.22-0.009 0.33-0.009 3.968-0 7.937 0.027 11.904-0.015 1.38-0.015 2.049 1.019 2.038 2.118-0.012 1.247-0.003 2.494-0.003 3.741v9.463z"></path>
<path fill="#000" d="M9.432 26.053h13.075v-21.492h-13.075v21.492zM8.881 15.299c0-3.52 0-7.041 0-10.561 0-0.591 0.172-0.767 0.749-0.767 4.227-0 8.454-0 12.681 0 0.575 0 0.753 0.181 0.753 0.767 0 7.049 0 14.098 0 21.146 0 0.568-0.171 0.747-0.717 0.747-4.251 0.001-8.501 0.001-12.751 0-0.549 0-0.715-0.175-0.715-0.747-0-3.528-0-7.057-0-10.586v0z"></path>
<path fill="#000" d="M15.98 29.888c-0.157 0-0.315 0.004-0.472-0.001-0.292-0.010-0.456-0.165-0.471-0.465-0.012-0.235-0.013-0.473 0-0.708 0.016-0.29 0.174-0.446 0.455-0.454 0.322-0.009 0.645-0.009 0.967 0.001 0.27 0.008 0.427 0.159 0.446 0.437 0.016 0.243 0.015 0.489 0.002 0.732-0.017 0.297-0.183 0.448-0.478 0.457-0.149 0.005-0.299 0.001-0.448 0.001z"></path>
<path fill="#000" d="M15.966 3.011c-0.122-0.020-0.325-0.004-0.35-0.066-0.072-0.181-0.1-0.394-0.088-0.591 0.004-0.064 0.178-0.139 0.284-0.17 0.102-0.029 0.218-0.003 0.327-0.007 0.203-0.007 0.299 0.085 0.305 0.303 0.012 0.478-0.015 0.513-0.478 0.53z"></path>
<path fill="#fff" d="M9.432 26.053h13.075v-21.492h-13.075z"></path>
<path fill="#000" d="M15.14 18.546h0.978v-4.985h-0.978z"></path>
<path fill="#000" d="M17.841 18.546h0.978v-4.982h-0.978z"></path>
<path fill="#000" d="M13.028 18.545h0.484v-4.982h-0.484z"></path>
<path fill="#000" d="M14.075 18.546h0.484v-4.984h-0.484z"></path>
<path fill="#000" d="M16.712 13.562h0.481v4.989c-0.136 0-0.27 0-0.404-0-0.024 0-0.048-0.003-0.077-0.005v-4.984z"></path>
<path fill="#000" d="M11.656 17.974h0.492v0.094c0 0.332-0 0.665 0 0.997 0 0.172 0.097 0.29 0.265 0.293 0.401 0.007 0.802 0.005 1.202 0.006 0.035 0 0.071 0 0.113 0v0.512h-0.083c-0.398 0-0.796 0.001-1.194-0-0.371-0.001-0.684-0.238-0.773-0.582-0.011-0.041-0.022-0.084-0.022-0.125-0.002-0.395-0.001-0.789-0.001-1.194z"></path>
<path fill="#000" d="M12.149 14.241h-0.494v-0.328c0-0.335-0.001-0.671 0-1.006 0.002-0.472 0.336-0.819 0.789-0.819 0.321-0 0.642-0 0.964 0 0.027 0 0.053 0.002 0.084 0.004v0.508h-0.089c-0.318 0-0.637-0-0.955 0-0.184 0-0.296 0.112-0.297 0.307-0.003 0.412-0.001 0.824-0.001 1.236v0.098z"></path>
<path fill="#000" d="M18.454 20.001v-0.512h0.234c0.269 0 0.538 0 0.807 0 0.187-0 0.3-0.116 0.3-0.314 0.002-0.406 0.001-0.813 0.001-1.219v-0.106h0.49c0.002 0.022 0.004 0.038 0.004 0.055 0 0.426 0.003 0.853-0.001 1.279-0.004 0.421-0.273 0.749-0.66 0.811-0.032 0.005-0.065 0.006-0.098 0.006-0.327 0-0.653 0-0.98 0h-0.097z"></path>
<path fill="#000" d="M20.29 14.114h-0.494v-0.317c0-0.25-0.007-0.501 0.002-0.751 0.008-0.216-0.143-0.325-0.319-0.325-0.302 0-0.604 0-0.906 0h-0.359v-0.499c0.008-0.006 0.010-0.009 0.012-0.009 0.464 0.003 0.929-0.014 1.391 0.015 0.395 0.025 0.671 0.371 0.673 0.78 0.002 0.366 0.001 0.732 0.001 1.105z"></path>
</svg>
