<!-- Generated by IcoMoon.io -->
<svg version="1.1" xmlns="http://www.w3.org/2000/svg" width="32" height="32" viewBox="0 0 32 32">
<title>print</title>
<path d="M23.28 30h-14.56c0 0 0 0-0.093 0-0.933-0.28-1.4-0.84-1.4-1.867v-5.133h-3.547c-0.747 0-1.4-0.467-1.68-1.213 0.093-0.093 0-0.187 0-0.187v-12.88c0 0 0 0 0-0.093 0.28-0.933 0.84-1.4 1.867-1.4h3.36v-3.453c0-0.84 0.467-1.493 1.307-1.68l0.093-0.093h14.747c0.933 0.28 1.4 0.84 1.4 1.867v3.36h3.547c0.747 0 1.4 0.467 1.587 1.213 0 0.093 0.093 0.187 0.093 0.28v12.88c-0.28 0.933-0.84 1.4-1.867 1.4h-3.36v5.32c0 0.747-0.56 1.493-1.307 1.68h-0.187zM28.227 9h-24.453v12.227h3.453v-1.773h-0.747c-0.56 0-0.933-0.373-0.933-0.84 0-0.56 0.373-0.84 0.933-0.84h19.040c0.56 0 0.933 0.373 0.933 0.84s-0.373 0.84-0.933 0.84h-0.747v1.773h3.453v-12.227zM23 19.547h-14v8.68h14v-8.68zM23 3.773h-14v3.453h14v-3.453z"></path>
<path d="M24.773 13.387c0 0.467-0.373 0.84-0.933 0.84-0.467 0-0.84-0.373-0.84-0.84s0.373-0.84 0.933-0.84c0.467 0 0.84 0.373 0.84 0.84z"></path>
<path d="M16 21.227h4.293c0.56 0 1.027 0.373 1.027 0.933s-0.373 0.84-1.027 0.84h-8.587c-0.56 0-0.933-0.373-0.933-0.84 0-0.56 0.373-0.933 0.933-0.933h4.293z"></path>
<path d="M16 26.453h-4.387c-0.467 0-0.84-0.373-0.84-0.747-0.093-0.467 0.187-0.84 0.653-0.933h8.96c0.467 0 0.84 0.373 0.933 0.747 0.093 0.467-0.28 0.84-0.653 0.933h-0.373c-1.493 0.093-2.893 0.093-4.293 0 0 0.093 0 0 0 0z"></path>
</svg>
