<!-- Generated by IcoMoon.io -->
<svg version="1.1" xmlns="http://www.w3.org/2000/svg" width="32" height="32" viewBox="0 0 32 32">
<title>processing</title>
<path d="M14.999 8.935h1.779v-4.935h-1.779z"></path>
<path d="M14.999 27.777h1.779v-4.935h-1.779z"></path>
<path d="M11.642 10.311l-2.468-4.274 1.54-0.889 2.468 4.274z"></path>
<path d="M21.063 26.628l-2.468-4.274 1.54-0.889 2.468 4.274z"></path>
<path d="M9.422 13.182l-4.274-2.468 0.889-1.54 4.274 2.468z"></path>
<path d="M25.74 22.602l-4.274-2.468 0.889-1.54 4.274 2.468z"></path>
<path d="M4 16.778h4.935v-1.779h-4.935z"></path>
<path d="M22.842 16.778h4.935v-1.779h-4.935z"></path>
<path d="M6.037 22.602l-0.889-1.54 4.274-2.468 0.889 1.54z"></path>
<path d="M22.355 13.182l-0.889-1.54 4.274-2.468 0.889 1.54z"></path>
<path d="M10.714 26.628l-1.54-0.889 2.468-4.274 1.54 0.889z"></path>
<path d="M20.135 10.311l-1.54-0.889 2.468-4.274 1.54 0.889z"></path>
</svg>
