<!-- Generated by IcoMoon.io -->
<svg version="1.1" xmlns="http://www.w3.org/2000/svg" width="32" height="32" viewBox="0 0 32 32">
<title>purchase</title>
<path d="M15.518 2.4l-6.616 4.729h-5.226l-1.676 21.777h27.347l-1.675-21.777h-5.537l-6.617-4.729zM15.518 4.312l3.943 2.817h-7.884l3.941-2.817zM5.116 8.683h21.116l1.435 18.667h-23.987l1.436-18.667z"></path>
<path d="M16.023 12.379c0.064-0.464 0.199-0.909 0.318-1.362-0.040 0.026-0.067 0.058-0.088 0.091-1.368 2.143-1.821 4.451-1.274 6.946 0.261 1.19 0.422 2.396 0.429 3.613 0.006 1.137-0.126 2.26-0.524 3.351 0.020-0.021 0.044-0.041 0.059-0.065 1.066-1.774 1.699-3.672 1.648-5.769-0.026-1.080-0.34-2.112-0.475-3.174-0.152-1.207-0.26-2.413-0.093-3.63z"></path>
</svg>
