<svg xmlns="http://www.w3.org/2000/svg" viewBox="0 0 72 15">
  <path d="M6.5 10.36c-.1 0-.22-.05-.32-.13L3.88 8.2c-.2-.2-.22-.5-.04-.72.18-.2.5-.22.7-.04L6.5 9.16l4.15-4.46c.2-.2.5-.2.7-.03.2.2.22.5.03.7l-4.5 4.83c-.1.1-.23.16-.37.16z"/>
  <path d="M7.3 14.8c-4 0-7.3-3.26-7.3-7.3C0 3.47 3.28.2 7.3.2c4.04 0 7.32 3.27 7.32 7.3 0 4.03-3.28 7.3-7.3 7.3zm0-13.6C3.84 1.2 1 4 1 7.5s2.83 6.3 6.3 6.3 6.32-2.82 6.32-6.3-2.83-6.3-6.3-6.3zm16.97 6.82h-2.03V6.94h2.03V4.9h1.08v2.04h2.04v1.08h-2.1v2.03h-1.1V8.02zM29.4 9.1c.14.74.62 1.2 1.28 1.2.77 0 1.37-.63 1.37-1.44 0-.77-.63-1.4-1.36-1.4-.5 0-.8.14-1.1.56l-1.3-.35.7-4.2h3.6v1.36h-2.5l-.3 1.5c.3-.18.6-.25 1-.25 1.4 0 2.6 1.26 2.6 2.77 0 1.56-1.3 2.8-2.8 2.8-1.5 0-2.7-1.16-2.8-2.54h1.4zm8.23-5.64h2.02c1.14 0 1.54.08 2.03.4.7.44 1.08 1.18 1.08 2.04 0 .88-.4 1.7-1.07 2.15-.5.32-.9.38-2.1.38h-.5v3.07h-1.5V3.46zm1.97 3.58c.45 0 .76-.04 1-.12.4-.15.67-.56.67-1 0-.45-.26-.82-.68-.97-.3-.08-.4-.1-1-.1H39v2.2h.5zm7.97-3.74c2.32 0 4.2 1.88 4.2 4.18s-1.88 4.18-4.2 4.18c-2.35 0-4.2-1.86-4.2-4.23 0-2.24 1.9-4.12 4.2-4.12zm.02 6.97c1.4 0 2.6-1.25 2.6-2.8S49 4.7 47.5 4.7s-2.72 1.25-2.72 2.76c0 1.56 1.2 2.8 2.73 2.8zm5.3-6.8h1.5v8.03h-1.5V3.46zm3.1 0h1.7L61 9.32V3.46h1.5v8.04H61l-3.37-5.84v5.84h-1.5V3.46zm8.9 1.4h-1.5v-1.4H68v1.4h-1.5v6.62H65V4.8zm6.8.72c-.1-.6-.4-.9-.9-.9s-.8.3-.8.8c0 .2.1.5.3.6.2.1.3.2 1 .5.7.2 1 .4 1.3.7.5.4.8 1 .8 1.7s-.25 1.3-.74 1.8c-.5.5-1.18.8-1.86.8-.8 0-1.6-.4-2.1-1-.33-.5-.5-.9-.5-1.5h1.6c0 .6.44 1 1.1 1 .63 0 1.1-.4 1.1-1s-.2-.8-1-1.1c-1.16-.4-1.36-.5-1.7-.86-.4-.4-.67-1.05-.67-1.65 0-1.2 1.07-2.3 2.36-2.3.7 0 1.4.4 1.84.9.34.4.5.8.52 1.4h-1.6z"/>
</svg>