<svg xmlns="http://www.w3.org/2000/svg" viewBox="-2 0 74 15">
  <path d="M22 3.43h2.03c1.14 0 1.53.07 2.03.4.7.44 1.08 1.17 1.08 2.03 0 .88-.4 1.7-1.07 2.15-.47.4-.82.4-2.06.4h-.5v3.1H22V3.48zM23.97 7c.46 0 .77-.03 1-.12.4-.14.68-.56.68-1s-.26-.82-.68-.96c-.26-.1-.34-.1-.94-.1h-.54V7h.4zm4.13-3.57h4.33v1.4H29.6v1.95h2.7v1.4h-2.7v1.9h2.83v1.4H28.1V3.42zm5.54 0h1.7l3.34 5.85V3.43h1.5v8.04H38.5l-3.37-5.85v5.85h-1.5V3.43zm8.02 0h1.82c1.2 0 2.16.2 2.85.6 1.07.65 1.78 2 1.78 3.44 0 1.5-.7 2.9-2 3.5-.6.35-1.4.5-2.5.5h-1.9V3.42zm1.8 6.64c.95 0 1.47-.1 1.97-.4.74-.44 1.2-1.26 1.2-2.2 0-.95-.5-1.84-1.27-2.28-.46-.3-1.05-.4-1.93-.4h-.28V10h.3zm5.9-6.64h1.5v8.04h-1.5V3.43zm3.16 0h1.7l3.34 5.85V3.43h1.48v8.04h-1.66L54 5.62v5.85h-1.48V3.43zm16.3 3.95c0 .97-.23 1.75-.75 2.48-.8 1.1-2.13 1.76-3.5 1.76-2.38 0-4.3-1.86-4.3-4.17 0-2.3 1.92-4.18 4.27-4.18 1.7 0 3.38 1.08 3.9 2.5h-1.78c-.48-.7-1.28-1.1-2.15-1.1-.7 0-1.4.3-1.9.82-.46.4-.8 1.2-.8 1.9 0 1.54 1.27 2.75 2.86 2.75 1 0 1.9-.56 2.38-1.46h-3.4V7.3h5.25zM7.3 14.76c-4.02 0-7.3-3.28-7.3-7.3S3.28.12 7.3.12c4.04 0 7.32 3.28 7.32 7.32s-3.28 7.3-7.3 7.3zm0-13.63C3.84 1.13 1 3.97 1 7.45s2.83 6.3 6.3 6.3 6.32-2.82 6.32-6.3-2.83-6.32-6.3-6.32z"/>
  <path d="M11.32 7.95h-4c-.28 0-.5-.23-.5-.5V3.42c0-.28.22-.5.5-.5s.5.22.5.5v3.53h3.5c.28 0 .5.22.5.5 0 .27-.22.5-.5.5z"/>
</svg>