<!-- Generated by IcoMoon.io -->
<svg version="1.1" xmlns="http://www.w3.org/2000/svg" width="32" height="32" viewBox="0 0 32 32">
<title>reviews</title>
<path d="M5.431 4.545c-0.916 0-1.334 0.969-1.334 1.869v14.080c0 0.9 0.417 1.869 1.334 1.869h13.305l4.876 3.617v-3.617h2.908c0.917 0 1.335-0.969 1.335-1.869v-14.080c0-0.9-0.417-1.869-1.335-1.869h-21.089zM25.309 29.353l-7.134-5.292h-12.744c-1.756 0-3.031-1.5-3.031-3.566v-14.080c0-2.066 1.274-3.566 3.031-3.566h21.089c1.756 0 3.032 1.5 3.032 3.566v14.080c0 2.066-1.275 3.566-3.032 3.566h-1.211v5.292z"></path>
<path d="M20.337 19.919l-4.361-2.293-4.36 2.293 0.832-4.857-3.528-3.439 4.876-0.709 2.18-4.418 2.181 4.418 4.876 0.709-3.528 3.439z"></path>
</svg>
