<svg xmlns="http://www.w3.org/2000/svg" viewBox="-2 0 74 15">
  <path fill="#000102" d="M7.3 14.8c-4 0-7.3-3.26-7.3-7.3C0 3.47 3.28.2 7.3.2c4.04 0 7.32 3.27 7.32 7.3 0 4.03-3.28 7.3-7.3 7.3zm0-13.6C3.84 1.2 1 4 1 7.5s2.83 6.3 6.3 6.3 6.32-2.82 6.32-6.3-2.83-6.3-6.3-6.3z"/>
  <path fill="#000102" d="M4.2 4c-.28.03-.5.3-.46.58 0 .12.07.23.15.32l2.6 2.6-2.6 2.6c-.3.2-.3.52-.1.74.2.2.5.23.7.04v-.05l2.6-2.6 2.6 2.6c.2.22.5.25.7.05.2-.18.2-.52 0-.73 0-.02-.06-.04-.07-.05L7.9 7.5l2.6-2.6c.2-.2.2-.54 0-.75-.1-.1-.27-.17-.43-.15-.1.02-.23.07-.3.16l-2.6 2.6-2.6-2.6A.509.509 0 0 0 4.13 4zM22 3.43h2.46c.96 0 1.56.18 2.05.6.6.5.9 1.16.9 1.88 0 .8-.3 1.6-.8 2-.3.3-.6.5-1.2.6l2.2 3h-1.8l-2.2-3.1v3.1H22v-8zm2.44 3.84c.9 0 1.44-.47 1.44-1.24 0-.73-.57-1.2-1.43-1.2h-.96v2.44h.9zm4.06-3.84h4.34v1.4H30v1.95h2.72v1.4H30v1.9h2.84v1.4H28.5V3.4zm9.22 5.74c0 .75-.13 1.2-.47 1.63-.4.53-1.03.82-1.72.82-.64 0-1.26-.27-1.7-.73-.33-.4-.46-.7-.52-1.4h1.5c.1.4.4.6.7.6.5 0 .8-.4.8-1V3.4h1.5v5.74zm1.4-5.74h4.34v1.4H40.6v1.95h2.74v1.4H40.6v1.9h2.86v1.4h-4.33V3.4zm13.18 5.8c-.6 1.43-2.1 2.4-3.72 2.4-2.3 0-4.2-1.92-4.2-4.22 0-2.2 1.88-4.1 4.18-4.1.97 0 1.88.4 2.63 1 .5.5.8.9 1.1 1.5h-1.7c-.6-.7-1.3-1-2.2-1-1.4 0-2.7 1.3-2.7 2.8s1.2 2.8 2.7 2.8c.7 0 1.3-.3 2-1h1.7zm1.84-4.4h-1.5v-1.4h4.47v1.4h-1.4v6.63h-1.5V4.83zm3.84-1.4h4.33v1.4h-2.8v1.95h2.8v1.4h-2.8v1.9h2.9v1.4H58V3.4zm5.54 0h1.82c1.2 0 2.16.2 2.85.6 1 .65 1.7 2 1.7 3.44 0 1.5-.8 2.9-2 3.5-.7.35-1.5.5-2.6.5h-1.8V3.42zm1.8 6.64c.95 0 1.48-.1 1.97-.4.7-.44 1.2-1.26 1.2-2.2 0-.95-.5-1.84-1.3-2.28-.5-.3-1.1-.4-2-.4H65V10h.32z"/>
</svg>