<!-- Generated by IcoMoon.io -->
<svg version="1.1" xmlns="http://www.w3.org/2000/svg" width="32" height="32" viewBox="0 0 32 32">
<title>rewards_boutique</title>
<path d="M22.47 3.514c0.714 0 1.346 0.428 1.61 1.091 0.356 0.888-0.079 1.899-0.966 2.253-0.644 0.258-3.429 0.409-5.857 0.474 1.803-1.626 3.925-3.436 4.57-3.694 0.207-0.083 0.422-0.124 0.642-0.124v0zM6.319 4.605c0.265-0.663 0.897-1.091 1.61-1.091 0.22 0 0.436 0.042 0.643 0.124 0.645 0.258 2.767 2.067 4.57 3.694-2.428-0.064-5.213-0.216-5.857-0.474-0.888-0.354-1.322-1.365-0.966-2.253v0zM3.514 13.358v-3.408c0-0.417 0.34-0.757 0.757-0.757h10.366v4.922h-10.366c-0.171 0-0.321-0.067-0.448-0.163-0.182-0.139-0.309-0.347-0.309-0.594v0zM5.281 27.475v-11.846h9.356v12.603h-8.599c-0.417 0-0.757-0.34-0.757-0.757v0zM25.975 27.475c0 0.417-0.339 0.757-0.757 0.757h-9.068v-12.603h9.825v11.846zM27.742 13.358c0 0.247-0.126 0.456-0.309 0.594-0.126 0.095-0.277 0.163-0.448 0.163h-10.835v-4.922h10.835c0.417 0 0.757 0.34 0.757 0.757v3.408zM26.985 7.679h-2.383c1.004-0.882 1.408-2.326 0.884-3.636-0.496-1.241-1.68-2.043-3.016-2.043-0.413 0-0.818 0.079-1.204 0.232-1.183 0.473-4.672 3.638-6.066 4.928-1.394-1.29-4.883-4.455-6.066-4.928-0.386-0.154-0.791-0.232-1.204-0.232-1.336 0-2.52 0.802-3.016 2.043-0.524 1.31-0.12 2.754 0.884 3.636h-1.526c-1.252 0-2.27 1.019-2.27 2.27v3.408c0 1.078 0.757 1.98 1.767 2.21v11.907c0 1.252 1.019 2.27 2.27 2.27h19.181c1.252 0 2.27-1.019 2.27-2.27v-11.907c1.009-0.23 1.767-1.131 1.767-2.21v-3.408c0-1.252-1.018-2.27-2.27-2.27v0z"></path>
</svg>
