<!-- Generated by IcoMoon.io -->
<svg version="1.1" xmlns="http://www.w3.org/2000/svg" width="32" height="32" viewBox="0 0 32 32">
<title>sale</title>
<path d="M15.736 3.794c-0.295 0-0.573 0.079-0.764 0.216l-7.009 5.057c-0.466 0.335-0.889 1.164-0.889 1.738v16.315c0 0.406 0.331 0.737 0.737 0.737h15.851c0.406 0 0.737-0.331 0.737-0.737v-16.315c0-0.574-0.424-1.403-0.889-1.738l-7.009-5.057c-0.191-0.137-0.469-0.216-0.764-0.216zM23.661 29.331h-15.851c-1.219 0-2.211-0.991-2.211-2.211v-16.315c0-1.055 0.645-2.316 1.501-2.933l7.009-5.057c0.884-0.638 2.368-0.638 3.252 0l7.009 5.057c0.855 0.617 1.501 1.878 1.501 2.933v16.315c0 1.219-0.992 2.211-2.211 2.211z"></path>
<path d="M15.736 7.656c-0.344 0-0.624 0.28-0.624 0.624s0.28 0.624 0.624 0.624c0.344 0 0.624-0.28 0.624-0.624s-0.28-0.624-0.624-0.624zM15.736 10.378c-1.157 0-2.098-0.941-2.098-2.098s0.941-2.098 2.098-2.098c1.157 0 2.098 0.941 2.098 2.098s-0.941 2.098-2.098 2.098z"></path>
<path d="M20.517 21.71c0-1.071-0.416-1.636-1.175-1.636-0.743 0-1.175 0.535-1.175 1.621s0.416 1.636 1.175 1.636c0.744 0 1.175-0.535 1.175-1.621v0zM16.858 21.74c0-1.592 0.908-2.663 2.484-2.663s2.454 0.952 2.454 2.603c0 1.667-0.893 2.648-2.469 2.648s-2.469-0.922-2.469-2.588v0zM11.815 23.628l6.961-10.233 1.145 0.699-7.005 10.293-1.101-0.759zM13.6 16.177c0-1.071-0.416-1.637-1.175-1.637-0.743 0-1.175 0.536-1.175 1.622s0.416 1.636 1.175 1.636c0.744 0 1.175-0.535 1.175-1.621v0zM9.941 16.206c0-1.591 0.908-2.662 2.484-2.662s2.454 0.952 2.454 2.603c0 1.665-0.892 2.647-2.469 2.647s-2.469-0.923-2.469-2.589v0z"></path>
</svg>
