<!-- Generated by IcoMoon.io -->
<svg version="1.1" xmlns="http://www.w3.org/2000/svg" width="32" height="32" viewBox="0 0 32 32">
<title>scan</title>
<path d="M7.263 20.685h2.323v-13.485h-2.323z"></path>
<path d="M11.3 20.685h1.549v-13.485h-1.549z"></path>
<path d="M14.564 20.685h2.323v-13.485h-2.323z"></path>
<path d="M18.601 20.685h1.548v-13.485h-1.548z"></path>
<path d="M21.865 20.685h2.323v-13.485h-2.323z"></path>
<path d="M7.263 24.556h2.323v-2.291h-2.323z"></path>
<path d="M11.3 24.556h1.549v-2.291h-1.549z"></path>
<path d="M14.564 24.556h2.323v-2.291h-2.323z"></path>
<path d="M18.601 24.556h1.548v-2.291h-1.548z"></path>
<path d="M21.865 24.556h2.323v-2.291h-2.323z"></path>
<path d="M4 24.555h1.548v-17.355h-1.548z"></path>
<path d="M25.902 24.555h1.549v-17.355h-1.549z"></path>
</svg>
