<!-- Generated by IcoMoon.io -->
<svg version="1.1" xmlns="http://www.w3.org/2000/svg" width="32" height="32" viewBox="0 0 32 32">
<title>search</title>
<path d="M7.194 19.985c-1.709-1.709-2.649-3.979-2.649-6.395s0.94-4.687 2.649-6.396c1.708-1.708 3.979-2.648 6.395-2.648s4.687 0.941 6.395 2.648c3.526 3.527 3.526 9.265 0 12.791-1.708 1.708-3.979 2.649-6.395 2.649s-4.687-0.941-6.395-2.649v0zM22.632 20.832c3.647-4.546 3.367-11.224-0.848-15.438-2.189-2.188-5.099-3.394-8.195-3.394s-6.006 1.206-8.195 3.394c-2.189 2.189-3.395 5.099-3.395 8.195s1.206 6.006 3.395 8.195c2.188 2.189 5.099 3.395 8.195 3.395 2.668 0 5.194-0.899 7.243-2.547l7.126 7.308 1.8-1.8-7.126-7.308z"></path>
</svg>
