<svg xmlns="http://www.w3.org/2000/svg" width="32" height="32" viewBox="0 0 32 32"><path d="M0 0h32v32H0z"/><path fill="#fff" d="M5.936 20.554C3.983 18.6 2.91 16.006 2.91 13.244s1.073-5.356 3.026-7.31c1.952-1.95 4.548-3.025 7.31-3.025s5.356 1.074 7.308 3.025c4.03 4.03 4.03 10.588 0 14.618-1.952 1.952-4.548 3.027-7.31 3.027s-5.356-1.075-7.308-3.027zm17.643.968c4.167-5.196 3.847-12.827-.97-17.644-2.502-2.5-5.827-3.88-9.365-3.88S6.38 1.38 3.88 3.88C1.378 6.38 0 9.706 0 13.244s1.378 6.863 3.88 9.365c2.5 2.5 5.828 3.88 9.365 3.88 3.05 0 5.935-1.03 8.277-2.912l8.145 8.352 2.057-2.057-8.145-8.352z"/></svg>