<!-- Generated by IcoMoon.io -->
<svg version="1.1" xmlns="http://www.w3.org/2000/svg" width="32" height="32" viewBox="0 0 32 32">
<title>Selected_option-icon</title>
<path fill="#000" d="M8.028 15.265c1.986 1.892 3.969 3.78 5.917 5.636 3.302-3.142 6.62-6.3 9.917-9.436-0.965-0.919-1.95-1.857-2.978-2.837-2.305 2.196-4.626 4.407-6.97 6.64-0.978-0.934-1.963-1.873-2.943-2.809-0.984 0.938-1.969 1.877-2.943 2.805zM31.912 15.014c0.092 8.512-6.937 15.371-15.845 15.461-8.796 0.089-15.967-6.671-16.066-15.12-0.096-8.193 6.833-15.094 15.611-15.267 8.8-0.174 16.064 6.403 16.3 14.926z"></path>
<path fill="#fff" d="M8.028 15.265c0.974-0.928 1.959-1.867 2.943-2.805 0.98 0.935 1.964 1.875 2.943 2.809 2.345-2.234 4.665-4.444 6.97-6.64 1.028 0.979 2.013 1.918 2.978 2.837-3.296 3.136-6.614 6.294-9.917 9.436-1.948-1.856-3.931-3.744-5.917-5.636z"></path>
</svg>
