<!-- Generated by IcoMoon.io -->
<svg version="1.1" xmlns="http://www.w3.org/2000/svg" width="32" height="32" viewBox="0 0 32 32">
<title>settings</title>
<path d="M16.345 9.99l-0.038 0.7c-2.917 0.020-5.208 2.32-5.216 5.237-0.004 1.417 0.536 2.741 1.522 3.73s2.309 1.534 3.725 1.534c1.422-0.001 2.747-0.547 3.732-1.537 0.985-0.988 1.525-2.314 1.52-3.731-0.009-2.934-2.314-5.232-5.245-5.232v-0.7zM16.342 22.59c-1.797 0-3.472-0.691-4.722-1.945s-1.935-2.932-1.93-4.723c0.011-3.693 2.913-6.607 6.607-6.633h0.048c3.714 0 6.633 2.911 6.645 6.628 0.006 1.792-0.679 3.47-1.928 4.724s-2.926 1.947-4.719 1.948v0zM14.93 28.484h2.825l0.018-0.155c0.071-0.61 0.146-1.24 0.186-1.853 0.032-0.482 0.174-1.069 1.011-1.335 0.354-0.112 0.702-0.261 1.071-0.419 0.353-0.151 0.706-0.3 1.067-0.424 0.155-0.052 0.335-0.080 0.52-0.080 0.207 0 0.602 0.036 0.92 0.274 0.525 0.395 1.008 0.816 1.475 1.221l2.094-2.097-0.007-0.008c-0.369-0.444-0.772-0.928-1.195-1.395-0.575-0.634-0.393-1.217-0.205-1.599 0.359-0.734 0.632-1.402 0.834-2.043 0.265-0.842 0.852-0.986 1.334-1.017 0.621-0.041 1.24-0.113 1.86-0.183l0.148-0.017v-2.824l-0.157-0.018c-0.611-0.072-1.243-0.146-1.858-0.186-0.481-0.032-1.065-0.178-1.331-1.025-0.209-0.666-0.482-1.328-0.808-1.966-0.332-0.649-0.256-1.203 0.242-1.742 0.398-0.431 0.777-0.886 1.143-1.327l0.022-0.027-2.096-2.097-0.032 0.026c-0.432 0.359-0.886 0.735-1.321 1.132-0.211 0.192-0.543 0.447-1.005 0.447-0.235 0-0.476-0.066-0.736-0.201-0.586-0.305-1.247-0.575-1.966-0.804-0.66-0.209-0.987-0.631-1.029-1.329-0.038-0.615-0.111-1.25-0.182-1.863l-0.017-0.149h-2.817l-0.011 0.106c-0.066 0.666-0.136 1.356-0.241 2.038-0.069 0.447-0.421 0.917-0.838 1.115-0.775 0.369-1.546 0.683-2.292 0.932-0.452 0.15-1.074 0.057-1.436-0.215-0.524-0.394-1.009-0.814-1.478-1.22l-0.013-0.011-2.087 2.089c0.001 0.002 0.003 0.004 0.005 0.006 0.35 0.429 0.713 0.874 1.104 1.291 0.549 0.585 0.63 1.182 0.255 1.878-0.279 0.517-0.529 1.134-0.763 1.888-0.206 0.662-0.628 0.991-1.33 1.033-0.615 0.037-1.248 0.111-1.861 0.182-0.050 0.006-0.101 0.012-0.151 0.018v2.817l0.106 0.011c0.667 0.067 1.357 0.135 2.040 0.24 0.442 0.068 0.909 0.423 1.107 0.843 0.368 0.778 0.682 1.549 0.93 2.29 0.155 0.463 0.067 1.068-0.211 1.438-0.394 0.524-0.818 1.012-1.227 1.485l-0.015 0.017 2.101 2.073 0.025-0.020c0.443-0.366 0.902-0.744 1.341-1.148 0.206-0.19 0.533-0.441 0.993-0.441 0.238 0 0.475 0.064 0.745 0.204 0.605 0.312 1.267 0.582 1.966 0.802 0.666 0.21 0.983 0.62 1.028 1.33 0.039 0.616 0.112 1.25 0.183 1.863l0.017 0.151zM19.007 29.884h-5.331l-0.154-1.39c-0.073-0.631-0.149-1.283-0.19-1.936-0.001-0.027-0.004-0.049-0.006-0.067-0.013-0.005-0.028-0.010-0.046-0.015-0.776-0.244-1.512-0.545-2.188-0.894-0.034-0.017-0.059-0.029-0.078-0.036-0.017 0.013-0.040 0.032-0.071 0.060-0.467 0.428-0.961 0.837-1.398 1.197l-0.993 0.83-3.935-3.881 0.421-0.495c0.146-0.172 0.297-0.346 0.449-0.521 0.394-0.454 0.801-0.924 1.165-1.409 0.002-0.014 0.012-0.114 0.001-0.157-0.23-0.683-0.521-1.401-0.867-2.13-0.010-0.012-0.062-0.056-0.090-0.068-0.61-0.090-1.281-0.157-1.929-0.221l-1.368-0.143v-5.333l1.389-0.153c0.631-0.073 1.283-0.15 1.937-0.189 0.025-0.002 0.046-0.004 0.063-0.006 0.004-0.013 0.010-0.027 0.015-0.046 0.263-0.841 0.546-1.541 0.869-2.138 0.040-0.074 0.055-0.118 0.061-0.138-0.010-0.004-0.038-0.047-0.106-0.118-0.424-0.453-0.819-0.937-1.167-1.363-0.138-0.169-0.272-0.333-0.4-0.487l-0.411-0.491 3.903-3.907 0.492 0.417c0.169 0.142 0.339 0.29 0.513 0.441 0.451 0.391 0.918 0.795 1.403 1.159-0.007-0.008 0.047 0.008 0.113 0.008 0.73-0.233 1.449-0.526 2.174-0.871 0.008-0.008 0.051-0.063 0.062-0.092 0.092-0.617 0.16-1.287 0.224-1.936l0.143-1.367h5.333l0.153 1.388c0.073 0.632 0.148 1.286 0.188 1.94 0.001 0.025 0.003 0.045 0.006 0.062 0.013 0.005 0.030 0.011 0.050 0.017 0.795 0.253 1.532 0.554 2.189 0.896 0.029 0.015 0.050 0.025 0.067 0.032 0.019-0.014 0.046-0.036 0.083-0.070 0.451-0.412 0.922-0.802 1.371-1.175l1.009-0.846 3.912 3.913-0.843 1.003c-0.378 0.454-0.769 0.925-1.191 1.383-0.031 0.034-0.051 0.059-0.064 0.076 0.008 0.012 0.020 0.040 0.039 0.078 0.363 0.708 0.665 1.444 0.898 2.186 0.005 0.015 0.009 0.028 0.013 0.039 0.019 0.002 0.043 0.005 0.074 0.007 0.65 0.043 1.3 0.119 1.928 0.193l1.394 0.156v5.331l-1.389 0.153c-0.629 0.072-1.278 0.147-1.928 0.19-0.032 0.002-0.058 0.004-0.078 0.006-0.003 0.011-0.007 0.022-0.012 0.034-0.223 0.708-0.521 1.44-0.911 2.237-0.008 0.015-0.014 0.029-0.019 0.040 0.001 0.001 0.002 0.003 0.003 0.004 0.437 0.482 0.853 0.982 1.233 1.44l0.828 0.985-3.917 3.924-0.987-0.847c-0.449-0.391-0.915-0.797-1.401-1.163 0.020 0.016-0.023 0.006-0.080 0.006-0.039 0-0.066 0.004-0.072 0.006-0.326 0.111-0.645 0.248-0.964 0.384-0.383 0.165-0.779 0.334-1.198 0.467-0.012 0.003-0.022 0.007-0.031 0.010-0.002 0.021-0.005 0.047-0.007 0.081-0.043 0.65-0.119 1.298-0.192 1.925l-0.155 1.392z"></path>
</svg>
