<!-- Generated by IcoMoon.io -->
<svg version="1.1" xmlns="http://www.w3.org/2000/svg" width="32" height="32" viewBox="0 0 32 32">
<title>Show_icon</title>
<path fill="#666" d="M12.25 14.617c0.060 0.069 0.235 0.272 0.411 0.475 0.2-0.209 0.532-0.393 0.577-0.632 0.256-1.34 0.843-1.921 2.234-2.194 0.227-0.045 0.403-0.355 0.602-0.542-0.245-0.156-0.495-0.455-0.735-0.447-1.668 0.054-3.024 1.45-3.088 3.34zM11.050 12.244c-1.582 0.862-2.78 1.99-3.707 3.394-0.124 0.188-0.111 0.616 0.022 0.802 4.362 6.122 12.167 6.050 16.462-0.013 0.114-0.161 0.19-0.45 0.126-0.621-0.39-1.038-2.721-3.107-3.815-3.437 0.83 3.016 0.321 4.896-1.717 6.347-1.616 1.15-3.907 1.187-5.563 0.089-2.060-1.365-2.599-3.264-1.807-6.561zM5.6 16.468c0.008-0.304 0.017-0.625 0.025-0.929 0.083-0.12 0.172-0.237 0.247-0.362 2.634-4.319 7.817-6.503 12.525-5.206 3.152 0.869 5.504 2.827 7.192 5.607-0.008 0.303-0.017 0.625-0.025 0.928-0.083 0.12-0.172 0.237-0.248 0.362-2.623 4.32-7.809 6.505-12.524 5.206-3.153-0.868-5.504-2.827-7.193-5.607z"></path>
<path fill="#fefefe" d="M13.11 12.35c0.455-0.523 1.059-0.883 1.737-1.017 0.183-0.037 0.374-0.059 0.573-0.066 0.428-0.016 0.685 0.194 0.663 0.544-0.019 0.296-0.236 0.482-0.572 0.495-0.135 0.005-0.264 0.019-0.388 0.041-0.361 0.095-0.659 0.22-0.905 0.384-0.304 0.226-0.548 0.539-0.732 0.933-0.128 0.274-0.155 0.6-0.2 0.906-0.051 0.349-0.26 0.56-0.571 0.533-0.302-0.026-0.49-0.292-0.473-0.628 0.042-0.859 0.342-1.56 0.869-2.123z"></path>
</svg>
