<svg width="20" height="20" viewBox="0 0 20 20" fill="none" xmlns="http://www.w3.org/2000/svg">
<path d="M6.99059 8.10879L6.99101 8.11957C6.99577 8.20035 7.00027 8.28115 7.00477 8.36194C7.0151 8.54741 7.02542 8.73287 7.03893 8.91811C7.05451 9.13083 7.01122 9.18467 6.79092 9.20611C6.57197 9.22743 6.36741 9.17288 6.1731 9.08047C6.03194 9.01335 5.89761 9.02628 5.76363 9.08955C5.50019 9.21397 5.46824 9.44689 5.70787 9.61227C5.82308 9.69181 5.95491 9.74818 6.08607 9.80427C6.12373 9.82038 6.16133 9.83646 6.19847 9.85306C6.26013 9.88063 6.32368 9.90458 6.38717 9.92852C6.48768 9.96641 6.58805 10.0043 6.6806 10.0563C6.95193 10.2088 7.03981 10.4442 6.91068 10.7264C6.43057 11.7757 5.71412 12.5683 4.5296 12.8189C4.38608 12.8492 4.33593 12.9774 4.44199 13.0829C4.52267 13.1633 4.6209 13.2426 4.72631 13.2784C5.00556 13.3731 5.29031 13.4553 5.57775 13.5214C5.58771 13.5236 5.59738 13.5259 5.60678 13.528C5.9231 13.6005 5.92727 13.6014 6.00057 13.9435C6.0855 14.3398 6.0931 14.3458 6.48875 14.2646C7.18887 14.1207 7.84075 14.1926 8.41265 14.6678C8.54974 14.7817 8.70396 14.8781 8.85969 14.966C9.62405 15.3974 10.3934 15.3982 11.1562 14.9645C11.3586 14.8494 11.551 14.7142 11.7376 14.5744C12.1119 14.294 12.5312 14.1722 12.9936 14.2048C13.1525 14.216 13.3107 14.2373 13.4689 14.2585C13.5545 14.27 13.6401 14.2815 13.7259 14.2915C13.8841 14.3098 13.9285 14.2794 13.968 14.1277C13.9871 14.0546 14.0048 13.9811 14.0226 13.9076C14.0381 13.8436 14.0535 13.7796 14.0699 13.7158C14.095 13.6177 14.1536 13.5718 14.2604 13.5499C14.566 13.4871 14.8711 13.4166 15.1697 13.327C15.3014 13.2874 15.426 13.2057 15.5356 13.1201C15.587 13.08 15.6213 12.9821 15.6137 12.9161C15.6092 12.8764 15.5131 12.8307 15.4515 12.8164C14.2725 12.5432 13.5605 11.7506 13.0943 10.6943C12.9793 10.434 13.0702 10.2073 13.32 10.0648C13.4164 10.0097 13.5212 9.96959 13.6262 9.9294C13.6888 9.90541 13.7515 9.8814 13.8125 9.8542C13.8523 9.83641 13.8928 9.81929 13.9332 9.80216C14.0619 9.74769 14.191 9.69302 14.3043 9.61582C14.5493 9.44887 14.5157 9.21132 14.2451 9.08613C14.0942 9.01632 13.9434 9.00562 13.7864 9.07751C13.6035 9.16127 13.4136 9.22679 13.2067 9.20404C13.0014 9.18149 12.9641 9.12747 12.9746 8.92517C12.9974 8.48832 13.0185 8.05126 13.0305 7.61402C13.0582 6.59902 12.6549 5.78019 11.8006 5.24358C10.702 4.55358 9.53679 4.55 8.39212 5.13591C7.70927 5.48543 7.26358 6.06774 7.06747 6.81361C6.95637 7.23612 6.97354 7.6742 6.99059 8.10879Z" fill="black"/>
<path fill-rule="evenodd" clip-rule="evenodd" d="M20 10C20 15.5228 15.5228 20 10 20C4.47715 20 0 15.5228 0 10C0 4.47715 4.47715 0 10 0C15.5228 0 20 4.47715 20 10ZM19 10C19 14.9706 14.9706 19 10 19C5.02944 19 1 14.9706 1 10C1 5.02944 5.02944 1 10 1C14.9706 1 19 5.02944 19 10Z" fill="black"/>
</svg>
