<!-- Generated by IcoMoon.io -->
<svg version="1.1" xmlns="http://www.w3.org/2000/svg" width="32" height="32" viewBox="0 0 32 32">
<title>stock</title>
<path d="M16.385 27.12l-0.005-14.179 11.35-3.906 0.005 14.178-11.35 3.906zM9.571 25.3v-14.176l5.296 1.819 0.005 14.179-5.301-1.821zM3.514 9.044l4.544 1.56v14.177l-4.538-1.558-0.005-14.179zM15.62 4.357l3.897 1.338-10.536 3.626-3.897-1.338 10.536-3.626zM11.31 10.121l10.536-3.626 4.312 1.481-10.536 3.626-4.313-1.48zM29.243 7.974c0-0.073-0.014-0.143-0.033-0.21-0.006-0.020-0.015-0.040-0.023-0.061-0.018-0.046-0.040-0.091-0.067-0.132-0.012-0.019-0.024-0.039-0.038-0.056-0.033-0.044-0.073-0.083-0.116-0.119-0.011-0.010-0.020-0.021-0.033-0.031-0.002-0.002-0.005-0.005-0.008-0.006-0.007-0.005-0.015-0.005-0.022-0.009-0.053-0.036-0.109-0.070-0.172-0.091l-12.866-4.417c-0.158-0.055-0.333-0.055-0.491 0l-12.864 4.427c-0.062 0.021-0.117 0.054-0.17 0.090-0.008 0.005-0.017 0.005-0.023 0.009-0.003 0.002-0.005 0.005-0.008 0.008-0.011 0.008-0.020 0.020-0.031 0.028-0.044 0.036-0.084 0.076-0.118 0.121-0.014 0.018-0.025 0.036-0.037 0.055-0.026 0.042-0.049 0.087-0.067 0.134-0.008 0.020-0.017 0.039-0.022 0.060-0.020 0.067-0.033 0.138-0.033 0.211l0.005 15.778c0 0.323 0.206 0.611 0.512 0.716l12.866 4.417c0.002 0.002 0.006 0.001 0.008 0.002 0.077 0.026 0.157 0.039 0.237 0.039s0.16-0.014 0.238-0.039c0.003-0.001 0.006 0 0.009-0.002l12.863-4.427c0.305-0.105 0.51-0.393 0.51-0.716l-0.005-15.779z"></path>
</svg>
