<!-- Generated by IcoMoon.io -->
<svg version="1.1" xmlns="http://www.w3.org/2000/svg" width="40" height="40" viewBox="0 0 32 32">
<title>store_white</title>
<path fill="#fff" d="M2 6.813h27.272v-3.613h-27.272z"></path>
<path fill="#fff" d="M2 13.938h6.561v-3.613h-6.561z"></path>
<path fill="#fff" d="M22.711 13.938h6.561v-3.613h-6.561z"></path>
<path fill="#fff" d="M22.711 21.064h6.561v-3.613h-6.561z"></path>
<path fill="#fff" d="M2 21.064h6.561v-3.613h-6.561z"></path>
<path fill="#fff" d="M2 28.19h6.561v-3.613h-6.561z"></path>
<path fill="#fff" d="M22.711 28.19h6.561v-3.613h-6.561z"></path>
<path fill="#d50032" d="M16.213 16.181c0.053 0.426 0.131 0.848 0.211 1.27 0.181 0.947 0.385 1.892 0.408 2.866 0.005 0.251-0.004 0.499-0.013 0.747-0.043 1.219-0.264 2.387-0.631 3.513s-0.874 2.21-1.505 3.261c-0.020 0.033-0.051 0.057-0.078 0.085 0.399-1.093 0.592-2.213 0.656-3.346 0.020-0.34 0.030-0.68 0.028-1.022-0.005-0.835-0.068-1.666-0.173-2.491-0.095-0.743-0.224-1.484-0.386-2.218-0.103-0.471-0.171-0.934-0.219-1.395-0.128-1.205-0.070-2.375 0.164-3.513 0.257-1.243 0.732-2.446 1.406-3.613 0.104-0.178 0.197-0.358 0.31-0.534 0.028-0.044 0.061-0.084 0.114-0.118-0.057 0.218-0.116 0.434-0.173 0.652-0.098 0.37-0.189 0.742-0.241 1.123-0.115 0.833-0.127 1.662-0.088 2.49 0.036 0.748 0.114 1.495 0.209 2.243z"></path>
</svg>
