<?xml version="1.0" encoding="UTF-8" standalone="no"?>
<svg width="40px" height="40px" viewBox="0 0 40 40" version="1.1" xmlns="http://www.w3.org/2000/svg" xmlns:xlink="http://www.w3.org/1999/xlink">
    <!-- Generator: Sketch 45 (43475) - http://www.bohemiancoding.com/sketch -->
    <title>twitter</title>
    <desc>Created with Sketch.</desc>
    <defs>
        <path d="M12.0698492,0.0662645012 C11.9261485,0.0882946636 11.7493155,0.135174014 11.5392807,0.206902552 C11.3293155,0.278561485 11.0999304,0.383352668 10.8512645,0.521206497 C10.6025638,0.659060325 10.3815313,0.816229698 10.1880626,0.992714617 C9.99466357,1.16916473 9.83718097,1.34011601 9.71554524,1.50553364 C9.59397912,1.67098608 9.49562645,1.81823666 9.42045244,1.94728538 C9.34639211,2.07741299 9.27069606,2.2500348 9.19329466,2.46508121 C9.11592807,2.68012761 9.05791183,2.8924594 9.01921114,3.10204176 C8.98054524,3.31155452 8.9611949,3.54045244 8.9611949,3.78859629 C8.9611949,4.03674014 8.97226218,4.22975638 8.99432715,4.36761021 L9.027529,4.57440835 L9.0325406,4.59925754 L9.03581206,4.62403712 L8.91977958,4.62073086 C8.84241299,4.61742459 8.69867749,4.60475638 8.48867749,4.58265661 C8.27867749,4.56062645 7.96642691,4.51099768 7.55192575,4.4338051 C7.1374594,4.35657773 6.84455916,4.29316705 6.67322506,4.24353828 C6.50192575,4.19390951 6.20349188,4.08915313 5.77792343,3.92923434 C5.35242459,3.76928074 4.95448956,3.5900464 4.58422274,3.39153132 C4.21395592,3.19301624 3.87685615,2.99175174 3.57288863,2.78770302 C3.26892111,2.58365429 3.02300464,2.40441995 2.83510441,2.2500348 C2.64716937,2.09561485 2.53663573,1.99802784 2.50350348,1.95720418 C2.47033643,1.91526682 2.44270302,1.88989559 2.42060325,1.88109049 C2.39850348,1.87336427 2.28522042,1.7674942 2.08071926,1.56344548 C1.8762529,1.35943155 1.69938515,1.17469838 1.55018561,1.00924594 L1.32636891,0.761102088 L1.32306265,0.75612529 L1.31808585,0.752819026 L1.30976798,0.7362529 L1.30148492,0.719721578 L1.29650812,0.716415313 L1.29320186,0.711473318 L1.28989559,0.706461717 L1.28491879,0.703190255 L1.279942,0.699883991 L1.27663573,0.694907193 L1.27332947,0.689930394 L1.26831787,0.686658933 L1.26334107,0.689930394 L1.2600348,0.694907193 L1.25676334,0.699883991 L1.25175174,0.703190255 L1.24346868,0.72800464 L1.23515081,0.752819026 L1.09423434,1.06715777 C1.00030162,1.27670534 0.928468677,1.47522042 0.878700696,1.66273782 C0.828967517,1.85022042 0.795800464,2.01842227 0.779234339,2.16730858 C0.762668213,2.3161949 0.757134571,2.49542923 0.762668213,2.7049768 C0.768201856,2.91452436 0.793051044,3.12682135 0.83725058,3.34190255 C0.881484919,3.55698376 0.946113689,3.77039443 1.0312065,3.98216937 C1.1174478,4.1949884 1.19923434,4.37039443 1.27663573,4.50824826 C1.35348028,4.64530162 1.44222738,4.77542923 1.54190255,4.89703016 C1.64140371,5.01835267 1.74083527,5.13414153 1.84030162,5.24443155 C1.93980278,5.35472158 2.03481439,5.44461717 2.12547564,5.51411833 C2.21721578,5.58243619 2.26475638,5.61776102 2.26809745,5.6199884 L2.27136891,5.62493039 L2.28793503,5.63321346 L2.30453596,5.64149652 L2.30787703,5.64643852 L2.31285383,5.64977958 L2.31783063,5.65305104 L2.32110209,5.65799304 L2.33766821,5.6663109 L2.35426914,5.67455916 L2.35761021,5.67953596 L2.36258701,5.68284223 L2.36756381,5.68614849 L2.37087007,5.69112529 L2.37417633,5.69610209 L2.37915313,5.69937355 L2.38412993,5.70271462 L2.38743619,5.70765661 L2.23820186,5.70765661 L2.16361949,5.69937355 C2.11388631,5.69387471 1.96190255,5.66356148 1.70770302,5.60839907 C1.45346868,5.55327146 1.24071926,5.48707657 1.06938515,5.40988399 L0.812401392,5.29406032 L0.795800464,5.28581206 L0.779234339,5.277529 L0.762668213,5.26921114 L0.746067285,5.26099768 L0.72950116,5.25602088 L0.712935035,5.25267981 L0.742761021,5.60011601 C0.76162413,5.83211137 0.801612529,6.06191415 0.862134571,6.28670534 C0.922935035,6.51278422 1.01411833,6.74989559 1.13568445,6.99807425 C1.25728538,7.2462181 1.39545244,7.46404872 1.55018561,7.65156613 C1.7049536,7.83904872 1.84694896,7.99235499 1.9762413,8.11145012 C2.10605568,8.22894432 2.24338747,8.33780742 2.38743619,8.43737819 C2.53113689,8.53663573 2.72457077,8.63864269 2.96770302,8.74343387 C3.21090487,8.84819026 3.36010441,8.90888631 3.41537123,8.92541763 C3.47063805,8.94194896 3.50933875,8.95298144 3.53140371,8.95848028 L3.56460557,8.96676334 L3.59773782,8.9750116 L3.63090487,8.98332947 L3.66407193,8.99161253 L3.69720418,8.99986079 L3.69393271,9.00480278 L3.68892111,9.00814385 L3.68394432,9.01145012 L3.68063805,9.01639211 L3.63918794,9.02467517 L3.59773782,9.03295824 L3.56460557,9.0412065 C3.5425058,9.04674014 3.48167053,9.05777262 3.38220418,9.07426914 C3.28270302,9.09087007 3.10312065,9.10186775 2.84338747,9.10740139 C2.58365429,9.11290023 2.39296984,9.10740139 2.27136891,9.09087007 L2.08900232,9.06602088 L2.06415313,9.06107889 L2.03926914,9.05777262 L2.04261021,9.07426914 L2.04758701,9.09087007 L2.05583527,9.11564965 L2.06415313,9.14046404 L2.20176334,9.44157773 C2.29238979,9.64339907 2.38743619,9.82155452 2.48690255,9.97593968 C2.58640371,10.1303248 2.70354988,10.2809165 2.83841067,10.4275754 C2.97438515,10.5731555 3.08488399,10.6856381 3.1699768,10.765058 C3.25618329,10.8455916 3.39605568,10.9464849 3.58945476,11.0678422 C3.78288863,11.1891299 3.98182135,11.2939211 4.18632251,11.3821114 C4.39082367,11.4703712 4.58147332,11.5365313 4.75830626,11.5806613 C4.93517401,11.624826 5.0650232,11.6496056 5.14792343,11.6551392 C5.23082367,11.6606032 5.31647332,11.6661717 5.40490719,11.6716705 L5.5375406,11.6799536 L5.53423434,11.6848956 L5.52925754,11.6881671 L5.52428074,11.7047332 L5.52097448,11.7212993 L5.50440835,11.7246056 L5.48777262,11.7295476 L5.48450116,11.7344896 L5.47952436,11.7378654 L5.47454756,11.7411369 L5.4712065,11.7461137 L5.46793503,11.7510905 L5.46292343,11.7543619 L5.45794664,11.7576682 L5.45464037,11.7626798 L5.07334107,12.0191067 C4.81907193,12.1900232 4.63009281,12.3069258 4.5062993,12.3698144 C4.38142691,12.4337819 4.17139211,12.5308469 3.8762993,12.6609745 C3.580058,12.7900232 3.25513921,12.9013921 2.90140371,12.9951856 C2.54773782,13.0888747 2.24098608,13.1550696 1.9812529,13.1937007 C1.72151972,13.232297 1.46728538,13.2571114 1.21858469,13.268109 C0.969883991,13.2791763 0.735034803,13.2791763 0.513967517,13.268109 C0.292935035,13.2571114 0.157517401,13.2488283 0.107784223,13.2433295 L0.0331670534,13.2350464 L0.0166009281,13.2301044 L0,13.2267285 L0,13.2598608 L0.00187935035,13.2598608 L0.00685614849,13.2632367 L0.010162413,13.2682831 L0.0135034803,13.2733643 L0.0184802784,13.2767749 L0.0234570766,13.280116 L0.0267633411,13.2851972 L0.0433642691,13.2936543 L0.0599651972,13.3020766 L0.0633062645,13.3071578 L0.0682830626,13.3104988 L0.0732598608,13.3139095 L0.0765661253,13.3189559 L0.225939675,13.4118445 C0.325545244,13.4737587 0.415162413,13.5255104 0.494825986,13.5672042 C0.575638051,13.609942 0.774814385,13.7112529 1.09235499,13.8710673 C1.41107889,14.0320302 1.79450116,14.1913573 2.24265661,14.3489095 C2.69077726,14.5065313 3.02832947,14.6134107 3.25513921,14.6697216 C3.48198376,14.7259977 3.79458237,14.7822738 4.19293503,14.8385499 C4.5912877,14.8948608 4.82091647,14.9258005 4.88175174,14.9314037 C4.94262181,14.9370418 5.02009281,14.9426798 5.11412993,14.9482831 L5.25522042,14.9567749 L5.25522042,14.9651972 L6.33410673,14.9651972 L6.33410673,14.9798144 L6.92209977,14.9217285 C7.31411833,14.8830278 7.66472158,14.8359745 7.97387471,14.7806381 C8.28309745,14.7253364 8.60331787,14.6479002 8.93457077,14.5482947 C9.26589327,14.4487239 9.58058005,14.3408701 9.8787355,14.2246636 C10.1768561,14.1085267 10.4540603,13.9823666 10.7102088,13.8462877 C10.9675406,13.7112877 11.1872506,13.5912529 11.369478,13.4861485 C11.5516357,13.3810441 11.7515081,13.2499072 11.9690603,13.0928074 C12.1876914,12.9345592 12.3919838,12.7763457 12.5819374,12.6181323 C12.7729698,12.4610673 12.8811717,12.3703364 12.9065429,12.3459745 C12.9308701,12.3205336 13.0744316,12.1766937 13.3372274,11.9144896 C13.5989443,11.6511717 13.815348,11.4143735 13.9865081,11.2041647 C14.1576682,10.9939211 14.3260441,10.7698608 14.4917053,10.5319838 C14.6573318,10.2941067 14.8395244,10.0036775 15.0383179,9.66066125 C15.2370418,9.31767981 15.4275522,8.93046404 15.60971,8.49890951 C15.7919374,8.06742459 15.9465313,7.62483759 16.0735267,7.1712181 C16.200522,6.71759861 16.2943852,6.31099768 16.355116,5.95141531 C16.4158469,5.59183295 16.4572622,5.25713457 16.4793271,4.94732019 C16.5014269,4.6375406 16.5141299,4.35981439 16.5174362,4.11417633 C16.5196636,3.8674594 16.6245244,3.65944316 16.8321578,3.49016241 C17.0386427,3.32196056 17.2495476,3.1300232 17.4648724,2.91428074 C17.6801972,2.69853828 17.797239,2.57516241 17.8160325,2.54418794 C17.8358701,2.51429234 17.8513921,2.49769142 17.8623898,2.49438515 C17.8734223,2.49215777 17.9479698,2.39815545 18.0859977,2.21223898 C18.2240603,2.027471 18.2941531,1.93339907 18.2963805,1.93012761 L18.3013225,1.92678654 L18.3096404,1.91022042 L18.3178886,1.89361949 L18.3228654,1.89027842 L18.3262065,1.88530162 L18.329478,1.88032483 L18.3344548,1.87698376 L18.3394316,1.87367749 L18.3427378,1.8687007 L18.3460441,1.8637239 L18.3510209,1.86041763 L18.3560325,1.85707657 L18.3593039,1.85209977 L18.367587,1.84712297 L18.3758701,1.84381671 L18.3758701,1.81061485 L18.3427378,1.81392111 L18.3096404,1.81889791 L18.2930394,1.82721578 L18.2764733,1.83549884 L18.259942,1.84381671 L18.2433411,1.85209977 L18.2184919,1.86041763 L18.1688283,1.87698376 L17.7216125,2.02635731 C17.4400232,2.12039443 17.144652,2.20061485 16.8354292,2.26698376 L16.3716821,2.36658933 L16.2888515,2.36658933 L16.2921578,2.36161253 L16.2971346,2.35830626 L16.3021114,2.3549652 L16.3054176,2.3499884 L16.3087587,2.3450116 L16.3137007,2.34170534 L16.3187123,2.33839907 L16.3219838,2.33338747 L16.3385499,2.32510441 L16.355116,2.31678654 L16.3584223,2.31180974 L16.3633991,2.30850348 L16.3683759,2.30519722 L16.3716821,2.30018561 L16.3882483,2.29190255 L16.4047796,2.28358469 L16.487645,2.22883991 C16.5428422,2.19341067 16.5897564,2.15470998 16.6283875,2.11266821 C16.6670882,2.07174014 16.7460209,1.99980278 16.86529,1.89689095 C16.9834455,1.79512761 17.1170186,1.64464037 17.2660789,1.44549884 C17.415174,1.24635731 17.53942,1.0499652 17.6387819,0.856322506 C17.7381787,0.662679814 17.7906265,0.552076566 17.7961601,0.524408353 C17.8016589,0.496705336 17.8071926,0.474605568 17.8126914,0.45800464 L17.8210093,0.43312065 L17.8292575,0.416519722 L17.8375406,0.399918794 L17.8458237,0.375034803 L17.8541067,0.350116009 L17.8590835,0.325266821 L17.8623898,0.300348028 L17.8458237,0.303654292 L17.8292575,0.308665893 L17.8259513,0.313607889 L17.8210093,0.316948956 L17.8160325,0.320290023 L17.8126914,0.325266821 L17.7961601,0.333515081 L17.7795592,0.341867749 L17.7630278,0.350116009 L17.7464617,0.358433875 L17.7431555,0.363410673 C17.7398492,0.365638051 17.7122506,0.382238979 17.6603248,0.413213457 C17.6073202,0.443074246 17.4593387,0.513306265 17.2164153,0.623979118 C16.9734919,0.734617169 16.727819,0.834187935 16.4793271,0.922726218 C16.2308701,1.0112297 15.9989791,1.08038283 15.7836891,1.13015081 C15.5683295,1.1799536 15.4098724,1.15339907 15.3083179,1.05048724 C15.2056148,0.948723898 15.0896868,0.852424594 14.960464,0.761728538 C14.8301624,0.669883991 14.6849652,0.579709977 14.5248376,0.491206497 C14.36471,0.402668213 14.1990835,0.325266821 14.0278886,0.258863109 C13.8567981,0.1924942 13.6662877,0.138828306 13.4564965,0.0978654292 L13.1417749,0.0348027842 L12.2853828,0.0348027842 L12.2853828,0.0281902552 C12.2853828,0.0314965197 12.2135499,0.044199536 12.0698492,0.0662645012 Z" id="path-1"></path>
    </defs>
    <g id="Icons" stroke="none" stroke-width="1" fill="none" fill-rule="evenodd">
        <g id="twitter">
            <g transform="translate(3.500000, 3.500000)">
                <g id="Page-1-Copy-5" fill="#040000">
                    <path d="M16.5,31 C8.505,31 2,24.495 2,16.5 C2,8.505 8.505,2 16.5,2 C24.495,2 31,8.505 31,16.5 C31,24.495 24.495,31 16.5,31 M16.5,0 C7.402,0 0,7.402 0,16.5 C0,25.598 7.402,33 16.5,33 C25.598,33 33,25.598 33,16.5 C33,7.402 25.598,0 16.5,0" id="Fill-1"></path>
                </g>
                <g id="Page-1" transform="translate(8.000000, 10.000000)">
                    <mask id="mask-2" fill="white">
                        <use xlink:href="#path-1"></use>
                    </mask>
                    <g id="Clip-2"></g>
                    <polygon id="Fill-1" fill="#020303" mask="url(#mask-2)" points="-0.0696055684 15.0348028 18.4454756 15.0348028 18.4454756 -0.0348027842 -0.0696055684 -0.0348027842"></polygon>
                </g>
            </g>
        </g>
    </g>
</svg>