<svg width="20" height="20" viewBox="0 0 20 20" fill="none" xmlns="http://www.w3.org/2000/svg">
<path d="M11.8039 6.10757C11.9278 6.0644 12.032 6.03618 12.1168 6.02292C12.2015 6.00964 12.2438 6 12.2438 6V6.00398H12.7488L12.9344 6.04194C13.0581 6.0666 13.1704 6.0989 13.2713 6.13885C13.3722 6.17882 13.4699 6.22541 13.5643 6.27871C13.6587 6.33198 13.7443 6.38626 13.8211 6.44155C13.8973 6.49614 13.9657 6.55411 14.0263 6.61536C14.0861 6.67731 14.1796 6.69329 14.3065 6.66332C14.4335 6.63336 14.5702 6.59173 14.7167 6.53846C14.8632 6.48516 15.0081 6.42523 15.1513 6.35863C15.2946 6.29201 15.3818 6.24974 15.4131 6.23176C15.4437 6.21312 15.46 6.20312 15.4619 6.20178L15.4639 6.19879L15.4736 6.19378L15.4834 6.18882L15.4932 6.18379L15.5029 6.17882L15.5049 6.17583L15.5078 6.17382L15.5107 6.1718L15.5127 6.16883L15.5224 6.16581L15.5322 6.16382L15.5303 6.17882L15.5273 6.19378L15.5176 6.22376L15.5127 6.23375L15.5078 6.24374L15.5029 6.25872C15.4997 6.26872 15.4964 6.28202 15.4932 6.29869C15.4899 6.31535 15.459 6.38193 15.4004 6.49849C15.3418 6.61505 15.2685 6.73326 15.1806 6.85314C15.0927 6.97301 15.014 7.06359 14.9443 7.12485C14.874 7.1868 14.8274 7.2301 14.8046 7.25473C14.7818 7.28004 14.7542 7.30334 14.7216 7.32466L14.6728 7.35761L14.663 7.36262L14.6532 7.36761L14.6513 7.37062L14.6454 7.3746L14.6435 7.3776L14.6337 7.38261L14.6239 7.38759L14.622 7.39061L14.6191 7.3926L14.6161 7.39459L14.6142 7.39759L14.6122 7.40058L14.6093 7.40259L14.6064 7.40458L14.6044 7.40758H14.6532L14.9267 7.34762C15.109 7.30767 15.2832 7.25938 15.4492 7.20278L15.7422 7.10289L15.7568 7.09789L15.7666 7.0929L15.7764 7.08789L15.7959 7.0779L15.8154 7.07491L15.835 7.07292V7.0929L15.8301 7.09489L15.8252 7.09789L15.8233 7.10088L15.8203 7.10289L15.8174 7.10488L15.8135 7.11088L15.8106 7.11287L15.8076 7.11488L15.8057 7.11787L15.8037 7.12087L15.8008 7.12288L15.7959 7.13287L15.791 7.14284L15.7881 7.14485C15.7868 7.14682 15.7455 7.20345 15.6641 7.31467C15.5827 7.42658 15.5387 7.48316 15.5322 7.4845C15.5257 7.48649 15.5166 7.49649 15.5049 7.51448C15.4938 7.53313 15.4248 7.60739 15.2978 7.73726C15.1709 7.86712 15.0465 7.98266 14.9248 8.0839C14.8023 8.1858 14.7405 8.31101 14.7392 8.45952C14.7372 8.60738 14.7297 8.77456 14.7167 8.96103C14.7037 9.14752 14.6793 9.34899 14.6435 9.56543C14.6077 9.78188 14.5523 10.0266 14.4774 10.2997C14.4026 10.5727 14.3114 10.8391 14.204 11.0989C14.0966 11.3586 13.9842 11.5917 13.8671 11.7982C13.7498 12.0047 13.6424 12.1795 13.5448 12.3227C13.4471 12.4659 13.3478 12.6007 13.2469 12.7273C13.146 12.8538 13.0184 12.9964 12.864 13.1549C12.7091 13.3127 12.6244 13.3993 12.6101 13.4146C12.5951 13.4292 12.5313 13.4839 12.4187 13.5784C12.3067 13.6736 12.1862 13.7689 12.0573 13.8641C11.9291 13.9587 11.8112 14.0376 11.7038 14.1009C11.5964 14.1642 11.4668 14.2364 11.3151 14.3177C11.164 14.3996 11.0006 14.4755 10.8248 14.5454C10.649 14.6154 10.4635 14.6803 10.2681 14.7403C10.0728 14.8002 9.88398 14.8468 9.70166 14.8801C9.51937 14.9134 9.31264 14.9417 9.0815 14.965L8.7348 15V14.9912H8.09866V14.9861L8.01547 14.981C7.96002 14.9776 7.91434 14.9743 7.87845 14.9709C7.84258 14.9675 7.70719 14.9489 7.47231 14.915C7.23743 14.8811 7.05311 14.8472 6.91935 14.8133C6.78562 14.7794 6.58659 14.7151 6.32237 14.6202C6.05812 14.5254 5.83204 14.4295 5.64411 14.3326C5.45688 14.2364 5.33944 14.1754 5.29179 14.1497C5.24482 14.1246 5.19198 14.0934 5.13325 14.0562L5.04518 14.0003L5.04323 13.9972L5.04029 13.9952L5.03736 13.9932L5.03539 13.9901L5.0256 13.985L5.01581 13.9799L5.01386 13.9769L5.01093 13.9749L5.00799 13.9728L5.00602 13.9698L5.00407 13.9667L5.00114 13.9647H5.00003V13.9447L5.00982 13.9468L5.01959 13.9498L5.06358 13.9547C5.09291 13.958 5.17275 13.963 5.30308 13.9697C5.43343 13.9763 5.5719 13.9763 5.71854 13.9697C5.86518 13.963 6.01509 13.9481 6.16823 13.9249C6.32138 13.9016 6.50225 13.8618 6.71078 13.8054C6.91935 13.7489 7.11094 13.6819 7.28561 13.6042C7.4596 13.5259 7.58345 13.4674 7.65707 13.4289C7.73007 13.3911 7.84149 13.3207 7.99142 13.2178L8.21624 13.0635L8.21819 13.0605L8.22113 13.0585L8.22408 13.0565L8.22601 13.0535L8.22798 13.0505L8.23092 13.0485L8.23385 13.0465L8.23578 13.0435L8.24559 13.0406L8.25536 13.0386L8.25731 13.0286L8.26024 13.0186L8.26317 13.0167L8.26512 13.0137L8.18692 13.0087C8.13478 13.0054 8.08427 13.002 8.03539 12.9987C7.98651 12.9954 7.90995 12.9805 7.80566 12.9539C7.7014 12.9273 7.58899 12.8875 7.46841 12.8344C7.34783 12.7813 7.23053 12.7182 7.11648 12.6452C7.00244 12.5722 6.91997 12.5114 6.86914 12.463C6.81897 12.4152 6.75381 12.3475 6.67364 12.2598C6.59412 12.1715 6.52505 12.0809 6.46638 11.988C6.40773 11.895 6.35169 11.7878 6.29825 11.6663L6.21711 11.4851L6.21221 11.4701L6.20735 11.4552L6.20441 11.4452L6.20244 11.4353L6.21711 11.4373L6.23177 11.4402L6.33929 11.4552C6.41099 11.4652 6.52343 11.4685 6.67657 11.4652C6.82972 11.4618 6.93561 11.4552 6.99428 11.4452C7.05292 11.4353 7.08879 11.4286 7.10182 11.4253L7.12136 11.4203L7.17024 11.4104L7.17219 11.4074L7.17512 11.4054L7.17808 11.4034L7.18001 11.4004L7.14092 11.3905L7.12136 11.3855L7.08225 11.3755C7.06924 11.3722 7.04642 11.3656 7.01383 11.3556C6.98124 11.3457 6.89327 11.3091 6.74987 11.2461C6.60652 11.183 6.49246 11.1216 6.40773 11.0618C6.3228 11.0019 6.24182 10.9364 6.16528 10.8656C6.08904 10.794 6.00532 10.7017 5.91406 10.5888C5.82283 10.476 5.74136 10.3448 5.66966 10.1955C5.59798 10.0461 5.54422 9.90335 5.50837 9.76726C5.47268 9.63195 5.44911 9.49362 5.43798 9.35397L5.4204 9.14484L5.43017 9.14685L5.43993 9.14984L5.44972 9.15479L5.45949 9.15979L5.46926 9.16478L5.47905 9.16974L5.63057 9.23946C5.73159 9.28593 5.85704 9.32577 6.00694 9.35896C6.15682 9.39216 6.24644 9.41041 6.27576 9.41372L6.31974 9.4187H6.40773L6.40578 9.41573L6.40285 9.41372L6.39991 9.41175L6.39601 9.40576L6.39015 9.40178L6.38818 9.39878L6.37839 9.39382L6.36862 9.38881L6.36669 9.38584L6.36376 9.38387L6.36082 9.38186L6.35885 9.37888L6.33929 9.36891L6.33737 9.36593C6.3354 9.36459 6.30736 9.34333 6.25327 9.30221C6.19982 9.26037 6.14379 9.20626 6.08513 9.13987C6.02648 9.07348 5.96785 9.00379 5.90918 8.93076C5.85041 8.85756 5.79808 8.77923 5.75277 8.69673C5.70713 8.61375 5.65891 8.50817 5.60806 8.38006C5.55789 8.25259 5.51978 8.12413 5.4937 7.99466C5.46764 7.86519 5.45298 7.7374 5.44972 7.61127C5.44646 7.48513 5.44972 7.37724 5.45949 7.28762C5.46926 7.198 5.48881 7.09676 5.51814 6.9839C5.54748 6.87103 5.58984 6.75153 5.64522 6.6254L5.72831 6.43618L5.73322 6.42125L5.7381 6.40631L5.74105 6.40432L5.74298 6.40132L5.74493 6.39833L5.74787 6.39636L5.75082 6.39833L5.75472 6.40432L5.75766 6.40631L5.76059 6.40828L5.76254 6.4113L5.76449 6.41427L5.76742 6.41626L5.77721 6.43618L5.78015 6.43817L5.7821 6.44117L5.91406 6.59054C6.00204 6.69013 6.10632 6.80133 6.22688 6.92413C6.34746 7.04696 6.41426 7.11069 6.42729 7.11534C6.44032 7.12064 6.45661 7.13591 6.47617 7.16115C6.4957 7.18573 6.56088 7.24447 6.67169 7.33742C6.78248 7.43035 6.92748 7.53824 7.10671 7.66106C7.28594 7.78389 7.4847 7.90504 7.70302 8.02453C7.92134 8.14403 8.15597 8.25192 8.40686 8.3482C8.65779 8.44446 8.83375 8.50752 8.93476 8.53739C9.03578 8.56727 9.20848 8.60544 9.45286 8.65192C9.69726 8.69839 9.88138 8.72826 10.0052 8.74152C10.129 8.75482 10.2138 8.76245 10.2594 8.76444L10.3278 8.76643L10.3259 8.75151L10.3229 8.73656L10.3033 8.61208C10.2903 8.5291 10.2838 8.41291 10.2838 8.26354C10.2838 8.11418 10.2952 7.97639 10.318 7.85028C10.3408 7.72412 10.375 7.59631 10.4207 7.46687C10.4663 7.33742 10.5109 7.23351 10.5546 7.15518C10.5989 7.0775 10.6569 6.98887 10.7286 6.88927C10.8003 6.7897 10.8932 6.6868 11.0072 6.58059C11.1213 6.47435 11.2516 6.37975 11.3982 6.29677C11.5449 6.21379 11.6801 6.15071 11.8039 6.10757Z" fill="black"/>
<path fill-rule="evenodd" clip-rule="evenodd" d="M20 10C20 15.5228 15.5228 20 9.99997 20C4.47712 20 -3.05176e-05 15.5228 -3.05176e-05 10C-3.05176e-05 4.47715 4.47712 0 9.99997 0C15.5228 0 20 4.47715 20 10ZM19 10C19 14.9706 14.9705 19 9.99997 19C5.02941 19 0.999969 14.9706 0.999969 10C0.999969 5.02944 5.02941 1 9.99997 1C14.9705 1 19 5.02944 19 10Z" fill="black"/>
</svg>
