<!-- Generated by IcoMoon.io -->
<svg version="1.1" xmlns="http://www.w3.org/2000/svg" width="32" height="32" viewBox="0 0 32 32">
<title>video_play</title>
<path d="M15.667 4c-6.433 0-11.667 5.233-11.667 11.667s5.234 11.666 11.667 11.666 11.667-5.233 11.667-11.666c0-6.434-5.234-11.667-11.667-11.667zM15.667 29.333c-7.536 0-13.667-6.131-13.667-13.666s6.131-13.667 13.667-13.667 13.667 6.131 13.667 13.667c0 7.535-6.131 13.666-13.667 13.666z" fill="#ffffff"></path>
<path d="M14.107 12.54v6.252l5.076-3.126-5.076-3.126zM12.107 22.373v-13.414l10.89 6.707-10.89 6.707z" fill="#ffffff"></path>
</svg>
