<!-- Generated by IcoMoon.io -->
<svg version="1.1" xmlns="http://www.w3.org/2000/svg" width="32" height="32" viewBox="0 0 32 32">
<title>waitlist</title>
<path d="M16.744 25.793c-0.639 0.117-1.293 0.187-1.965 0.187-5.968 0-10.824-4.855-10.824-10.824s4.856-10.824 10.824-10.824c5.969 0 10.824 4.856 10.824 10.824 0 0.394-0.024 0.782-0.065 1.164 0.054-0.002 0.105-0.013 0.159-0.013 0.21 0 0.417 0.017 0.622 0.042 0.259 0.032 0.514 0.082 0.762 0.152 0.048-0.443 0.076-0.891 0.076-1.346 0-6.826-5.553-12.379-12.379-12.379s-12.379 5.553-12.379 12.379c0 6.826 5.553 12.379 12.379 12.379 1.129 0 2.218-0.165 3.258-0.45l-0.637-0.636-0.656-0.657z"></path>
<path d="M14.001 8.788v6.145l-6.072 5.365 0.515 0.583 0.516 0.583 6.597-5.829v-6.847h-0.778z"></path>
<path d="M27.054 22.693l-4.505 4.505-4.506-4.505c-0.361-0.361-0.559-0.842-0.559-1.358s0.198-0.996 0.56-1.357c0.36-0.36 0.842-0.558 1.356-0.558s0.996 0.198 1.356 0.558l1.793 1.793 1.791-1.793c0.058-0.058 0.124-0.103 0.187-0.151 0.297-0.224 0.653-0.349 1.022-0.376 0.267-0.019 0.535 0.012 0.789 0.096 0.265 0.089 0.513 0.228 0.716 0.43 0.36 0.36 0.559 0.842 0.559 1.357s-0.199 0.998-0.559 1.358zM28.154 18.878c-0.385-0.385-0.85-0.653-1.353-0.822-0.245-0.081-0.499-0.134-0.76-0.159-0.115-0.012-0.227-0.033-0.344-0.033-0.157 0-0.31 0.024-0.463 0.044-0.753 0.1-1.451 0.426-1.994 0.97l-0.691 0.692-0.693-0.692c-0.654-0.654-1.527-1.014-2.456-1.014s-1.802 0.36-2.456 1.013c-0.655 0.655-1.016 1.528-1.016 2.458s0.361 1.804 1.016 2.458l5.605 5.605 5.605-5.605c0.654-0.654 1.015-1.527 1.015-2.458s-0.361-1.803-1.015-2.457z"></path>
</svg>
