<!-- Generated by IcoMoon.io -->
<svg version="1.1" xmlns="http://www.w3.org/2000/svg" width="32" height="32" viewBox="0 0 32 32">
<title>welcome_bonus</title>
<path d="M20.754 23.548l-2.038 2.829-1.59-5.278c1.941-0.273 3.687-1.15 5.044-2.44l1.844 6.121-3.261-1.232zM12.965 26.377l-2.038-2.829-3.26 1.232 1.844-6.12c1.356 1.29 3.102 2.166 5.044 2.439l-1.59 5.278zM15.84 4.4c4.191 0 7.6 3.41 7.6 7.6 0 1.127-0.253 2.194-0.695 3.158-0.359 0.781-0.844 1.491-1.432 2.103-1.198 1.246-2.812 2.085-4.619 2.288-0.011 0.002-0.022 0.004-0.033 0.005-0.27 0.030-0.543 0.046-0.821 0.046s-0.55-0.017-0.819-0.046c-0.011-0.002-0.022-0.004-0.033-0.006-1.807-0.202-3.422-1.042-4.62-2.288-0.589-0.612-1.074-1.322-1.432-2.103-0.442-0.963-0.696-2.030-0.696-3.158 0-4.19 3.41-7.6 7.6-7.6v0zM23.408 17.22c1.027-1.485 1.633-3.282 1.633-5.22 0-5.073-4.126-9.2-9.2-9.2s-9.2 4.127-9.2 9.2c0 1.938 0.606 3.736 1.634 5.22l-3.074 10.203 5.146-1.945 3.215 4.464 2.279-7.563 2.278 7.563 3.216-4.464 5.146 1.945-3.074-10.203z"></path>
<path d="M13.126 15.851l2.74-1.441 2.741 1.441-0.523-3.051 2.217-2.162-3.064-0.445-1.37-2.776-1.37 2.776-3.064 0.445 2.217 2.162z"></path>
</svg>
