<!-- Generated by IcoMoon.io -->
<svg version="1.1" xmlns="http://www.w3.org/2000/svg" width="32" height="32" viewBox="0 0 32 32">
<title>card_white</title>
<path fill="#fff" d="M4 4h24c2.209 0 4 1.791 4 4v16c0 2.209-1.791 4-4 4h-24c-2.209 0-4-1.791-4-4v-16c0-2.209 1.791-4 4-4z"></path>
<path fill="#000" d="M12.74 15.562l-1.389 5.042h-0.755l-0.845-2.928-0.815 2.928h-0.785l-1.359-4.709c-0.030-0.091-0.091-0.151-0.181-0.211s-0.181-0.091-0.272-0.091v-0.030h0.634c0.091 0 0.181 0.030 0.242 0.060s0.121 0.091 0.181 0.151c0.060 0.060 0.091 0.121 0.121 0.211s0.060 0.151 0.091 0.242l1.147 4.196 0.815-3.019-0.423-1.509c-0.030-0.091-0.091-0.151-0.181-0.211s-0.181-0.091-0.272-0.091v-0.030h0.634c0.091 0 0.181 0.030 0.242 0.060s0.121 0.091 0.181 0.151c0.060 0.060 0.091 0.121 0.121 0.211s0.060 0.151 0.091 0.242l1.147 4.196 1.449-4.86h0.181z"></path>
<path fill="#000" d="M17.087 15.592c-0.060 0-0.151 0.030-0.211 0.121-0.060 0.060-0.121 0.181-0.121 0.272v4.619h-0.664v-2.506h-1.872v2.506h-0.634v-4.619c0-0.121-0.030-0.211-0.091-0.272s-0.151-0.121-0.211-0.121v-0.030h0.392c0.181 0 0.332 0.060 0.423 0.181s0.151 0.272 0.151 0.453v1.751h1.872v-1.751c0-0.211 0.060-0.362 0.151-0.453 0.091-0.121 0.241-0.181 0.423-0.181l0.392 0.030z"></path>
<path fill="#000" d="M18.506 20.604h-0.664v-4.679c0-0.091-0.030-0.181-0.091-0.242s-0.151-0.091-0.241-0.091v-0.030h0.332c0.181 0 0.332 0.060 0.453 0.181s0.181 0.272 0.181 0.453v4.408h0.030z"></path>
<path fill="#000" d="M22.491 16.287h-0.030c-0.060-0.121-0.121-0.211-0.151-0.302-0.060-0.091-0.121-0.151-0.181-0.181s-0.151-0.060-0.211-0.091c-0.091-0.030-0.181-0.030-0.302-0.030h-0.513v4.891h-0.664v-4.86h-0.513c-0.121 0-0.211 0-0.302 0.030s-0.151 0.060-0.211 0.091c-0.060 0.030-0.121 0.091-0.181 0.181s-0.121 0.181-0.151 0.302h-0.060l0.121-0.725h3.2l0.151 0.694z"></path>
<path fill="#000" d="M26.325 19.879l-0.121 0.725h-2.868v-4.589c0-0.121-0.030-0.211-0.091-0.302s-0.151-0.121-0.241-0.121v-0.030h2.989l0.121 0.725h-0.030c-0.060-0.121-0.121-0.211-0.151-0.302-0.060-0.091-0.121-0.151-0.181-0.181s-0.151-0.060-0.211-0.091c-0.091-0.030-0.181-0.030-0.302-0.030h-1.238v2.143h1.66v0.151h-1.66v2.475h1.449c0.121 0 0.211 0 0.302-0.030s0.151-0.060 0.211-0.091c0.060-0.030 0.121-0.091 0.181-0.181s0.121-0.181 0.151-0.302h0.030v0.030z"></path>
<path fill="#000" d="M9.962 11.879c0 0 0 0.030-0.091 0.302-0.272-0.242-0.755-0.211-0.755 0.151 0 0.423 0.966 0.362 0.936 1.117-0.030 0.604-0.725 0.725-1.268 0.453 0.060-0.091 0.091-0.211 0.121-0.302 0.423 0.242 0.755 0.151 0.815-0.060 0.151-0.543-0.936-0.392-0.936-1.177 0-0.332 0.362-0.875 1.177-0.483z"></path>
<path fill="#000" d="M11.079 11.789h1.358v0.302h-1.026v0.604h0.725v0.272h-0.725v0.755h1.026v0.272h-1.358v-2.204z"></path>
<path fill="#000" d="M14.189 11.789h-0.574v2.174h0.332v-0.815h0.392c0.181 0 0.694-0.091 0.694-0.694 0-0.694-0.725-0.664-0.845-0.664zM14.159 12.875h-0.211v-0.785h0.181c0.091 0 0.604-0.030 0.634 0.362 0 0.392-0.392 0.423-0.604 0.423z"></path>
<path fill="#000" d="M23.215 13.962h0.423l-0.694-0.966c0.181-0.060 0.392-0.211 0.362-0.574-0.060-0.634-0.664-0.604-0.815-0.604h-0.574v2.174h0.332v-0.906h0.332l0.634 0.875zM22.491 12.815h-0.211v-0.725h0.181c0.091 0 0.513-0.030 0.574 0.332 0.060 0.392-0.453 0.392-0.543 0.392v0z"></path>
<path fill="#000" d="M17.419 12.664v-0.845h0.332v2.174h-0.332v-1.057h-1.087v1.057h-0.332v-2.174h0.332v0.845z"></path>
<path fill="#000" d="M25.147 11.789h0.392l0.785 2.174h-0.332c0 0-0.091-0.211-0.181-0.513h-0.875c0 0-0.030 0.121-0.151 0.513h-0.332l0.694-2.174zM24.996 13.238h0.694l-0.332-1.087-0.362 1.087zM19.864 12.060v0c0.483 0 0.785 0.362 0.785 0.845s-0.272 0.845-0.785 0.845c-0.513 0-0.785-0.392-0.785-0.845 0-0.483 0.272-0.845 0.785-0.845zM19.864 11.728c-0.694 0-1.147 0.513-1.147 1.147s0.453 1.147 1.147 1.147c0.694 0 1.147-0.513 1.147-1.147-0.030-0.634-0.483-1.147-1.147-1.147v0z"></path>
<path fill="#000" d="M6.37 11.819h1.087v0.8h-1.087v-0.8z"></path>
<path fill="#000" d="M6.37 12.664h1.087v0.8h-1.087v-0.8z"></path>
<path fill="#000" d="M6.37 13.54h1.087v0.8h-1.087v-0.8z"></path>
</svg>
