<!-- Generated by IcoMoon.io -->
<svg version="1.1" xmlns="http://www.w3.org/2000/svg" width="32" height="32" viewBox="0 0 32 32">
<title>youtube</title>
<path fill="#040000" d="M16 27.6c-6.396 0-11.6-5.204-11.6-11.6s5.204-11.6 11.6-11.6c6.396 0 11.6 5.204 11.6 11.6s-5.204 11.6-11.6 11.6zM16 2.8c-7.278 0-13.2 5.922-13.2 13.2s5.922 13.2 13.2 13.2c7.278 0 13.2-5.922 13.2-13.2s-5.922-13.2-13.2-13.2z"></path>
<path fill="#231f20" d="M13.601 16.332h-2.647v0.784h0.906v4.821h0.835v-4.821h0.906v-0.784zM15.151 17.758v3.025c0 0.224-0.188 0.46-0.409 0.513-0.142 0.034-0.235-0.026-0.254-0.17-0.008-0.058-0.004-0.119-0.004-0.178-0-1.017-0-2.034-0-3.051v-0.139h-0.763v0.11c0 1.079-0.001 2.158 0.001 3.236 0 0.127 0.009 0.254 0.024 0.38 0.048 0.422 0.333 0.615 0.739 0.48 0.15-0.050 0.285-0.149 0.418-0.24 0.085-0.058 0.154-0.141 0.249-0.231v0.444h0.763v-4.18h-0.763zM21.676 19.966c0-0.428 0.024-0.838-0.005-1.244-0.062-0.852-0.747-1.202-1.475-1.017-0.469 0.119-0.774 0.516-0.788 1.058-0.018 0.704-0.012 1.409-0.001 2.114 0.004 0.245 0.072 0.483 0.224 0.686 0.263 0.351 0.627 0.462 1.051 0.437 0.437-0.026 0.801-0.291 0.945-0.703 0.091-0.263 0.069-0.535 0.070-0.809h-0.785c0 0.080 0.001 0.152-0 0.224s-0.007 0.144-0.010 0.216c-0.011 0.229-0.123 0.363-0.32 0.383-0.195 0.019-0.371-0.093-0.393-0.308-0.036-0.34-0.034-0.683-0.048-1.038h1.535zM17.321 21.568c0.025-0.004 0.036-0.008 0.047-0.012 0.070 0.075 0.134 0.158 0.213 0.222 0.083 0.066 0.176 0.124 0.274 0.163 0.399 0.16 0.766-0.017 0.873-0.428 0.044-0.17 0.067-0.351 0.069-0.527 0.007-0.76 0.006-1.52 0.001-2.28-0.001-0.153-0.020-0.308-0.050-0.459-0.076-0.386-0.342-0.59-0.727-0.531-0.149 0.023-0.293 0.11-0.427 0.189-0.093 0.055-0.273 0.238-0.273 0.238v-1.81h-0.739v5.605h0.739v-0.37zM22.638 18.494v1.425c-0.008 0.149-0.020 0.299-0.024 0.448-0.016 0.593-0.070 1.182-0.193 1.764-0.148 0.701-0.692 1.235-1.37 1.295-0.754 0.067-1.511 0.102-2.267 0.151-0.114 0.007-0.229 0.016-0.343 0.024h-4.245c-0.047-0.006-0.094-0.015-0.141-0.018-0.8-0.050-1.6-0.094-2.399-0.15-0.681-0.047-1.253-0.534-1.416-1.198-0.146-0.594-0.195-1.199-0.216-1.808-0.005-0.153-0.016-0.307-0.024-0.46v-1.449c0.007-0.086 0.018-0.173 0.020-0.259 0.010-0.653 0.062-1.302 0.197-1.943 0.148-0.703 0.645-1.207 1.358-1.289 0.733-0.084 1.471-0.143 2.208-0.156 2.386-0.044 4.773-0.093 7.154 0.13 0.714 0.067 1.292 0.528 1.463 1.223 0.145 0.586 0.192 1.184 0.213 1.785 0.006 0.162 0.016 0.323 0.024 0.484v0z"></path>
<path fill="#231f20" d="M13.982 14.076h-0.858v-0.141c0 0-0.026-1.030-0.006-1.543 0.020-0.506-0.063-0.991-0.222-1.466-0.267-0.797-0.536-1.593-0.805-2.39-0.014-0.040-0.027-0.081-0.043-0.136h0.9c0.196 0.724 0.392 1.446 0.589 2.167 0.009 0.001 0.018 0.003 0.027 0.004 0.189-0.721 0.567-2.148 0.567-2.148h0.861c-0.009 0.037-0.014 0.070-0.024 0.102-0.316 1.042-0.633 2.084-0.947 3.127-0.024 0.081-0.037 0.165-0.037 0.249-0.003 0.676-0.002 1.353-0.002 2.029v0.145z"></path>
<path fill="#231f20" d="M19.348 9.873h0.787v4.204h-0.763v-0.438c-0.096 0.091-0.167 0.162-0.243 0.227-0.19 0.163-0.4 0.284-0.661 0.279-0.264-0.005-0.429-0.138-0.486-0.398-0.024-0.108-0.042-0.219-0.043-0.329-0.004-1.165-0.004-2.33-0.004-3.496-0-0.023 0.003-0.046 0.004-0.074h0.741v0.151c0.003 1.021 0.003 2.042 0.004 3.063 0 0.067 0.003 0.135 0.014 0.201 0.025 0.153 0.116 0.208 0.265 0.165 0.213-0.061 0.392-0.297 0.385-0.517v-3.039z"></path>
<path fill="#231f20" d="M16.488 11.974c0.008-0 0.015-0 0.023-0 0-0.305 0.006-0.609-0.003-0.914-0.003-0.121-0.026-0.244-0.061-0.36-0.042-0.139-0.151-0.208-0.298-0.211-0.149-0.003-0.264 0.064-0.308 0.212-0.038 0.127-0.061 0.263-0.062 0.395-0.007 0.578-0.007 1.155 0 1.733 0.002 0.136 0.027 0.275 0.064 0.406 0.036 0.128 0.137 0.198 0.277 0.203 0.205 0.007 0.351-0.106 0.363-0.339 0.019-0.374 0.005-0.75 0.005-1.126zM17.272 11.972c0 0.34 0.010 0.681-0.003 1.020-0.011 0.28-0.077 0.549-0.267 0.77-0.31 0.36-0.711 0.448-1.155 0.345-0.438-0.101-0.692-0.399-0.787-0.828-0.031-0.142-0.048-0.289-0.050-0.434-0.005-0.605-0.008-1.211 0.001-1.816 0.004-0.299 0.063-0.591 0.26-0.834 0.319-0.391 0.743-0.473 1.204-0.355s0.714 0.455 0.766 0.913c0.046 0.403 0.041 0.812 0.059 1.219-0.010 0-0.019 0-0.029 0.001z"></path>
<path fill="#231f20" d="M17.321 19.84c0-0.384-0-0.768 0-1.152 0-0.152 0.095-0.247 0.293-0.297 0.151-0.038 0.286 0.005 0.339 0.143 0.049 0.126 0.082 0.266 0.084 0.401 0.009 0.609 0.006 1.219 0.002 1.828-0.001 0.102-0.015 0.207-0.043 0.306-0.048 0.17-0.226 0.27-0.398 0.226-0.198-0.051-0.277-0.151-0.277-0.351v-1.104z"></path>
<path fill="#231f20" d="M20.92 19.349h-0.759c0.007-0.245-0.034-0.489 0.049-0.726 0.055-0.159 0.171-0.241 0.329-0.243 0.16-0.002 0.277 0.077 0.334 0.235 0.087 0.241 0.042 0.488 0.047 0.734z"></path>
<path fill="#fefefe" d="M16.488 11.974c0 0.375 0.014 0.751-0.005 1.126-0.012 0.233-0.158 0.346-0.363 0.339-0.14-0.005-0.241-0.074-0.277-0.203-0.037-0.131-0.063-0.27-0.064-0.406-0.007-0.578-0.007-1.155-0-1.733 0.001-0.132 0.024-0.268 0.062-0.395 0.045-0.148 0.159-0.215 0.308-0.212 0.147 0.003 0.256 0.072 0.298 0.211 0.035 0.116 0.057 0.239 0.061 0.36 0.008 0.304 0.003 0.609 0.003 0.914-0.008 0-0.015 0-0.023 0z"></path>
</svg>
