<svg width="20" height="20" viewBox="0 0 20 20" fill="none" xmlns="http://www.w3.org/2000/svg">
<path fill-rule="evenodd" clip-rule="evenodd" d="M15.4961 9.99999H4.50388C4.50388 9.99999 4.47687 9.92124 4.56548 8.10068C4.64793 6.4067 5.58519 6.22133 5.95189 6.1488C5.9793 6.14338 6.00351 6.13859 6.02395 6.13385C6.31718 6.0658 9.98318 6.0003 9.99994 6C9.99994 6 9.99996 6 9.99994 6M9.99994 6C10.0167 6.0003 13.6828 6.0658 13.976 6.13385C13.9964 6.13859 14.0207 6.14338 14.0481 6.1488C14.4148 6.22133 15.352 6.4067 15.4345 8.10068C15.5231 9.92124 15.4961 9.99999 15.4961 9.99999M15.4961 9.99999C15.4961 9.99999 15.5231 10.0788 15.4345 11.8993C15.352 13.5933 14.4148 13.7787 14.0481 13.8512C14.0206 13.8566 13.9964 13.8614 13.976 13.8662C13.6821 13.9344 9.99994 14 9.99994 14C9.98317 13.9997 6.31718 13.9342 6.02394 13.8661C6.00352 13.8614 5.97932 13.8566 5.95194 13.8512C5.58523 13.7787 4.64793 13.5933 4.56547 11.8993C4.47686 10.0787 4.50388 9.99999 4.50388 9.99999H15.4961ZM8.89394 8.26199V11.6732L11.7124 9.99999L8.89394 8.26199ZM10 20C15.5228 20 20 15.5228 20 10C20 4.47715 15.5228 0 10 0C4.47715 0 0 4.47715 0 10C0 15.5228 4.47715 20 10 20ZM10 19C14.9706 19 19 14.9706 19 10C19 5.02944 14.9706 1 10 1C5.02944 1 1 5.02944 1 10C1 14.9706 5.02944 19 10 19Z" fill="black"/>
</svg>
