<svg xmlns="http://www.w3.org/2000/svg" viewBox="0 0 20 20"><path fill="#010101" d="M11.282 3.584H6.448a.5.5 0 010-1h4.834a.5.5 0 010 1zM11.282 5.75H6.448a.5.5 0 010-1h4.834a.5.5 0 010 1zM6.532 14.712a.5.5 0 01-.5-.5V9.918a.5.5 0 011 0v4.293a.5.5 0 01-.5.501zM14.438 6.25a5.562 5.562 0 100 11.125 5.562 5.562 0 000-11.125zm3.158 8.279a.774.774 0 01-1.063.254l-2.75-1.688a.773.773 0 01-.368-.658V8.375a.772.772 0 111.544 0v3.63l2.382 1.462a.772.772 0 01.255 1.062z"/><path fill="#010101" d="M13.221 17.954v.903a.143.143 0 01-.144.143H4.653a.143.143 0 01-.144-.143V1.143A.144.144 0 014.653 1h8.424c.079 0 .144.064.144.143V5.67c.325-.064.66-.098 1-.11V1.143C14.221.512 13.709 0 13.077 0H4.653C4.021 0 3.51.512 3.51 1.143v17.714c0 .631.511 1.143 1.143 1.143h8.424c.632 0 1.144-.512 1.144-1.143v-.793a6.085 6.085 0 01-1-.11z"/></svg>