<svg version="1.1" xmlns="http://www.w3.org/2000/svg" viewBox="0 0 20 20">
<path fill="#010101" d="M20.041,14.335c0,0,0-0.764,0-1.946c0-1.257-0.797-1.798-0.797-1.798s-4.18-3.351-4.875-4.041c-0.697-0.69-1.891-0.788-1.891-0.788h-0.663c-0.011,0.338-0.045,0.67-0.106,0.991h0.717c0.252,0.03,0.904,0.169,1.235,0.496c0.713,0.708,4.522,3.766,4.993,4.141c0.039,0.031,0.387,0.323,0.387,0.999v1.946v0.031l0.002,0.029c0.002,0.049-0.021,0.315-0.131,0.431c-0.075,0.079-0.24,0.096-0.365,0.096h-1.229c-0.241-0.849-1.019-1.474-1.954-1.474c-0.933,0-1.712,0.625-1.954,1.474H6.075c-0.242-0.849-1.02-1.474-1.954-1.474c-0.88,0-1.622,0.554-1.908,1.327c-0.495-0.196-1.171-0.582-1.171-1.228V9.885c-0.392-0.408-0.73-0.867-1-1.37c0,2.099,0,4.609,0,5.033c0,1.387,1.366,2.017,2.073,2.25c0.159,0.959,0.992,1.69,2.006,1.69c0.973,0,1.781-0.674,1.986-1.575c2.136,0,4.882,0,7.27,0c0.205,0.901,1.016,1.575,1.986,1.575c0.974,0,1.782-0.674,1.986-1.575c0.564,0,0.995,0,1.197,0C20.139,15.913,20.041,14.335,20.041,14.335z M5.095,15.788c-0.016,0.042-0.028,0.084-0.048,0.124c-0.17,0.338-0.517,0.576-0.926,0.576s-0.756-0.238-0.926-0.576c-0.02-0.04-0.032-0.082-0.048-0.124c-0.034-0.102-0.065-0.206-0.065-0.319c0-0.111,0.031-0.214,0.064-0.314c0.032-0.081,0.071-0.158,0.119-0.23c0.186-0.279,0.491-0.476,0.855-0.476s0.67,0.196,0.855,0.476c0.048,0.072,0.087,0.149,0.119,0.23c0.033,0.101,0.064,0.203,0.064,0.314C5.16,15.582,5.129,15.687,5.095,15.788z M16.337,15.788c-0.016,0.042-0.028,0.084-0.048,0.124c-0.17,0.338-0.517,0.576-0.926,0.576s-0.756-0.238-0.926-0.576c-0.02-0.04-0.032-0.082-0.048-0.124c-0.034-0.102-0.065-0.206-0.065-0.319c0-0.111,0.031-0.214,0.064-0.314c0.032-0.081,0.071-0.158,0.119-0.23c0.186-0.279,0.491-0.476,0.855-0.476s0.67,0.196,0.855,0.476c0.048,0.072,0.087,0.149,0.119,0.23c0.033,0.101,0.064,0.203,0.064,0.314C16.402,15.582,16.371,15.687,16.337,15.788z"/>
<path fill="#010101" d="M5.562,0C2.49,0,0,2.492,0,5.562s2.49,5.562,5.562,5.562s5.562-2.492,5.562-5.562S8.635,0,5.562,0zM9.039,4.601L5.302,8.338C5.157,8.483,4.96,8.564,4.755,8.564S4.354,8.483,4.209,8.338L2.086,6.214c-0.302-0.302-0.302-0.791,0-1.093C2.388,4.82,2.877,4.819,3.179,5.122l1.577,1.577l3.191-3.19c0.302-0.303,0.791-0.303,1.093,0C9.341,3.811,9.341,4.299,9.039,4.601z"/>
</svg>
