<svg xmlns="http://www.w3.org/2000/svg" viewBox="0 0 25 25"><path fill="#010101" d="M20.041 14.335v-1.946c0-1.257-.797-1.798-.797-1.798s-4.18-3.351-4.875-4.041c-.697-.69-1.891-.788-1.891-.788h-.663c-.011.338-.045.67-.106.991h.717c.252.03.904.169 1.235.496.713.708 4.522 3.766 4.993 4.141.039.031.387.323.387.999V14.366l.002.029c.002.049-.021.315-.131.431-.075.079-.24.096-.365.096h-1.229a2.028 2.028 0 00-1.954-1.474 2.03 2.03 0 00-1.954 1.474H6.075a2.03 2.03 0 00-1.954-1.474c-.88 0-1.622.554-1.908 1.327-.495-.196-1.171-.582-1.171-1.228V9.885a6.234 6.234 0 01-1-1.37v5.033c0 1.387 1.366 2.017 2.073 2.25.159.959.992 1.69 2.006 1.69.973 0 1.781-.674 1.986-1.575h7.27a2.034 2.034 0 001.986 1.575 2.03 2.03 0 001.986-1.575h1.197c1.593 0 1.495-1.578 1.495-1.578zM5.095 15.788c-.016.042-.028.084-.048.124-.17.338-.517.576-.926.576s-.756-.238-.926-.576c-.02-.04-.032-.082-.048-.124a1.001 1.001 0 01-.065-.319c0-.111.031-.214.064-.314.032-.081.071-.158.119-.23.186-.279.491-.476.855-.476s.67.196.855.476c.048.072.087.149.119.23.033.101.064.203.064.314a.943.943 0 01-.063.319zm11.242 0c-.016.042-.028.084-.048.124-.17.338-.517.576-.926.576s-.756-.238-.926-.576c-.02-.04-.032-.082-.048-.124a1.001 1.001 0 01-.065-.319c0-.111.031-.214.064-.314.032-.081.071-.158.119-.23.186-.279.491-.476.855-.476s.67.196.855.476c.048.072.087.149.119.23.033.101.064.203.064.314a.943.943 0 01-.063.319z"/><path fill="#010101" d="M5.562 0a5.563 5.563 0 000 11.124A5.563 5.563 0 005.562 0zm3.477 4.601L5.302 8.338a.773.773 0 01-1.093 0L2.086 6.214a.773.773 0 111.093-1.092l1.577 1.577 3.191-3.19a.772.772 0 111.092 1.092z"/></svg>