<svg xmlns="http://www.w3.org/2000/svg" viewBox="0 0 100 100"><g fill="none" fill-rule="evenodd"><g transform="translate(0 25.926)"><mask id="a" fill="#fff"><path d="M0 1.3h95V57H0z"/></mask><path d="M77.4 48.924c-.075.2-.132.4-.227.59-.808 1.605-2.451 2.735-4.399 2.735-1.942 0-3.586-1.13-4.393-2.736-.095-.19-.157-.39-.228-.589-.162-.484-.314-.978-.314-1.515 0-.532.152-1.017.309-1.496.152-.385.337-.75.565-1.093.879-1.33 2.332-2.261 4.061-2.261 1.734 0 3.183.931 4.066 2.261.228.342.414.708.566 1.093.156.48.304.964.304 1.496 0 .537-.148 1.03-.31 1.515m-53.399 0c-.076.2-.137.4-.228.59-.807 1.605-2.455 2.735-4.398 2.735-1.943 0-3.591-1.13-4.399-2.736-.09-.19-.152-.39-.223-.589-.166-.484-.313-.978-.313-1.515 0-.532.147-1.017.308-1.496.152-.385.338-.75.566-1.093.878-1.33 2.332-2.261 4.06-2.261 1.73 0 3.183.931 4.067 2.261.223.342.413.708.565 1.093.157.48.304.964.304 1.496 0 .537-.147 1.03-.309 1.515m70.994-6.902V32.78c0-5.971-3.786-8.54-3.786-8.54S71.359 8.32 68.053 5.043C64.742 1.766 59.075 1.3 59.075 1.3h-3.149a29.99 29.99 0 01-.508 4.707h3.406c1.197.138 4.294.803 5.866 2.356 3.387 3.363 21.484 17.888 23.717 19.67.185.147 1.838 1.534 1.838 4.745v9.391l.01.137c.009.233-.1 1.501-.623 2.048-.356.375-1.14.456-1.734.456h-5.842a9.627 9.627 0 00-9.282-7.002c-4.427 0-8.132 2.969-9.281 7.002H28.656a9.636 9.636 0 00-9.281-7.002 9.648 9.648 0 00-9.063 6.303c-2.351-.93-5.562-2.764-5.562-5.828V20.89A29.979 29.979 0 010 14.377v23.907c0 6.584 6.488 9.576 9.846 10.688.756 4.555 4.717 8.027 9.529 8.027a9.66 9.66 0 009.438-7.481h34.528c.974 4.28 4.826 7.481 9.433 7.481 4.627 0 8.47-3.201 9.439-7.481h5.685c7.562 0 7.097-7.496 7.097-7.496" fill="#020303" mask="url(#a)"/></g><g transform="translate(0 -2.574)"><mask id="b" fill="#fff"><path d="M0 3.328h52.843v52.84H0z"/></mask><path d="M30.09 34.498a3.666 3.666 0 01-3.666 3.667 3.667 3.667 0 01-3.672-3.667V13.422a3.672 3.672 0 013.672-3.676 3.671 3.671 0 013.667 3.676v21.076zm-1.092 14.188c-.665.665-1.615 1.04-2.57 1.04-.992 0-1.942-.375-2.607-1.04-.665-.717-1.093-1.658-1.093-2.608 0-.954.428-1.904 1.093-2.612 1.377-1.34 3.795-1.378 5.177.043.713.612 1.093 1.567 1.093 2.57 0 .95-.38 1.89-1.093 2.607zM26.424 3.328C11.827 3.328 0 15.161 0 29.748c0 14.578 11.827 26.42 26.424 26.42 14.592 0 26.42-11.842 26.42-26.42 0-14.587-11.828-26.42-26.42-26.42z" fill="#020303" mask="url(#b)"/></g></g></svg>