<svg version="1.1" xmlns="http://www.w3.org/2000/svg" viewBox="0 0 20 20">
<path d="m5.095 15.788c.034-.102.065-.206.065-.319 0-.111-.031-.214-.064-.314-.032-.081-.071-.158-.119-.23-.186-.279-.491-.476-.855-.476s-.67.196-.855.476c-.048.072-.087.149-.119.23-.033.101-.064.203-.064.314 0 .113.031.218.065.319.016.042.028.084.048.124.17.338.517.576.926.576s.756-.238.926-.576c.017-.04.03-.082.046-.124z" fill="none"/>
<path d="m16.219 14.924c-.186-.279-.491-.476-.855-.476s-.67.196-.855.476c-.048.072-.087.149-.119.23-.033.101-.064.203-.064.314 0 .113.031.218.065.319.016.042.028.084.048.124.17.338.517.576.926.576s.756-.238.926-.576c.02-.04.032-.082.048-.124.034-.102.065-.206.065-.319 0-.111-.031-.214-.064-.314-.034-.081-.073-.158-.121-.23z" fill="none"/>
<g fill="#010101">
<path d="m5.562 0c-3.072 0-5.562 2.492-5.562 5.562s2.49 5.562 5.562 5.562 5.562-2.492 5.562-5.562c.001-3.07-2.489-5.562-5.562-5.562zm2.415 6.885c.302.302.302.791 0 1.093-.15.151-.349.226-.546.226-.198 0-.396-.075-.546-.226l-1.323-1.323-1.322 1.323c-.15.15-.348.226-.546.226s-.395-.076-.546-.226c-.302-.302-.302-.791 0-1.093l1.322-1.322-1.322-1.323c-.302-.302-.302-.791 0-1.093.301-.303.791-.302 1.092 0l1.322 1.323 1.322-1.323c.301-.302.791-.302 1.092 0 .302.302.302.791 0 1.093l-1.322 1.322z"/>
<path d="m20.041 14.335s0-.764 0-1.946c0-1.257-.797-1.798-.797-1.798s-4.18-3.351-4.875-4.041c-.697-.69-1.891-.788-1.891-.788h-.663c-.011.337-.045.669-.106.991h.717c.252.03.904.169 1.235.496.713.708 4.522 3.766 4.993 4.141.039.031.387.323.387.999v1.946.031l.002.029c.002.049-.021.315-.131.431-.075.079-.24.096-.365.096h-1.229c-.241-.849-1.019-1.474-1.954-1.474-.933 0-1.712.625-1.954 1.474h-7.335c-.242-.849-1.02-1.474-1.954-1.474-.88 0-1.622.554-1.908 1.327-.495-.196-1.171-.582-1.171-1.228v-3.662c-.392-.409-.73-.868-1-1.371v5.033c0 1.387 1.366 2.017 2.073 2.25.159.959.992 1.69 2.006 1.69.973 0 1.781-.674 1.986-1.575h7.27c.205.901 1.016 1.575 1.986 1.575.974 0 1.782-.674 1.986-1.575h1.197c1.593.001 1.495-1.577 1.495-1.577zm-14.946 1.453c-.016.042-.028.084-.048.124-.17.338-.517.576-.926.576s-.756-.238-.926-.576c-.02-.04-.032-.082-.048-.124-.034-.102-.065-.206-.065-.319 0-.111.031-.214.064-.314.032-.081.071-.158.119-.23.186-.279.491-.476.855-.476s.67.196.855.476c.048.072.087.149.119.23.033.101.064.203.064.314.002.113-.029.218-.063.319zm11.242 0c-.016.042-.028.084-.048.124-.17.338-.517.576-.926.576s-.756-.238-.926-.576c-.02-.04-.032-.082-.048-.124-.034-.102-.065-.206-.065-.319 0-.111.031-.214.064-.314.032-.081.071-.158.119-.23.186-.279.491-.476.855-.476s.67.196.855.476c.048.072.087.149.119.23.033.101.064.203.064.314.002.113-.029.218-.063.319z"/>
</g>
</svg>