<svg version="1.1" xmlns="http://www.w3.org/2000/svg" viewBox="0 0 20 20">
<path fill="#010101" d="M8.459,5.75H0.816C0.364,5.75,0,6.116,0,6.567c0,0.451,0.364,0.816,0.816,0.816h7.643V5.75z"/>
<path fill="#010101" d="M6.627,8.647H0.845C0.377,8.647,0,9.025,0,9.491c0,0.467,0.377,0.845,0.845,0.845h5.782V8.647z"/>
<path fill="none" d="M5.095,15.788c0.034-0.102,0.065-0.206,0.065-0.319c0-0.111-0.031-0.214-0.064-0.314c-0.032-0.081-0.071-0.159-0.119-0.231c-0.186-0.279-0.491-0.475-0.855-0.475s-0.67,0.196-0.855,0.475c-0.048,0.072-0.087,0.15-0.119,0.231c-0.033,0.101-0.064,0.203-0.064,0.314c0,0.113,0.031,0.218,0.065,0.319c0.016,0.042,0.028,0.084,0.048,0.124c0.17,0.338,0.517,0.577,0.926,0.577s0.756-0.238,0.926-0.577C5.066,15.872,5.079,15.83,5.095,15.788z"/>
<path fill="none" d="M16.219,14.923c-0.186-0.279-0.491-0.475-0.855-0.475s-0.67,0.196-0.855,0.475c-0.048,0.072-0.087,0.15-0.119,0.231c-0.033,0.101-0.064,0.203-0.064,0.314c0,0.113,0.031,0.218,0.065,0.319c0.016,0.042,0.028,0.084,0.048,0.124c0.17,0.338,0.517,0.577,0.926,0.577s0.756-0.238,0.926-0.577c0.02-0.04,0.032-0.082,0.048-0.124c0.034-0.102,0.065-0.206,0.065-0.319c0-0.111-0.031-0.214-0.064-0.314C16.306,15.073,16.267,14.996,16.219,14.923z"/>
<path fill="#010101" d="M20.041,14.335c0,0,0-0.764,0-1.946c0-1.257-0.797-1.798-0.797-1.798s-4.18-3.351-4.875-4.041c-0.697-0.69-1.891-0.788-1.891-0.788H9.626v0.991h2.8c0.252,0.03,0.904,0.169,1.235,0.496c0.713,0.708,4.522,3.766,4.993,4.141c0.039,0.031,0.387,0.323,0.387,0.999v1.946v0.031l0.002,0.029c0.002,0.049-0.021,0.315-0.131,0.431c-0.075,0.079-0.24,0.096-0.365,0.096h-1.229c-0.241-0.849-1.019-1.474-1.954-1.474c-0.933,0-1.712,0.625-1.954,1.474H6.075c-0.242-0.849-1.02-1.474-1.954-1.474c-0.88,0-1.622,0.554-1.908,1.327c-0.495-0.196-1.171-0.582-1.171-1.228v-1.839h-1c0,1.087,0,1.159,0,1.839c0,1.387,1.366,2.017,2.073,2.25c0.159,0.959,0.992,1.69,2.006,1.69c0.973,0,1.781-0.673,1.986-1.575c2.136,0,4.882,0,7.27,0c0.205,0.902,1.016,1.575,1.986,1.575c0.974,0,1.782-0.673,1.986-1.575c0.564,0,0.995,0,1.197,0C20.139,15.913,20.041,14.335,20.041,14.335z M4.121,16.488c-0.409,0-0.756-0.238-0.926-0.577c-0.02-0.04-0.032-0.082-0.048-0.124c-0.034-0.102-0.065-0.206-0.065-0.319c0-0.111,0.031-0.214,0.064-0.314c0.032-0.081,0.071-0.159,0.119-0.231c0.186-0.279,0.491-0.475,0.855-0.475s0.67,0.196,0.855,0.475c0.048,0.072,0.087,0.15,0.119,0.231c0.033,0.101,0.064,0.203,0.064,0.314c0,0.113-0.031,0.218-0.065,0.319c-0.016,0.042-0.028,0.084-0.048,0.124C4.877,16.25,4.53,16.488,4.121,16.488z M16.337,15.788c-0.016,0.042-0.028,0.084-0.048,0.124c-0.17,0.338-0.517,0.577-0.926,0.577s-0.756-0.238-0.926-0.577c-0.02-0.04-0.032-0.082-0.048-0.124c-0.034-0.102-0.065-0.206-0.065-0.319c0-0.111,0.031-0.214,0.064-0.314c0.032-0.081,0.071-0.159,0.119-0.231c0.186-0.279,0.491-0.475,0.855-0.475s0.67,0.196,0.855,0.475c0.048,0.072,0.087,0.15,0.119,0.231c0.033,0.101,0.064,0.203,0.064,0.314C16.402,15.582,16.371,15.687,16.337,15.788z"/>
</svg>
