<svg xmlns="http://www.w3.org/2000/svg" viewBox="0 0 20 20"><path fill="#010101" d="M8.459 5.75H.816a.816.816 0 100 1.633h7.643V5.75zM6.627 8.647H.845a.844.844 0 100 1.689h5.782V8.647z"/><path fill="none" d="M5.095 15.788c.034-.102.065-.206.065-.319a.998.998 0 00-.064-.314 1.23 1.23 0 00-.119-.231c-.186-.279-.491-.475-.855-.475s-.67.196-.855.475a1.23 1.23 0 00-.119.231 1.003 1.003 0 00-.064.314c0 .113.031.218.065.319.016.042.028.084.048.124.17.338.517.577.926.577s.756-.238.926-.577c.017-.04.03-.082.046-.124zM16.219 14.923c-.186-.279-.491-.475-.855-.475s-.67.196-.855.475a1.23 1.23 0 00-.119.231 1.003 1.003 0 00-.064.314c0 .113.031.218.065.319.016.042.028.084.048.124.17.338.517.577.926.577s.756-.238.926-.577c.02-.04.032-.082.048-.124.034-.102.065-.206.065-.319a.998.998 0 00-.064-.314 1.41 1.41 0 00-.121-.231z"/><path fill="#010101" d="M20.041 14.335v-1.946c0-1.257-.797-1.798-.797-1.798s-4.18-3.351-4.875-4.041c-.697-.69-1.891-.788-1.891-.788H9.626v.991h2.8c.252.03.904.169 1.235.496.713.708 4.522 3.766 4.993 4.141.039.031.387.323.387.999V14.366l.002.029c.002.049-.021.315-.131.431-.075.079-.24.096-.365.096h-1.229a2.028 2.028 0 00-1.954-1.474 2.03 2.03 0 00-1.954 1.474H6.075a2.03 2.03 0 00-1.954-1.474c-.88 0-1.622.554-1.908 1.327-.495-.196-1.171-.582-1.171-1.228v-1.839h-1v1.839c0 1.387 1.366 2.017 2.073 2.25.159.959.992 1.69 2.006 1.69a2.03 2.03 0 001.986-1.575h7.27a2.033 2.033 0 001.986 1.575c.974 0 1.782-.673 1.986-1.575h1.197c1.593.001 1.495-1.577 1.495-1.577zm-15.92 2.153c-.409 0-.756-.238-.926-.577-.02-.04-.032-.082-.048-.124a1.001 1.001 0 01-.065-.319c0-.111.031-.214.064-.314a1.23 1.23 0 01.119-.231c.186-.279.491-.475.855-.475s.67.196.855.475c.048.072.087.15.119.231.033.101.064.203.064.314a.996.996 0 01-.065.319c-.016.042-.028.084-.048.124a1.03 1.03 0 01-.924.577zm12.216-.7c-.016.042-.028.084-.048.124-.17.338-.517.577-.926.577s-.756-.238-.926-.577c-.02-.04-.032-.082-.048-.124a1.001 1.001 0 01-.065-.319c0-.111.031-.214.064-.314a1.23 1.23 0 01.119-.231c.186-.279.491-.475.855-.475s.67.196.855.475c.048.072.087.15.119.231.033.101.064.203.064.314a.943.943 0 01-.063.319z"/></svg>