<svg version="1.1" xmlns="http://www.w3.org/2000/svg" viewBox="0 0 120 120">
<path d="M55.5555556,57.1911111 C55.5555556,60.2577778 53.0711111,62.7466667 50,62.7466667 C46.9333333,62.7466667 44.4444444,60.2577778 44.4444444,57.1911111 L44.4444444,25.28 C44.4444444,22.2088889 46.9333333,19.7244444 50,19.7244444 C53.0711111,19.7244444 55.5555556,22.2088889 55.5555556,25.28 L55.5555556,57.1911111 Z M53.8977778,78.6711111 C52.8933333,79.6755556 51.4533333,80.2488889 50.0133333,80.2488889 C48.5066667,80.2488889 47.0711111,79.6755556 46.0622222,78.6711111 C45.0577778,77.5911111 44.4133333,76.16 44.4133333,74.72 C44.4133333,73.28 45.0577778,71.84 46.0622222,70.7644444 C48.1466667,68.7511111 51.8133333,68.68 53.8977778,70.8355556 C54.9822222,71.7688889 55.5555556,73.2088889 55.5555556,74.72 C55.5555556,76.16 54.9822222,77.5911111 53.8977778,78.6711111 Z M50,10 C27.9066667,10 10,27.92 10,50 C10,72.08 27.9066667,90 50,90 C72.0933333,90 90,72.08 90,50 C90,27.92 72.0933333,10 50,10 Z" id="warning"></path>
</symbol>
</svg>