<svg xmlns="http://www.w3.org/2000/svg" viewBox="0 0 20 20"><g fill="#010101"><path d="M12.616 4.375H4.741a.5.5 0 010-1h7.875a.5.5 0 010 1zM14.438 6.375a5.562 5.562 0 100 11.125 5.562 5.562 0 000-11.125zm3.476 4.601l-3.737 3.737a.771.771 0 01-1.092 0l-2.123-2.124a.773.773 0 111.093-1.093l1.577 1.578 3.191-3.191a.773.773 0 111.091 1.093z"/><path d="M15.036 18.17v.687a.143.143 0 01-.144.143H2.465a.144.144 0 01-.144-.143V1.143c0-.079.065-.143.144-.143h12.428c.079 0 .144.064.144.143v4.562c.343.033.675.099 1 .185V1.143A1.145 1.145 0 0014.893 0H2.465c-.632 0-1.144.512-1.144 1.143v17.714c0 .631.512 1.143 1.144 1.143h12.428c.632 0 1.144-.512 1.144-1.143v-.872a6.267 6.267 0 01-1.001.185z"/><path d="M11.573 6.375H4.741a.5.5 0 000 1h5.42a6.301 6.301 0 011.412-1zM8.729 9.375H4.741a.5.5 0 000 1H8.38c.089-.346.205-.68.349-1zM8.197 12.375H4.741a.5.5 0 000 1h3.606a6.328 6.328 0 01-.15-1z"/></g></svg>