<svg version="1.1" xmlns="http://www.w3.org/2000/svg" viewBox="0 0 20 20">
<g fill="#010101">
<path d="m12.616 4.375h-7.875c-.276 0-.5-.224-.5-.5s.224-.5.5-.5h7.875c.276 0 .5.224.5.5s-.223.5-.5.5z"/><path d="m14.438 6.375c-3.073 0-5.562 2.492-5.562 5.562s2.49 5.562 5.562 5.562 5.562-2.491 5.562-5.561-2.49-5.563-5.562-5.563zm3.476 4.601-3.737 3.737c-.145.145-.341.226-.546.226s-.401-.082-.546-.226l-2.123-2.124c-.302-.302-.302-.791 0-1.093s.791-.302 1.093 0l1.577 1.578 3.191-3.191c.302-.302.791-.302 1.093 0s.3.791-.002 1.093z"/>
<path d="m15.036 18.17v.687c0 .079-.064.143-.144.143h-12.427c-.079 0-.144-.064-.144-.143v-17.714c0-.079.065-.143.144-.143h12.428c.079 0 .144.064.144.143v4.562c.343.033.675.099 1 .185v-4.747c-.001-.631-.513-1.143-1.144-1.143h-12.428c-.632 0-1.144.512-1.144 1.143v17.714c0 .631.512 1.143 1.144 1.143h12.428c.632 0 1.144-.512 1.144-1.143v-.872c-.326.086-.658.152-1.001.185z"/>
<path d="m11.573 6.375h-6.832c-.276 0-.5.224-.5.5s.224.5.5.5h5.42c.421-.395.895-.732 1.412-1z"/>
<path d="m8.729 9.375h-3.988c-.276 0-.5.224-.5.5s.224.5.5.5h3.639c.089-.346.205-.68.349-1z"/>
<path d="m8.197 12.375h-3.456c-.276 0-.5.224-.5.5s.224.5.5.5h3.606c-.076-.325-.126-.658-.15-1z"/>
</g>
</svg>
