<svg version="1.1" xmlns="http://www.w3.org/2000/svg" viewBox="0 0 28 28">
<path fill="#010101" d="M10,1c-4.972,0-9,4.031-9,9s4.028,9,9,9s9-4.031,9-9S14.972,1,10,1z M14.856,13.091c0.488,0.488,0.488,1.279,0,1.768c-0.244,0.244-0.564,0.366-0.884,0.366s-0.64-0.122-0.884-0.366L10,11.77l-3.088,3.088c-0.244,0.244-0.564,0.366-0.884,0.366s-0.64-0.122-0.884-0.366c-0.488-0.488-0.488-1.279,0-1.768l3.088-3.088L5.139,6.909c-0.488-0.488-0.488-1.279,0-1.768s1.279-0.488,1.768,0L10,8.235l3.093-3.093c0.488-0.488,1.279-0.488,1.768,0s0.488,1.279,0,1.768l-3.093,3.093L14.856,13.091z"/>
</symbol>
</svg>