<svg xmlns="http://www.w3.org/2000/svg" viewBox="0 0 20 20"><path fill="none" d="M8.971 13.745l-4.127-2.402v4.699l4.127 2.401zM12.017 15.813a.5.5 0 01-.295-.096L9.971 14.44v4.003l4.127-2.401v-1.466l-1.812 1.159a.503.503 0 01-.269.078z"/><path fill="#010101" d="M10 0a5.563 5.563 0 000 11.124A5.563 5.563 0 0010 0zm3.263 6.092l-2.73 2.603a.77.77 0 01-1.066 0l-2.73-2.603a.772.772 0 011.067-1.118l1.423 1.357V2.677a.772.772 0 111.544 0v3.654l1.425-1.358a.773.773 0 011.067 1.119z"/><path fill="#010101" d="M17.654 11.425l-2.819-1.563a.458.458 0 00-.249-.049 6.252 6.252 0 01-3.136 1.836l-1.987 1.225-4.149-2.415.464-.285A6.257 6.257 0 014.21 7.942L2.331 9.068a.499.499 0 00-.009.852l1.521.956v5.741l5.627 3.274 5.627-3.274v-2.681l2.584-1.653a.502.502 0 00-.027-.858zm-8.683 7.018l-4.127-2.401v-4.699l4.127 2.401v4.699zm5.127-2.401l-4.127 2.401V14.44l1.751 1.277a.5.5 0 00.565.017l1.812-1.159v1.467z"/></svg>