<svg version="1.1" xmlns="http://www.w3.org/2000/svg" viewBox="0 0 20 20">
<polygon fill="none" points="8.971,13.745 4.844,11.343 4.844,16.042 8.971,18.443    "/>
<path fill="none" d="M12.017,15.813c-0.104,0-0.207-0.032-0.295-0.096L9.971,14.44v4.003l4.127-2.401v-1.466l-1.812,1.159C12.204,15.787,12.11,15.813,12.017,15.813z"/>
<path fill="#010101" d="M10,0C6.928,0,4.438,2.492,4.438,5.562s2.49,5.562,5.562,5.562s5.562-2.492,5.562-5.562S13.072,0,10,0zM13.263,6.092l-2.73,2.603c-0.149,0.143-0.342,0.213-0.533,0.213c-0.192,0-0.384-0.071-0.533-0.213L6.737,6.092C6.429,5.797,6.417,5.308,6.712,5c0.294-0.309,0.783-0.32,1.092-0.026l1.423,1.357V2.677c0-0.427,0.346-0.772,0.772-0.772s0.772,0.346,0.772,0.772v3.654l1.425-1.358C12.505,4.679,12.993,4.69,13.289,5C13.583,5.309,13.571,5.797,13.263,6.092z"/>
<path fill="#010101" d="M17.654,11.425l-2.819-1.563c-0.077-0.043-0.163-0.053-0.249-0.049c-0.828,0.894-1.912,1.544-3.136,1.836l-1.987,1.225l-4.149-2.415l0.464-0.285C5.104,9.558,4.563,8.799,4.21,7.942L2.331,9.068C2.182,9.157,2.09,9.317,2.088,9.491S2.175,9.828,2.322,9.92l1.521,0.956v5.741l5.627,3.274l5.627-3.274v-2.681l2.584-1.653c0.148-0.095,0.235-0.261,0.23-0.437C17.906,11.67,17.809,11.51,17.654,11.425z M8.971,18.443l-4.127-2.401v-4.699l4.127,2.401V18.443z M14.098,16.042l-4.127,2.401V14.44l1.751,1.277c0.088,0.064,0.191,0.096,0.295,0.096c0.094,0,0.188-0.026,0.27-0.079l1.812-1.159V16.042z"/>
</svg>
