<svg version="1.1" xmlns="http://www.w3.org/2000/svg" viewBox="0 0 32 32">
<path class="path1" d="M25.6 27.36h-19.2c-0.72 0-1.28-0.32-1.6-0.8s-0.24-1.2 0.080-1.76l9.6-17.52c0.32-0.64 0.88-0.96 1.44-0.96s1.12 0.4 1.44 0.96l9.6 17.52c0.32 0.64 0.4 1.28 0.080 1.76-0.16 0.48-0.72 0.8-1.44 0.8zM6.24 25.76c0 0 0.080 0 0.16 0h19.2c0.080 0 0.16 0 0.24 0 0 0 0-0.080-0.080-0.16l-9.68-17.6c0-0.080-0.080-0.080-0.080-0.080s-0.080 0.080-0.080 0.080l-9.6 17.52c-0.080 0.16-0.080 0.16-0.080 0.24 0 0 0 0 0 0z"></path>
<path class="path2" d="M15.2 22.24c0-0.48 0.32-0.72 0.8-0.72s0.72 0.32 0.72 0.72c0 0.48-0.32 0.8-0.8 0.8-0.4-0.080-0.72-0.32-0.72-0.8zM15.52 13.68l1.040-0.080v6.56l-1.040 0.080v-6.56z"></path>
</svg>