<svg version="1.1" xmlns="http://www.w3.org/2000/svg" viewBox="0 0 32 32">
<path class="path1" d="M25.2 18.72v4.24c0 0.88-0.72 1.6-1.6 1.6h-18.8c-0.88 0-1.6-0.72-1.6-1.6v-5.12h19.040c-0.72-0.4-1.28-0.96-1.84-1.6h-17.2v-2.96h15.92c-0.080-0.32-0.080-0.64-0.080-0.96 0-0.24 0-0.4 0-0.64h-15.84v-0.56c0-0.88 0.72-1.6 1.6-1.6h14.88c0.32-0.56 0.64-1.12 1.12-1.6h-16c-1.76 0-3.2 1.44-3.2 3.2v11.84c0 1.76 1.44 3.2 3.2 3.2h18.8c1.76 0 3.2-1.44 3.2-3.2v-4.32c-0.4 0.080-0.8 0.16-1.28 0.16-0.080 0-0.24-0.080-0.32-0.080z"></path>
<path class="path2" d="M25.52 7.44c-0.72 0-1.44 0.16-2.080 0.48-0.72 0.4-1.44 0.88-1.92 1.6-0.48 0.64-0.72 1.36-0.8 2.16 0 0.16-0.080 0.4-0.080 0.64 0 0.32 0 0.64 0.080 0.96 0.24 1.2 0.96 2.24 1.92 2.96 0.72 0.48 1.6 0.8 2.48 0.88 0.080 0 0.24 0 0.32 0 0.4 0 0.88-0.080 1.28-0.16 2.080-0.56 3.6-2.48 3.6-4.72 0.080-2.64-2.080-4.8-4.8-4.8zM24.8 8.4h1.6v4.8h-1.6v-4.8zM25.68 15.92c-0.48 0-0.88-0.4-0.88-0.88s0.4-0.88 0.88-0.88c0.48 0 0.88 0.4 0.88 0.88s-0.4 0.88-0.88 0.88z"></path>
</svg>