<svg xmlns="http://www.w3.org/2000/svg" viewBox="0 0 32 32"><path class="path1" d="M25.52 18.32v4.24c0 .88-.72 1.6-1.6 1.6H5.12c-.88 0-1.6-.72-1.6-1.6v-5.12h19.04c-.72-.4-1.28-.96-1.84-1.6H3.52v-2.96h15.92c-.08-.32-.08-.64-.08-.96v-.64H3.52v-.56c0-.88.72-1.6 1.6-1.6H20c.32-.56.64-1.12 1.12-1.6h-16a3.21 3.21 0 00-3.2 3.2v11.84c0 1.76 1.44 3.2 3.2 3.2h18.8c1.76 0 3.2-1.44 3.2-3.2v-4.32c-.4.08-.8.16-1.28.16-.16 0-.24-.08-.32-.08z"/><path class="path2" d="M25.84 7.04c-.72 0-1.44.16-2.08.48-.72.4-1.44.88-1.92 1.6-.48.64-.72 1.36-.8 2.16 0 .16-.08.4-.08.64 0 .32 0 .64.08.96.24 1.2.96 2.24 1.92 2.96.72.48 1.6.8 2.48.88h.32c.4 0 .88-.08 1.28-.16 2.08-.56 3.6-2.48 3.6-4.72.08-2.64-2.08-4.8-4.8-4.8zm1.68 8.4l-2.72-2.4V8.8h1.6v3.44l2.16 1.92-1.04 1.28z"/></svg>