<svg version="1.1" xmlns="http://www.w3.org/2000/svg" viewBox="0 0 25 25">
<path fill="#010101" d="M11.282,3.584H6.448c-0.276,0-0.5-0.224-0.5-0.5s0.224-0.5,0.5-0.5h4.834c0.276,0,0.5,0.224,0.5,0.5S11.559,3.584,11.282,3.584z"/>
<path fill="#010101" d="M11.282,5.75H6.448c-0.276,0-0.5-0.224-0.5-0.5s0.224-0.5,0.5-0.5h4.834c0.276,0,0.5,0.224,0.5,0.5S11.559,5.75,11.282,5.75z"/>
<path fill="#010101" d="M6.532,14.712c-0.276,0-0.5-0.224-0.5-0.5V9.918c0-0.276,0.224-0.5,0.5-0.5s0.5,0.224,0.5,0.5v4.293C7.032,14.488,6.809,14.712,6.532,14.712z"/>
<path fill="#010101" d="M13.221,17.954v0.903c0,0.079-0.064,0.143-0.144,0.143H4.653c-0.079,0-0.144-0.063-0.144-0.143V1.143C4.51,1.064,4.574,1,4.653,1h8.424c0.079,0,0.144,0.064,0.144,0.143V5.67c0.324-0.064,0.66-0.098,1-0.11V1.143C14.221,0.512,13.709,0,13.077,0H4.653C4.021,0,3.51,0.512,3.51,1.143v17.714C3.51,19.488,4.021,20,4.653,20h8.424c0.632,0,1.144-0.512,1.144-1.143v-0.793C13.881,18.053,13.545,18.019,13.221,17.954z"/>
<path fill="#010101" d="M14.438,6.25c-3.072,0-5.562,2.492-5.562,5.562c0,3.07,2.49,5.562,5.562,5.562S20,14.883,20,11.812C20,8.742,17.51,6.25,14.438,6.25z M14.979,15.8c-0.14,0.14-0.34,0.22-0.54,0.22c-0.21,0-0.409-0.08-0.55-0.22c-0.14-0.15-0.229-0.35-0.229-0.55s0.09-0.4,0.229-0.55c0.29-0.28,0.8-0.29,1.09,0.01c0.15,0.13,0.23,0.33,0.23,0.54C15.21,15.45,15.13,15.649,14.979,15.8z M15.21,12.812c0,0.427-0.346,0.772-0.772,0.772s-0.772-0.346-0.772-0.772V8.375c0-0.427,0.346-0.772,0.772-0.772s0.772,0.346,0.772,0.772V12.812z"/>
</svg>