<svg xmlns="http://www.w3.org/2000/svg" viewBox="0 0 25 25"><path fill="#010101" d="M11.282 3.584H6.448a.5.5 0 010-1h4.834a.5.5 0 010 1zM11.282 5.75H6.448a.5.5 0 010-1h4.834a.5.5 0 010 1zM6.532 14.712a.5.5 0 01-.5-.5V9.918a.5.5 0 011 0v4.293a.5.5 0 01-.5.501z"/><path fill="#010101" d="M13.221 17.954v.903a.143.143 0 01-.144.143H4.653a.143.143 0 01-.144-.143V1.143A.144.144 0 014.653 1h8.424c.079 0 .144.064.144.143V5.67c.324-.064.66-.098 1-.11V1.143C14.221.512 13.709 0 13.077 0H4.653C4.021 0 3.51.512 3.51 1.143v17.714c0 .631.511 1.143 1.143 1.143h8.424c.632 0 1.144-.512 1.144-1.143v-.793a6.097 6.097 0 01-1-.11z"/><path fill="#010101" d="M14.438 6.25a5.563 5.563 0 000 11.124 5.562 5.562 0 000-11.124zm.541 9.55c-.14.14-.34.22-.54.22a.78.78 0 01-.55-.22c-.14-.15-.229-.35-.229-.55s.09-.4.229-.55c.29-.28.8-.29 1.09.01.15.13.23.33.23.54a.774.774 0 01-.23.55zm.231-2.988a.772.772 0 11-1.544 0V8.375a.772.772 0 111.544 0v4.437z"/></svg>