<svg version="1.1" xmlns="http://www.w3.org/2000/svg" viewBox="0 0 25 25">
<path fill="#010101" d="M10,1c-4.972,0-9,4.031-9,9s4.028,9,9,9s9-4.031,9-9S14.972,1,10,1z M10.527,15.172c-0.69,0-1.25-0.56-1.25-1.25s0.56-1.25,1.25-1.25c1.562,0,2.833-1.271,2.833-2.832s-1.271-2.831-2.833-2.831c-1.296,0-2.379,0.88-2.714,2.07l0.948,0.209c0.444,0.098,0.766,0.482,0.784,0.937s-0.272,0.863-0.707,0.996l-2.364,0.722c-0.096,0.029-0.194,0.044-0.292,0.044c-0.243,0-0.48-0.088-0.667-0.254l-1.844-1.647C3.333,9.781,3.241,9.288,3.448,8.884c0.207-0.405,0.664-0.617,1.105-0.521l0.821,0.181c0.583-2.312,2.663-4.034,5.153-4.034c2.94,0,5.333,2.392,5.333,5.331C15.86,12.78,13.468,15.172,10.527,15.172z"/>
</svg>