<svg xmlns="http://www.w3.org/2000/svg" viewBox="0 0 100 100"><g fill="none" fill-rule="evenodd"><g transform="translate(0 30.158)"><mask id="a" fill="#fff"><path d="M0 .834h77.896v51.271H0z"/></mask><path d="M21.115 52.027c-1.52.08-21.116.08-21.116.08L5.01 23.842c.389-2.107.768-4.187 1.156-6.262.658-3.538 1.274-7.077 1.999-10.596C8.918 3.313 12.02.845 15.777.84c7.56-.01 15.125-.01 22.685.005.644 0 1.302.062 1.932.185 2.535.511 4.306 1.96 5.377 4.325 2.018 4.452 4.073 8.886 6.115 13.329 1.667 3.638 3.344 7.276 4.997 10.928.176.393.38.53.825.53 6.48-.019 12.96-.014 19.44-.014h.748c-.928 1.113-1.781 2.137-2.634 3.155-1.568 1.866-3.14 3.733-4.699 5.618-.308.374-.644.54-1.146.573-3.396.199-6.793.44-10.189.663l-7.896.512c-.1.004-.204-.014-.294.014-1.132.37-1.615-.246-2.132-1.17-3.405-6.115-6.873-12.188-10.321-18.275-.076-.132-.152-.27-.336-.388-.053.829-.114 1.653-.157 2.482-.213 4.064-.412 8.133-.63 12.207-.213 4.026-.417 8.057-.687 12.079-.165 2.52-2.122 4.424-4.642 4.471-3.58.067-7.167.02-10.752.02-.057 0-.114-.03-.266-.062" fill="#231F20" mask="url(#a)"/></g><path d="M71.863 35.39c-2.795 0-5.59.005-8.384-.01-.668 0-1.104.138-1.09.943.029 1.73.02 3.449 0 5.173-.004.73.341 1.037 1.052 1.037 5.59-.004 11.184-.004 16.773 0 .753 0 1.118-.331 1.109-1.118-.024-1.567-.053-3.14.01-4.708.037-.99-.295-1.36-1.313-1.336-2.719.052-5.438.014-8.157.02m13.396 9.122c0 3.463.005 6.93 0 10.393-.005 1.573-.606 2.477-1.895 2.828-.317.085-.658.1-.99.1-7.01.009-14.016.009-21.022.004-1.914 0-2.923-.985-2.927-2.904a6256.24 6256.24 0 010-21.083c0-1.843 1.023-2.838 2.865-2.838 7.03-.004 14.055-.004 21.084 0 1.89 0 2.875.967 2.885 2.87.01 3.544 0 7.087 0 10.63" fill="#231F20"/><g transform="translate(9.474 -3)"><mask id="b" fill="#fff"><path d="M3.776 3.737h30.86v11.926H3.777z"/></mask><path d="M34.637 15.663H3.777c.094-.782.094-1.55.288-2.27C5.33 8.71 8.238 5.532 12.942 4.19c4.372-1.246 8.086.142 11.288 3.17 1.582 1.5 2.676 3.33 3.33 5.413.123.389.303.521.706.507a57.027 57.027 0 013.368.01c.26.004.573.132.772.303.73.635 1.416 1.307 2.23 2.07" fill="#231F20" mask="url(#b)"/></g><path d="M13.342 15.184h24.115c.223 5.94-4.097 11.947-11.861 12.074-7.12.114-12.33-5.073-12.254-12.074" fill="#231F20"/></g></svg>